<?xml version="1.0" encoding="utf-8"?>
<!-- Generator: Adobe Illustrator 27.0.1, SVG Export Plug-In . SVG Version: 6.00 Build 0)  -->
<svg version="1.1" id="Layer_2_00000047041289610267344610000002425994151456286373_"
	 xmlns="http://www.w3.org/2000/svg" xmlns:xlink="http://www.w3.org/1999/xlink" x="0px" y="0px" viewBox="0 0 149.9 40"
	 style="enable-background:new 0 0 149.9 40;" xml:space="preserve">
<style type="text/css">
	.st0{fill:#FFFFFF;}
	.st1{fill-rule:evenodd;clip-rule:evenodd;fill:#FFFFFF;}
</style>
<g id="Layer_1-2">
	<path class="st0" d="M49.4,26V8.9h-2.8V26H49.4z"/>
	<path class="st0" d="M51.2,20.3c0,3.5,2.3,6,5.9,6s5.9-2.5,5.9-6s-2.3-6-5.9-6S51.2,16.8,51.2,20.3z M54,20.3c0-2,1.2-3.5,3.1-3.5
		s3.1,1.4,3.1,3.5s-1.2,3.5-3.1,3.5S54,22.3,54,20.3z"/>
	<path class="st0" d="M63.9,20.1c0,3.3,2.1,5.7,5.3,5.7c1.7,0,3.1-0.7,3.8-1.8v1.9c0,1.9-1.2,3.1-3.1,3.1c-1.8,0-2.9-0.9-3.1-2.4H64
		c0.4,3,2.6,4.9,5.8,4.9c3.7,0,6-2.4,6-6.2V14.6h-2.5l-0.2,1.5c-0.7-1.2-2.1-1.9-3.8-1.9C66.1,14.3,63.9,16.7,63.9,20.1L63.9,20.1z
		 M66.8,20c0-1.9,1.2-3.3,3-3.3c1.9,0,3.2,1.4,3.2,3.3s-1.3,3.3-3.2,3.3C68,23.3,66.8,21.9,66.8,20z"/>
	<path class="st0" d="M77.2,20.3c0,3.5,2.3,6,5.9,6s5.9-2.5,5.9-6s-2.3-6-5.9-6S77.2,16.8,77.2,20.3z M80,20.3c0-2,1.2-3.5,3.1-3.5
		s3.1,1.4,3.1,3.5s-1.2,3.5-3.1,3.5S80,22.3,80,20.3z"/>
	<path class="st0" d="M92,12.3c0.9,0,1.7-0.7,1.7-1.7S93,9,92,9s-1.7,0.7-1.7,1.7S91.1,12.3,92,12.3z M90.6,26h2.8V14.6h-2.8V26z"/>
	<path class="st0" d="M95.9,31.3h2.7v-6.8c0.7,1.2,2.2,1.9,4,1.9c3.4,0,5.4-2.6,5.3-6.1c-0.1-3.6-2.1-5.9-5.3-5.9
		c-1.7,0-3.3,0.8-4,2.1l-0.2-1.7h-2.5L95.9,31.3L95.9,31.3z M98.8,20.3c0-2,1.2-3.5,3.2-3.5s3.1,1.5,3.1,3.5s-1.2,3.5-3.1,3.5
		S98.8,22.4,98.8,20.3z"/>
	<path class="st0" d="M108.6,22.6c0.1,2.2,1.8,3.7,4.6,3.7s4.5-1.4,4.5-3.6c0-1.6-1-2.7-2.9-3.2l-2-0.5c-0.8-0.2-1.4-0.5-1.4-1.3
		c0-0.8,0.6-1.3,1.6-1.3s1.8,0.6,1.8,1.6h2.6c-0.1-2.3-1.8-3.7-4.2-3.7s-4.2,1.4-4.2,3.6c0,1.5,0.8,2.7,3,3.3l2,0.5
		c0.7,0.2,1.2,0.5,1.2,1.2c0,0.9-0.8,1.3-1.9,1.3c-1.2,0-1.9-0.6-1.9-1.6L108.6,22.6L108.6,22.6z"/>
	<path class="st0" d="M123.5,26.3c1.5,0,3-0.7,3.7-1.8l0.2,1.5h2.6V14.6h-2.8v6c0,2-0.8,3.2-2.6,3.2c-1.4,0-2.4-0.7-2.4-3v-6.1h-2.8
		v7.1C119.3,24.5,120.8,26.3,123.5,26.3L123.5,26.3z"/>
	<path class="st0" d="M135.2,26v-6.5c0-1.8,1.1-2.7,2.4-2.7s2.2,0.9,2.2,2.5V26h2.7v-6.5c0-1.9,1.1-2.7,2.4-2.7s2.2,0.9,2.2,2.5V26
		h2.7v-7.4c0-2.6-1.4-4.3-4.2-4.3c-1.7,0-3.1,0.8-3.6,2.2c-0.6-1.3-1.9-2.2-3.8-2.2c-1.3,0-2.5,0.6-3.2,1.6l-0.1-1.3h-2.6V26
		L135.2,26L135.2,26z"/>
	<path class="st0" d="M128.5,36.1c0.4,0,0.8-0.3,0.8-0.8s-0.4-0.8-0.8-0.8s-0.8,0.3-0.8,0.8S128.1,36.1,128.5,36.1z"/>
	<path class="st0" d="M130.1,33.3c0,1.7,1,2.8,2.5,2.8c1.3,0,2.3-0.8,2.5-2h-1c-0.2,0.7-0.8,1-1.4,1c-1,0-1.6-0.8-1.6-1.9
		s0.6-1.9,1.6-1.9c0.7,0,1.2,0.4,1.4,1h1c-0.2-1.2-1.1-2-2.4-2C131.2,30.5,130.1,31.6,130.1,33.3L130.1,33.3z"/>
	<path class="st0" d="M135.5,33.3c0,1.6,1.1,2.8,2.8,2.8s2.8-1.2,2.8-2.8s-1.1-2.8-2.8-2.8S135.5,31.7,135.5,33.3z M136.6,33.3
		c0-1.1,0.7-1.9,1.7-1.9s1.7,0.8,1.7,1.9s-0.7,1.9-1.7,1.9S136.6,34.4,136.6,33.3z"/>
	<path class="st0" d="M142.9,36v-3.2c0-0.9,0.5-1.4,1.3-1.4s1.2,0.5,1.2,1.3V36h1v-3.2c0-0.9,0.5-1.4,1.3-1.4c0.7,0,1.2,0.5,1.2,1.3
		V36h1v-3.5c0-1.2-0.7-2-2-2c-0.8,0-1.5,0.4-1.8,1.1c-0.3-0.7-0.9-1.1-1.8-1.1c-0.7,0-1.3,0.3-1.6,0.8l-0.1-0.7h-0.9V36L142.9,36
		L142.9,36z"/>
	<path class="st1" d="M0,20.4v-0.2V20v-0.2l0-0.2v-0.2l0-0.2V19l0-0.2l0-0.2l0-0.2l0-0.2l0-0.2l0-0.2l0-0.2l0-0.2l0-0.2l0-0.2l0-0.2
		l0-0.2l0-0.2l0-0.2L0.5,16l0-0.2l0.1-0.2l0.1-0.2l0.1-0.2L0.8,15l0.1-0.2l0.1-0.2l0.1-0.2L1,14.3l0.1-0.2l0.1-0.2l0.1-0.2l0.1-0.2
		l0.1-0.2l0.1-0.2l0.1-0.2l0.1-0.2l0.1-0.2l0.1-0.2l0.1-0.2L1.9,12L2,11.8l0.1-0.2l0.1-0.2l0.1-0.2l0.1-0.2l0.1-0.2l0.1-0.2l0.1-0.2
		l0.1-0.2l0.1-0.2L3,10l0.1-0.2l0.1-0.2l0.1-0.2l0.1-0.2l0.1-0.2L3.7,9l0.1-0.2l0.1-0.2l0.1-0.2l0.1-0.2l0.1-0.2L4.4,8l0.1-0.2
		l0.1-0.2l0.1-0.2L5,7.4l0.1-0.2L5.3,7l0.1-0.2l0.1-0.2l0.1-0.2l0.2-0.2L6,6.3l0.2-0.2L6.3,6l0.2-0.1l0.2-0.1l0.2-0.1l0.2-0.1
		l0.2-0.1l0.2-0.1L7.4,5l0.2-0.1l0.2-0.1l0.2-0.1L8,4.5l0.2-0.1l0.2-0.1l0.2-0.1L8.7,4l0.2-0.1l0.2-0.1l0.2-0.1l0.2-0.1l0.2-0.1
		l0.2-0.1L10,3.2l0.2-0.1L10.3,3l0.2-0.1l0.2-0.1l0.2-0.1l0.2-0.1l0.2-0.1l0.2-0.1l0.2-0.1l0.2-0.1L12,2.1L12.2,2l0.2-0.1l0.2-0.1
		l0.2-0.1L13,1.6l0.2-0.1l0.2-0.1l0.2-0.1l0.2-0.1L14,1.3l0.2-0.1l0.2-0.1L14.6,1L14.8,1l0.2-0.1l0.2-0.1l0.2-0.1l0.2-0.1l0.2-0.1
		l0.2-0.1l0.2-0.1l0.2-0.1l0.2,0l0.2,0l0.2,0l0.2,0l0.2,0l0.2,0l0.2,0l0.2,0l0.2,0l0.2,0l0.2,0l0.2,0l0.2,0l0.2,0l0.2,0H20L21.2,0
		l0.1,5.7h0h0.2h0.2h0.2h0.2l0.2,0h0.2l0.2,0h0.2l0.2,0h0.2l0.2,0l0.2,0l0.2,0l0.2,0l0.2,0l0.2,0l0.2,0l0.2,0l0.2,0l0.2,0l0.2,0
		l0.2,0l0.2,0l0.2,0l0.2,0l0.2,0l0.2,0l0.2,0l0.2,0l0.2,0.1l0.2,0.1l0.2,0.1l0.2,0.1l0.2,0.1l0.2,0.1L27,6.6l0.1,0.1l0.1,0.1
		l0.1,0.1l0.1,0.1l0.1,0.1L27.9,7l0.1,0.1l0.1,0.1l0.1,0.1l0.1,0.1l0.1,0.1l0.1,0.1L29,7.5l0.1,0.1l0.1,0.1l0.1,0.1l0.1,0.1l0.1,0.1
		L29.8,8L30,8.1l0.1,0.1l0.1,0.1l0.1,0.1l0.1,0.1l0.1,0.1l0.1,0.1L31,8.7l0.1,0.1l0.1,0.1L31.4,9l0.1,0.1l0.1,0.1l0.1,0.1l0.1,0.1
		L32,9.5l0.1,0.1l0.1,0.1l0.1,0.1l0.1,0.1l0.1,0.1l0.1,0.1l0.1,0.1l0.1,0.1l0.1,0.1l0.1,0.1l0.1,0.1l0.1,0.1l0.1,0.1l0.1,0.1
		l0.1,0.1l0.1,0.1l0.1,0.1l0.1,0.1l0.1,0.1l0.1,0.1l0.1,0.1l0.1,0.1l0.1,0.1l0.1,0.1l0.1,0.1l0.1,0.1l0.1,0.1l0.1,0.1l0.1,0.1
		l0.1,0.1l0.1,0.1l0.1,0.1l0.1,0.1l0.1,0.1l0.1,0.1l0.1,0.1l0.1,0.1l0.1,0.1l0.1,0.1l0.1,0.1l0.1,0.1l0.1,0.1l0.1,0.1l0.1,0.1
		l0.1,0.1l0.1,0.1l0.1,0.2l0.1,0.2l0.1,0.2l0.1,0.2l0.1,0.2l0.1,0.2l0.1,0.2l0.1,0.2l0,0.2l0,0.2l0,0.2l0,0.2l0,0.2l0,0.2l0,0.2
		l0,0.2l0,0.2l0,0.2l0,0.2l0,0.2l0,0.2l0,0.2l0,0.2l0,0.2l0,0.2l0,0.2l0,0.2l0,0.2l0,0.2l0,0.2l0,0.2l0,0.2v0.2l0,0.2v0.2l0,0.2v0.2
		l0,0.2v0.2v0.2v0.2v0.2v0.2v0.2v0.2l0,0.2v0.2l0,0.2v0.2l0,0.2l0,0.2l0,0.2l0,0.2l0,0.2l0,0.2l0,0.2l0,0.2l0,0.2l0,0.2l0,0.2l0,0.2
		l0,0.2l0,0.2l0,0.2l0,0.2l0,0.2l0,0.2l0,0.2l0,0.2l0,0.2l0,0.2l-0.1,0.2l-0.1,0.2L37,28l-0.1,0.2l-0.1,0.2l-0.1,0.2l-0.1,0.2
		l-0.1,0.2L36.6,29l-0.1,0.2l-0.1,0.2l-0.1,0.2l-0.1,0.2l-0.1,0.2L36.2,30l-0.1,0.2L36,30.3l-0.1,0.2l-0.1,0.2l-0.1,0.1l-0.1,0.1
		l-0.1,0.1l-0.1,0.1l-0.1,0.1l-0.1,0.1l-0.1,0.1l-0.1,0.1L35,32l-0.1,0.1l-0.1,0.2l-0.1,0.2l-0.1,0.1l-0.1,0.1l-0.1,0.1L34.2,33
		l-0.1,0.1L34,33.2l-0.1,0.1l-0.1,0.1l-0.1,0.1l-0.1,0.1l-0.1,0.1l-0.1,0.1l-0.1,0.1L33,34.3l-0.1,0.1l-0.1,0.1l-0.1,0.1l-0.1,0.1
		L32.4,35l-0.1,0.1l-0.1,0.1L32,35.3l-0.1,0.1l-0.1,0.1l-0.1,0.1l-0.1,0.1l-0.1,0.1L31.2,36L31,36.1l-0.1,0.1l-0.1,0.1l-0.1,0.1
		l-0.1,0.1l-0.1,0.1l-0.1,0.1L30,36.9L29.8,37l-0.2,0.1l-0.2,0.1l-0.2,0.1l-0.2,0.1L29,37.4l-0.2,0.1l-0.2,0.1l-0.2,0.1l-0.2,0.1
		l-0.2,0.1L28,38L27.9,38l-0.2,0.1l-0.2,0.1l-0.2,0.1l-0.2,0.1L27,38.4l-0.2,0.1l-0.2,0.1l-0.2,0.1l-0.2,0.1l-0.2,0.1L26,38.8
		l-0.2,0.1L25.6,39L25.4,39l-0.2,0.1l-0.2,0.1l-0.2,0l-0.2,0l-0.2,0l-0.2,0l-0.2,0l-0.2,0l-0.2,0l-0.2,0l-0.2,0l-0.2,0l-0.2,0
		l-0.2,0l-0.2,0l-0.2,0l-0.2,0l-0.2,0l-0.2,0l-0.2,0l-0.2,0l-0.2,0l-0.2,0l-0.2,0h-0.2l-0.2,0h-0.2l-0.2,0h-0.2l-0.2,0h-0.2h-0.2
		h-0.2h-0.2h-0.2l-0.2,0h-0.2l-0.2,0h-0.2l-0.2,0l-0.2,0l-0.2,0l-0.2,0l-0.2,0l-0.2,0l-0.2,0l-0.2,0l-0.2,0l-0.2,0l-0.2,0l-0.2,0
		l-0.2,0l-0.2,0l-0.2,0l-0.2,0l-0.2,0l-0.2,0l-0.2,0l-0.2,0l-0.2,0l-0.2,0l-0.2-0.1l-0.2-0.1L13.4,39l-0.2-0.1l-0.2-0.1l-0.2-0.1
		l-0.2-0.1l-0.2-0.1l-0.2-0.1l-0.2-0.1L12,38.5l-0.2-0.1l-0.2-0.1l-0.2-0.1l-0.2-0.1l-0.2-0.1L10.9,38l-0.2-0.1l-0.2-0.1l-0.2-0.1
		l-0.2-0.1l-0.2-0.1l-0.2-0.1l-0.2-0.1l-0.2-0.1l-0.2-0.1L9.2,37l-0.2-0.1l-0.2-0.1l-0.2-0.1l-0.2-0.1l-0.2-0.1l-0.2-0.1l-0.2-0.1
		l-0.2-0.1l-0.2-0.1l-0.2-0.1l-0.2-0.1l-0.2-0.1l-0.2-0.1L7,35.5l-0.2-0.1l-0.2-0.1l-0.2-0.1l-0.2-0.1l-0.1-0.1l-0.1-0.1L6,34.6
		l-0.1-0.1l-0.1-0.1l-0.1-0.1L5.4,34l-0.1-0.1l-0.1-0.1L5,33.6l-0.1-0.2l-0.1-0.2l-0.1-0.2L4.5,33l-0.1-0.2l-0.1-0.2l-0.1-0.2
		L4,32.4l-0.1-0.2l-0.1-0.2l-0.1-0.2l-0.1-0.2l-0.1-0.2l-0.1-0.2l-0.1-0.2l-0.1-0.2L3,30.9l-0.1-0.2l-0.1-0.2l-0.1-0.2l-0.1-0.2
		l-0.1-0.2l-0.1-0.2l-0.1-0.2l-0.1-0.2l-0.1-0.2l-0.1-0.2L2,29l-0.1-0.2l-0.1-0.2l-0.1-0.2l-0.1-0.2l-0.1-0.2L1.5,28l-0.1-0.2
		l-0.1-0.2l-0.1-0.2l-0.1-0.2L1.1,27l-0.1-0.2L1,26.7l-0.1-0.2l-0.1-0.2l-0.1-0.2l-0.1-0.2l-0.1-0.2l-0.1-0.2l-0.1-0.2l-0.1-0.2
		l-0.1-0.2l0-0.2l0-0.2l0-0.2l0-0.2l0-0.2l0-0.2l0-0.2l0-0.2l0-0.2l0-0.2l0-0.2l0-0.2l0-0.2l0-0.2l0-0.2v-0.2l0-0.2v-0.2l0-0.2V21
		l0-0.2v-0.2L0,20.4L0,20.4z M19.4,5.8l0-3.8h0l-0.2,0l-0.2,0l-0.2,0l-0.2,0l-0.2,0l-0.2,0l-0.2,0l-0.2,0l-0.2,0l-0.2,0l-0.2,0
		l-0.2,0l-0.2,0l-0.2,0l-0.2,0l-0.2,0l-0.2,0l-0.2,0l-0.2,0.1l-0.2,0.1l-0.2,0.1L15,2.8l-0.2,0.1L14.6,3L14.4,3l-0.2,0.1l-0.2,0.1
		l-0.2,0.1l-0.2,0.1l-0.2,0.1l-0.2,0.1l-0.2,0.1L13,3.6l-0.2,0.1l-0.2,0.1l-0.2,0.1L12.3,4L12.1,4l-0.2,0.1l-0.2,0.1l-0.2,0.1
		l-0.2,0.1l-0.2,0.1l-0.2,0.1l-0.2,0.1l-0.2,0.1l-0.2,0.1L10.4,5l-0.2,0.1l-0.2,0.1L9.9,5.3L9.8,5.5L9.6,5.6L9.5,5.7L9.3,5.8
		L9.2,5.9L9,6L8.9,6.2L8.7,6.3L8.6,6.4L8.4,6.5L8.3,6.6L8.1,6.8L8,6.9L7.8,7L7.7,7.2L7.6,7.3L7.4,7.4L7.3,7.6L7.1,7.7L7,7.8L6.9,8
		L6.8,8.1L6.6,8.3L6.5,8.4L6.4,8.5L6.2,8.7L6.1,8.8L6,9L5.9,9.1L5.8,9.3L5.6,9.4L5.5,9.6L5.4,9.7L5.3,9.9L5.2,10l-0.1,0.1L5,10.3
		l-0.1,0.2l-0.1,0.2l-0.1,0.2L4.6,11l-0.1,0.2l-0.1,0.2l-0.1,0.2l-0.1,0.2l-0.1,0.2L4,11.9l-0.1,0.2l-0.1,0.2l-0.1,0.2l-0.1,0.2
		l-0.1,0.2L3.5,13l-0.1,0.2l-0.1,0.2l-0.1,0.2l-0.1,0.2l-0.1,0.2L3.1,14L3,14.1l-0.1,0.2l-0.1,0.2l-0.1,0.2l-0.1,0.2L2.7,15
		l-0.1,0.2l0,0.2l0,0.2l0,0.2l0,0.2l0,0.2l0,0.2l0,0.2l0,0.2l0,0.2l0,0.2l0,0.2l0,0.2l0,0.2l0,0.2l0,0.2l0,0.2l0,0.2l0,0.2l0,0.2
		l0,0.2l0,0.2v0.2l0,0.2v0.2l0,0.2v0.2l0,0.2v0.2v0.2v0.2v0.2V21v0.2v0.2l0,0.2v0.2l0,0.2v0.2l0,0.2l0,0.2l0,0.2l0,0.2L2,23l0,0.2
		l0,0.2l0,0.2l0,0.2l0,0.2l0,0.2l0,0.2l0,0.2l0,0.2l0,0.2l0,0.2l0,0.2l0,0.2l0,0.2l0,0.2l0,0.2l0,0.2l0.1,0.2l0.1,0.2l0.1,0.2
		l0.1,0.2L3,26.8L3,27l0.1,0.2l0.1,0.2l0.1,0.2l0.1,0.2l0.1,0.2L3.4,28l0.1,0.2l0.1,0.2l0.1,0.2l0.1,0.2l0.1,0.2l0.1,0.2L4,29.1
		l0.1,0.2l0.1,0.2l0.1,0.1l0.1,0.1l0.1,0.1L4.6,30l0.1,0.1l0.1,0.1l0.1,0.1L5,30.6l0.1,0.1l0.1,0.1L5.3,31l0.1,0.1l0.1,0.1l0.1,0.1
		l0.1,0.1l0.1,0.1l0.1,0.1L6,32l0.1,0.1l0.1,0.1l0.1,0.1l0.1,0.1l0.1,0.1l0.1,0.1l0.1,0.1L7,33.1l0.1,0.1l0.1,0.1l0.1,0.1l0.1,0.1
		l0.1,0.1l0.1,0.1l0.1,0.1L8.1,34l0.1,0.1l0.1,0.1l0.1,0.1l0.1,0.1l0.1,0.1l0.1,0.1L9,34.8l0.1,0.1L9.3,35l0.1,0.1l0.1,0.1l0.1,0.1
		l0.1,0.1l0.1,0.1l0.1,0.1l0.1,0.1l0.1,0.1l0.1,0.1l0.1,0.1L11,36l0.1,0.1l0.2,0.1l0.2,0.1l0.2,0.1l0.2,0.1l0.2,0.1l0.2,0.1l0.2,0.1
		l0.2,0.1l0.2,0.1l0.2,0.1l0.2,0.1L13,37l0.2,0.1l0.2,0.1l0.2,0.1l0.2,0.1l0.2,0.1l0.2,0.1l0.2,0l0.2,0l0.2,0l0.2,0l0.2,0l0.2,0
		l0.2,0l0.2,0l0.2,0l0.2,0l0.2,0l0.2,0l0.2,0l0.2,0l0.2,0l0.2,0l0.2,0l0.2,0l0.2,0l0.2,0l0.2,0l0.2,0l0.2,0h0.2l0.2,0h0.2l0.2,0h0.2
		l0.2,0h0.2h0.2h0.2h0.2h0.2H20h0.2l0.2,0h0.2l0.2,0h0.2l0.2,0l0.2,0l0.2,0l0.2,0l0.2,0l0.2,0l0.2,0l0.2,0l0.2,0l0.2,0l0.2,0l0.2,0
		l0.2,0l0.2,0l0.2,0l0.2,0l0.2,0l0.2,0l0.2,0l0.2,0l0.2,0l0.2,0l0.2,0l0.2,0l0.2,0l0.2,0l0.2-0.1l0.2-0.1l0.2-0.1l0.2-0.1l0.2-0.1
		l0.2-0.1l0.1-0.1l0.1-0.1l0.1-0.1l0.1-0.1l0.1-0.1l0.1-0.1l0.1-0.1l0.1-0.1l0.1-0.1l0.1-0.1l0.1-0.1l0.1-0.1l0.1-0.1l0.1-0.1
		l0.1-0.1l0.1-0.1l0.1-0.1l0.1-0.1l0.1-0.1l0.1-0.1l0.1-0.1l0.1-0.1l0.1-0.1l0.1-0.1l0.1-0.1l0.1-0.1l0.1-0.1l0.1-0.1l0.1-0.1
		l0.1-0.1l0.1-0.1l0.1-0.1l0.1-0.1l0.1-0.1l0.1-0.1l0.1-0.1l0.1-0.1l0.1-0.1l0.1-0.1l0.1-0.1l0.1-0.1l0.1-0.1l0.1-0.1l0.1-0.1
		l0.1-0.1l0.1-0.1l0.1-0.1l0.1-0.1l0.1-0.1l0.1-0.1l0.1-0.1l0.1-0.1l0.1-0.1l0.1-0.1l0.1-0.1l0.1-0.1l0.1-0.1l0.1-0.1l0.1-0.1
		l0.1-0.1l0.1-0.1l0.1-0.1l0.1-0.1l0.1-0.1L34,30l0.1-0.1l0.1-0.1l0.1-0.1l0.1-0.1l0.1-0.1l0.1-0.1l0.1-0.1l0.1-0.1l0.1-0.1l0.1-0.1
		l0.1-0.1l0.1-0.1l0.1-0.1L35,28l0.1-0.1l0.1-0.1l0.1-0.1l0-0.1l0-0.1l0-0.1l0-0.1l0-0.1l0-0.1l0-0.1l0-0.1l0-0.1l0-0.1l0-0.1l0-0.1
		l0-0.1l0-0.1l0-0.1l0-0.1l0-0.1l0-0.1l0-0.1l0-0.1l0-0.1l0-0.1l0-0.1l0-0.1l0-0.1v-0.1l0-0.1v-0.1l0-0.1v-0.1l0-0.1v-0.1v-0.1v-0.1
		v-0.1v-0.1V22v-0.1l0-0.1v-0.1l0-0.1v-0.1l0-0.1V21l0-0.1l0-0.1l0-0.1l0-0.1l0-0.1l0-0.1l0-0.1l0-0.1l0-0.1l0-0.1l0-0.1l0-0.1
		l0-0.1l0-0.1l0-0.1l0-0.1l0-0.1l0-0.1l0-0.1l0-0.1l0-0.1l0-0.1l0-0.1l0-0.1l0-0.1l0-0.1l0-0.1L35,16.9L35,16.7l-0.1-0.1l-0.1-0.1
		l-0.1-0.1l-0.1-0.1L34.7,16l-0.1-0.1l-0.1-0.1l-0.1-0.1l-0.1-0.1l-0.1-0.1l-0.1-0.1l-0.1-0.1L34.1,15L34,14.8l-0.1-0.1l-0.1-0.1
		l-0.1-0.1l-0.1-0.1l-0.1-0.1l-0.1-0.1l-0.1-0.1l-0.1-0.1l-0.1-0.1l-0.1-0.1l-0.1-0.1L33,13.3l-0.1-0.1l-0.1-0.1L32.7,13l-0.1-0.1
		l-0.1-0.1l-0.1-0.1l-0.1-0.1l-0.1-0.1l-0.1-0.1L32,12.2l-0.1-0.1L31.8,12l-0.1-0.1l-0.1-0.1l-0.1-0.1l-0.1-0.1l-0.1-0.1l-0.1-0.1
		l-0.1-0.1L31,11.2l-0.1-0.1L30.7,11l-0.1-0.1l-0.1-0.1l-0.1-0.1l-0.1-0.1l-0.1-0.1L30,10.4l-0.1-0.1l-0.1-0.1l-0.1-0.1l-0.1-0.1
		L29.4,10l-0.1-0.1l-0.1-0.1l-0.1-0.1l-0.1-0.1l-0.1-0.1l-0.1-0.1l-0.1-0.1l-0.1-0.1l-0.1-0.1l-0.1-0.1L28,9.2l-0.1-0.1l-0.1-0.1
		L27.6,9l-0.1-0.1l-0.1-0.1l-0.1-0.1l-0.1-0.1L27,8.7l-0.1-0.1l-0.1-0.1l-0.1-0.1l-0.1-0.1l-0.1-0.1l-0.1-0.1L26,8.3l-0.1-0.1
		l-0.1,0l-0.1,0l-0.1,0l-0.1,0l-0.1,0l-0.1,0l-0.1,0l-0.1,0l-0.1,0l-0.1,0l-0.1,0l-0.1,0l-0.1,0l-0.1,0l-0.1,0l-0.1,0l-0.1,0l-0.1,0
		l-0.1,0l-0.1,0l-0.1,0l-0.1,0h-0.1l-0.1,0h-0.1l-0.1,0h-0.1l-0.1,0h-0.1h-0.1h-0.1h-0.1h-0.1h0l0,3.8h0.1h0.1h0.1h0.1h0.1h0.1H22
		l0.1,0h0.1l0.1,0h0.1l0.1,0h0.1l0.1,0h0.1l0.1,0l0.1,0l0.1,0l0.1,0l0.1,0l0.1,0l0.1,0l0.1,0l0.1,0l0.1,0l0.1,0l0.1,0l0.1,0l0.1,0
		l0.1,0l0.1,0l0.1,0l0.1,0l0.1,0l0.1,0l0.1,0l0.1,0l0.1,0l0.1,0l0.1,0l0.1,0l0.1,0l0.1,0l0.1,0l0.1,0.1l0.1,0.1l0.1,0.1l0.1,0.1
		l0.1,0.1l0.1,0.1l0.1,0.1l0.1,0.1l0.1,0.1l0.1,0.1l0.1,0.1l0.1,0.1L27,13l0.1,0.1l0.1,0.1l0.1,0.1l0.1,0.1l0.1,0.1l0.1,0.1l0.1,0.1
		l0.1,0.1l0.1,0.1l0.1,0.1l0.1,0.1l0.1,0.1l0.1,0.1l0.1,0.1l0.1,0.1l0.1,0.1l0.1,0.1l0.1,0.1l0.1,0.1l0.1,0.1l0.1,0.1l0.1,0.1
		l0.1,0.1l0.1,0.1l0.1,0.1l0.1,0.1l0.1,0.1l0.1,0.1l0.1,0.1l0.1,0.1l0.1,0.1l0.1,0.1l0.1,0.1l0.1,0.1l0.1,0.1l0.1,0.1l0.1,0.1
		l0.1,0.1l0.1,0.1l0.1,0.1l0.1,0.1l0.1,0.1l0.1,0.1l0.1,0.1l0.1,0.1l0.1,0.1l0.1,0.1l0.1,0.1l0.1,0.1l0.1,0.1l0,0.1l0,0.1l0,0.1
		l0,0.1l0,0.1l0,0.1l0,0.1l0,0.1l0,0.1l0,0.1l0,0.1l0,0.1l0,0.1l0,0.1l0,0.1l0,0.1l0,0.1l0,0.1l0,0.1l0,0.1l0,0.1l0,0.1l0,0.1l0,0.1
		l0,0.1l0,0.1l0,0.1l0,0.1l0,0.1l0,0.1l0,0.1l0,0.1l0,0.1l0,0.1l0,0.1l0,0.1l0,0.1V21l0,0.1v0.1l0,0.1v0.1l0,0.1v0.1l0,0.1V22v0.1
		v0.1v0.1v0.1v0.1v0.1v0.1v0.1l0,0.1v0.1l0,0.1v0.1l0,0.1v0.1l0,0.1v0.1l0,0.1l0,0.1l0,0.1l0,0.1l0,0.1l0,0.1l0,0.1l0,0.1l0,0.1
		l0,0.1l0,0.1l0,0.1l0,0.1l0,0.1l0,0.1l0,0.1l0,0.1l0,0.1l0,0.1l0,0.1l0,0.1l0,0.1l0,0.1l0,0.1l0,0.1l0,0.1l0,0.1l0,0.1l0,0.1l0,0.1
		l0,0.1l0,0.1l0,0.1l0,0.1l-0.1,0.1L30.8,28l-0.1,0.1l-0.1,0.1l-0.1,0.1l-0.1,0.1l-0.1,0.1l-0.1,0.1l-0.1,0.1l-0.1,0.1l-0.1,0.1
		L30.2,29l-0.1,0.1L30,29.2L30,29.3l-0.1,0.1l-0.1,0.1l-0.1,0.1l-0.1,0.1l-0.1,0.1l-0.1,0.1L29.4,30l-0.1,0.1l-0.1,0.1l-0.1,0.1
		l-0.1,0.1L29,30.5L29,30.6l-0.1,0.1l-0.1,0.1l-0.1,0.1l-0.1,0.1L28.5,31l-0.1,0.1l-0.1,0.1l-0.1,0.1l-0.1,0.1l-0.1,0.1L28,31.5
		l-0.1,0.1l-0.1,0.1l-0.1,0.1l-0.1,0.1l-0.1,0.1L27.4,32l-0.1,0.1l-0.1,0.1l-0.1,0.1L27,32.3l-0.1,0.1l-0.1,0.1l-0.1,0.1l-0.1,0.1
		l-0.1,0.1l-0.1,0.1l-0.1,0.1l-0.1,0.1L26,32.9l-0.1,0.1L25.8,33l-0.1,0.1l-0.1,0.1l-0.1,0.1l-0.1,0.1l-0.1,0.1l-0.1,0l-0.1,0
		l-0.1,0l-0.1,0l-0.1,0l-0.1,0l-0.1,0l-0.1,0l-0.1,0l-0.1,0l-0.1,0l-0.1,0l-0.1,0l-0.1,0l-0.1,0l-0.1,0l-0.1,0l-0.1,0l-0.1,0l-0.1,0
		l-0.1,0l-0.1,0l-0.1,0l-0.1,0l-0.1,0l-0.1,0l-0.1,0l-0.1,0l-0.1,0l-0.1,0l-0.1,0l-0.1,0l-0.1,0h-0.1l-0.1,0h-0.1l-0.1,0h-0.1
		l-0.1,0h-0.1l-0.1,0h-0.1h-0.1h-0.1h-0.1h-0.1h-0.1h-0.1H19h-0.1l-0.1,0h-0.1l-0.1,0h-0.1l-0.1,0h-0.1l-0.1,0l-0.1,0l-0.1,0l-0.1,0
		l-0.1,0l-0.1,0l-0.1,0l-0.1,0l-0.1,0l-0.1,0l-0.1,0l-0.1,0l-0.1,0l-0.1,0l-0.1,0l-0.1,0l-0.1,0l-0.1,0l-0.1,0l-0.1,0l-0.1,0l-0.1,0
		l-0.1,0l-0.1,0l-0.1,0l-0.1,0l-0.1,0l-0.1,0l-0.1,0l-0.1,0l-0.1,0l-0.1-0.1l-0.1-0.1l-0.1-0.1l-0.1-0.1l-0.1-0.1L13.3,33L13.2,33
		l-0.1-0.1L13,32.8l-0.1-0.1l-0.1-0.1l-0.1-0.1l-0.1-0.1l-0.1-0.1l-0.1-0.1l-0.1-0.1L12,32.3l-0.1-0.1l-0.1-0.1L11.7,32L11.6,32
		l-0.1-0.1l-0.1-0.1l-0.1-0.1l-0.1-0.1L11,31.5l-0.1-0.1l-0.1-0.1l-0.1-0.1l-0.1-0.1l-0.1-0.1L10.4,31l-0.1-0.1l-0.1-0.1l-0.1-0.1
		L10,30.6l-0.1-0.1l-0.1-0.1l-0.1-0.1l-0.1-0.1l-0.1-0.1L9.4,30l-0.1-0.1l-0.1-0.1l-0.1-0.1L9,29.6l-0.1-0.1l-0.1-0.1l-0.1-0.1
		l-0.1-0.1l-0.1-0.1l-0.1-0.1l-0.1-0.1l-0.1-0.1l-0.1-0.1l-0.1-0.1l-0.1-0.1L8,28.3L8,28.1L7.9,28l-0.1-0.1l-0.1-0.1l-0.1-0.1
		l-0.1-0.1l-0.1-0.1l-0.1-0.1l-0.1-0.1l-0.1-0.1l-0.1-0.1l-0.1-0.1l-0.1-0.1l-0.1-0.1L7,26.4L7,26.3l-0.1-0.1L6.9,26l-0.1-0.1
		l-0.1-0.1l-0.1-0.1l-0.1-0.1l-0.1-0.1l-0.1-0.1l-0.1-0.1l0-0.1l0-0.1l0-0.1l0-0.1l0-0.1l0-0.1l0-0.1l0-0.1l0-0.1l0-0.1l0-0.1l0-0.1
		l0-0.1l0-0.1L6,23l0-0.1l0-0.1l0-0.1l0-0.1l0-0.1l0-0.1V22l0-0.1v-0.1l0-0.1v-0.1l0-0.1v-0.1v-0.1v-0.1v-0.1v-0.1v-0.1v-0.1v-0.1
		v-0.1l0-0.1v-0.1l0-0.1v-0.1l0-0.1l0-0.1l0-0.1l0-0.1l0-0.1l0-0.1l0-0.1l0-0.1l0-0.1l0-0.1l0-0.1l0-0.1l0-0.1l0-0.1l0-0.1l0-0.1
		l0-0.1l0-0.1l0-0.1l0-0.1l0-0.1l0.1-0.1l0.1-0.1l0.1-0.1L6.7,16l0.1-0.1l0.1-0.1l0.1-0.1l0.1-0.1l0.1-0.1L7,15.2L7.1,15l0.1-0.1
		l0.1-0.1l0.1-0.1l0.1-0.1l0.1-0.1l0.1-0.1l0.1-0.1L7.6,14l0.1-0.1l0.1-0.1l0.1-0.1l0.1-0.1L8,13.3L8,13.2l0.1-0.1l0.1-0.1l0.1-0.1
		l0.1-0.1l0.1-0.1l0.1-0.1l0.1-0.1l0.1-0.1l0.1-0.1L8.9,12L9,11.9l0.1-0.1l0.1-0.1l0.1-0.1l0.1-0.1l0.1-0.1l0.1-0.1L9.7,11l0.1-0.1
		l0.1-0.1l0.1-0.1l0.1-0.1l0.1-0.1l0.1-0.1l0.1-0.1l0.1-0.1l0.1-0.1l0.1-0.1l0.1-0.1L11,9.8l0.1-0.1l0.1-0.1l0.1-0.1l0.1-0.1
		l0.1-0.1l0.1-0.1l0.1-0.1L12,9l0.1-0.1l0.1-0.1l0.1-0.1l0.1-0.1l0.1-0.1l0.1-0.1l0.1-0.1L13,8.3l0.1-0.1l0.1-0.1l0.1-0.1L13.5,8
		l0.1-0.1l0.1-0.1L14,7.8l0.1-0.1l0.1-0.1l0.1-0.1l0.1-0.1l0.1-0.1l0.1-0.1l0.1-0.1l0.1-0.1l0.1-0.1l0.1-0.1l0.1-0.1L15.7,7l0.1-0.1
		L16,6.9l0.2-0.1l0.1-0.1l0.1-0.1l0.1-0.1l0.1-0.1l0.1,0l0.1,0l0.1,0l0.1,0l0.1,0l0.2,0l0.2,0l0.2,0l0.2,0l0.2,0l0.2,0l0.2,0l0.2,0
		l0.2,0l0.2,0l0.2,0l0.2,0h0.1L19.4,5.8z M19.4,11.4l0-3.9l-0.1,0l-0.1,0l-0.1,0l-0.1,0l-0.1,0l-0.1,0l-0.1,0l-0.1,0l-0.1,0l-0.1,0
		l-0.1,0l-0.1,0l-0.1,0l-0.1,0l-0.1,0l-0.1,0l-0.1,0l-0.1,0l-0.1,0l-0.1,0l-0.1,0.1l-0.1,0.1l-0.1,0.1l-0.1,0.1L16,8.5l-0.1,0.1
		l-0.1,0.1l-0.1,0.1l-0.1,0.1l-0.1,0.1l-0.1,0.1l-0.1,0.1L15,8.9L14.9,9L14.8,9l-0.1,0.1l-0.1,0.1l-0.1,0.1l-0.1,0.1l-0.1,0.1
		L14,9.4l-0.1,0.1l-0.1,0.1l-0.1,0.1l-0.1,0.1l-0.1,0.1l-0.1,0.1L13.2,10L13.1,10L13,10.1l-0.1,0.1l-0.1,0.1l-0.1,0.1l-0.1,0.1
		l-0.1,0.1l-0.1,0.1l-0.1,0.1l-0.1,0.1L12,10.9L11.9,11l-0.1,0.1l-0.1,0.1l-0.1,0.1l-0.1,0.1l-0.1,0.1l-0.1,0.1l-0.1,0.1l-0.1,0.1
		l-0.1,0.1L11,11.9L10.9,12l-0.1,0.1l-0.1,0.1l-0.1,0.1l-0.1,0.1l-0.1,0.1l-0.1,0.1l-0.1,0.1l-0.1,0.1l-0.1,0.1l-0.1,0.1L10,13.2
		l-0.1,0.1l-0.1,0.1l-0.1,0.1l-0.1,0.1l-0.1,0.1l-0.1,0.1l-0.1,0.1L9.4,14l-0.1,0.1l-0.1,0.1l-0.1,0.1l-0.1,0.1l-0.1,0.1L9,14.7
		L9,14.8L8.9,15l-0.1,0.1l-0.1,0.1l-0.1,0.1l-0.1,0.1l-0.1,0.1l-0.1,0.1l-0.1,0.1l-0.1,0.1L8.4,16l-0.1,0.1l0,0.1l0,0.1l0,0.1l0,0.1
		l0,0.1l0,0.1l0,0.1l0,0.1l0,0.1l0,0.1l0,0.1l0,0.1l0,0.1l0,0.1l0,0.1l0,0.1l0,0.1l0,0.1l0,0.1l0,0.1l0,0.1l0,0.1l0,0.1v0.1l0,0.1
		v0.1l0,0.1v0.1l0,0.1v0.1l0,0.1v0.1v0.1v0.1v0.1v0.1v0.1V21v0.1v0.1l0,0.1v0.1l0,0.1v0.1l0,0.1V22l0,0.1l0,0.1l0,0.1l0,0.1l0,0.1
		l0,0.1l0,0.1l0,0.1l0,0.1l0,0.1l0,0.1l0,0.1l0,0.1l0,0.1l0,0.1l0,0.1l0,0.1l0,0.1l0,0.1l0,0.1l0,0.1l0,0.1l0,0.1l0,0.1l0,0.1
		l0.1,0.1l0.1,0.1l0.1,0.1l0.1,0.1l0.1,0.1l0.1,0.1l0.1,0.1l0.1,0.1L8.8,26l0.1,0.1L9,26.2L9,26.3l0.1,0.1l0.1,0.1l0.1,0.1l0.1,0.1
		l0.1,0.1L9.4,27l0.1,0.1l0.1,0.1l0.1,0.1l0.1,0.1l0.1,0.1l0.1,0.1l0.1,0.1l0.1,0.1l0.1,0.1l0.1,0.1l0.1,0.1l0.1,0.1l0.1,0.1
		l0.1,0.1l0.1,0.1l0.1,0.1l0.1,0.1l0.1,0.1l0.1,0.1l0.1,0.1l0.1,0.1l0.1,0.1l0.1,0.1l0.1,0.1l0.1,0.1l0.1,0.1l0.1,0.1l0.1,0.1
		l0.1,0.1l0.1,0.1l0.1,0.1l0.1,0.1l0.1,0.1l0.1,0.1l0.1,0.1l0.1,0.1l0.1,0.1l0.1,0.1l0.1,0.1l0.1,0.1l0.1,0.1l0.1,0.1l0.1,0.1
		l0.1,0.1l0.1,0.1l0.1,0.1l0.1,0.1l0.1,0.1l0.1,0.1l0.1,0.1l0.1,0.1l0.1,0.1l0.1,0.1l0.1,0l0.1,0l0.1,0l0.1,0l0.1,0l0.1,0l0.1,0
		l0.1,0l0.1,0l0.1,0l0.1,0l0.1,0l0.1,0l0.1,0l0.1,0l0.1,0l0.1,0l0.1,0l0.1,0l0.1,0l0.1,0l0.1,0l0.1,0l0.1,0l0.1,0l0.1,0l0.1,0l0.1,0
		l0.1,0l0.1,0l0.1,0l0.1,0l0.1,0l0.1,0l0.1,0l0.1,0h0.1l0.1,0h0.1l0.1,0h0.1l0.1,0h0.1l0.1,0H19h0.1h0.1h0.1h0.1h0.1h0.1h0.1h0.1H20
		h0.1l0.1,0h0.1l0.1,0h0.1l0.1,0h0.1l0.1,0H21l0.1,0l0.1,0l0.1,0l0.1,0l0.1,0l0.1,0l0.1,0l0.1,0l0.1,0l0.1,0l0.1,0l0.1,0l0.1,0
		l0.1,0l0.1,0l0.1,0l0.1,0l0.1,0l0.1,0l0.1,0l0.1,0l0.1,0l0.1,0l0.1,0l0.1,0l0.1,0l0.1,0l0.1,0l0.1,0l0.1,0l0.1,0l0.1,0l0.1,0l0.1,0
		l0.1,0l0.1,0l0.1,0l0.1,0l0.1,0l0.1-0.1l0.1-0.1l0.1-0.1l0.1-0.1l0.1-0.1l0.1-0.1l0.1-0.1l0.1-0.1l0.1-0.1l0.1-0.1l0.1-0.1l0.1-0.1
		l0.1-0.1l0.1-0.1l0.1-0.1l0.1-0.1l0.1-0.1l0.1-0.1l0.1-0.1l0.1-0.1l0.1-0.1l0.1-0.1l0.1-0.1l0.1-0.1l0.1-0.1l0.1-0.1l0.1-0.1
		l0.1-0.1l0.1-0.1l0.1-0.1l0.1-0.1l0.1-0.1l0.1-0.1l0.1-0.1l0.1-0.1l0.1-0.1l0.1-0.1l0.1-0.1l0.1-0.1l0.1-0.1l0.1-0.1l0.1-0.1
		l0.1-0.1l0.1-0.1l0.1-0.1l0.1-0.1l0.1-0.1l0.1-0.1l0.1-0.1l0-0.1l0-0.1l0-0.1l0-0.1l0-0.1l0-0.1l0-0.1l0-0.1l0-0.1l0-0.1l0-0.1
		l0-0.1l0-0.1l0-0.1l0-0.1l0-0.1l0-0.1l0-0.1l0-0.1l0-0.1l0-0.1l0-0.1l0-0.1l0-0.1l0-0.1l0-0.1l0-0.1l0-0.1l0-0.1l0-0.1l0-0.1l0-0.1
		l0-0.1l0-0.1l0-0.1l0-0.1l0-0.1l0-0.1l0-0.1l0-0.1v-0.1l0-0.1v-0.1l0-0.1v-0.1l0-0.1V23l0-0.1v-0.1l0-0.1v-0.1v-0.1v-0.1v-0.1v-0.1
		v-0.1V22v-0.1v-0.1v-0.1v-0.1l0-0.1v-0.1l0-0.1v-0.1l0-0.1V21l0-0.1v-0.1l0-0.1l0-0.1l0-0.1l0-0.1l0-0.1l0-0.1l0-0.1l0-0.1l0-0.1
		l0-0.1l0-0.1l0-0.1l0-0.1l0-0.1l0-0.1l0-0.1l0-0.1l0-0.1l0-0.1l0-0.1l0-0.1l0-0.1l0-0.1l0-0.1l0-0.1l0-0.1l0-0.1l0-0.1l0-0.1l0-0.1
		l0-0.1l0-0.1l0-0.1l0-0.1l0-0.1l0-0.1l0-0.1l0-0.1l0-0.1l0-0.1l0-0.1l0-0.1l0-0.1l0-0.1l0-0.1l0-0.1l0-0.1l-0.1-0.1l-0.1-0.1
		l-0.1-0.1l-0.1-0.1l-0.1-0.1l-0.1-0.1l-0.1-0.1l-0.1-0.1L28,16.1L28,16l-0.1-0.1l-0.1-0.1l-0.1-0.1l-0.1-0.1l-0.1-0.1l-0.1-0.1
		l-0.1-0.1l-0.1-0.1l-0.1-0.1l-0.1-0.1l-0.1-0.1l-0.1-0.1l-0.1-0.1L27,15.1L27,15L26.9,15l-0.1-0.1l-0.1-0.1l-0.1-0.1l-0.1-0.1
		l-0.1-0.1l-0.1-0.1l-0.1-0.1l-0.1-0.1l-0.1-0.1l-0.1-0.1l-0.1-0.1L26,14.3l-0.1-0.1l-0.1-0.1l-0.1-0.1l-0.1-0.1l-0.1,0l-0.1,0
		l-0.1,0l-0.1,0l-0.1,0l-0.1,0l-0.1,0l-0.1,0l-0.1,0l-0.1,0l-0.1,0l-0.1,0l-0.1,0l-0.1,0l-0.1,0l-0.1,0l-0.1,0l-0.1,0l-0.1,0l-0.1,0
		l-0.1,0l-0.1,0l-0.1,0l-0.1,0l-0.1,0l-0.1,0l-0.1,0l-0.1,0l-0.1,0l-0.1,0l-0.1,0l-0.1,0l-0.1,0l-0.1,0l-0.1,0h-0.1l-0.1,0h-0.1
		l-0.1,0h-0.1l-0.1,0h-0.1l-0.1,0H22l-0.1,0h-0.1l-0.1,0h-0.1h-0.1h-0.1h-0.1h-0.1h-0.1l0,3.8h0h0h0h0h0h0h0h0h0h0h0l0,0h0l0,0h0
		l0,0h0l0,0h0l0,0h0l0,0h0l0,0h0l0,0h0l0,0h0l0,0l0,0l0,0l0,0l0,0l0,0l0,0l0,0l0,0l0,0l0,0l0,0l0,0l0,0l0,0l0,0l0,0l0,0l0,0l0,0l0,0
		l0,0l0,0l0,0l0,0l0,0l0,0l0,0l0,0l0,0l0,0l0,0l0,0l0,0l0,0l0,0l0,0l0,0l0,0l0,0l0,0l0,0l0,0l0,0l0,0l0,0l0,0l0,0l0,0l0,0l0,0l0,0
		l0,0l0,0l0,0l0,0l0,0l0,0l0,0l0,0l0,0l0,0l0,0l0,0l0,0l0,0l0,0l0,0l0,0l0,0l0,0l0,0l0,0l0,0l0,0l0,0l0,0l0,0l0,0l0,0l0,0l0,0l0,0
		l0,0l0,0l0,0l0,0l0,0l0,0.1l0,0.1l0,0.1l0,0.1l0,0.1l0,0.1l0,0.1l0,0.1l0,0.1l0,0.1v0.1l0,0.1V21l0,0.1v0.1l0,0.1v0.1l0,0.1v0.1
		l0,0.1v0.1l0,0.1v0.1l0,0.1v0.1l0,0.1v0.1v0.1v0.1V22V22v0.1v0.1v0.1v0.1v0.1v0.1v0.1v0.1v0.1v0.1v0.1v0.1l0,0.1v0.1l0,0.1V23
		l0,0.1v0.1l0,0.1v0.1l0,0.1v0.1l0,0.1v0.1l0,0.1v0.1l0,0.1l0,0.1l0,0.1l0,0.1l0,0.1l0,0.1l0,0.1l0,0.1l0,0.1l0,0.1l0,0.1l0,0.1
		l0,0.1l0,0.1l0,0.1l0,0.1l0,0.1l0,0.1l0,0.1l0,0.1l0,0.1l0,0.1l0,0.1l0,0.1l0,0.1l0,0.1l0,0.1l0,0.1l0,0.1l0,0.1l0,0.1l0,0.1l0,0.1
		l0,0.1l0,0.1l0,0.1l0,0l0,0l0,0l0,0l0,0l0,0l0,0l0,0l0,0l0,0l0,0l0,0l0,0l0,0l0,0l0,0l0,0l0,0l0,0l0,0l0,0l0,0l0,0l0,0l0,0l0,0l0,0
		l0,0l-0.1,0l-0.1,0l-0.1,0l-0.1,0l-0.1,0l-0.1,0l-0.1,0l-0.1,0l-0.1,0l-0.1,0l-0.1,0l-0.1,0l-0.1,0l-0.1,0l-0.1,0l-0.1,0l-0.1,0
		l-0.1,0l-0.1,0l-0.1,0l-0.1,0l-0.1,0l-0.1,0l-0.1,0l-0.1,0l-0.1,0l-0.1,0l-0.1,0l-0.1,0l-0.1,0l-0.1,0l-0.1,0l-0.1,0l-0.1,0l-0.1,0
		l-0.1,0l-0.1,0l-0.1,0l-0.1,0l-0.1,0l-0.1,0l-0.1,0l-0.1,0l-0.1,0l-0.1,0l-0.1,0l-0.1,0h-0.1l-0.1,0h-0.1l-0.1,0h-0.1l-0.1,0h-0.1
		l-0.1,0h-0.1l-0.1,0h-0.1l-0.1,0H20l-0.1,0h-0.1h-0.1h-0.1h-0.1h-0.1h-0.1h-0.1h-0.1h-0.1h-0.1H19h-0.1h-0.1l-0.1,0h-0.1l-0.1,0
		h-0.1l-0.1,0h-0.1l-0.1,0h-0.1l-0.1,0h-0.1l-0.1,0h-0.1l-0.1,0l-0.1,0l-0.1,0l-0.1,0l-0.1,0l-0.1,0l-0.1,0l-0.1,0l-0.1,0l-0.1,0
		l-0.1,0l-0.1,0l-0.1,0l-0.1,0l-0.1,0l-0.1,0l-0.1,0l-0.1,0l-0.1,0l-0.1,0l-0.1,0l-0.1,0l-0.1,0l-0.1,0l-0.1,0l-0.1,0l-0.1,0l-0.1,0
		l-0.1,0l-0.1,0l-0.1,0l-0.1,0l-0.1,0l-0.1,0l-0.1,0l-0.1,0l-0.1,0l-0.1,0l-0.1,0l-0.1,0l-0.1,0l-0.1,0l-0.1,0l-0.1,0l-0.1,0l-0.1,0
		l-0.1,0l-0.1,0l-0.1,0l-0.1,0l-0.1,0l-0.1,0l-0.1,0l-0.1,0L14,26.6l-0.1-0.1l-0.1-0.1l-0.1-0.1l-0.1-0.1l-0.1-0.1l-0.1-0.1
		l-0.1-0.1l-0.1-0.1L13.5,26L13.4,26l-0.1-0.1l-0.1-0.1l-0.1-0.1l-0.1-0.1l-0.1-0.1l-0.1-0.1L13,25.5L13,25.5l-0.1-0.1l-0.1-0.1
		l-0.1-0.1l-0.1-0.1l-0.1-0.1L12.7,25L12.6,25l-0.1-0.1l0-0.1l0-0.1l0-0.1l0-0.1l0-0.1l0-0.1l0-0.1l0-0.1l0-0.1l0-0.1l0-0.1l0-0.1
		l0-0.1l0-0.1l0-0.1l0-0.1l0-0.1l0-0.1l0-0.1l0-0.1l0-0.1l0-0.1l0-0.1l0-0.1l0-0.1l0-0.1l0-0.1l0-0.1l0-0.1l0-0.1l0-0.1l0-0.1l0-0.1
		l0-0.1l0-0.1l0-0.1l0-0.1l0-0.1v-0.1l0-0.1v-0.1l0-0.1v-0.1l0-0.1v-0.1l0-0.1v-0.1l0-0.1v-0.1l0-0.1v-0.1v-0.1v-0.1v-0.1v-0.1v-0.1
		v-0.1v-0.1V20v-0.1v-0.1l0-0.1v-0.1l0-0.1v-0.1l0-0.1v-0.1l0-0.1v-0.1l0-0.1v-0.1l0-0.1l0-0.1l0-0.1l0-0.1l0-0.1l0-0.1l0-0.1l0-0.1
		l0-0.1l0-0.1l0-0.1l0-0.1l0-0.1l0-0.1l0-0.1l0-0.1l0-0.1l0-0.1l0-0.1l0-0.1l0-0.1l0-0.1l0-0.1l0-0.1l0-0.1l0-0.1l0-0.1l0-0.1l0-0.1
		l0-0.1l0-0.1l0-0.1l0.1-0.1l0.1-0.1l0.1-0.1l0.1-0.1l0.1-0.1l0.1-0.1l0.1-0.1l0.1-0.1l0.1-0.1l0.1-0.1l0.1-0.1l0.1-0.1l0.1-0.1
		l0.1-0.1l0.1-0.1l0.1-0.1l0.1-0.1l0.1-0.1l0.1-0.1l0.1-0.1l0.1-0.1l0.1-0.1l0.1-0.1l0.1-0.1l0.1-0.1l0.1-0.1l0.1-0.1L14,14l0.1-0.1
		l0.1-0.1l0.1-0.1l0.1-0.1l0.1-0.1l0.1-0.1l0.1-0.1l0.1-0.1l0.1-0.1l0.1-0.1l0.1-0.1l0.1-0.1l0.1-0.1l0.1-0.1l0.1-0.1l0.1-0.1
		l0.1-0.1l0.1-0.1l0.1-0.1l0.1-0.1l0.1-0.1l0.1-0.1l0.1-0.1l0.1-0.1l0.1-0.1l0.1-0.1l0.1-0.1l0.1-0.1l0.1-0.1l0.1-0.1l0.1-0.1
		l0.1-0.1l0.1,0l0.1,0l0.1,0l0.1,0l0.1,0l0.1,0l0.1,0l0.1,0l0.1,0l0.1,0l0.1,0l0.1,0l0.1,0l0.1,0l0.1,0l0.1,0l0.1,0l0.1,0l0.1,0
		l0.1,0l0.1,0l0.1,0l0.1,0l0.1,0l0.1,0l0.1,0l0.1,0l0.1,0h0L19.4,11.4z M20.7,18.7L19.5,19l-0.1-5.7h0l-0.1,0l-0.1,0l-0.1,0l-0.1,0
		l-0.1,0l-0.1,0l-0.1,0l-0.1,0l-0.1,0l-0.1,0l-0.1,0l-0.1,0l-0.1,0l-0.1,0l-0.1,0l-0.1,0l-0.1,0l-0.1,0l-0.1,0l-0.1,0l-0.1,0l-0.1,0
		l-0.1,0l-0.1,0l-0.1,0l-0.1,0l-0.1,0l-0.1,0l-0.1,0l-0.1,0l-0.1,0l-0.1,0l-0.1,0l-0.1,0l-0.1,0l-0.1,0l-0.1,0l-0.1,0.1l-0.1,0.1
		l-0.1,0.1l-0.1,0.1l-0.1,0.1l-0.1,0.1l-0.1,0.1l-0.1,0.1l-0.1,0.1L16,14.9L16,15L15.9,15l-0.1,0.1l-0.1,0.1l-0.1,0.1l-0.1,0.1
		l-0.1,0.1l-0.1,0.1l-0.1,0.1l-0.1,0.1l-0.1,0.1l-0.1,0.1l-0.1,0.1l-0.1,0.1l-0.1,0.1l-0.1,0.1l-0.1,0.1L15,16L15,16l-0.1,0.1
		l-0.1,0.1l-0.1,0.1l-0.1,0.1l-0.1,0.1l-0.1,0.1l0,0.1l0,0.1l0,0.1l0,0.1l0,0.1l0,0.1l0,0.1l0,0.1l0,0.1l0,0.1l0,0.1l0,0.1l0,0.1
		l0,0.1l0,0.1l0,0.1l0,0.1l0,0.1l0,0.1l0,0.1l0,0.1l0,0.1l0,0.1l0,0.1l0,0.1l0,0.1l0,0.1l0,0.1l0,0.1l0,0.1l0,0.1l0,0.1l0,0.1l0,0.1
		l0,0.1l0,0.1l0,0.1l0,0.1l0,0.1l0,0.1v0.1l0,0.1v0.1l0,0.1v0.1l0,0.1v0.1l0,0.1v0.1l0,0.1v0.1l0,0.1V20l0,0.1v0.1v0.1v0.1v0.1v0.1
		v0.1v0.1v0.1v0.1v0.1v0.1v0.1V21V21v0.1l0,0.1v0.1l0,0.1v0.1l0,0.1v0.1l0,0.1v0.1l0,0.1v0.1l0,0.1V22l0,0.1l0,0.1l0,0.1l0,0.1
		l0,0.1l0,0.1l0,0.1l0,0.1l0,0.1l0,0.1l0,0.1l0,0.1l0,0.1l0,0.1l0,0.1l0,0.1l0,0.1l0,0.1l0,0.1l0,0.1l0,0.1l0,0.1l0,0.1l0,0.1l0,0.1
		l0,0.1l0,0.1l0,0.1l0,0.1l0,0.1l0,0.1l0,0.1l0,0.1l0,0.1l0,0.1l0,0.1l0,0l0,0l0,0l0,0l0,0l0,0l0,0l0,0l0,0l0,0l0,0l0,0l0,0l0,0l0,0
		l0,0l0,0l0,0l0.1,0l0.1,0l0.1,0l0.1,0l0.1,0l0.1,0l0.1,0l0.1,0l0.1,0l0.1,0l0.1,0l0.1,0l0.1,0l0.1,0l0.1,0l0.1,0l0.1,0l0.1,0l0,0
		l0,0l0,0l0,0l0,0l0,0l0,0l0,0l0,0l0,0l0,0l0,0l0,0l0,0l0.1,0l0.1,0l0.1,0l0.1,0l0.1,0l0.1,0l0.1,0l0.1,0l0.1,0l0.1,0l0.1,0l0.1,0
		l0.1,0l0.1,0l0.1,0l0.1,0l0.1,0l0.1,0l0.1,0l0.1,0l0.1,0l0.1,0l0.1,0h0.1l0.1,0h0.1l0.1,0h0.1l0.1,0h0.1l0.1,0h0.1l0.1,0h0.1l0.1,0
		h0.1l0.1,0H19l0.1,0h0.1h0.1h0.1h0.1h0.1h0.1h0.1h0.1h0.1h0.1h0.1h0.1h0.1h0.1H20H20h0.1h0.1h0.1l0.1,0h0.1l0.1,0h0.1l0.1,0h0.1
		l0.1,0h0.1l0.1,0h0.1l0,0h0l0,0h0l0,0h0l0,0h0l0,0l0,0l0,0l0,0l0,0l0,0l0,0l0,0l0,0l0,0l0,0l0,0l0,0l0,0l0,0l0,0l0,0l0,0l0,0l0,0
		l0,0l0,0l0,0l0,0l0,0l0,0l0,0l0,0l0,0l0,0l0,0l0,0l0,0l0,0l0,0l0,0l0,0l0,0l0,0l0,0l0,0l0,0l0,0l0,0l0,0l0,0l0,0l0,0l0,0l0,0l0,0
		l0,0l0,0l0,0l0,0l0,0l0,0l0,0l0,0l0,0l0,0l0,0l0,0l0,0l0,0l0,0l0,0l0,0l0,0l0,0l0,0l0,0l0,0l0,0l0,0l0,0l0,0l0,0l0,0l0,0l0,0l0,0
		l0,0l0,0l0,0l0,0l0,0l0,0l0,0l0,0l0,0l0,0l0,0l0,0v0l0,0v0l0,0v0l0,0v0l0,0v0l0,0v0l0,0v0l0,0v0l0,0v0l0,0v0l0,0v0v0v0v0v0v0v0v0v0
		v0v0v0v0v0v0v0v0v0v0v0v0v0v0l0,0v0l0,0v0l0,0v0l0,0v0l0,0v0l0,0v0l0,0v0l0,0v0l0,0v0l0,0v0l0,0v0l0,0v0l0,0l0,0l0,0l0,0l0,0l0,0
		l0,0l0,0l0,0l0,0l0,0l0,0l0,0l0,0l0,0l0,0l0,0l0,0l0,0l0,0l0,0l0,0l0,0l0,0l0,0l0,0l0,0l0,0l0,0l0,0l0,0l0,0l0,0l0,0l0,0l0,0l0,0
		l0,0l0,0l0,0l0,0l0,0l0,0l0,0l0,0l0,0l0,0l0,0l0,0l0,0l0,0l0,0l0,0l0,0l0,0l0,0l0,0l0,0l0,0l0,0l0,0l0,0l0,0l0,0l0,0l0,0l0,0l0,0
		l0,0l0,0l0,0l0,0h0l0,0h0l0,0h0l0,0h0l0,0h0l0,0h0l0,0h0l0,0h0l0,0h0l0,0h0l0,0h0l0,0h0l0,0h0l0,0h0l0,0h0h0h0h0h0h0h0h0h0h0h0h0h0
		h0h0h0h0h0h0h0h0h0h0h0h0h0h0h0h0h0h0h0h0l0,0h0l0,0h0l0,0L20.7,18.7z"/>
</g>
</svg>
