<?xml version="1.0" encoding="utf-8"?>
<!-- Generator: Adobe Illustrator 27.0.1, SVG Export Plug-In . SVG Version: 6.00 Build 0)  -->
<svg version="1.1" id="Layer_2_00000027573681925809988520000002609426204742890913_"
	 xmlns="http://www.w3.org/2000/svg" xmlns:xlink="http://www.w3.org/1999/xlink" x="0px" y="0px" viewBox="0 0 133.8 26.8"
	 style="enable-background:new 0 0 133.8 26.8;" xml:space="preserve">
<style type="text/css">
	.st0{fill:#FFFFFF;}
</style>
<g id="Layer_1-2">
	<path class="st0" d="M19,22.2L1.1,9.8c-1.8-1.2-1.2-3.9,1.1-4.5l19.1-5.2C21.6,0,22,0,22.5,0c0.4,0.1,0.8,0.2,1.2,0.4
		c0.4,0.2,0.6,0.6,0.9,1c0.2,0.4,0.3,0.8,0.3,1.2l-1.1,17.5C23.6,22.3,20.8,23.4,19,22.2L19,22.2z"/>
	<path class="st0" d="M13.3,25.2L2.7,4.6C2.5,4.1,2.4,3.6,2.4,3S2.7,2,3,1.6s0.7-0.8,1.2-1s1-0.3,1.5-0.2l19.6,3
		c0.5,0.1,0.9,0.2,1.2,0.5c0.4,0.3,0.7,0.6,0.9,1c0.2,0.4,0.3,0.9,0.3,1.3c0,0.5-0.1,0.9-0.3,1.3l-9,17.6c-0.2,0.5-0.6,0.9-1.1,1.1
		c-0.5,0.3-1,0.4-1.5,0.4c-0.5,0-1.1-0.1-1.5-0.4C13.9,26.1,13.6,25.7,13.3,25.2L13.3,25.2z"/>
	<path class="st0" d="M24.8,3.3L15,1.8L3,5.1l4.8,9.4L19,22.2c0.2,0.2,0.5,0.3,0.8,0.4l4.3-8.3L24.8,3.3L24.8,3.3z"/>
	<path class="st0" d="M74.2,5.8c0-0.4,0.1-0.7,0.3-1c0.2-0.3,0.5-0.5,0.8-0.7C75.7,3.9,76,3.9,76.4,4c0.4,0.1,0.7,0.2,0.9,0.5
		c0.3,0.3,0.4,0.6,0.5,0.9s0,0.7-0.1,1.1c-0.1,0.3-0.4,0.6-0.7,0.8c-0.3,0.2-0.7,0.3-1,0.3c-0.5,0-0.9-0.2-1.3-0.5
		C74.4,6.7,74.2,6.2,74.2,5.8z M74.5,8.5h3.1v10.2h-3.1V8.5L74.5,8.5z"/>
	<path class="st0" d="M90.8,13.6c0,0.7-0.1,1.4-0.3,2c-0.2,0.6-0.6,1.2-1,1.7s-1,0.9-1.6,1.2c-0.6,0.3-1.3,0.5-1.9,0.5
		c-0.6,0-1.1-0.1-1.7-0.3c-0.5-0.2-1-0.5-1.4-1v5h-3.1V8.5h3.1v1c0.4-0.4,0.8-0.8,1.4-1s1.1-0.3,1.7-0.3c0.7,0,1.3,0.2,1.9,0.5
		C88.5,9,89,9.4,89.5,9.9s0.8,1.1,1,1.7C90.7,12.2,90.8,12.9,90.8,13.6z M87.7,13.6c0-0.5-0.2-0.9-0.4-1.3c-0.3-0.4-0.7-0.7-1.1-0.9
		c-0.4-0.2-0.9-0.2-1.4-0.1s-0.9,0.3-1.2,0.7c-0.3,0.3-0.6,0.8-0.7,1.2s0,0.9,0.2,1.4c0.2,0.4,0.5,0.8,0.9,1.1
		c0.4,0.3,0.9,0.4,1.3,0.4c0.3,0,0.7,0,1-0.2c0.3-0.1,0.6-0.3,0.8-0.5c0.2-0.2,0.4-0.5,0.5-0.8C87.7,14.2,87.7,13.9,87.7,13.6
		L87.7,13.6z"/>
	<path class="st0" d="M100.2,15.6c0,2.3-2,3.3-4.2,3.3c-0.9,0.1-1.8-0.1-2.6-0.5s-1.4-1.1-1.8-1.9l2.7-1.5c0.1,0.4,0.3,0.7,0.7,0.9
		c0.3,0.2,0.7,0.3,1.1,0.3c0.7,0,1.1-0.2,1.1-0.6c0-1.1-5-0.5-5-4.1c0-2.2,1.9-3.3,4-3.3c0.8,0,1.6,0.2,2.3,0.6
		c0.7,0.4,1.3,0.9,1.7,1.6l-2.6,1.4c-0.1-0.3-0.3-0.5-0.6-0.7c-0.2-0.2-0.5-0.2-0.8-0.2c-0.5,0-0.9,0.2-0.9,0.6
		C95.2,12.6,100.2,11.9,100.2,15.6L100.2,15.6z"/>
	<path class="st0" d="M111.4,8.5v10.2h-3.1v-1c-0.3,0.4-0.8,0.8-1.3,1c-0.5,0.2-1.1,0.3-1.6,0.3c-2.1,0-3.8-1.5-3.8-4.2V8.5h3.1v5.8
		c0,0.2,0,0.5,0.1,0.7c0.1,0.2,0.2,0.4,0.4,0.6s0.4,0.3,0.6,0.4c0.2,0.1,0.5,0.1,0.7,0.1c1.1,0,1.9-0.7,1.9-2.1V8.5L111.4,8.5
		L111.4,8.5z"/>
	<path class="st0" d="M128.9,12.4v6.3h-3.1v-6c0-1-0.5-1.7-1.5-1.7s-1.6,0.7-1.6,1.9v5.8h-3.1v-6c0-1-0.5-1.7-1.5-1.7
		s-1.6,0.7-1.6,1.9v5.8h-3.1V8.5h3.1v0.9c0.3-0.4,0.7-0.8,1.2-1c0.5-0.2,1-0.3,1.5-0.3c0.5,0,1.1,0.1,1.5,0.3c0.5,0.2,0.9,0.6,1.2,1
		c0.3-0.5,0.8-0.8,1.3-1.1c0.5-0.2,1.1-0.3,1.7-0.3C127.4,8.2,128.9,9.9,128.9,12.4L128.9,12.4z"/>
	<path class="st0" d="M131.5,8.4c1.2,0,2.3-1,2.3-2.3s-1-2.3-2.3-2.3s-2.3,1-2.3,2.3S130.3,8.4,131.5,8.4z"/>
	<path class="st0" d="M32.5,3.8h3.1v14.9h-3.1V3.8z M37.3,13.6c0-1.1,0.3-2.1,0.9-3s1.4-1.6,2.4-2c1-0.4,2.1-0.5,3.1-0.3
		s2,0.7,2.8,1.5c0.8,0.8,1.3,1.7,1.5,2.8c0.2,1.1,0.1,2.1-0.3,3.1c-0.4,1-1.1,1.8-2,2.4c-0.9,0.6-1.9,0.9-3,0.9
		c-0.7,0-1.4-0.1-2.1-0.4c-0.7-0.3-1.2-0.7-1.8-1.2c-0.5-0.5-0.9-1.1-1.2-1.8C37.4,15,37.3,14.3,37.3,13.6L37.3,13.6z M45,13.6
		c0-0.5-0.2-0.9-0.4-1.3s-0.6-0.7-1.1-0.8c-0.4-0.2-0.9-0.2-1.3-0.1c-0.5,0.1-0.9,0.3-1.2,0.7s-0.5,0.8-0.6,1.2
		c-0.1,0.4,0,0.9,0.1,1.4c0.2,0.4,0.5,0.8,0.9,1s0.8,0.4,1.3,0.4c0.3,0,0.6-0.1,0.9-0.2c0.3-0.1,0.6-0.3,0.8-0.5
		c0.2-0.2,0.4-0.5,0.5-0.8C45,14.2,45,13.9,45,13.6L45,13.6L45,13.6z M60.3,8.5v9.7c0,3.4-2.7,4.9-5.4,4.9c-1,0.1-1.9-0.1-2.8-0.6
		c-0.8-0.4-1.6-1.1-2.1-1.9l2.6-1.5c0.2,0.4,0.5,0.8,1,1c0.4,0.2,0.9,0.3,1.4,0.3c0.3,0,0.6,0,0.9-0.1s0.5-0.2,0.8-0.5
		c0.2-0.2,0.4-0.5,0.5-0.8s0.2-0.6,0.1-0.9v-0.9c-0.4,0.4-0.8,0.8-1.3,1s-1.1,0.3-1.7,0.3c-1.3,0-2.6-0.6-3.6-1.6s-1.5-2.3-1.5-3.6
		s0.5-2.6,1.5-3.6s2.2-1.5,3.6-1.6c0.6,0,1.1,0.1,1.7,0.3c0.5,0.2,1,0.6,1.3,1v-1L60.3,8.5L60.3,8.5z M57.3,13.4
		c0-0.5-0.1-1-0.4-1.4s-0.6-0.8-1.1-0.9s-1-0.3-1.4-0.2s-0.9,0.3-1.3,0.6c-0.4,0.3-0.6,0.8-0.7,1.3c-0.1,0.5-0.1,1,0.1,1.4
		c0.2,0.5,0.5,0.9,0.9,1.1c0.4,0.3,0.9,0.4,1.4,0.4c0.3,0,0.6,0,1-0.1c0.3-0.1,0.6-0.3,0.8-0.5s0.4-0.5,0.5-0.8
		C57.2,14,57.3,13.7,57.3,13.4L57.3,13.4z M62,13.6c0-1.1,0.3-2.1,0.9-3s1.4-1.6,2.4-2c1-0.4,2.1-0.5,3.1-0.3c1.1,0.2,2,0.7,2.8,1.5
		c0.8,0.8,1.3,1.7,1.5,2.8c0.2,1.1,0.1,2.1-0.3,3.1c-0.4,1-1.1,1.8-2,2.4c-0.9,0.6-1.9,0.9-3,0.9c-0.7,0-1.4-0.1-2.1-0.4
		c-0.7-0.3-1.2-0.7-1.8-1.2c-0.5-0.5-0.9-1.1-1.2-1.8C62.1,15,62,14.3,62,13.6L62,13.6L62,13.6z M69.7,13.6c0-0.5-0.2-0.9-0.4-1.3
		c-0.3-0.4-0.6-0.7-1.1-0.8s-0.9-0.2-1.3-0.1S66,11.7,65.7,12c-0.3,0.3-0.5,0.8-0.6,1.2s0,0.9,0.1,1.4s0.5,0.8,0.9,1
		c0.4,0.3,0.8,0.4,1.3,0.4c0.3,0,0.6-0.1,0.9-0.2s0.6-0.3,0.8-0.5c0.2-0.2,0.4-0.5,0.5-0.8C69.7,14.2,69.7,13.9,69.7,13.6L69.7,13.6
		L69.7,13.6z"/>
</g>
</svg>
