<?xml version="1.0" encoding="utf-8"?>
<!-- Generator: Adobe Illustrator 27.0.1, SVG Export Plug-In . SVG Version: 6.00 Build 0)  -->
<svg version="1.1" id="Layer_2_00000115511166649808795580000011700748286015972278_"
	 xmlns="http://www.w3.org/2000/svg" xmlns:xlink="http://www.w3.org/1999/xlink" x="0px" y="0px" viewBox="0 0 143.5 39.9"
	 style="enable-background:new 0 0 143.5 39.9;" xml:space="preserve">
<style type="text/css">
	.st0{fill-rule:evenodd;clip-rule:evenodd;fill:#FFFFFF;}
	.st1{fill:#FFFFFF;}
</style>
<g id="Layer_1-2">
	<path class="st0" d="M71.1,4.3c1.4-1.4,3.6-1.4,5,0s1.4,3.6,0,5l-8.5,8.5c-2.4-3.3-2.2-7.9,0.8-10.8L71.1,4.3L71.1,4.3z"/>
	<path class="st0" d="M83.2,23.4c1.4,1.4,1.4,3.6,0,5c-1.4,1.4-3.6,1.4-5,0L69.8,20c3.3-2.4,7.9-2.2,10.8,0.8L83.2,23.4L83.2,23.4z"
		/>
	<path class="st0" d="M64.2,35.5c-1.4,1.4-3.6,1.4-5,0s-1.4-3.6,0-5l8.5-8.5c2.4,3.3,2.2,7.9-0.8,10.8L64.2,35.5L64.2,35.5z"/>
	<path class="st0" d="M52,16.4c-1.4-1.4-1.4-3.6,0-5s3.6-1.4,5,0l8.5,8.5c-3.3,2.4-7.9,2.2-10.8-0.8L52,16.4L52,16.4z"/>
	<path class="st0" d="M69.2,34.5c2.1-2.3,3-5.2,2.8-8l4.1,4.1c0,0,0,0,0,0v2.9c0,2-1.6,3.5-3.6,3.5C71,37,69.7,35.9,69.2,34.5
		L69.2,34.5z"/>
	<path class="st0" d="M53.1,21.5c2.3,2,5.2,3,8,2.9l-4.1,4.1c0,0,0,0,0,0h-2.9c-2,0-3.5-1.6-3.5-3.5C50.6,23.3,51.6,22,53.1,21.5
		L53.1,21.5z"/>
	<path class="st0" d="M82.2,18.3c-2.3-2-5.2-3-8.1-2.9l4.1-4.1c0,0,0,0,0,0h2.9c2,0,3.6,1.6,3.6,3.6C84.7,16.5,83.6,17.9,82.2,18.3
		L82.2,18.3z"/>
	<path class="st0" d="M66,5.4c-2,2.3-3,5.2-2.8,8.1l-4.1-4.1c0,0,0,0,0,0V6.4c0-2,1.6-3.5,3.5-3.5C64.2,2.9,65.6,3.9,66,5.4L66,5.4z
		"/>
	<path class="st0" d="M62.7,0c-3.6,0-6.4,2.9-6.4,6.4v1.2c-2.1-0.6-4.5,0-6.2,1.7c-2.5,2.5-2.5,6.6,0,9.1l0.9,0.9
		c-1.9,1.1-3.2,3.2-3.2,5.6c0,3.6,2.9,6.4,6.4,6.4h1.2c-0.6,2.1,0,4.5,1.7,6.2c2.5,2.5,6.6,2.5,9.1,0l2.6-2.6
		c2.3-2.3,3.4-5.4,3.3-8.5l4.1,4.1c2.5,2.5,6.6,2.5,9.1,0c2.5-2.5,2.5-6.6,0-9.1l-0.9-0.9c1.9-1.1,3.2-3.2,3.2-5.6
		c0-3.6-2.9-6.4-6.4-6.4h-1.2c0.6-2.1,0-4.5-1.7-6.2c-2.5-2.5-6.6-2.5-9.1,0l-2.6,2.6c-2.3,2.3-3.4,5.4-3.3,8.5l-4.1-4.1
		c0,0,0,0,0,0V6.4c0-2,1.6-3.5,3.5-3.5c1.6,0,2.9,1,3.4,2.5c0.1-0.2,0.3-0.3,0.4-0.4l1.8-1.8C67.1,1.3,65,0,62.7,0L62.7,0z
		 M78.2,11.4C78.2,11.4,78.2,11.4,78.2,11.4l-4.1,4.1c2.9-0.1,5.8,0.8,8.1,2.9c1.4-0.5,2.5-1.8,2.5-3.4c0-2-1.6-3.6-3.6-3.6
		L78.2,11.4L78.2,11.4z M57.1,28.5C57.1,28.5,57.1,28.5,57.1,28.5l4.1-4.1c-2.9,0.1-5.8-0.8-8-2.9c-1.5,0.5-2.5,1.8-2.5,3.4
		c0,2,1.6,3.5,3.5,3.5L57.1,28.5L57.1,28.5z M53,21.4c-0.1-0.1-0.2-0.2-0.3-0.3l0,0C52.8,21.2,52.9,21.3,53,21.4z M72.7,39.9
		c-2.4,0-4.4-1.3-5.6-3.2l1.8-1.8c0.1-0.1,0.3-0.3,0.4-0.4c0.4,1.5,1.8,2.5,3.4,2.5c2,0,3.6-1.6,3.6-3.5v-2.9
		c0.8,0.8,1.8,1.4,2.9,1.6v1.2C79.1,37,76.2,39.9,72.7,39.9L72.7,39.9z M76.2,4.3c-1.4-1.4-3.6-1.4-5,0L68.5,7
		c-3,3-3.2,7.6-0.8,10.8l8.5-8.5C77.6,8,77.6,5.7,76.2,4.3L76.2,4.3z M83.2,28.5c1.4-1.4,1.4-3.6,0-5l-2.6-2.6
		c-3-3-7.6-3.2-10.8-0.8l8.5,8.5C79.6,29.8,81.9,29.8,83.2,28.5L83.2,28.5z M64.2,35.5c-1.4,1.4-3.6,1.4-5,0s-1.4-3.6,0-5l8.5-8.5
		c2.4,3.3,2.2,7.9-0.8,10.8L64.2,35.5L64.2,35.5z M52.1,11.4c-1.4,1.4-1.4,3.6,0,5l2.6,2.6c3,3,7.6,3.2,10.8,0.8l-8.5-8.5
		C55.7,10,53.4,10,52.1,11.4L52.1,11.4z"/>
	<path class="st1" d="M0,13h3.2v9.8h5.4v2.7H0V13z"/>
	<path class="st1" d="M14.3,25.8c-1.1,0-2-0.2-2.8-0.6c-0.8-0.4-1.4-0.9-1.9-1.6C9.2,22.9,9,22.1,9,21.2s0.2-1.7,0.6-2.4
		c0.4-0.7,1.1-1.2,1.9-1.6c0.8-0.4,1.7-0.6,2.8-0.6s2,0.2,2.8,0.6c0.8,0.4,1.4,0.9,1.8,1.6c0.4,0.7,0.7,1.5,0.7,2.4
		s-0.2,1.7-0.7,2.4c-0.4,0.7-1,1.2-1.8,1.6C16.3,25.6,15.4,25.8,14.3,25.8z M14.3,23.3c0.6,0,1.1-0.2,1.5-0.5
		c0.4-0.4,0.6-0.9,0.6-1.5s-0.2-1.2-0.6-1.5c-0.4-0.4-0.9-0.6-1.5-0.6s-1.1,0.2-1.5,0.6c-0.4,0.4-0.6,0.9-0.6,1.5s0.2,1.2,0.6,1.5
		C13.2,23.1,13.7,23.3,14.3,23.3z"/>
	<path class="st1" d="M25.5,29.6c-0.6,0-1.1,0-1.7-0.2c-0.6-0.1-1.1-0.2-1.5-0.4v-2.2c0.9,0.4,2,0.6,3.2,0.6c0.9,0,1.5-0.2,1.9-0.5
		S28,26,28,25.3v-0.5c-0.4,0.3-0.8,0.5-1.3,0.7c-0.5,0.2-1,0.2-1.6,0.2c-0.9,0-1.7-0.2-2.4-0.6c-0.7-0.4-1.2-0.9-1.6-1.6
		c-0.4-0.7-0.6-1.5-0.6-2.4s0.2-1.7,0.6-2.4c0.4-0.7,0.9-1.2,1.6-1.6c0.7-0.4,1.5-0.6,2.4-0.6c1.2,0,2.2,0.4,3,1.1v-0.9h3v8
		c0,1.5-0.5,2.6-1.4,3.5C28.9,29.2,27.4,29.6,25.5,29.6L25.5,29.6z M25.9,23.3c0.5,0,0.9-0.1,1.3-0.4c0.4-0.2,0.6-0.6,0.8-1v-1.5
		c-0.2-0.4-0.4-0.7-0.8-1c-0.4-0.2-0.8-0.4-1.3-0.4c-0.6,0-1.2,0.2-1.5,0.6c-0.4,0.4-0.6,0.9-0.6,1.5s0.2,1.2,0.6,1.6
		C24.7,23.2,25.2,23.3,25.9,23.3L25.9,23.3z"/>
	<path class="st1" d="M37.2,25.8c-1.1,0-2-0.2-2.8-0.6c-0.8-0.4-1.4-0.9-1.9-1.6c-0.4-0.7-0.6-1.5-0.6-2.4s0.2-1.7,0.6-2.4
		c0.4-0.7,1.1-1.2,1.9-1.6c0.8-0.4,1.7-0.6,2.8-0.6s2,0.2,2.8,0.6c0.8,0.4,1.4,0.9,1.8,1.6c0.4,0.7,0.7,1.5,0.7,2.4
		s-0.2,1.7-0.7,2.4c-0.4,0.7-1,1.2-1.8,1.6C39.2,25.6,38.3,25.8,37.2,25.8z M37.2,23.3c0.6,0,1.1-0.2,1.5-0.5
		c0.4-0.4,0.6-0.9,0.6-1.5s-0.2-1.2-0.6-1.5c-0.4-0.4-0.9-0.6-1.5-0.6s-1.1,0.2-1.5,0.6c-0.4,0.4-0.5,0.9-0.5,1.5s0.2,1.2,0.5,1.5
		C36.1,23.1,36.6,23.3,37.2,23.3z"/>
	<path class="st1" d="M92.9,13h3.2v12.5h-3.2V13z"/>
	<path class="st1" d="M97.7,16.9h3v0.9c0.8-0.8,1.8-1.1,3-1.1c0.9,0,1.7,0.2,2.4,0.6c0.7,0.4,1.2,0.9,1.6,1.6
		c0.4,0.7,0.6,1.5,0.6,2.4s-0.2,1.7-0.6,2.4c-0.4,0.7-0.9,1.2-1.6,1.6c-0.7,0.4-1.5,0.6-2.4,0.6c-0.6,0-1.1-0.1-1.6-0.3
		c-0.5-0.2-0.9-0.4-1.3-0.7v4.6h-3.1L97.7,16.9L97.7,16.9z M102.9,23.3c0.6,0,1.2-0.2,1.6-0.6s0.6-0.9,0.6-1.5s-0.2-1.2-0.6-1.5
		c-0.4-0.4-0.9-0.6-1.6-0.6c-0.5,0-0.9,0.1-1.3,0.4c-0.4,0.2-0.7,0.6-0.8,1V22c0.2,0.4,0.4,0.8,0.8,1
		C102,23.2,102.4,23.3,102.9,23.3L102.9,23.3z"/>
	<path class="st1" d="M113,25.8c-0.7,0-1.4-0.1-2.2-0.2c-0.8-0.1-1.3-0.3-1.8-0.6v-2.3c0.5,0.3,1.1,0.5,1.8,0.7
		c0.7,0.2,1.3,0.3,1.9,0.3c0.4,0,0.7,0,0.9-0.1s0.3-0.2,0.3-0.4c0-0.1-0.1-0.3-0.2-0.3c-0.1-0.1-0.3-0.2-0.7-0.3
		c-0.3-0.1-0.7-0.2-1.1-0.3c-0.7-0.2-1.3-0.4-1.7-0.7s-0.7-0.5-0.9-0.9s-0.3-0.8-0.3-1.3c0-0.9,0.4-1.6,1.1-2.1
		c0.7-0.5,1.7-0.7,3-0.7c0.6,0,1.3,0.1,1.9,0.2c0.7,0.1,1.2,0.3,1.6,0.5v2.3c-0.4-0.2-0.8-0.4-1.4-0.6c-0.6-0.1-1.1-0.2-1.6-0.2
		c-0.4,0-0.7,0-0.9,0.1c-0.2,0.1-0.3,0.2-0.3,0.4c0,0.2,0.1,0.3,0.3,0.4c0.2,0.1,0.6,0.2,1.2,0.4c0.4,0.1,0.5,0.1,0.5,0.1
		c0.8,0.2,1.3,0.4,1.8,0.7s0.7,0.5,0.9,0.9c0.2,0.3,0.3,0.8,0.3,1.3c0,0.8-0.4,1.5-1.1,2C115.3,25.5,114.3,25.8,113,25.8L113,25.8z"
		/>
	<path class="st1" d="M121.8,25.8c-1.2,0-2.1-0.3-2.7-1c-0.6-0.6-0.9-1.5-0.9-2.6v-5.3h3.1v4.9c0,1,0.4,1.5,1.3,1.5
		c0.4,0,0.8-0.1,1.1-0.3s0.6-0.5,0.8-0.8v-5.3h3.1v8.6h-3v-0.9c-0.4,0.4-0.8,0.7-1.3,0.9C122.9,25.7,122.4,25.8,121.8,25.8
		L121.8,25.8z"/>
	<path class="st1" d="M129.4,16.9h2.9v0.9c0.4-0.4,0.8-0.7,1.2-0.9c0.5-0.2,1-0.3,1.5-0.3c0.6,0,1.1,0.1,1.5,0.3s0.7,0.5,0.9,0.9
		c0.4-0.4,0.8-0.6,1.3-0.8c0.5-0.2,1-0.3,1.6-0.3c1.1,0,1.9,0.3,2.4,0.9c0.5,0.6,0.7,1.4,0.7,2.5v5.5h-3v-5c0-0.5-0.1-0.8-0.3-1
		c-0.2-0.2-0.5-0.3-0.9-0.3c-0.5,0-1,0.2-1.3,0.6c0,0.2,0,0.5,0,0.9v4.9h-3v-5.2c0-0.4-0.1-0.8-0.2-1s-0.4-0.3-0.8-0.3
		c-0.6,0-1.1,0.3-1.6,1v5.4h-3L129.4,16.9L129.4,16.9z"/>
</g>
</svg>
