<?xml version="1.0" encoding="utf-8"?>
<!-- Generator: Adobe Illustrator 27.0.1, SVG Export Plug-In . SVG Version: 6.00 Build 0)  -->
<svg version="1.1" id="Layer_1" xmlns="http://www.w3.org/2000/svg" xmlns:xlink="http://www.w3.org/1999/xlink" x="0px" y="0px"
	 viewBox="0 0 172 41" style="enable-background:new 0 0 172 41;" xml:space="preserve">
<style type="text/css">
	.st0{fill:#FFFFFF;}
</style>
<path class="st0" d="M49,29.2h11.3V26h-7.9V10.9H49V29.2z"/>
<path class="st0" d="M67.2,29.6c1.4,0,2.6-0.3,3.6-0.9c1.1-0.6,1.9-1.5,2.5-2.6s0.9-2.4,0.9-3.8s-0.3-2.7-0.9-3.8
	c-0.6-1.1-1.4-2-2.5-2.6c-1-0.6-2.3-0.9-3.6-0.9s-2.6,0.3-3.6,0.9s-1.9,1.5-2.5,2.6c-0.6,1.1-0.9,2.4-0.9,3.8s0.3,2.7,0.9,3.8
	c0.6,1.1,1.4,1.9,2.4,2.6C64.6,29.3,65.8,29.6,67.2,29.6L67.2,29.6z M67.2,26.4c-1.1,0-1.9-0.4-2.5-1.1c-0.6-0.7-0.8-1.7-0.8-2.9
	s0.3-2.2,0.8-2.9c0.5-0.8,1.4-1.1,2.5-1.1s1.9,0.4,2.5,1.1c0.6,0.7,0.8,1.7,0.8,2.9s-0.3,2.1-0.8,2.9C69.1,26,68.3,26.4,67.2,26.4
	L67.2,26.4z"/>
<path class="st0" d="M81,29.6c0.6,0,1.2-0.1,1.8-0.2c0.6-0.1,1.1-0.4,1.5-0.6v1.4c0,0.5-0.1,0.9-0.4,1.3c-0.3,0.4-0.6,0.6-1.1,0.8
	c-0.5,0.2-0.9,0.3-1.5,0.3c-0.5,0-0.9-0.1-1.3-0.3c-0.4-0.2-0.7-0.5-0.9-0.9l-3.2,1.5c0.5,0.9,1.3,1.6,2.2,2.2
	c1,0.5,2.1,0.8,3.2,0.8c1,0,1.9-0.1,2.8-0.4c0.9-0.3,1.6-0.7,2.2-1.2c0.6-0.5,1-1.2,1.2-2.1c0.1-0.3,0.1-0.6,0.2-0.9
	c0-0.3,0.1-0.6,0.1-1V15.5h-3v0.8c-0.5-0.4-1-0.6-1.6-0.8s-1.2-0.3-1.9-0.3c-1.3,0-2.5,0.3-3.4,0.9c-1,0.6-1.7,1.5-2.3,2.6
	c-0.5,1.1-0.8,2.3-0.8,3.7s0.3,2.6,0.8,3.7s1.3,2,2.2,2.6C78.7,29.3,79.8,29.6,81,29.6L81,29.6z M81.6,26.5c-0.8,0-1.4-0.2-1.8-0.6
	c-0.5-0.4-0.8-0.9-1.1-1.5c-0.2-0.6-0.3-1.3-0.3-2.1s0.1-1.5,0.4-2.1c0.2-0.6,0.6-1.1,1.1-1.5c0.5-0.4,1.1-0.6,1.9-0.6
	c1.1,0,1.9,0.4,2.3,1.2c0.5,0.8,0.7,1.8,0.7,3s-0.2,2.3-0.7,3C83.6,26.2,82.8,26.6,81.6,26.5L81.6,26.5z"/>
<path class="st0" d="M96,29.6c1.4,0,2.6-0.3,3.6-0.9c1.1-0.6,1.9-1.5,2.5-2.6s0.9-2.4,0.9-3.8s-0.3-2.7-0.9-3.8
	c-0.6-1.1-1.4-2-2.5-2.6c-1-0.6-2.3-0.9-3.6-0.9s-2.6,0.3-3.6,0.9s-1.9,1.5-2.5,2.6c-0.6,1.1-0.9,2.4-0.9,3.8s0.3,2.7,0.9,3.8
	c0.6,1.1,1.4,1.9,2.4,2.6C93.4,29.3,94.6,29.6,96,29.6L96,29.6z M96,26.4c-1.1,0-1.9-0.4-2.5-1.1c-0.6-0.7-0.8-1.7-0.8-2.9
	s0.3-2.2,0.8-2.9c0.5-0.8,1.4-1.1,2.5-1.1s1.9,0.4,2.5,1.1c0.6,0.7,0.8,1.7,0.8,2.9s-0.3,2.1-0.8,2.9C97.9,26,97.1,26.4,96,26.4
	L96,26.4z"/>
<path class="st0" d="M104.5,13.6h3.5v-3.1h-3.5V13.6z M104.5,29.2h3.5V15.5h-3.5V29.2L104.5,29.2z"/>
<path class="st0" d="M110.2,35.4h3.5v-6.6c0.4,0.3,0.9,0.5,1.5,0.6c0.6,0.1,1.2,0.2,1.8,0.2c1.3,0,2.4-0.3,3.3-1
	c0.9-0.6,1.7-1.5,2.2-2.6c0.5-1.1,0.8-2.3,0.8-3.7s-0.3-2.6-0.8-3.7c-0.5-1.1-1.3-2-2.3-2.6c-1-0.6-2.1-0.9-3.4-0.9
	c-0.7,0-1.4,0.1-2,0.3c-0.6,0.2-1.1,0.5-1.6,0.8v-0.8h-3.1L110.2,35.4L110.2,35.4z M116.4,26.5c-1.2,0-2-0.4-2.4-1.1s-0.7-1.8-0.7-3
	s0.2-2.2,0.7-3c0.5-0.8,1.2-1.2,2.3-1.2c0.8,0,1.4,0.2,1.9,0.6c0.5,0.4,0.9,0.9,1.1,1.5c0.2,0.6,0.4,1.3,0.4,2.1s-0.1,1.5-0.3,2.1
	c-0.2,0.6-0.6,1.1-1.1,1.5C117.8,26.3,117.2,26.5,116.4,26.5L116.4,26.5z"/>
<path class="st0" d="M129.6,29.6c1.8,0,3.2-0.4,4.2-1.2c1-0.8,1.5-1.9,1.5-3.3c0-1.1-0.3-1.9-1-2.5c-0.6-0.6-1.8-1.1-3.3-1.5
	c-1.1-0.3-1.9-0.5-2.4-0.7s-0.9-0.3-1-0.5c-0.2-0.2-0.2-0.4-0.2-0.6c0-0.4,0.2-0.7,0.6-0.9c0.4-0.2,0.9-0.3,1.5-0.2
	c1.4,0.1,2.1,0.7,2.2,1.7l3.5-0.6c-0.2-1.2-0.8-2.2-1.8-3c-1-0.7-2.4-1.1-4-1.1s-3,0.4-4,1.2c-1,0.8-1.5,1.8-1.5,3.2
	c0,1,0.3,1.9,1,2.5c0.7,0.6,1.9,1.1,3.6,1.5c1,0.3,1.7,0.5,2.2,0.6c0.5,0.2,0.8,0.3,0.9,0.5c0.1,0.2,0.2,0.4,0.2,0.6
	c0,0.4-0.2,0.8-0.5,1c-0.3,0.2-0.8,0.4-1.4,0.4c-0.8,0-1.4-0.2-1.9-0.5c-0.5-0.4-0.8-0.9-0.9-1.5l-3.5,0.5c0.2,1.4,0.9,2.5,1.9,3.3
	C126.5,29.2,127.9,29.6,129.6,29.6L129.6,29.6z"/>
<path class="st0" d="M141.7,29.7c1,0,1.9-0.2,2.6-0.5s1.4-0.8,1.9-1.3v1.4h3.1V15.5h-3.5v7c0,0.9-0.1,1.5-0.3,2.1
	c-0.2,0.5-0.4,0.9-0.7,1.2c-0.3,0.3-0.6,0.4-1,0.5c-0.3,0.1-0.7,0.1-0.9,0.1c-0.7,0-1.3-0.2-1.7-0.5c-0.4-0.3-0.7-0.7-0.9-1.2
	s-0.3-1-0.3-1.5c0-0.5-0.1-0.9-0.1-1.2v-6.5h-3.5v7.7c0,0.2,0,0.6,0.1,1.1s0.1,1.1,0.3,1.7c0.2,0.6,0.4,1.2,0.8,1.7
	c0.4,0.6,0.9,1,1.6,1.4C139.8,29.4,140.7,29.6,141.7,29.7L141.7,29.7z"/>
<path class="st0" d="M151.3,29.2h3.5v-8.3c0-0.8,0.2-1.4,0.6-1.9c0.4-0.5,1-0.8,1.7-0.8s1.4,0.2,1.8,0.8c0.4,0.5,0.6,1.2,0.6,2.1
	v8.1h3.5v-8.3c0-0.8,0.2-1.4,0.6-1.9c0.4-0.5,1-0.8,1.7-0.8s1.4,0.2,1.8,0.8c0.4,0.5,0.6,1.2,0.6,2.1v8.1h3.5v-9
	c0-1.5-0.4-2.7-1.2-3.6c-0.8-0.9-2-1.4-3.6-1.4c-0.9,0-1.7,0.2-2.4,0.6c-0.7,0.4-1.3,0.9-1.8,1.6c-0.4-0.6-0.9-1.2-1.5-1.6
	c-0.7-0.4-1.5-0.6-2.5-0.6c-0.8,0-1.6,0.2-2.3,0.5c-0.7,0.3-1.3,0.8-1.7,1.3v-1.5h-3.1L151.3,29.2L151.3,29.2z"/>
<path class="st0" d="M20,0.2c-11.1,0-20,8.9-20,20C11.1,20.2,20,11.3,20,0.2z"/>
<path class="st0" d="M20,40.2c11,0,20-9,20-20C29,20.2,20,29.2,20,40.2z"/>
<path class="st0" d="M20,0.2c11,0,20,8.9,20,20C29,20.2,20,11.3,20,0.2z"/>
<path class="st0" d="M20,40.2c-11.1,0-20-9-20-20C11.1,20.2,20,29.2,20,40.2z"/>
</svg>
