<?xml version="1.0" encoding="utf-8"?>
<!-- Generator: Adobe Illustrator 27.0.1, SVG Export Plug-In . SVG Version: 6.00 Build 0)  -->
<svg version="1.1" id="Layer_1" xmlns="http://www.w3.org/2000/svg" xmlns:xlink="http://www.w3.org/1999/xlink" x="0px" y="0px"
	 viewBox="0 0 169 42" style="enable-background:new 0 0 169 42;" xml:space="preserve">
<style type="text/css">
	.st0{fill:#FFFFFF;}
</style>
<path class="st0" d="M50.1,29.7h12v-3.6h-7.7V12.5h-4.2V29.7z"/>
<path class="st0" d="M69.1,27.3c-1.7,0-2.6-1.5-2.6-3.7s0.9-3.7,2.6-3.7s2.6,1.5,2.6,3.7S70.8,27.3,69.1,27.3z M69.1,30.1
	c4,0,6.6-2.8,6.6-6.5s-2.6-6.5-6.6-6.5s-6.6,2.8-6.6,6.5S65.2,30.1,69.1,30.1z"/>
<path class="st0" d="M82.5,33.9c1.8,0,3.4-0.4,4.5-1.4c1-0.9,1.6-2.2,1.6-4.1V17.4h-3.7v1.3h-0.1c-0.7-1-1.8-1.7-3.5-1.7
	c-3.1,0-5.2,2.5-5.2,6.1s2.6,5.8,5.3,5.8c1.5,0,2.4-0.6,3.1-1.4h0.1v1.2c0,1.5-0.7,2.4-2.3,2.4c-1.3,0-1.9-0.5-2.2-1.2h-3.8
	C76.9,32.5,79.2,33.9,82.5,33.9L82.5,33.9z M82.5,26.1c-1.5,0-2.4-1.2-2.4-3s1-3.1,2.4-3.1c1.6,0,2.5,1.4,2.5,3S84.2,26.1,82.5,26.1
	z"/>
<path class="st0" d="M96.4,27.3c-1.7,0-2.6-1.5-2.6-3.7s0.9-3.7,2.6-3.7s2.6,1.5,2.6,3.7S98.1,27.3,96.4,27.3z M96.4,30.1
	c4,0,6.6-2.8,6.6-6.5s-2.6-6.5-6.6-6.5s-6.6,2.8-6.6,6.5S92.5,30.1,96.4,30.1z"/>
<path class="st0" d="M104.1,29.7h3.9V17.4h-3.9V29.7z M104.1,15.7h3.9v-3.2h-3.9V15.7z"/>
<path class="st0" d="M109.7,33.8h3.9v-5.3h0.1c0.8,1,1.9,1.7,3.5,1.7c3.2,0,5.3-2.5,5.3-6.5c0-3.7-2-6.5-5.3-6.5
	c-1.7,0-2.9,0.7-3.7,1.9h-0.1v-1.5h-3.7C109.7,17.4,109.7,33.8,109.7,33.8z M116.1,27.1c-1.7,0-2.6-1.4-2.6-3.4s0.9-3.5,2.6-3.5
	s2.5,1.4,2.5,3.5S117.6,27.1,116.1,27.1z"/>
<path class="st0" d="M128.9,30.1c3.2,0,5.6-1.4,5.6-4.1c0-3.1-2.5-3.7-4.7-4.1c-1.6-0.3-2.9-0.4-2.9-1.3c0-0.8,0.7-1.1,1.7-1.1
	c1.1,0,1.8,0.3,2,1.4h3.6c-0.2-2.4-2.1-3.9-5.5-3.9c-2.9,0-5.3,1.3-5.3,3.9c0,2.9,2.3,3.5,4.4,3.8c1.6,0.3,3.1,0.4,3.1,1.5
	c0,0.8-0.7,1.2-1.9,1.2c-1.3,0-2.1-0.6-2.3-1.8h-3.7C123,28.4,125.3,30.1,128.9,30.1L128.9,30.1z"/>
<path class="st0" d="M139.8,30.1c1.7,0,2.8-0.7,3.7-1.9h0.1v1.5h3.7V17.4h-3.9v6.9c0,1.5-0.8,2.5-2.2,2.5c-1.2,0-1.9-0.7-1.9-2.1
	v-7.2h-3.9v8.1C135.4,28.2,136.9,30,139.8,30.1L139.8,30.1z"/>
<path class="st0" d="M149,29.7h3.9v-6.9c0-1.5,0.7-2.5,1.9-2.5s1.7,0.8,1.7,2.1v7.3h3.9v-6.9c0-1.5,0.7-2.5,1.9-2.5
	c1.2,0,1.7,0.8,1.7,2.1v7.3h3.9v-8c0-2.8-1.4-4.7-4.2-4.7c-1.6,0-2.9,0.7-3.9,2.2H160c-0.6-1.3-1.9-2.2-3.5-2.2
	c-1.8,0-2.9,0.8-3.7,2.1h-0.1v-1.8H149L149,29.7L149,29.7z"/>
<path class="st0" d="M26.2,2.7l-3.9-1L19,14L16,2.9l-3.9,1L15.3,16l-8.1-8l-2.9,2.9l8.8,8.8l-11-3l-1,3.9l12,3.2
	c-0.1-0.6-0.2-1.2-0.2-1.9c0-4.5,3.6-8.1,8.1-8.1s8.1,3.7,8.1,8.1c0,0.6-0.1,1.2-0.2,1.8l10.9,2.9l1-3.9l-12.1-3.2l11-3l-1-3.9
	L26.8,16l8-8L31.9,5l-8.7,8.7L26.2,2.7L26.2,2.7z"/>
<path class="st0" d="M29,23.9c-0.3,1.4-1,2.7-2,3.7l7.9,7.9l2.9-2.9L29,23.9L29,23.9z"/>
<path class="st0" d="M26.9,27.7c-1,1-2.2,1.8-3.6,2.1l2.9,10.8l3.9-1L26.9,27.7L26.9,27.7z"/>
<path class="st0" d="M23.1,29.9c-0.6,0.2-1.3,0.3-2,0.3c-0.8,0-1.5-0.1-2.2-0.3L16,40.6l3.9,1L23.1,29.9L23.1,29.9z"/>
<path class="st0" d="M18.8,29.8c-1.4-0.4-2.6-1.2-3.6-2.2l-7.9,7.9l2.9,2.9C10.1,38.4,18.8,29.8,18.8,29.8z"/>
<path class="st0" d="M15.1,27.6c-0.9-1-1.6-2.3-2-3.7l-11,2.9l1,3.9L15.1,27.6L15.1,27.6z"/>
</svg>
