<svg width="414" height="427" viewBox="0 0 414 427" fill="none" xmlns="http://www.w3.org/2000/svg">
<g clip-path="url(#clip0_469_8053)">
<path d="M49.2594 273.85C40.5794 273.99 27.9294 274.3 19.3594 274.3H18.9194V273.85L18.8594 261.22V260.72H19.3594C28.1794 260.76 40.5694 260.79 49.2594 260.95H49.5394V261.22C49.5194 264.92 49.3194 270.12 49.2594 273.85ZM49.2594 273.85C49.1594 270.15 49.0594 264.85 48.9894 261.22L49.2594 261.49C40.6194 261.63 28.1394 261.7 19.3594 261.72L19.8594 261.22L19.8094 273.85L19.3594 273.4C27.8194 273.42 40.6794 273.69 49.2594 273.85Z" fill="#EBEBEB"/>
<path d="M32.5895 289.78C23.9095 289.92 11.2595 290.23 2.68945 290.23H2.24945V289.78L2.18945 277.15V276.65H2.68945C11.5095 276.69 23.8995 276.72 32.5895 276.88H32.8695V277.15C32.8495 280.85 32.6495 286.05 32.5995 289.78H32.5895ZM32.5895 289.78C32.4895 286.08 32.3895 280.78 32.3195 277.15L32.5895 277.42C23.9495 277.56 11.4695 277.63 2.68945 277.65L3.18945 277.15L3.13945 289.78L2.68945 289.33C11.1495 289.35 24.0095 289.62 32.5895 289.78Z" fill="#EBEBEB"/>
<path d="M32.5895 16.42C23.9095 16.56 11.2595 16.87 2.68945 16.87H2.24945V16.42L2.18945 3.79V3.29H2.68945C11.5095 3.33 23.8995 3.36 32.5895 3.52H32.8695V3.79C32.8495 7.49 32.6495 12.69 32.5895 16.42ZM32.5895 16.42C32.4895 12.72 32.3895 7.42 32.3195 3.79L32.5895 4.06C23.9495 4.2 11.4695 4.27 2.68945 4.29L3.18945 3.79L3.13945 16.42L2.68945 15.97C11.1495 15.99 24.0095 16.26 32.5895 16.42Z" fill="#EBEBEB"/>
<path d="M410.56 16.42C401.88 16.56 389.23 16.87 380.66 16.87H380.22V16.42L380.17 3.79V3.29H380.67C389.49 3.33 401.88 3.36 410.57 3.52H410.85V3.79C410.83 7.49 410.63 12.69 410.58 16.42H410.56ZM410.56 16.42C410.46 12.72 410.36 7.42 410.29 3.79L410.56 4.06C401.92 4.2 389.44 4.27 380.66 4.29L381.16 3.79L381.11 16.42L380.66 15.97C389.12 15.99 401.98 16.26 410.56 16.42Z" fill="#EBEBEB"/>
<path d="M393.89 32.35C385.21 32.49 372.56 32.8 363.99 32.8H363.55V32.35L363.49 19.72V19.22H363.99C372.81 19.26 385.2 19.29 393.89 19.45H394.17V19.72C394.15 23.42 393.95 28.62 393.89 32.35ZM393.89 32.35C393.79 28.65 393.69 23.35 393.62 19.72L393.89 19.99C385.25 20.13 372.77 20.2 363.99 20.22L364.49 19.72L364.44 32.35L363.99 31.9C372.45 31.92 385.31 32.19 393.89 32.35Z" fill="#EBEBEB"/>
<path d="M317.32 180.14C308.64 180.28 295.99 180.59 287.42 180.59H286.98V180.14L286.93 167.51V167.01H287.43C296.25 167.05 308.64 167.08 317.33 167.24H317.61V167.51C317.59 171.21 317.39 176.41 317.34 180.14H317.32ZM317.32 180.14C317.22 176.44 317.12 171.14 317.05 167.51L317.32 167.78C308.68 167.92 296.2 167.99 287.42 168.01L287.92 167.51L287.87 180.14L287.42 179.69C295.88 179.71 308.74 179.98 317.32 180.14Z" fill="#EBEBEB"/>
<path d="M300.64 196.07C291.96 196.21 279.31 196.52 270.74 196.52H270.3V196.07L270.25 183.44V182.94H270.75C279.57 182.98 291.96 183.01 300.65 183.17H300.93V183.44C300.91 187.14 300.71 192.34 300.65 196.07H300.64ZM300.64 196.07C300.54 192.37 300.44 187.07 300.37 183.44L300.64 183.71C292 183.85 279.52 183.92 270.74 183.94L271.24 183.44L271.19 196.07L270.74 195.62C279.2 195.64 292.06 195.91 300.64 196.07Z" fill="#EBEBEB"/>
<path d="M284.029 180.14C275.349 180.28 262.699 180.59 254.129 180.59H253.689V180.14L253.639 167.51V167.01H254.139C262.959 167.05 275.349 167.08 284.039 167.24H284.319V167.51C284.299 171.21 284.099 176.41 284.039 180.14H284.029ZM284.029 180.14C283.929 176.44 283.829 171.14 283.759 167.51L284.029 167.78C275.389 167.92 262.909 167.99 254.129 168.01L254.629 167.51L254.579 180.14L254.129 179.69C262.589 179.71 275.449 179.98 284.029 180.14Z" fill="#EBEBEB"/>
<path d="M410.56 289.78C401.88 289.92 389.23 290.23 380.66 290.23H380.22V289.78L380.16 277.15V276.65H380.66C389.48 276.69 401.87 276.72 410.56 276.88H410.84V277.15C410.82 280.85 410.62 286.05 410.56 289.78ZM410.56 289.78C410.46 286.08 410.36 280.78 410.29 277.15L410.56 277.42C401.92 277.56 389.44 277.63 380.66 277.65L381.16 277.15L381.11 289.78L380.66 289.33C389.12 289.35 401.98 289.62 410.56 289.78Z" fill="#EBEBEB"/>
<path d="M156.55 53.99C147.87 54.13 135.22 54.44 126.65 54.44H126.21V53.99L126.15 41.36V40.86H126.65C135.47 40.9 147.86 40.93 156.55 41.09H156.83V41.36C156.81 45.06 156.61 50.26 156.56 53.99H156.55ZM156.55 53.99C156.45 50.29 156.35 44.99 156.28 41.36L156.55 41.63C147.91 41.77 135.43 41.84 126.65 41.86L127.15 41.36L127.1 53.99L126.65 53.54C135.11 53.56 147.97 53.83 156.55 53.99Z" fill="#EBEBEB"/>
<path d="M379.849 137.68L385.739 128.19L382.829 126.39C381.979 125.86 381.509 124.89 381.599 123.89C381.649 123.34 381.669 122.78 381.649 122.22C381.629 121.22 382.149 120.28 383.039 119.81L386.049 118.19L380.769 108.34L377.759 109.96C376.879 110.43 375.809 110.35 374.989 109.78C374.529 109.46 374.059 109.17 373.569 108.9C372.689 108.42 372.139 107.5 372.169 106.49L372.279 103.07L361.119 102.72L361.019 106.15C360.989 107.16 360.369 108.03 359.459 108.46C359.209 108.58 358.969 108.7 358.729 108.83C358.489 108.96 358.249 109.1 358.019 109.24C357.159 109.76 356.099 109.79 355.249 109.26L352.319 107.45L346.429 116.94L349.339 118.75C350.189 119.28 350.659 120.25 350.569 121.25C350.519 121.8 350.499 122.36 350.519 122.91C350.539 123.91 350.019 124.84 349.129 125.32L346.119 126.94L351.399 136.79L354.409 135.17C355.289 134.7 356.359 134.78 357.179 135.35C357.639 135.67 358.109 135.96 358.599 136.22C359.479 136.7 360.029 137.62 359.999 138.63L359.889 142.06L371.049 142.41L371.159 138.98C371.189 137.98 371.809 137.11 372.709 136.68C372.959 136.56 373.199 136.44 373.449 136.31C373.689 136.18 373.929 136.04 374.159 135.9C375.019 135.38 376.089 135.35 376.949 135.88L379.859 137.68H379.849ZM370.399 130.63C365.949 133.02 360.409 131.35 358.019 126.89C355.629 122.44 357.299 116.89 361.749 114.5C366.199 112.11 371.749 113.79 374.139 118.24C376.529 122.69 374.849 128.24 370.399 130.62V130.63Z" fill="#EBEBEB"/>
<path d="M58.1597 245.22L64.0497 235.73L61.1397 233.93C60.2897 233.4 59.8197 232.43 59.9097 231.43C59.9597 230.88 59.9797 230.32 59.9597 229.76C59.9397 228.76 60.4597 227.82 61.3497 227.35L64.3597 225.73L59.0797 215.88L56.0697 217.5C55.1897 217.97 54.1197 217.89 53.2997 217.32C52.8397 217 52.3697 216.71 51.8797 216.44C50.9997 215.96 50.4497 215.04 50.4797 214.03L50.5897 210.61L39.4297 210.26L39.3297 213.69C39.2997 214.7 38.6797 215.57 37.7697 216C37.5197 216.12 37.2797 216.24 37.0397 216.37C36.7997 216.5 36.5597 216.64 36.3297 216.78C35.4697 217.3 34.4097 217.33 33.5597 216.8L30.6297 214.99L24.7397 224.48L27.6497 226.29C28.4997 226.82 28.9697 227.79 28.8797 228.79C28.8297 229.34 28.8097 229.9 28.8297 230.45C28.8497 231.45 28.3297 232.38 27.4397 232.86L24.4297 234.48L29.7097 244.33L32.7197 242.71C33.5997 242.24 34.6697 242.32 35.4897 242.89C35.9497 243.21 36.4197 243.5 36.9097 243.76C37.7897 244.24 38.3397 245.16 38.3097 246.17L38.1997 249.6L49.3597 249.95L49.4697 246.52C49.4997 245.52 50.1197 244.65 51.0197 244.22C51.2697 244.1 51.5097 243.98 51.7597 243.85C51.9997 243.72 52.2397 243.58 52.4697 243.44C53.3297 242.92 54.3997 242.89 55.2597 243.42L58.1697 245.22H58.1597ZM48.7097 238.17C44.2597 240.56 38.7197 238.89 36.3297 234.43C33.9397 229.98 35.6097 224.43 40.0597 222.04C44.5097 219.65 50.0597 221.33 52.4497 225.78C54.8397 230.23 53.1597 235.78 48.7097 238.16V238.17Z" fill="#EBEBEB"/>
<path d="M172.489 63.44L168.579 56.66L166.509 57.86C165.899 58.21 165.149 58.18 164.559 57.79C164.229 57.58 163.899 57.38 163.549 57.2C162.919 56.88 162.519 56.25 162.519 55.55V53.15H154.689V55.55C154.689 56.25 154.289 56.88 153.659 57.2C153.309 57.38 152.969 57.57 152.649 57.79C152.059 58.17 151.309 58.21 150.699 57.86L148.629 56.66L144.719 63.44L146.799 64.64C147.409 64.99 147.749 65.66 147.709 66.37C147.709 66.56 147.699 66.75 147.699 66.95C147.699 67.15 147.699 67.33 147.709 67.53C147.749 68.23 147.409 68.9 146.799 69.25L144.709 70.46L148.619 77.24L150.699 76.04C151.309 75.69 152.059 75.72 152.649 76.11C152.969 76.32 153.309 76.52 153.659 76.69C154.289 77.01 154.689 77.64 154.689 78.34V80.74H162.519V78.34C162.519 77.64 162.919 77.01 163.549 76.69C163.899 76.51 164.229 76.32 164.559 76.11C165.149 75.72 165.899 75.69 166.509 76.04L168.589 77.24L172.499 70.46L170.419 69.26C169.809 68.91 169.479 68.24 169.509 67.54C169.509 67.35 169.519 67.15 169.519 66.96C169.519 66.77 169.519 66.58 169.509 66.38C169.469 65.68 169.809 65.01 170.419 64.65L172.499 63.45L172.489 63.44ZM165.009 66.94C165.009 70.48 162.139 73.35 158.599 73.35C155.059 73.35 152.189 70.48 152.189 66.94C152.189 63.4 155.059 60.53 158.599 60.53C162.139 60.53 165.009 63.4 165.009 66.94Z" fill="#EBEBEB"/>
<path d="M206.63 426.83C288.954 426.83 355.69 417.392 355.69 405.75C355.69 394.108 288.954 384.67 206.63 384.67C124.307 384.67 57.5703 394.108 57.5703 405.75C57.5703 417.392 124.307 426.83 206.63 426.83Z" fill="#EBEBEB"/>
<path d="M45.4607 260.55C32.3907 273.34 30.2007 293.14 32.9507 310.47C33.0207 310.86 33.6307 310.76 33.6307 310.39C33.6307 306.44 33.5107 302.53 33.5207 298.63C33.5907 298.45 33.6507 298.28 33.7207 298.11C37.1307 295.63 40.2707 292.83 42.2107 288.99C44.3907 284.7 45.2507 279.86 46.9207 275.37C47.0807 274.94 46.6207 275.07 46.3207 275.29C38.3707 281.15 35.8407 287.46 33.5607 295.89C33.6707 291.51 34.0007 287.14 34.9407 282.76C36.6607 274.76 40.0607 266.83 45.8007 260.89C46.0107 260.66 45.6807 260.32 45.4507 260.54L45.4607 260.55Z" fill="#397D80"/>
<path d="M47.9218 262.04C50.1718 262.12 51.5818 265.71 53.3318 266.76C54.2618 267.32 55.1618 267.28 55.8118 266.37C57.5518 263.95 55.1618 260.96 52.9218 259.28C54.5218 259.94 55.8518 261.1 57.5818 261.42C58.6318 261.61 59.4418 261.22 59.6818 260.16C60.4418 256.86 56.3018 255.39 53.4518 255.32C54.8318 254.36 58.7818 251.76 56.6818 250.48C54.5518 249.19 49.9218 252.92 48.4118 254.15C46.1918 255.95 43.5418 258.65 43.4418 261.47C43.3118 264.76 46.1918 262.74 47.9218 262.05V262.04Z" fill="#23DABB"/>
<path opacity="0.1" d="M47.9218 262.04C50.1718 262.12 51.5818 265.71 53.3318 266.76C54.2618 267.32 55.1618 267.28 55.8118 266.37C57.5518 263.95 55.1618 260.96 52.9218 259.28C54.5218 259.94 55.8518 261.1 57.5818 261.42C58.6318 261.61 59.4418 261.22 59.6818 260.16C60.4418 256.86 56.3018 255.39 53.4518 255.32C54.8318 254.36 58.7818 251.76 56.6818 250.48C54.5518 249.19 49.9218 252.92 48.4118 254.15C46.1918 255.95 43.5418 258.65 43.4418 261.47C43.3118 264.76 46.1918 262.74 47.9218 262.05V262.04Z" fill="black"/>
<path d="M47.2712 262.59C50.1412 261.28 55.6712 263.16 56.1412 262.08C57.0912 259.87 52.6812 258.35 50.3012 258.05C52.4912 257.46 56.7012 256.51 56.5712 254.39C56.4112 251.81 50.1212 254.03 46.9412 256.47C42.9312 259.54 42.9612 262.51 43.6212 263.11C44.5312 263.93 46.8112 262.81 47.2812 262.59H47.2712Z" fill="#23DABB"/>
<path d="M15.7 259.28C29.25 271.57 32.19 291.26 30.1 308.69C30.04 309.09 29.43 309 29.42 308.63C29.27 304.69 29.24 300.77 29.08 296.88C29 296.7 28.94 296.54 28.86 296.36C25.36 294.01 22.12 291.33 20.03 287.57C17.69 283.36 16.64 278.56 14.81 274.14C14.64 273.72 15.1 273.83 15.41 274.03C23.58 279.59 26.35 285.79 28.95 294.13C28.68 289.76 28.18 285.4 27.07 281.06C25.05 273.13 21.35 265.34 15.38 259.62C15.16 259.4 15.48 259.04 15.71 259.26L15.7 259.28Z" fill="#397D80"/>
<path d="M13.2999 260.86C11.0599 261.02 9.77986 264.67 8.06986 265.78C7.16986 266.37 6.25986 266.37 5.57986 265.48C3.74986 263.12 6.01986 260.05 8.18986 258.29C6.60986 259.01 5.32986 260.22 3.61986 260.61C2.57986 260.84 1.74986 260.48 1.46986 259.43C0.579861 256.16 4.66986 254.53 7.50986 254.35C6.09986 253.44 2.04986 250.99 4.09986 249.63C6.17986 248.26 10.9499 251.81 12.5099 252.98C14.7999 254.7 17.5499 257.29 17.7599 260.1C18.0199 263.38 15.0599 261.47 13.3099 260.85L13.2999 260.86Z" fill="#23DABB"/>
<path opacity="0.1" d="M13.2999 260.86C11.0599 261.02 9.77986 264.67 8.06986 265.78C7.16986 266.37 6.25986 266.37 5.57986 265.48C3.74986 263.12 6.01986 260.05 8.18986 258.29C6.60986 259.01 5.32986 260.22 3.61986 260.61C2.57986 260.84 1.74986 260.48 1.46986 259.43C0.579861 256.16 4.66986 254.53 7.50986 254.35C6.09986 253.44 2.04986 250.99 4.09986 249.63C6.17986 248.26 10.9499 251.81 12.5099 252.98C14.7999 254.7 17.5499 257.29 17.7599 260.1C18.0199 263.38 15.0599 261.47 13.3099 260.85L13.2999 260.86Z" fill="black"/>
<path d="M13.9693 261.39C11.0493 260.19 5.59934 262.28 5.08934 261.21C4.04934 259.03 8.40934 257.35 10.7793 256.96C8.56934 256.45 4.32934 255.66 4.37934 253.54C4.43934 250.95 10.8093 252.93 14.0793 255.25C18.1993 258.17 18.2893 261.14 17.6493 261.76C16.7693 262.61 14.4593 261.58 13.9693 261.38V261.39Z" fill="#23DABB"/>
<path d="M29.5502 291.73C30.5502 298.21 31.7902 304.9 33.7602 311.16C33.9502 311.73 34.7902 311.58 34.7102 310.97C33.8202 304.98 32.2002 299.11 31.3102 293.12C30.4102 287.06 29.9202 280.92 30.2702 274.79C30.8402 264.7 33.5802 253.97 40.1602 246.07C40.3002 245.88 40.0002 245.62 39.8502 245.79C26.6702 261.16 28.7702 280 28.7802 281.69C26.9102 275.33 24.9902 268.03 17.9302 261.56C17.6302 261.28 17.3902 261.41 17.4402 261.89C18.7002 273.69 21.9802 279.85 28.8202 286.16C29.0102 288.03 29.2602 289.89 29.5502 291.73Z" fill="#397D80"/>
<path d="M40.2711 247.84C42.6411 246.79 45.9111 249.81 48.2611 250.01C49.5011 250.12 50.4211 249.63 50.6411 248.36C51.2211 244.97 47.2511 243.07 44.0811 242.46C46.0711 242.34 48.0311 242.87 49.9911 242.34C51.1711 242.01 51.8211 241.2 51.5411 239.97C50.6711 236.16 45.6311 236.72 42.6411 238.08C43.5911 236.39 46.3811 231.7 43.5511 231.43C40.7011 231.17 37.7611 237.36 36.8111 239.4C35.4111 242.39 34.0211 246.52 35.3311 249.5C36.8511 252.98 38.8211 249.43 40.2711 247.84Z" fill="#23DABB"/>
<path opacity="0.1" d="M40.2711 247.84C42.6411 246.79 45.9111 249.81 48.2611 250.01C49.5011 250.12 50.4211 249.63 50.6411 248.36C51.2211 244.97 47.2511 243.07 44.0811 242.46C46.0711 242.34 48.0311 242.87 49.9911 242.34C51.1711 242.01 51.8211 241.2 51.5411 239.97C50.6711 236.16 45.6311 236.72 42.6411 238.08C43.5911 236.39 46.3811 231.7 43.5511 231.43C40.7011 231.17 37.7611 237.36 36.8111 239.4C35.4111 242.39 34.0211 246.52 35.3311 249.5C36.8511 252.98 38.8211 249.43 40.2711 247.84Z" fill="black"/>
<path d="M39.8816 248.75C42.2016 245.95 48.8816 245.12 48.8216 243.75C48.6916 240.97 43.3516 241.62 40.7316 242.51C42.7116 240.79 46.5916 237.69 45.3916 235.56C43.9316 232.96 38.5216 238.43 36.4416 242.56C33.8316 247.77 35.3516 250.83 36.3316 251.12C37.6816 251.51 39.4816 249.2 39.8716 248.74L39.8816 248.75Z" fill="#23DABB"/>
<path d="M20.8803 295.28L15.0703 339.7H50.4403C49.7103 335.76 43.1303 295.23 43.1303 295.23L20.8803 295.28Z" fill="#23DABB"/>
<path d="M0 339.85C132.38 339.24 280.88 339.23 413.25 339.85C280.87 340.47 132.37 340.46 0 339.85Z" fill="#27DBBB"/>
<path d="M114.201 184.38L107.991 159.95L58.9507 172.41L52.4707 146.91L91.6607 57.6L111.101 52.66L130.001 127.02L145.691 123.03L152.221 148.71L136.531 152.7L142.741 177.13L114.211 184.38H114.201ZM80.6007 139.57L104.851 133.41L96.8307 101.85L80.6007 139.58V139.57Z" fill="#0A2D49"/>
<path d="M254.651 102.82C254.651 110.92 253.421 118.37 250.971 125.17C248.511 131.98 245.141 137.87 240.851 142.83C236.561 147.8 231.501 151.66 225.671 154.42C219.841 157.18 213.491 158.56 206.631 158.56C199.771 158.56 193.381 157.18 187.501 154.42C181.611 151.66 176.521 147.8 172.231 142.83C167.941 137.86 164.591 131.97 162.201 125.17C159.811 118.36 158.611 110.91 158.611 102.82C158.611 94.73 159.811 87.27 162.201 80.47C164.591 73.66 167.931 67.77 172.231 62.81C176.521 57.84 181.611 53.95 187.501 51.13C193.391 48.31 199.761 46.9 206.631 46.9C213.501 46.9 219.851 48.31 225.671 51.13C231.491 53.95 236.551 57.85 240.851 62.81C245.141 67.78 248.521 73.67 250.971 80.47C253.421 87.28 254.651 94.73 254.651 102.82ZM225.031 102.82C225.031 94.24 223.311 87.27 219.881 81.94C216.441 76.6 212.031 73.94 206.631 73.94C201.231 73.94 196.481 76.61 193.111 81.94C189.741 87.28 188.051 94.24 188.051 102.82C188.051 111.4 189.731 118.34 193.111 123.61C196.481 128.89 200.991 131.52 206.631 131.52C212.271 131.52 216.441 128.88 219.881 123.61C223.311 118.34 225.031 111.41 225.031 102.82Z" fill="#0A2D49"/>
<path d="M307.471 179.67L311.501 154.79L261.551 146.7L265.761 120.73L337.271 54.4L357.071 57.61L344.801 133.35L360.781 135.94L356.541 162.09L340.561 159.5L336.531 184.38L307.471 179.67ZM294.491 125.19L319.191 129.19L324.401 97.04L294.491 125.19Z" fill="#0A2D49"/>
<path d="M165.3 29.17C163.2 29.17 161.29 28.76 159.58 27.94C157.87 27.12 156.4 26.03 155.18 24.67C153.95 23.31 153 21.76 152.33 20C151.66 18.25 151.32 16.46 151.32 14.63C151.32 12.8 151.68 10.89 152.39 9.14C153.1 7.39 154.09 5.84 155.34 4.49C156.59 3.14 158.08 2.07 159.8 1.28C161.52 0.489996 163.4 0.0899963 165.42 0.0899963C167.44 0.0899963 169.39 0.509996 171.1 1.36C172.81 2.21 174.27 3.32 175.48 4.69C176.69 6.06 177.63 7.63 178.31 9.38C178.98 11.13 179.32 12.91 179.32 14.71C179.32 16.62 178.97 18.45 178.27 20.18C177.57 21.92 176.6 23.45 175.36 24.78C174.12 26.11 172.64 27.18 170.92 27.97C169.2 28.77 167.32 29.16 165.3 29.16V29.17ZM156.98 14.63C156.98 15.87 157.17 17.07 157.55 18.23C157.93 19.39 158.47 20.41 159.19 21.3C159.9 22.19 160.78 22.9 161.82 23.44C162.86 23.98 164.03 24.25 165.35 24.25C166.67 24.25 167.89 23.97 168.92 23.42C169.96 22.87 170.83 22.13 171.55 21.22C172.26 20.31 172.8 19.27 173.17 18.13C173.53 16.99 173.72 15.82 173.72 14.64C173.72 13.46 173.52 12.2 173.13 11.04C172.74 9.88 172.19 8.86 171.47 7.97C170.76 7.08 169.88 6.37 168.84 5.85C167.8 5.33 166.64 5.06 165.35 5.06C164.06 5.06 162.81 5.34 161.75 5.89C160.7 6.44 159.82 7.17 159.12 8.07C158.42 8.97 157.89 10 157.52 11.14C157.16 12.29 156.97 13.45 156.97 14.63H156.98Z" fill="#0A2D49"/>
<path d="M192.85 29.37C191.13 29.37 189.58 29.07 188.2 28.48C186.83 27.89 185.66 27.09 184.71 26.08C183.75 25.07 183.02 23.91 182.51 22.59C182 21.27 181.74 19.88 181.74 18.43C181.74 16.98 182 15.55 182.51 14.23C183.02 12.91 183.76 11.75 184.71 10.74C185.67 9.73 186.83 8.93 188.2 8.34C189.57 7.75 191.12 7.45 192.85 7.45C194.58 7.45 196.12 7.75 197.48 8.34C198.84 8.93 200 9.73 200.95 10.74C201.91 11.75 202.64 12.91 203.15 14.23C203.66 15.55 203.92 16.95 203.92 18.43C203.92 19.91 203.66 21.27 203.15 22.59C202.64 23.91 201.91 25.07 200.97 26.08C200.03 27.09 198.87 27.89 197.5 28.48C196.13 29.07 194.58 29.37 192.85 29.37ZM187.32 18.42C187.32 19.36 187.46 20.22 187.74 20.99C188.02 21.76 188.41 22.42 188.91 22.99C189.41 23.56 189.99 23.99 190.67 24.3C191.34 24.61 192.07 24.76 192.85 24.76C193.63 24.76 194.36 24.61 195.03 24.3C195.7 23.99 196.29 23.55 196.79 22.99C197.29 22.42 197.68 21.75 197.96 20.97C198.24 20.19 198.38 19.33 198.38 18.38C198.38 17.43 198.24 16.62 197.96 15.84C197.68 15.06 197.29 14.39 196.79 13.82C196.29 13.25 195.71 12.82 195.03 12.51C194.36 12.2 193.63 12.05 192.85 12.05C192.07 12.05 191.34 12.21 190.67 12.53C190 12.85 189.41 13.3 188.91 13.86C188.41 14.43 188.02 15.1 187.74 15.88C187.46 16.66 187.32 17.51 187.32 18.42Z" fill="#0A2D49"/>
<path d="M220.241 29.37C218.571 29.37 217.121 29 215.881 28.26C214.641 27.52 213.671 26.52 212.971 25.25V37.57H207.561V7.8H212.291V11.44C213.071 10.2 214.081 9.23 215.321 8.51C216.561 7.8 217.991 7.44 219.601 7.44C221.031 7.44 222.351 7.73 223.561 8.31C224.771 8.89 225.821 9.67 226.691 10.65C227.561 11.63 228.251 12.79 228.751 14.12C229.251 15.45 229.501 16.86 229.501 18.34C229.501 19.82 229.271 21.32 228.811 22.66C228.351 24.01 227.711 25.18 226.891 26.17C226.071 27.17 225.091 27.95 223.961 28.51C222.831 29.08 221.591 29.36 220.241 29.36V29.37ZM218.421 24.77C219.231 24.77 219.971 24.6 220.661 24.24C221.351 23.89 221.931 23.42 222.421 22.83C222.901 22.24 223.281 21.55 223.551 20.77C223.821 19.99 223.951 19.18 223.951 18.35C223.951 17.46 223.801 16.63 223.511 15.87C223.211 15.1 222.801 14.44 222.281 13.87C221.751 13.3 221.141 12.86 220.421 12.54C219.711 12.22 218.931 12.06 218.101 12.06C217.591 12.06 217.061 12.15 216.521 12.32C215.981 12.5 215.481 12.74 215.021 13.07C214.561 13.39 214.151 13.77 213.791 14.2C213.431 14.63 213.151 15.1 212.961 15.61V20.58C213.451 21.79 214.191 22.8 215.181 23.59C216.181 24.38 217.251 24.78 218.411 24.78L218.421 24.77Z" fill="#0A2D49"/>
<path d="M241.17 29.37C239.39 29.37 237.66 29.09 235.96 28.52C234.26 27.95 232.81 27.15 231.6 26.1L233.62 22.71C234.91 23.63 236.17 24.32 237.4 24.79C238.63 25.26 239.84 25.5 241.06 25.5C242.14 25.5 242.98 25.3 243.6 24.89C244.22 24.49 244.53 23.91 244.53 23.15C244.53 22.39 244.17 21.84 243.44 21.49C242.71 21.14 241.53 20.74 239.89 20.28C238.52 19.9 237.35 19.54 236.38 19.19C235.41 18.84 234.63 18.44 234.04 18C233.45 17.56 233.02 17.04 232.75 16.47C232.48 15.9 232.35 15.2 232.35 14.39C232.35 13.31 232.56 12.34 232.98 11.48C233.4 10.62 233.98 9.88 234.74 9.28C235.49 8.67 236.38 8.21 237.39 7.89C238.4 7.57 239.5 7.41 240.68 7.41C242.27 7.41 243.76 7.64 245.14 8.1C246.53 8.56 247.8 9.3 248.96 10.32L246.78 13.59C245.7 12.78 244.66 12.19 243.65 11.81C242.64 11.43 241.64 11.24 240.64 11.24C239.72 11.24 238.96 11.43 238.34 11.81C237.72 12.19 237.41 12.79 237.41 13.63C237.41 14.01 237.48 14.32 237.63 14.56C237.78 14.8 238.01 15.02 238.34 15.21C238.66 15.4 239.09 15.58 239.61 15.76C240.14 15.94 240.79 16.12 241.57 16.31C243.02 16.69 244.27 17.06 245.31 17.44C246.35 17.82 247.19 18.25 247.85 18.73C248.51 19.21 248.99 19.77 249.31 20.41C249.62 21.04 249.77 21.8 249.77 22.69C249.77 24.76 249 26.4 247.47 27.6C245.94 28.8 243.85 29.4 241.21 29.4L241.17 29.37Z" fill="#0A2D49"/>
<path d="M254.291 18.18V0H259.701V18.18H254.291ZM254.291 28.97V22.87H259.701V28.97H254.291Z" fill="#0A2D49"/>
<path d="M227.219 270.55H191.709V273.46H227.219V270.55Z" fill="#238070"/>
<path d="M227.219 274.34H191.709V277.25H227.219V274.34Z" fill="#238070"/>
<path d="M227.219 278.13H191.709V281.04H227.219V278.13Z" fill="#238070"/>
<path d="M227.219 281.92H191.709V284.83H227.219V281.92Z" fill="#238070"/>
<path d="M227.219 285.71H191.709V288.62H227.219V285.71Z" fill="#238070"/>
<path d="M242.6 361.3H175.08V364.21H242.6V361.3Z" fill="#238070"/>
<path d="M242.6 365.09H175.08V368H242.6V365.09Z" fill="#238070"/>
<path d="M242.6 368.88H175.08V371.79H242.6V368.88Z" fill="#238070"/>
<path d="M242.6 372.67H175.08V375.58H242.6V372.67Z" fill="#238070"/>
<path d="M242.6 376.46H175.08V379.37H242.6V376.46Z" fill="#238070"/>
<path d="M145.46 246.5C145.49 246.11 130.68 241.15 130.68 241.15L131.55 190.26L151.19 186.05L145.45 246.5H145.46Z" fill="#23DABB"/>
<path opacity="0.2" d="M145.46 246.5C145.49 246.11 130.68 241.15 130.68 241.15L131.55 190.26L151.19 186.05L145.45 246.5H145.46Z" fill="black"/>
<path d="M281.119 266.48C281.219 266.1 296.839 266.54 296.839 266.54L313.529 218.46L296.539 207.74L281.119 266.48Z" fill="#23DABB"/>
<path opacity="0.2" d="M281.119 266.48C281.219 266.1 296.839 266.54 296.839 266.54L313.529 218.46L296.539 207.74L281.119 266.48Z" fill="black"/>
<path d="M142.609 265.24C142.609 265.24 148.099 182.94 152.919 155.87C152.919 155.87 252.339 163.39 306.009 183.9C306.009 183.9 278.339 280.03 276.909 284.8C276.909 284.8 206.899 271.01 142.619 265.24H142.609Z" fill="#23DABB"/>
<path opacity="0.1" d="M231.348 166.86C229.728 176.77 228.098 186.68 226.408 196.57L221.288 226.25L221.008 225.83L254.318 233.74L270.958 237.77L287.578 241.88L270.868 238.14L254.178 234.32L220.838 226.53L220.498 226.45L220.558 226.11L225.868 196.46C227.648 186.58 229.488 176.71 231.348 166.84V166.86Z" fill="black"/>
<path opacity="0.1" d="M227.688 172.51C227.708 173.42 226.978 174.35 225.938 174.44C225.438 174.49 224.888 174.33 224.478 173.97C224.068 173.61 223.818 173.06 223.818 172.51C223.818 171.95 224.068 171.4 224.478 171.05C224.888 170.69 225.438 170.53 225.938 170.58C226.978 170.67 227.698 171.61 227.688 172.51ZM227.688 172.51C227.688 172.05 227.478 171.6 227.138 171.31C226.798 171.02 226.348 170.9 225.938 170.95C225.098 171.05 224.558 171.8 224.568 172.51C224.558 173.22 225.098 173.97 225.938 174.07C226.348 174.12 226.798 174 227.138 173.71C227.478 173.42 227.678 172.97 227.688 172.51Z" fill="black"/>
<path opacity="0.1" d="M225.948 184.75C225.968 185.66 225.238 186.59 224.198 186.68C223.698 186.73 223.148 186.57 222.738 186.21C222.328 185.85 222.078 185.3 222.078 184.75C222.078 184.19 222.328 183.64 222.738 183.29C223.148 182.93 223.698 182.77 224.198 182.82C225.238 182.91 225.958 183.85 225.948 184.75ZM225.948 184.75C225.948 184.29 225.738 183.84 225.398 183.55C225.058 183.26 224.608 183.14 224.198 183.19C223.358 183.29 222.818 184.04 222.828 184.75C222.818 185.46 223.358 186.21 224.198 186.31C224.608 186.36 225.058 186.24 225.398 185.95C225.738 185.66 225.938 185.21 225.948 184.75Z" fill="black"/>
<path opacity="0.1" d="M223.8 197.69C223.82 198.6 223.09 199.53 222.05 199.62C221.55 199.67 221 199.51 220.59 199.15C220.18 198.79 219.93 198.24 219.93 197.69C219.93 197.14 220.18 196.58 220.59 196.23C221 195.87 221.55 195.71 222.05 195.76C223.09 195.85 223.81 196.79 223.8 197.69ZM223.8 197.69C223.8 197.23 223.59 196.78 223.25 196.49C222.91 196.2 222.46 196.08 222.05 196.13C221.21 196.23 220.67 196.98 220.68 197.69C220.67 198.4 221.21 199.15 222.05 199.25C222.46 199.3 222.91 199.18 223.25 198.89C223.59 198.6 223.79 198.15 223.8 197.69Z" fill="black"/>
<path opacity="0.1" d="M221.649 210.63C221.669 211.54 220.939 212.47 219.899 212.56C219.399 212.61 218.849 212.45 218.439 212.09C218.029 211.73 217.779 211.18 217.779 210.63C217.779 210.07 218.029 209.52 218.439 209.17C218.849 208.81 219.399 208.65 219.899 208.7C220.939 208.79 221.659 209.73 221.649 210.63ZM221.649 210.63C221.649 210.17 221.439 209.72 221.099 209.43C220.759 209.14 220.309 209.02 219.899 209.07C219.059 209.17 218.519 209.92 218.529 210.63C218.519 211.34 219.059 212.09 219.899 212.19C220.309 212.24 220.759 212.12 221.099 211.83C221.439 211.54 221.639 211.09 221.649 210.63Z" fill="black"/>
<path opacity="0.1" d="M228.97 231.27C228.99 232.18 228.26 233.11 227.22 233.2C226.72 233.25 226.17 233.09 225.76 232.73C225.35 232.37 225.1 231.82 225.1 231.27C225.1 230.71 225.35 230.16 225.76 229.81C226.17 229.45 226.72 229.29 227.22 229.34C228.26 229.43 228.98 230.37 228.97 231.27ZM228.97 231.27C228.97 230.81 228.76 230.36 228.42 230.07C228.08 229.78 227.63 229.66 227.22 229.71C226.38 229.81 225.84 230.56 225.85 231.27C225.84 231.98 226.38 232.73 227.22 232.83C227.63 232.88 228.08 232.76 228.42 232.47C228.76 232.18 228.96 231.73 228.97 231.27Z" fill="black"/>
<path opacity="0.1" d="M241.188 234.25C241.208 235.16 240.478 236.09 239.438 236.18C238.938 236.23 238.388 236.07 237.978 235.71C237.568 235.35 237.318 234.8 237.318 234.25C237.318 233.69 237.568 233.14 237.978 232.79C238.388 232.43 238.938 232.27 239.438 232.32C240.478 232.41 241.198 233.35 241.188 234.25ZM241.188 234.25C241.188 233.79 240.978 233.34 240.638 233.05C240.298 232.76 239.848 232.64 239.438 232.69C238.598 232.79 238.058 233.54 238.068 234.25C238.058 234.96 238.598 235.71 239.438 235.81C239.848 235.86 240.298 235.74 240.638 235.45C240.978 235.16 241.178 234.71 241.188 234.25Z" fill="black"/>
<path opacity="0.1" d="M253.399 237.23C253.419 238.14 252.689 239.07 251.649 239.16C251.149 239.21 250.599 239.05 250.189 238.69C249.779 238.33 249.529 237.78 249.529 237.23C249.529 236.67 249.779 236.12 250.189 235.77C250.599 235.41 251.149 235.25 251.649 235.3C252.689 235.39 253.409 236.33 253.399 237.23ZM253.399 237.23C253.399 236.77 253.189 236.32 252.849 236.03C252.509 235.74 252.059 235.62 251.649 235.67C250.809 235.77 250.269 236.52 250.279 237.23C250.269 237.94 250.809 238.69 251.649 238.79C252.059 238.84 252.509 238.72 252.849 238.43C253.189 238.14 253.389 237.69 253.399 237.23Z" fill="black"/>
<path opacity="0.1" d="M265.608 240.2C265.628 241.11 264.898 242.04 263.858 242.13C263.358 242.18 262.808 242.02 262.398 241.66C261.988 241.3 261.738 240.75 261.738 240.2C261.738 239.64 261.988 239.09 262.398 238.74C262.808 238.38 263.358 238.22 263.858 238.27C264.898 238.36 265.618 239.3 265.608 240.2ZM265.608 240.2C265.608 239.74 265.398 239.29 265.058 239C264.718 238.71 264.268 238.59 263.858 238.64C263.018 238.74 262.478 239.49 262.488 240.2C262.478 240.91 263.018 241.66 263.858 241.76C264.268 241.81 264.718 241.69 265.058 241.4C265.398 241.11 265.598 240.66 265.608 240.2Z" fill="black"/>
<path opacity="0.1" d="M277.82 243.32C277.77 244.23 276.97 245.1 275.93 245.11C275.42 245.11 274.89 244.92 274.51 244.53C274.13 244.14 273.93 243.58 273.97 243.02C274.02 242.47 274.3 241.94 274.74 241.61C275.18 241.28 275.74 241.17 276.24 241.25C277.27 241.42 277.92 242.41 277.83 243.31L277.82 243.32ZM277.82 243.32C277.85 242.86 277.68 242.4 277.37 242.08C277.05 241.77 276.61 241.61 276.2 241.63C275.36 241.66 274.76 242.37 274.71 243.08C274.64 243.78 275.13 244.58 275.96 244.74C276.36 244.82 276.82 244.74 277.18 244.47C277.54 244.21 277.78 243.77 277.82 243.32Z" fill="black"/>
<path opacity="0.1" d="M219.499 223.57C219.519 224.48 218.789 225.41 217.749 225.5C217.249 225.55 216.699 225.39 216.289 225.03C215.879 224.67 215.629 224.12 215.629 223.57C215.629 223.01 215.879 222.46 216.289 222.11C216.699 221.75 217.249 221.59 217.749 221.64C218.789 221.73 219.509 222.67 219.499 223.57ZM219.499 223.57C219.499 223.11 219.289 222.66 218.949 222.37C218.609 222.08 218.159 221.96 217.749 222.01C216.909 222.11 216.369 222.86 216.379 223.57C216.369 224.28 216.909 225.03 217.749 225.13C218.159 225.18 218.609 225.06 218.949 224.77C219.289 224.48 219.489 224.03 219.499 223.57Z" fill="black"/>
<path opacity="0.2" d="M198.935 245.008C210.529 234.584 211.477 216.735 201.053 205.141C190.628 193.548 172.779 192.6 161.186 203.024C149.592 213.448 148.644 231.298 159.068 242.891C169.493 254.485 187.342 255.433 198.935 245.008Z" fill="black"/>
<path d="M201.226 232.013C205.651 220.318 199.759 207.251 188.065 202.825C176.371 198.399 163.303 204.291 158.877 215.985C154.451 227.679 160.343 240.747 172.038 245.173C183.732 249.599 196.8 243.707 201.226 232.013Z" fill="#0A2D49"/>
<path d="M178.695 215.696L173.404 214.839L172.547 220.131L177.838 220.987L178.695 215.696Z" fill="#23DABB"/>
<path d="M174.266 209.547L168.975 208.69L168.118 213.981L173.409 214.838L174.266 209.547Z" fill="#23DABB"/>
<path d="M195.434 212.978L190.143 212.121L189.286 217.412L194.577 218.269L195.434 212.978Z" fill="#23DABB"/>
<path d="M170.854 230.601L165.562 229.744L164.706 235.035L169.997 235.892L170.854 230.601Z" fill="#23DABB"/>
<path d="M192.022 234.032L186.73 233.175L185.874 238.466L191.165 239.323L192.022 234.032Z" fill="#23DABB"/>
<path d="M177.002 226.172L171.711 225.315L170.854 230.606L176.145 231.463L177.002 226.172Z" fill="#23DABB"/>
<path d="M183.143 221.79L177.852 220.933L176.995 226.224L182.286 227.081L183.143 221.79Z" fill="#23DABB"/>
<path d="M189.283 217.417L183.992 216.56L183.135 221.852L188.426 222.708L189.283 217.417Z" fill="#23DABB"/>
<path d="M187.592 227.871L182.301 227.014L181.444 232.305L186.735 233.162L187.592 227.871Z" fill="#23DABB"/>
<path d="M277.654 253.721C287.535 241.661 285.769 223.875 273.71 213.993C261.65 204.112 243.863 205.878 233.982 217.938C224.1 229.997 225.866 247.784 237.926 257.666C249.986 267.547 267.773 265.781 277.654 253.721Z" fill="#23DABB"/>
<path opacity="0.2" d="M277.654 253.721C287.535 241.661 285.769 223.875 273.71 213.993C261.65 204.112 243.863 205.878 233.982 217.938C224.1 229.997 225.866 247.784 237.926 257.666C249.986 267.547 267.773 265.781 277.654 253.721Z" fill="black"/>
<path opacity="0.2" d="M283.29 242.38C283.16 242.94 283.01 243.47 282.85 244.01L227.82 232.27C227.95 231.29 228.13 230.31 228.36 229.31C231.96 214.14 247.18 204.77 262.36 208.37C277.53 211.97 286.9 227.19 283.3 242.37L283.29 242.38Z" fill="black"/>
<path d="M264.558 256.712C276.094 251.89 281.538 238.63 276.717 227.093C271.896 215.556 258.635 210.112 247.098 214.933C235.561 219.754 230.117 233.015 234.939 244.552C239.76 256.089 253.021 261.533 264.558 256.712Z" fill="#0A2D49"/>
<path d="M261.504 223.485L256.289 222.245L250.117 248.212L255.332 249.451L261.504 223.485Z" fill="#23DABB"/>
<path d="M284.921 241.85L227.121 228.11C230.911 212.15 246.931 202.29 262.891 206.08C278.851 209.87 288.721 225.88 284.921 241.84V241.85Z" fill="#23DABB"/>
<path opacity="0.2" d="M284.921 241.85L227.121 228.11C230.911 212.15 246.931 202.29 262.891 206.08C278.851 209.87 288.721 225.88 284.921 241.84V241.85Z" fill="black"/>
<path opacity="0.1" d="M206.699 252.63C206.849 250.37 207.679 248.08 209.309 246.27C210.119 245.36 211.189 244.64 212.379 244.21C213.569 243.77 214.859 243.69 216.079 243.8C217.319 243.95 218.589 244.38 219.629 245.17C220.649 245.97 221.419 247.01 221.879 248.14C222.819 250.38 222.929 252.77 222.469 254.99C222.089 252.77 221.519 250.62 220.479 248.85C219.449 247.07 217.809 245.96 215.869 245.79C213.879 245.54 211.949 246.08 210.389 247.39C208.829 248.71 207.639 250.59 206.709 252.63H206.699Z" fill="black"/>
<path d="M150.34 195.05C150.57 192.03 150.91 189.03 151.2 186.02C151.52 183.02 151.85 180.01 152.22 177.02C152.57 174.02 152.96 171.03 153.34 168.03C153.72 165.03 154.15 162.05 154.55 159.05L154.66 158.25L155.47 158.3C161.98 158.71 168.48 159.24 174.97 159.9C178.22 160.23 181.46 160.61 184.69 161.03C187.92 161.49 191.16 161.92 194.37 162.51L174.85 161.3L155.35 160.04L156.27 159.29C155.83 162.28 155.42 165.27 154.95 168.25C154.49 171.23 154.03 174.22 153.54 177.2C153.06 180.18 152.55 183.16 152.02 186.13C151.46 189.1 150.95 192.08 150.34 195.04V195.05Z" fill="white"/>
<path d="M155.039 217.86C155.699 214.23 157.339 210.78 159.559 207.77C160.109 207.01 160.739 206.31 161.339 205.59C161.989 204.92 162.669 204.26 163.339 203.6C164.069 203.01 164.809 202.42 165.559 201.85C166.359 201.34 167.139 200.82 167.949 200.33C168.799 199.92 169.649 199.5 170.509 199.11L173.189 198.18L175.969 197.61C176.899 197.47 177.849 197.45 178.779 197.37C182.539 197.27 186.249 198.08 189.649 199.45C186.029 198.77 182.419 198.4 178.869 198.74C175.319 199.07 171.879 200.13 168.799 201.87C165.689 203.56 162.949 205.9 160.619 208.62C158.309 211.35 156.389 214.44 155.029 217.86H155.039Z" fill="white"/>
<path d="M232.91 225.49C234.06 221.99 236.17 218.79 238.78 216.12C239.43 215.45 240.15 214.84 240.84 214.21C241.58 213.63 242.34 213.08 243.1 212.52C243.91 212.03 244.72 211.55 245.54 211.09C246.4 210.7 247.25 210.29 248.12 209.92C249.02 209.63 249.92 209.33 250.83 209.06L253.61 208.51L256.44 208.33C257.38 208.33 258.32 208.43 259.26 208.49C263 208.91 266.56 210.22 269.74 212.05C266.25 210.88 262.73 210.01 259.16 209.85C255.6 209.69 252.04 210.26 248.75 211.56C245.44 212.81 242.39 214.75 239.72 217.11C237.05 219.49 234.73 222.29 232.91 225.49Z" fill="white"/>
<path d="M145.771 315.96C138.541 315.96 122.711 314.33 112.521 301.24C99.491 284.48 104.201 252.33 104.401 250.96L110.061 251.82C110.011 252.13 105.521 282.91 117.041 297.72C128.301 312.2 148.731 310.12 148.941 310.1L149.581 315.79C149.361 315.82 147.961 315.96 145.771 315.96Z" fill="#23DABB"/>
<path opacity="0.4" d="M145.771 315.96C138.541 315.96 122.711 314.33 112.521 301.24C99.491 284.48 104.201 252.33 104.401 250.96L110.061 251.82C110.011 252.13 105.521 282.91 117.041 297.72C128.301 312.2 148.731 310.12 148.941 310.1L149.581 315.79C149.361 315.82 147.961 315.96 145.771 315.96Z" fill="white"/>
<path d="M111.72 255.71C110.69 255.71 109.63 255.62 108.56 255.45C99.0101 253.9 94.7901 248.19 92.9201 243.67C91.0501 239.14 90.6201 233.66 91.6401 227.38L103.75 229.34C103.12 233.23 103.3 236.65 104.27 238.99C104.96 240.65 106.29 242.65 110.53 243.34C112.47 243.65 114.56 243.49 116.76 240.18C118.45 237.63 119.47 234.15 119.83 231.95L131.94 233.91C131.66 235.64 130.47 241.7 126.99 246.96C123.2 252.68 117.86 255.71 111.74 255.71H111.72Z" fill="#23DABB"/>
<path d="M157.73 332.34C157.71 332.08 147.47 330.44 147.47 330.44L142.5 297.03L154.9 292.13L157.73 332.33V332.34Z" fill="#23DABB"/>
<path opacity="0.2" d="M157.73 332.34C157.71 332.08 147.47 330.44 147.47 330.44L142.5 297.03L154.9 292.13L157.73 332.33V332.34Z" fill="black"/>
<path d="M258.92 332.4C258.95 332.14 269.22 330.73 269.22 330.73L274.93 297.44L262.64 292.27L258.92 332.4Z" fill="#23DABB"/>
<path opacity="0.2" d="M258.92 332.4C258.95 332.14 269.22 330.73 269.22 330.73L274.93 297.44L262.64 292.27L258.92 332.4Z" fill="black"/>
<path d="M153.47 284.66C153.47 284.66 236.26 281.12 264.22 285.78C264.22 285.78 256.01 365.89 255.56 367.44C255.56 367.44 173.21 367.22 160.34 367.44C160.34 367.44 153.36 314.17 153.47 284.66Z" fill="#23DABB"/>
<path opacity="0.2" d="M178.609 306.61C178.609 306.61 223.799 304.83 239.069 307.18C239.069 307.18 234.589 347.57 234.339 348.36C234.339 348.36 189.379 348.25 182.359 348.36C182.359 348.36 179.269 320.71 178.609 306.62V306.61Z" fill="black"/>
<path opacity="0.2" d="M184.789 348.34C183.759 348.34 182.929 348.35 182.359 348.36C182.359 348.36 179.279 320.71 178.609 306.61C178.609 306.61 179.639 306.57 181.429 306.51L184.789 348.34Z" fill="black"/>
<path d="M198.12 316.58C195.59 315.78 192.89 317.19 192.09 319.72C191.29 322.26 192.7 324.95 195.23 325.75C197.76 326.55 200.46 325.14 201.25 322.61C202.05 320.08 200.64 317.38 198.11 316.58H198.12ZM200.7 322.43C200 324.66 197.63 325.89 195.41 325.19C193.19 324.49 191.95 322.12 192.65 319.89C193.35 317.67 195.72 316.43 197.95 317.13C200.17 317.83 201.4 320.2 200.7 322.42V322.43ZM198.12 316.58C195.59 315.78 192.89 317.19 192.09 319.72C191.29 322.26 192.7 324.95 195.23 325.75C197.76 326.55 200.46 325.14 201.25 322.61C202.05 320.08 200.64 317.38 198.11 316.58H198.12ZM200.7 322.43C200 324.66 197.63 325.89 195.41 325.19C193.19 324.49 191.95 322.12 192.65 319.89C193.35 317.67 195.72 316.43 197.95 317.13C200.17 317.83 201.4 320.2 200.7 322.42V322.43ZM198.12 316.58C195.59 315.78 192.89 317.19 192.09 319.72C191.29 322.26 192.7 324.95 195.23 325.75C197.76 326.55 200.46 325.14 201.25 322.61C202.05 320.08 200.64 317.38 198.11 316.58H198.12ZM200.7 322.43C200 324.66 197.63 325.89 195.41 325.19C193.19 324.49 191.95 322.12 192.65 319.89C193.35 317.67 195.72 316.43 197.95 317.13C200.17 317.83 201.4 320.2 200.7 322.42V322.43ZM199.72 311.5C194.38 309.82 188.69 312.79 187.01 318.12C185.33 323.46 188.29 329.15 193.63 330.83C198.96 332.51 204.65 329.55 206.34 324.21C208.02 318.88 205.06 313.18 199.73 311.5H199.72ZM201.97 322.83C201.05 325.75 197.93 327.38 195 326.46C192.08 325.54 190.45 322.42 191.37 319.49C192.29 316.57 195.42 314.94 198.34 315.86C201.26 316.78 202.89 319.9 201.97 322.82V322.83ZM201.26 322.61C202.06 320.08 200.65 317.38 198.12 316.58C195.59 315.78 192.89 317.19 192.09 319.72C191.29 322.26 192.7 324.95 195.23 325.75C197.76 326.55 200.46 325.14 201.25 322.61H201.26ZM200.7 322.43C200 324.66 197.63 325.89 195.41 325.19C193.19 324.49 191.95 322.12 192.65 319.89C193.35 317.67 195.72 316.43 197.95 317.13C200.17 317.83 201.4 320.2 200.7 322.42V322.43ZM198.12 316.58C195.59 315.78 192.89 317.19 192.09 319.72C191.29 322.26 192.7 324.95 195.23 325.75C197.76 326.55 200.46 325.14 201.25 322.61C202.05 320.08 200.64 317.38 198.11 316.58H198.12ZM200.7 322.43C200 324.66 197.63 325.89 195.41 325.19C193.19 324.49 191.95 322.12 192.65 319.89C193.35 317.67 195.72 316.43 197.95 317.13C200.17 317.83 201.4 320.2 200.7 322.42V322.43ZM198.12 316.58C195.59 315.78 192.89 317.19 192.09 319.72C191.29 322.26 192.7 324.95 195.23 325.75C197.76 326.55 200.46 325.14 201.25 322.61C202.05 320.08 200.64 317.38 198.11 316.58H198.12ZM200.7 322.43C200 324.66 197.63 325.89 195.41 325.19C193.19 324.49 191.95 322.12 192.65 319.89C193.35 317.67 195.72 316.43 197.95 317.13C200.17 317.83 201.4 320.2 200.7 322.42V322.43Z" fill="#23DABB"/>
<path d="M195.609 331.01L191.899 329.84L191.279 332.53L194.579 333.58L195.609 331.01Z" fill="#23DABB"/>
<path d="M188.939 327.53L187.139 324.08L184.789 325.54L186.389 328.61L188.939 327.53Z" fill="#23DABB"/>
<path d="M186.679 320.35L187.849 316.63L185.149 316.01L184.109 319.31L186.679 320.35Z" fill="#23DABB"/>
<path d="M190.16 313.67L193.61 311.87L192.15 309.53L189.07 311.13L190.16 313.67Z" fill="#23DABB"/>
<path d="M197.34 311.41L201.05 312.58L201.68 309.89L198.37 308.84L197.34 311.41Z" fill="#23DABB"/>
<path d="M204.02 314.89L205.82 318.35L208.16 316.88L206.56 313.81L204.02 314.89Z" fill="#23DABB"/>
<path d="M206.279 322.07L205.109 325.79L207.799 326.41L208.839 323.11L206.279 322.07Z" fill="#23DABB"/>
<path d="M202.8 328.75L199.34 330.55L200.81 332.9L203.88 331.3L202.8 328.75Z" fill="#23DABB"/>
<path d="M214.46 330.72C212.96 329.74 210.96 330.17 209.98 331.67C209 333.17 209.43 335.17 210.93 336.15C212.43 337.13 214.43 336.7 215.41 335.2C216.38 333.7 215.96 331.7 214.47 330.72H214.46ZM215.07 334.98C214.21 336.3 212.45 336.67 211.14 335.81C209.82 334.95 209.45 333.19 210.31 331.88C211.17 330.56 212.93 330.19 214.24 331.05C215.55 331.91 215.93 333.66 215.07 334.98ZM214.46 330.72C212.96 329.74 210.96 330.17 209.98 331.67C209 333.17 209.43 335.17 210.93 336.15C212.43 337.13 214.43 336.7 215.41 335.2C216.38 333.7 215.96 331.7 214.47 330.72H214.46ZM215.07 334.98C214.21 336.3 212.45 336.67 211.14 335.81C209.82 334.95 209.45 333.19 210.31 331.88C211.17 330.56 212.93 330.19 214.24 331.05C215.55 331.91 215.93 333.66 215.07 334.98ZM214.46 330.72C212.96 329.74 210.96 330.17 209.98 331.67C209 333.17 209.43 335.17 210.93 336.15C212.43 337.13 214.43 336.7 215.41 335.2C216.38 333.7 215.96 331.7 214.47 330.72H214.46ZM215.07 334.98C214.21 336.3 212.45 336.67 211.14 335.81C209.82 334.95 209.45 333.19 210.31 331.88C211.17 330.56 212.93 330.19 214.24 331.05C215.55 331.91 215.93 333.66 215.07 334.98ZM216.41 327.71C213.25 325.65 209.03 326.55 206.97 329.7C204.92 332.86 205.81 337.08 208.96 339.14C212.12 341.19 216.34 340.3 218.4 337.14C220.46 333.99 219.56 329.76 216.41 327.7V327.71ZM215.82 335.47C214.69 337.2 212.37 337.69 210.65 336.56C208.92 335.44 208.43 333.11 209.56 331.39C210.69 329.66 213.01 329.17 214.73 330.3C216.46 331.42 216.95 333.74 215.82 335.47ZM215.4 335.2C216.37 333.7 215.95 331.7 214.46 330.72C212.96 329.74 210.96 330.17 209.98 331.67C209 333.17 209.43 335.17 210.93 336.15C212.43 337.13 214.43 336.7 215.41 335.2H215.4ZM215.07 334.98C214.21 336.3 212.45 336.67 211.14 335.81C209.82 334.95 209.45 333.19 210.31 331.88C211.17 330.56 212.93 330.19 214.24 331.05C215.55 331.91 215.93 333.66 215.07 334.98ZM214.46 330.72C212.96 329.74 210.96 330.17 209.98 331.67C209 333.17 209.43 335.17 210.93 336.15C212.43 337.13 214.43 336.7 215.41 335.2C216.38 333.7 215.96 331.7 214.47 330.72H214.46ZM215.07 334.98C214.21 336.3 212.45 336.67 211.14 335.81C209.82 334.95 209.45 333.19 210.31 331.88C211.17 330.56 212.93 330.19 214.24 331.05C215.55 331.91 215.93 333.66 215.07 334.98ZM214.46 330.72C212.96 329.74 210.96 330.17 209.98 331.67C209 333.17 209.43 335.17 210.93 336.15C212.43 337.13 214.43 336.7 215.41 335.2C216.38 333.7 215.96 331.7 214.47 330.72H214.46ZM215.07 334.98C214.21 336.3 212.45 336.67 211.14 335.81C209.82 334.95 209.45 333.19 210.31 331.88C211.17 330.56 212.93 330.19 214.24 331.05C215.55 331.91 215.93 333.66 215.07 334.98Z" fill="#32B8BA"/>
<path d="M210.229 339.62L208.029 338.19L207.139 339.83L209.089 341.1L210.229 339.62Z" fill="#32B8BA"/>
<path d="M206.529 336.16L205.979 333.59L204.199 334.12L204.679 336.4L206.529 336.16Z" fill="#32B8BA"/>
<path d="M206.359 331.09L207.789 328.89L206.149 328L204.879 329.96L206.359 331.09Z" fill="#32B8BA"/>
<path d="M209.82 327.39L212.39 326.85L211.86 325.06L209.58 325.55L209.82 327.39Z" fill="#32B8BA"/>
<path d="M214.889 327.22L217.089 328.66L217.979 327.02L216.019 325.75L214.889 327.22Z" fill="#32B8BA"/>
<path d="M218.59 330.69L219.13 333.25L220.92 332.73L220.44 330.45L218.59 330.69Z" fill="#32B8BA"/>
<path d="M218.76 335.76L217.33 337.95L218.96 338.84L220.23 336.89L218.76 335.76Z" fill="#32B8BA"/>
<path d="M215.289 339.46L212.729 340L213.249 341.79L215.529 341.3L215.289 339.46Z" fill="#32B8BA"/>
<path d="M262.219 358.12L265.399 358.71L274.499 297.08L270.879 296.42L262.219 358.12Z" fill="#23DABB"/>
<path d="M234.35 348.35L239.08 307.17L270.88 296.41C270.88 296.41 262.22 358.78 262.22 358.11L234.35 348.34V348.35Z" fill="#23DABB"/>
<path opacity="0.4" d="M234.35 348.35L239.08 307.17L270.88 296.41C270.88 296.41 262.22 358.78 262.22 358.11L234.35 348.34V348.35Z" fill="white"/>
<path d="M157.27 308.84C156.75 305.43 156.47 301.99 156.26 298.55C156.16 296.83 156.12 295.1 156.08 293.38C156.05 291.66 156.02 289.93 156.07 288.21V287.76L156.52 287.74C162.84 287.4 169.15 286.99 175.47 286.71C181.79 286.4 188.11 286.11 194.43 285.92C188.13 286.49 181.82 286.98 175.51 287.43C169.2 287.92 162.89 288.28 156.58 288.71L157.03 288.23L157 293.38L157.06 298.53C157.06 300.25 157.1 301.97 157.15 303.69L157.26 308.85L157.27 308.84Z" fill="white"/>
<path d="M243.51 307.78C245.48 306.84 247.48 305.97 249.51 305.17C251.53 304.35 253.57 303.57 255.63 302.86C257.69 302.16 259.76 301.47 261.87 300.88C263.97 300.29 266.09 299.74 268.26 299.39L268.79 299.3L268.69 299.81C268.19 302.48 267.67 305.14 267.05 307.79C267.28 305.08 267.61 302.39 267.96 299.7L268.4 300.12C266.3 300.62 264.22 301.21 262.14 301.82C260.06 302.44 257.99 303.09 255.93 303.77L243.51 307.79V307.78Z" fill="white"/>
<path opacity="0.1" d="M171.031 284.83L171.561 295.13L172.021 305.43L172.821 326.04L173.441 346.65L173.691 356.96L173.861 367.27L173.321 356.97L172.861 346.67L172.071 326.06L171.451 305.45L171.201 295.14L171.031 284.83Z" fill="black"/>
<path opacity="0.1" d="M168.08 291.04C168.28 291.93 167.75 292.98 166.75 293.28C166.27 293.43 165.7 293.38 165.22 293.11C164.75 292.84 164.4 292.35 164.29 291.81C164.18 291.27 164.31 290.68 164.64 290.25C164.97 289.82 165.48 289.55 165.98 289.5C167.02 289.38 167.91 290.16 168.07 291.05L168.08 291.04ZM168.08 291.04C167.99 290.59 167.7 290.19 167.31 289.97C166.92 289.75 166.45 289.73 166.07 289.85C165.27 290.11 164.88 290.96 165.03 291.65C165.16 292.35 165.84 292.98 166.68 292.91C167.09 292.88 167.51 292.67 167.78 292.32C168.06 291.97 168.17 291.49 168.08 291.04Z" fill="black"/>
<path opacity="0.1" d="M168.791 303.39C168.991 304.28 168.461 305.33 167.461 305.63C166.981 305.78 166.411 305.73 165.931 305.46C165.461 305.19 165.111 304.7 165.001 304.16C164.891 303.62 165.021 303.03 165.351 302.6C165.681 302.17 166.191 301.9 166.691 301.85C167.731 301.73 168.621 302.51 168.781 303.4L168.791 303.39ZM168.791 303.39C168.701 302.94 168.411 302.54 168.021 302.32C167.631 302.1 167.161 302.08 166.781 302.2C165.981 302.46 165.591 303.31 165.741 304C165.871 304.7 166.551 305.33 167.391 305.26C167.801 305.23 168.221 305.02 168.491 304.67C168.771 304.32 168.881 303.84 168.791 303.39Z" fill="black"/>
<path opacity="0.1" d="M169.24 316.49C169.44 317.38 168.91 318.43 167.91 318.73C167.43 318.88 166.86 318.83 166.38 318.56C165.91 318.29 165.56 317.8 165.45 317.26C165.34 316.72 165.47 316.13 165.81 315.7C166.14 315.27 166.65 315 167.15 314.95C168.19 314.83 169.08 315.61 169.24 316.5V316.49ZM169.24 316.49C169.15 316.04 168.86 315.64 168.47 315.42C168.08 315.2 167.61 315.18 167.23 315.3C166.43 315.56 166.04 316.41 166.19 317.1C166.32 317.8 167 318.43 167.84 318.36C168.25 318.33 168.67 318.12 168.94 317.77C169.22 317.42 169.33 316.94 169.24 316.49Z" fill="black"/>
<path opacity="0.1" d="M169.69 329.6C169.89 330.49 169.36 331.54 168.36 331.84C167.88 331.99 167.31 331.94 166.83 331.67C166.36 331.4 166.01 330.91 165.9 330.37C165.79 329.83 165.92 329.24 166.25 328.81C166.58 328.38 167.09 328.11 167.59 328.06C168.63 327.94 169.52 328.72 169.68 329.61L169.69 329.6ZM169.69 329.6C169.6 329.15 169.31 328.75 168.92 328.53C168.53 328.31 168.06 328.29 167.68 328.41C166.88 328.67 166.49 329.52 166.64 330.21C166.77 330.91 167.45 331.54 168.29 331.47C168.7 331.44 169.12 331.23 169.39 330.88C169.67 330.53 169.78 330.05 169.69 329.6Z" fill="black"/>
<path opacity="0.1" d="M170.141 342.71C170.341 343.6 169.811 344.65 168.811 344.95C168.331 345.1 167.761 345.05 167.281 344.78C166.811 344.51 166.461 344.02 166.351 343.48C166.241 342.94 166.371 342.35 166.701 341.92C167.031 341.49 167.541 341.22 168.041 341.17C169.081 341.05 169.971 341.83 170.131 342.72L170.141 342.71ZM170.141 342.71C170.051 342.26 169.761 341.86 169.371 341.64C168.981 341.42 168.511 341.4 168.131 341.52C167.331 341.78 166.941 342.63 167.091 343.32C167.221 344.02 167.901 344.65 168.741 344.58C169.151 344.55 169.571 344.34 169.841 343.99C170.121 343.64 170.231 343.16 170.141 342.71Z" fill="black"/>
<path opacity="0.1" d="M170.59 355.82C170.79 356.71 170.26 357.76 169.26 358.06C168.78 358.21 168.21 358.16 167.73 357.89C167.26 357.62 166.91 357.13 166.8 356.59C166.69 356.05 166.82 355.46 167.15 355.03C167.48 354.6 167.99 354.33 168.49 354.28C169.53 354.16 170.42 354.94 170.58 355.83L170.59 355.82ZM170.59 355.82C170.5 355.37 170.21 354.97 169.82 354.75C169.43 354.53 168.96 354.51 168.58 354.63C167.78 354.89 167.39 355.74 167.54 356.43C167.67 357.13 168.35 357.76 169.19 357.69C169.6 357.66 170.02 357.45 170.29 357.1C170.57 356.75 170.68 356.27 170.59 355.82Z" fill="black"/>
<path d="M174.658 375.862L127.783 390.067L129.442 395.542L176.317 381.336L174.658 375.862Z" fill="#23DABB"/>
<path opacity="0.4" d="M174.658 375.862L127.783 390.067L129.442 395.542L176.317 381.336L174.658 375.862Z" fill="white"/>
<path d="M152.18 380.802L146.729 382.535L149.304 390.635L154.755 388.902L152.18 380.802Z" fill="#23DABB"/>
<path d="M129.049 403.57L116.959 351.19L80.4492 359.85L98.4192 410.89L129.049 403.57Z" fill="#23DABB"/>
<path d="M137.149 400.91L129.049 403.57L116.959 351.19L128.609 353.96L137.149 400.91Z" fill="#23DABB"/>
<path opacity="0.2" d="M137.149 400.91L129.049 403.57L116.959 351.19L128.609 353.96L137.149 400.91Z" fill="black"/>
<path d="M175.489 384.81C178.919 384.81 181.699 382.03 181.699 378.6C181.699 375.17 178.919 372.39 175.489 372.39C172.06 372.39 169.279 375.17 169.279 378.6C169.279 382.03 172.06 384.81 175.489 384.81Z" fill="#23DABB"/>
<path d="M239.444 375.728L237.773 381.199L284.618 395.503L286.289 390.032L239.444 375.728Z" fill="#23DABB"/>
<path opacity="0.4" d="M239.444 375.728L237.773 381.199L284.618 395.503L286.289 390.032L239.444 375.728Z" fill="white"/>
<path d="M261.889 380.67L259.295 388.764L264.742 390.51L267.336 382.416L261.889 380.67Z" fill="#23DABB"/>
<path d="M284.979 403.52L297.189 351.17L333.678 359.9L315.599 410.91L284.979 403.52Z" fill="#23DABB"/>
<path d="M276.889 400.84L284.979 403.52L297.189 351.17L285.529 353.92L276.889 400.84Z" fill="#23DABB"/>
<path opacity="0.2" d="M276.889 400.84L284.979 403.52L297.189 351.17L285.529 353.92L276.889 400.84Z" fill="black"/>
<path d="M232.389 378.44C232.389 381.87 235.159 384.66 238.589 384.67C242.019 384.67 244.809 381.9 244.819 378.47C244.819 375.04 242.049 372.25 238.619 372.24C235.189 372.24 232.399 375.01 232.389 378.44Z" fill="#23DABB"/>
<path d="M279.29 313.84C279.44 313.7 294.49 299.74 312.2 304.51C330.31 309.4 345.27 336.68 345.41 336.95L350.44 334.23C349.79 333.02 334.19 304.51 313.68 298.98C292.82 293.36 276.04 309.01 275.33 309.68L279.27 313.83L279.29 313.84Z" fill="#23DABB"/>
<path opacity="0.4" d="M279.29 313.84C279.44 313.7 294.49 299.74 312.2 304.51C330.31 309.4 345.27 336.68 345.41 336.95L350.44 334.23C349.79 333.02 334.19 304.51 313.68 298.98C292.82 293.36 276.04 309.01 275.33 309.68L279.27 313.83L279.29 313.84Z" fill="white"/>
<path d="M338.739 364.42L349.589 358.69C348.549 356.72 347.269 353.33 347.079 350.27C346.839 346.31 348.409 344.91 350.149 344C353.949 341.99 356.219 342.79 357.769 343.7C359.939 344.98 362.149 347.61 363.989 351.09L374.839 345.36C371.869 339.74 368.229 335.62 364.009 333.13C359.799 330.65 352.989 328.63 344.429 333.15C337.759 336.67 334.359 343.01 334.849 351.01C335.229 357.31 337.939 362.86 338.749 364.41L338.739 364.42Z" fill="#23DABB"/>
<path d="M281.58 294.73C283.93 293.11 286.34 291.58 288.75 290.06C291.16 288.53 293.61 287.08 296.06 285.62C298.52 284.18 300.98 282.75 303.48 281.38L307.23 279.33C308.5 278.68 309.75 278 311.04 277.37C309.87 278.19 308.67 278.96 307.48 279.75L303.87 282.04C301.46 283.56 299.01 285.02 296.56 286.48C294.1 287.92 291.64 289.35 289.13 290.72C286.63 292.1 284.13 293.46 281.57 294.73H281.58Z" fill="#397D80"/>
<path d="M275.35 318.13C278.72 320.05 281.91 322.21 285.05 324.44C288.18 326.69 291.27 329 294.17 331.56C290.8 329.64 287.61 327.48 284.47 325.25C281.34 323 278.26 320.69 275.35 318.13Z" fill="#397D80"/>
<path d="M280.879 315.25C283.479 316.04 286.039 316.93 288.589 317.84C291.149 318.74 293.669 319.71 296.199 320.68C298.719 321.67 301.239 322.67 303.729 323.73L307.459 325.33C308.689 325.9 309.939 326.43 311.159 327.03C309.859 326.64 308.579 326.2 307.289 325.79L303.459 324.45C300.899 323.55 298.379 322.58 295.849 321.61C293.329 320.62 290.809 319.62 288.319 318.56C285.829 317.5 283.339 316.43 280.889 315.26L280.879 315.25Z" fill="#397D80"/>
<path d="M288.26 296.92C290.75 296.27 293.26 295.73 295.77 295.21C298.28 294.68 300.8 294.22 303.33 293.76C305.86 293.33 308.39 292.9 310.93 292.54L314.74 292.01C316.02 291.87 317.29 291.7 318.57 291.59C317.33 291.92 316.07 292.19 314.82 292.5L311.06 293.3C308.55 293.83 306.03 294.29 303.5 294.75C300.97 295.18 298.44 295.61 295.9 295.97C293.36 296.34 290.82 296.68 288.26 296.92Z" fill="#397D80"/>
<path d="M228.25 312.49C229.65 306.59 232.67 300.11 238.56 297.58C242.66 295.95 247.72 297.98 249.38 302.11C250.37 304.49 251.05 308.03 248.75 309.9C246.74 311.16 245.35 309.03 244.97 307.29C243.23 299.43 245.67 289.28 252.43 284.41C259.67 279.51 269.68 282.11 275.36 288.23C276.82 289.7 278.15 291.31 279.22 293.08C273.52 284.6 262.27 278.98 252.93 285.12C246.49 289.86 244.36 299.49 245.89 307.04C246.22 308.12 246.64 309.46 247.72 309.32C249.36 308.93 249.44 306.74 249.34 305.3C248.96 300.07 243.82 296.32 238.77 298.16C233.02 300.52 229.92 306.77 228.25 312.48V312.49Z" fill="#0A2D49"/>
<path d="M135.84 338.41C139.85 330.87 150.9 327.73 157.07 334.54C159.97 337.62 161.68 341.84 161.45 346.1C161.34 348.61 159.66 350.97 156.88 349.59C154.69 348.37 155.14 345.36 155.8 343.4C157.19 339.39 160 336.02 163.39 333.54C172.82 326.59 185.09 330.85 189.07 341.66C189.85 343.57 190.42 345.57 190.7 347.61C189.19 339.77 183.74 331.72 175.21 331.06C167.09 330.16 159.42 336.32 156.73 343.71C156.21 345.29 155.68 347.79 157.32 348.77C158.02 349.13 159.04 349.24 159.62 348.59C161.34 346.27 160.48 342.77 159.6 340.19C155.37 328.76 142.15 328.82 135.84 338.42V338.41Z" fill="#0A2D49"/>
<path d="M89.5788 96.91C89.3188 90.97 87.7987 84.16 82.7787 80.49C78.3087 77.49 72.4287 79.92 70.8187 84.9C70.3787 86.27 69.9388 88.42 71.4388 89.19C72.4588 89.58 73.1888 88.38 73.7588 87.41C77.0387 80.44 77.2687 70.59 72.1488 64.45C64.5387 56.26 52.2688 59.03 44.7188 65.91C46.1788 64.44 47.8487 63.2 49.6187 62.12C56.5987 57.54 66.9288 57.4 72.7988 63.88C78.2088 70.27 78.1487 80.61 74.5887 87.88C73.7987 89.46 71.9488 91.22 70.2988 89.51C68.5188 87.14 70.0088 83.87 71.5488 81.79C74.1388 78.17 79.5487 77.41 83.1287 79.97C88.2487 83.83 89.6188 90.85 89.5788 96.91Z" fill="#0A2D49"/>
<path d="M310.4 149.08C304.56 147.95 297.58 147.84 292.85 151.86C288.89 155.51 289.88 161.79 294.35 164.52C295.58 165.26 297.56 166.2 298.66 164.92C299.28 164.02 298.28 163.03 297.47 162.24C291.46 157.42 281.93 154.9 274.77 158.44C265.04 163.9 264.86 176.53 269.79 185.45C268.71 183.69 267.88 181.77 267.25 179.8C264.42 171.95 266.7 161.86 274.37 157.67C281.85 153.9 291.89 156.37 298.13 161.53C299.48 162.66 300.76 164.87 298.71 166.09C295.99 167.27 293.16 165.05 291.5 163.07C288.58 159.71 289.11 154.27 292.44 151.38C297.39 147.3 304.53 147.6 310.42 149.06L310.4 149.08Z" fill="#0A2D49"/>
<path d="M248.489 84.38C245.689 74.54 252.439 62.73 263.429 63.37C268.459 63.58 273.439 65.76 276.789 69.58C278.759 71.78 279.309 75.13 275.839 76.25C272.989 77.01 270.909 74.1 269.839 71.9C267.689 67.32 267.259 62.1 268.089 57.16C270.389 43.32 284.289 36.77 296.779 42.62C299.049 43.6 301.219 44.82 303.169 46.32C299.109 43.57 294.439 41.6 289.579 41.12C279.619 39.82 270.339 47.5 268.989 57.31C268.149 63.07 268.739 69.85 272.689 74.35C273.499 75.14 274.569 75.66 275.569 75.34C276.509 75.05 277.499 74.25 277.459 73.17C276.979 69.69 273.299 67.41 270.349 65.91C257.029 59.68 245.819 70.76 248.479 84.37L248.489 84.38Z" fill="#0A2D49"/>
<path d="M132.5 338.63C130.26 337.92 127.87 339.17 127.17 341.41C126.46 343.65 127.71 346.04 129.95 346.74C132.19 347.45 134.57 346.2 135.28 343.96C135.99 341.72 134.74 339.33 132.51 338.63H132.5ZM134.78 343.81C134.16 345.78 132.06 346.87 130.1 346.25C128.13 345.63 127.04 343.53 127.66 341.57C128.28 339.6 130.38 338.51 132.34 339.13C134.3 339.75 135.4 341.84 134.78 343.81ZM132.5 338.63C130.26 337.92 127.87 339.17 127.17 341.41C126.46 343.65 127.71 346.04 129.95 346.74C132.19 347.45 134.57 346.2 135.28 343.96C135.99 341.72 134.74 339.33 132.51 338.63H132.5ZM134.78 343.81C134.16 345.78 132.06 346.87 130.1 346.25C128.13 345.63 127.04 343.53 127.66 341.57C128.28 339.6 130.38 338.51 132.34 339.13C134.3 339.75 135.4 341.84 134.78 343.81ZM132.5 338.63C130.26 337.92 127.87 339.17 127.17 341.41C126.46 343.65 127.71 346.04 129.95 346.74C132.19 347.45 134.57 346.2 135.28 343.96C135.99 341.72 134.74 339.33 132.51 338.63H132.5ZM134.78 343.81C134.16 345.78 132.06 346.87 130.1 346.25C128.13 345.63 127.04 343.53 127.66 341.57C128.28 339.6 130.38 338.51 132.34 339.13C134.3 339.75 135.4 341.84 134.78 343.81ZM133.92 334.14C129.2 332.65 124.16 335.28 122.68 339.99C121.19 344.71 123.81 349.74 128.54 351.23C133.26 352.72 138.29 350.09 139.78 345.37C141.27 340.65 138.65 335.62 133.93 334.13L133.92 334.14ZM135.91 344.16C135.1 346.75 132.33 348.19 129.75 347.37C127.17 346.56 125.73 343.79 126.54 341.21C127.35 338.62 130.12 337.19 132.7 338C135.28 338.81 136.72 341.58 135.91 344.16ZM135.28 343.96C135.99 341.72 134.74 339.33 132.51 338.63C130.27 337.92 127.88 339.17 127.18 341.41C126.47 343.65 127.72 346.04 129.96 346.74C132.2 347.45 134.58 346.2 135.29 343.96H135.28ZM134.79 343.8C134.17 345.77 132.07 346.86 130.11 346.24C128.14 345.62 127.05 343.52 127.67 341.56C128.29 339.59 130.39 338.5 132.35 339.12C134.31 339.74 135.41 341.83 134.79 343.8ZM132.51 338.62C130.27 337.91 127.88 339.16 127.18 341.4C126.47 343.64 127.72 346.03 129.96 346.73C132.2 347.44 134.58 346.19 135.29 343.95C136 341.71 134.75 339.32 132.52 338.62H132.51ZM134.79 343.8C134.17 345.77 132.07 346.86 130.11 346.24C128.14 345.62 127.05 343.52 127.67 341.56C128.29 339.59 130.39 338.5 132.35 339.12C134.31 339.74 135.41 341.83 134.79 343.8ZM132.51 338.62C130.27 337.91 127.88 339.16 127.18 341.4C126.47 343.64 127.72 346.03 129.96 346.73C132.2 347.44 134.58 346.19 135.29 343.95C136 341.71 134.75 339.32 132.52 338.62H132.51ZM134.79 343.8C134.17 345.77 132.07 346.86 130.11 346.24C128.14 345.62 127.05 343.52 127.67 341.56C128.29 339.59 130.39 338.5 132.35 339.12C134.31 339.74 135.41 341.83 134.79 343.8Z" fill="#0A2D49"/>
<path d="M130.279 351.39L126.999 350.36L126.439 352.74L129.369 353.66L130.279 351.39Z" fill="#0A2D49"/>
<path d="M124.379 348.32L122.779 345.26L120.709 346.55L122.119 349.27L124.379 348.32Z" fill="#0A2D49"/>
<path d="M122.379 341.96L123.409 338.67L121.029 338.12L120.109 341.05L122.379 341.96Z" fill="#0A2D49"/>
<path d="M125.45 336.05L128.51 334.46L127.22 332.39L124.5 333.8L125.45 336.05Z" fill="#0A2D49"/>
<path d="M131.809 334.05L135.099 335.09L135.649 332.71L132.719 331.79L131.809 334.05Z" fill="#0A2D49"/>
<path d="M137.719 337.13L139.309 340.19L141.379 338.89L139.969 336.18L137.719 337.13Z" fill="#0A2D49"/>
<path d="M139.72 343.49L138.68 346.77L141.06 347.33L141.98 344.4L139.72 343.49Z" fill="#0A2D49"/>
<path d="M136.64 349.39L133.58 350.99L134.88 353.06L137.59 351.65L136.64 349.39Z" fill="#0A2D49"/>
<path d="M298.3 310.05C302.81 303.98 301.54 295.4 295.46 290.89C289.38 286.38 280.8 287.65 276.3 293.72C271.79 299.8 273.06 308.38 279.14 312.89C285.21 317.4 293.79 316.13 298.3 310.05ZM292.44 305.7C290.33 308.54 286.33 309.13 283.49 307.03C280.65 304.92 280.06 300.92 282.17 298.08C284.28 295.24 288.28 294.65 291.12 296.76C293.96 298.87 294.55 302.87 292.44 305.71V305.7Z" fill="#0A2D49"/>
<path d="M281.589 314.01L277.359 310.87L275.369 314.03L279.129 316.83L281.589 314.01Z" fill="#0A2D49"/>
<path d="M274.6 306.6L273.82 301.39L270.18 302.23L270.86 306.86L274.6 306.6Z" fill="#0A2D49"/>
<path d="M274.881 296.43L278.021 292.2L274.851 290.21L272.061 293.97L274.881 296.43Z" fill="#0A2D49"/>
<path d="M282.279 289.43L287.489 288.66L286.659 285.02L282.029 285.7L282.279 289.43Z" fill="#0A2D49"/>
<path d="M292.459 289.72L296.689 292.86L298.679 289.69L294.919 286.9L292.459 289.72Z" fill="#0A2D49"/>
<path d="M299.459 297.12L300.229 302.33L303.869 301.5L303.189 296.86L299.459 297.12Z" fill="#0A2D49"/>
<path d="M299.169 307.3L296.029 311.53L299.199 313.52L301.989 309.76L299.169 307.3Z" fill="#0A2D49"/>
<path d="M291.771 314.29L286.561 315.06L287.391 318.71L292.031 318.02L291.771 314.29Z" fill="#0A2D49"/>
<path d="M282.391 302.55L285.301 306.22L289.931 305.53L291.651 301.18L288.741 297.51L284.111 298.19L282.391 302.55ZM287.911 300.67C288.571 301.16 288.711 302.09 288.221 302.75C287.731 303.41 286.801 303.55 286.141 303.06C285.481 302.57 285.341 301.64 285.831 300.98C286.321 300.32 287.251 300.18 287.911 300.67Z" fill="#0A2D49"/>
<path d="M308.57 43.31C306.61 42.69 304.52 43.78 303.9 45.74C303.28 47.7 304.37 49.79 306.33 50.41C308.29 51.03 310.38 49.94 310.99 47.98C311.61 46.02 310.52 43.93 308.56 43.31H308.57ZM310.57 47.84C310.03 49.56 308.19 50.52 306.47 49.98C304.75 49.44 303.79 47.6 304.34 45.88C304.88 44.16 306.72 43.2 308.44 43.75C310.16 44.29 311.11 46.13 310.57 47.85V47.84ZM308.57 43.31C306.61 42.69 304.52 43.78 303.9 45.74C303.28 47.7 304.37 49.79 306.33 50.41C308.29 51.03 310.38 49.94 310.99 47.98C311.61 46.02 310.52 43.93 308.56 43.31H308.57ZM310.57 47.84C310.03 49.56 308.19 50.52 306.47 49.98C304.75 49.44 303.79 47.6 304.34 45.88C304.88 44.16 306.72 43.2 308.44 43.75C310.16 44.29 311.11 46.13 310.57 47.85V47.84ZM308.57 43.31C306.61 42.69 304.52 43.78 303.9 45.74C303.28 47.7 304.37 49.79 306.33 50.41C308.29 51.03 310.38 49.94 310.99 47.98C311.61 46.02 310.52 43.93 308.56 43.31H308.57ZM310.57 47.84C310.03 49.56 308.19 50.52 306.47 49.98C304.75 49.44 303.79 47.6 304.34 45.88C304.88 44.16 306.72 43.2 308.44 43.75C310.16 44.29 311.11 46.13 310.57 47.85V47.84ZM309.81 39.38C305.68 38.08 301.27 40.37 299.97 44.5C298.67 48.63 300.96 53.04 305.09 54.34C309.22 55.64 313.62 53.35 314.93 49.22C316.23 45.09 313.94 40.68 309.81 39.38ZM311.55 48.15C310.84 50.41 308.42 51.67 306.16 50.96C303.9 50.25 302.64 47.83 303.35 45.57C304.06 43.31 306.48 42.05 308.74 42.76C311 43.47 312.26 45.89 311.55 48.15ZM311 47.98C311.62 46.02 310.53 43.93 308.57 43.31C306.61 42.69 304.52 43.78 303.9 45.74C303.28 47.7 304.37 49.79 306.33 50.41C308.29 51.03 310.38 49.94 310.99 47.98H311ZM310.57 47.84C310.03 49.56 308.19 50.52 306.47 49.98C304.75 49.44 303.79 47.6 304.34 45.88C304.88 44.16 306.72 43.2 308.44 43.75C310.16 44.29 311.11 46.13 310.57 47.85V47.84ZM308.57 43.31C306.61 42.69 304.52 43.78 303.9 45.74C303.28 47.7 304.37 49.79 306.33 50.41C308.29 51.03 310.38 49.94 310.99 47.98C311.61 46.02 310.52 43.93 308.56 43.31H308.57ZM310.57 47.84C310.03 49.56 308.19 50.52 306.47 49.98C304.75 49.44 303.79 47.6 304.34 45.88C304.88 44.16 306.72 43.2 308.44 43.75C310.16 44.29 311.11 46.13 310.57 47.85V47.84ZM308.57 43.31C306.61 42.69 304.52 43.78 303.9 45.74C303.28 47.7 304.37 49.79 306.33 50.41C308.29 51.03 310.38 49.94 310.99 47.98C311.61 46.02 310.52 43.93 308.56 43.31H308.57ZM310.57 47.84C310.03 49.56 308.19 50.52 306.47 49.98C304.75 49.44 303.79 47.6 304.34 45.88C304.88 44.16 306.72 43.2 308.44 43.75C310.16 44.29 311.11 46.13 310.57 47.85V47.84Z" fill="#0A2D49"/>
<path d="M306.63 54.48L303.75 53.57L303.27 55.66L305.83 56.46L306.63 54.48Z" fill="#0A2D49"/>
<path d="M301.458 51.78L300.068 49.11L298.248 50.24L299.488 52.62L301.458 51.78Z" fill="#0A2D49"/>
<path d="M299.709 46.22L300.619 43.35L298.529 42.87L297.719 45.42L299.709 46.22Z" fill="#0A2D49"/>
<path d="M302.398 41.05L305.078 39.66L303.938 37.85L301.568 39.08L302.398 41.05Z" fill="#0A2D49"/>
<path d="M307.959 39.3L310.839 40.21L311.319 38.12L308.759 37.32L307.959 39.3Z" fill="#0A2D49"/>
<path d="M313.129 42L314.529 44.67L316.339 43.54L315.099 41.16L313.129 42Z" fill="#0A2D49"/>
<path d="M314.879 47.56L313.979 50.43L316.059 50.92L316.868 48.36L314.879 47.56Z" fill="#0A2D49"/>
<path d="M312.188 52.73L309.508 54.12L310.648 55.94L313.028 54.7L312.188 52.73Z" fill="#0A2D49"/>
<path d="M270.349 186.17C268.389 185.55 266.299 186.64 265.679 188.6C265.059 190.56 266.149 192.65 268.109 193.27C270.069 193.89 272.159 192.8 272.769 190.84C273.389 188.88 272.299 186.79 270.339 186.17H270.349ZM272.349 190.7C271.809 192.42 269.969 193.38 268.249 192.84C266.529 192.3 265.569 190.46 266.119 188.74C266.659 187.02 268.499 186.06 270.219 186.61C271.939 187.15 272.889 188.99 272.349 190.71V190.7ZM270.349 186.17C268.389 185.55 266.299 186.64 265.679 188.6C265.059 190.56 266.149 192.65 268.109 193.27C270.069 193.89 272.159 192.8 272.769 190.84C273.389 188.88 272.299 186.79 270.339 186.17H270.349ZM272.349 190.7C271.809 192.42 269.969 193.38 268.249 192.84C266.529 192.3 265.569 190.46 266.119 188.74C266.659 187.02 268.499 186.06 270.219 186.61C271.939 187.15 272.889 188.99 272.349 190.71V190.7ZM270.349 186.17C268.389 185.55 266.299 186.64 265.679 188.6C265.059 190.56 266.149 192.65 268.109 193.27C270.069 193.89 272.159 192.8 272.769 190.84C273.389 188.88 272.299 186.79 270.339 186.17H270.349ZM272.349 190.7C271.809 192.42 269.969 193.38 268.249 192.84C266.529 192.3 265.569 190.46 266.119 188.74C266.659 187.02 268.499 186.06 270.219 186.61C271.939 187.15 272.889 188.99 272.349 190.71V190.7ZM271.589 182.24C267.459 180.94 263.049 183.23 261.749 187.36C260.449 191.49 262.739 195.9 266.869 197.2C270.999 198.5 275.399 196.21 276.709 192.08C278.009 187.95 275.719 183.54 271.589 182.24ZM273.329 191.01C272.619 193.27 270.199 194.53 267.939 193.82C265.679 193.11 264.419 190.69 265.129 188.43C265.839 186.17 268.259 184.91 270.519 185.62C272.779 186.33 274.039 188.75 273.329 191.01ZM272.779 190.84C273.399 188.88 272.309 186.79 270.349 186.17C268.389 185.55 266.299 186.64 265.679 188.6C265.059 190.56 266.149 192.65 268.109 193.27C270.069 193.89 272.159 192.8 272.769 190.84H272.779ZM272.349 190.7C271.809 192.42 269.969 193.38 268.249 192.84C266.529 192.3 265.569 190.46 266.119 188.74C266.659 187.02 268.499 186.06 270.219 186.61C271.939 187.15 272.889 188.99 272.349 190.71V190.7ZM270.349 186.17C268.389 185.55 266.299 186.64 265.679 188.6C265.059 190.56 266.149 192.65 268.109 193.27C270.069 193.89 272.159 192.8 272.769 190.84C273.389 188.88 272.299 186.79 270.339 186.17H270.349ZM272.349 190.7C271.809 192.42 269.969 193.38 268.249 192.84C266.529 192.3 265.569 190.46 266.119 188.74C266.659 187.02 268.499 186.06 270.219 186.61C271.939 187.15 272.889 188.99 272.349 190.71V190.7ZM270.349 186.17C268.389 185.55 266.299 186.64 265.679 188.6C265.059 190.56 266.149 192.65 268.109 193.27C270.069 193.89 272.159 192.8 272.769 190.84C273.389 188.88 272.299 186.79 270.339 186.17H270.349ZM272.349 190.7C271.809 192.42 269.969 193.38 268.249 192.84C266.529 192.3 265.569 190.46 266.119 188.74C266.659 187.02 268.499 186.06 270.219 186.61C271.939 187.15 272.889 188.99 272.349 190.71V190.7Z" fill="#0A2D49"/>
<path d="M268.409 197.34L265.539 196.44L265.049 198.52L267.609 199.33L268.409 197.34Z" fill="#0A2D49"/>
<path d="M263.239 194.65L261.849 191.97L260.039 193.11L261.269 195.49L263.239 194.65Z" fill="#0A2D49"/>
<path d="M261.49 189.09L262.4 186.21L260.31 185.73L259.51 188.29L261.49 189.09Z" fill="#0A2D49"/>
<path d="M264.19 183.92L266.86 182.53L265.73 180.71L263.35 181.95L264.19 183.92Z" fill="#0A2D49"/>
<path d="M269.75 182.17L272.62 183.08L273.11 180.99L270.55 180.18L269.75 182.17Z" fill="#0A2D49"/>
<path d="M274.92 184.86L276.31 187.54L278.13 186.4L276.89 184.03L274.92 184.86Z" fill="#0A2D49"/>
<path d="M276.67 190.42L275.76 193.3L277.85 193.78L278.65 191.22L276.67 190.42Z" fill="#0A2D49"/>
<path d="M273.969 195.59L271.299 196.99L272.429 198.8L274.809 197.56L273.969 195.59Z" fill="#0A2D49"/>
<path d="M51.6498 73.7C53.1898 67.37 49.3098 60.99 42.9798 59.45C36.6498 57.91 30.2698 61.79 28.7298 68.12C27.1898 74.45 31.0698 80.83 37.3998 82.37C43.7298 83.91 50.1098 80.03 51.6498 73.7ZM45.5398 72.21C44.8198 75.17 41.8398 76.98 38.8898 76.26C35.9298 75.54 34.1198 72.56 34.8398 69.6C35.5598 66.64 38.5398 64.83 41.4998 65.55C44.4598 66.27 46.2698 69.25 45.5498 72.2L45.5398 72.21Z" fill="#0A2D49"/>
<path d="M39.7091 82.43L35.3091 81.36L34.7891 84.53L38.7091 85.49L39.7091 82.43Z" fill="#0A2D49"/>
<path d="M31.6888 78.9L29.3288 75.03L26.7188 76.91L28.8088 80.35L31.6888 78.9Z" fill="#0A2D49"/>
<path d="M28.5092 70.73L29.5792 66.32L26.3992 65.81L25.4492 69.73L28.5092 70.73Z" fill="#0A2D49"/>
<path d="M32.0401 62.7L35.9101 60.35L34.0301 57.73L30.5801 59.83L32.0401 62.7Z" fill="#0A2D49"/>
<path d="M40.209 59.52L44.609 60.6L45.129 57.42L41.209 56.46L40.209 59.52Z" fill="#0A2D49"/>
<path d="M48.2285 63.05L50.5885 66.93L53.1985 65.04L51.1085 61.6L48.2285 63.05Z" fill="#0A2D49"/>
<path d="M51.4098 71.22L50.3398 75.63L53.5198 76.15L54.4698 72.23L51.4098 71.22Z" fill="#0A2D49"/>
<path d="M47.8798 79.25L44.0098 81.61L45.8898 84.22L49.3398 82.12L47.8798 79.25Z" fill="#0A2D49"/>
<path d="M36.5097 73.07L40.0497 75.01L43.4997 72.91L43.4097 68.88L39.8797 66.94L36.4297 69.03L36.5197 73.06L36.5097 73.07ZM40.2597 69.73C40.9497 69.9 41.3697 70.59 41.1997 71.27C41.0297 71.95 40.3397 72.38 39.6597 72.21C38.9797 72.04 38.5497 71.35 38.7197 70.67C38.8897 69.98 39.5797 69.56 40.2597 69.73Z" fill="#0A2D49"/>
<path d="M318.22 195.64C315.53 191.54 314.02 186.94 314.02 182.07C314.02 164.87 332.9 150.93 356.18 150.93C379.46 150.93 398.32 164.87 398.32 182.07C398.32 199.27 379.45 213.21 356.18 213.21C344.89 213.21 334.66 209.94 327.1 204.59L312.58 208.28L318.22 195.64Z" fill="#27DBBB"/>
<path d="M334.491 187.17V189.49H325.061V175.9H334.321V178.22H327.701V181.49H333.421V183.63H327.701V187.17H334.491Z" fill="white"/>
<path d="M336.551 189.48V175.89H342.561C343.181 175.89 343.761 176.02 344.291 176.28C344.821 176.54 345.281 176.89 345.661 177.31C346.041 177.74 346.341 178.22 346.561 178.76C346.781 179.3 346.891 179.85 346.891 180.4C346.891 181.28 346.671 182.08 346.231 182.8C345.791 183.52 345.191 184.04 344.441 184.36L347.541 189.47H344.571L341.801 184.92H339.201V189.47H336.561L336.551 189.48ZM339.191 182.61H342.501C342.741 182.61 342.971 182.55 343.181 182.44C343.391 182.33 343.571 182.17 343.731 181.97C343.881 181.77 344.001 181.54 344.091 181.27C344.181 181 344.221 180.71 344.221 180.41C344.221 180.11 344.171 179.8 344.071 179.53C343.971 179.26 343.831 179.03 343.661 178.83C343.491 178.63 343.291 178.48 343.071 178.37C342.851 178.26 342.621 178.21 342.391 178.21H339.191V182.61Z" fill="white"/>
<path d="M349.281 189.48V175.89H355.291C355.911 175.89 356.491 176.02 357.021 176.28C357.551 176.54 358.011 176.89 358.391 177.31C358.771 177.74 359.071 178.22 359.291 178.76C359.511 179.3 359.621 179.85 359.621 180.4C359.621 181.28 359.401 182.08 358.961 182.8C358.521 183.52 357.921 184.04 357.171 184.36L360.271 189.47H357.301L354.531 184.92H351.931V189.47H349.291L349.281 189.48ZM351.921 182.61H355.231C355.471 182.61 355.701 182.55 355.911 182.44C356.121 182.33 356.301 182.17 356.461 181.97C356.611 181.77 356.731 181.54 356.821 181.27C356.911 181 356.951 180.71 356.951 180.41C356.951 180.11 356.901 179.8 356.801 179.53C356.701 179.26 356.561 179.03 356.391 178.83C356.221 178.63 356.021 178.48 355.801 178.37C355.581 178.26 355.351 178.21 355.121 178.21H351.921V182.61Z" fill="white"/>
<path d="M367.81 189.58C366.81 189.58 365.91 189.39 365.1 189C364.29 188.61 363.59 188.09 363.01 187.45C362.43 186.81 361.98 186.07 361.66 185.24C361.34 184.41 361.18 183.56 361.18 182.69C361.18 181.82 361.35 180.92 361.69 180.09C362.03 179.26 362.49 178.53 363.09 177.89C363.68 177.25 364.39 176.75 365.21 176.37C366.03 175.99 366.91 175.8 367.87 175.8C368.83 175.8 369.75 176 370.56 176.4C371.37 176.8 372.06 177.33 372.64 177.98C373.21 178.63 373.66 179.37 373.98 180.2C374.3 181.03 374.46 181.87 374.46 182.73C374.46 183.64 374.29 184.5 373.96 185.32C373.63 186.14 373.17 186.87 372.58 187.5C371.99 188.13 371.29 188.64 370.47 189.01C369.65 189.39 368.77 189.57 367.81 189.57V189.58ZM363.87 182.69C363.87 183.28 363.96 183.84 364.14 184.39C364.32 184.94 364.58 185.42 364.92 185.84C365.26 186.26 365.67 186.6 366.16 186.85C366.65 187.11 367.21 187.23 367.83 187.23C368.45 187.23 369.03 187.1 369.52 186.84C370.01 186.58 370.43 186.23 370.76 185.8C371.1 185.37 371.35 184.88 371.53 184.34C371.7 183.8 371.79 183.25 371.79 182.68C371.79 182.11 371.7 181.53 371.51 180.98C371.32 180.43 371.06 179.95 370.73 179.53C370.39 179.11 369.98 178.77 369.49 178.53C369 178.28 368.45 178.16 367.83 178.16C367.21 178.16 366.62 178.29 366.13 178.55C365.63 178.81 365.22 179.16 364.89 179.58C364.56 180.01 364.31 180.49 364.13 181.03C363.96 181.57 363.87 182.12 363.87 182.69Z" fill="white"/>
<path d="M376.471 189.48V175.89H382.481C383.101 175.89 383.681 176.02 384.211 176.28C384.741 176.54 385.201 176.89 385.581 177.31C385.961 177.74 386.261 178.22 386.481 178.76C386.701 179.3 386.811 179.85 386.811 180.4C386.811 181.28 386.591 182.08 386.151 182.8C385.711 183.52 385.111 184.04 384.361 184.36L387.461 189.47H384.491L381.721 184.92H379.121V189.47H376.481L376.471 189.48ZM379.111 182.61H382.421C382.661 182.61 382.891 182.55 383.101 182.44C383.311 182.33 383.491 182.17 383.651 181.97C383.801 181.77 383.921 181.54 384.011 181.27C384.101 181 384.141 180.71 384.141 180.41C384.141 180.11 384.091 179.8 383.991 179.53C383.891 179.26 383.751 179.03 383.581 178.83C383.411 178.63 383.211 178.48 382.991 178.37C382.771 178.26 382.541 178.21 382.311 178.21H379.111V182.61Z" fill="white"/>
</g>
<defs>
<clipPath id="clip0_469_8053">
<rect width="413.25" height="426.82" fill="white"/>
</clipPath>
</defs>
</svg>
