<svg width="70" height="65" viewBox="0 0 70 65" fill="none" xmlns="http://www.w3.org/2000/svg">
<path d="M16.3064 2.14515L16.3068 2.14505C18.542 1.58674 20.8016 2.64909 21.634 4.48734L21.635 4.48955L27.1037 16.4896L27.1039 16.49C27.8275 18.0758 27.3461 19.9376 25.8325 21.0588L25.8325 21.0588L25.8281 21.0621L19.0879 26.1121L18.4102 26.6198L18.7993 27.3719C23.4645 36.3893 31.4379 43.6694 41.2613 47.9177L41.9231 48.2039L42.4037 47.6664L47.9134 41.5039C49.1541 40.1164 51.28 39.6116 53.1417 40.3217L53.1421 40.3218L66.2671 45.3218L66.2691 45.3226C68.3764 46.1202 69.3949 48.1582 68.8368 50.0261L68.8366 50.0265L65.5554 61.0265L65.5546 61.029C65.0518 62.731 63.32 63.9999 61.25 63.9999C27.8918 63.9999 1 39.2901 1 8.99986C1 7.26557 2.28446 5.64772 4.27663 5.14478C4.27701 5.14468 4.27739 5.14459 4.27776 5.14449L16.3064 2.14515ZM38.2812 1.99986C55.3289 1.99986 69 14.6221 69 29.9999C69 31.0276 68.0711 31.9999 66.7188 31.9999C65.3664 31.9999 64.4375 31.0276 64.4375 29.9999C64.4375 16.6651 52.6379 5.99986 38.2812 5.99986C36.9289 5.99986 36 5.02761 36 3.99986C36 2.9721 36.9289 1.99986 38.2812 1.99986ZM39.375 25.9999C40.2976 25.9999 41.1663 26.3358 41.7938 26.9095C42.4183 27.4804 42.75 28.2346 42.75 28.9999C42.75 29.7651 42.4183 30.5193 41.7938 31.0903C41.1663 31.6639 40.2976 31.9999 39.375 31.9999C38.4524 31.9999 37.5837 31.6639 36.9562 31.0903C36.3317 30.5193 36 29.7651 36 28.9999C36 28.2346 36.3317 27.4804 36.9562 26.9095C37.5837 26.3358 38.4524 25.9999 39.375 25.9999ZM36 15.9999C36 14.9721 36.9289 13.9999 38.2812 13.9999C48.0828 13.9999 55.875 21.2471 55.875 29.9999C55.875 31.0276 54.9461 31.9999 53.5938 31.9999C52.2414 31.9999 51.3125 31.0276 51.3125 29.9999C51.3125 23.2901 45.3918 17.9999 38.2812 17.9999C36.9289 17.9999 36 17.0276 36 15.9999Z" stroke="#27DBBB" stroke-width="2"/>
</svg>
