<?xml version="1.0" encoding="UTF-8"?>
<svg id="Layer_2" data-name="Layer 2" xmlns="http://www.w3.org/2000/svg" viewBox="0 0 412.62 550.99">
  <defs>
    <style>
      .cls-1 {
        fill: none;
        stroke: #27dbbb;
        stroke-width: 24px;
      }
    </style>
  </defs>
  <g id="Layer_1-2" data-name="Layer 1">
    <path class="cls-1" d="M334.16,377.09c-36.71,60.4-80.06,117.83-106.51,151.4-11.1,14-31.57,14-42.67,0-26.45-33.58-69.8-91-106.51-151.4-18.36-30.2-35.01-61.08-47.06-90.03-12.08-29.02-19.4-55.8-19.4-77.92C12,100.25,99.09,12,206.31,12s194.31,88.25,194.31,197.14c0,22.11-7.32,48.9-19.4,77.92-12.05,28.96-28.7,59.83-47.06,90.03ZM136.21,209.14c0,39.14,31.38,71.05,70.1,71.05s70.1-31.91,70.1-71.05-31.38-71.05-70.1-71.05-70.1,31.91-70.1,71.05Z"/>
  </g>
</svg>