<?xml version="1.0" encoding="UTF-8"?>
<svg id="Layer_2" data-name="Layer 2" xmlns="http://www.w3.org/2000/svg" viewBox="0 0 1451.34 1451.34">
  <defs>
    <style>
      .cls-1 {
        fill: #0a2d49;
      }
    </style>
  </defs>
  <g id="Layer_1-2" data-name="Layer 1">
    <g id="_10.Linkedin" data-name="10.Linkedin">
      <path class="cls-1" d="M1451.34,1451.34V919.79c0-261.24-56.24-460.8-361.02-460.8-146.95,0-244.91,79.82-284.83,156.02h-3.63v-132.43h-288.45v968.77h301.15v-480.76c0-126.99,23.58-248.54,179.6-248.54s156.02,143.32,156.02,255.8v471.69h301.15v1.81Z"/>
      <path class="cls-1" d="M23.58,482.57H324.74v968.77H23.58V482.57Z"/>
      <path class="cls-1" d="M174.16,0C78.01,0,0,78.01,0,174.16s78.01,175.97,174.16,175.97,174.16-79.82,174.16-175.97S270.31,0,174.16,0Z"/>
    </g>
  </g>
</svg>