<svg width="64" height="65" viewBox="0 0 64 65" fill="none" xmlns="http://www.w3.org/2000/svg">
<g clip-path="url(#clip0_2000_2346)">
<rect y="0.766602" width="64" height="64" rx="32" fill="#0A2D49"/>
<g clip-path="url(#clip1_2000_2346)">
<path fill-rule="evenodd" clip-rule="evenodd" d="M-4 0H124.25V5.15593H-4V0ZM-4 10.3117H124.25V15.4676H-4V10.3117ZM-4 20.6103H124.25V25.7792H-4V20.6103ZM-4 30.922H124.25V36.078H-4V30.922ZM-4 41.2338H124.25V46.3897H-4V41.2338ZM-4 51.5324H124.25V56.6883H-4V51.5324ZM-4 61.8441H124.25V67H-4V61.8441Z" fill="#BD3D44"/>
<path fill-rule="evenodd" clip-rule="evenodd" d="M-4 5.15576H124.25V10.3116H-4V5.15576ZM-4 15.4673H124.25V20.6101H-4V15.4673ZM-4 25.7661H124.25V30.9219H-4V25.7661ZM-4 36.0778H124.25V41.2336H-4V36.0778ZM-4 46.3895H124.25V51.5453H-4V46.3895ZM-4 56.6881H124.25V61.844H-4V56.6881Z" fill="white"/>
<path fill-rule="evenodd" clip-rule="evenodd" d="M-4 0H47.2973V36.078H-4V0Z" fill="#0A2D49"/>
<path fill-rule="evenodd" clip-rule="evenodd" d="M0.271475 1.54443L0.746085 2.97056H2.24908L1.03605 3.84742L1.49758 5.2868L0.271475 4.39696L-0.941415 5.27368L-0.480025 3.84742L-1.70599 2.97056H-0.176697L0.271475 1.54443ZM8.82766 1.54443L9.28905 2.97056H10.8051L9.57902 3.84742L10.0406 5.2868L8.82766 4.39696L7.60155 5.27368L8.06294 3.84742L6.85005 2.97056H8.35305L8.82766 1.54443ZM17.3706 1.54443L17.8452 2.9707H19.335L18.1221 3.84756L18.5834 5.28694L17.3574 4.3971L16.1445 5.27382L16.6059 3.84756L15.3798 2.9707H16.896L17.3706 1.54443ZM25.9268 1.54443L26.3881 2.9707H27.9043L26.6782 3.84756L27.1528 5.28694L25.9267 4.3971L24.7007 5.27382L25.1753 3.84756L23.9492 2.9707H25.4522L25.9268 1.54443ZM34.4698 1.54443L34.9444 2.9707H36.4473L35.2344 3.84756L35.6958 5.28694L34.4697 4.3971L33.2568 5.27382L33.7183 3.84756L32.5054 2.9707H34.0083L34.4698 1.54443ZM43.0258 1.54443L43.4872 2.9707H45.0034L43.7773 3.84756L44.2519 5.28694L43.0258 4.3971L41.7997 5.27382L42.2743 3.84756L41.0484 2.9707H42.5644L43.0258 1.54443ZM4.55618 5.15587L5.01757 6.58241H6.53365L5.30754 7.459L5.75585 8.88554L4.56926 8.00868L3.34329 8.8854L3.77824 7.45914L2.59179 6.58228H4.09479L4.55618 5.15587ZM13.0991 5.15587L13.5738 6.58241H15.0766L13.8505 7.459L14.3253 8.88554L13.099 8.00868L11.873 8.8854L12.3476 7.45914L11.1215 6.58228H12.6376L13.0991 5.15587ZM21.6553 5.15587L22.1166 6.58241H23.6328L22.4067 7.459L22.8681 8.88554L21.6552 8.00868L20.4292 8.8854L20.8906 7.45928L19.6777 6.58241H21.1807L21.6553 5.15587ZM30.1983 5.15587L30.6729 6.58241H32.1758L30.9497 7.459L31.4243 8.88554L30.1982 8.00868L28.9853 8.8854L29.4468 7.45914L28.2207 6.58228H29.75L30.1983 5.15587ZM38.7544 5.15587L39.2157 6.58241H40.732L39.5059 7.459L39.9672 8.88554L38.7544 8.00868L37.5282 8.8854L37.9898 7.45914L36.7769 6.58228H38.2797L38.7544 5.15587ZM0.271475 8.75489L0.746085 10.2074H2.24908L1.03605 11.0841L1.49758 12.5105L0.271475 11.6207L-0.941415 12.5105L-0.480025 11.071L-1.70599 10.1944H-0.176697L0.271475 8.75489ZM8.82766 8.75489L9.28905 10.194H10.8051L9.57902 11.0707L10.0406 12.4973L8.82766 11.6073L7.60155 12.4971L8.06294 11.0577L6.85005 10.181H8.35305L8.82766 8.75489ZM17.3706 8.75489L17.8452 10.1943H19.335L18.1221 11.071L18.5834 12.4975L17.3574 11.6076L16.1445 12.4974L16.6059 11.058L15.3798 10.1813H16.896L17.3706 8.75489ZM25.9268 8.75489L26.3881 10.1943H27.9043L26.6782 11.071L27.1528 12.4975L25.9267 11.6076L24.7007 12.4974L25.1753 11.058L23.9492 10.1813H25.4522L25.9268 8.75489ZM34.4698 8.75489L34.9444 10.1943H36.4473L35.2344 11.0709L35.6958 12.4974L34.4697 11.6074L33.2568 12.4973L33.7183 11.0579L32.5054 10.1812H34.0083L34.4698 8.75489ZM43.0258 8.75489L43.4872 10.1943H45.0034L43.7773 11.071L44.2519 12.4975L43.0258 11.6076L41.7997 12.4974L42.2743 11.058L41.0484 10.1813H42.5644L43.0258 8.75489ZM4.55618 12.3665L5.01757 13.7929H6.53365L5.30754 14.6695L5.76907 16.109L4.55618 15.2191L3.33007 16.0959L3.79146 14.6696L2.57857 13.7929H4.08171L4.55618 12.3665ZM13.0991 12.3665L13.5738 13.7929H15.0766L13.8505 14.6695L14.3253 16.109L13.099 15.2191L11.873 16.0959L12.3476 14.6696L11.1215 13.7929H12.6376L13.0991 12.3665ZM21.6553 12.3665L22.1166 13.7929H23.6328L22.4067 14.6695L22.8681 16.109L21.6552 15.2191L20.4292 16.0959L20.8906 14.6696L19.6777 13.7929H21.1807L21.6553 12.3665ZM30.1983 12.3665L30.6729 13.7929H32.1758L30.9629 14.6695L31.4243 16.109L30.1982 15.2191L28.9853 16.0959L29.4468 14.6696L28.2207 13.7929H29.75L30.1983 12.3665ZM38.7544 12.3665L39.2157 13.7929H40.732L39.5059 14.6695L39.9672 16.109L38.7544 15.2191L37.5282 16.0959L37.9898 14.6696L36.7769 13.7929H38.2797L38.7544 12.3665ZM0.271475 15.9782L0.746085 17.4046H2.24908L1.03605 18.2812L1.49758 19.7207L0.271475 18.8309L-0.941415 19.7076L-0.480025 18.2813L-1.70599 17.4046H-0.176697L0.271475 15.9782ZM8.82766 15.9782L9.28905 17.4046H10.8051L9.57902 18.2812L10.0406 19.7077L8.82766 18.8309L7.60155 19.7076L8.06294 18.2813L6.85005 17.4046H8.35305L8.82766 15.9782ZM17.3706 15.9782L17.8452 17.4046H19.335L18.1221 18.2812L18.5834 19.7207L17.3574 18.8309L16.1445 19.7076L16.6059 18.2813L15.3798 17.4046H16.896L17.3706 15.9782ZM25.9268 15.9782L26.3881 17.4046H27.9043L26.6782 18.2812L27.1528 19.7207L25.9267 18.8309L24.7007 19.7076L25.1753 18.2813L23.9492 17.4046H25.4522L25.9268 15.9782ZM34.4698 15.9782L34.9444 17.4046H36.4473L35.2344 18.2812L35.6958 19.7207L34.4697 18.8309L33.2568 19.7076L33.7183 18.2813L32.5054 17.4046H34.0083L34.4698 15.9782ZM43.0258 15.9782L43.4872 17.4046H45.0034L43.7773 18.2812L44.2519 19.7207L43.0258 18.8309L41.7997 19.7076L42.2743 18.2813L41.0484 17.4046H42.5644L43.0258 15.9782ZM4.55618 19.5899L5.01757 21.0163H6.53365L5.30754 21.8929L5.76907 23.3194L4.55618 22.4296L3.33007 23.3194L3.79146 21.8799L2.57857 21.0032H4.08171L4.55618 19.5899ZM13.0991 19.5899L13.5738 21.0163H15.0766L13.8505 21.8929L14.3253 23.3194L13.099 22.4296L11.873 23.3194L12.3476 21.8799L11.1215 21.0032H12.6376L13.0991 19.5899ZM21.6553 19.5899L22.1166 21.0163H23.6328L22.4067 21.8929L22.8681 23.3194L21.6552 22.4296L20.4292 23.3194L20.8906 21.8799L19.6777 21.0032H21.1807L21.6553 19.5899ZM30.1983 19.5899L30.6729 21.0163H32.1758L30.9629 21.8929L31.4243 23.3194L30.1982 22.4296L28.9853 23.3194L29.4468 21.8799L28.2207 21.0032H29.75L30.1983 19.5899ZM38.7544 19.5899L39.2157 21.0163H40.732L39.5059 21.8929L39.9672 23.3194L38.7544 22.4296L37.5282 23.3194L37.9898 21.8799L36.7769 21.0032H38.2797L38.7544 19.5899ZM0.271475 23.1885L0.746085 24.628H2.24908L1.03605 25.5046L1.49758 26.918L0.271475 26.0413L-0.941415 26.9179L-0.480025 25.4916L-1.70599 24.6149H-0.176697L0.271475 23.1885ZM8.82766 23.1885L9.28905 24.628H10.8051L9.57902 25.5046L10.0538 26.918L8.82752 26.0413L7.60155 26.9179L8.07616 25.4916L6.85005 24.6149H8.35305L8.82766 23.1885ZM17.3706 23.1885L17.8452 24.628H19.335L18.1221 25.5046L18.5834 26.918L17.3574 26.0413L16.1445 26.9179L16.6059 25.4916L15.3798 24.6149H16.896L17.3706 23.1885ZM25.9268 23.1885L26.3881 24.628H27.9043L26.6782 25.5046L27.1528 26.918L25.9267 26.0413L24.7007 26.9179L25.1753 25.4916L23.9492 24.6149H25.4522L25.9268 23.1885ZM34.4698 23.1885L34.9444 24.628H36.4473L35.2344 25.5046L35.6958 26.918L34.4697 26.0413L33.2568 26.9179L33.7183 25.4916L32.5054 24.6149H34.0083L34.4698 23.1885ZM43.0258 23.1885L43.4872 24.628H45.0034L43.7773 25.5046L44.2519 26.918L43.0258 26.0413L41.7997 26.9179L42.2743 25.4916L41.0484 24.6149H42.5644L43.0258 23.1885ZM4.55618 26.8002L5.01757 28.2266H6.53365L5.30754 29.1033L5.76907 30.5429L4.55618 29.653L3.33007 30.5296L3.79146 29.1033L2.57857 28.2266H4.08171L4.55618 26.8002ZM13.0991 26.8002L13.5738 28.2266H15.0766L13.8505 29.1033L14.3253 30.5429L13.099 29.653L11.873 30.5296L12.3476 29.1033L11.1215 28.2266H12.6376L13.0991 26.8002ZM21.6553 26.8002L22.1166 28.2266H23.6328L22.4067 29.1033L22.8681 30.5429L21.6552 29.653L20.4292 30.5296L20.8906 29.1033L19.6777 28.2266H21.1807L21.6553 26.8002ZM30.1983 26.8002L30.6729 28.2266H32.1758L30.9629 29.1033L31.4243 30.5429L30.1982 29.653L28.9853 30.5296L29.4468 29.1033L28.2207 28.2266H29.75L30.1983 26.8002ZM38.7544 26.8002L39.2157 28.2266H40.732L39.5059 29.1033L39.9672 30.5429L38.7544 29.653L37.5282 30.5296L37.9898 29.1033L36.7769 28.2266H38.2797L38.7544 26.8002ZM0.271475 30.4119L0.746085 31.8383H2.24908L1.03605 32.7151L1.49758 34.1415L0.271475 33.2647L-0.941415 34.1413L-0.480025 32.7019L-1.70599 31.8252H-0.176697L0.271475 30.4119ZM8.82766 30.4119L9.28905 31.8383H10.8051L9.57902 32.7151L10.0538 34.1415L8.82752 33.2647L7.60155 34.1413L8.07616 32.7019L6.85005 31.8252H8.35305L8.82766 30.4119ZM17.3706 30.4119L17.8452 31.8383H19.335L18.1484 32.7151L18.6098 34.1415L17.3837 33.2647L16.1708 34.1413L16.6323 32.7019L15.4062 31.8252H16.9223L17.3706 30.4119ZM25.9268 30.4119L26.3881 31.8383H27.9043L26.6782 32.7151L27.1528 34.1415L25.9267 33.2647L24.7007 34.1413L25.1753 32.7019L23.9492 31.8252H25.4522L25.9268 30.4119ZM34.4698 30.4119L34.9444 31.8383H36.4473L35.2344 32.7151L35.6958 34.1415L34.4697 33.2647L33.2568 34.1413L33.7183 32.7019L32.5054 31.8252H34.0083L34.4698 30.4119ZM43.0258 30.4119L43.4872 31.8383H45.0034L43.7773 32.7151L44.2519 34.1415L43.0258 33.2647L41.7997 34.1413L42.2743 32.7019L41.0484 31.8252H42.5644L43.0258 30.4119Z" fill="white"/>
</g>
</g>
<defs>
<clipPath id="clip0_2000_2346">
<rect y="0.766602" width="64" height="64" rx="32" fill="white"/>
</clipPath>
<clipPath id="clip1_2000_2346">
<rect width="90" height="67" fill="white" transform="translate(-4)"/>
</clipPath>
</defs>
</svg>
