<svg width="142" height="132" viewBox="0 0 142 132" fill="none" xmlns="http://www.w3.org/2000/svg">
<g clip-path="url(#clip0_1052_4276)">
<path d="M65.8263 132C102.181 132 131.653 102.451 131.653 66C131.653 29.5492 102.181 0 65.8263 0C29.4714 0 0 29.5492 0 66C0 102.451 29.4714 132 65.8263 132Z" fill="#0A2D49"/>
<path d="M69.8009 94.9361C67.6378 94.9361 65.4748 94.135 63.7794 92.5329L28.2746 58.9272C24.7475 55.5862 24.5916 50.0373 27.9238 46.5009C31.2561 42.9645 36.7903 42.8082 40.3174 46.1492L69.8009 74.0693L127.209 19.8313C130.736 16.4903 136.29 16.6661 139.602 20.2025C142.915 23.7389 142.759 29.3073 139.232 32.6288L75.8028 92.5524C74.1074 94.1546 71.9444 94.9556 69.7814 94.9556L69.8009 94.9361Z" fill="#27DBBB"/>
</g>
<defs>
<clipPath id="clip0_1052_4276">
<rect width="142" height="132" fill="white"/>
</clipPath>
</defs>
</svg>
