<svg width="28" height="29" viewBox="0 0 28 29" fill="none" xmlns="http://www.w3.org/2000/svg">
<g clip-path="url(#clip0_294_1190)">
<rect y="0.249023" width="28" height="28" rx="14" fill="#0A2D49"/>
<g clip-path="url(#clip1_294_1190)">
<path fill-rule="evenodd" clip-rule="evenodd" d="M-26 -15.751H88V-11.1337H-26V-15.751ZM-26 -6.5166H88V-1.89935H-26V-6.5166ZM-26 2.70602H88V7.3349H-26V2.70602ZM-26 11.9404H88V16.5576H-26V11.9404ZM-26 21.1748H88V25.792H-26V21.1748ZM-26 30.3974H88V35.0146H-26V30.3974ZM-26 39.6318H88V44.249H-26V39.6318Z" fill="#BD3D44"/>
<path fill-rule="evenodd" clip-rule="evenodd" d="M-26 -11.1338H88V-6.51666H-26V-11.1338ZM-26 -1.89954H88V2.70596H-26V-1.89954ZM-26 7.32321H88V11.9403H-26V7.32321ZM-26 16.5576H88V21.1747H-26V16.5576ZM-26 25.792H88V30.4091H-26V25.792ZM-26 35.0146H88V39.6318H-26V35.0146Z" fill="white"/>
<path fill-rule="evenodd" clip-rule="evenodd" d="M-26 -15.751H19.5976V16.5576H-26V-15.751Z" fill="#0A2D49"/>
<path fill-rule="evenodd" clip-rule="evenodd" d="M-22.2031 -14.3682L-21.7813 -13.091H-20.4453L-21.5235 -12.3058L-21.1133 -11.0168L-22.2031 -11.8137L-23.2813 -11.0285L-22.8711 -12.3058L-23.9609 -13.091H-22.6015L-22.2031 -14.3682ZM-14.5976 -14.3682L-14.1875 -13.091H-12.8399L-13.9298 -12.3058L-13.5195 -11.0168L-14.5976 -11.8137L-15.6875 -11.0285L-15.2774 -12.3058L-16.3555 -13.091H-15.0195L-14.5976 -14.3682ZM-7.00388 -14.3682L-6.582 -13.0909H-5.25775L-6.33588 -12.3057L-5.92588 -11.0167L-7.01563 -11.8135L-8.09375 -11.0284L-7.68363 -12.3057L-8.7735 -13.0909H-7.42575L-7.00388 -14.3682ZM0.601624 -14.3682L1.01162 -13.0909H2.35937L1.2695 -12.3057L1.69137 -11.0167L0.601498 -11.8135L-0.488253 -11.0284L-0.0663776 -12.3057L-1.15625 -13.0909H0.179749L0.601624 -14.3682ZM8.19537 -14.3682L8.61725 -13.0909H9.95312L8.875 -12.3057L9.28513 -11.0167L8.19525 -11.8135L7.11712 -11.0284L7.52737 -12.3057L6.44925 -13.0909H7.78512L8.19537 -14.3682ZM15.8008 -14.3682L16.2109 -13.0909H17.5586L16.4688 -12.3057L16.8906 -11.0167L15.8008 -11.8135L14.7109 -11.0284L15.1328 -12.3057L14.043 -13.0909H15.3906L15.8008 -14.3682ZM-18.3945 -11.134L-17.9844 -9.85654H-16.6368L-17.7266 -9.07154L-17.3281 -7.79404L-18.3829 -8.57929L-19.4726 -7.79416L-19.086 -9.07141L-20.1406 -9.85666H-18.8046L-18.3945 -11.134ZM-10.8008 -11.134L-10.3789 -9.85654H-9.043L-10.1329 -9.07154L-9.71088 -7.79404L-10.8009 -8.57929L-11.8906 -7.79416L-11.4688 -9.07141L-12.5586 -9.85666H-11.211L-10.8008 -11.134ZM-3.19525 -11.134L-2.78525 -9.85654H-1.4375L-2.52738 -9.07154L-2.11725 -7.79404L-3.19538 -8.57929L-4.28513 -7.79416L-3.875 -9.07129L-4.95313 -9.85654H-3.61713L-3.19525 -11.134ZM4.3985 -11.134L4.82037 -9.85654H6.15625L5.06637 -9.07154L5.48825 -7.79404L4.39837 -8.57929L3.32025 -7.79416L3.7305 -9.07141L2.64062 -9.85666H4L4.3985 -11.134ZM12.0039 -11.134L12.414 -9.85654H13.7617L12.6719 -9.07154L13.082 -7.79404L12.0039 -8.57929L10.914 -7.79416L11.3242 -9.07141L10.2461 -9.85666H11.582L12.0039 -11.134ZM-22.2031 -7.91104L-21.7813 -6.61029H-20.4453L-21.5235 -5.82516L-21.1133 -4.54779L-22.2031 -5.34466L-23.2813 -4.54779L-22.8711 -5.83691L-23.9609 -6.62191H-22.6015L-22.2031 -7.91104ZM-14.5976 -7.91104L-14.1875 -6.62229H-12.8399L-13.9298 -5.83716L-13.5195 -4.55966L-14.5976 -5.35666L-15.6875 -4.55979L-15.2774 -5.84879L-16.3555 -6.63391H-15.0195L-14.5976 -7.91104ZM-7.00388 -7.91104L-6.582 -6.62204H-5.25775L-6.33588 -5.83691L-5.92588 -4.55941L-7.01563 -5.35641L-8.09375 -4.55954L-7.68363 -5.84854L-8.7735 -6.63366H-7.42575L-7.00388 -7.91104ZM0.601624 -7.91104L1.01162 -6.62204H2.35937L1.2695 -5.83691L1.69137 -4.55941L0.601498 -5.35641L-0.488253 -4.55954L-0.0663776 -5.84854L-1.15625 -6.63366H0.179749L0.601624 -7.91104ZM8.19537 -7.91104L8.61725 -6.62204H9.95312L8.875 -5.83704L9.28513 -4.55954L8.19525 -5.35654L7.11712 -4.55966L7.52737 -5.84866L6.44925 -6.63379H7.78512L8.19537 -7.91104ZM15.8008 -7.91104L16.2109 -6.62204H17.5586L16.4688 -5.83691L16.8906 -4.55941L15.8008 -5.35641L14.7109 -4.55954L15.1328 -5.84854L14.043 -6.63366H15.3906L15.8008 -7.91104ZM-18.3945 -4.67679L-17.9844 -3.39941H-16.6368L-17.7266 -2.61441L-17.3164 -1.32529L-18.3945 -2.12216L-19.4844 -1.33704L-19.0743 -2.61429L-20.1524 -3.39941H-18.8163L-18.3945 -4.67679ZM-10.8008 -4.67679L-10.3789 -3.39941H-9.043L-10.1329 -2.61441L-9.71088 -1.32529L-10.8009 -2.12216L-11.8906 -1.33704L-11.4688 -2.61429L-12.5586 -3.39941H-11.211L-10.8008 -4.67679ZM-3.19525 -4.67679L-2.78525 -3.39941H-1.4375L-2.52738 -2.61441L-2.11725 -1.32529L-3.19538 -2.12216L-4.28513 -1.33704L-3.875 -2.61429L-4.95313 -3.39941H-3.61713L-3.19525 -4.67679ZM4.3985 -4.67679L4.82037 -3.39941H6.15625L5.07812 -2.61441L5.48825 -1.32529L4.39837 -2.12216L3.32025 -1.33704L3.7305 -2.61429L2.64062 -3.39941H4L4.3985 -4.67679ZM12.0039 -4.67679L12.414 -3.39941H13.7617L12.6719 -2.61441L13.082 -1.32529L12.0039 -2.12216L10.914 -1.33704L11.3242 -2.61429L10.2461 -3.39941H11.582L12.0039 -4.67679ZM-22.2031 -1.44241L-21.7813 -0.165039H-20.4453L-21.5235 0.619961L-21.1133 1.90909L-22.2031 1.11221L-23.2813 1.89734L-22.8711 0.620085L-23.9609 -0.165039H-22.6015L-22.2031 -1.44241ZM-14.5976 -1.44241L-14.1875 -0.165039H-12.8399L-13.9298 0.619961L-13.5195 1.89746L-14.5976 1.11221L-15.6875 1.89734L-15.2774 0.620085L-16.3555 -0.165039H-15.0195L-14.5976 -1.44241ZM-7.00388 -1.44241L-6.582 -0.165039H-5.25775L-6.33588 0.619961L-5.92588 1.90909L-7.01563 1.11221L-8.09375 1.89734L-7.68363 0.620085L-8.7735 -0.165039H-7.42575L-7.00388 -1.44241ZM0.601624 -1.44241L1.01162 -0.165039H2.35937L1.2695 0.619961L1.69137 1.90909L0.601498 1.11221L-0.488253 1.89734L-0.0663776 0.620085L-1.15625 -0.165039H0.179749L0.601624 -1.44241ZM8.19537 -1.44241L8.61725 -0.165039H9.95312L8.875 0.619961L9.28513 1.90909L8.19525 1.11221L7.11712 1.89734L7.52737 0.620085L6.44925 -0.165039H7.78512L8.19537 -1.44241ZM15.8008 -1.44241L16.2109 -0.165039H17.5586L16.4688 0.619961L16.8906 1.90909L15.8008 1.11221L14.7109 1.89734L15.1328 0.620085L14.043 -0.165039H15.3906L15.8008 -1.44241ZM-18.3945 1.79196L-17.9844 3.06934H-16.6368L-17.7266 3.85434L-17.3164 5.13184L-18.3945 4.33496L-19.4844 5.13184L-19.0743 3.84271L-20.1524 3.05758H-18.8163L-18.3945 1.79196ZM-10.8008 1.79196L-10.3789 3.06934H-9.043L-10.1329 3.85434L-9.71088 5.13184L-10.8009 4.33496L-11.8906 5.13184L-11.4688 3.84271L-12.5586 3.05758H-11.211L-10.8008 1.79196ZM-3.19525 1.79196L-2.78525 3.06934H-1.4375L-2.52738 3.85434L-2.11725 5.13184L-3.19538 4.33496L-4.28513 5.13184L-3.875 3.84271L-4.95313 3.05758H-3.61713L-3.19525 1.79196ZM4.3985 1.79196L4.82037 3.06934H6.15625L5.07812 3.85434L5.48825 5.13184L4.39837 4.33496L3.32025 5.13184L3.7305 3.84271L2.64062 3.05758H4L4.3985 1.79196ZM12.0039 1.79196L12.414 3.06934H13.7617L12.6719 3.85434L13.082 5.13184L12.0039 4.33496L10.914 5.13184L11.3242 3.84271L10.2461 3.05758H11.582L12.0039 1.79196ZM-22.2031 5.01459L-21.7813 6.30371H-20.4453L-21.5235 7.08871L-21.1133 8.35446L-22.2031 7.56934L-23.2813 8.35434L-22.8711 7.07709L-23.9609 6.29196H-22.6015L-22.2031 5.01459ZM-14.5976 5.01459L-14.1875 6.30371H-12.8399L-13.9298 7.08871L-13.5078 8.35446L-14.5978 7.56934L-15.6875 8.35434L-15.2656 7.07709L-16.3555 6.29196H-15.0195L-14.5976 5.01459ZM-7.00388 5.01459L-6.582 6.30371H-5.25775L-6.33588 7.08871L-5.92588 8.35446L-7.01563 7.56934L-8.09375 8.35434L-7.68363 7.07709L-8.7735 6.29196H-7.42575L-7.00388 5.01459ZM0.601624 5.01459L1.01162 6.30371H2.35937L1.2695 7.08871L1.69137 8.35446L0.601498 7.56934L-0.488253 8.35434L-0.0663776 7.07709L-1.15625 6.29196H0.179749L0.601624 5.01459ZM8.19537 5.01459L8.61725 6.30371H9.95312L8.875 7.08871L9.28513 8.35446L8.19525 7.56934L7.11712 8.35434L7.52737 7.07709L6.44925 6.29196H7.78512L8.19537 5.01459ZM15.8008 5.01459L16.2109 6.30371H17.5586L16.4688 7.08871L16.8906 8.35446L15.8008 7.56934L14.7109 8.35434L15.1328 7.07709L14.043 6.29196H15.3906L15.8008 5.01459ZM-18.3945 8.24896L-17.9844 9.52633H-16.6368L-17.7266 10.3115L-17.3164 11.6006L-18.3945 10.8037L-19.4844 11.5887L-19.0743 10.3115L-20.1524 9.52633H-18.8163L-18.3945 8.24896ZM-10.8008 8.24896L-10.3789 9.52633H-9.043L-10.1329 10.3115L-9.71088 11.6006L-10.8009 10.8037L-11.8906 11.5887L-11.4688 10.3115L-12.5586 9.52633H-11.211L-10.8008 8.24896ZM-3.19525 8.24896L-2.78525 9.52633H-1.4375L-2.52738 10.3115L-2.11725 11.6006L-3.19538 10.8037L-4.28513 11.5887L-3.875 10.3115L-4.95313 9.52633H-3.61713L-3.19525 8.24896ZM4.3985 8.24896L4.82037 9.52633H6.15625L5.07812 10.3115L5.48825 11.6006L4.39837 10.8037L3.32025 11.5887L3.7305 10.3115L2.64062 9.52633H4L4.3985 8.24896ZM12.0039 8.24896L12.414 9.52633H13.7617L12.6719 10.3115L13.082 11.6006L12.0039 10.8037L10.914 11.5887L11.3242 10.3115L10.2461 9.52633H11.582L12.0039 8.24896ZM-22.2031 11.4833L-21.7813 12.7607H-20.4453L-21.5235 13.5458L-21.1133 14.8232L-22.2031 14.0381L-23.2813 14.8231L-22.8711 13.5341L-23.9609 12.749H-22.6015L-22.2031 11.4833ZM-14.5976 11.4833L-14.1875 12.7607H-12.8399L-13.9298 13.5458L-13.5078 14.8232L-14.5978 14.0381L-15.6875 14.8231L-15.2656 13.5341L-16.3555 12.749H-15.0195L-14.5976 11.4833ZM-7.00388 11.4833L-6.582 12.7607H-5.25775L-6.3125 13.5458L-5.90238 14.8232L-6.99225 14.0381L-8.07038 14.8231L-7.66013 13.5341L-8.75 12.749H-7.40238L-7.00388 11.4833ZM0.601624 11.4833L1.01162 12.7607H2.35937L1.2695 13.5458L1.69137 14.8232L0.601498 14.0381L-0.488253 14.8231L-0.0663776 13.5341L-1.15625 12.749H0.179749L0.601624 11.4833ZM8.19537 11.4833L8.61725 12.7607H9.95312L8.875 13.5458L9.28513 14.8232L8.19525 14.0381L7.11712 14.8231L7.52737 13.5341L6.44925 12.749H7.78512L8.19537 11.4833ZM15.8008 11.4833L16.2109 12.7607H17.5586L16.4688 13.5458L16.8906 14.8232L15.8008 14.0381L14.7109 14.8231L15.1328 13.5341L14.043 12.749H15.3906L15.8008 11.4833Z" fill="white"/>
</g>
</g>
<defs>
<clipPath id="clip0_294_1190">
<rect y="0.249023" width="28" height="28" rx="14" fill="white"/>
</clipPath>
<clipPath id="clip1_294_1190">
<rect width="80" height="60" fill="white" transform="translate(-26 -15.751)"/>
</clipPath>
</defs>
</svg>
