<svg width="55" height="74" viewBox="0 0 55 74" fill="none" xmlns="http://www.w3.org/2000/svg">
<path d="M53.2253 27.75C53.2253 30.7157 52.249 34.3476 50.6062 38.3305C48.97 42.2974 46.7054 46.5357 44.2023 50.6915C39.1971 59.0015 33.2845 66.9063 29.6725 71.5329C28.336 73.2337 25.8894 73.2337 24.5529 71.533C20.9409 66.9064 15.0282 59.0015 10.023 50.6915C7.51997 46.5357 5.25536 42.2974 3.61917 38.3305C1.97637 34.3476 1 30.7157 1 27.75C1 12.9599 12.7183 1 27.1127 1C41.5071 1 53.2253 12.9599 53.2253 27.75ZM17.0751 27.75C17.0751 33.3822 21.5538 38 27.1127 38C32.6715 38 37.1502 33.3822 37.1502 27.75C37.1502 22.1178 32.6715 17.5 27.1127 17.5C21.5538 17.5 17.0751 22.1178 17.0751 27.75Z" stroke="#27DBBB" stroke-width="2"/>
</svg>
