<svg width="70" height="54" viewBox="0 0 70 54" fill="none" xmlns="http://www.w3.org/2000/svg">
<path d="M1 6.65625C1 3.52031 3.50506 1 6.5625 1H63.4375C66.4949 1 69 3.52031 69 6.65625C69 8.44026 68.1733 10.1141 66.7694 11.1855C66.7691 11.1857 66.7688 11.1859 66.7685 11.1862L37.0218 33.8149C35.8201 34.7237 34.1799 34.7237 32.9782 33.8149L3.2315 11.1862C3.23143 11.1861 3.23136 11.1861 3.23129 11.186C1.82696 10.1147 1 8.44057 1 6.65625ZM1 44.375V17.5484L29.1446 38.9584C32.6195 41.6018 37.3805 41.6018 40.8554 38.9584L69 17.5484V44.375C69 48.7313 65.5106 52.25 61.25 52.25H8.75C4.48944 52.25 1 48.7313 1 44.375Z" stroke="#27DBBB" stroke-width="2"/>
</svg>
