<?xml version="1.0" encoding="UTF-8"?>
<svg id="Layer_2" data-name="Layer 2" xmlns="http://www.w3.org/2000/svg" viewBox="0 0 596.91 545.1">
  <defs>
    <style>
      .cls-1 {
        fill: #1ea890;
      }

      .cls-2 {
        fill: #fff;
      }

      .cls-3 {
        fill: #27dbbb;
      }
    </style>
  </defs>
  <g id="Object">
    <g>
      <g>
        <path class="cls-1" d="m596.82,538.04l-80.05-433.37c-.52-2.86-3.03-4.96-5.93-4.96h-63.41c-1.59,0-3.15.64-4.29,1.78-1.11,1.12-1.75,2.67-1.75,4.26v209.86h-4.83l-214.56-163.33c-1.81-1.38-4.27-1.62-6.32-.61-2.06,1.02-3.37,3.13-3.37,5.41v148.75L10.63,152.29c-1.82-1.38-4.28-1.62-6.32-.61-2.06,1.02-3.36,3.13-3.36,5.41v381.98c0,1.59.64,3.15,1.77,4.28,1.12,1.12,2.68,1.76,4.27,1.76h583.89c1.79,0,3.47-.79,4.62-2.15,1.15-1.37,1.63-3.15,1.32-4.91Z"/>
        <polygon class="cls-2" points=".08 143.67 205.37 299.81 205.28 265.41 0 109.28 .08 143.67"/>
        <polygon class="cls-2" points="215.49 146.22 420.76 302.36 420.68 268.95 215.39 112.81 215.49 146.22"/>
        <path class="cls-3" d="m421.73,9.93c-10.29-6.14-24.51-9.93-40.23-9.93-17.43,0-33.03,4.67-43.44,12.02-4.28-.41-8.75-.65-13.36-.65-31.36,0-56.8,10.01-56.8,22.36s25.44,22.36,56.8,22.36c4.61,0,9.08-.24,13.36-.64,10.41,7.33,26.01,12.02,43.44,12.02,15.72,0,29.95-3.79,40.23-9.93,10.28,6.14,24.5,9.93,40.22,9.93,31.37,0,56.8-15.11,56.8-33.73S493.33,0,461.95,0c-15.72,0-29.95,3.79-40.22,9.93Z"/>
      </g>
      <path class="cls-2" d="m61.9,336.82c-1.39,0-2.72.57-3.7,1.52-.97.98-1.53,2.33-1.53,3.7v53.02c0,1.38.56,2.72,1.53,3.7.98.97,2.31,1.53,3.7,1.53h78.3c1.39,0,2.7-.54,3.69-1.53.99-.99,1.53-2.3,1.53-3.7v-53.02c0-1.38-.53-2.71-1.53-3.68-.99-.99-2.3-1.54-3.69-1.54H61.9Z"/>
      <path class="cls-2" d="m272.51,336.82c-1.38,0-2.74.57-3.69,1.52-.99.98-1.55,2.33-1.55,3.7v53.02c0,1.38.56,2.72,1.55,3.7.96.97,2.31,1.53,3.69,1.53h78.3c1.4,0,2.71-.54,3.7-1.53.98-.99,1.53-2.3,1.53-3.7v-53.02c0-1.38-.54-2.71-1.53-3.68-.99-.99-2.3-1.54-3.7-1.54h-78.3Z"/>
    </g>
  </g>
</svg>