<svg width="24" height="24" viewBox="0 0 24 24" fill="none" xmlns="http://www.w3.org/2000/svg">
<rect width="24" height="24" rx="3" fill="#0A2D49"/>
<path d="M8.84375 17H6.66406V9.99219H8.84375V17ZM7.74219 9.05469C7.0625 9.05469 6.5 8.46875 6.5 7.76562C6.5 6.80469 7.53125 6.19531 8.375 6.6875C8.77344 6.89844 9.00781 7.32031 9.00781 7.76562C9.00781 8.46875 8.44531 9.05469 7.74219 9.05469ZM16.9766 17H14.8203V13.6016C14.8203 12.7812 14.7969 11.75 13.6719 11.75C12.5469 11.75 12.3828 12.6172 12.3828 13.5312V17H10.2031V9.99219H12.2891V10.9531H12.3125C12.6172 10.4141 13.3203 9.82812 14.375 9.82812C16.5781 9.82812 17 11.2812 17 13.1562V17H16.9766Z" fill="white"/>
</svg>
