<svg width="160" height="54" viewBox="0 0 160 54" fill="none" xmlns="http://www.w3.org/2000/svg">
<path fill-rule="evenodd" clip-rule="evenodd" d="M143.486 23.0666L141.796 26.2212H138.089L146.462 10.9528C146.715 10.4733 147.017 10.0948 147.37 9.79194C147.724 9.4891 148.228 9.33768 148.884 9.33768C149.54 9.33768 150.044 9.4891 150.397 9.79194C150.75 10.0948 151.053 10.4986 151.305 10.9528L159.653 26.2212H155.921L154.382 23.4199L148.833 13.0475L143.486 23.0666Z" fill="white"/>
<path fill-rule="evenodd" clip-rule="evenodd" d="M131.229 26.2212V12.8709H125.176V9.69099H140.536V12.8709H134.483V26.2212H131.229Z" fill="white"/>
<path d="M123.511 9.69099H120.282V26.2212H123.511V9.69099Z" fill="white"/>
<path fill-rule="evenodd" clip-rule="evenodd" d="M109.74 26.2212C108.68 26.2212 107.797 26.1203 107.091 25.9184C106.385 25.7165 105.83 25.3884 105.401 24.9594C104.973 24.5051 104.67 23.9246 104.493 23.218C104.317 22.4861 104.241 21.6028 104.241 20.5681V9.69099H107.444V20.4167C107.444 20.8962 107.495 21.3 107.57 21.6533C107.646 21.9814 107.797 22.259 107.974 22.4861C108.176 22.7133 108.428 22.8647 108.756 22.9656C109.084 23.0666 109.513 23.1171 110.017 23.1171H118.592V26.2212H109.74Z" fill="white"/>
<path d="M101.769 9.69099H98.541V26.2212H101.769V9.69099Z" fill="white"/>
<path fill-rule="evenodd" clip-rule="evenodd" d="M86.4603 26.2212C85.4009 26.2212 84.5182 26.1203 83.812 25.9184C83.1058 25.7165 82.5509 25.3884 82.1221 24.9594C81.6933 24.5051 81.3907 23.9246 81.2141 23.218C81.0376 22.4861 80.9619 21.6028 80.9619 20.5681V15.3693C80.9619 14.3346 81.0376 13.4513 81.2141 12.7194C81.3907 11.9876 81.6933 11.4071 82.1221 10.9528C82.5509 10.4986 83.1058 10.1957 83.812 9.99384C84.5182 9.79194 85.4009 9.69099 86.4603 9.69099H96.4733V12.8709H86.6116C86.1072 12.8709 85.7036 12.9213 85.4009 12.997C85.0731 13.098 84.8208 13.2242 84.6443 13.4513C84.4677 13.6532 84.3416 13.9308 84.266 14.2841C84.1903 14.6374 84.1651 15.0665 84.1651 15.546V20.4167C84.1651 20.9467 84.1903 21.3505 84.266 21.7038C84.3416 22.0319 84.4677 22.3095 84.6443 22.5366C84.8208 22.7385 85.0731 22.8899 85.4009 22.9656C85.7288 23.0413 86.1324 23.0918 86.6368 23.0918H96.4733V26.2212H86.4603Z" fill="white"/>
<path fill-rule="evenodd" clip-rule="evenodd" d="M64.29 23.0666L62.6002 26.2212H58.8926L67.2662 10.9528C67.5184 10.4733 67.8211 10.0948 68.1742 9.79194C68.5273 9.4891 69.0317 9.33768 69.6875 9.33768C70.3433 9.33768 70.8477 9.4891 71.2008 9.79194C71.5539 10.0948 71.8566 10.4986 72.1088 10.9528L80.4572 26.2212H76.7244L75.1858 23.4199L69.637 13.0475L64.29 23.0666Z" fill="white"/>
<path fill-rule="evenodd" clip-rule="evenodd" d="M47.1143 20.0129V26.2212H43.9111V15.3693C43.9111 14.3346 43.9868 13.4513 44.1634 12.7194C44.3399 11.9876 44.6426 11.4071 45.0713 10.9528C45.5001 10.4986 46.055 10.1957 46.7612 9.99384C47.4674 9.79194 48.3502 9.69099 49.4095 9.69099H59.2964V12.8709H49.5104C48.6276 12.8709 47.9971 13.0727 47.644 13.5018C47.2908 13.9308 47.1143 14.6122 47.1143 15.5964V16.8835H55.2609V20.0129H47.1143Z" fill="white"/>
<path d="M67.3168 37.8302V33.8932L62.4238 29.4768H64.946L68.3005 32.4547L71.7307 29.4768H74.1015L69.1833 33.9185V37.8302H67.3168ZM56.8498 34.4737H60.8853L58.8676 31.1677L56.8498 34.4737ZM61.7681 35.887H55.9923L54.8069 37.805H52.663L57.5056 30.0825C57.6569 29.8553 57.8335 29.6534 58.0352 29.502C58.237 29.3506 58.5397 29.2749 58.918 29.2749C59.2963 29.2749 59.5738 29.3506 59.7755 29.502C59.9773 29.6534 60.1539 29.8553 60.3052 30.0825L65.1226 37.805H62.9787L61.7681 35.887ZM51.5785 32.2276C51.5785 31.7733 51.4776 31.4705 51.301 31.3191C51.0993 31.1677 50.7714 31.0667 50.2669 31.0667H45.5V33.9185H50.2922C50.7714 33.9185 51.1245 33.8428 51.301 33.6914C51.4776 33.5399 51.5785 33.2371 51.5785 32.8081V32.2276ZM45.4748 35.4327V37.8302H43.6084V29.4768H50.2922C50.8975 29.4768 51.3767 29.5273 51.7802 29.6282C52.1838 29.7292 52.5117 29.8806 52.7387 30.0825C52.9909 30.3096 53.1674 30.5872 53.2683 30.9153C53.3692 31.2686 53.4197 31.6724 53.4197 32.1771V32.909C53.4197 33.4137 53.3692 33.8175 53.2683 34.1456C53.1674 34.4737 52.9909 34.7261 52.7639 34.928C52.5117 35.1299 52.209 35.256 51.8055 35.3318C51.4019 35.4075 50.8975 35.4579 50.2922 35.4579H45.4748V35.4327Z" fill="white"/>
<path fill-rule="evenodd" clip-rule="evenodd" d="M0 0H28.2484C29.8373 0 31.1489 1.31232 31.1489 2.90225V17.994C31.1489 19.5839 29.8373 20.8962 28.2484 20.8962H24.1877C12.0812 10.0695 10.6436 8.68152 0 0Z" fill="white"/>
<path fill-rule="evenodd" clip-rule="evenodd" d="M0 0L16.7977 21.4514C17.5291 22.4104 18.1344 24.7827 18.1344 26.7259V50.2468C18.1344 53.5528 17.1003 54.9409 15.8645 53.3257L1.36197 34.7765C0.630544 33.8175 0.0252218 31.4453 0.0252218 29.502V0H0Z" fill="white"/>
</svg>
