<svg width="373" height="54" viewBox="0 0 373 54" fill="none" xmlns="http://www.w3.org/2000/svg">
<path d="M9.43133 4.66377H2.11719V11.9832H9.43133V4.66377Z" fill="white"/>
<path d="M5.774 20.4479H0V26.2261H5.774V20.4479Z" fill="white"/>
<path d="M25.0288 3.41418H18.2332V12.8153H8.60266V23.7699H19.6383V14.2122H25.0288C29.5695 14.2122 33.2603 17.9088 33.2603 22.4497C33.2603 26.9906 29.5664 30.6872 25.0288 30.6872H8.55664V53.5145H19.3468V41.4853H25.0319C35.5214 41.4853 44.0536 32.9469 44.0536 22.4497C44.0536 11.9525 35.5184 3.41418 25.0288 3.41418Z" fill="white"/>
<path d="M59.6292 15.0136H48.1855V53.5145H59.6292V15.0136Z" fill="white"/>
<path d="M94.8913 27.8595L110.989 4.74975V2.75716H99.1374L87.6998 19.8308L76.2592 2.75716H64.4075V4.74975L80.4378 27.8595L64.1405 51.3531L63.9258 51.6631V53.5176H75.9769L87.6998 36.2812L99.4196 53.5176H111.474V51.6601L94.8913 27.8595Z" fill="white"/>
<path d="M59.6446 2.74181H48.1855V11.9986H59.6446V2.74181Z" fill="#27DBBB"/>
<path d="M148.919 32.6921H157.856V41.1936C157.372 41.7585 155.927 43.3366 153.662 44.9178C152.009 46.0691 150.26 46.9871 148.459 47.6442C146.216 48.4639 143.891 48.8784 141.544 48.8784C138.635 48.8784 135.877 48.3104 133.337 47.1929C130.886 46.1121 128.713 44.5524 126.876 42.5506C123.142 38.4856 121.083 32.8794 121.083 26.7573C121.083 20.6352 123.185 15.075 127.001 10.9977C128.882 8.98975 131.1 7.42085 133.601 6.33705C136.193 5.21027 139.01 4.63921 141.967 4.63921C144.069 4.63921 146.167 4.89404 148.198 5.39756C149.827 5.79976 151.423 6.36469 152.935 7.07084C155.522 8.28052 156.991 9.50555 157.007 9.51783L157.678 10.0858L160.572 6.41381L159.992 5.87959C159.924 5.81818 158.326 4.36288 155.298 2.91066C153.534 2.06634 151.638 1.39088 149.665 0.908855C147.204 0.307086 144.615 6.10352e-05 141.97 6.10352e-05C134.914 6.10352e-05 128.379 2.76943 123.568 7.79542C118.794 12.7846 116.162 19.5176 116.162 26.7573C116.162 33.9969 118.742 40.7638 123.427 45.7406C128.146 50.7513 134.579 53.5114 141.538 53.5114C144.155 53.5114 146.716 53.1092 149.146 52.3171C151.091 51.6846 152.96 50.8004 154.696 49.692C156.037 48.8354 157.092 47.9788 157.85 47.2911C157.85 47.3402 157.85 47.3863 157.85 47.4354V52.6518H162.627V28.1235H148.913V32.689L148.919 32.6921Z" fill="#27DBBB"/>
<path d="M176.507 0.865875H171.73V52.6579H200.389V48.0924H176.507V0.865875Z" fill="#27DBBB"/>
<path d="M236.306 2.04177C233.091 0.690861 229.67 0.00619507 226.139 0.00619507C222.607 0.00619507 219.187 0.690861 215.971 2.04177C212.848 3.35277 210.05 5.23483 207.651 7.63576C202.699 12.5911 199.975 19.2567 199.975 26.4042C199.975 30.1131 200.668 33.696 202.033 37.0487C203.349 40.2817 205.236 43.177 207.645 45.6577C210.044 48.1293 212.842 50.0666 215.965 51.4175C219.183 52.8114 222.607 53.5176 226.142 53.5176C229.676 53.5176 233.097 52.8114 236.318 51.4175C239.442 50.0666 242.24 48.1293 244.639 45.6577C247.044 43.18 248.934 40.2817 250.25 37.0487C251.615 33.696 252.309 30.1161 252.309 26.4042C252.309 19.2536 249.581 12.5881 244.633 7.63576C242.233 5.23483 239.435 3.35277 236.312 2.04177H236.306ZM247.385 26.4042C247.385 32.5232 245.173 38.2093 241.157 42.4186C239.215 44.4542 236.944 46.0507 234.407 47.1591C231.799 48.3012 229.016 48.8815 226.136 48.8815C223.255 48.8815 220.475 48.3012 217.864 47.1591C215.33 46.0476 213.06 44.4542 211.118 42.4186C207.102 38.2124 204.89 32.5232 204.89 26.4042C204.89 20.2852 207.099 14.9583 211.105 10.8933C215.078 6.86206 220.417 4.64227 226.133 4.64227C231.848 4.64227 237.187 6.86206 241.16 10.8933C245.17 14.9583 247.375 20.4694 247.375 26.4042H247.385Z" fill="#27DBBB"/>
<path d="M288.324 26.2875C287.682 25.8209 287.001 25.4248 286.289 25.1055C287.744 24.1537 288.931 22.9502 289.836 21.5072C291.122 19.4593 291.772 17.0123 291.772 14.2399C291.772 12.2596 291.431 10.4051 290.76 8.73492C290.106 7.10769 289.149 5.68002 287.919 4.49491C286.707 3.32514 285.262 2.41942 283.62 1.8023C281.973 1.18211 280.172 0.868942 278.267 0.868942H260.613V52.661H278.981C281.065 52.661 283.034 52.311 284.841 51.6232C286.636 50.9416 288.219 49.9407 289.548 48.6543C290.895 47.3494 291.941 45.7867 292.662 44.0059C293.401 42.1761 293.775 40.1528 293.775 37.9975C293.775 34.7154 292.892 31.7004 291.22 29.2749C290.41 28.102 289.437 27.0981 288.327 26.2875H288.324ZM285.983 30.5091C287.86 32.3482 288.854 34.9364 288.854 37.9944C288.854 41.0524 287.909 43.6467 286.124 45.4121C284.347 47.1652 281.78 48.0924 278.693 48.0924H265.384V27.7551H278.619C280.107 27.7551 281.503 27.9977 282.764 28.4766C283.998 28.9433 285.081 29.628 285.98 30.5091H285.983ZM265.387 23.1897V5.42826H278.122C280.761 5.42826 282.97 6.25109 284.507 7.80463C286.041 9.35818 286.854 11.581 286.854 14.2368C286.854 16.8926 286.016 19.1584 284.433 20.7672C282.875 22.3515 280.718 23.1866 278.193 23.1866H265.387V23.1897Z" fill="#27DBBB"/>
<path d="M315.5 0.865875L296.129 52.6579H301.237L307.674 35.3417H327.733L334.24 52.6579H339.345L319.97 0.865875H315.5ZM326.021 30.7762H309.383L316.602 11.6056V11.5995C316.967 10.6078 317.387 9.27222 317.737 8.10552C318.087 9.27222 318.504 10.6078 318.869 11.5995L326.021 30.7793V30.7762Z" fill="#27DBBB"/>
<path d="M349.117 48.0924V0.865875H344.34V52.6579H373.001V48.0924H349.117Z" fill="#27DBBB"/>
</svg>
