<svg width="173" height="62" viewBox="0 0 173 62" fill="none" xmlns="http://www.w3.org/2000/svg">
<path d="M71.1195 58.5214C70.5231 58.5214 70.0371 58.04 70.0371 57.4441V22.4796C70.0371 15.4619 75.7733 9.75524 82.822 9.75524L93.1955 9.7716C100.223 9.78562 105.938 15.4853 105.938 22.4796V29.9226C105.938 36.9403 100.202 42.647 93.1532 42.647H78.497C77.9006 42.647 77.4145 42.1656 77.4145 41.5696C77.4145 40.9737 77.8982 40.4923 78.497 40.4923H93.1532C99.0091 40.4923 103.776 35.7508 103.776 29.9203V22.4773C103.776 16.6701 99.0279 11.9332 93.1908 11.9215L82.8196 11.9052C76.9637 11.9052 72.1996 16.6467 72.1996 22.4773V57.4418C72.1996 58.0354 71.7159 58.5191 71.1172 58.5191L71.1195 58.5214ZM117.061 42.8035C116.464 42.8035 115.978 42.3221 115.978 41.7262V15.6068C115.978 13.5644 114.309 11.9028 112.257 11.9028H107.758C107.161 11.9028 106.675 11.4214 106.675 10.8255C106.675 10.2296 107.159 9.74823 107.758 9.74823H112.257C115.501 9.74823 118.141 12.3749 118.141 15.6045V41.7239C118.141 42.3175 117.657 42.8012 117.058 42.8012L117.061 42.8035Z" fill="#939598"/>
<path d="M116.095 6.78038L114.054 4.74962C113.547 4.24485 113.547 3.42928 114.054 2.92451L116.095 0.896093C116.602 0.391325 117.424 0.391325 117.931 0.896093L119.971 2.92451C120.478 3.42928 120.478 4.24485 119.971 4.74962L117.931 6.78038C117.424 7.28515 116.604 7.28515 116.097 6.78038H116.095Z" fill="#32BCAD"/>
<path d="M130.153 42.5745H125.692C125.095 42.5745 124.609 42.0931 124.609 41.4972C124.609 40.9013 125.093 40.4199 125.692 40.4199H130.153C132.177 40.4199 134.079 39.637 135.509 38.2115L145.946 27.8241C147.716 26.062 150.599 26.062 152.372 27.8241L162.771 38.1741C164.201 39.5973 166.103 40.3825 168.127 40.3825H171.755C172.351 40.3825 172.837 40.8639 172.837 41.4598C172.837 42.0557 172.354 42.5371 171.755 42.5371H168.127C165.526 42.5371 163.081 41.5299 161.243 39.6978L150.844 29.3477C149.916 28.4246 148.406 28.4246 147.477 29.3477L137.04 39.7352C135.201 41.565 132.757 42.5745 130.155 42.5745H130.153ZM149.158 25.8003C147.944 25.8003 146.803 25.3306 145.946 24.4753L135.509 14.0878C134.079 12.6647 132.177 11.8795 130.153 11.8795H125.692C125.095 11.8795 124.609 11.3981 124.609 10.8022C124.609 10.2063 125.093 9.72485 125.692 9.72485H130.153C132.755 9.72485 135.199 10.7321 137.037 12.5642L147.474 22.9516C147.925 23.4003 148.521 23.6457 149.158 23.6457C149.794 23.6457 150.39 23.4003 150.841 22.9516L161.241 12.6016C163.079 10.7718 165.526 9.76458 168.125 9.76458H171.753C172.349 9.76458 172.835 10.246 172.835 10.8419C172.835 11.4378 172.351 11.9192 171.753 11.9192H168.125C166.101 11.9192 164.199 12.702 162.769 14.1252L152.37 24.4753C151.51 25.3306 150.372 25.8003 149.158 25.8003Z" fill="#939598"/>
<path d="M44.5159 48.134C42.2759 48.134 40.1698 47.267 38.5872 45.6896L30.0264 37.1693C29.4253 36.5687 28.3781 36.571 27.777 37.1693L19.1833 45.7223C17.6008 47.2974 15.4923 48.1643 13.2546 48.1643H11.5664L22.4095 58.9561C25.7953 62.3259 31.2873 62.3259 34.6731 58.9561L45.5467 48.134H44.5159Z" fill="#32BCAD"/>
<path d="M13.2527 17.9927C15.4927 17.9927 17.5988 18.8597 19.1814 20.4371L27.7751 28.9901C28.3949 29.6071 29.4046 29.6094 30.0245 28.9901L38.5853 20.4675C40.1678 18.8924 42.2763 18.0231 44.514 18.0231H45.5448L34.6712 7.20099C31.2853 3.8312 25.7934 3.8312 22.4075 7.20099L11.5645 17.9927H13.2503H13.2527Z" fill="#32BCAD"/>
<path d="M54.5425 26.9758L47.9705 20.4348C47.8249 20.4933 47.6699 20.5283 47.5032 20.5283H44.5166C42.9716 20.5283 41.4595 21.1523 40.3676 22.2389L31.8068 30.7592C31.0062 31.5561 29.9543 31.9557 28.9023 31.9557C27.8504 31.9557 26.7985 31.5561 25.9979 30.7592L17.4042 22.2062C16.3124 21.1195 14.8002 20.4956 13.2553 20.4956H9.58063C9.42332 20.4956 9.27774 20.4582 9.13921 20.4068L2.54132 26.9735C-0.844502 30.3433 -0.844502 35.8092 2.54132 39.179L9.13921 45.7457C9.27774 45.6943 9.42332 45.6569 9.58063 45.6569H13.2553C14.8002 45.6569 16.3124 45.0329 17.4042 43.9463L25.9979 35.3933C27.5499 33.8486 30.2571 33.8486 31.8092 35.3933L40.37 43.9136C41.4618 45.0002 42.9739 45.6242 44.5189 45.6242H47.5056C47.6723 45.6242 47.8273 45.6592 47.9728 45.7176L54.5449 39.179C57.9307 35.8092 57.9307 30.3433 54.5449 26.9735L54.5425 26.9758Z" fill="#32BCAD"/>
<path d="M80.0372 54.4739C79.5535 54.4739 78.9876 54.5908 78.4288 54.717V56.8482C78.8162 56.9884 79.2576 57.0562 79.6803 57.0562C80.7533 57.0562 81.2628 56.6963 81.2628 55.7546C81.2628 54.8689 80.8449 54.4739 80.0348 54.4739H80.0372ZM78.0672 58.4303V54.2169H78.3607L78.3912 54.4015C78.889 54.2847 79.5746 54.1328 80.0653 54.1328C80.4645 54.1328 80.8449 54.1935 81.1642 54.4506C81.5329 54.7497 81.6479 55.2311 81.6479 55.7569C81.6479 56.2827 81.4648 56.8248 80.9599 57.1123C80.6101 57.3086 80.1381 57.388 79.7131 57.388C79.2882 57.388 78.8608 57.3203 78.4241 57.1917V58.4326H78.0625L78.0672 58.4303Z" fill="#939598"/>
<path d="M84.3477 54.4599C83.2746 54.4599 82.7956 54.7964 82.7956 55.7359C82.7956 56.6753 83.2676 57.0562 84.3477 57.0562C85.4277 57.0562 85.8926 56.7267 85.8926 55.7849C85.8926 54.8432 85.4207 54.4599 84.3477 54.4599ZM85.7283 57.0562C85.3737 57.3133 84.8947 57.3857 84.3477 57.3857C83.8006 57.3857 83.3098 57.3063 82.96 57.0562C82.5679 56.7805 82.4082 56.3294 82.4082 55.7616C82.4082 55.1937 82.5679 54.7427 82.96 54.4599C83.3098 54.2099 83.7888 54.1304 84.3477 54.1304C84.9065 54.1304 85.3714 54.2099 85.7283 54.4599C86.1274 54.7427 86.2801 55.1984 86.2801 55.7546C86.2801 56.3107 86.1204 56.7805 85.7283 57.0562Z" fill="#939598"/>
<path d="M90.8096 57.2993L89.6121 54.7427H89.5886L88.4099 57.2993H88.0859L86.8086 54.2169H87.2078L88.2691 56.8039H88.2949L89.4478 54.2169H89.7788L90.9622 56.8039H90.988L92.0235 54.2169H92.4109L91.1336 57.2993H90.8096Z" fill="#939598"/>
<path d="M94.7239 54.4553C93.7307 54.4553 93.3926 54.8946 93.3316 55.5302H96.1163C96.0858 54.8292 95.7242 54.4553 94.7239 54.4553ZM94.7122 57.3857C94.1158 57.3857 93.7307 57.2993 93.4231 57.0422C93.0615 56.7314 92.9395 56.2804 92.9395 55.7616C92.9395 55.2428 93.1062 54.7427 93.5171 54.4412C93.8599 54.2029 94.2849 54.1304 94.7263 54.1304C95.1254 54.1304 95.5856 54.1725 95.966 54.4296C96.4145 54.7287 96.499 55.2545 96.499 55.8527H93.3198C93.3316 56.4884 93.5405 57.0492 94.7427 57.0492C95.3133 57.0492 95.8463 56.9581 96.3441 56.8716V57.1941C95.8275 57.2852 95.2569 57.3834 94.7122 57.3834V57.3857Z" fill="#939598"/>
<path d="M97.5375 57.2993V54.2146H97.831L97.8615 54.3992C98.5166 54.2333 98.8242 54.1304 99.4018 54.1304H99.4441V54.4716H99.3572C98.8712 54.4716 98.5777 54.5371 97.8967 54.7147V57.2969H97.5352L97.5375 57.2993Z" fill="#939598"/>
<path d="M101.548 54.4553C100.555 54.4553 100.217 54.8946 100.156 55.5302H102.941C102.91 54.8292 102.548 54.4553 101.548 54.4553ZM101.536 57.3857C100.94 57.3857 100.555 57.2993 100.247 57.0422C99.8858 56.7314 99.7637 56.2804 99.7637 55.7616C99.7637 55.2428 99.9304 54.7427 100.341 54.4412C100.684 54.2029 101.109 54.1304 101.55 54.1304C101.95 54.1304 102.41 54.1725 102.79 54.4296C103.239 54.7287 103.323 55.2545 103.323 55.8527H100.144C100.156 56.4884 100.365 57.0492 101.567 57.0492C102.138 57.0492 102.67 56.9581 103.168 56.8716V57.1941C102.652 57.2852 102.081 57.3834 101.536 57.3834V57.3857Z" fill="#939598"/>
<path d="M107.286 54.6679C106.898 54.5277 106.457 54.4599 106.034 54.4599C104.961 54.4599 104.451 54.8198 104.451 55.7616C104.451 56.6519 104.869 57.0422 105.679 57.0422C106.163 57.0422 106.729 56.9253 107.288 56.8038V54.6679H107.286ZM107.354 57.2992L107.323 57.1146C106.825 57.2315 106.14 57.3834 105.649 57.3834C105.25 57.3834 104.869 57.3296 104.55 57.0656C104.181 56.7664 104.066 56.285 104.066 55.7592C104.066 55.2334 104.25 54.6913 104.754 54.4085C105.104 54.2075 105.576 54.1281 106.006 54.1281C106.436 54.1281 106.853 54.2005 107.288 54.3244V52.9129H107.649V57.2969H107.356L107.354 57.2992Z" fill="#939598"/>
<path d="M112.957 54.474C112.473 54.474 111.907 54.5908 111.348 54.717V56.8412C111.74 56.9884 112.177 57.0562 112.6 57.0562C113.673 57.0562 114.182 56.6963 114.182 55.7546C114.182 54.8689 113.764 54.474 112.954 54.474H112.957ZM113.882 57.1123C113.532 57.3086 113.06 57.3881 112.637 57.3881C112.177 57.3881 111.717 57.3086 111.25 57.1567L111.231 57.3039H110.984V52.9199H111.346V54.3922C111.844 54.2823 112.511 54.1351 112.985 54.1351C113.384 54.1351 113.764 54.1959 114.084 54.4529C114.452 54.752 114.57 55.2334 114.57 55.7592C114.57 56.285 114.384 56.8272 113.882 57.1146V57.1123Z" fill="#939598"/>
<path d="M115.051 58.4841V58.1499C115.23 58.1686 115.394 58.1803 115.512 58.1803C115.96 58.1803 116.23 58.0518 116.481 57.5447L116.599 57.3016L114.979 54.2169H115.396L116.784 56.8786H116.808L118.127 54.2169H118.538L116.796 57.6802C116.477 58.3088 116.134 58.5168 115.502 58.5168C115.361 58.5168 115.209 58.5051 115.054 58.4864L115.051 58.4841Z" fill="#939598"/>
<path d="M123.524 55.5419H122.322V56.6239H123.531C124.36 56.6239 124.672 56.5327 124.672 56.0794C124.672 55.5956 124.243 55.5419 123.527 55.5419H123.524ZM123.303 53.7892H122.322V54.8876H123.311C124.128 54.8876 124.452 54.7894 124.452 54.3314C124.452 53.843 124.041 53.7869 123.303 53.7869V53.7892ZM125.168 57.0071C124.726 57.2876 124.191 57.2992 123.217 57.2992H121.383V53.1162H123.174C124.015 53.1162 124.529 53.1279 124.959 53.385C125.266 53.5672 125.389 53.85 125.389 54.2145C125.389 54.6539 125.205 54.9483 124.726 55.1423V55.1657C125.266 55.2895 125.616 55.5629 125.616 56.1565C125.616 56.5584 125.468 56.8225 125.168 57.0048V57.0071Z" fill="#939598"/>
<path d="M129.286 56.0046C128.924 55.9742 128.556 55.9555 128.168 55.9555C127.537 55.9555 127.316 56.0841 127.316 56.3715C127.316 56.6402 127.499 56.7875 127.985 56.7875C128.391 56.7875 128.875 56.6963 129.286 56.6029V56.0046ZM129.469 57.2992L129.446 57.1146C128.917 57.2432 128.304 57.3834 127.764 57.3834C127.433 57.3834 127.076 57.3413 126.825 57.1567C126.593 56.9931 126.482 56.7244 126.482 56.4112C126.482 56.063 126.635 55.7405 127.004 55.5746C127.33 55.4227 127.764 55.4087 128.164 55.4087C128.488 55.4087 128.924 55.4274 129.286 55.4508V55.3947C129.286 54.9133 128.967 54.7544 128.095 54.7544C127.757 54.7544 127.346 54.7731 126.954 54.8081V54.1842C127.389 54.1491 127.879 54.1234 128.286 54.1234C128.826 54.1234 129.385 54.1655 129.727 54.4108C130.082 54.6609 130.15 55.0091 130.15 55.4671V57.2922H129.469V57.2992Z" fill="#939598"/>
<path d="M134.196 57.2993V55.5957C134.196 55.0348 133.907 54.8338 133.393 54.8338C133.013 54.8338 132.534 54.932 132.13 55.0301V57.3016H131.266V54.2169H131.972L132.003 54.4109C132.55 54.2706 133.156 54.1304 133.661 54.1304C134.041 54.1304 134.428 54.1842 134.722 54.4482C134.966 54.6679 135.06 54.9741 135.06 55.4134V57.2993H134.201H134.196Z" fill="#939598"/>
<path d="M137.499 57.3857C137.1 57.3857 136.666 57.332 136.346 57.0632C135.966 56.7571 135.855 56.2757 135.855 55.7569C135.855 55.2685 136.015 54.738 136.487 54.4389C136.875 54.1888 137.351 54.1328 137.849 54.1328C138.203 54.1328 138.553 54.1585 138.941 54.1935V54.8525C138.628 54.8221 138.253 54.7988 137.952 54.7988C137.13 54.7988 136.743 55.0558 136.743 55.7639C136.743 56.4299 137.032 56.7174 137.706 56.7174C138.098 56.7174 138.558 56.6449 139.006 56.5584V57.1941C138.52 57.2922 137.995 57.3904 137.497 57.3904L137.499 57.3857Z" fill="#939598"/>
<path d="M141.564 54.7777C140.742 54.7777 140.38 55.0348 140.38 55.7359C140.38 56.4369 140.737 56.7384 141.564 56.7384C142.39 56.7384 142.735 56.4883 142.735 55.7849C142.735 55.0815 142.385 54.7777 141.564 54.7777ZM143.047 57.0632C142.667 57.3203 142.169 57.3857 141.564 57.3857C140.958 57.3857 140.446 57.3109 140.073 57.0632C139.643 56.7828 139.49 56.3177 139.49 55.7616C139.49 55.2054 139.643 54.7357 140.073 54.4552C140.446 54.2052 140.944 54.1328 141.564 54.1328C142.183 54.1328 142.667 54.2052 143.047 54.4552C143.477 54.7357 143.625 55.2054 143.625 55.7569C143.625 56.3084 143.472 56.7828 143.047 57.0632Z" fill="#939598"/>
<path d="M148.62 57.3857C148.099 57.3857 147.535 57.3016 147.11 56.9511C146.608 56.5351 146.455 55.8948 146.455 55.2054C146.455 54.5885 146.652 53.857 147.307 53.4294C147.817 53.0999 148.449 53.0321 149.087 53.0321C149.554 53.0321 150.031 53.0625 150.555 53.1045V53.8547C150.106 53.8173 149.554 53.7869 149.125 53.7869C147.927 53.7869 147.418 54.2379 147.418 55.2031C147.418 56.1682 147.89 56.6262 148.775 56.6262C149.353 56.6262 149.996 56.5094 150.646 56.3762V57.1217C149.996 57.2502 149.315 57.3834 148.622 57.3834L148.62 57.3857Z" fill="#939598"/>
<path d="M153.187 54.6796C152.469 54.6796 152.194 54.9366 152.138 55.4064H154.225C154.199 54.9063 153.906 54.6796 153.187 54.6796ZM153.058 57.3857C152.549 57.3857 152.089 57.3249 151.746 57.0445C151.377 56.7407 151.248 56.2827 151.248 55.7569C151.248 55.2872 151.401 54.7614 151.83 54.4552C152.211 54.1865 152.694 54.1328 153.185 54.1328C153.627 54.1328 154.148 54.1818 154.528 54.4436C155.026 54.7918 155.068 55.3292 155.075 55.9649H152.131C152.15 56.4346 152.401 56.7407 153.272 56.7407C153.812 56.7407 154.413 56.6613 154.923 56.5818V57.1871C154.329 57.2852 153.678 57.388 153.058 57.388V57.3857Z" fill="#939598"/>
<path d="M158.926 57.2993V55.5957C158.926 55.0348 158.638 54.8338 158.123 54.8338C157.743 54.8338 157.264 54.932 156.86 55.0301V57.3016H155.996V54.2169H156.7L156.731 54.4109C157.278 54.2706 157.884 54.1304 158.389 54.1304C158.769 54.1304 159.157 54.1842 159.45 54.4482C159.697 54.6679 159.788 54.9741 159.788 55.4134V57.2993H158.929H158.926Z" fill="#939598"/>
<path d="M162.249 57.3857C161.831 57.3857 161.45 57.2688 161.241 56.9463C161.089 56.7267 161.014 56.4276 161.014 56.0116V54.8572H160.387V54.2169H161.014L161.105 53.2821H161.873V54.2169H163.094V54.8572H161.873V55.848C161.873 56.0864 161.892 56.2873 161.958 56.4346C162.049 56.6426 162.251 56.722 162.521 56.722C162.723 56.722 162.97 56.6916 163.141 56.6612V57.2782C162.859 57.3343 162.533 57.388 162.246 57.388L162.249 57.3857Z" fill="#939598"/>
<path d="M163.938 57.2993V54.2146H164.642L164.672 54.4085C165.243 54.2496 165.666 54.1281 166.206 54.1281C166.229 54.1281 166.267 54.1281 166.316 54.1328V54.8666C166.217 54.8596 166.1 54.8596 166.015 54.8596C165.593 54.8596 165.274 54.9086 164.802 55.0185V57.2969H163.938V57.2993Z" fill="#939598"/>
<path d="M169.464 56.0046C169.102 55.9742 168.733 55.9555 168.346 55.9555C167.714 55.9555 167.494 56.0841 167.494 56.3715C167.494 56.6402 167.679 56.7875 168.163 56.7875C168.569 56.7875 169.053 56.6963 169.464 56.6029V56.0046ZM169.647 57.2992L169.623 57.1146C169.095 57.2432 168.482 57.3834 167.942 57.3834C167.611 57.3834 167.254 57.3413 167.003 57.1567C166.771 56.9931 166.66 56.7244 166.66 56.4112C166.66 56.063 166.813 55.7405 167.181 55.5746C167.505 55.4227 167.942 55.4087 168.341 55.4087C168.665 55.4087 169.102 55.4274 169.464 55.4508V55.3947C169.464 54.9133 169.144 54.7544 168.273 54.7544C167.935 54.7544 167.524 54.7731 167.132 54.8081V54.1842C167.569 54.1491 168.06 54.1234 168.463 54.1234C169.003 54.1234 169.562 54.1655 169.905 54.4108C170.262 54.6609 170.328 55.0091 170.328 55.4671V57.2922H169.647V57.2992Z" fill="#939598"/>
<path d="M171.439 52.9152H172.306V57.2992H171.439V52.9152Z" fill="#939598"/>
</svg>
