<svg width="512" height="174" viewBox="0 0 512 174" fill="none" xmlns="http://www.w3.org/2000/svg">
<path fill-rule="evenodd" clip-rule="evenodd" d="M460.153 73.9733L454.734 84.09H442.844L469.697 35.1252C470.506 33.5875 471.477 32.3735 472.609 31.4023C473.742 30.4311 475.359 29.9455 477.462 29.9455C479.565 29.9455 481.183 30.4311 482.315 31.4023C483.448 32.3735 484.418 33.6684 485.227 35.1252L512 84.09H500.029L495.095 75.1064L477.3 41.8427L460.153 73.9733Z" fill="white"/>
<path fill-rule="evenodd" clip-rule="evenodd" d="M420.843 84.0898V41.276H401.431V31.0784H450.689V41.276H431.277V84.0898H420.843Z" fill="white"/>
<path d="M396.092 31.0784H385.739V84.0898H396.092V31.0784Z" fill="white"/>
<path fill-rule="evenodd" clip-rule="evenodd" d="M351.929 84.0898C348.532 84.0898 345.701 83.766 343.436 83.1186C341.172 82.4711 339.392 81.419 338.017 80.0431C336.642 78.5863 335.671 76.7248 335.105 74.4587C334.539 72.1116 334.296 69.279 334.296 65.9607V31.0784H344.569V65.4751C344.569 67.0128 344.73 68.3078 344.973 69.4408C345.216 70.493 345.701 71.3832 346.267 72.1116C346.914 72.84 347.723 73.3256 348.775 73.6494C349.826 73.9731 351.201 74.135 352.819 74.135H380.32V84.0898H351.929Z" fill="white"/>
<path d="M326.37 31.0784H316.016V84.0898H326.37V31.0784Z" fill="white"/>
<path fill-rule="evenodd" clip-rule="evenodd" d="M277.273 84.0898C273.876 84.0898 271.045 83.766 268.78 83.1186C266.515 82.4711 264.736 81.419 263.361 80.0431C261.986 78.5863 261.015 76.7248 260.449 74.4587C259.883 72.1116 259.64 69.279 259.64 65.9607V49.2884C259.64 45.9701 259.883 43.1375 260.449 40.7904C261.015 38.4433 261.986 36.5818 263.361 35.125C264.736 33.6682 266.515 32.697 268.78 32.0496C271.045 31.4021 273.876 31.0784 277.273 31.0784H309.384V41.276H277.758C276.14 41.276 274.846 41.4378 273.876 41.6806C272.824 42.0044 272.015 42.4091 271.449 43.1375C270.883 43.7849 270.478 44.6752 270.236 45.8083C269.993 46.9413 269.912 48.3172 269.912 49.8549V65.4751C269.912 67.1747 269.993 68.4696 270.236 69.6027C270.478 70.6548 270.883 71.5451 271.449 72.2735C272.015 72.921 272.824 73.4066 273.876 73.6494C274.927 73.8922 276.221 74.054 277.839 74.054H309.384V84.0898H277.273Z" fill="white"/>
<path fill-rule="evenodd" clip-rule="evenodd" d="M206.175 73.9733L200.756 84.09H188.866L215.72 35.1252C216.528 33.5875 217.499 32.3735 218.631 31.4023C219.764 30.4311 221.381 29.9455 223.484 29.9455C225.587 29.9455 227.205 30.4311 228.338 31.4023C229.47 32.3735 230.441 33.6684 231.249 35.1252L258.022 84.09H246.051L241.117 75.1064L223.323 41.8427L206.175 73.9733Z" fill="white"/>
<path fill-rule="evenodd" clip-rule="evenodd" d="M151.093 64.1801V84.0898H140.82V49.2884C140.82 45.9701 141.063 43.1375 141.629 40.7904C142.195 38.4433 143.166 36.5818 144.541 35.125C145.916 33.6682 147.695 32.697 149.96 32.0496C152.225 31.4021 155.056 31.0784 158.453 31.0784H190.16V41.276H158.777C155.946 41.276 153.924 41.9234 152.791 43.2993C151.659 44.6752 151.093 46.8604 151.093 50.0168V54.1444H177.218V64.1801H151.093Z" fill="white"/>
<path d="M215.881 121.319V108.694L200.19 94.5303H208.278L219.036 104.08L230.036 94.5303H237.639L221.867 108.775V121.319H215.881ZM182.314 110.555H195.256L188.785 99.9529L182.314 110.555ZM198.087 115.087H179.564L175.762 121.238H168.887L184.417 96.4727C184.902 95.7443 185.469 95.0969 186.116 94.6113C186.763 94.1257 187.733 93.8829 188.947 93.8829C190.16 93.8829 191.05 94.1257 191.697 94.6113C192.344 95.0969 192.91 95.7443 193.395 96.4727L208.844 121.238H201.969L198.087 115.087ZM165.409 103.352C165.409 101.895 165.086 100.924 164.519 100.438C163.872 99.9529 162.821 99.6291 161.203 99.6291H145.916V108.775H161.284C162.821 108.775 163.953 108.532 164.519 108.046C165.086 107.561 165.409 106.589 165.409 105.214V103.352ZM145.835 113.631V121.319H139.85V94.5303H161.284C163.225 94.5303 164.762 94.6922 166.056 95.0159C167.35 95.3397 168.402 95.8253 169.13 96.4727C169.939 97.2011 170.505 98.0914 170.828 99.1436C171.152 100.277 171.314 101.572 171.314 103.19V105.537C171.314 107.156 171.152 108.451 170.828 109.503C170.505 110.555 169.939 111.364 169.211 112.012C168.402 112.659 167.431 113.064 166.137 113.307C164.843 113.55 163.225 113.712 161.284 113.712H145.835V113.631Z" fill="#1EA890"/>
<path fill-rule="evenodd" clip-rule="evenodd" d="M0 0H90.5908C95.6866 0 99.8926 4.20854 99.8926 9.30735V57.7055C99.8926 62.8044 95.6866 67.0129 90.5908 67.0129H77.5684C38.7438 32.2924 34.1333 27.8411 0 0Z" fill="white"/>
<path fill-rule="evenodd" clip-rule="evenodd" d="M0 0L53.8692 68.7934C56.2148 71.8689 58.1561 79.4766 58.1561 85.7085V161.138C58.1561 171.741 54.8398 176.192 50.8765 171.012L4.36777 111.526C2.02212 108.451 0.080885 100.843 0.080885 94.6112V0H0Z" fill="#1EA890"/>
</svg>
