<?xml version="1.0" encoding="UTF-8"?>
<svg id="Layer_2" data-name="Layer 2" xmlns="http://www.w3.org/2000/svg" viewBox="0 0 1545.84 1489.38">
  <defs>
    <style>
      .cls-1 {
        fill: #fff;
      }

      .cls-2 {
        fill: #00daba;
      }

      .cls-3 {
        fill: #0a2d49;
      }

      .cls-4 {
        fill: #00b294;
      }

      .cls-5 {
        opacity: .3;
      }
    </style>
  </defs>
  <g id="Layer_1-2" data-name="Layer 1">
    <g>
      <g class="cls-5">
        <circle class="cls-4" cx="1435.6" cy="1293.49" r="95.18" transform="translate(-494.16 1393.98) rotate(-45)"/>
        <circle class="cls-4" cx="840.32" cy="126.66" r="95.18"/>
        <circle class="cls-4" cx="464.32" cy="704.19" r="40.59" transform="translate(-303.52 1053.33) rotate(-81.05)"/>
        <rect class="cls-4" x="707.3" y="490.86" width="7.77" height="448.76" transform="translate(-20.33 1409.68) rotate(-88.67)"/>
        <rect class="cls-4" x="1261.08" y="673.51" width="7.77" height="666.95" transform="translate(-337.12 789.1) rotate(-30.78)"/>
        <rect class="cls-4" x="967.01" y="127.86" width="7.77" height="506.38" transform="translate(-69.59 453.38) rotate(-25.41)"/>
      </g>
      <rect class="cls-2" x="638.1" y="276.58" width="15.54" height="474.02" transform="translate(-65.13 932.4) rotate(-68.99)"/>
      <rect class="cls-4" x="636.12" y="889.54" width="280.69" height="15.54" transform="translate(-351.32 528.31) rotate(-31.01)"/>
      <rect class="cls-4" x="1146.56" y="325.75" width="275.86" height="15.54" transform="translate(318.7 1243.68) rotate(-57.86)"/>
      <circle class="cls-2" cx="1094.33" cy="698.85" r="295.33"/>
      <circle class="cls-2" cx="219.73" cy="355.01" r="219.73" transform="translate(-186.67 259.35) rotate(-45)"/>
      <circle class="cls-4" cx="464.32" cy="1075.75" r="219.73" transform="translate(-624.67 643.4) rotate(-45)"/>
      <circle class="cls-4" cx="1414.02" cy="131.82" r="131.82" transform="translate(320.94 1038.47) rotate(-45)"/>
      <rect class="cls-2" x="1086.56" y="953.22" width="15.54" height="311.69"/>
      <circle class="cls-2" cx="1094.33" cy="1357.56" r="131.82"/>
      <g>
        <path class="cls-1" d="m1097.7,1388.44c-10.24,0-20.48,0-30.72,0-7.19,0-11.77-3.33-14.1-10.14-7.08-20.65-14.2-41.28-21.26-61.93-.41-1.21-1.01-1.63-2.26-1.58-2.56.09-5.12.06-7.68.01-4.04-.06-7.04-3.03-7.02-6.89.01-3.86,3.03-6.75,7.08-6.77,3.29-.01,6.58-.02,9.87,0,5.48.03,10.4,3.52,12.23,8.69,1.11,3.15,2.25,6.3,3.23,9.49.44,1.44,1.12,1.92,2.65,1.92,31.4-.05,62.8.21,94.2-.17,10.77-.13,17.17,10,13.48,19.5-5.06,13.05-10.01,26.14-15.05,39.2-2.1,5.43-7.11,8.66-13.31,8.67-10.45.02-20.9,0-31.35,0Zm.99-53.57c-14.63,0-29.25,0-43.88,0q-2.33,0-1.6,2.14c4.1,11.95,8.23,23.89,12.28,35.86.45,1.33,1.1,1.74,2.46,1.74,19.96-.04,39.91-.04,59.87,0,1.36,0,2.03-.41,2.52-1.71,4.57-12.06,9.2-24.1,13.82-36.14q.72-1.88-1.27-1.89c-14.73,0-29.46,0-44.2,0Z"/>
        <path class="cls-1" d="m1068.27,1421.75c-7.54,0-13.5-6.01-13.48-13.58.03-7.37,6.19-13.54,13.5-13.51,7.43.03,13.6,6.2,13.61,13.6.01,7.45-6.1,13.49-13.63,13.48Z"/>
        <path class="cls-1" d="m1128.46,1421.75c-7.54-.01-13.49-6.02-13.46-13.59.03-7.37,6.21-13.54,13.51-13.5,7.44.04,13.6,6.21,13.6,13.62,0,7.45-6.11,13.48-13.64,13.47Z"/>
      </g>
      <g>
        <path class="cls-1" d="m529.34,1123.53c-10.2,1.35-17.83-3.01-24.64-10.22-8.99-9.51-18.44-18.58-27.69-27.85-6.48-6.5-16.08-6.79-22.71-.31-10.31,10.09-20.47,20.33-30.57,30.63-4.87,4.96-10.44,7.86-17.52,7.73-4.53-.08-9.07.06-13.59.25-1.44.06-2.32-.59-3.21-1.49-7.93-7.96-16-15.79-23.78-23.89-12.35-12.85-11.94-33.4.71-46.04,6.86-6.85,13.75-13.66,20.52-20.59,2.35-2.41,4.82-3.63,8.36-3.96,4.91.14,9.39-.53,14.13.19,5.43.82,9.92,3.21,13.75,7.07,10.08,10.17,20.3,20.21,30.26,30.49,7.26,7.49,17.59,7.14,24.26.04,9.81-10.43,20.18-20.34,30.31-30.47,4.66-4.66,10.18-7.21,16.88-7.06,3.71.09,7.42-.02,11.12-.18,1.3-.06,2.15.45,2.98,1.28,8.2,8.28,16.63,16.33,24.54,24.87,11.45,12.34,11.46,31.25-.01,43.58-7.93,8.52-16.39,16.54-24.6,24.8-.95.96-1.95,1.28-3.32,1.16-2.05-.17-4.12-.04-6.18-.04Z"/>
        <path class="cls-1" d="m463.52,968.02c9.73-.17,17.23,3.07,23.43,9.21,13.18,13.05,26.26,26.21,39.37,39.34.48.48,1.38.84,1.1,1.68-.29.86-1.22.66-1.89.63-12.72-.53-21.28,6.78-29.38,15.25-8.41,8.78-17.02,17.38-25.7,25.9-3.22,3.16-6.79,2.84-10.08-.44-9.71-9.68-19.53-19.25-29.03-29.14-7.59-7.91-16.48-12.13-27.52-11.61-.94.04-2.33.57-2.75-.64-.32-.91.89-1.5,1.53-2.14,12.74-12.77,25.51-25.52,38.24-38.3,6.51-6.53,14.26-10,22.67-9.74Z"/>
        <path class="cls-1" d="m464.59,1183.47c-9.4.26-17.25-3.2-23.84-9.82-12.58-12.63-25.2-25.21-37.79-37.84-.69-.69-1.98-1.31-1.56-2.43.44-1.16,1.81-.74,2.77-.7,10.8.49,19.51-3.65,26.94-11.38,9.42-9.8,19.17-19.29,28.8-28.91,3.91-3.9,6.68-4.28,10.68-.56,6.33,5.88,12.36,12.09,18.41,18.26,5.18,5.29,10.15,10.8,15.86,15.55,5.78,4.81,12.53,6.94,20,7,.87,0,2.1-.45,2.53.54.45,1.05-.84,1.5-1.44,2.11-11.58,11.73-23.11,23.51-34.86,35.07-2.98,2.93-5.75,6.15-9.5,8.32-5.94,3.43-10.23,4.78-16.99,4.79Z"/>
      </g>
      <g>
        <path class="cls-1" d="m137.38,392.1c0-4.14.07-8.29-.02-12.43-.04-1.82.6-2.51,2.44-2.46,3.4.1,6.8-.04,10.19.05,1.68.04,2.41-.48,2.35-2.26-.1-3.31-.11-6.63,0-9.94.06-1.84-.59-2.46-2.43-2.44-8.04.08-16.08.04-24.12.03-3.33,0-3.34-.01-3.35-3.24,0-2.82,0-5.64,0-8.45,0-3.58,0-3.59,3.5-3.59,20.97,0,41.94,0,62.91,0,2.15,0,4.31.06,6.46-.01,1.61-.05,2.2.61,2.18,2.2-.06,4.23-.01,8.45,0,12.68-.13.15-.26.3-.39.45-9.04-.01-18.08,0-27.12-.06-1.63-.01-2.4.4-2.4,2.22.05,13.35.05,26.71,0,40.06,0,1.81.74,2.27,2.38,2.23,4.06-.09,8.13-.05,12.19-.06.13.15.26.3.39.45,0,4.15-.07,8.3.02,12.44.04,1.84-.63,2.5-2.46,2.45-3.48-.09-6.97.02-10.45-.04-1.48-.02-2.09.52-2.07,2.03.06,3.57.05,7.13,0,10.7-.02,1.41.61,1.89,1.96,1.88,8.54-.03,17.09-.04,25.63,0,1.58,0,1.98-.72,1.96-2.14-.05-3.4.06-6.8-.04-10.2-.05-1.87.49-2.72,2.52-2.65,3.4.13,6.8.11,10.2,0,1.9-.06,2.71.54,2.62,2.54-.13,3.06-.04,6.14-.03,9.21q0,3.21,3.34,3.21c2.99,0,5.98.11,8.96-.03,2.11-.1,2.74.74,2.67,2.75-.12,3.23-.17,6.48.01,9.7.14,2.39-.86,2.91-3.04,2.9-19.66-.06-39.32-.04-58.98-.04-3.32,0-6.64-.12-9.95.04-2.33.12-3.3-.56-3.15-3.04.19-3.14-.06-6.31.08-9.45.09-2.04-.72-2.57-2.62-2.52-3.98.11-7.96.04-11.94.04-.14-.14-.28-.28-.42-.42,0-4.82,0-9.64,0-14.45.13-.15.26-.3.39-.45,4.06.01,8.13-.02,12.19.06,1.64.03,2.41-.41,2.39-2.22-.07-8.37-.07-16.75,0-25.12.01-1.82-.75-2.26-2.39-2.23-4.06.08-8.12.05-12.19.06-.13-.15-.26-.3-.39-.45Z"/>
        <path class="cls-1" d="m227,392.1c0-3.89.14-7.79-.04-11.67-.11-2.47.63-3.28,3.19-3.26,12.91.12,25.82.01,38.73.1,2.22.02,3.11-.52,2.99-2.9-.19-3.88-.05-7.78-.06-11.67.13-.15.26-.3.39-.46,4.84,0,9.67,0,14.51,0,.13.15.26.3.39.45,0,3.81.12,7.63-.05,11.44-.1,2.34.55,3.18,3.02,3.13,8.04-.15,16.08.02,24.13-.1,2.22-.03,2.81.74,2.81,2.87-.06,23.13-.06,46.26,0,69.4,0,2.17-.64,2.85-2.83,2.85-23.13-.07-46.26-.07-69.4,0-2.4,0-2.91-.9-2.88-3.05.09-8.04-.04-16.09.08-24.13.03-2.24-.72-2.88-2.86-2.78-3.31.15-6.63-.01-9.95.05-1.6.03-2.21-.61-2.19-2.2.06-4.23.01-8.46,0-12.69.13-.15.26-.3.39-.45,4.06.01,8.12-.02,12.18.06,1.63.03,2.45-.39,2.39-2.22-.1-3.4-.1-6.8,0-10.19.06-1.82-.75-2.26-2.39-2.22-4.06.08-8.12.05-12.18.06-.13-.15-.26-.3-.39-.45Zm52.19,44.88c6.71,0,13.43-.03,20.14.02,1.64.01,2.4-.41,2.39-2.22-.05-13.34-.05-26.68,0-40.03,0-1.78-.68-2.27-2.35-2.26-13.26.05-26.52.05-39.78,0-1.89,0-2.4.69-2.39,2.48.05,13.18.07,26.35-.01,39.53-.01,2.03.71,2.54,2.61,2.52,6.46-.09,12.93-.03,19.39-.03Z"/>
        <path class="cls-1" d="m212,287.96c-3.73,0-7.46,0-11.2,0q-3.32,0-3.33,3.23c0,12.77,0,25.54,0,38.31,0,3.26-.02,3.27-3.32,3.27-22.8,0-45.61,0-68.41,0-3.28,0-3.29-.01-3.29-3.3,0-22.8,0-45.61,0-68.41,0-3.3.01-3.32,3.27-3.32,22.8,0,45.61,0,68.41,0,3.32,0,3.33.01,3.34,3.25,0,2.99.14,5.98-.04,8.95-.13,2.27.75,2.85,2.88,2.77,3.89-.15,7.79-.05,11.69-.05.14.14.28.28.42.42,0,4.82,0,9.64,0,14.46-.14.14-.28.28-.42.42Zm-74.27,7.3c0,6.46.07,12.93-.04,19.39-.04,2.12.52,2.89,2.77,2.87,13.01-.1,26.02-.1,39.03,0,2.28.02,2.76-.81,2.74-2.9-.08-12.93-.08-25.86,0-38.78.01-2.12-.52-2.89-2.77-2.87-13.01.1-26.02.1-39.03,0-2.28-.02-2.78.81-2.74,2.9.11,6.46.04,12.93.04,19.39Z"/>
        <path class="cls-1" d="m271.82,347.29c0-3.81-.12-7.63.05-11.44.11-2.34-.56-3.18-3.03-3.13-7.96.15-15.92,0-23.88.09-2.15.02-3.07-.46-3.06-2.87.08-23.14.08-46.27,0-69.41,0-2.2.69-2.83,2.85-2.83,23.14.06,46.27.06,69.41,0,2.16,0,2.86.63,2.85,2.83-.07,23.14-.07,46.27,0,69.41,0,2.42-.92,2.9-3.06,2.87-7.96-.09-15.92.06-23.88-.09-2.47-.05-3.13.8-3.02,3.14.17,3.81.05,7.63.05,11.44-.13.15-.26.3-.39.45-4.84,0-9.67,0-14.51,0-.13-.15-.26-.3-.39-.45Zm7.91-74.27c-6.71,0-13.43.03-20.14-.02-1.64-.01-2.4.41-2.39,2.22.05,13.34.05,26.68,0,40.03,0,1.78.68,2.27,2.35,2.26,13.26-.05,26.52-.05,39.78,0,1.89,0,2.4-.69,2.39-2.48-.05-13.18-.07-26.35.01-39.53.01-2.03-.71-2.54-2.61-2.52-6.46.09-12.93.03-19.39.03Z"/>
        <path class="cls-1" d="m212.07,362.23c0-8.95.06-17.9-.03-26.84-.02-2.22.58-3.13,2.93-3.01,3.31.17,6.63.11,9.94.02,1.79-.05,2.54.55,2.48,2.42-.1,3.39.03,6.79-.05,10.19-.04,1.65.42,2.39,2.23,2.38,14.08-.07,28.17-.07,42.25-.1.13.15.26.3.39.45,0,4.84,0,9.67,0,14.51-.13.15-.26.3-.39.46-19.78-.02-39.55-.04-59.33-.06-.14-.14-.28-.28-.42-.42Z"/>
        <path class="cls-1" d="m287.11,347.29c8.94.02,17.88.12,26.83.02,2.4-.03,3.22.7,3.09,3.1-.18,3.22-.13,6.46-.01,9.68.07,1.95-.63,2.59-2.58,2.58-9.11-.05-18.21.01-27.32.04-.13-.15-.26-.3-.39-.45,0-4.84,0-9.68,0-14.52.13-.15.26-.3.39-.45Z"/>
        <path class="cls-1" d="m197.49,377.65c0,9-.06,18.01.04,27.01.02,2.17-.66,2.9-2.83,2.83-4.04-.13-8.09,0-12.14.03-.13-.15-.26-.3-.39-.45.01-9,.08-18.01,0-27.01-.02-2.12.57-2.95,2.79-2.87,4.04.14,8.09.02,12.14,0,.13.15.26.3.39.45Z"/>
        <path class="cls-1" d="m137.38,422.46c-4.14-.02-8.27-.1-12.41-.04-1.72.02-2.56-.42-2.55-2.35.07-8.52.07-17.05,0-25.57-.02-1.94.83-2.37,2.55-2.35,4.14.06,8.27-.02,12.41-.05.13.15.26.3.39.45,0,9.82,0,19.63,0,29.45-.13.15-.26.3-.39.45Z"/>
        <path class="cls-1" d="m212.43,287.54c4.14.02,8.28.1,12.42.04,1.73-.02,2.55.44,2.54,2.36-.07,8.53-.06,17.06,0,25.59.01,1.72-.61,2.36-2.32,2.32-3.48-.08-6.96-.11-10.43.01-1.95.06-2.59-.63-2.58-2.58.05-9.11-.01-18.21-.04-27.32.14-.14.28-.28.42-.42Z"/>
        <path class="cls-1" d="m197.49,362.23c4.86,0,9.72,0,14.58,0,.14.14.28.28.42.42-.02,4.21-.1,8.42-.04,12.64.02,1.71-.61,2.34-2.32,2.31-4.21-.05-8.42.02-12.63.05-.13-.15-.26-.3-.39-.45,0-4.84,0-9.68,0-14.52.13-.15.26-.3.39-.45Z"/>
        <path class="cls-1" d="m227,407.52c-4.22-.02-8.43-.08-12.65-.06-1.49,0-2.33-.37-2.3-2.08.07-3.72.07-7.44,0-11.16-.03-1.7.81-2.08,2.3-2.07,4.22.03,8.43-.03,12.65-.06.13.15.26.3.39.45,0,4.84,0,9.68,0,14.52-.13.15-.26.3-.39.45Z"/>
        <path class="cls-1" d="m212.01,272.66c.02-4.13.13-8.27.03-12.4-.05-1.98.69-2.61,2.6-2.55,3.47.11,6.95.09,10.42,0,1.72-.04,2.35.61,2.32,2.32-.08,3.55-.08,7.11,0,10.67.04,1.69-.56,2.36-2.3,2.34-4.22-.06-8.43.02-12.65.05-.14-.14-.28-.28-.42-.42Z"/>
        <path class="cls-1" d="m137.8,437.34c-.02,4.13-.13,8.27-.03,12.4.05,1.98-.69,2.61-2.6,2.55-3.47-.11-6.95-.09-10.42,0-1.72.04-2.35-.61-2.32-2.32.08-3.55.08-7.11,0-10.67-.04-1.69.56-2.36,2.3-2.34,4.22.06,8.43-.02,12.65-.05.14.14.28.28.42.42Z"/>
        <path class="cls-1" d="m287.09,414.88c0,1.9-.02,3.81,0,5.71.02,1.26-.55,1.79-1.8,1.79-3.89-.02-7.78-.02-11.68,0-1.26,0-1.79-.55-1.79-1.8.02-3.89.02-7.78,0-11.68,0-1.26.55-1.79,1.8-1.79,3.89.02,7.78.02,11.68,0,1.26,0,1.8.55,1.79,1.8-.03,1.99,0,3.98,0,5.96Z"/>
        <path class="cls-1" d="m152.32,295.07c0-1.57.09-3.15-.02-4.72-.15-1.98.49-2.87,2.63-2.78,3.39.14,6.79.1,10.18.01,1.75-.04,2.58.47,2.52,2.38-.11,3.56-.09,7.12,0,10.68.04,1.77-.72,2.3-2.37,2.26-3.56-.07-7.12-.08-10.68,0-1.77.04-2.34-.72-2.26-2.37.08-1.82.02-3.64.02-5.47Z"/>
        <path class="cls-1" d="m279.54,302.94c-2.45-.27-5.45.96-7.06-.55-1.74-1.63-.56-4.71-.61-7.15-.05-2.37-1.03-5.38.45-6.98,1.62-1.75,4.71-.56,7.15-.61,2.37-.05,5.38-1.03,6.98.45,1.75,1.62.56,4.71.61,7.15.05,2.37,1.02,5.38-.45,6.98-1.62,1.76-4.72.34-7.07.71Z"/>
      </g>
      <path class="cls-1" d="m1439.68,165.54c-4.27,3.06-8.95,5.22-14.11,6.22-1.65.32-2.33,1.04-2.28,2.71.08,2.63-.09,5.28.06,7.9.11,1.93-.5,2.68-2.49,2.5-1.82-.16-3.66-.03-5.5-.03-8.02,0-8.3-.01-7.91-7.88.19-3.79-1.92-4.28-4.46-4.44-7.06-.46-13.71-2.49-20.25-4.96-4.71-1.78-4.78-2.33-2.49-7.13,1.91-4,3.68-8.07,5.33-12.18.81-2.01,1.75-2.2,3.58-1.26,8.54,4.4,17.63,6.26,27.22,5.57.11,0,.24.03.34-.01,2.23-.84,5.69-.05,6.09-3.46.39-3.28-2.4-4.04-4.97-4.85-6.96-2.18-14.3-2.87-21.16-5.44-7.75-2.9-14.34-6.89-16.42-15.81-3.03-13,3.65-24.25,15.28-28.83,3.08-1.21,6.22-2.37,9.53-2.77,1.73-.21,2.33-1.02,2.28-2.69-.07-2.52.06-5.04-.04-7.56-.07-1.7.35-2.49,2.26-2.42,3.89.13,7.79.12,11.68,0,1.75-.05,2.13.69,2.08,2.24-.08,2.63.07,5.27-.05,7.9-.09,1.92.57,2.41,2.52,2.57,6.34.54,12.45,2.17,18.22,4.93,1.05.5,2.1.84,1.24,2.7-2.27,4.92-4.15,10.02-6.2,15.05-.69,1.71-1.44,2.42-3.55,1.39-7.64-3.72-15.82-4.72-24.24-4.25-2.65.15-4.87,1.27-5.4,3.72-.61,2.81,1.63,3.82,4.09,4.7,7.03,2.49,14.57,2.85,21.58,5.37,5.57,2.01,10.9,4.25,14.43,9.52,5.88,8.8,3.94,23.63-6.27,30.96Z"/>
      <g>
        <rect class="cls-1" x="938.79" y="584.24" width="20.87" height="20.87"/>
        <rect class="cls-1" x="932.76" y="629.25" width="16.48" height="16.48"/>
        <path class="cls-1" d="m1004.17,580.68h-19.39v26.8h-27.48v31.23h31.48v-27.25h15.38c12.95,0,23.49,10.54,23.49,23.49s-10.54,23.49-23.49,23.49h-47v65.09h30.79v-34.3h16.22c29.93,0,54.28-24.35,54.28-54.28s-24.35-54.28-54.28-54.28Z"/>
        <rect class="cls-1" x="1070.24" y="613.76" width="32.66" height="109.78"/>
        <polygon class="cls-1" points="1203.51 650.38 1249.44 584.49 1249.44 578.81 1215.63 578.81 1182.99 627.49 1150.35 578.81 1116.53 578.81 1116.53 584.49 1162.27 650.38 1115.76 717.37 1115.15 718.25 1115.15 723.54 1149.54 723.54 1182.99 674.4 1216.43 723.54 1250.82 723.54 1250.82 718.25 1203.51 650.38"/>
        <rect class="cls-3" x="1070.24" y="578.76" width="32.7" height="26.39"/>
        <g>
          <path class="cls-3" d="m995.26,794.73h10.4v9.88c-.56.66-2.24,2.49-4.88,4.33-1.92,1.34-3.96,2.41-6.05,3.17-2.61.95-5.31,1.43-8.04,1.43-3.38,0-6.59-.66-9.54-1.96-2.85-1.26-5.38-3.07-7.52-5.39-4.34-4.72-6.74-11.24-6.74-18.36s2.45-13.58,6.89-18.32c2.19-2.33,4.77-4.16,7.68-5.42,3.02-1.31,6.29-1.97,9.73-1.97,2.45,0,4.88.3,7.25.88,1.9.47,3.75,1.12,5.51,1.95,3.01,1.4,4.72,2.83,4.73,2.84l.78.66,3.36-4.27-.68-.62c-.08-.07-1.94-1.76-5.46-3.45-2.05-.98-4.26-1.77-6.55-2.33-2.86-.7-5.87-1.05-8.95-1.05-8.21,0-15.81,3.22-21.4,9.06-5.55,5.8-8.61,13.63-8.61,22.04s3,16.28,8.45,22.06c5.49,5.83,12.97,9.03,21.07,9.03,3.04,0,6.02-.47,8.85-1.39,2.26-.74,4.43-1.76,6.45-3.05,1.56-1,2.79-1.99,3.67-2.79,0,.06,0,.11,0,.17v6.06h5.55v-28.51h-15.95v5.31Z"/>
          <polygon class="cls-3" points="1027.35 757.73 1021.79 757.73 1021.79 817.93 1055.13 817.93 1055.13 812.63 1027.35 812.63 1027.35 757.73"/>
          <path class="cls-3" d="m1096.9,759.1c-3.74-1.57-7.72-2.37-11.83-2.37s-8.09.8-11.83,2.37c-3.63,1.52-6.89,3.71-9.68,6.5-5.76,5.76-8.93,13.51-8.93,21.81,0,4.31.81,8.47,2.39,12.37,1.53,3.76,3.73,7.12,6.53,10.01,2.79,2.87,6.05,5.12,9.68,6.7,3.74,1.62,7.73,2.44,11.84,2.44s8.09-.82,11.84-2.44c3.63-1.57,6.89-3.82,9.68-6.7,2.8-2.88,5-6.25,6.53-10.01,1.59-3.9,2.39-8.06,2.39-12.37,0-8.31-3.17-16.06-8.93-21.81-2.79-2.79-6.05-4.98-9.68-6.5Zm12.89,28.32c0,7.11-2.57,13.72-7.24,18.61-2.26,2.37-4.9,4.22-7.85,5.51-3.03,1.33-6.27,2-9.62,2s-6.58-.67-9.62-2c-2.95-1.29-5.59-3.14-7.85-5.51-4.67-4.89-7.24-11.5-7.24-18.61s2.57-13.3,7.23-18.03c4.62-4.68,10.83-7.26,17.48-7.26s12.86,2.58,17.48,7.26c4.66,4.73,7.23,11.13,7.23,18.03Z"/>
          <path class="cls-3" d="m1157.41,787.28c-.75-.54-1.54-1-2.37-1.38,1.69-1.1,3.07-2.51,4.12-4.18,1.49-2.38,2.25-5.22,2.25-8.45,0-2.3-.4-4.46-1.18-6.4-.76-1.89-1.87-3.55-3.3-4.93-1.41-1.36-3.09-2.41-5-3.13-1.91-.72-4.01-1.09-6.23-1.09h-20.53v60.2h21.37c2.42,0,4.72-.41,6.82-1.2,2.09-.79,3.93-1.96,5.47-3.45,1.57-1.52,2.78-3.33,3.62-5.4.86-2.13,1.3-4.48,1.3-6.98,0-3.81-1.03-7.32-2.97-10.14-.94-1.36-2.07-2.53-3.37-3.47Zm-2.72,4.91c2.19,2.14,3.34,5.14,3.34,8.7s-1.1,6.57-3.18,8.62c-2.07,2.04-5.05,3.11-8.64,3.11h-15.48v-23.64h15.4c1.73,0,3.35.28,4.82.84,1.43.54,2.69,1.34,3.74,2.36Zm-23.96-8.51v-20.64h14.81c3.07,0,5.64.96,7.43,2.76,1.79,1.8,2.73,4.39,2.73,7.48s-.97,5.72-2.81,7.59c-1.81,1.84-4.32,2.81-7.26,2.81h-14.9Z"/>
          <path class="cls-3" d="m1189.01,757.73l-22.53,60.2h5.94l7.49-20.13h23.33l7.57,20.13h5.94l-22.53-60.2h-5.2Zm12.24,34.77h-19.35l8.4-22.28h0c.42-1.16.91-2.71,1.32-4.07.41,1.36.89,2.91,1.32,4.06l8.32,22.29Z"/>
          <polygon class="cls-3" points="1228.12 812.63 1228.12 757.73 1222.56 757.73 1222.56 817.93 1255.89 817.93 1255.89 812.63 1228.12 812.63"/>
        </g>
      </g>
    </g>
  </g>
</svg>