<?xml version="1.0" encoding="utf-8"?>
<!-- Generator: Adobe Illustrator 26.5.0, SVG Export Plug-In . SVG Version: 6.00 Build 0)  -->
<svg version="1.1" id="Layer_1" xmlns="http://www.w3.org/2000/svg" xmlns:xlink="http://www.w3.org/1999/xlink" x="0px" y="0px"
	 viewBox="0 0 200 34.6" style="enable-background:new 0 0 200 34.6;" xml:space="preserve">
<style type="text/css">
	.st0{fill:#646464;}
</style>
<g>
	<g>
		<path class="st0" d="M16.4,19.8L16.4,19.8c-0.4,0.6-0.9,1.1-1.4,1.6c-0.5,0.4-1.1,0.8-1.7,1.1c-0.6,0.3-1.3,0.5-2,0.6
			c-0.7,0.1-1.4,0.2-2,0.2c-1.3,0-2.6-0.2-3.7-0.7c-1.1-0.5-2.1-1.1-2.9-1.9c-0.8-0.8-1.4-1.8-1.9-2.9C0.2,16.7,0,15.4,0,14.1
			s0.2-2.6,0.7-3.7c0.5-1.1,1.1-2.1,1.9-2.9C3.4,6.6,4.4,6,5.5,5.5c1.1-0.5,2.4-0.7,3.7-0.7c0.7,0,1.3,0.1,2,0.2
			c0.7,0.1,1.3,0.4,2,0.6C13.8,6,14.4,6.3,15,6.8c0.5,0.4,1,1,1.3,1.6h0.1V5.3h2.3v28.5h-2.3V19.8z M16.6,14.1c0-1-0.2-1.9-0.6-2.8
			c-0.4-0.9-0.9-1.6-1.6-2.3c-0.7-0.6-1.4-1.2-2.3-1.5c-0.9-0.4-1.9-0.6-2.9-0.6c-1.1,0-2,0.2-2.9,0.6C5.5,7.8,4.8,8.4,4.1,9
			c-0.6,0.6-1.1,1.4-1.4,2.3c-0.3,0.9-0.5,1.8-0.5,2.8c0,1,0.2,1.9,0.5,2.8c0.3,0.9,0.8,1.6,1.4,2.3c0.6,0.6,1.3,1.2,2.2,1.5
			c0.9,0.4,1.8,0.6,2.9,0.6c1,0,2-0.2,2.9-0.6c0.9-0.4,1.7-0.9,2.3-1.5c0.7-0.6,1.2-1.4,1.6-2.3C16.4,16,16.6,15.1,16.6,14.1"/>
		<path class="st0" d="M37.2,17.9c0,0.3,0,0.7,0,1.2c0,0.5,0,0.9,0.1,1.4c0,0.5,0,0.9,0.1,1.4c0,0.4,0,0.7,0,1h-2.3
			c0-0.7,0-1.3-0.1-1.9c0-0.6,0-1-0.1-1.2h-0.1c-0.5,1-1.2,1.8-2.3,2.5c-1.1,0.7-2.3,1-3.7,1c-1.4,0-2.5-0.2-3.4-0.6
			c-0.9-0.4-1.6-1-2.1-1.7c-0.5-0.7-0.8-1.5-1-2.4c-0.2-0.9-0.3-1.9-0.3-2.8V5.3h2.3v10.4c0,0.7,0.1,1.4,0.2,2.1
			c0.1,0.7,0.3,1.3,0.7,1.8c0.3,0.5,0.8,1,1.3,1.3c0.6,0.3,1.3,0.5,2.2,0.5c0.8,0,1.6-0.1,2.4-0.4c0.7-0.3,1.4-0.7,1.9-1.3
			s1-1.3,1.3-2.2c0.3-0.9,0.5-2,0.5-3.2V5.3h2.3V17.9z"/>
		<path class="st0" d="M55.3,15.5c0,0.9,0,1.6,0,2.3c0,0.7,0,1.3,0.1,1.9c0,0.6,0.1,1.1,0.1,1.6c0,0.5,0.1,1,0.2,1.5h-2.1
			c-0.2-0.9-0.2-1.8-0.2-2.9h-0.1c-0.7,1.1-1.5,2-2.5,2.5c-1,0.5-2.2,0.8-3.7,0.8c-0.8,0-1.5-0.1-2.2-0.3c-0.7-0.2-1.4-0.5-2-0.9
			c-0.6-0.4-1.1-1-1.4-1.6c-0.4-0.7-0.6-1.5-0.6-2.4c0-1.3,0.3-2.4,1-3.2c0.7-0.8,1.5-1.4,2.5-1.8c1-0.4,2.1-0.6,3.2-0.8
			c1.1-0.1,2.1-0.2,3-0.2h2.7v-1.1c0-1.5-0.5-2.6-1.4-3.3c-0.9-0.7-2.1-1-3.5-1c-2,0-3.8,0.7-5.4,2l-1.3-1.6
			c0.8-0.8,1.9-1.4,3.1-1.8c1.2-0.4,2.4-0.6,3.6-0.6c2.1,0,3.8,0.5,5.1,1.5c1.3,1,1.9,2.6,1.9,4.9V15.5z M50.7,14
			c-1,0-1.9,0.1-2.8,0.2c-0.9,0.1-1.7,0.3-2.4,0.6c-0.7,0.3-1.3,0.7-1.7,1.2c-0.4,0.5-0.6,1.1-0.6,1.9c0,0.5,0.1,1,0.4,1.4
			c0.2,0.4,0.5,0.8,0.9,1c0.4,0.3,0.8,0.5,1.3,0.6c0.5,0.1,0.9,0.2,1.4,0.2c1.2,0,2.2-0.2,3-0.5c0.8-0.4,1.4-0.8,1.9-1.4
			c0.5-0.6,0.8-1.2,1-1.9c0.2-0.7,0.3-1.5,0.3-2.2V14H50.7z"/>
		<path class="st0" d="M68,7.3h-5v11.5c0,0.8,0.2,1.4,0.6,1.8c0.4,0.4,1,0.6,1.8,0.6c0.4,0,0.9-0.1,1.3-0.2c0.4-0.1,0.9-0.3,1.3-0.4
			l0.2,2.1c-0.4,0.2-0.9,0.3-1.5,0.4c-0.6,0.1-1.1,0.2-1.5,0.2c-0.8,0-1.5-0.1-2.1-0.4c-0.6-0.2-1.1-0.6-1.4-1
			c-0.4-0.4-0.6-0.9-0.8-1.4c-0.2-0.5-0.2-1.1-0.2-1.8V7.3h-3.8V5.3h3.8V0.2H63v5.1h5V7.3z"/>
		<path class="st0" d="M70.2,10.2c0-0.3,0-0.7,0-1.2c0-0.5,0-0.9-0.1-1.4c0-0.5,0-0.9-0.1-1.4c0-0.4,0-0.7,0-1h2.3
			c0,0.7,0,1.3,0.1,1.9c0,0.6,0,1,0.1,1.2c0.6-1,1.3-1.9,2.2-2.5c0.9-0.7,2-1,3.3-1c0.2,0,0.5,0,0.7,0.1c0.2,0,0.4,0.1,0.7,0.1
			l-0.3,2.2c-0.3-0.1-0.6-0.2-0.9-0.2c-1,0-1.8,0.2-2.6,0.5c-0.7,0.3-1.3,0.8-1.8,1.3c-0.5,0.6-0.8,1.2-1,2
			c-0.2,0.8-0.3,1.6-0.3,2.4v9.6h-2.3V10.2z"/>
		<path class="st0" d="M79.3,14.1c0-1.3,0.2-2.6,0.7-3.7c0.5-1.1,1.1-2.1,1.9-2.9c0.8-0.8,1.8-1.5,2.9-1.9c1.1-0.5,2.4-0.7,3.7-0.7
			c1.3,0,2.6,0.2,3.7,0.7c1.1,0.5,2.1,1.1,2.9,1.9c0.8,0.8,1.5,1.8,1.9,2.9c0.5,1.1,0.7,2.4,0.7,3.7s-0.2,2.6-0.7,3.7
			c-0.5,1.1-1.1,2.1-1.9,2.9c-0.8,0.8-1.8,1.5-2.9,1.9c-1.1,0.5-2.4,0.7-3.7,0.7c-1.3,0-2.6-0.2-3.7-0.7c-1.1-0.5-2.1-1.1-2.9-1.9
			c-0.8-0.8-1.4-1.8-1.9-2.9C79.5,16.7,79.3,15.4,79.3,14.1 M81.6,14.1c0,1,0.2,1.9,0.5,2.8c0.3,0.9,0.8,1.6,1.4,2.3
			c0.6,0.6,1.3,1.2,2.2,1.5c0.9,0.4,1.8,0.6,2.9,0.6c1.1,0,2-0.2,2.9-0.6c0.9-0.4,1.6-0.9,2.2-1.5c0.6-0.6,1.1-1.4,1.4-2.3
			c0.3-0.9,0.5-1.8,0.5-2.8c0-1-0.2-1.9-0.5-2.8c-0.3-0.9-0.8-1.6-1.4-2.3c-0.6-0.6-1.3-1.2-2.2-1.5c-0.9-0.4-1.8-0.6-2.9-0.6
			c-1.1,0-2,0.2-2.9,0.6c-0.9,0.4-1.6,0.9-2.2,1.5c-0.6,0.6-1.1,1.4-1.4,2.3C81.8,12.2,81.6,13.1,81.6,14.1"/>
		<polygon class="st0" points="108.9,22.9 105.6,22.9 98.3,5.1 101.8,5.1 107.4,19 107.4,19 112.7,5.1 115.9,5.1 		"/>
		<path class="st0" d="M133.1,19.6c-1.1,1.4-2.2,2.3-3.5,2.9c-1.3,0.5-2.7,0.8-4.4,0.8c-1.4,0-2.7-0.2-3.8-0.7
			c-1.1-0.5-2.1-1.2-2.8-2c-0.8-0.8-1.4-1.8-1.8-3c-0.4-1.1-0.6-2.4-0.6-3.7c0-1.4,0.2-2.6,0.7-3.8c0.5-1.2,1.1-2.1,1.9-3
			c0.8-0.8,1.8-1.5,2.9-1.9c1.1-0.5,2.3-0.7,3.7-0.7c1.2,0,2.4,0.2,3.4,0.6c1,0.4,1.9,1,2.7,1.8c0.7,0.8,1.3,1.8,1.7,2.9
			c0.4,1.2,0.6,2.5,0.6,3.9v1h-14.4c0.1,0.8,0.2,1.5,0.6,2.2c0.3,0.7,0.7,1.3,1.2,1.8c0.5,0.5,1.1,0.9,1.8,1.2
			c0.7,0.3,1.4,0.5,2.2,0.5c1.3,0,2.4-0.2,3.3-0.7c0.9-0.5,1.7-1.1,2.4-2L133.1,19.6z M130.6,12.4c-0.1-1.5-0.5-2.7-1.5-3.7
			c-0.9-0.9-2.2-1.4-3.9-1.4c-1.6,0-3,0.5-4,1.4c-1,0.9-1.6,2.1-1.8,3.7H130.6z"/>
		<path class="st0" d="M136.5,9.3c0-0.8,0-1.6-0.1-2.3c0-0.7-0.1-1.4-0.1-1.9h2.8c0,0.5,0,1,0,1.4c0,0.5,0,1,0,1.5h0.1
			c0.2-0.4,0.5-0.8,0.9-1.3c0.4-0.4,0.8-0.8,1.3-1.1c0.5-0.3,1.1-0.6,1.7-0.8c0.6-0.2,1.3-0.3,2.1-0.3c1.2,0,2.2,0.2,3,0.5
			c0.9,0.4,1.6,0.8,2.1,1.5c0.6,0.6,1,1.4,1.2,2.3c0.3,0.9,0.4,1.9,0.4,2.9v11h-3V12.2c0-1.5-0.3-2.7-1-3.5
			c-0.7-0.9-1.7-1.3-3.1-1.3c-1,0-1.8,0.2-2.5,0.5c-0.7,0.3-1.3,0.8-1.7,1.4c-0.4,0.6-0.8,1.3-1,2.2c-0.2,0.8-0.3,1.8-0.3,2.8v8.7
			h-3V9.3z"/>
		<path class="st0" d="M165.5,7.6h-5.3v8.9c0,0.6,0,1.1,0,1.6c0,0.5,0.1,0.9,0.3,1.3c0.2,0.4,0.4,0.7,0.8,0.9
			c0.4,0.2,0.9,0.3,1.5,0.3c0.4,0,0.9-0.1,1.3-0.2c0.5-0.1,0.9-0.3,1.3-0.5l0.1,2.7c-0.5,0.2-1.1,0.4-1.7,0.5
			c-0.6,0.1-1.2,0.2-1.8,0.2c-1.1,0-1.9-0.1-2.5-0.4c-0.6-0.3-1.1-0.7-1.5-1.2c-0.4-0.5-0.6-1.1-0.7-1.9c-0.1-0.8-0.2-1.6-0.2-2.5
			V7.6h-3.9V5.1h3.9V0h3v5.1h5.3V7.6z"/>
		<path class="st0" d="M166.2,14c0-1.4,0.2-2.7,0.7-3.8c0.5-1.1,1.1-2.1,2-2.9c0.8-0.8,1.8-1.5,3-1.9c1.2-0.5,2.4-0.7,3.8-0.7
			c1.4,0,2.6,0.2,3.8,0.7c1.2,0.5,2.2,1.1,3,1.9c0.8,0.8,1.5,1.8,2,2.9c0.5,1.1,0.7,2.4,0.7,3.8c0,1.4-0.2,2.7-0.7,3.8
			c-0.5,1.1-1.1,2.1-2,2.9c-0.8,0.8-1.8,1.5-3,1.9c-1.2,0.5-2.4,0.7-3.8,0.7c-1.4,0-2.6-0.2-3.8-0.7c-1.2-0.5-2.2-1.1-3-1.9
			c-0.8-0.8-1.5-1.8-2-2.9C166.4,16.6,166.2,15.4,166.2,14 M169.4,14c0,0.9,0.1,1.8,0.4,2.6c0.3,0.8,0.7,1.5,1.3,2.1
			c0.6,0.6,1.2,1.1,2,1.4c0.8,0.3,1.6,0.5,2.6,0.5c1,0,1.8-0.2,2.6-0.5c0.8-0.3,1.4-0.8,2-1.4c0.6-0.6,1-1.3,1.3-2.1
			c0.3-0.8,0.4-1.7,0.4-2.6c0-0.9-0.1-1.8-0.4-2.6c-0.3-0.8-0.7-1.5-1.3-2.1c-0.6-0.6-1.2-1.1-2-1.4c-0.8-0.3-1.6-0.5-2.6-0.5
			c-1,0-1.8,0.2-2.6,0.5c-0.8,0.3-1.4,0.8-2,1.4c-0.6,0.6-1,1.3-1.3,2.1C169.5,12.2,169.4,13,169.4,14"/>
		<path class="st0" d="M188.3,18.2c0.6,0.7,1.2,1.3,1.9,1.7c0.7,0.4,1.6,0.6,2.6,0.6c0.5,0,0.9,0,1.4-0.2c0.5-0.1,0.9-0.3,1.3-0.5
			c0.4-0.2,0.7-0.5,0.9-0.9c0.2-0.3,0.3-0.8,0.3-1.2c0-0.5-0.1-0.9-0.3-1.2c-0.2-0.3-0.5-0.6-0.9-0.8c-0.4-0.2-0.8-0.4-1.2-0.5
			c-0.5-0.1-0.9-0.2-1.4-0.3c-0.8-0.2-1.6-0.4-2.4-0.6c-0.8-0.2-1.4-0.5-2-0.9c-0.6-0.4-1-0.8-1.4-1.4c-0.3-0.6-0.5-1.3-0.5-2.2
			c0-0.9,0.2-1.6,0.6-2.3c0.4-0.7,0.9-1.2,1.5-1.6c0.6-0.4,1.3-0.8,2.1-1c0.8-0.2,1.6-0.3,2.4-0.3c1.3,0,2.4,0.3,3.5,0.8
			c1.1,0.5,1.9,1.3,2.5,2.5L197,9.5c-0.4-0.6-0.9-1.1-1.5-1.5c-0.6-0.4-1.4-0.6-2.3-0.6c-0.4,0-0.8,0.1-1.2,0.2
			c-0.4,0.1-0.8,0.3-1.1,0.5c-0.3,0.2-0.6,0.5-0.8,0.8c-0.2,0.3-0.3,0.7-0.3,1.1c0,0.4,0.1,0.7,0.4,1c0.2,0.3,0.6,0.5,1,0.7
			c0.4,0.2,0.9,0.4,1.4,0.5c0.5,0.1,1.1,0.3,1.7,0.4c0.8,0.2,1.5,0.3,2.2,0.6c0.7,0.2,1.3,0.6,1.9,1c0.5,0.4,1,0.9,1.3,1.5
			c0.3,0.6,0.5,1.4,0.5,2.2c0,1-0.2,1.9-0.6,2.6c-0.4,0.7-0.9,1.3-1.6,1.7c-0.7,0.4-1.4,0.8-2.3,1c-0.9,0.2-1.7,0.3-2.6,0.3
			c-1.5,0-2.8-0.2-3.9-0.7c-1.1-0.5-2.1-1.3-3-2.6L188.3,18.2z"/>
	</g>
	<g>
		<path class="st0" d="M105.5,26.3v5.3c0,0.4,0,0.8,0,1.1h-0.7l0-0.8h0c-0.2,0.5-0.8,0.9-1.5,0.9c-1.1,0-1.9-0.9-1.9-2.2
			c0-1.5,0.9-2.3,2-2.3c0.7,0,1.1,0.3,1.3,0.7h0v-2.6H105.5z M104.7,30.1c0-0.1,0-0.2,0-0.3c-0.1-0.5-0.6-0.9-1.1-0.9
			c-0.8,0-1.3,0.7-1.3,1.7c0,0.9,0.4,1.6,1.3,1.6c0.5,0,1-0.4,1.2-0.9c0-0.1,0-0.2,0-0.3V30.1z"/>
		<path class="st0" d="M107.2,30.6c0,1.1,0.7,1.5,1.5,1.5c0.6,0,0.9-0.1,1.2-0.2l0.1,0.6c-0.3,0.1-0.8,0.3-1.5,0.3
			c-1.3,0-2.2-0.9-2.2-2.2s0.8-2.4,2.1-2.4c1.4,0,1.8,1.3,1.8,2.1c0,0.2,0,0.3,0,0.4H107.2z M109.5,30.1c0-0.5-0.2-1.3-1.1-1.3
			c-0.8,0-1.2,0.7-1.2,1.3H109.5z"/>
		<path class="st0" d="M111,31.9c0.2,0.2,0.7,0.3,1,0.3c0.6,0,0.8-0.3,0.8-0.7c0-0.4-0.2-0.6-0.8-0.8c-0.8-0.3-1.2-0.7-1.2-1.2
			c0-0.7,0.6-1.3,1.5-1.3c0.4,0,0.8,0.1,1.1,0.3l-0.2,0.6c-0.2-0.1-0.5-0.3-0.9-0.3c-0.5,0-0.7,0.3-0.7,0.6c0,0.4,0.3,0.5,0.8,0.7
			c0.8,0.3,1.1,0.7,1.1,1.3c0,0.8-0.6,1.3-1.6,1.3c-0.5,0-0.9-0.1-1.2-0.3L111,31.9z"/>
		<path class="st0" d="M115.5,27.1c0,0.3-0.2,0.5-0.5,0.5c-0.3,0-0.5-0.2-0.5-0.5c0-0.3,0.2-0.5,0.5-0.5
			C115.3,26.6,115.5,26.8,115.5,27.1z M114.6,32.7v-4.4h0.8v4.4H114.6z"/>
		<path class="st0" d="M120.4,28.3c0,0.3,0,0.7,0,1.2V32c0,1-0.2,1.6-0.6,2c-0.4,0.4-1,0.5-1.6,0.5c-0.5,0-1.1-0.1-1.5-0.4l0.2-0.6
			c0.3,0.2,0.7,0.3,1.3,0.3c0.8,0,1.4-0.4,1.4-1.5v-0.5h0c-0.2,0.4-0.7,0.7-1.4,0.7c-1.1,0-1.9-0.9-1.9-2.1c0-1.5,1-2.3,2-2.3
			c0.8,0,1.2,0.4,1.4,0.8h0l0-0.7H120.4z M119.6,30c0-0.1,0-0.3,0-0.4c-0.1-0.5-0.5-0.8-1.1-0.8c-0.8,0-1.3,0.6-1.3,1.7
			c0,0.9,0.4,1.6,1.3,1.6c0.5,0,0.9-0.3,1.1-0.8c0-0.1,0.1-0.3,0.1-0.4V30z"/>
		<path class="st0" d="M121.6,29.5c0-0.5,0-0.8,0-1.2h0.7l0,0.7h0c0.2-0.4,0.7-0.8,1.4-0.8c0.6,0,1.5,0.4,1.5,1.9v2.6h-0.8v-2.5
			c0-0.7-0.3-1.3-1-1.3c-0.5,0-0.9,0.4-1.1,0.8c0,0.1-0.1,0.2-0.1,0.4v2.6h-0.8V29.5z"/>
		<path class="st0" d="M126,33.8c0.2-0.5,0.4-1.5,0.5-2.2l0.9-0.1c-0.2,0.8-0.6,1.8-0.9,2.2L126,33.8z"/>
		<path class="st0" d="M133.2,32.5c-0.2,0.1-0.7,0.3-1.3,0.3c-1.3,0-2.2-0.9-2.2-2.2c0-1.3,0.9-2.3,2.3-2.3c0.5,0,0.9,0.1,1.1,0.2
			l-0.2,0.6c-0.2-0.1-0.5-0.2-0.9-0.2c-1,0-1.5,0.7-1.5,1.7c0,1,0.7,1.6,1.5,1.6c0.5,0,0.8-0.1,1-0.2L133.2,32.5z"/>
		<path class="st0" d="M138,30.4c0,1.6-1.1,2.3-2.2,2.3c-1.2,0-2.1-0.9-2.1-2.3c0-1.5,1-2.3,2.2-2.3C137.1,28.2,138,29.1,138,30.4z
			 M134.5,30.5c0,1,0.6,1.7,1.3,1.7c0.8,0,1.3-0.7,1.3-1.7c0-0.7-0.4-1.7-1.3-1.7C134.9,28.8,134.5,29.7,134.5,30.5z"/>
		<path class="st0" d="M142.7,26.3v5.3c0,0.4,0,0.8,0,1.1H142l0-0.8h0c-0.2,0.5-0.8,0.9-1.5,0.9c-1.1,0-1.9-0.9-1.9-2.2
			c0-1.5,0.9-2.3,2-2.3c0.7,0,1.1,0.3,1.3,0.7h0v-2.6H142.7z M141.9,30.1c0-0.1,0-0.2,0-0.3c-0.1-0.5-0.6-0.9-1.1-0.9
			c-0.8,0-1.3,0.7-1.3,1.7c0,0.9,0.4,1.6,1.3,1.6c0.5,0,1-0.4,1.2-0.9c0-0.1,0-0.2,0-0.3V30.1z"/>
		<path class="st0" d="M144.3,30.6c0,1.1,0.7,1.5,1.5,1.5c0.6,0,0.9-0.1,1.2-0.2l0.1,0.6c-0.3,0.1-0.8,0.3-1.5,0.3
			c-1.3,0-2.2-0.9-2.2-2.2s0.8-2.4,2.1-2.4c1.4,0,1.8,1.3,1.8,2.1c0,0.2,0,0.3,0,0.4H144.3z M146.7,30.1c0-0.5-0.2-1.3-1.1-1.3
			c-0.8,0-1.2,0.7-1.2,1.3H146.7z"/>
		<path class="st0" d="M147.7,33.8c0.2-0.5,0.4-1.5,0.5-2.2l0.9-0.1c-0.2,0.8-0.6,1.8-0.9,2.2L147.7,33.8z"/>
		<path class="st0" d="M151.8,26.3h0.8V29h0c0.1-0.2,0.3-0.4,0.6-0.6c0.2-0.1,0.5-0.2,0.8-0.2c0.6,0,1.5,0.4,1.5,1.9v2.6h-0.8v-2.5
			c0-0.7-0.3-1.3-1-1.3c-0.5,0-0.9,0.4-1.1,0.8c0,0.1-0.1,0.2-0.1,0.4v2.6h-0.8V26.3z"/>
		<path class="st0" d="M160.7,30.4c0,1.6-1.1,2.3-2.2,2.3c-1.2,0-2.1-0.9-2.1-2.3c0-1.5,1-2.3,2.2-2.3
			C159.9,28.2,160.7,29.1,160.7,30.4z M157.3,30.5c0,1,0.6,1.7,1.3,1.7c0.8,0,1.3-0.7,1.3-1.7c0-0.7-0.4-1.7-1.3-1.7
			C157.7,28.8,157.3,29.7,157.3,30.5z"/>
		<path class="st0" d="M161.5,31.9c0.2,0.2,0.7,0.3,1,0.3c0.6,0,0.8-0.3,0.8-0.7c0-0.4-0.2-0.6-0.8-0.8c-0.8-0.3-1.2-0.7-1.2-1.2
			c0-0.7,0.6-1.3,1.5-1.3c0.4,0,0.8,0.1,1.1,0.3l-0.2,0.6c-0.2-0.1-0.5-0.3-0.9-0.3c-0.5,0-0.7,0.3-0.7,0.6c0,0.4,0.3,0.5,0.8,0.7
			c0.8,0.3,1.1,0.7,1.1,1.3c0,0.8-0.6,1.3-1.6,1.3c-0.5,0-0.9-0.1-1.2-0.3L161.5,31.9z"/>
		<path class="st0" d="M166.1,27v1.3h1.1v0.6h-1.1v2.4c0,0.5,0.2,0.8,0.6,0.8c0.2,0,0.4,0,0.5-0.1l0,0.6c-0.2,0.1-0.4,0.1-0.7,0.1
			c-0.4,0-0.7-0.1-0.9-0.3c-0.2-0.2-0.3-0.6-0.3-1.1v-2.4h-0.7v-0.6h0.7v-1L166.1,27z"/>
		<path class="st0" d="M167.5,33.8c0.2-0.5,0.4-1.5,0.5-2.2l0.9-0.1c-0.2,0.8-0.6,1.8-0.9,2.2L167.5,33.8z"/>
		<path class="st0" d="M171.6,29.7c0-0.5,0-1,0-1.4h0.7l0,0.9h0c0.2-0.6,0.7-1,1.2-1c0.1,0,0.2,0,0.2,0V29c-0.1,0-0.2,0-0.3,0
			c-0.6,0-1,0.4-1.1,1c0,0.1,0,0.2,0,0.4v2.3h-0.8V29.7z"/>
		<path class="st0" d="M174.8,30.6c0,1.1,0.7,1.5,1.5,1.5c0.6,0,0.9-0.1,1.2-0.2l0.1,0.6c-0.3,0.1-0.8,0.3-1.5,0.3
			c-1.3,0-2.2-0.9-2.2-2.2s0.8-2.4,2.1-2.4c1.4,0,1.8,1.3,1.8,2.1c0,0.2,0,0.3,0,0.4H174.8z M177.2,30.1c0-0.5-0.2-1.3-1.1-1.3
			c-0.8,0-1.2,0.7-1.2,1.3H177.2z"/>
		<path class="st0" d="M178.8,29.7c0-0.6,0-1,0-1.4h0.7l0,0.8h0c0.3-0.5,0.8-0.8,1.6-0.8c1.1,0,1.9,0.9,1.9,2.2c0,1.6-1,2.3-2,2.3
			c-0.6,0-1.1-0.3-1.3-0.7h0v2.4h-0.8V29.7z M179.6,30.9c0,0.1,0,0.2,0,0.3c0.1,0.6,0.6,0.9,1.2,0.9c0.8,0,1.3-0.7,1.3-1.7
			c0-0.9-0.5-1.6-1.3-1.6c-0.5,0-1,0.4-1.2,1c0,0.1-0.1,0.2-0.1,0.3V30.9z"/>
		<path class="st0" d="M184.3,30.6c0,1.1,0.7,1.5,1.5,1.5c0.6,0,0.9-0.1,1.2-0.2l0.1,0.6c-0.3,0.1-0.8,0.3-1.5,0.3
			c-1.3,0-2.2-0.9-2.2-2.2s0.8-2.4,2.1-2.4c1.4,0,1.8,1.3,1.8,2.1c0,0.2,0,0.3,0,0.4H184.3z M186.7,30.1c0-0.5-0.2-1.3-1.1-1.3
			c-0.8,0-1.2,0.7-1.2,1.3H186.7z"/>
		<path class="st0" d="M190.7,32.7l-0.1-0.6h0c-0.2,0.3-0.7,0.7-1.3,0.7c-0.9,0-1.3-0.6-1.3-1.3c0-1.1,0.9-1.6,2.6-1.6v-0.1
			c0-0.4-0.1-1-1-1c-0.4,0-0.8,0.1-1.1,0.3l-0.2-0.5c0.4-0.2,0.9-0.4,1.4-0.4c1.3,0,1.7,0.9,1.7,1.8v1.6c0,0.4,0,0.8,0.1,1H190.7z
			 M190.6,30.4c-0.9,0-1.9,0.1-1.9,1c0,0.5,0.3,0.8,0.8,0.8c0.6,0,0.9-0.4,1.1-0.7c0-0.1,0-0.2,0-0.3V30.4z"/>
		<path class="st0" d="M193.5,27v1.3h1.1v0.6h-1.1v2.4c0,0.5,0.2,0.8,0.6,0.8c0.2,0,0.4,0,0.5-0.1l0,0.6c-0.2,0.1-0.4,0.1-0.7,0.1
			c-0.4,0-0.7-0.1-0.9-0.3c-0.2-0.2-0.3-0.6-0.3-1.1v-2.4h-0.7v-0.6h0.7v-1L193.5,27z"/>
		<path class="st0" d="M195.2,32.2c0-0.3,0.2-0.6,0.5-0.6c0.3,0,0.5,0.2,0.5,0.6c0,0.3-0.2,0.6-0.5,0.6
			C195.4,32.8,195.2,32.5,195.2,32.2z"/>
		<path class="st0" d="M197,32.2c0-0.3,0.2-0.6,0.5-0.6c0.3,0,0.5,0.2,0.5,0.6c0,0.3-0.2,0.6-0.5,0.6C197.2,32.8,197,32.5,197,32.2z
			"/>
		<path class="st0" d="M198.8,32.2c0-0.3,0.2-0.6,0.5-0.6c0.3,0,0.5,0.2,0.5,0.6c0,0.3-0.2,0.6-0.5,0.6
			C199,32.8,198.8,32.5,198.8,32.2z"/>
	</g>
</g>
</svg>
