<?xml version="1.0" encoding="UTF-8"?>
<svg id="Layer_2" data-name="Layer 2" xmlns="http://www.w3.org/2000/svg" viewBox="0 0 42.4 33.14">
  <defs>
    <style>
      .cls-1 {
        fill: #27dbbb;
      }
    </style>
  </defs>
  <g id="Layer_1-2" data-name="Layer 1">
    <path class="cls-1" d="m0,30.48V2.66c.17-.17.13-.41.23-.61C.87.69,1.94.02,3.43.02c3.96,0,7.92-.02,11.88,0,8.08.04,16.15-.11,24.23.08.8.02,1.44.45,1.97,1,.69.72.88,1.65.88,2.61,0,7.75,0,15.5,0,23.26,0,1.12.07,2.25-.08,3.37-.11.79-.48,1.43-1.08,1.96-.77.68-1.68.84-2.67.83-11.81-.01-23.61,0-35.42-.01-.79,0-1.44-.32-2.02-.83-.57-.5-.87-1.13-1.11-1.82Zm4.97-13.9h0c0,3.31,0,6.62,0,9.93,0,.8.9,1.45,1.7,1.06.58-.28.78-.78.78-1.4,0-6.4,0-12.79,0-19.19,0-.07,0-.14,0-.21-.09-.84-.57-1.25-1.34-1.28-.57-.02-1.17.52-1.16,1.33.03,3.25.01,6.51.01,9.76Zm9.93-.04h0c0,3.32,0,6.64,0,9.97,0,.75.89,1.48,1.74,1.03.56-.3.74-.78.74-1.38,0-6.37,0-12.74,0-19.11,0-.2-.04-.4-.07-.6-.1-.66-.81-1.01-1.35-.97-.61.05-1.06.57-1.06,1.21,0,3.28,0,6.56,0,9.84Zm19.87.04h0c0,3.31,0,6.62,0,9.93,0,.8.9,1.45,1.7,1.06.58-.28.78-.78.78-1.4,0-6.4,0-12.79,0-19.19,0-.07,0-.14,0-.21-.09-.84-.57-1.25-1.34-1.28-.57-.02-1.17.52-1.16,1.33.03,3.25.01,6.51.01,9.76Zm-24.83-3.31h0c0,2.22,0,4.44,0,6.66,0,.78.9,1.4,1.69,1.02.56-.27.79-.75.79-1.35,0-4.22,0-8.43,0-12.65,0-.16-.05-.32-.07-.47-.09-.66-.81-1.03-1.35-.97-.67.06-1.08.69-1.08,1.24.03,2.18.01,4.35.01,6.53Zm9.93,0h0c0,2.22,0,4.44,0,6.66,0,.78.9,1.41,1.69,1.03.56-.27.79-.74.79-1.35,0-4.16,0-8.32,0-12.49,0-.23-.02-.45-.07-.68-.13-.61-.75-.97-1.34-.94-.61.04-1.07.57-1.07,1.2,0,2.19,0,4.38,0,6.57Zm4.97,0h0c0,2.22,0,4.44,0,6.66,0,.78.89,1.41,1.69,1.03.56-.27.79-.74.79-1.35,0-4.16,0-8.32,0-12.49,0-.23-.02-.45-.07-.68-.13-.61-.75-.97-1.34-.94-.61.04-1.07.57-1.07,1.2,0,2.19,0,4.38,0,6.57Zm4.97,0h0c0,2.21,0,4.41,0,6.62,0,.78.91,1.48,1.74,1.04.54-.29.75-.75.75-1.33,0-4.18,0-8.35,0-12.53,0-.2-.04-.4-.07-.6-.1-.66-.81-1.02-1.35-.97-.67.06-1.08.69-1.07,1.25.03,2.18.01,4.35.01,6.53Zm-19.87,12.35c0,.34.03.6,0,.86-.06.51.49,1.13,1,1.18.68.07,1.25-.33,1.41-.95.15-.57.11-1.15.06-1.71-.07-.77-.47-1.12-1.21-1.22-.45-.06-.98.18-1.21.81-.13.35-.01.73-.05,1.02Zm9.93,0c0,.31.02.56,0,.81-.07.65.55,1.18.99,1.24.69.09,1.25-.32,1.42-.97.15-.57.11-1.15.06-1.71-.07-.76-.46-1.08-1.19-1.2-.39-.06-.99.16-1.21.8-.13.36-.02.73-.06,1.03Zm4.97.02c0,.32.02.57,0,.81-.07.61.56,1.18,1.01,1.22.69.06,1.24-.33,1.4-.96.15-.57.11-1.15.06-1.71-.07-.74-.43-1.08-1.18-1.21-.37-.07-1,.16-1.22.79-.13.37-.02.76-.07,1.06Zm7.45.04c-.02-.29,0-.62-.07-.96-.13-.59-.75-.97-1.34-.93-.59.04-1.06.56-1.07,1.15,0,.52-.01,1.05,0,1.57.01.54.29.9.8,1.09.44.17.83.07,1.2-.23.54-.44.49-1.05.48-1.69Z"/>
  </g>
</svg>