<?xml version="1.0" encoding="UTF-8"?>
<svg id="Layer_2" data-name="Layer 2" xmlns="http://www.w3.org/2000/svg" viewBox="0 0 54.8 25.23">
  <defs>
    <style>
      .cls-1 {
        fill: #27dbbb;
      }
    </style>
  </defs>
  <g id="Layer_1-2" data-name="Layer 1">
    <g>
      <path class="cls-1" d="m22.41,10.24c-.63-.72-1.25-1.43-1.86-2.13-.58-.65-1.17-1.3-1.74-1.96-.2-.23-.39-.46-.61-.67-.37-.36-.97-.54-1.34-.38-.61.26-.99.79-.96,1.38.02.36.16.67.39.94,1.4,1.6,2.81,3.21,4.22,4.81.1.11.1.2.01.31-.64.78-1.29,1.55-1.93,2.33-.68.82-1.34,1.65-2.03,2.45-1.05,1.22-2.13,2.42-3.56,3.21-.92.51-1.91.83-2.97.92-1.56.13-3.12.04-4.68.05-1.68.02-3.35,0-5.03,0-.24,0-.33-.04-.33-.31C0,15.47,0,9.75,0,4.03c0-.22.04-.29.28-.29,12.81,0,25.61,0,38.42,0,.03,0,.06,0,.13.01-1.31.87-2.24,2.08-3.19,3.26-.77.95-1.58,1.87-2.38,2.8-.24.29-.49.57-.75.87-.93-1.11-1.85-2.22-2.8-3.36-.34.42-.68.84-1.02,1.25-.2.25-.4.51-.61.76-.09.11-.14.19-.02.33.68.8,1.36,1.61,2.03,2.42.06.07.11.16.17.23.13.17.41.29.37.49-.03.18-.25.34-.39.5-1.01,1.17-2.03,2.34-3.03,3.53-.33.39-.73.73-.93,1.21-.34.8.12,1.56.81,1.87.5.22,1.2-.1,1.62-.62.48-.58.98-1.14,1.47-1.71.48-.56.96-1.13,1.45-1.69.24-.28.48-.55.72-.83.09-.11.15-.12.25,0,.57.7,1.14,1.4,1.72,2.09.49.58.98,1.16,1.49,1.74.34.39.61.83,1.05,1.13.41.28,1.15.24,1.51-.12.68-.68.64-1.47-.08-2.32-1.07-1.26-2.12-2.53-3.18-3.8-.22-.26-.44-.53-.67-.78-.11-.12-.14-.2,0-.34.51-.57,1-1.15,1.5-1.73.74-.86,1.47-1.71,2.21-2.57,1.09-1.26,2.19-2.53,3.61-3.44.98-.64,2.06-1.02,3.24-1.12,1.08-.09,2.17-.04,3.25-.05,2.08-.02,4.16,0,6.23-.01.25,0,.32.05.32.31,0,5.71,0,11.42,0,17.13,0,.21,0,.32-.28.32-12.69,0-25.37,0-38.06,0h-.17c1.3-.87,2.2-2.05,3.11-3.23.76-.98,1.57-1.93,2.36-2.89.21-.26.42-.51.63-.77.08-.1.14-.11.23-.01.84.95,1.69,1.9,2.52,2.86.15.18.22.14.34,0,.49-.58.98-1.16,1.48-1.74.1-.12.11-.21,0-.34-.84-.94-1.68-1.88-2.52-2.82-.13-.15-.16-.26,0-.45,1.07-1.28,2.12-2.58,3.17-3.88.22-.27.46-.54.68-.81.33-.39.39-1.18.16-1.63-.43-.81-1.59-.98-2.29-.09-1.09,1.37-2.22,2.7-3.34,4.05-.13.15-.25.32-.39.5Zm-6.32,2.07c.05-3.8-3.07-7.49-7.8-7.18-3.41.22-6.37,3.09-6.56,6.79-.22,4.34,3.37,7.55,7.09,7.56,4.05,0,7.28-3.23,7.27-7.17Zm30.19,7.16c4.13.03,7.33-3.2,7.32-7.21-.01-3.8-3.03-7.41-7.82-7.12-3.46.21-6.44,3.18-6.56,6.93-.13,4.16,3.3,7.41,7.06,7.41Z"/>
      <path class="cls-1" d="m1.27,25.23c-.52-.25-.99-.56-1.18-1.16-.13-.4-.07-.81-.08-1.22,0-.08.07-.1.14-.1.1,0,.2,0,.29,0,17.97,0,35.94,0,53.91,0,.33,0,.43.06.43.41,0,.56-.1,1.08-.45,1.53-.06.06-.11.11-.17.17-.37.25-.78.38-1.24.38-17.17,0-34.35,0-51.52,0h-.13Z"/>
      <path class="cls-1" d="m.01,1.52c.01-.11.02-.22.03-.32.11-.19.22-.38.33-.57.11-.11.25-.19.32-.34.2-.08.39-.17.59-.25.09-.01.17-.02.26-.03.97,0,1.93,0,2.9,0,12.41,0,24.83,0,37.24,0,3.76,0,7.52,0,11.28,0,.7,0,1.23.28,1.61.88.11.17.06.4.23.55h0c0,.28-.02.54-.01.81,0,.18-.04.27-.23.24-.07-.01-.15,0-.23,0-17.95,0-35.91,0-53.86,0Q0,2.49,0,2.04c0-.17,0-.35,0-.52Z"/>
      <path class="cls-1" d="m8.89,7.79c2.66-.06,4.6,2.05,4.58,4.48-.02,2.67-1.98,4.58-4.67,4.57-2.43,0-4.43-2.04-4.44-4.57-.01-2.36,2.01-4.62,4.53-4.49Z"/>
      <path class="cls-1" d="m50.97,12.3c-.07,2.58-2,4.6-4.73,4.54-2.44-.06-4.37-2-4.39-4.56-.02-2.29,1.89-4.74,4.95-4.5,2.22.17,4.12,1.97,4.17,4.52Z"/>
    </g>
  </g>
</svg>