<?xml version="1.0" encoding="UTF-8"?>
<svg id="Layer_2" data-name="Layer 2" xmlns="http://www.w3.org/2000/svg" viewBox="0 0 39 38.98">
  <defs>
    <style>
      .cls-1 {
        fill: #27dbbb;
      }
    </style>
  </defs>
  <g id="Layer_1-2" data-name="Layer 1">
    <g>
      <path class="cls-1" d="m15.78,35.63c0,.29.16.62.02.95-.1.24-.26.41-.54.45-1.49.21-2.9-.14-4.27-.7-.89-.36-1.73-.85-2.46-1.48-1.38-1.19-2.42-2.62-3.02-4.37-.19-.55-.28-1.1-.43-1.65-.07-.27-.14-.31-.39-.27-.5.07-.87-.16-1.09-.59-.14-.29-.07-.57.06-.8.51-.86,1.06-1.71,1.59-2.55.35-.55,1.09-.51,1.46-.14.7.67,1.39,1.36,2.08,2.05.29.28.32.64.21.99-.12.37-.43.58-.82.61-.38.03-.42.11-.31.51.18.65.35,1.29.68,1.89,1.21,2.21,3.06,3.46,5.56,3.77.26.03.52.05.78.07.6.04.73.16.81.74.02.16.04.32.07.53Z"/>
      <path class="cls-1" d="m24.16,1.92c1.26-.02,2.63.18,3.94.72.97.4,1.86.93,2.65,1.62,1.41,1.24,2.44,2.73,2.96,4.54.14.47.3.94.33,1.43.02.32.23.19.38.18.7-.06,1.15.3,1.17.94,0,.32-.17.56-.32.8-.44.73-.92,1.44-1.37,2.17-.37.59-1.14.54-1.51.14-.64-.69-1.36-1.32-2.04-1.97-.26-.25-.34-.54-.26-.9.1-.41.34-.65.75-.72.54-.09.54-.16.38-.7-.26-.89-.56-1.76-1.11-2.51-1.24-1.7-2.9-2.7-5.02-2.91-.25-.02-.5-.03-.74-.05-.65-.06-.78-.15-.87-.79-.05-.36-.09-.73-.14-1.09-.07-.61.08-.8.82-.9Z"/>
      <g>
        <path class="cls-1" d="m28.83,28.57c-.91-.19-1.83-.04-2.74-.09-.2-.01-.16.13-.16.24,0,.71.01,1.41,0,2.12,0,.24.1.26.29.25.39,0,.79,0,1.18,0,.11,0,.22,0,.33,0,.53-.04,1.08.12,1.58-.28.38-.3.59-.69.53-1.12-.1-.67-.4-1-.98-1.13Z"/>
        <path class="cls-1" d="m26.15,25.88c.42-.01.84,0,1.26,0,.31,0,.62-.02.94,0,.36.02.66-.09.96-.3.39-.28.56-.68.51-1.08-.1-.71-.38-1-.93-1.13-.91-.22-1.85-.05-2.78-.1-.19,0-.18.1-.18.23,0,.72,0,1.44,0,2.16,0,.18.05.23.23.23Z"/>
        <path class="cls-1" d="m26.83,15.35c-3.29.09-6.1,1.37-8.32,3.82-2.31,2.55-3.34,5.57-3.07,9.01.42,5.44,5.12,11.03,12.24,10.8,5.89-.19,11.42-5.13,11.31-11.81.16-6.41-5.24-12.01-12.17-11.81Zm5.59,14.41c-.06,1.8-.93,3.18-2.92,3.84-.15.05-.35.1-.46.08-.58-.09-.52.26-.51.62.01.71,0,.71-.71.71-.53,0-1.06-.02-1.59,0-.26.01-.33-.07-.31-.32.02-.24-.01-.49,0-.73.02-.22-.07-.27-.27-.26-1.11,0-2.23,0-3.34.01-.26,0-.32-.07-.31-.32.02-.68.02-1.36,0-2.04,0-.22.06-.27.27-.27.33,0,.79.15.98-.06.2-.22.06-.67.06-1.02,0-2.13,0-4.26,0-6.39,0-.28-.06-.38-.35-.36-.31.02-.72.1-.9-.06-.19-.17-.05-.59-.06-.89,0-.46,0-.92,0-1.38,0-.21.05-.28.27-.27.57.02,1.14,0,1.71,0,.56,0,1.11,0,1.67,0,.21,0,.28-.05.27-.27-.01-.34-.11-.79.06-.98.2-.21.66-.06,1.01-.06.43-.01.87,0,1.3,0,.17,0,.24.04.23.22-.02.26.01.52,0,.77-.02.28.1.38.36.39,1.76.08,3.15,1.4,3.46,3.12.2,1.11-.02,2.18-.77,3.08-.15.18-.15.31,0,.49.58.66.87,1.49.84,2.33Z"/>
      </g>
      <path class="cls-1" d="m23.65,10.31c-.2-1.39-.61-2.73-1.27-4-.85-1.63-2-3-3.48-4.07C16.79.72,14.42-.08,11.72.02c-1.78-.11-3.5.38-5.14,1.17-1.68.81-3.05,2.02-4.18,3.51C1.02,6.51.26,8.57.05,10.82c-.11,1.16-.04,2.33.23,3.48.51,2.25,1.55,4.22,3.16,5.86,1.11,1.13,2.41,2.01,3.89,2.62,1.08.45,2.19.77,3.34.86,1.24.09,2.5.09,3.72-.22.14-.03.2-.09.24-.23.79-2.47,2.17-4.53,4.16-6.2,1.12-.93,2.33-1.65,3.69-2.16.47-.18,1.14-.21,1.09-.99,0-.13,0-.27.02-.4.24-1.04.2-2.09.05-3.12Zm-7.71,6.87c-.68.48-1.41.83-2.23.98-.26.05-.37.16-.36.43.01.42-.01.83,0,1.25.02.31-.08.42-.39.4-.29-.03-.58,0-.87,0-1.27,0-1.31,0-1.25-1.25.03-.6-.3-.68-.71-.7-1.12-.07-2.17-.39-3.2-.78-.75-.28-.76-.37-.39-1.13.3-.63.58-1.28.84-1.93.13-.32.28-.35.57-.2,1.35.7,2.79.99,4.3.88.02,0,.04,0,.05,0,.35-.13.9,0,.96-.55.06-.52-.38-.64-.79-.77-1.1-.34-2.26-.45-3.35-.86-1.22-.46-2.27-1.09-2.6-2.5-.48-2.06.58-3.83,2.42-4.56.49-.19.98-.37,1.51-.44.27-.03.37-.16.36-.42-.01-.4,0-.8,0-1.2-.01-.27.06-.39.36-.38.62.02,1.23.02,1.85,0,.28,0,.34.11.33.35-.01.42.01.83,0,1.25-.01.3.09.38.4.41,1,.08,1.97.34,2.88.78.17.08.33.13.2.43-.36.78-.66,1.58-.98,2.38-.11.27-.23.38-.56.22-1.21-.59-2.5-.75-3.83-.67-.42.02-.77.2-.85.59-.1.44.26.6.65.74,1.11.39,2.3.45,3.41.85.88.32,1.72.67,2.28,1.51.93,1.39.62,3.74-.99,4.9Z"/>
    </g>
  </g>
</svg>