<?xml version="1.0" encoding="UTF-8"?>
<svg id="Layer_2" data-name="Layer 2" xmlns="http://www.w3.org/2000/svg" viewBox="0 0 54.01 27.02">
  <defs>
    <style>
      .cls-1 {
        fill: #27dbbb;
      }
    </style>
  </defs>
  <g id="Layer_1-2" data-name="Layer 1">
    <g>
      <path class="cls-1" d="m30.39,18.83h-10.9c-.34,0-.62-.28-.62-.62s.28-.62.62-.62h10.84c.41-.09,3.28-.81,3.4-4.17.13-3.33-1.78-3.67-2.09-3.7,0,0-6.99,0-6.99,0-2.8-.47-3.39-2.99-3.31-4.33-.02-3.49,2.93-5.05,4.49-5.38.04,0,.09-.01.13-.01h9.81c.34,0,.62.28.62.62s-.28.62-.62.62h-9.74c-.47.12-3.48,1.01-3.45,4.17,0,.02,0,.03,0,.05,0,.11-.13,2.6,2.22,3.03,0,0,6.91,0,6.9,0,.03,0,3.45.26,3.27,4.98-.14,3.65-2.99,5.1-4.48,5.35-.03,0-.07,0-.1,0Z"/>
      <path class="cls-1" d="m50.92,18.9h-10.06s-.04,0-.07,0c-1.33-.14-3.85-1.06-3.9-3.54-.06-2.63,1.7-10.63,1.78-10.97,0-.03.01-.05.02-.08.06-.17,1.54-4.05,4.81-4.05h7.23c.06,0,.12,0,.17.02.13.04,3.09.92,3.09,3.48,0,2.15-.63,5.77-.66,5.93-.05.29-.31.51-.6.51l-14,.12c-.35,1.99-.65,3.98-.62,5.01.04,1.92,2.46,2.29,2.77,2.34h10.02c.34,0,.62.28.62.62s-.28.62-.62.62Zm-11.05-14.2c-.07.32-.48,2.22-.89,4.37l13.24-.11c.17-1.08.55-3.63.55-5.21,0-1.45-1.74-2.13-2.13-2.26h-7.14c-2.28,0-3.5,2.85-3.64,3.21Z"/>
      <path class="cls-1" d="m.62,27.02s-.07,0-.11-.01c-.34-.06-.56-.38-.5-.72,0,0,.99-5.45,1.98-10.9.5-2.73.99-5.45,1.37-7.5.19-1.02.35-1.88.46-2.47.09-.49.15-.82.22-1.03h-.01C4.73,2.47,6.91.43,8.52.17c.06,0,.11,0,.17,0,.41.01,4.33,0,6.92,0h0c.6-.01,3.81,1.2,3.43,3.74,0,.02,0,.05,0,.07l-1.73,10.54s0,.05-.01.07c-.04.13-.94,3.24-3.96,4.15-.05.02-.11.02-.16.03l-6.36.18s-.05,0-.08,0c-.1,0-2.11-.22-3.73-2.26-.69,3.76-1.37,7.54-1.79,9.84-.05.3-.31.51-.61.51Zm2.72-12.12c1.26,2.4,3.2,2.76,3.49,2.8l6.23-.18c2.16-.7,2.95-2.97,3.04-3.25l1.71-10.46c.18-1.17-1.61-2.41-2.34-2.41-.45,0-1.9,0-3.35,0-.88,0-1.75,0-2.41,0-.45,0-.77,0-1.01-.02-1.05.18-2.91,1.85-3.49,3.4-.11.49-.95,5.07-1.87,10.11Z"/>
    </g>
  </g>
</svg>