<?xml version="1.0" encoding="utf-8"?>
<!-- Generator: Adobe Illustrator 27.4.0, SVG Export Plug-In . SVG Version: 6.00 Build 0)  -->
<svg version="1.1" id="Layer_2_00000125566764778097037590000017766843213694945979_"
	 xmlns="http://www.w3.org/2000/svg" xmlns:xlink="http://www.w3.org/1999/xlink" x="0px" y="0px" viewBox="0 0 54.8 25.2"
	 style="enable-background:new 0 0 54.8 25.2;" xml:space="preserve">
<style type="text/css">
	.st0{fill:#0A2D49;}
</style>
<g id="Layer_1-2">
	<g>
		<path class="st0" d="M22.4,10.2c-0.6-0.7-1.2-1.4-1.9-2.1c-0.6-0.7-1.2-1.3-1.7-2c-0.2-0.2-0.4-0.5-0.6-0.7
			c-0.4-0.4-1-0.5-1.3-0.4c-0.6,0.3-1,0.8-1,1.4c0,0.4,0.2,0.7,0.4,0.9c1.4,1.6,2.8,3.2,4.2,4.8c0.1,0.1,0.1,0.2,0,0.3
			c-0.6,0.8-1.3,1.6-1.9,2.3c-0.7,0.8-1.3,1.7-2,2.4c-1.1,1.2-2.1,2.4-3.6,3.2c-0.9,0.5-1.9,0.8-3,0.9c-1.6,0.1-3.1,0-4.7,0
			c-1.7,0-3.3,0-5,0c-0.2,0-0.3,0-0.3-0.3C0,15.5,0,9.8,0,4c0-0.2,0-0.3,0.3-0.3c12.8,0,25.6,0,38.4,0c0,0,0.1,0,0.1,0
			c-1.3,0.9-2.2,2.1-3.2,3.3c-0.8,0.9-1.6,1.9-2.4,2.8c-0.2,0.3-0.5,0.6-0.8,0.9c-0.9-1.1-1.9-2.2-2.8-3.4c-0.3,0.4-0.7,0.8-1,1.2
			c-0.2,0.2-0.4,0.5-0.6,0.8c-0.1,0.1-0.1,0.2,0,0.3c0.7,0.8,1.4,1.6,2,2.4c0.1,0.1,0.1,0.2,0.2,0.2c0.1,0.2,0.4,0.3,0.4,0.5
			c0,0.2-0.2,0.3-0.4,0.5c-1,1.2-2,2.3-3,3.5c-0.3,0.4-0.7,0.7-0.9,1.2c-0.3,0.8,0.1,1.6,0.8,1.9c0.5,0.2,1.2-0.1,1.6-0.6
			c0.5-0.6,1-1.1,1.5-1.7c0.5-0.6,1-1.1,1.5-1.7c0.2-0.3,0.5-0.6,0.7-0.8c0.1-0.1,0.2-0.1,0.2,0c0.6,0.7,1.1,1.4,1.7,2.1
			c0.5,0.6,1,1.2,1.5,1.7c0.3,0.4,0.6,0.8,1,1.1c0.4,0.3,1.2,0.2,1.5-0.1c0.7-0.7,0.6-1.5-0.1-2.3c-1.1-1.3-2.1-2.5-3.2-3.8
			c-0.2-0.3-0.4-0.5-0.7-0.8c-0.1-0.1-0.1-0.2,0-0.3c0.5-0.6,1-1.1,1.5-1.7c0.7-0.9,1.5-1.7,2.2-2.6c1.1-1.3,2.2-2.5,3.6-3.4
			c1-0.6,2.1-1,3.2-1.1c1.1-0.1,2.2,0,3.2,0c2.1,0,4.2,0,6.2,0c0.2,0,0.3,0,0.3,0.3c0,5.7,0,11.4,0,17.1c0,0.2,0,0.3-0.3,0.3
			c-12.7,0-25.4,0-38.1,0h-0.2c1.3-0.9,2.2-2,3.1-3.2c0.8-1,1.6-1.9,2.4-2.9c0.2-0.3,0.4-0.5,0.6-0.8c0.1-0.1,0.1-0.1,0.2,0
			c0.8,0.9,1.7,1.9,2.5,2.9c0.1,0.2,0.2,0.1,0.3,0c0.5-0.6,1-1.2,1.5-1.7c0.1-0.1,0.1-0.2,0-0.3c-0.8-0.9-1.7-1.9-2.5-2.8
			c-0.1-0.1-0.2-0.3,0-0.4c1.1-1.3,2.1-2.6,3.2-3.9c0.2-0.3,0.5-0.5,0.7-0.8c0.3-0.4,0.4-1.2,0.2-1.6c-0.4-0.8-1.6-1-2.3-0.1
			c-1.1,1.4-2.2,2.7-3.3,4.1C22.7,9.9,22.6,10.1,22.4,10.2L22.4,10.2z M16.1,12.3c0-3.8-3.1-7.5-7.8-7.2c-3.4,0.2-6.4,3.1-6.6,6.8
			c-0.2,4.3,3.4,7.6,7.1,7.6C12.9,19.5,16.1,16.2,16.1,12.3z M46.3,19.5c4.1,0,7.3-3.2,7.3-7.2c0-3.8-3-7.4-7.8-7.1
			c-3.5,0.2-6.4,3.2-6.6,6.9C39.1,16.2,42.5,19.5,46.3,19.5L46.3,19.5z"/>
		<path class="st0" d="M1.3,25.2c-0.5-0.2-1-0.6-1.2-1.2C0,23.7,0,23.3,0,22.9c0-0.1,0.1-0.1,0.1-0.1c0.1,0,0.2,0,0.3,0
			c18,0,35.9,0,53.9,0c0.3,0,0.4,0.1,0.4,0.4c0,0.6-0.1,1.1-0.5,1.5c-0.1,0.1-0.1,0.1-0.2,0.2c-0.4,0.2-0.8,0.4-1.2,0.4
			c-17.2,0-34.3,0-51.5,0L1.3,25.2L1.3,25.2z"/>
		<path class="st0" d="M0,1.5c0-0.1,0-0.2,0-0.3C0.2,1,0.3,0.8,0.4,0.6c0.1-0.1,0.2-0.2,0.3-0.3C0.9,0.2,1.1,0.1,1.3,0
			c0.1,0,0.2,0,0.3,0c1,0,1.9,0,2.9,0c12.4,0,24.8,0,37.2,0c3.8,0,7.5,0,11.3,0c0.7,0,1.2,0.3,1.6,0.9c0.1,0.2,0.1,0.4,0.2,0.6l0,0
			c0,0.3,0,0.5,0,0.8c0,0.2,0,0.3-0.2,0.2c-0.1,0-0.2,0-0.2,0c-18,0-35.9,0-53.9,0C0.2,2.5,0,2.3,0,2C0,1.9,0,1.7,0,1.5L0,1.5z"/>
		<path class="st0" d="M8.9,7.8c2.7-0.1,4.6,2.1,4.6,4.5c0,2.7-2,4.6-4.7,4.6c-2.4,0-4.4-2-4.4-4.6C4.3,9.9,6.4,7.7,8.9,7.8L8.9,7.8
			z"/>
		<path class="st0" d="M51,12.3c-0.1,2.6-2,4.6-4.7,4.5c-2.4-0.1-4.4-2-4.4-4.6c0-2.3,1.9-4.7,5-4.5C49,8,50.9,9.8,51,12.3z"/>
	</g>
</g>
</svg>
