<?xml version="1.0" encoding="UTF-8"?>
<svg id="Layer_2" data-name="Layer 2" xmlns="http://www.w3.org/2000/svg" viewBox="0 0 43.22 42.37">
  <defs>
    <style>
      .cls-1 {
        fill: #27dbbb;
      }
    </style>
  </defs>
  <g id="Layer_1-2" data-name="Layer 1">
    <g>
      <path class="cls-1" d="m37.9,20.9c-.34.4-.7.8-1.06,1.18-.25.27-.55.46-.88.57.12.12.23.27.31.45.3.61.14,1.19-.07,1.8-1.13,3.22-2.6,6.27-4.34,9.2-.44.74-.82,1.53-1.5,2.1-.55.46-1.2.7-1.92.54-1.19-.26-2.07-1.26-2.03-2.64.04-1.41.02-2.83,0-4.24-.01-.97-.66-1.84-1.63-2.07-.35-.08-.7,0-1.04-.07-1.41-.27-2.65-.82-3.59-1.96-1.15-1.4-1.67-2.94-1.25-4.75.6-2.64,2.89-4.42,5.57-4.44.62,0,1.25,0,1.87,0,.46,0,.71-.28.7-.72,0-.43-.26-.66-.77-.66-.81,0-1.63-.01-2.45,0-.98.01-1.76-.36-2.37-1.14-.73-.93-.81-2.23-.21-3.24.85-1.4,1.68-2.81,2.54-4.25-.88-.21-1.76-.3-2.64-.36-.26-.02-.29.08-.31.32-.09,1.02-.37,1.71-1.6,2.16-1.27.47-2.53.94-3.78,1.44-1.56.62-2.88-.43-2.99-1.88-.03-.37-.13-.37-.39-.22-.1.06-.22.09-.31.16-.29.23-.76.29-.78.79,0,.12,0,.25-.02.36-.3,1.33-.75,2.59-1.56,3.77.71,0,1.37,0,2.03,0,1.71.03,2.7,1.43,2.22,2.99-.21.68-.79,1.13-1.23,1.66-.72.87-1.47,1.71-2.22,2.55-.37.42-.61.88-.62,1.46-.01,1.23-1.25,2.42-2.45,2.44-1.68.04-3.37.02-5.05.03l-.06.06c-.03.34.05.67.05,1,.03,1.36.33,2.68.68,3.98.14.52.29,1.06.59,1.58.33-.71.61-1.4.95-2.07.94-1.84,3.37-2.23,4.92-1.08.45.34.8.81,1.38.98.95.28,1.88.62,2.82.91,1.53.47,2.66,1.38,3.07,2.97.32,1.23.21,2.5.14,3.77-.06,1.08-.57,1.82-1.4,2.43-.35.26-.61.61-.64,1.06-.03.46,0,.92-.01,1.38,0,.17.05.24.23.3,1.28.45,2.61.69,3.95.78,1.51.11,3.04.06,4.54-.24,1.9-.38,3.72-.98,5.42-1.93,1.77-.99,3.35-2.18,4.72-3.68,1.31-1.44,2.36-3.03,3.18-4.8.97-2.12,1.44-4.35,1.59-6.65.05-.74,0-1.48-.07-2.22-.05-.64-.14-1.28-.26-1.91Z"/>
      <path class="cls-1" d="m15.31,35.09c-.04.43.06.96-.07,1.48-.1.41-.32.75-.65.98-.96.69-1.44,1.6-1.4,2.79.02.64,0,.65-.58.37-1.58-.77-3.04-1.72-4.38-2.87-1.49-1.29-2.67-2.83-3.73-4.48-.31-.49-.36-.94-.06-1.49.4-.73.69-1.53,1.03-2.29.62-1.38,2.32-1.43,3.22-.49.69.72,1.59.96,2.47,1.26.73.25,1.47.49,2.21.74,1.26.43,1.85,1.41,1.93,2.68.03.41,0,.81,0,1.31Z"/>
      <path class="cls-1" d="m29.35,16.09c-1.03-1.69-2.06-3.54-2.59-5.68-.26-1.04-.33-2.06-.2-3.07-.33-.12-.66-.24-.99-.36-.24-.09-.38,0-.51.22-.84,1.43-1.71,2.85-2.56,4.28-.29.48-.36.98-.08,1.5.29.54.72.81,1.34.83,1.03.02,2.05-.08,3.08.07,1.11.17,1.95,1.56,1.57,2.61-.35.99-1.31,1.51-2.13,1.49-.79-.02-1.59-.03-2.38.04-2.13.2-4.03,2.38-3.7,4.67.3,2.08,2.04,3.61,4.09,3.65,1.86.04,3.4,1.44,3.49,3.26.07,1.54.03,3.09.04,4.64,0,.28.08.52.25.73.42.53,1.34.52,1.84-.32.84-1.39,1.66-2.79,2.4-4.23,1.05-2.04,1.97-4.13,2.71-6.3.29-.84-4.63-6.35-5.68-8.05Z"/>
      <path class="cls-1" d="m3.41,17.37c.42.36.81.58,1.34.6.8.03,1.35-.37,1.81-.92.65-.78,1.29-1.56,1.85-2.41.08-.13.22-.14.36-.13.92,0,1.85,0,2.77,0,.38,0,.69.19.81.49.11.29.1.64-.17.94-1.02,1.15-2.01,2.33-3.02,3.49-.58.66-.92,1.41-.93,2.29,0,.52-.6,1.11-1.16,1.12-1.58.02-3.15,0-4.73.01-.28,0-.24-.16-.22-.31.18-1.24.35-2.48.76-3.67.17-.5.35-.99.53-1.51Z"/>
      <path class="cls-1" d="m13.86,7.75c-.13-.37.12-.52.48-.63,1.26-.39,2.54-.7,3.86-.82.24-.02.48-.09.71-.06.19.02.49-.16.56.11.08.33,0,.69-.32.89-.28.17-.6.26-.91.38-1.05.4-2.13.75-3.16,1.19-.79.34-1.26-.14-1.22-.83,0-.05,0-.11,0-.23Z"/>
      <path class="cls-1" d="m2.12,24.26s-.04.04-.06.06c-.01-.06,0-.08.06-.06Z"/>
      <path class="cls-1" d="m9.6,7.21c-.73-2.79-3.15-4.16-5.67-3.73C1.68,3.87-.02,5.9,0,8.33c.03.22-.02.49.04.76.23,1.05.65,2.02,1.19,2.94.9,1.54,1.96,2.97,3.14,4.31.31.35.62.35.95,0,.29-.3.54-.63.8-.95,1.19-1.48,2.29-3.01,3.06-4.77.48-1.09.72-2.25.42-3.41Zm-2.99,4c-.29.21-.61.36-.96.42-.11.02-.16.07-.16.18,0,.18,0,.36,0,.54,0,.13-.03.18-.17.17-.12-.01-.25,0-.37,0-.55,0-.56,0-.54-.54.01-.26-.13-.29-.3-.3-.48-.03-.93-.17-1.38-.34-.32-.12-.32-.16-.17-.48.13-.27.25-.55.36-.83.05-.14.12-.15.24-.09.58.3,1.2.43,1.85.38,0,0,.02,0,.02,0,.15-.06.39,0,.41-.24.03-.22-.16-.27-.34-.33-.47-.15-.97-.2-1.44-.37-.53-.2-.98-.47-1.12-1.08-.21-.88.25-1.65,1.04-1.96.21-.08.42-.16.65-.19.12-.01.16-.07.16-.18,0-.17,0-.34,0-.51,0-.12.02-.17.15-.16.26,0,.53,0,.79,0,.12,0,.14.05.14.15,0,.18,0,.36,0,.54,0,.13.04.16.17.17.43.04.85.15,1.24.34.07.03.14.06.08.18-.15.33-.28.68-.42,1.02-.05.12-.1.16-.24.09-.52-.25-1.08-.32-1.65-.29-.18.01-.33.09-.37.25-.04.19.11.26.28.32.48.17.99.19,1.47.37.38.14.74.29.98.65.4.6.27,1.61-.43,2.11Z"/>
      <path class="cls-1" d="m43.21,7.73c-.07-.39.04-.89-.07-1.42-.36-1.74-1.22-3.15-2.52-4.33-1.9-1.72-4.16-2.28-6.61-1.84-1.84.33-3.45,1.25-4.59,2.83-1.44,2-2.11,4.14-1.49,6.63.49,1.96,1.43,3.69,2.46,5.37,1.26,2.06,2.78,3.93,4.32,5.78.4.47,1.01.5,1.45.03,1.98-2.11,3.69-4.42,5.1-6.94,1.04-1.86,2.09-3.74,1.95-6.12Zm-4.59,5.25c-.53.38-1.1.64-1.74.77-.2.04-.29.13-.28.33,0,.32-.01.65,0,.97.01.24-.06.33-.31.31-.22-.02-.45,0-.68,0-.99,0-1.02,0-.97-.97.02-.47-.24-.53-.55-.55-.87-.06-1.69-.31-2.5-.61-.58-.22-.59-.29-.31-.88.24-.49.45-.99.66-1.5.1-.25.22-.27.44-.16,1.05.54,2.17.77,3.35.69.01,0,.03,0,.04,0,.28-.1.7,0,.75-.43.05-.4-.3-.5-.61-.6-.86-.27-1.76-.35-2.61-.67-.95-.36-1.77-.85-2.02-1.95-.37-1.6.45-2.99,1.88-3.55.38-.15.77-.29,1.17-.34.21-.03.29-.13.28-.33,0-.31,0-.62,0-.93,0-.21.04-.31.28-.3.48.02.96.01,1.44,0,.22,0,.26.09.26.28-.01.32,0,.65,0,.97-.01.24.07.3.31.32.78.07,1.53.27,2.24.61.13.06.26.1.15.33-.28.61-.51,1.23-.76,1.85-.09.21-.18.3-.44.17-.94-.46-1.95-.58-2.99-.52-.33.02-.6.16-.67.46-.08.35.2.47.5.58.87.31,1.8.35,2.66.66.69.25,1.34.52,1.78,1.17.72,1.08.49,2.91-.77,3.81Z"/>
    </g>
  </g>
</svg>