<?xml version="1.0" encoding="UTF-8"?>
<svg id="Layer_2" data-name="Layer 2" xmlns="http://www.w3.org/2000/svg" viewBox="0 0 54.92 17.81">
  <defs>
    <style>
      .cls-1 {
        fill: #27dbbb;
      }
    </style>
  </defs>
  <g id="Layer_1-2" data-name="Layer 1">
    <g>
      <path class="cls-1" d="m32.96,8.91c0-2.75,0-5.51,0-8.26,0-.36.08-.48.47-.48,4.53.01,9.06.01,13.6,0,.36,0,.46.1.45.45-.02,1.11-.02,2.23,0,3.34,0,.37-.09.48-.47.48-2.63-.02-5.27,0-7.9,0q-.7,0-.7.72c0,.27.03.55,0,.81-.06.46.14.53.55.53,2.38-.02,4.76,0,7.14-.02.42,0,.58.08.56.54-.04.84-.03,1.68,0,2.53.01.35-.11.43-.44.43-2.42-.01-4.85,0-7.27-.02-.45,0-.55.13-.54.55.03.98.03,1.96,0,2.93-.01.39.08.51.49.5,2.68-.02,5.36,0,8.04-.02.43,0,.57.11.55.55-.03.93-.02,1.87,0,2.8,0,.3-.1.38-.39.38-4.58,0-9.15,0-13.73,0-.34,0-.39-.13-.39-.42,0-2.77,0-5.54,0-8.3Z"/>
      <path class="cls-1" d="m0,11.75c1.13-.06,2.23-.12,3.33-.19.4-.02.8-.06,1.2-.1.31-.03.45.07.54.41.27,1,.67,1.97,1.75,2.37,1.18.44,2.65.31,3.39-.84.49-.76.32-1.59-.42-2.11-.69-.48-1.52-.54-2.3-.73-1.62-.4-3.22-.86-4.66-1.74-1.19-.73-1.95-1.74-2.03-3.2-.06-1.07-.05-2.11.61-3.04C2.29,1.37,3.41.55,4.93.27,6.08.06,7.24-.05,8.4.02c1.31.08,2.61.19,3.86.69,1.09.43,1.82,1.16,2.2,2.25.21.61.37,1.24.57,1.86.09.27-.03.28-.25.33-.64.12-1.28.1-1.92.11-.7,0-1.4.05-2.09.16-.56.09-.68.05-.79-.53-.22-1.29-1.63-1.94-2.62-1.89-.46.02-.91.13-1.29.4-.35.25-.6.62-.56,1.05.06.5.4.86.87,1.06.85.35,1.74.55,2.63.73,1.82.38,3.54.98,5.02,2.11.93.71,1.36,1.69,1.53,2.87.21,1.48-.18,2.78-1.04,3.92-.94,1.25-2.24,2.03-3.78,2.4-1.51.36-3.04.32-4.57.18-.91-.08-1.78-.31-2.65-.6-1.48-.5-2.27-1.62-2.81-2.97-.3-.75-.56-1.52-.72-2.38Z"/>
      <path class="cls-1" d="m16.97,8.88c0-2.75,0-5.5,0-8.26,0-.34.07-.45.44-.45,2.29.02,4.58-.02,6.86.02,1.2.02,2.41.06,3.6.25,1.54.25,3.3,2.01,3.59,3.55.21,1.13.27,2.24-.03,3.35-.26.99-.81,1.84-1.61,2.51-1,.84-2.17,1.19-3.46,1.28-1.19.09-2.37.08-3.55.07-.37,0-.45.12-.45.46.02,1.85,0,3.7.01,5.55,0,.33-.08.44-.43.43-1.52-.02-3.04-.02-4.56,0-.33,0-.43-.08-.43-.42.01-2.78,0-5.56,0-8.35Zm5.27-3.26c0,.53,0,1.05,0,1.58,0,.25.08.35.34.34.69-.02,1.38,0,2.07-.03.52-.03,1-.17,1.38-.58,1-1.09.42-2.78-.77-3.03-.93-.2-1.87-.14-2.81-.16-.23,0-.21.17-.21.32,0,.53,0,1.05,0,1.58Z"/>
      <path class="cls-1" d="m51.44,13.06c1.07-1.29,2.13-2.58,3.19-3.87.06-.08.09-.21.23-.16.1.04.05.16.05.24,0,2.68,0,5.35,0,8.03,0,.26-.09.33-.34.33-1.61,0-3.22,0-4.83,0-.26,0-.33-.08-.33-.33,0-2.33,0-4.66,0-6.99,0-.27.06-.38.35-.36.41.02.81.02,1.22,0,.29-.02.35.09.35.36,0,.78.02,1.56.04,2.34,0,.13-.04.27.07.4Z"/>
      <path class="cls-1" d="m51.38,2.49c0,1.19-.01,2.37,0,3.56,0,.35-.08.48-.45.45-.4-.03-.81-.02-1.22,0-.24.01-.31-.08-.31-.31,0-1.91,0-3.82,0-5.73,0-.21.06-.28.28-.28,1.64,0,3.28,0,4.92,0,.21,0,.3.05.29.28,0,2.3,0,4.6-.01,6.9,0,.02-.03.05-.1.14-.57-.86-1.12-1.69-1.66-2.52-.55-.84-1.11-1.68-1.67-2.51l-.09.02Z"/>
    </g>
  </g>
</svg>