<?xml version="1.0" encoding="utf-8"?>
<!-- Generator: Adobe Illustrator 27.4.0, SVG Export Plug-In . SVG Version: 6.00 Build 0)  -->
<svg version="1.1" id="Layer_2_00000035532780406969004420000003264376386117470857_"
	 xmlns="http://www.w3.org/2000/svg" xmlns:xlink="http://www.w3.org/1999/xlink" x="0px" y="0px" viewBox="0 0 42.4 33.1"
	 style="enable-background:new 0 0 42.4 33.1;" xml:space="preserve">
<style type="text/css">
	.st0{fill:#0A2D49;}
</style>
<g id="Layer_1-2">
	<path class="st0" d="M0,30.5V2.7c0.2-0.2,0.1-0.4,0.2-0.6c0.6-1.4,1.7-2,3.2-2c4,0,7.9,0,11.9,0c8.1,0,16.1-0.1,24.2,0.1
		c0.8,0,1.4,0.4,2,1c0.7,0.7,0.9,1.6,0.9,2.6c0,7.8,0,15.5,0,23.3c0,1.1,0.1,2.2-0.1,3.4c-0.1,0.8-0.5,1.4-1.1,2
		c-0.8,0.7-1.7,0.8-2.7,0.8c-11.8,0-23.6,0-35.4,0c-0.8,0-1.4-0.3-2-0.8C0.5,31.8,0.2,31.2,0,30.5L0,30.5z M5,16.6L5,16.6
		c0,3.3,0,6.6,0,9.9c0,0.8,0.9,1.5,1.7,1.1c0.6-0.3,0.8-0.8,0.8-1.4c0-6.4,0-12.8,0-19.2c0-0.1,0-0.1,0-0.2C7.4,5.9,6.9,5.5,6.1,5.5
		C5.5,5.5,4.9,6,4.9,6.8C5,10.1,5,13.3,5,16.6L5,16.6z M14.9,16.5L14.9,16.5c0,3.3,0,6.6,0,10c0,0.8,0.9,1.5,1.7,1
		c0.6-0.3,0.7-0.8,0.7-1.4c0-6.4,0-12.7,0-19.1c0-0.2,0-0.4-0.1-0.6c-0.1-0.7-0.8-1-1.4-1c-0.6,0.1-1.1,0.6-1.1,1.2
		C14.9,10,14.9,13.2,14.9,16.5L14.9,16.5z M34.8,16.6L34.8,16.6c0,3.3,0,6.6,0,9.9c0,0.8,0.9,1.5,1.7,1.1c0.6-0.3,0.8-0.8,0.8-1.4
		c0-6.4,0-12.8,0-19.2c0-0.1,0-0.1,0-0.2c-0.1-0.8-0.6-1.2-1.3-1.3c-0.6,0-1.2,0.5-1.2,1.3C34.8,10.1,34.8,13.3,34.8,16.6L34.8,16.6
		z M9.9,13.3L9.9,13.3c0,2.2,0,4.4,0,6.7c0,0.8,0.9,1.4,1.7,1c0.6-0.3,0.8-0.8,0.8-1.4c0-4.2,0-8.4,0-12.6c0-0.2-0.1-0.3-0.1-0.5
		c-0.1-0.7-0.8-1-1.4-1c-0.7,0.1-1.1,0.7-1.1,1.2C10,8.9,9.9,11.1,9.9,13.3L9.9,13.3z M19.9,13.3L19.9,13.3c0,2.2,0,4.4,0,6.7
		c0,0.8,0.9,1.4,1.7,1c0.6-0.3,0.8-0.7,0.8-1.4c0-4.2,0-8.3,0-12.5c0-0.2,0-0.4-0.1-0.7c-0.1-0.6-0.8-1-1.3-0.9
		c-0.6,0-1.1,0.6-1.1,1.2C19.9,8.9,19.9,11.1,19.9,13.3z M24.8,13.3L24.8,13.3c0,2.2,0,4.4,0,6.7c0,0.8,0.9,1.4,1.7,1
		c0.6-0.3,0.8-0.7,0.8-1.4c0-4.2,0-8.3,0-12.5c0-0.2,0-0.4-0.1-0.7c-0.1-0.6-0.8-1-1.3-0.9c-0.6,0-1.1,0.6-1.1,1.2
		C24.8,8.9,24.8,11.1,24.8,13.3z M29.8,13.3L29.8,13.3c0,2.2,0,4.4,0,6.6c0,0.8,0.9,1.5,1.7,1c0.5-0.3,0.8-0.8,0.8-1.3
		c0-4.2,0-8.4,0-12.5c0-0.2,0-0.4-0.1-0.6c-0.1-0.7-0.8-1-1.4-1c-0.7,0.1-1.1,0.7-1.1,1.2C29.8,8.9,29.8,11.1,29.8,13.3L29.8,13.3z
		 M9.9,25.6c0,0.3,0,0.6,0,0.9c-0.1,0.5,0.5,1.1,1,1.2c0.7,0.1,1.2-0.3,1.4-1c0.1-0.6,0.1-1.1,0.1-1.7c-0.1-0.8-0.5-1.1-1.2-1.2
		c-0.4-0.1-1,0.2-1.2,0.8C9.9,24.9,10,25.3,9.9,25.6L9.9,25.6z M19.9,25.6c0,0.3,0,0.6,0,0.8c-0.1,0.6,0.5,1.2,1,1.2
		c0.7,0.1,1.2-0.3,1.4-1c0.1-0.6,0.1-1.1,0.1-1.7c-0.1-0.8-0.5-1.1-1.2-1.2c-0.4-0.1-1,0.2-1.2,0.8C19.8,25,19.9,25.3,19.9,25.6
		L19.9,25.6z M24.8,25.6c0,0.3,0,0.6,0,0.8c-0.1,0.6,0.6,1.2,1,1.2c0.7,0.1,1.2-0.3,1.4-1c0.1-0.6,0.1-1.1,0.1-1.7
		c-0.1-0.7-0.4-1.1-1.2-1.2c-0.4-0.1-1,0.2-1.2,0.8C24.8,25,24.9,25.3,24.8,25.6z M32.3,25.7c0-0.3,0-0.6-0.1-1
		c-0.1-0.6-0.8-1-1.3-0.9c-0.6,0-1.1,0.6-1.1,1.1c0,0.5,0,1,0,1.6c0,0.5,0.3,0.9,0.8,1.1c0.4,0.2,0.8,0.1,1.2-0.2
		C32.3,26.9,32.3,26.3,32.3,25.7z"/>
</g>
</svg>
