<?xml version="1.0" encoding="UTF-8"?>
<svg id="Layer_2" data-name="Layer 2" xmlns="http://www.w3.org/2000/svg" viewBox="0 0 48.73 29.26">
  <defs>
    <style>
      .cls-1 {
        fill: #27dbbb;
      }
    </style>
  </defs>
  <g id="Layer_1-2" data-name="Layer 1">
    <g>
      <path class="cls-1" d="m24.39.01C32.31.01,40.23.02,48.15,0c.47,0,.59.11.59.58-.02,9.36-.02,18.73,0,28.09,0,.47-.11.59-.58.59-15.85-.01-31.71-.01-47.56,0-.47,0-.59-.11-.59-.58C.02,19.31.02,9.95,0,.59,0,.11.11,0,.58,0c7.94.02,15.87.01,23.81.01Zm-.07,24.35c4.6,0,9.21,0,13.81.01.58,0,1,0,.86-.77-.02-.13.08-.28.12-.42.49-2.02,2.25-3.53,4.32-3.64.31-.02.44-.09.44-.42,0-3.01,0-6.01,0-9.02,0-.26-.07-.4-.35-.38-.67.04-1.28-.17-1.86-.47-1.52-.79-2.44-2.05-2.65-3.73-.07-.56-.2-.64-.71-.64-9.23.02-18.46.01-27.68.01-.88,0-.89,0-.98.86-.02.17-.1.31-.13.48-.43,1.8-2.4,3.43-4.16,3.48-.38.01-.49.13-.49.5,0,2.97,0,5.94,0,8.9,0,.32.1.4.41.45.71.1,1.4.26,2.03.66,1.32.83,2.2,1.94,2.32,3.53.04.51.18.63.67.63,4.68-.02,9.36,0,14.04,0Z"/>
      <path class="cls-1" d="m17.06,14.65c-.13-3.98,3.28-7.38,7.22-7.32,4.26.07,7.35,3.22,7.36,7.32,0,4.06-3.23,7.02-6.83,7.29-4.44.34-7.95-3.57-7.76-7.29Z"/>
      <path class="cls-1" d="m12.12,17.03c-1.15.16-2.39-1.04-2.39-2.37,0-1.42,1.2-2.4,2.21-2.45,1.47-.07,2.65,1.13,2.62,2.27-.04,1.58-.92,2.54-2.44,2.54Z"/>
      <path class="cls-1" d="m36.45,17.03c-1.12.24-2.45-1.29-2.39-2.41.07-1.37,1.09-2.41,2.55-2.37,1.45.04,2.32,1.05,2.35,2.38.03,1.27-1,2.49-2.5,2.41Z"/>
    </g>
  </g>
</svg>