<?xml version="1.0" encoding="utf-8"?>
<!-- Generator: Adobe Illustrator 27.4.0, SVG Export Plug-In . SVG Version: 6.00 Build 0)  -->
<svg version="1.1" id="Layer_2_00000081608326867015223350000015280448060163421098_"
	 xmlns="http://www.w3.org/2000/svg" xmlns:xlink="http://www.w3.org/1999/xlink" x="0px" y="0px" viewBox="0 0 54 27"
	 style="enable-background:new 0 0 54 27;" xml:space="preserve">
<style type="text/css">
	.st0{fill:#0A2D49;}
</style>
<g id="Layer_1-2">
	<g>
		<path class="st0" d="M30.4,18.8H19.5c-0.3,0-0.6-0.3-0.6-0.6s0.3-0.6,0.6-0.6h10.8c0.4-0.1,3.3-0.8,3.4-4.2
			c0.1-3.3-1.8-3.7-2.1-3.7h-7c-2.8-0.5-3.4-3-3.3-4.3c0-3.5,2.9-5.1,4.5-5.4c0,0,0.1,0,0.1,0h9.8c0.3,0,0.6,0.3,0.6,0.6
			s-0.3,0.6-0.6,0.6H26c-0.5,0.1-3.5,1-3.5,4.2c0,0,0,0,0,0.1c0,0.1-0.1,2.6,2.2,3c0,0,6.9,0,6.9,0c0,0,3.4,0.3,3.3,5
			C34.8,17.1,32,18.6,30.4,18.8C30.5,18.8,30.4,18.8,30.4,18.8L30.4,18.8z"/>
		<path class="st0" d="M50.9,18.9H40.9c0,0,0,0-0.1,0c-1.3-0.1-3.8-1.1-3.9-3.5c-0.1-2.6,1.7-10.6,1.8-11c0,0,0-0.1,0-0.1
			c0.1-0.2,1.5-4.1,4.8-4.1h7.2c0.1,0,0.1,0,0.2,0C51,0.3,54,1.2,54,3.8c0,2.2-0.6,5.8-0.7,5.9c0,0.3-0.3,0.5-0.6,0.5l-14,0.1
			c-0.3,2-0.7,4-0.6,5c0,1.9,2.5,2.3,2.8,2.3h10c0.3,0,0.6,0.3,0.6,0.6S51.2,18.9,50.9,18.9L50.9,18.9z M39.9,4.7
			C39.8,5,39.4,6.9,39,9.1L52.2,9c0.2-1.1,0.5-3.6,0.5-5.2c0-1.5-1.7-2.1-2.1-2.3h-7.1C41.2,1.5,40,4.3,39.9,4.7L39.9,4.7z"/>
		<path class="st0" d="M0.6,27c0,0-0.1,0-0.1,0C0.2,27-0.1,26.6,0,26.3c0,0,1-5.5,2-10.9c0.5-2.7,1-5.4,1.4-7.5
			c0.2-1,0.3-1.9,0.5-2.5C3.9,4.9,4,4.6,4,4.4h0c0.7-1.9,2.9-4,4.5-4.2c0.1,0,0.1,0,0.2,0c0.4,0,4.3,0,6.9,0l0,0
			c0.6,0,3.8,1.2,3.4,3.7c0,0,0,0,0,0.1l-1.7,10.5c0,0,0,0.1,0,0.1c0,0.1-0.9,3.2-4,4.1c-0.1,0-0.1,0-0.2,0L6.8,19c0,0-0.1,0-0.1,0
			c-0.1,0-2.1-0.2-3.7-2.3c-0.7,3.8-1.4,7.5-1.8,9.8C1.2,26.8,0.9,27,0.6,27L0.6,27z M3.3,14.9c1.3,2.4,3.2,2.8,3.5,2.8l6.2-0.2
			c2.2-0.7,3-3,3-3.2l1.7-10.5c0.2-1.2-1.6-2.4-2.3-2.4c-0.4,0-1.9,0-3.4,0c-0.9,0-1.8,0-2.4,0c-0.4,0-0.8,0-1,0
			C7.6,1.6,5.8,3.2,5.2,4.8C5.1,5.3,4.3,9.9,3.3,14.9L3.3,14.9z"/>
	</g>
</g>
</svg>
