<?xml version="1.0" encoding="utf-8"?>
<!-- Generator: Adobe Illustrator 27.4.0, SVG Export Plug-In . SVG Version: 6.00 Build 0)  -->
<svg version="1.1" id="Layer_2_00000146473663282200738530000012285452807636129153_"
	 xmlns="http://www.w3.org/2000/svg" xmlns:xlink="http://www.w3.org/1999/xlink" x="0px" y="0px" viewBox="0 0 40.5 40.6"
	 style="enable-background:new 0 0 40.5 40.6;" xml:space="preserve">
<style type="text/css">
	.st0{fill:#0A2D49;}
</style>
<g id="Layer_1-2">
	<g>
		<path class="st0" d="M32.5,29.3c-1.9,0.2-3.4-0.6-4.6-1.9c-1.7-1.8-3.5-3.5-5.2-5.2c-1.2-1.2-3-1.3-4.3-0.1
			c-1.9,1.9-3.9,3.8-5.8,5.8c-0.9,0.9-2,1.5-3.3,1.5c-0.9,0-1.7,0-2.6,0c-0.3,0-0.4-0.1-0.6-0.3c-1.5-1.5-3-3-4.5-4.5
			c-2.3-2.4-2.2-6.3,0.1-8.7c1.3-1.3,2.6-2.6,3.9-3.9c0.4-0.4,0.9-0.7,1.6-0.7c0.9,0,1.8-0.1,2.7,0c1,0.1,1.9,0.6,2.6,1.3
			c1.9,1.9,3.8,3.8,5.7,5.7c1.4,1.4,3.3,1.3,4.6,0c1.9-2,3.8-3.8,5.7-5.7c0.9-0.9,1.9-1.4,3.2-1.3c0.7,0,1.4,0,2.1,0
			c0.2,0,0.4,0.1,0.6,0.2c1.5,1.6,3.1,3.1,4.6,4.7c2.2,2.3,2.2,5.9,0,8.2c-1.5,1.6-3.1,3.1-4.6,4.7c-0.2,0.2-0.4,0.2-0.6,0.2
			C33.3,29.2,32.9,29.3,32.5,29.3L32.5,29.3z"/>
		<path class="st0" d="M20.1,0c1.8,0,3.2,0.6,4.4,1.7c2.5,2.5,4.9,4.9,7.4,7.4c0.1,0.1,0.3,0.2,0.2,0.3s-0.2,0.1-0.4,0.1
			c-2.4-0.1-4,1.3-5.5,2.9c-1.6,1.6-3.2,3.3-4.8,4.9c-0.6,0.6-1.3,0.5-1.9-0.1c-1.8-1.8-3.7-3.6-5.5-5.5c-1.4-1.5-3.1-2.3-5.2-2.2
			c-0.2,0-0.4,0.1-0.5-0.1C8.3,9.3,8.5,9.2,8.7,9c2.4-2.4,4.8-4.8,7.2-7.2C17.1,0.6,18.5-0.1,20.1,0z"/>
		<path class="st0" d="M20.3,40.5c-1.8,0-3.2-0.6-4.5-1.8c-2.4-2.4-4.7-4.8-7.1-7.1c-0.1-0.1-0.4-0.2-0.3-0.5
			C8.5,30.9,8.8,31,8.9,31c2,0.1,3.7-0.7,5.1-2.1c1.8-1.8,3.6-3.6,5.4-5.4c0.7-0.7,1.3-0.8,2-0.1c1.2,1.1,2.3,2.3,3.5,3.4
			c1,1,1.9,2,3,2.9c1.1,0.9,2.4,1.3,3.8,1.3c0.2,0,0.4-0.1,0.5,0.1c0.1,0.2-0.2,0.3-0.3,0.4c-2.2,2.2-4.4,4.4-6.6,6.6
			c-0.6,0.5-1.1,1.2-1.8,1.6C22.4,40.3,21.6,40.6,20.3,40.5L20.3,40.5z"/>
	</g>
</g>
</svg>
