<?xml version="1.0" encoding="UTF-8"?>
<svg id="Layer_2" data-name="Layer 2" xmlns="http://www.w3.org/2000/svg" viewBox="0 0 44.53 30.28">
  <defs>
    <style>
      .cls-1 {
        fill: #27dbbb;
      }
    </style>
  </defs>
  <g id="Layer_1-2" data-name="Layer 1">
    <g>
      <path class="cls-1" d="m0,12.45c.17,0,.35.02.52.02,14.5,0,29,0,43.51,0,.37,0,.51.06.5.48-.02,4.78,0,9.56-.02,14.34,0,1.41-.47,2.35-1.89,2.84-.29.1-.6.16-.91.16-13.07,0-26.14,0-39.2,0-1.09,0-2.05-.79-2.42-1.96-.02-.06-.02-.11-.09-.13,0-5.25,0-10.49,0-15.74Zm15.95,7.14c2.66,0,5.33,0,7.99,0,.46,0,.86-.29.92-.66.09-.53-.1-.86-.63-1.06-.17-.06-.34-.05-.51-.05-5.14,0-10.28,0-15.42,0-.16,0-.32,0-.48.02-.37.04-.66.38-.7.74-.08.62.38,1.02.92,1.02,2.64-.02,5.27,0,7.91,0Zm-3.56,3.56c1.46,0,2.92,0,4.39,0,.59,0,.95-.32.96-.83,0-.58-.3-.93-.92-.93-2.92,0-5.85,0-8.77,0-.62,0-.92.33-.91.93,0,.52.35.83.96.83,1.43,0,2.87,0,4.3,0Z"/>
      <path class="cls-1" d="m44.43,7.13c-.17,0-.35,0-.52,0-14.46,0-28.92,0-43.39,0-.17,0-.35,0-.52,0V2.1c.21-.31.28-.68.5-1C1.05.32,1.83.05,2.73.01c.77-.03,1.54,0,2.3,0,12.17,0,24.34,0,36.51,0,1.15,0,2.1.4,2.68,1.47.24.44.28.93.29,1.4.04,1.39,0,2.78,0,4.17-.03.02-.05.05-.08.07Z"/>
    </g>
  </g>
</svg>