<?xml version="1.0" encoding="UTF-8"?>
<svg id="Layer_2" data-name="Layer 2" xmlns="http://www.w3.org/2000/svg" viewBox="0 0 40.55 40.56">
  <defs>
    <style>
      .cls-1 {
        fill: #27dbbb;
      }
    </style>
  </defs>
  <g id="Layer_1-2" data-name="Layer 1">
    <g>
      <path class="cls-1" d="m32.51,29.27c-1.92.25-3.36-.57-4.64-1.92-1.69-1.79-3.47-3.5-5.21-5.24-1.22-1.22-3.03-1.28-4.27-.06-1.94,1.9-3.85,3.83-5.75,5.76-.92.93-1.97,1.48-3.3,1.45-.85-.02-1.71.01-2.56.05-.27.01-.44-.11-.6-.28-1.49-1.5-3.01-2.97-4.48-4.5-2.32-2.42-2.25-6.29.13-8.66,1.29-1.29,2.59-2.57,3.86-3.88.44-.45.91-.68,1.57-.74.92.03,1.77-.1,2.66.03,1.02.15,1.87.6,2.59,1.33,1.9,1.91,3.82,3.8,5.7,5.74,1.37,1.41,3.31,1.34,4.57,0,1.85-1.96,3.8-3.83,5.7-5.73.88-.88,1.92-1.36,3.18-1.33.7.02,1.4,0,2.09-.03.24-.01.4.08.56.24,1.54,1.56,3.13,3.07,4.62,4.68,2.16,2.32,2.16,5.88,0,8.2-1.49,1.6-3.09,3.11-4.63,4.67-.18.18-.37.24-.62.22-.39-.03-.78,0-1.16,0Z"/>
      <path class="cls-1" d="m20.12,0c1.83-.03,3.24.58,4.41,1.73,2.48,2.46,4.94,4.93,7.41,7.4.09.09.26.16.21.32-.05.16-.23.12-.36.12-2.39-.1-4,1.28-5.53,2.87-1.58,1.65-3.2,3.27-4.84,4.87-.61.6-1.28.53-1.9-.08-1.83-1.82-3.68-3.62-5.46-5.49-1.43-1.49-3.1-2.28-5.18-2.18-.18,0-.44.11-.52-.12-.06-.17.17-.28.29-.4,2.4-2.4,4.8-4.8,7.2-7.21C17.08.61,18.54-.05,20.12,0Z"/>
      <path class="cls-1" d="m20.32,40.55c-1.77.05-3.25-.6-4.49-1.85-2.37-2.38-4.74-4.75-7.11-7.12-.13-.13-.37-.25-.29-.46.08-.22.34-.14.52-.13,2.03.09,3.67-.69,5.07-2.14,1.77-1.84,3.61-3.63,5.42-5.44.74-.73,1.26-.81,2.01-.11,1.19,1.11,2.33,2.27,3.46,3.44.98,1,1.91,2.03,2.98,2.93,1.09.9,2.36,1.31,3.76,1.32.16,0,.4-.08.48.1.09.2-.16.28-.27.4-2.18,2.21-4.35,4.43-6.56,6.6-.56.55-1.08,1.16-1.79,1.57-1.12.65-1.92.9-3.2.9Z"/>
    </g>
  </g>
</svg>