<?xml version="1.0" encoding="utf-8"?>
<!-- Generator: Adobe Illustrator 27.4.0, SVG Export Plug-In . SVG Version: 6.00 Build 0)  -->
<svg version="1.1" id="Layer_2_00000036226142137627833030000017978265322295440031_"
	 xmlns="http://www.w3.org/2000/svg" xmlns:xlink="http://www.w3.org/1999/xlink" x="0px" y="0px" viewBox="0 0 44.5 30.3"
	 style="enable-background:new 0 0 44.5 30.3;" xml:space="preserve">
<style type="text/css">
	.st0{fill:#0A2D49;}
</style>
<g id="Layer_1-2">
	<g>
		<path class="st0" d="M0,12.4c0.2,0,0.3,0,0.5,0c14.5,0,29,0,43.5,0c0.4,0,0.5,0.1,0.5,0.5c0,4.8,0,9.6,0,14.3
			c0,1.4-0.5,2.4-1.9,2.8c-0.3,0.1-0.6,0.2-0.9,0.2c-13.1,0-26.1,0-39.2,0c-1.1,0-2-0.8-2.4-2c0-0.1,0-0.1-0.1-0.1
			C0,23,0,17.7,0,12.4L0,12.4z M15.9,19.6c2.7,0,5.3,0,8,0c0.5,0,0.9-0.3,0.9-0.7c0.1-0.5-0.1-0.9-0.6-1.1c-0.2-0.1-0.3,0-0.5,0
			c-5.1,0-10.3,0-15.4,0c-0.2,0-0.3,0-0.5,0c-0.4,0-0.7,0.4-0.7,0.7c-0.1,0.6,0.4,1,0.9,1C10.7,19.6,13.3,19.6,15.9,19.6L15.9,19.6z
			 M12.4,23.1c1.5,0,2.9,0,4.4,0c0.6,0,1-0.3,1-0.8c0-0.6-0.3-0.9-0.9-0.9c-2.9,0-5.9,0-8.8,0c-0.6,0-0.9,0.3-0.9,0.9
			c0,0.5,0.3,0.8,1,0.8C9.5,23.1,11,23.1,12.4,23.1L12.4,23.1z"/>
		<path class="st0" d="M44.4,7.1c-0.2,0-0.3,0-0.5,0c-14.5,0-28.9,0-43.4,0c-0.2,0-0.3,0-0.5,0v-5c0.2-0.3,0.3-0.7,0.5-1
			C1,0.3,1.8,0.1,2.7,0C3.5,0,4.3,0,5,0c12.2,0,24.3,0,36.5,0c1.2,0,2.1,0.4,2.7,1.5c0.2,0.4,0.3,0.9,0.3,1.4
			C44.5,4.3,44.5,5.7,44.4,7.1C44.5,7.1,44.5,7.1,44.4,7.1L44.4,7.1z"/>
	</g>
</g>
</svg>
