<?xml version="1.0" encoding="utf-8"?>
<!-- Generator: Adobe Illustrator 27.4.0, SVG Export Plug-In . SVG Version: 6.00 Build 0)  -->
<svg version="1.1" id="Layer_2_00000155118605772372656380000015719817592575714176_"
	 xmlns="http://www.w3.org/2000/svg" xmlns:xlink="http://www.w3.org/1999/xlink" x="0px" y="0px" viewBox="0 0 48.7 29.3"
	 style="enable-background:new 0 0 48.7 29.3;" xml:space="preserve">
<style type="text/css">
	.st0{fill:#0A2D49;}
</style>
<g id="Layer_1-2">
	<g>
		<path class="st0" d="M24.4,0c7.9,0,15.8,0,23.8,0c0.5,0,0.6,0.1,0.6,0.6c0,9.4,0,18.7,0,28.1c0,0.5-0.1,0.6-0.6,0.6
			c-15.9,0-31.7,0-47.6,0c-0.5,0-0.6-0.1-0.6-0.6C0,19.3,0,9.9,0,0.6C0,0.1,0.1,0,0.6,0C8.5,0,16.5,0,24.4,0z M24.3,24.4
			c4.6,0,9.2,0,13.8,0c0.6,0,1,0,0.9-0.8c0-0.1,0.1-0.3,0.1-0.4c0.5-2,2.2-3.5,4.3-3.6c0.3,0,0.4-0.1,0.4-0.4c0-3,0-6,0-9
			c0-0.3-0.1-0.4-0.3-0.4c-0.7,0-1.3-0.2-1.9-0.5c-1.5-0.8-2.4-2.1-2.7-3.7c-0.1-0.6-0.2-0.6-0.7-0.6c-9.2,0-18.5,0-27.7,0
			c-0.9,0-0.9,0-1,0.9c0,0.2-0.1,0.3-0.1,0.5C9.1,8,7.1,9.7,5.3,9.7c-0.4,0-0.5,0.1-0.5,0.5c0,3,0,5.9,0,8.9c0,0.3,0.1,0.4,0.4,0.5
			c0.7,0.1,1.4,0.3,2,0.7c1.3,0.8,2.2,1.9,2.3,3.5c0,0.5,0.2,0.6,0.7,0.6C15,24.4,19.6,24.4,24.3,24.4L24.3,24.4z"/>
		<path class="st0" d="M17.1,14.6c-0.1-4,3.3-7.4,7.2-7.3c4.3,0.1,7.4,3.2,7.4,7.3c0,4.1-3.2,7-6.8,7.3
			C20.4,22.3,16.9,18.4,17.1,14.6L17.1,14.6z"/>
		<path class="st0" d="M12.1,17c-1.1,0.2-2.4-1-2.4-2.4c0-1.4,1.2-2.4,2.2-2.4c1.5-0.1,2.7,1.1,2.6,2.3C14.5,16.1,13.6,17,12.1,17
			L12.1,17z"/>
		<path class="st0" d="M36.5,17c-1.1,0.2-2.5-1.3-2.4-2.4c0.1-1.4,1.1-2.4,2.5-2.4c1.5,0,2.3,1.1,2.3,2.4C39,15.9,38,17.1,36.5,17
			L36.5,17z"/>
	</g>
</g>
</svg>
