<?xml version="1.0" encoding="UTF-8"?>
<svg id="Layer_2" data-name="Layer 2" xmlns="http://www.w3.org/2000/svg" viewBox="0 0 39.06 39.08">
  <defs>
    <style>
      .cls-1 {
        fill: #27dbbb;
      }
    </style>
  </defs>
  <g id="Layer_1-2" data-name="Layer 1">
    <g>
      <path class="cls-1" d="m30.05,6.21c-1.79-1.38-3.67-2.36-5.74-2.95-.94-.27-1.89-.47-2.87-.56-.71-.06-1.42-.14-2.12-.13-1.43.02-2.85.21-4.25.59-1.86.51-3.59,1.31-5.18,2.41-.74.51-1.43,1.07-2.07,1.69-.22.22-.35.21-.56,0-.51-.53-1.04-1.04-1.56-1.56,1.63-1.67,3.51-2.97,5.61-3.95,1.6-.75,3.29-1.27,5.03-1.54.75-.12,1.51-.21,2.28-.19.46,0,.92,0,1.39,0,2.07,0,4.05.41,5.99,1.07,2.14.73,4.06,1.83,5.81,3.25.07.06.14.14.24.09.09-.05.04-.15.04-.22,0-.46,0-.92,0-1.39,0-.19.02-.29.26-.29.69.02,1.39.01,2.08,0,.21,0,.28.05.28.27,0,1.92,0,3.83,0,5.75,0,.25-.09.28-.31.28-1.9,0-3.8,0-5.71,0-.22,0-.31-.05-.3-.29.02-.68.02-1.36,0-2.04,0-.24.07-.3.3-.29.42.02.84,0,1.35,0Z"/>
      <path class="cls-1" d="m9.04,32.79c1.73,1.36,3.57,2.33,5.6,2.95,1.04.32,2.09.51,3.17.65.87.11,1.73.09,2.59.05,1.27-.06,2.52-.26,3.75-.62,1.09-.32,2.14-.71,3.14-1.24,1.15-.6,2.23-1.31,3.22-2.16.28-.24.55-.47.8-.74.14-.15.26-.15.41,0,.5.51,1.02,1.02,1.52,1.53.07.07.16.1.02.24-1.06,1.02-2.2,1.92-3.45,2.69-1.83,1.14-3.8,1.94-5.9,2.44-1.92.46-3.87.58-5.83.47-1.05-.06-2.09-.26-3.12-.52-1.54-.38-3.01-.94-4.42-1.67-1.2-.62-2.32-1.36-3.36-2.23-.03-.02-.06-.03-.15-.07,0,.56-.01,1.08,0,1.6,0,.24-.04.33-.31.32-.68-.02-1.36-.01-2.04,0-.21,0-.28-.07-.27-.28,0-1.92,0-3.83,0-5.75,0-.21.06-.28.27-.28,1.93,0,3.86,0,5.79,0,.2,0,.26.06.26.25,0,.71-.01,1.41,0,2.12,0,.21-.08.25-.27.24-.45,0-.9,0-1.43,0Z"/>
      <path class="cls-1" d="m37.8,17.79c.33,0,.65,0,.98,0,.19,0,.29.02.28.26-.01,1.14,0,2.28,0,3.42,0,.16-.03.21-.21.25-.75.15-1.5-.11-2.24-.01-.12.02-.17-.05-.16-.17.04-.66-.01-1.32.05-1.98.04-.45-.03-.93-.06-1.4-.01-.29.1-.38.38-.37.32.02.65,0,.98,0Z"/>
      <path class="cls-1" d="m38.57,14.71c.02.12-.07.12-.17.15-.7.22-1.4.43-2.1.68-.15.05-.22.02-.25-.09-.34-1.13-.72-2.24-1.21-3.31-.08-.16.07-.15.13-.18.67-.29,1.34-.58,2.02-.85.24-.1.31.12.38.29.39.94.76,1.87,1.04,2.85.04.15.1.3.16.46Z"/>
      <path class="cls-1" d="m4.46,11.63c-.14.34-.25.66-.39.97-.36.73-.6,1.51-.87,2.27-.09.26-.22.27-.42.2-.63-.21-1.27-.41-1.89-.63-.15-.05-.26-.12-.17-.37.36-1.09.79-2.16,1.25-3.21.08-.19.14-.27.36-.16.65.3,1.32.56,1.98.85.06.03.12.07.16.09Z"/>
      <path class="cls-1" d="m36.14,23.9c.49.17.99.33,1.48.5.81.28.8.27.54,1.12-.28.89-.66,1.74-1.01,2.6-.1.24-.21.32-.48.19-.57-.28-1.17-.52-1.76-.76-.22-.09-.3-.2-.19-.44.45-.97.85-1.97,1.16-3,.03-.1.07-.25.24-.2Z"/>
      <path class="cls-1" d="m1.93,27.96c-.07-.04-.1-.1-.13-.17-.47-1.08-.82-2.19-1.21-3.29-.07-.18-.08-.28.19-.37.67-.22,1.36-.41,2.02-.64.19-.07.18-.04.24.13.35,1.05.7,2.11,1.16,3.13.07.16.06.28-.09.34-.7.29-1.41.56-2.11.84-.02,0-.04.03-.07.05Z"/>
      <path class="cls-1" d="m2.69,17.37c-.13.46-.06.89-.07,1.32-.01.76,0,1.52,0,2.28,0,.14.02.26-.2.26-.7-.02-1.4-.03-2.09.08-.28.04-.33-.08-.32-.33.01-1.02,0-2.03,0-3.05,0-.61.01-.61.62-.62.69,0,1.36.16,2.06.07Z"/>
      <path class="cls-1" d="m28.22,9.78c-2.57-2.3-5.63-3.38-9.04-3.3-3.62.08-6.73,1.48-9.19,4.16-2.46,2.69-3.62,5.88-3.46,9.54.27,6.48,5.82,12.38,14.76,12.35,2.09-.03,5.38-1.5,8-4.38,2.23-2.45,3.32-5.41,3.3-8.69-.02-3.83-1.5-7.11-4.37-9.69Zm-4.61,15.06c-.68.48-1.41.83-2.23.98-.26.05-.37.16-.36.43.01.42-.01.83,0,1.25.02.31-.08.42-.39.4-.29-.03-.58,0-.87,0-1.27,0-1.31,0-1.25-1.25.03-.6-.3-.68-.71-.7-1.12-.07-2.17-.39-3.2-.78-.75-.28-.76-.37-.39-1.13.3-.63.58-1.28.84-1.93.13-.32.28-.35.57-.2,1.35.7,2.79.99,4.3.88.02,0,.04,0,.05,0,.35-.13.9,0,.96-.55.06-.52-.38-.64-.79-.77-1.1-.34-2.26-.45-3.35-.86-1.22-.46-2.27-1.09-2.6-2.5-.48-2.06.58-3.83,2.42-4.56.49-.19.98-.37,1.51-.44.27-.03.37-.16.36-.42-.01-.4,0-.8,0-1.2-.01-.27.06-.39.36-.38.62.02,1.23.02,1.85,0,.28,0,.34.11.33.35-.01.42.01.83,0,1.25-.01.3.09.38.4.41,1,.08,1.97.34,2.88.78.17.08.33.13.2.43-.36.78-.66,1.58-.98,2.38-.11.27-.23.38-.56.22-1.21-.59-2.5-.75-3.83-.67-.42.02-.77.2-.85.59-.1.44.26.6.65.74,1.11.39,2.3.45,3.41.85.88.32,1.72.67,2.28,1.51.93,1.39.62,3.74-.99,4.9Z"/>
    </g>
  </g>
</svg>