<?xml version="1.0" encoding="utf-8"?>
<!-- Generator: Adobe Illustrator 27.4.0, SVG Export Plug-In . SVG Version: 6.00 Build 0)  -->
<svg version="1.1" id="Layer_2_00000135685851567070310150000016356339071071571590_"
	 xmlns="http://www.w3.org/2000/svg" xmlns:xlink="http://www.w3.org/1999/xlink" x="0px" y="0px" viewBox="0 0 54.9 17.8"
	 style="enable-background:new 0 0 54.9 17.8;" xml:space="preserve">
<style type="text/css">
	.st0{fill:#0A2D49;}
</style>
<g id="Layer_1-2">
	<g>
		<path class="st0" d="M33,8.9c0-2.8,0-5.5,0-8.3c0-0.4,0.1-0.5,0.5-0.5c4.5,0,9.1,0,13.6,0c0.4,0,0.5,0.1,0.5,0.5
			c0,1.1,0,2.2,0,3.3c0,0.4-0.1,0.5-0.5,0.5c-2.6,0-5.3,0-7.9,0c-0.5,0-0.7,0.2-0.7,0.7c0,0.3,0,0.6,0,0.8c-0.1,0.5,0.1,0.5,0.5,0.5
			c2.4,0,4.8,0,7.1,0c0.4,0,0.6,0.1,0.6,0.5c0,0.8,0,1.7,0,2.5c0,0.4-0.1,0.4-0.4,0.4c-2.4,0-4.8,0-7.3,0c-0.5,0-0.5,0.1-0.5,0.6
			c0,1,0,2,0,2.9c0,0.4,0.1,0.5,0.5,0.5c2.7,0,5.4,0,8,0c0.4,0,0.6,0.1,0.5,0.6c0,0.9,0,1.9,0,2.8c0,0.3-0.1,0.4-0.4,0.4
			c-4.6,0-9.2,0-13.7,0c-0.3,0-0.4-0.1-0.4-0.4C33,14.5,33,11.7,33,8.9L33,8.9z"/>
		<path class="st0" d="M0,11.8c1.1-0.1,2.2-0.1,3.3-0.2c0.4,0,0.8-0.1,1.2-0.1c0.3,0,0.4,0.1,0.5,0.4c0.3,1,0.7,2,1.8,2.4
			c1.2,0.4,2.6,0.3,3.4-0.8c0.5-0.8,0.3-1.6-0.4-2.1c-0.7-0.5-1.5-0.5-2.3-0.7c-1.6-0.4-3.2-0.9-4.7-1.7c-1.2-0.7-2-1.7-2-3.2
			c-0.1-1.1-0.1-2.1,0.6-3c0.9-1.2,2-2,3.5-2.3C6.1,0.1,7.2-0.1,8.4,0c1.3,0.1,2.6,0.2,3.9,0.7c1.1,0.4,1.8,1.2,2.2,2.2
			c0.2,0.6,0.4,1.2,0.6,1.9c0.1,0.3,0,0.3-0.2,0.3c-0.6,0.1-1.3,0.1-1.9,0.1c-0.7,0-1.4,0.1-2.1,0.2c-0.6,0.1-0.7,0.1-0.8-0.5
			C9.8,3.6,8.3,3,7.4,3C6.9,3,6.4,3.1,6.1,3.4C5.7,3.7,5.5,4,5.5,4.5C5.6,5,5.9,5.3,6.4,5.5C7.2,5.9,8.1,6.1,9,6.2
			c1.8,0.4,3.5,1,5,2.1c0.9,0.7,1.4,1.7,1.5,2.9c0.2,1.5-0.2,2.8-1,3.9c-0.9,1.2-2.2,2-3.8,2.4c-1.5,0.4-3,0.3-4.6,0.2
			c-0.9-0.1-1.8-0.3-2.7-0.6c-1.5-0.5-2.3-1.6-2.8-3C0.4,13.4,0.1,12.6,0,11.8L0,11.8z"/>
		<path class="st0" d="M17,8.9c0-2.8,0-5.5,0-8.3c0-0.3,0.1-0.4,0.4-0.4c2.3,0,4.6,0,6.9,0c1.2,0,2.4,0.1,3.6,0.2
			c1.5,0.2,3.3,2,3.6,3.5c0.2,1.1,0.3,2.2,0,3.3c-0.3,1-0.8,1.8-1.6,2.5c-1,0.8-2.2,1.2-3.5,1.3c-1.2,0.1-2.4,0.1-3.5,0.1
			c-0.4,0-0.5,0.1-0.5,0.5c0,1.9,0,3.7,0,5.6c0,0.3-0.1,0.4-0.4,0.4c-1.5,0-3,0-4.6,0c-0.3,0-0.4-0.1-0.4-0.4
			C17,14.4,17,11.7,17,8.9L17,8.9z M22.2,5.6c0,0.5,0,1.1,0,1.6c0,0.2,0.1,0.3,0.3,0.3c0.7,0,1.4,0,2.1,0c0.5,0,1-0.2,1.4-0.6
			c1-1.1,0.4-2.8-0.8-3c-0.9-0.2-1.9-0.1-2.8-0.2c-0.2,0-0.2,0.2-0.2,0.3C22.2,4.6,22.2,5.1,22.2,5.6L22.2,5.6z"/>
		<path class="st0" d="M51.4,13.1c1.1-1.3,2.1-2.6,3.2-3.9C54.7,9.1,54.7,9,54.9,9c0.1,0,0,0.2,0,0.2c0,2.7,0,5.4,0,8
			c0,0.3-0.1,0.3-0.3,0.3c-1.6,0-3.2,0-4.8,0c-0.3,0-0.3-0.1-0.3-0.3c0-2.3,0-4.7,0-7c0-0.3,0.1-0.4,0.3-0.4c0.4,0,0.8,0,1.2,0
			c0.3,0,0.3,0.1,0.3,0.4c0,0.8,0,1.6,0,2.3C51.4,12.8,51.3,12.9,51.4,13.1L51.4,13.1z"/>
		<path class="st0" d="M51.4,2.5c0,1.2,0,2.4,0,3.6c0,0.3-0.1,0.5-0.5,0.4c-0.4,0-0.8,0-1.2,0c-0.2,0-0.3-0.1-0.3-0.3
			c0-1.9,0-3.8,0-5.7c0-0.2,0.1-0.3,0.3-0.3c1.6,0,3.3,0,4.9,0c0.2,0,0.3,0,0.3,0.3c0,2.3,0,4.6,0,6.9c0,0,0,0.1-0.1,0.1
			c-0.6-0.9-1.1-1.7-1.7-2.5C52.6,4.1,52,3.3,51.4,2.5L51.4,2.5L51.4,2.5z"/>
	</g>
</g>
</svg>
