<?xml version="1.0" encoding="utf-8"?>
<!-- Generator: Adobe Illustrator 27.4.0, SVG Export Plug-In . SVG Version: 6.00 Build 0)  -->
<svg version="1.1" id="Layer_2_00000170275522284009597700000017068639314249073289_"
	 xmlns="http://www.w3.org/2000/svg" xmlns:xlink="http://www.w3.org/1999/xlink" x="0px" y="0px" viewBox="0 0 39.1 39.1"
	 style="enable-background:new 0 0 39.1 39.1;" xml:space="preserve">
<style type="text/css">
	.st0{fill:#0A2D49;}
</style>
<g id="Layer_1-2">
	<g>
		<path class="st0" d="M30,6.2c-1.8-1.4-3.7-2.4-5.7-3c-0.9-0.3-1.9-0.5-2.9-0.6c-0.7-0.1-1.4-0.1-2.1-0.1c-1.4,0-2.9,0.2-4.2,0.6
			c-1.9,0.5-3.6,1.3-5.2,2.4C9.1,6.1,8.5,6.6,7.8,7.3c-0.2,0.2-0.3,0.2-0.6,0c-0.5-0.5-1-1-1.6-1.6c1.6-1.7,3.5-3,5.6-4
			c1.6-0.8,3.3-1.3,5-1.5C17.1,0.1,17.9,0,18.6,0c0.5,0,0.9,0,1.4,0c2.1,0,4.1,0.4,6,1.1c2.1,0.7,4.1,1.8,5.8,3.2
			c0.1,0.1,0.1,0.1,0.2,0.1c0.1-0.1,0-0.2,0-0.2c0-0.5,0-0.9,0-1.4c0-0.2,0-0.3,0.3-0.3c0.7,0,1.4,0,2.1,0c0.2,0,0.3,0,0.3,0.3
			c0,1.9,0,3.8,0,5.8c0,0.2-0.1,0.3-0.3,0.3c-1.9,0-3.8,0-5.7,0c-0.2,0-0.3-0.1-0.3-0.3c0-0.7,0-1.4,0-2c0-0.2,0.1-0.3,0.3-0.3
			C29.1,6.2,29.5,6.2,30,6.2L30,6.2z"/>
		<path class="st0" d="M9,32.8c1.7,1.4,3.6,2.3,5.6,3c1,0.3,2.1,0.5,3.2,0.7c0.9,0.1,1.7,0.1,2.6,0c1.3-0.1,2.5-0.3,3.8-0.6
			c1.1-0.3,2.1-0.7,3.1-1.2c1.1-0.6,2.2-1.3,3.2-2.2c0.3-0.2,0.5-0.5,0.8-0.7c0.1-0.1,0.3-0.1,0.4,0c0.5,0.5,1,1,1.5,1.5
			c0.1,0.1,0.2,0.1,0,0.2c-1.1,1-2.2,1.9-3.5,2.7c-1.8,1.1-3.8,1.9-5.9,2.4C22,39,20,39.2,18.1,39.1C17,39,16,38.8,15,38.5
			c-1.5-0.4-3-0.9-4.4-1.7c-1.2-0.6-2.3-1.4-3.4-2.2c0,0-0.1,0-0.2-0.1c0,0.6,0,1.1,0,1.6c0,0.2,0,0.3-0.3,0.3c-0.7,0-1.4,0-2,0
			c-0.2,0-0.3-0.1-0.3-0.3c0-1.9,0-3.8,0-5.8c0-0.2,0.1-0.3,0.3-0.3c1.9,0,3.9,0,5.8,0c0.2,0,0.3,0.1,0.3,0.2c0,0.7,0,1.4,0,2.1
			c0,0.2-0.1,0.2-0.3,0.2C10,32.8,9.6,32.8,9,32.8L9,32.8z"/>
		<path class="st0" d="M37.8,17.8c0.3,0,0.7,0,1,0c0.2,0,0.3,0,0.3,0.3c0,1.1,0,2.3,0,3.4c0,0.2,0,0.2-0.2,0.2
			c-0.8,0.1-1.5-0.1-2.2,0c-0.1,0-0.2,0-0.2-0.2c0-0.7,0-1.3,0-2c0-0.5,0-0.9-0.1-1.4c0-0.3,0.1-0.4,0.4-0.4
			C37.1,17.8,37.5,17.8,37.8,17.8z"/>
		<path class="st0" d="M38.6,14.7c0,0.1-0.1,0.1-0.2,0.1c-0.7,0.2-1.4,0.4-2.1,0.7c-0.2,0.1-0.2,0-0.2-0.1c-0.3-1.1-0.7-2.2-1.2-3.3
			C34.8,12,34.9,12,35,12c0.7-0.3,1.3-0.6,2-0.9c0.2-0.1,0.3,0.1,0.4,0.3c0.4,0.9,0.8,1.9,1,2.8C38.5,14.4,38.5,14.5,38.6,14.7z"/>
		<path class="st0" d="M4.5,11.6c-0.1,0.3-0.2,0.7-0.4,1c-0.4,0.7-0.6,1.5-0.9,2.3c-0.1,0.3-0.2,0.3-0.4,0.2
			c-0.6-0.2-1.3-0.4-1.9-0.6c-0.1-0.1-0.3-0.1-0.2-0.4C1.1,13,1.5,11.9,2,10.9c0.1-0.2,0.1-0.3,0.4-0.2c0.7,0.3,1.3,0.6,2,0.9
			C4.4,11.6,4.4,11.6,4.5,11.6L4.5,11.6z"/>
		<path class="st0" d="M36.1,23.9c0.5,0.2,1,0.3,1.5,0.5c0.8,0.3,0.8,0.3,0.5,1.1c-0.3,0.9-0.7,1.7-1,2.6c-0.1,0.2-0.2,0.3-0.5,0.2
			c-0.6-0.3-1.2-0.5-1.8-0.8c-0.2-0.1-0.3-0.2-0.2-0.4c0.5-1,0.8-2,1.2-3C35.9,24,36,23.9,36.1,23.9L36.1,23.9z"/>
		<path class="st0" d="M1.9,28c-0.1,0-0.1-0.1-0.1-0.2c-0.5-1.1-0.8-2.2-1.2-3.3c-0.1-0.2-0.1-0.3,0.2-0.4c0.7-0.2,1.4-0.4,2-0.6
			C3,23.4,3,23.4,3,23.6c0.3,1,0.7,2.1,1.2,3.1c0.1,0.2,0.1,0.3-0.1,0.3C3.4,27.4,2.7,27.6,1.9,28C2,27.9,2,28,1.9,28L1.9,28z"/>
		<path class="st0" d="M2.7,17.4c-0.1,0.5-0.1,0.9-0.1,1.3c0,0.8,0,1.5,0,2.3c0,0.1,0,0.3-0.2,0.3c-0.7,0-1.4,0-2.1,0.1
			C0.1,21.4,0,21.2,0,21c0-1,0-2,0-3c0-0.6,0-0.6,0.6-0.6C1.3,17.3,2,17.5,2.7,17.4L2.7,17.4z"/>
		<path class="st0" d="M28.2,9.8c-2.6-2.3-5.6-3.4-9-3.3C15.6,6.6,12.5,8,10,10.6c-2.5,2.7-3.6,5.9-3.5,9.5
			c0.3,6.5,5.8,12.4,14.8,12.3c2.1,0,5.4-1.5,8-4.4c2.2-2.5,3.3-5.4,3.3-8.7C32.6,15.6,31.1,12.3,28.2,9.8L28.2,9.8z M23.6,24.8
			c-0.7,0.5-1.4,0.8-2.2,1c-0.3,0-0.4,0.2-0.4,0.4c0,0.4,0,0.8,0,1.2c0,0.3-0.1,0.4-0.4,0.4c-0.3,0-0.6,0-0.9,0
			c-1.3,0-1.3,0-1.2-1.2c0-0.6-0.3-0.7-0.7-0.7c-1.1-0.1-2.2-0.4-3.2-0.8c-0.8-0.3-0.8-0.4-0.4-1.1c0.3-0.6,0.6-1.3,0.8-1.9
			c0.1-0.3,0.3-0.4,0.6-0.2c1.4,0.7,2.8,1,4.3,0.9c0,0,0,0,0,0c0.4-0.1,0.9,0,1-0.5c0.1-0.5-0.4-0.6-0.8-0.8
			c-1.1-0.3-2.3-0.5-3.4-0.9c-1.2-0.5-2.3-1.1-2.6-2.5c-0.5-2.1,0.6-3.8,2.4-4.6c0.5-0.2,1-0.4,1.5-0.4c0.3,0,0.4-0.2,0.4-0.4
			c0-0.4,0-0.8,0-1.2c0-0.3,0.1-0.4,0.4-0.4c0.6,0,1.2,0,1.9,0c0.3,0,0.3,0.1,0.3,0.4c0,0.4,0,0.8,0,1.2c0,0.3,0.1,0.4,0.4,0.4
			c1,0.1,2,0.3,2.9,0.8c0.2,0.1,0.3,0.1,0.2,0.4c-0.4,0.8-0.7,1.6-1,2.4c-0.1,0.3-0.2,0.4-0.6,0.2c-1.2-0.6-2.5-0.8-3.8-0.7
			c-0.4,0-0.8,0.2-0.9,0.6c-0.1,0.4,0.3,0.6,0.6,0.7c1.1,0.4,2.3,0.5,3.4,0.9c0.9,0.3,1.7,0.7,2.3,1.5
			C25.5,21.3,25.2,23.7,23.6,24.8L23.6,24.8z"/>
	</g>
</g>
</svg>
