<?xml version="1.0" encoding="utf-8"?>
<!-- Generator: Adobe Illustrator 27.4.0, SVG Export Plug-In . SVG Version: 6.00 Build 0)  -->
<svg version="1.1" id="Layer_2_00000040559655358087814640000004016046114917822126_"
	 xmlns="http://www.w3.org/2000/svg" xmlns:xlink="http://www.w3.org/1999/xlink" x="0px" y="0px" viewBox="0 0 43.2 42.4"
	 style="enable-background:new 0 0 43.2 42.4;" xml:space="preserve">
<style type="text/css">
	.st0{fill:#0A2D49;}
</style>
<g id="Layer_1-2">
	<g>
		<path class="st0" d="M37.9,20.9c-0.3,0.4-0.7,0.8-1.1,1.2c-0.2,0.3-0.5,0.5-0.9,0.6c0.1,0.1,0.2,0.3,0.3,0.5
			c0.3,0.6,0.1,1.2-0.1,1.8c-1.1,3.2-2.6,6.3-4.3,9.2c-0.4,0.7-0.8,1.5-1.5,2.1c-0.5,0.5-1.2,0.7-1.9,0.5c-1.2-0.3-2.1-1.3-2-2.6
			c0-1.4,0-2.8,0-4.2c0-1-0.7-1.8-1.6-2.1c-0.4-0.1-0.7,0-1-0.1c-1.4-0.3-2.6-0.8-3.6-2c-1.1-1.4-1.7-2.9-1.2-4.8
			c0.6-2.6,2.9-4.4,5.6-4.4c0.6,0,1.2,0,1.9,0c0.5,0,0.7-0.3,0.7-0.7c0-0.4-0.3-0.7-0.8-0.7c-0.8,0-1.6,0-2.5,0
			c-1,0-1.8-0.4-2.4-1.1c-0.7-0.9-0.8-2.2-0.2-3.2c0.9-1.4,1.7-2.8,2.5-4.2c-0.9-0.2-1.8-0.3-2.6-0.4c-0.3,0-0.3,0.1-0.3,0.3
			c-0.1,1-0.4,1.7-1.6,2.2c-1.3,0.5-2.5,0.9-3.8,1.4c-1.6,0.6-2.9-0.4-3-1.9c0-0.4-0.1-0.4-0.4-0.2c-0.1,0.1-0.2,0.1-0.3,0.2
			C11.5,8.4,11,8.5,11,9c0,0.1,0,0.2,0,0.4c-0.3,1.3-0.8,2.6-1.6,3.8c0.7,0,1.4,0,2,0c1.7,0,2.7,1.4,2.2,3c-0.2,0.7-0.8,1.1-1.2,1.7
			c-0.7,0.9-1.5,1.7-2.2,2.5c-0.4,0.4-0.6,0.9-0.6,1.5c0,1.2-1.2,2.4-2.4,2.4c-1.7,0-3.4,0-5.1,0L2,24.3c0,0.3,0,0.7,0,1
			c0,1.4,0.3,2.7,0.7,4c0.1,0.5,0.3,1.1,0.6,1.6c0.3-0.7,0.6-1.4,1-2.1c0.9-1.8,3.4-2.2,4.9-1.1c0.4,0.3,0.8,0.8,1.4,1
			c0.9,0.3,1.9,0.6,2.8,0.9c1.5,0.5,2.7,1.4,3.1,3c0.3,1.2,0.2,2.5,0.1,3.8c-0.1,1.1-0.6,1.8-1.4,2.4c-0.4,0.3-0.6,0.6-0.6,1.1
			c0,0.5,0,0.9,0,1.4c0,0.2,0.1,0.2,0.2,0.3c1.3,0.5,2.6,0.7,3.9,0.8c1.5,0.1,3,0.1,4.5-0.2c1.9-0.4,3.7-1,5.4-1.9
			c1.8-1,3.4-2.2,4.7-3.7c1.3-1.4,2.4-3,3.2-4.8c1-2.1,1.4-4.4,1.6-6.6c0-0.7,0-1.5-0.1-2.2C38.1,22.1,38,21.5,37.9,20.9L37.9,20.9z
			"/>
		<path class="st0" d="M15.3,35.1c0,0.4,0.1,1-0.1,1.5c-0.1,0.4-0.3,0.8-0.6,1c-1,0.7-1.4,1.6-1.4,2.8c0,0.6,0,0.7-0.6,0.4
			c-1.6-0.8-3-1.7-4.4-2.9c-1.5-1.3-2.7-2.8-3.7-4.5c-0.3-0.5-0.4-0.9-0.1-1.5c0.4-0.7,0.7-1.5,1-2.3c0.6-1.4,2.3-1.4,3.2-0.5
			c0.7,0.7,1.6,1,2.5,1.3c0.7,0.2,1.5,0.5,2.2,0.7c1.3,0.4,1.9,1.4,1.9,2.7C15.3,34.2,15.3,34.6,15.3,35.1L15.3,35.1z"/>
		<path class="st0" d="M29.4,16.1c-1-1.7-2.1-3.5-2.6-5.7c-0.3-1-0.3-2.1-0.2-3.1c-0.3-0.1-0.7-0.2-1-0.4c-0.2-0.1-0.4,0-0.5,0.2
			c-0.8,1.4-1.7,2.8-2.6,4.3c-0.3,0.5-0.4,1-0.1,1.5c0.3,0.5,0.7,0.8,1.3,0.8c1,0,2-0.1,3.1,0.1c1.1,0.2,2,1.6,1.6,2.6
			c-0.4,1-1.3,1.5-2.1,1.5c-0.8,0-1.6,0-2.4,0c-2.1,0.2-4,2.4-3.7,4.7c0.3,2.1,2,3.6,4.1,3.6c1.9,0,3.4,1.4,3.5,3.3
			c0.1,1.5,0,3.1,0,4.6c0,0.3,0.1,0.5,0.2,0.7c0.4,0.5,1.3,0.5,1.8-0.3c0.8-1.4,1.7-2.8,2.4-4.2c1-2,2-4.1,2.7-6.3
			C35.3,23.3,30.4,17.8,29.4,16.1L29.4,16.1z"/>
		<path class="st0" d="M3.4,17.4C3.8,17.7,4.2,18,4.8,18c0.8,0,1.3-0.4,1.8-0.9c0.7-0.8,1.3-1.6,1.8-2.4c0.1-0.1,0.2-0.1,0.4-0.1
			c0.9,0,1.9,0,2.8,0c0.4,0,0.7,0.2,0.8,0.5c0.1,0.3,0.1,0.6-0.2,0.9c-1,1.1-2,2.3-3,3.5c-0.6,0.7-0.9,1.4-0.9,2.3
			c0,0.5-0.6,1.1-1.2,1.1c-1.6,0-3.2,0-4.7,0c-0.3,0-0.2-0.2-0.2-0.3c0.2-1.2,0.3-2.5,0.8-3.7C3,18.4,3.2,17.9,3.4,17.4L3.4,17.4z"
			/>
		<path class="st0" d="M13.9,7.8c-0.1-0.4,0.1-0.5,0.5-0.6c1.3-0.4,2.5-0.7,3.9-0.8c0.2,0,0.5-0.1,0.7-0.1c0.2,0,0.5-0.2,0.6,0.1
			c0.1,0.3,0,0.7-0.3,0.9c-0.3,0.2-0.6,0.3-0.9,0.4c-1,0.4-2.1,0.8-3.2,1.2c-0.8,0.3-1.3-0.1-1.2-0.8C13.9,7.9,13.9,7.9,13.9,7.8z"
			/>
		<path class="st0" d="M2.1,24.3C2.1,24.3,2.1,24.3,2.1,24.3C2,24.3,2.1,24.2,2.1,24.3z"/>
		<path class="st0" d="M9.6,7.2C8.9,4.4,6.5,3.1,3.9,3.5C1.7,3.9,0,5.9,0,8.3c0,0.2,0,0.5,0,0.8c0.2,1.1,0.6,2,1.2,2.9
			c0.9,1.5,2,3,3.1,4.3c0.3,0.4,0.6,0.4,0.9,0c0.3-0.3,0.5-0.6,0.8-0.9c1.2-1.5,2.3-3,3.1-4.8C9.7,9.5,9.9,8.4,9.6,7.2z M6.6,11.2
			c-0.3,0.2-0.6,0.4-1,0.4c-0.1,0-0.2,0.1-0.2,0.2c0,0.2,0,0.4,0,0.5c0,0.1,0,0.2-0.2,0.2c-0.1,0-0.2,0-0.4,0c-0.6,0-0.6,0-0.5-0.5
			c0-0.3-0.1-0.3-0.3-0.3c-0.5,0-0.9-0.2-1.4-0.3c-0.3-0.1-0.3-0.2-0.2-0.5c0.1-0.3,0.2-0.6,0.4-0.8C3,9.9,3,9.9,3.2,9.9
			c0.6,0.3,1.2,0.4,1.9,0.4h0c0.2-0.1,0.4,0,0.4-0.2c0-0.2-0.2-0.3-0.3-0.3c-0.5-0.1-1-0.2-1.4-0.4c-0.5-0.2-1-0.5-1.1-1.1
			c-0.2-0.9,0.2-1.7,1-2C3.8,6.3,4,6.2,4.2,6.2c0.1,0,0.2-0.1,0.2-0.2c0-0.2,0-0.3,0-0.5c0-0.1,0-0.2,0.2-0.2c0.3,0,0.5,0,0.8,0
			c0.1,0,0.1,0.1,0.1,0.2c0,0.2,0,0.4,0,0.5c0,0.1,0,0.2,0.2,0.2c0.4,0,0.8,0.2,1.2,0.3C7,6.5,7,6.6,7,6.7C6.8,7,6.7,7.4,6.5,7.7
			C6.5,7.8,6.4,7.9,6.3,7.8C5.8,7.5,5.2,7.5,4.7,7.5c-0.2,0-0.3,0.1-0.4,0.2c0,0.2,0.1,0.3,0.3,0.3C5,8.2,5.6,8.3,6,8.4
			c0.4,0.1,0.7,0.3,1,0.6C7.4,9.7,7.3,10.7,6.6,11.2L6.6,11.2z"/>
		<path class="st0" d="M43.2,7.7c-0.1-0.4,0-0.9-0.1-1.4c-0.4-1.7-1.2-3.2-2.5-4.3c-1.9-1.7-4.2-2.3-6.6-1.8
			c-1.8,0.3-3.5,1.2-4.6,2.8c-1.4,2-2.1,4.1-1.5,6.6c0.5,2,1.4,3.7,2.5,5.4c1.3,2.1,2.8,3.9,4.3,5.8c0.4,0.5,1,0.5,1.5,0
			c2-2.1,3.7-4.4,5.1-6.9C42.3,12,43.3,10.1,43.2,7.7L43.2,7.7z M38.6,13c-0.5,0.4-1.1,0.6-1.7,0.8c-0.2,0-0.3,0.1-0.3,0.3
			c0,0.3,0,0.6,0,1c0,0.2-0.1,0.3-0.3,0.3c-0.2,0-0.5,0-0.7,0c-1,0-1,0-1-1c0-0.5-0.2-0.5-0.5-0.6c-0.9-0.1-1.7-0.3-2.5-0.6
			C31,13,31,12.9,31.3,12.4c0.2-0.5,0.5-1,0.7-1.5c0.1-0.2,0.2-0.3,0.4-0.2c1,0.5,2.2,0.8,3.3,0.7c0,0,0,0,0,0
			c0.3-0.1,0.7,0,0.8-0.4c0-0.4-0.3-0.5-0.6-0.6c-0.9-0.3-1.8-0.4-2.6-0.7c-1-0.4-1.8-0.9-2-1.9c-0.4-1.6,0.5-3,1.9-3.6
			c0.4-0.2,0.8-0.3,1.2-0.3c0.2,0,0.3-0.1,0.3-0.3c0-0.3,0-0.6,0-0.9c0-0.2,0-0.3,0.3-0.3c0.5,0,1,0,1.4,0c0.2,0,0.3,0.1,0.3,0.3
			c0,0.3,0,0.7,0,1c0,0.2,0.1,0.3,0.3,0.3c0.8,0.1,1.5,0.3,2.2,0.6c0.1,0.1,0.3,0.1,0.2,0.3C39,5.4,38.8,6,38.5,6.6
			c-0.1,0.2-0.2,0.3-0.4,0.2c-0.9-0.5-2-0.6-3-0.5c-0.3,0-0.6,0.2-0.7,0.5c-0.1,0.3,0.2,0.5,0.5,0.6c0.9,0.3,1.8,0.3,2.7,0.7
			c0.7,0.3,1.3,0.5,1.8,1.2C40.1,10.2,39.9,12.1,38.6,13L38.6,13z"/>
	</g>
</g>
</svg>
