<?xml version="1.0" encoding="utf-8"?>
<!-- Generator: Adobe Illustrator 27.4.0, SVG Export Plug-In . SVG Version: 6.00 Build 0)  -->
<svg version="1.1" id="Layer_2_00000016068335669356541920000004355213404169448838_"
	 xmlns="http://www.w3.org/2000/svg" xmlns:xlink="http://www.w3.org/1999/xlink" x="0px" y="0px" viewBox="0 0 39 39"
	 style="enable-background:new 0 0 39 39;" xml:space="preserve">
<style type="text/css">
	.st0{fill:#0A2D49;}
</style>
<g id="Layer_1-2">
	<g>
		<path class="st0" d="M15.8,35.6c0,0.3,0.2,0.6,0,1c-0.1,0.2-0.3,0.4-0.5,0.5c-1.5,0.2-2.9-0.1-4.3-0.7c-0.9-0.4-1.7-0.8-2.5-1.5
			c-1.4-1.2-2.4-2.6-3-4.4c-0.2-0.5-0.3-1.1-0.4-1.6c-0.1-0.3-0.1-0.3-0.4-0.3c-0.5,0.1-0.9-0.2-1.1-0.6c-0.1-0.3-0.1-0.6,0.1-0.8
			c0.5-0.9,1.1-1.7,1.6-2.5c0.3-0.5,1.1-0.5,1.5-0.1c0.7,0.7,1.4,1.4,2.1,2c0.3,0.3,0.3,0.6,0.2,1c-0.1,0.4-0.4,0.6-0.8,0.6
			c-0.4,0-0.4,0.1-0.3,0.5c0.2,0.6,0.3,1.3,0.7,1.9c1.2,2.2,3.1,3.5,5.6,3.8c0.3,0,0.5,0,0.8,0.1c0.6,0,0.7,0.2,0.8,0.7
			C15.7,35.3,15.7,35.4,15.8,35.6L15.8,35.6z"/>
		<path class="st0" d="M24.2,1.9c1.3,0,2.6,0.2,3.9,0.7c1,0.4,1.9,0.9,2.6,1.6c1.4,1.2,2.4,2.7,3,4.5c0.1,0.5,0.3,0.9,0.3,1.4
			c0,0.3,0.2,0.2,0.4,0.2c0.7-0.1,1.2,0.3,1.2,0.9c0,0.3-0.2,0.6-0.3,0.8c-0.4,0.7-0.9,1.4-1.4,2.2c-0.4,0.6-1.1,0.5-1.5,0.1
			c-0.6-0.7-1.4-1.3-2-2c-0.3-0.2-0.3-0.5-0.3-0.9c0.1-0.4,0.3-0.6,0.8-0.7c0.5-0.1,0.5-0.2,0.4-0.7c-0.3-0.9-0.6-1.8-1.1-2.5
			c-1.2-1.7-2.9-2.7-5-2.9c-0.2,0-0.5,0-0.7-0.1c-0.6-0.1-0.8-0.2-0.9-0.8c0-0.4-0.1-0.7-0.1-1.1C23.3,2.2,23.4,2,24.2,1.9z"/>
		<g>
			<path class="st0" d="M28.8,28.6c-0.9-0.2-1.8,0-2.7-0.1c-0.2,0-0.2,0.1-0.2,0.2c0,0.7,0,1.4,0,2.1c0,0.2,0.1,0.3,0.3,0.2
				c0.4,0,0.8,0,1.2,0c0.1,0,0.2,0,0.3,0c0.5,0,1.1,0.1,1.6-0.3c0.4-0.3,0.6-0.7,0.5-1.1C29.7,29,29.4,28.7,28.8,28.6L28.8,28.6z"/>
			<path class="st0" d="M26.1,25.9c0.4,0,0.8,0,1.3,0c0.3,0,0.6,0,0.9,0c0.4,0,0.7-0.1,1-0.3c0.4-0.3,0.6-0.7,0.5-1.1
				c-0.1-0.7-0.4-1-0.9-1.1c-0.9-0.2-1.9,0-2.8-0.1c-0.2,0-0.2,0.1-0.2,0.2c0,0.7,0,1.4,0,2.2C25.9,25.8,26,25.9,26.1,25.9
				L26.1,25.9z"/>
			<path class="st0" d="M26.8,15.4c-3.3,0.1-6.1,1.4-8.3,3.8c-2.3,2.5-3.3,5.6-3.1,9c0.4,5.4,5.1,11,12.2,10.8
				c5.9-0.2,11.4-5.1,11.3-11.8C39.2,20.8,33.8,15.2,26.8,15.4L26.8,15.4z M32.4,29.8c-0.1,1.8-0.9,3.2-2.9,3.8
				c-0.1,0-0.4,0.1-0.5,0.1c-0.6-0.1-0.5,0.3-0.5,0.6c0,0.7,0,0.7-0.7,0.7c-0.5,0-1.1,0-1.6,0c-0.3,0-0.3-0.1-0.3-0.3
				c0-0.2,0-0.5,0-0.7c0-0.2-0.1-0.3-0.3-0.3c-1.1,0-2.2,0-3.3,0c-0.3,0-0.3-0.1-0.3-0.3c0-0.7,0-1.4,0-2c0-0.2,0.1-0.3,0.3-0.3
				c0.3,0,0.8,0.1,1-0.1c0.2-0.2,0.1-0.7,0.1-1c0-2.1,0-4.3,0-6.4c0-0.3-0.1-0.4-0.4-0.4c-0.3,0-0.7,0.1-0.9-0.1
				c-0.2-0.2,0-0.6-0.1-0.9c0-0.5,0-0.9,0-1.4c0-0.2,0-0.3,0.3-0.3c0.6,0,1.1,0,1.7,0c0.6,0,1.1,0,1.7,0c0.2,0,0.3,0,0.3-0.3
				c0-0.3-0.1-0.8,0.1-1c0.2-0.2,0.7-0.1,1-0.1c0.4,0,0.9,0,1.3,0c0.2,0,0.2,0,0.2,0.2c0,0.3,0,0.5,0,0.8c0,0.3,0.1,0.4,0.4,0.4
				c1.8,0.1,3.1,1.4,3.5,3.1c0.2,1.1,0,2.2-0.8,3.1c-0.1,0.2-0.1,0.3,0,0.5C32.2,28.1,32.4,28.9,32.4,29.8L32.4,29.8z"/>
		</g>
		<path class="st0" d="M23.6,10.3c-0.2-1.4-0.6-2.7-1.3-4c-0.9-1.6-2-3-3.5-4.1c-2.1-1.5-4.5-2.3-7.2-2.2C9.9-0.1,8.2,0.4,6.6,1.2
			c-1.7,0.8-3,2-4.2,3.5C1,6.5,0.3,8.6,0.1,10.8c-0.1,1.2,0,2.3,0.2,3.5c0.5,2.2,1.5,4.2,3.2,5.9c1.1,1.1,2.4,2,3.9,2.6
			c1.1,0.5,2.2,0.8,3.3,0.9c1.2,0.1,2.5,0.1,3.7-0.2c0.1,0,0.2-0.1,0.2-0.2c0.8-2.5,2.2-4.5,4.2-6.2c1.1-0.9,2.3-1.6,3.7-2.2
			c0.5-0.2,1.1-0.2,1.1-1c0-0.1,0-0.3,0-0.4C23.8,12.4,23.8,11.4,23.6,10.3L23.6,10.3z M15.9,17.2c-0.7,0.5-1.4,0.8-2.2,1
			c-0.3,0-0.4,0.2-0.4,0.4c0,0.4,0,0.8,0,1.2c0,0.3-0.1,0.4-0.4,0.4c-0.3,0-0.6,0-0.9,0c-1.3,0-1.3,0-1.2-1.2c0-0.6-0.3-0.7-0.7-0.7
			C9,18.2,8,17.9,6.9,17.5c-0.8-0.3-0.8-0.4-0.4-1.1c0.3-0.6,0.6-1.3,0.8-1.9c0.1-0.3,0.3-0.4,0.6-0.2c1.4,0.7,2.8,1,4.3,0.9
			c0,0,0,0,0.1,0c0.4-0.1,0.9,0,1-0.6c0.1-0.5-0.4-0.6-0.8-0.8c-1.1-0.3-2.3-0.4-3.3-0.9c-1.2-0.5-2.3-1.1-2.6-2.5
			C6,8.4,7.1,6.6,8.9,5.9c0.5-0.2,1-0.4,1.5-0.4c0.3,0,0.4-0.2,0.4-0.4c0-0.4,0-0.8,0-1.2c0-0.3,0.1-0.4,0.4-0.4c0.6,0,1.2,0,1.9,0
			c0.3,0,0.3,0.1,0.3,0.3c0,0.4,0,0.8,0,1.2c0,0.3,0.1,0.4,0.4,0.4c1,0.1,2,0.3,2.9,0.8c0.2,0.1,0.3,0.1,0.2,0.4
			c-0.4,0.8-0.7,1.6-1,2.4c-0.1,0.3-0.2,0.4-0.6,0.2c-1.2-0.6-2.5-0.8-3.8-0.7c-0.4,0-0.8,0.2-0.9,0.6c-0.1,0.4,0.3,0.6,0.6,0.7
			c1.1,0.4,2.3,0.4,3.4,0.9c0.9,0.3,1.7,0.7,2.3,1.5C17.9,13.7,17.6,16,15.9,17.2L15.9,17.2z"/>
	</g>
</g>
</svg>
