<?xml version="1.0" encoding="UTF-8"?>
<svg id="Layer_2" data-name="Layer 2" xmlns="http://www.w3.org/2000/svg" viewBox="0 0 677.06 443.56">
  <defs>
    <style>
      .cls-1 {
        fill: #1ea890;
      }

      .cls-2, .cls-3 {
        fill: #0a2d49;
      }

      .cls-4 {
        fill: #fff;
        opacity: .85;
        stroke: #1ea890;
        stroke-miterlimit: 10;
        stroke-width: 2px;
      }

      .cls-3 {
        opacity: .3;
      }

      .cls-5 {
        fill: #27dbbb;
      }
    </style>
  </defs>
  <g id="Layer_1-2" data-name="Layer 1">
    <g>
      <path class="cls-5" d="m614.69,284.18c22.65,0,69.14-12.96,61.54,6.4-6.05,15.38-21.95,44.08-29.56,66.55l-14.69-2.77-18.67,14.35h-31.81l-10.03,14.52,28.87,25.93-10.2,10.03-14.35,4.32h-20.23l-2.94,20.05c-20.22-18.15-40.79-44.6-59.98-38.37-23.86,7.61-171.83-8.64-214-59.46-42.18-50.82-5.36-50.82-21.61-75.71-16.08-24.72-147.97-188.94-166.29-220.23-18.5-31.46-49.78-27.14-24.89,16.08,24.89,43.22,89.71,150.22,98.36,158.86,8.64,8.64,17.29,41.14-16.25,8.64-33.54-32.5-37.86-72.43-56.18-74.5-18.32-2.25-49.61-27.14-47.54-33.54,2.07-6.4,22.64-7.61,19.36-14C60.67,105.27,22.99,33.36,0,6.05L49.96,0l72.08,31.63,76.4,7.26-2.94-14.35,41.83,1.38,11.41,14.35s18.84,12.97,24.55,23.16c5.7,10.03,24.55,41.66,34.57,34.57,10.03-7.26,18.67-23.16,18.67-23.16h20.23l60.5,92.31,36.65,7.78c0,1.73-.17,3.29-1.04,4.49-5.36,8.64-16.25,66.9-8.64,87.47,7.61,20.4,19.53,68.11,38.9,78.83,19.53,10.72,64.82,18.32,83.14,6.57,18.5-11.93,40.1-22.82,40.1-39.07s-4.32-29.04,18.32-29.04Z"/>
      <g>
        <circle class="cls-1" cx="86.78" cy="58.19" r="39.16"/>
        <circle class="cls-4" cx="83.41" cy="54.25" r="39.16"/>
        <g>
          <path class="cls-2" d="m88.9,54.26c0-2.75,0-5.51,0-8.26,0-.36.08-.48.47-.48,4.53.01,9.06.01,13.6,0,.36,0,.46.1.45.45-.02,1.11-.02,2.23,0,3.34,0,.37-.09.48-.47.48-2.63-.02-5.27,0-7.9,0q-.7,0-.7.72c0,.27.03.55,0,.81-.06.46.14.53.55.53,2.38-.02,4.76,0,7.14-.02.42,0,.58.08.56.54-.04.84-.03,1.68,0,2.53.01.35-.11.43-.44.43-2.42-.01-4.85,0-7.27-.02-.45,0-.55.13-.54.55.03.98.03,1.96,0,2.93-.01.39.08.51.49.5,2.68-.02,5.36,0,8.04-.02.43,0,.57.11.55.55-.03.93-.02,1.87,0,2.8,0,.3-.1.38-.39.38-4.58,0-9.15,0-13.73,0-.34,0-.39-.13-.39-.42,0-2.77,0-5.54,0-8.3Z"/>
          <path class="cls-2" d="m55.95,57.1c1.13-.06,2.23-.12,3.33-.19.4-.02.8-.06,1.2-.1.31-.03.45.07.54.41.27,1,.67,1.97,1.75,2.37,1.18.44,2.65.31,3.39-.84.49-.76.32-1.59-.42-2.11-.69-.48-1.52-.54-2.3-.73-1.62-.4-3.22-.86-4.66-1.74-1.19-.73-1.95-1.74-2.03-3.2-.06-1.07-.05-2.11.61-3.04.88-1.23,2.01-2.05,3.52-2.33,1.15-.21,2.31-.32,3.47-.25,1.31.08,2.61.19,3.86.69,1.09.43,1.82,1.16,2.2,2.25.21.61.37,1.24.57,1.86.09.27-.03.28-.25.33-.64.12-1.28.1-1.92.11-.7,0-1.4.05-2.09.16-.56.09-.68.05-.79-.53-.22-1.29-1.63-1.94-2.62-1.89-.46.02-.91.13-1.29.4-.35.25-.6.62-.56,1.05.06.5.4.86.87,1.06.85.35,1.74.55,2.63.73,1.82.38,3.54.98,5.02,2.11.93.71,1.36,1.69,1.53,2.87.21,1.48-.18,2.78-1.04,3.92-.94,1.25-2.24,2.03-3.78,2.4-1.51.36-3.04.32-4.57.18-.91-.08-1.78-.31-2.65-.6-1.48-.5-2.27-1.62-2.81-2.97-.3-.75-.56-1.52-.72-2.38Z"/>
          <path class="cls-2" d="m72.92,54.23c0-2.75,0-5.5,0-8.26,0-.34.07-.45.44-.45,2.29.02,4.58-.02,6.86.02,1.2.02,2.41.06,3.6.25,1.54.25,3.3,2.01,3.59,3.55.21,1.13.27,2.24-.03,3.35-.26.99-.81,1.84-1.61,2.51-1,.84-2.17,1.19-3.46,1.28-1.19.09-2.37.08-3.55.07-.37,0-.45.12-.45.46.02,1.85,0,3.7.01,5.55,0,.33-.08.44-.43.43-1.52-.02-3.04-.02-4.56,0-.33,0-.43-.08-.43-.42.01-2.78,0-5.56,0-8.35Zm5.27-3.26c0,.53,0,1.05,0,1.58,0,.25.08.35.34.34.69-.02,1.38,0,2.07-.03.52-.03,1-.17,1.38-.58,1-1.09.42-2.78-.77-3.03-.93-.2-1.87-.14-2.81-.16-.23,0-.21.17-.21.32,0,.53,0,1.05,0,1.58Z"/>
          <path class="cls-2" d="m107.39,58.41c1.07-1.29,2.13-2.58,3.19-3.87.06-.08.09-.21.23-.16.1.04.05.16.05.24,0,2.68,0,5.35,0,8.03,0,.26-.09.33-.34.33-1.61,0-3.22,0-4.83,0-.26,0-.33-.08-.33-.33,0-2.33,0-4.66,0-6.99,0-.27.06-.38.35-.36.41.02.81.02,1.22,0,.29-.02.35.09.35.36,0,.78.02,1.56.04,2.34,0,.13-.04.27.07.4Z"/>
          <path class="cls-2" d="m107.33,47.84c0,1.19-.01,2.37,0,3.56,0,.35-.08.48-.45.45-.4-.03-.81-.02-1.22,0-.24.01-.31-.08-.31-.31,0-1.91,0-3.82,0-5.73,0-.21.06-.28.28-.28,1.64,0,3.28,0,4.92,0,.21,0,.3.05.29.28,0,2.3,0,4.6-.01,6.9,0,.02-.03.05-.1.14-.57-.86-1.12-1.69-1.66-2.52-.55-.84-1.11-1.68-1.67-2.51l-.09.02Z"/>
        </g>
      </g>
      <g>
        <circle class="cls-1" cx="226.79" cy="47.32" r="39.16"/>
        <circle class="cls-4" cx="223.42" cy="43.38" r="39.16"/>
        <g>
          <path class="cls-2" d="m201.16,40.69c.17,0,.35.02.52.02,14.5,0,29,0,43.51,0,.37,0,.51.06.5.48-.02,4.78,0,9.56-.02,14.34,0,1.41-.47,2.35-1.89,2.84-.29.1-.6.16-.91.16-13.07,0-26.14,0-39.2,0-1.09,0-2.05-.79-2.42-1.96-.02-.06-.02-.11-.09-.13,0-5.25,0-10.49,0-15.74Zm15.95,7.14c2.66,0,5.33,0,7.99,0,.46,0,.86-.29.92-.66.09-.53-.1-.86-.63-1.06-.17-.06-.34-.05-.51-.05-5.14,0-10.28,0-15.42,0-.16,0-.32,0-.48.02-.37.04-.66.38-.7.74-.08.62.38,1.02.92,1.02,2.64-.02,5.27,0,7.91,0Zm-3.56,3.56c1.46,0,2.92,0,4.39,0,.59,0,.95-.32.96-.83,0-.58-.3-.93-.92-.93-2.92,0-5.85,0-8.77,0-.62,0-.92.33-.91.93,0,.52.35.83.96.83,1.43,0,2.87,0,4.3,0Z"/>
          <path class="cls-2" d="m245.58,35.37c-.17,0-.35,0-.52,0-14.46,0-28.92,0-43.39,0-.17,0-.35,0-.52,0v-5.04c.21-.31.28-.68.5-1,.55-.78,1.33-1.06,2.22-1.09.77-.03,1.54,0,2.3,0,12.17,0,24.34,0,36.51,0,1.15,0,2.1.4,2.68,1.47.24.44.28.93.29,1.4.04,1.39,0,2.78,0,4.17-.03.02-.05.05-.08.07Z"/>
        </g>
      </g>
      <g>
        <circle class="cls-1" cx="328.55" cy="299.8" r="39.16"/>
        <circle class="cls-4" cx="325.18" cy="295.86" r="39.16"/>
        <g>
          <path class="cls-2" d="m321.47,312.01c0,.29.16.62.02.95-.1.24-.26.41-.54.45-1.49.21-2.9-.14-4.27-.7-.89-.36-1.73-.85-2.46-1.48-1.38-1.19-2.42-2.62-3.02-4.37-.19-.55-.28-1.1-.43-1.65-.07-.27-.14-.31-.39-.27-.5.07-.87-.16-1.09-.59-.14-.29-.07-.57.06-.8.51-.86,1.06-1.71,1.59-2.55.35-.55,1.09-.51,1.46-.14.7.67,1.39,1.36,2.08,2.05.29.28.32.64.21.99-.12.37-.43.58-.82.61-.38.03-.42.11-.31.51.18.65.35,1.29.68,1.89,1.21,2.21,3.06,3.46,5.56,3.77.26.03.52.05.78.07.6.04.73.16.81.74.02.16.04.32.07.53Z"/>
          <path class="cls-2" d="m329.84,278.3c1.26-.02,2.63.18,3.94.72.97.4,1.86.93,2.65,1.62,1.41,1.24,2.44,2.73,2.96,4.54.14.47.3.94.33,1.43.02.32.23.19.38.18.7-.06,1.15.3,1.17.94,0,.32-.17.56-.32.8-.44.73-.92,1.44-1.37,2.17-.37.59-1.14.54-1.51.14-.64-.69-1.36-1.32-2.04-1.97-.26-.25-.34-.54-.26-.9.1-.41.34-.65.75-.72.54-.09.54-.16.38-.7-.26-.89-.56-1.76-1.11-2.51-1.24-1.7-2.9-2.7-5.02-2.91-.25-.02-.5-.03-.74-.05-.65-.06-.78-.15-.87-.79-.05-.36-.09-.73-.14-1.09-.07-.61.08-.8.82-.9Z"/>
          <g>
            <path class="cls-2" d="m334.52,304.94c-.91-.19-1.83-.04-2.74-.09-.2-.01-.16.13-.16.24,0,.71.01,1.41,0,2.12,0,.24.1.26.29.25.39,0,.79,0,1.18,0,.11,0,.22,0,.33,0,.53-.04,1.08.12,1.58-.28.38-.3.59-.69.53-1.12-.1-.67-.4-1-.98-1.13Z"/>
            <path class="cls-2" d="m331.83,302.25c.42-.01.84,0,1.26,0,.31,0,.62-.02.94,0,.36.02.66-.09.96-.3.39-.28.56-.68.51-1.08-.1-.71-.38-1-.93-1.13-.91-.22-1.85-.05-2.78-.1-.19,0-.18.1-.18.23,0,.72,0,1.44,0,2.16,0,.18.05.23.23.23Z"/>
            <path class="cls-2" d="m332.51,291.72c-3.29.09-6.1,1.37-8.32,3.82-2.31,2.55-3.34,5.57-3.07,9.01.42,5.44,5.12,11.03,12.24,10.8,5.89-.19,11.42-5.13,11.31-11.81.16-6.41-5.24-12.01-12.17-11.81Zm5.59,14.41c-.06,1.8-.93,3.18-2.92,3.84-.15.05-.35.1-.46.08-.58-.09-.52.26-.51.62.01.71,0,.71-.71.71-.53,0-1.06-.02-1.59,0-.26.01-.33-.07-.31-.32.02-.24-.01-.49,0-.73.02-.22-.07-.27-.27-.26-1.11,0-2.23,0-3.34.01-.26,0-.32-.07-.31-.32.02-.68.02-1.36,0-2.04,0-.22.06-.27.27-.27.33,0,.79.15.98-.06.2-.22.06-.67.06-1.02,0-2.13,0-4.26,0-6.39,0-.28-.06-.38-.35-.36-.31.02-.72.1-.9-.06-.19-.17-.05-.59-.06-.89,0-.46,0-.92,0-1.38,0-.21.05-.28.27-.27.57.02,1.14,0,1.71,0,.56,0,1.11,0,1.67,0,.21,0,.28-.05.27-.27-.01-.34-.11-.79.06-.98.2-.21.66-.06,1.01-.06.43-.01.87,0,1.3,0,.17,0,.24.04.23.22-.02.26.01.52,0,.77-.02.28.1.38.36.39,1.76.08,3.15,1.4,3.46,3.12.2,1.11-.02,2.18-.77,3.08-.15.18-.15.31,0,.49.58.66.87,1.49.84,2.33Z"/>
          </g>
          <path class="cls-2" d="m329.34,286.68c-.2-1.39-.61-2.73-1.27-4-.85-1.63-2-3-3.48-4.07-2.11-1.52-4.48-2.33-7.18-2.23-1.78-.11-3.5.38-5.14,1.17-1.68.81-3.05,2.02-4.18,3.51-1.38,1.82-2.14,3.88-2.35,6.12-.11,1.16-.04,2.33.23,3.48.51,2.25,1.55,4.22,3.16,5.86,1.11,1.13,2.41,2.01,3.89,2.62,1.08.45,2.19.77,3.34.86,1.24.09,2.5.09,3.72-.22.14-.03.2-.09.24-.23.79-2.47,2.17-4.53,4.16-6.2,1.12-.93,2.33-1.65,3.69-2.16.47-.18,1.14-.21,1.09-.99,0-.13,0-.27.02-.4.24-1.04.2-2.09.05-3.12Zm-7.71,6.87c-.68.48-1.41.83-2.23.98-.26.05-.37.16-.36.43.01.42-.01.83,0,1.25.02.31-.08.42-.39.4-.29-.03-.58,0-.87,0-1.27,0-1.31,0-1.25-1.25.03-.6-.3-.68-.71-.7-1.12-.07-2.17-.39-3.2-.78-.75-.28-.76-.37-.39-1.13.3-.63.58-1.28.84-1.93.13-.32.28-.35.57-.2,1.35.7,2.79.99,4.3.88.02,0,.04,0,.05,0,.35-.13.9,0,.96-.55.06-.52-.38-.64-.79-.77-1.1-.34-2.26-.45-3.35-.86-1.22-.46-2.27-1.09-2.6-2.5-.48-2.06.58-3.83,2.42-4.56.49-.19.98-.37,1.51-.44.27-.03.37-.16.36-.42-.01-.4,0-.8,0-1.2-.01-.27.06-.39.36-.38.62.02,1.23.02,1.85,0,.28,0,.34.11.33.35-.01.42.01.83,0,1.25-.01.3.09.38.4.41,1,.08,1.97.34,2.88.78.17.08.33.13.2.43-.36.78-.66,1.58-.98,2.38-.11.27-.23.38-.56.22-1.21-.59-2.5-.75-3.83-.67-.42.02-.77.2-.85.59-.1.44.26.6.65.74,1.11.39,2.3.45,3.41.85.88.32,1.72.67,2.28,1.51.93,1.39.62,3.74-.99,4.9Z"/>
        </g>
      </g>
      <g>
        <circle class="cls-1" cx="369.4" cy="139.43" r="39.16"/>
        <circle class="cls-4" cx="366.03" cy="135.5" r="39.16"/>
        <g>
          <path class="cls-2" d="m382.32,135.21c-.34.4-.7.8-1.06,1.18-.25.27-.55.46-.88.57.12.12.23.27.31.45.3.61.14,1.19-.07,1.8-1.13,3.22-2.6,6.27-4.34,9.2-.44.74-.82,1.53-1.5,2.1-.55.46-1.2.7-1.92.54-1.19-.26-2.07-1.26-2.03-2.64.04-1.41.02-2.83,0-4.24-.01-.97-.66-1.84-1.63-2.07-.35-.08-.7,0-1.04-.07-1.41-.27-2.65-.82-3.59-1.96-1.15-1.4-1.67-2.94-1.25-4.75.6-2.64,2.89-4.42,5.57-4.44.62,0,1.25,0,1.87,0,.46,0,.71-.28.7-.72,0-.43-.26-.66-.77-.66-.81,0-1.63-.01-2.45,0-.98.01-1.76-.36-2.37-1.14-.73-.93-.81-2.23-.21-3.24.85-1.4,1.68-2.81,2.54-4.25-.88-.21-1.76-.3-2.64-.36-.26-.02-.29.08-.31.32-.09,1.02-.37,1.71-1.6,2.16-1.27.47-2.53.94-3.78,1.44-1.56.62-2.88-.43-2.99-1.88-.03-.37-.13-.37-.39-.22-.1.06-.22.09-.31.16-.29.23-.76.29-.78.79,0,.12,0,.25-.02.36-.3,1.33-.75,2.59-1.56,3.77.71,0,1.37,0,2.03,0,1.71.03,2.7,1.43,2.22,2.99-.21.68-.79,1.13-1.23,1.66-.72.87-1.47,1.71-2.22,2.55-.37.42-.61.88-.62,1.46-.01,1.23-1.25,2.42-2.45,2.44-1.68.04-3.37.02-5.05.03l-.06.06c-.03.34.05.67.05,1,.03,1.36.33,2.68.68,3.98.14.52.29,1.06.59,1.58.33-.71.61-1.4.95-2.07.94-1.84,3.37-2.23,4.92-1.08.45.34.8.81,1.38.98.95.28,1.88.62,2.82.91,1.53.47,2.66,1.38,3.07,2.97.32,1.23.21,2.5.14,3.77-.06,1.08-.57,1.82-1.4,2.43-.35.26-.61.61-.64,1.06-.03.46,0,.92-.01,1.38,0,.17.05.24.23.3,1.28.45,2.61.69,3.95.78,1.51.11,3.04.06,4.54-.24,1.9-.38,3.72-.98,5.42-1.93,1.77-.99,3.35-2.18,4.72-3.68,1.31-1.44,2.36-3.03,3.18-4.8.97-2.12,1.44-4.35,1.59-6.65.05-.74,0-1.48-.07-2.22-.05-.64-.14-1.28-.26-1.91Z"/>
          <path class="cls-2" d="m359.73,149.4c-.04.43.06.96-.07,1.48-.1.41-.32.75-.65.98-.96.69-1.44,1.6-1.4,2.79.02.64,0,.65-.58.37-1.58-.77-3.04-1.72-4.38-2.87-1.49-1.29-2.67-2.83-3.73-4.48-.31-.49-.36-.94-.06-1.49.4-.73.69-1.53,1.03-2.29.62-1.38,2.32-1.43,3.22-.49.69.72,1.59.96,2.47,1.26.73.25,1.47.49,2.21.74,1.26.43,1.85,1.41,1.93,2.68.03.41,0,.81,0,1.31Z"/>
          <path class="cls-2" d="m373.76,130.41c-1.03-1.69-2.06-3.54-2.59-5.68-.26-1.04-.33-2.06-.2-3.07-.33-.12-.66-.24-.99-.36-.24-.09-.38,0-.51.22-.84,1.43-1.71,2.85-2.56,4.28-.29.48-.36.98-.08,1.5.29.54.72.81,1.34.83,1.03.02,2.05-.08,3.08.07,1.11.17,1.95,1.56,1.57,2.61-.35.99-1.31,1.51-2.13,1.49-.79-.02-1.59-.03-2.38.04-2.13.2-4.03,2.38-3.7,4.67.3,2.08,2.04,3.61,4.09,3.65,1.86.04,3.4,1.44,3.49,3.26.07,1.54.03,3.09.04,4.64,0,.28.08.52.25.73.42.53,1.34.52,1.84-.32.84-1.39,1.66-2.79,2.4-4.23,1.05-2.04,1.97-4.13,2.71-6.3.29-.84-4.63-6.35-5.68-8.05Z"/>
          <path class="cls-2" d="m347.83,131.69c.42.36.81.58,1.34.6.8.03,1.35-.37,1.81-.92.65-.78,1.29-1.56,1.85-2.41.08-.13.22-.14.36-.13.92,0,1.85,0,2.77,0,.38,0,.69.19.81.49.11.29.1.64-.17.94-1.02,1.15-2.01,2.33-3.02,3.49-.58.66-.92,1.41-.93,2.29,0,.52-.6,1.11-1.16,1.12-1.58.02-3.15,0-4.73.01-.28,0-.24-.16-.22-.31.18-1.24.35-2.48.76-3.67.17-.5.35-.99.53-1.51Z"/>
          <path class="cls-2" d="m358.27,122.06c-.13-.37.12-.52.48-.63,1.26-.39,2.54-.7,3.86-.82.24-.02.48-.09.71-.06.19.02.49-.16.56.11.08.33,0,.69-.32.89-.28.17-.6.26-.91.38-1.05.4-2.13.75-3.16,1.19-.79.34-1.26-.14-1.22-.83,0-.05,0-.11,0-.23Z"/>
          <path class="cls-2" d="m346.53,138.57s-.04.04-.06.06c-.01-.06,0-.08.06-.06Z"/>
          <path class="cls-2" d="m354.02,121.52c-.73-2.79-3.15-4.16-5.67-3.73-2.25.39-3.96,2.41-3.93,4.85.03.22-.02.49.04.76.23,1.05.65,2.02,1.19,2.94.9,1.54,1.96,2.97,3.14,4.31.31.35.62.35.95,0,.29-.3.54-.63.8-.95,1.19-1.48,2.29-3.01,3.06-4.77.48-1.09.72-2.25.42-3.41Zm-2.99,4c-.29.21-.61.36-.96.42-.11.02-.16.07-.16.18,0,.18,0,.36,0,.54,0,.13-.03.18-.17.17-.12-.01-.25,0-.37,0-.55,0-.56,0-.54-.54.01-.26-.13-.29-.3-.3-.48-.03-.93-.17-1.38-.34-.32-.12-.32-.16-.17-.48.13-.27.25-.55.36-.83.05-.14.12-.15.24-.09.58.3,1.2.43,1.85.38,0,0,.02,0,.02,0,.15-.06.39,0,.41-.24.03-.22-.16-.27-.34-.33-.47-.15-.97-.2-1.44-.37-.53-.2-.98-.47-1.12-1.08-.21-.88.25-1.65,1.04-1.96.21-.08.42-.16.65-.19.12-.01.16-.07.16-.18,0-.17,0-.34,0-.51,0-.12.02-.17.15-.16.26,0,.53,0,.79,0,.12,0,.14.05.14.15,0,.18,0,.36,0,.54,0,.13.04.16.17.17.43.04.85.15,1.24.34.07.03.14.06.08.18-.15.33-.28.68-.42,1.02-.05.12-.1.16-.24.09-.52-.25-1.08-.32-1.65-.29-.18.01-.33.09-.37.25-.04.19.11.26.28.32.48.17.99.19,1.47.37.38.14.74.29.98.65.4.6.27,1.61-.43,2.11Z"/>
          <path class="cls-2" d="m387.62,122.05c-.07-.39.04-.89-.07-1.42-.36-1.74-1.22-3.15-2.52-4.33-1.9-1.72-4.16-2.28-6.61-1.84-1.84.33-3.45,1.25-4.59,2.83-1.44,2-2.11,4.14-1.49,6.63.49,1.96,1.43,3.69,2.46,5.37,1.26,2.06,2.78,3.93,4.32,5.78.4.47,1.01.5,1.45.03,1.98-2.11,3.69-4.42,5.1-6.94,1.04-1.86,2.09-3.74,1.95-6.12Zm-4.59,5.25c-.53.38-1.1.64-1.74.77-.2.04-.29.13-.28.33,0,.32-.01.65,0,.97.01.24-.06.33-.31.31-.22-.02-.45,0-.68,0-.99,0-1.02,0-.97-.97.02-.47-.24-.53-.55-.55-.87-.06-1.69-.31-2.5-.61-.58-.22-.59-.29-.31-.88.24-.49.45-.99.66-1.5.1-.25.22-.27.44-.16,1.05.54,2.17.77,3.35.69.01,0,.03,0,.04,0,.28-.1.7,0,.75-.43.05-.4-.3-.5-.61-.6-.86-.27-1.76-.35-2.61-.67-.95-.36-1.77-.85-2.02-1.95-.37-1.6.45-2.99,1.88-3.55.38-.15.77-.29,1.17-.34.21-.03.29-.13.28-.33,0-.31,0-.62,0-.93,0-.21.04-.31.28-.3.48.02.96.01,1.44,0,.22,0,.26.09.26.28-.01.32,0,.65,0,.97-.01.24.07.3.31.32.78.07,1.53.27,2.24.61.13.06.26.1.15.33-.28.61-.51,1.23-.76,1.85-.09.21-.18.3-.44.17-.94-.46-1.95-.58-2.99-.52-.33.02-.6.16-.67.46-.08.35.2.47.5.58.87.31,1.8.35,2.66.66.69.25,1.34.52,1.78,1.17.72,1.08.49,2.91-.77,3.81Z"/>
        </g>
      </g>
      <g>
        <circle class="cls-1" cx="190.73" cy="166.18" r="39.16"/>
        <circle class="cls-4" cx="187.36" cy="162.25" r="39.16"/>
        <g>
          <path class="cls-2" d="m182.37,159.87c-.63-.72-1.25-1.43-1.86-2.13-.58-.65-1.17-1.3-1.74-1.96-.2-.23-.39-.46-.61-.67-.37-.36-.97-.54-1.34-.38-.61.26-.99.79-.96,1.38.02.36.16.67.39.94,1.4,1.6,2.81,3.21,4.22,4.81.1.11.1.2.01.31-.64.78-1.29,1.55-1.93,2.33-.68.82-1.34,1.65-2.03,2.45-1.05,1.22-2.13,2.42-3.56,3.21-.92.51-1.91.83-2.97.92-1.56.13-3.12.04-4.68.05-1.68.02-3.35,0-5.03,0-.24,0-.33-.04-.33-.31,0-5.72,0-11.44,0-17.17,0-.22.04-.29.28-.29,12.81,0,25.61,0,38.42,0,.03,0,.06,0,.13.01-1.31.87-2.24,2.08-3.19,3.26-.77.95-1.58,1.87-2.38,2.8-.24.29-.49.57-.75.87-.93-1.11-1.85-2.22-2.8-3.36-.34.42-.68.84-1.02,1.25-.2.25-.4.51-.61.76-.09.11-.14.19-.02.33.68.8,1.36,1.61,2.03,2.42.06.07.11.16.17.23.13.17.41.29.37.49-.03.18-.25.34-.39.5-1.01,1.17-2.03,2.34-3.03,3.53-.33.39-.73.73-.93,1.21-.34.8.12,1.56.81,1.87.5.22,1.2-.1,1.62-.62.48-.58.98-1.14,1.47-1.71.48-.56.96-1.13,1.45-1.69.24-.28.48-.55.72-.83.09-.11.15-.12.25,0,.57.7,1.14,1.4,1.72,2.09.49.58.98,1.16,1.49,1.74.34.39.61.83,1.05,1.13.41.28,1.15.24,1.51-.12.68-.68.64-1.47-.08-2.32-1.07-1.26-2.12-2.53-3.18-3.8-.22-.26-.44-.53-.67-.78-.11-.12-.14-.2,0-.34.51-.57,1-1.15,1.5-1.73.74-.86,1.47-1.71,2.21-2.57,1.09-1.26,2.19-2.53,3.61-3.44.98-.64,2.06-1.02,3.24-1.12,1.08-.09,2.17-.04,3.25-.05,2.08-.02,4.16,0,6.23-.01.25,0,.32.05.32.31,0,5.71,0,11.42,0,17.13,0,.21,0,.32-.28.32-12.69,0-25.37,0-38.06,0h-.17c1.3-.87,2.2-2.05,3.11-3.23.76-.98,1.57-1.93,2.36-2.89.21-.26.42-.51.63-.77.08-.1.14-.11.23-.01.84.95,1.69,1.9,2.52,2.86.15.18.22.14.34,0,.49-.58.98-1.16,1.48-1.74.1-.12.11-.21,0-.34-.84-.94-1.68-1.88-2.52-2.82-.13-.15-.16-.26,0-.45,1.07-1.28,2.12-2.58,3.17-3.88.22-.27.46-.54.68-.81.33-.39.39-1.18.16-1.63-.43-.81-1.59-.98-2.29-.09-1.09,1.37-2.22,2.7-3.34,4.05-.13.15-.25.32-.39.5Zm-6.32,2.07c.05-3.8-3.07-7.49-7.8-7.18-3.41.22-6.37,3.09-6.56,6.79-.22,4.34,3.37,7.55,7.09,7.56,4.05,0,7.28-3.23,7.27-7.17Zm30.19,7.16c4.13.03,7.33-3.2,7.32-7.21-.01-3.8-3.03-7.41-7.82-7.12-3.46.21-6.44,3.18-6.56,6.93-.13,4.16,3.3,7.41,7.06,7.41Z"/>
          <path class="cls-2" d="m161.23,174.86c-.52-.25-.99-.56-1.18-1.16-.13-.4-.07-.81-.08-1.22,0-.08.07-.1.14-.1.1,0,.2,0,.29,0,17.97,0,35.94,0,53.91,0,.33,0,.43.06.43.41,0,.56-.1,1.08-.45,1.53-.06.06-.11.11-.17.17-.37.25-.78.38-1.24.38-17.17,0-34.35,0-51.52,0h-.13Z"/>
          <path class="cls-2" d="m159.97,151.15c.01-.11.02-.22.03-.32.11-.19.22-.38.33-.57.11-.11.25-.19.32-.34.2-.08.39-.17.59-.25.09-.01.17-.02.26-.03.97,0,1.93,0,2.9,0,12.41,0,24.83,0,37.24,0,3.76,0,7.52,0,11.28,0,.7,0,1.23.28,1.61.88.11.17.06.4.23.55h0c0,.28-.02.54-.01.81,0,.18-.04.27-.23.24-.07-.01-.15,0-.23,0-17.95,0-35.91,0-53.86,0q-.45,0-.45-.44c0-.17,0-.35,0-.52Z"/>
          <path class="cls-2" d="m168.84,157.42c2.66-.06,4.6,2.05,4.58,4.48-.02,2.67-1.98,4.58-4.67,4.57-2.43,0-4.43-2.04-4.44-4.57-.01-2.36,2.01-4.62,4.53-4.49Z"/>
          <path class="cls-2" d="m210.92,161.93c-.07,2.58-2,4.6-4.73,4.54-2.44-.06-4.37-2-4.39-4.56-.02-2.29,1.89-4.74,4.95-4.5,2.22.17,4.12,1.97,4.17,4.52Z"/>
        </g>
      </g>
      <g>
        <circle class="cls-1" cx="487.65" cy="336.99" r="39.16"/>
        <circle class="cls-4" cx="484.28" cy="333.06" r="39.16"/>
        <g>
          <path class="cls-3" d="m480.24,329.96c.43-1.48,1-2.91,1.83-4.22,2.08-3.29,5.03-5.35,8.83-6.21.76-.17,1.54-.24,2.33-.3.92-.07,1.83-.02,2.74.08,1.22.14,2.4.43,3.55.87,1.96.74,3.68,1.83,5.11,3.35.41.43.79.61,1.4.65,1.42.09,2.31,1.44,2.28,2.44-.05,1.44-.74,2.4-2.05,2.71-1.27.3-2.53-.39-3.03-1.53-.26-.6-.33-1.2-.09-1.82.05-.13,0-.21-.08-.3-.96-1.11-2.12-1.96-3.43-2.6-1.1-.54-2.27-.89-3.48-1.09-1.03-.17-2.05-.23-3.07-.14-3.05.28-5.64,1.52-7.69,3.82-.84.95-1.48,2.03-1.98,3.19-.19.45-.36.9-.49,1.36-.4,1.12-.51,2.3-.68,3.46-.03.19.07.29.21.37,1.56.94,1.77,3.18.5,4.44-.96.95-2.37,1.19-3.6.4-.83-.53-1.3-1.34-1.33-2.33-.03-1.13.5-1.99,1.46-2.58.08-.05.11-.1.12-.2.07-.57.14-1.14.22-1.71.11-.72.23-1.43.45-2.13Z"/>
          <path class="cls-2" d="m489.18,334.43c0-2.62,0-5.24,0-7.86,0-.24.05-.31.31-.31,1.58.01,3.16-.02,4.74.01,1.74.04,3.34.54,4.75,1.62,1.03.79,1.86,1.74,2.44,2.9.44.87.69,1.8.79,2.78.12,1.21,0,2.37-.39,3.52-.34,1-.88,1.89-1.57,2.69-1.01,1.17-2.26,1.96-3.72,2.42-.76.24-1.52.39-2.32.39-1.57,0-3.14,0-4.71,0-.24,0-.31-.04-.31-.3.01-2.62,0-5.24,0-7.86Zm3.3-.02v4.25c0,.64,0,.63.64.64.7,0,1.41.06,2.08-.12,1.17-.31,2.15-.92,2.86-1.92.81-1.13,1.07-2.4.83-3.75-.18-1-.66-1.88-1.41-2.59-.85-.81-1.87-1.25-3.03-1.36-.57-.05-1.15,0-1.72-.03-.21-.01-.26.05-.26.26,0,1.54,0,3.08,0,4.62Z"/>
          <path class="cls-2" d="m472.48,330.91c-.67-.69-1.45-1.17-2.37-1.4-1.53-.39-2.99-.21-4.31.7-1.23.85-1.97,2.03-2.21,3.52-.22,1.39.12,2.65.94,3.77.84,1.15,1.96,1.88,3.38,2.09,1.66.23,3.14-.18,4.36-1.37.16-.16.23-.16.35.04.49.83,1.01,1.66,1.51,2.48.06.09.09.16-.05.28-.46.38-.94.7-1.46.97-.79.4-1.62.68-2.51.83-.57.1-1.13.09-1.69.1-1,.02-1.94-.24-2.86-.6-1.05-.41-1.97-1.03-2.76-1.82-.87-.85-1.52-1.86-1.97-3.01-.3-.79-.51-1.61-.56-2.44-.07-1.53.19-3,.9-4.37.49-.95,1.13-1.81,1.94-2.52,1.07-.94,2.3-1.58,3.68-1.92.9-.22,1.82-.24,2.72-.16,1.66.14,3.17.73,4.49,1.78.16.13.21.24.08.45-.54.85-1.06,1.72-1.6,2.6Z"/>
          <path class="cls-2" d="m480.24,329.96c-.22.69-.34,1.41-.45,2.13-.09.57-.16,1.14-.22,1.71-.01.1-.04.15-.12.2-.96.59-1.49,1.45-1.46,2.58.03.99.5,1.8,1.33,2.33,1.23.79,2.64.55,3.6-.4,1.27-1.25,1.06-3.5-.5-4.44-.14-.09-.24-.18-.21-.37.17-1.16.28-2.34.68-3.46.7.24,1.35.57,1.93,1.05.78.63,1.35,1.41,1.74,2.33.34.79.48,1.62.51,2.49.04,1.16-.15,2.25-.68,3.29-.73,1.44-1.86,2.44-3.36,3.03-.89.35-1.83.46-2.77.38-1.14-.1-2.17-.54-3.1-1.23-1.26-.94-2.01-2.2-2.38-3.7-.2-.8-.18-1.63-.08-2.46.12-1.05.49-2.01,1.11-2.86,1.01-1.41,2.36-2.3,4.11-2.54.11-.01.21-.08.32-.05Z"/>
          <path class="cls-2" d="m507.24,336.49c0,1.94,0,3.89,0,5.83,0,.21-.05.26-.26.26-.87-.01-1.75-.01-2.62,0-.2,0-.27-.03-.27-.25,0-3.9,0-7.8,0-11.69,0-.2.04-.25.24-.25.88.01,1.77.01,2.65,0,.23,0,.25.07.25.27,0,1.94,0,3.89,0,5.83Z"/>
        </g>
      </g>
    </g>
  </g>
</svg>