<?xml version="1.0" encoding="UTF-8"?>
<svg id="Layer_2" data-name="Layer 2" xmlns="http://www.w3.org/2000/svg" viewBox="0 0 418.95 545.88">
  <defs>
    <style>
      .cls-1 {
        fill: #1ea890;
      }

      .cls-2 {
        fill: #0a2d49;
      }

      .cls-3 {
        fill: #fff;
        opacity: .85;
        stroke: #1ea890;
        stroke-miterlimit: 10;
        stroke-width: 2px;
      }

      .cls-4 {
        fill: #27dbbb;
      }
    </style>
  </defs>
  <g id="Layer_1-2" data-name="Layer 1">
    <path class="cls-4" d="m418.95,337.49l-45.2,15.7-45.74,1.62v15.16l15.43,20.3h-30.58v20.3l27.07,38.97-8.39,50.61-8.93,45.74-29.5-8.93,18.13-36.27-29.23-8.93h-67.66l-22.73-40.6-15.7-8.93-22.46-27.07-25.17-1.62c-3.25-6.49-8.39-11.09-17.86-11.91-27.06-2.44-51.69,2.16-54.13-9.2-1.62-7.85-36.54-29.77-56.29-41.41,31.39-30.04,61.71-86.06,54.13-138.84-8.93-63.33,58.73-117.46,81.19-139.92C157.79,49.8,198.38,0,252.51,0c3.52,0,6.77,0,10.01.27l-30.85,33.02s-15.16,27.07-21.92,42.22c-6.77,15.43,23.55,17.05,23.55,17.05l-1.62,30.58s0,43.84,23.82,43.84h54.13l35.45,35.46,62.52-5.14-8.39,18.67-6.77,45.74,18.67,33.83-15.43,13.53,23.27,28.42Z"/>
    <g>
      <circle class="cls-1" cx="57.04" cy="246.36" r="39.16"/>
      <circle class="cls-3" cx="53.67" cy="242.42" r="39.16"/>
      <g>
        <path class="cls-2" d="m31.4,239.73c.17,0,.35.02.52.02,14.5,0,29,0,43.51,0,.37,0,.51.06.5.48-.02,4.78,0,9.56-.02,14.34,0,1.41-.47,2.35-1.89,2.84-.29.1-.6.16-.91.16-13.07,0-26.14,0-39.2,0-1.09,0-2.05-.79-2.42-1.96-.02-.06-.02-.11-.09-.13,0-5.25,0-10.49,0-15.74Zm15.95,7.14c2.66,0,5.33,0,7.99,0,.46,0,.86-.29.92-.66.09-.53-.1-.86-.63-1.06-.17-.06-.34-.05-.51-.05-5.14,0-10.28,0-15.42,0-.16,0-.32,0-.48.02-.37.04-.66.38-.7.74-.08.62.38,1.02.92,1.02,2.64-.02,5.27,0,7.91,0Zm-3.56,3.56c1.46,0,2.92,0,4.39,0,.59,0,.95-.32.96-.83,0-.58-.3-.93-.92-.93-2.92,0-5.85,0-8.77,0-.62,0-.92.33-.91.93,0,.52.35.83.96.83,1.43,0,2.87,0,4.3,0Z"/>
        <path class="cls-2" d="m75.83,234.41c-.17,0-.35,0-.52,0-14.46,0-28.92,0-43.39,0-.17,0-.35,0-.52,0v-5.04c.21-.31.28-.68.5-1,.55-.78,1.33-1.06,2.22-1.09.77-.03,1.54,0,2.3,0,12.17,0,24.34,0,36.51,0,1.15,0,2.1.4,2.68,1.47.24.44.28.93.29,1.4.04,1.39,0,2.78,0,4.17-.03.02-.05.05-.08.07Z"/>
      </g>
    </g>
    <g>
      <circle class="cls-1" cx="351.24" cy="374.29" r="39.16"/>
      <circle class="cls-3" cx="347.87" cy="370.36" r="39.16"/>
      <g>
        <path class="cls-2" d="m344.15,386.5c0,.29.16.62.02.95-.1.24-.26.41-.54.45-1.49.21-2.9-.14-4.27-.7-.89-.36-1.73-.85-2.46-1.48-1.38-1.19-2.42-2.62-3.02-4.37-.19-.55-.28-1.1-.43-1.65-.07-.27-.14-.31-.39-.27-.5.07-.87-.16-1.09-.59-.14-.29-.07-.57.06-.8.51-.86,1.06-1.71,1.59-2.55.35-.55,1.09-.51,1.46-.14.7.67,1.39,1.36,2.08,2.05.29.28.32.64.21.99-.12.37-.43.58-.82.61-.38.03-.42.11-.31.51.18.65.35,1.29.68,1.89,1.21,2.21,3.06,3.46,5.56,3.77.26.03.52.05.78.07.6.04.73.16.81.74.02.16.04.32.07.53Z"/>
        <path class="cls-2" d="m352.53,352.79c1.26-.02,2.63.18,3.94.72.97.4,1.86.93,2.65,1.62,1.41,1.24,2.44,2.73,2.96,4.54.14.47.3.94.33,1.43.02.32.23.19.38.18.7-.06,1.15.3,1.17.94,0,.32-.17.56-.32.8-.44.73-.92,1.44-1.37,2.17-.37.59-1.14.54-1.51.14-.64-.69-1.36-1.32-2.04-1.97-.26-.25-.34-.54-.26-.9.1-.41.34-.65.75-.72.54-.09.54-.16.38-.7-.26-.89-.56-1.76-1.11-2.51-1.24-1.7-2.9-2.7-5.02-2.91-.25-.02-.5-.03-.74-.05-.65-.06-.78-.15-.87-.79-.05-.36-.09-.73-.14-1.09-.07-.61.08-.8.82-.9Z"/>
        <g>
          <path class="cls-2" d="m357.2,379.44c-.91-.19-1.83-.04-2.74-.09-.2-.01-.16.13-.16.24,0,.71.01,1.41,0,2.12,0,.24.1.26.29.25.39,0,.79,0,1.18,0,.11,0,.22,0,.33,0,.53-.04,1.08.12,1.58-.28.38-.3.59-.69.53-1.12-.1-.67-.4-1-.98-1.13Z"/>
          <path class="cls-2" d="m354.52,376.75c.42-.01.84,0,1.26,0,.31,0,.62-.02.94,0,.36.02.66-.09.96-.3.39-.28.56-.68.51-1.08-.1-.71-.38-1-.93-1.13-.91-.22-1.85-.05-2.78-.1-.19,0-.18.1-.18.23,0,.72,0,1.44,0,2.16,0,.18.05.23.23.23Z"/>
          <path class="cls-2" d="m355.19,366.21c-3.29.09-6.1,1.37-8.32,3.82-2.31,2.55-3.34,5.57-3.07,9.01.42,5.44,5.12,11.03,12.24,10.8,5.89-.19,11.42-5.13,11.31-11.81.16-6.41-5.24-12.01-12.17-11.81Zm5.59,14.41c-.06,1.8-.93,3.18-2.92,3.84-.15.05-.35.1-.46.08-.58-.09-.52.26-.51.62.01.71,0,.71-.71.71-.53,0-1.06-.02-1.59,0-.26.01-.33-.07-.31-.32.02-.24-.01-.49,0-.73.02-.22-.07-.27-.27-.26-1.11,0-2.23,0-3.34.01-.26,0-.32-.07-.31-.32.02-.68.02-1.36,0-2.04,0-.22.06-.27.27-.27.33,0,.79.15.98-.06.2-.22.06-.67.06-1.02,0-2.13,0-4.26,0-6.39,0-.28-.06-.38-.35-.36-.31.02-.72.1-.9-.06-.19-.17-.05-.59-.06-.89,0-.46,0-.92,0-1.38,0-.21.05-.28.27-.27.57.02,1.14,0,1.71,0,.56,0,1.11,0,1.67,0,.21,0,.28-.05.27-.27-.01-.34-.11-.79.06-.98.2-.21.66-.06,1.01-.06.43-.01.87,0,1.3,0,.17,0,.24.04.23.22-.02.26.01.52,0,.77-.02.28.1.38.36.39,1.76.08,3.15,1.4,3.46,3.12.2,1.11-.02,2.18-.77,3.08-.15.18-.15.31,0,.49.58.66.87,1.49.84,2.33Z"/>
        </g>
        <path class="cls-2" d="m352.02,361.17c-.2-1.39-.61-2.73-1.27-4-.85-1.63-2-3-3.48-4.07-2.11-1.52-4.48-2.33-7.18-2.23-1.78-.11-3.5.38-5.14,1.17-1.68.81-3.05,2.02-4.18,3.51-1.38,1.82-2.14,3.88-2.35,6.12-.11,1.16-.04,2.33.23,3.48.51,2.25,1.55,4.22,3.16,5.86,1.11,1.13,2.41,2.01,3.89,2.62,1.08.45,2.19.77,3.34.86,1.24.09,2.5.09,3.72-.22.14-.03.2-.09.24-.23.79-2.47,2.17-4.53,4.16-6.2,1.12-.93,2.33-1.65,3.69-2.16.47-.18,1.14-.21,1.09-.99,0-.13,0-.27.02-.4.24-1.04.2-2.09.05-3.12Zm-7.71,6.87c-.68.48-1.41.83-2.23.98-.26.05-.37.16-.36.43.01.42-.01.83,0,1.25.02.31-.08.42-.39.4-.29-.03-.58,0-.87,0-1.27,0-1.31,0-1.25-1.25.03-.6-.3-.68-.71-.7-1.12-.07-2.17-.39-3.2-.78-.75-.28-.76-.37-.39-1.13.3-.63.58-1.28.84-1.93.13-.32.28-.35.57-.2,1.35.7,2.79.99,4.3.88.02,0,.04,0,.05,0,.35-.13.9,0,.96-.55.06-.52-.38-.64-.79-.77-1.1-.34-2.26-.45-3.35-.86-1.22-.46-2.27-1.09-2.6-2.5-.48-2.06.58-3.83,2.42-4.56.49-.19.98-.37,1.51-.44.27-.03.37-.16.36-.42-.01-.4,0-.8,0-1.2-.01-.27.06-.39.36-.38.62.02,1.23.02,1.85,0,.28,0,.34.11.33.35-.01.42.01.83,0,1.25-.01.3.09.38.4.41,1,.08,1.97.34,2.88.78.17.08.33.13.2.43-.36.78-.66,1.58-.98,2.38-.11.27-.23.38-.56.22-1.21-.59-2.5-.75-3.83-.67-.42.02-.77.2-.85.59-.1.44.26.6.65.74,1.11.39,2.3.45,3.41.85.88.32,1.72.67,2.28,1.51.93,1.39.62,3.74-.99,4.9Z"/>
      </g>
    </g>
    <g>
      <circle class="cls-1" cx="172.56" cy="372.32" r="39.16"/>
      <circle class="cls-3" cx="169.19" cy="368.39" r="39.16"/>
      <g>
        <path class="cls-2" d="m187.48,367.1c-.34.4-.7.8-1.06,1.18-.25.27-.55.46-.88.57.12.12.23.27.31.45.3.61.14,1.19-.07,1.8-1.13,3.22-2.6,6.27-4.34,9.2-.44.74-.82,1.53-1.5,2.1-.55.46-1.2.7-1.92.54-1.19-.26-2.07-1.26-2.03-2.64.04-1.41.02-2.83,0-4.24-.01-.97-.66-1.84-1.63-2.07-.35-.08-.7,0-1.04-.07-1.41-.27-2.65-.82-3.59-1.96-1.15-1.4-1.67-2.94-1.25-4.75.6-2.64,2.89-4.42,5.57-4.44.62,0,1.25,0,1.87,0,.46,0,.71-.28.7-.72,0-.43-.26-.66-.77-.66-.81,0-1.63-.01-2.45,0-.98.01-1.76-.36-2.37-1.14-.73-.93-.81-2.23-.21-3.24.85-1.4,1.68-2.81,2.54-4.25-.88-.21-1.76-.3-2.64-.36-.26-.02-.29.08-.31.32-.09,1.02-.37,1.71-1.6,2.16-1.27.47-2.53.94-3.78,1.44-1.56.62-2.88-.43-2.99-1.88-.03-.37-.13-.37-.39-.22-.1.06-.22.09-.31.16-.29.23-.76.29-.78.79,0,.12,0,.25-.02.36-.3,1.33-.75,2.59-1.56,3.77.71,0,1.37,0,2.03,0,1.71.03,2.7,1.43,2.22,2.99-.21.68-.79,1.13-1.23,1.66-.72.87-1.47,1.71-2.22,2.55-.37.42-.61.88-.62,1.46-.01,1.23-1.25,2.42-2.45,2.44-1.68.04-3.37.02-5.05.03l-.06.06c-.03.34.05.67.05,1,.03,1.36.33,2.68.68,3.98.14.52.29,1.06.59,1.58.33-.71.61-1.4.95-2.07.94-1.84,3.37-2.23,4.92-1.08.45.34.8.81,1.38.98.95.28,1.88.62,2.82.91,1.53.47,2.66,1.38,3.07,2.97.32,1.23.21,2.5.14,3.77-.06,1.08-.57,1.82-1.4,2.43-.35.26-.61.61-.64,1.06-.03.46,0,.92-.01,1.38,0,.17.05.24.23.3,1.28.45,2.61.69,3.95.78,1.51.11,3.04.06,4.54-.24,1.9-.38,3.72-.98,5.42-1.93,1.77-.99,3.35-2.18,4.72-3.68,1.31-1.44,2.36-3.03,3.18-4.8.97-2.12,1.44-4.35,1.59-6.65.05-.74,0-1.48-.07-2.22-.05-.64-.14-1.28-.26-1.91Z"/>
        <path class="cls-2" d="m164.89,381.29c-.04.43.06.96-.07,1.48-.1.41-.32.75-.65.98-.96.69-1.44,1.6-1.4,2.79.02.64,0,.65-.58.37-1.58-.77-3.04-1.72-4.38-2.87-1.49-1.29-2.67-2.83-3.73-4.48-.31-.49-.36-.94-.06-1.49.4-.73.69-1.53,1.03-2.29.62-1.38,2.32-1.43,3.22-.49.69.72,1.59.96,2.47,1.26.73.25,1.47.49,2.21.74,1.26.43,1.85,1.41,1.93,2.68.03.41,0,.81,0,1.31Z"/>
        <path class="cls-2" d="m178.92,362.3c-1.03-1.69-2.06-3.54-2.59-5.68-.26-1.04-.33-2.06-.2-3.07-.33-.12-.66-.24-.99-.36-.24-.09-.38,0-.51.22-.84,1.43-1.71,2.85-2.56,4.28-.29.48-.36.98-.08,1.5.29.54.72.81,1.34.83,1.03.02,2.05-.08,3.08.07,1.11.17,1.95,1.56,1.57,2.61-.35.99-1.31,1.51-2.13,1.49-.79-.02-1.59-.03-2.38.04-2.13.2-4.03,2.38-3.7,4.67.3,2.08,2.04,3.61,4.09,3.65,1.86.04,3.4,1.44,3.49,3.26.07,1.54.03,3.09.04,4.64,0,.28.08.52.25.73.42.53,1.34.52,1.84-.32.84-1.39,1.66-2.79,2.4-4.23,1.05-2.04,1.97-4.13,2.71-6.3.29-.84-4.63-6.35-5.68-8.05Z"/>
        <path class="cls-2" d="m152.99,363.58c.42.36.81.58,1.34.6.8.03,1.35-.37,1.81-.92.65-.78,1.29-1.56,1.85-2.41.08-.13.22-.14.36-.13.92,0,1.85,0,2.77,0,.38,0,.69.19.81.49.11.29.1.64-.17.94-1.02,1.15-2.01,2.33-3.02,3.49-.58.66-.92,1.41-.93,2.29,0,.52-.6,1.11-1.16,1.12-1.58.02-3.15,0-4.73.01-.28,0-.24-.16-.22-.31.18-1.24.35-2.48.76-3.67.17-.5.35-.99.53-1.51Z"/>
        <path class="cls-2" d="m163.44,353.95c-.13-.37.12-.52.48-.63,1.26-.39,2.54-.7,3.86-.82.24-.02.48-.09.71-.06.19.02.49-.16.56.11.08.33,0,.69-.32.89-.28.17-.6.26-.91.38-1.05.4-2.13.75-3.16,1.19-.79.34-1.26-.14-1.22-.83,0-.05,0-.11,0-.23Z"/>
        <path class="cls-2" d="m151.7,370.46s-.04.04-.06.06c-.01-.06,0-.08.06-.06Z"/>
        <path class="cls-2" d="m159.18,353.41c-.73-2.79-3.15-4.16-5.67-3.73-2.25.39-3.96,2.41-3.93,4.85.03.22-.02.49.04.76.23,1.05.65,2.02,1.19,2.94.9,1.54,1.96,2.97,3.14,4.31.31.35.62.35.95,0,.29-.3.54-.63.8-.95,1.19-1.48,2.29-3.01,3.06-4.77.48-1.09.72-2.25.42-3.41Zm-2.99,4c-.29.21-.61.36-.96.42-.11.02-.16.07-.16.18,0,.18,0,.36,0,.54,0,.13-.03.18-.17.17-.12-.01-.25,0-.37,0-.55,0-.56,0-.54-.54.01-.26-.13-.29-.3-.3-.48-.03-.93-.17-1.38-.34-.32-.12-.32-.16-.17-.48.13-.27.25-.55.36-.83.05-.14.12-.15.24-.09.58.3,1.2.43,1.85.38,0,0,.02,0,.02,0,.15-.06.39,0,.41-.24.03-.22-.16-.27-.34-.33-.47-.15-.97-.2-1.44-.37-.53-.2-.98-.47-1.12-1.08-.21-.88.25-1.65,1.04-1.96.21-.08.42-.16.65-.19.12-.01.16-.07.16-.18,0-.17,0-.34,0-.51,0-.12.02-.17.15-.16.26,0,.53,0,.79,0,.12,0,.14.05.14.15,0,.18,0,.36,0,.54,0,.13.04.16.17.17.43.04.85.15,1.24.34.07.03.14.06.08.18-.15.33-.28.68-.42,1.02-.05.12-.1.16-.24.09-.52-.25-1.08-.32-1.65-.29-.18.01-.33.09-.37.25-.04.19.11.26.28.32.48.17.99.19,1.47.37.38.14.74.29.98.65.4.6.27,1.61-.43,2.11Z"/>
        <path class="cls-2" d="m192.79,353.94c-.07-.39.04-.89-.07-1.42-.36-1.74-1.22-3.15-2.52-4.33-1.9-1.72-4.16-2.28-6.61-1.84-1.84.33-3.45,1.25-4.59,2.83-1.44,2-2.11,4.14-1.49,6.63.49,1.96,1.43,3.69,2.46,5.37,1.26,2.06,2.78,3.93,4.32,5.78.4.47,1.01.5,1.45.03,1.98-2.11,3.69-4.42,5.1-6.94,1.04-1.86,2.09-3.74,1.95-6.12Zm-4.59,5.25c-.53.38-1.1.64-1.74.77-.2.04-.29.13-.28.33,0,.32-.01.65,0,.97.01.24-.06.33-.31.31-.22-.02-.45,0-.68,0-.99,0-1.02,0-.97-.97.02-.47-.24-.53-.55-.55-.87-.06-1.69-.31-2.5-.61-.58-.22-.59-.29-.31-.88.24-.49.45-.99.66-1.5.1-.25.22-.27.44-.16,1.05.54,2.17.77,3.35.69.01,0,.03,0,.04,0,.28-.1.7,0,.75-.43.05-.4-.3-.5-.61-.6-.86-.27-1.76-.35-2.61-.67-.95-.36-1.77-.85-2.02-1.95-.37-1.6.45-2.99,1.88-3.55.38-.15.77-.29,1.17-.34.21-.03.29-.13.28-.33,0-.31,0-.62,0-.93,0-.21.04-.31.28-.3.48.02.96.01,1.44,0,.22,0,.26.09.26.28-.01.32,0,.65,0,.97-.01.24.07.3.31.32.78.07,1.53.27,2.24.61.13.06.26.1.15.33-.28.61-.51,1.23-.76,1.85-.09.21-.18.3-.44.17-.94-.46-1.95-.58-2.99-.52-.33.02-.6.16-.67.46-.08.35.2.47.5.58.87.31,1.8.35,2.66.66.69.25,1.34.52,1.78,1.17.72,1.08.49,2.91-.77,3.81Z"/>
      </g>
    </g>
    <g>
      <circle class="cls-1" cx="147.13" cy="89.11" r="39.16"/>
      <circle class="cls-3" cx="143.76" cy="85.18" r="39.16"/>
      <g>
        <path class="cls-2" d="m146.61,93.24h-10.9c-.34,0-.62-.28-.62-.62s.28-.62.62-.62h10.84c.41-.09,3.28-.81,3.4-4.17.13-3.33-1.78-3.67-2.09-3.7,0,0-6.99,0-6.99,0-2.8-.47-3.39-2.99-3.31-4.33-.02-3.49,2.93-5.05,4.49-5.38.04,0,.09-.01.13-.01h9.81c.34,0,.62.28.62.62s-.28.62-.62.62h-9.74c-.47.12-3.48,1.01-3.45,4.17,0,.02,0,.03,0,.05,0,.11-.13,2.6,2.22,3.03,0,0,6.91,0,6.9,0,.03,0,3.45.26,3.27,4.98-.14,3.65-2.99,5.1-4.48,5.35-.03,0-.07,0-.1,0Z"/>
        <path class="cls-2" d="m167.14,93.3h-10.06s-.04,0-.07,0c-1.33-.14-3.85-1.06-3.9-3.54-.06-2.63,1.7-10.63,1.78-10.97,0-.03.01-.05.02-.08.06-.17,1.54-4.05,4.81-4.05h7.23c.06,0,.12,0,.17.02.13.04,3.09.92,3.09,3.48,0,2.15-.63,5.77-.66,5.93-.05.29-.31.51-.6.51l-14,.12c-.35,1.99-.65,3.98-.62,5.01.04,1.92,2.46,2.29,2.77,2.34h10.02c.34,0,.62.28.62.62s-.28.62-.62.62Zm-11.05-14.2c-.07.32-.48,2.22-.89,4.37l13.24-.11c.17-1.08.55-3.63.55-5.21,0-1.45-1.74-2.13-2.13-2.26h-7.14c-2.28,0-3.5,2.85-3.64,3.21Z"/>
        <path class="cls-2" d="m116.84,101.42s-.07,0-.11-.01c-.34-.06-.56-.38-.5-.72,0,0,.99-5.45,1.98-10.9.5-2.73.99-5.45,1.37-7.5.19-1.02.35-1.88.46-2.47.09-.49.15-.82.22-1.03h-.01c.7-1.91,2.88-3.96,4.48-4.22.06,0,.11,0,.17,0,.41.01,4.33,0,6.92,0h0c.6-.01,3.81,1.2,3.43,3.74,0,.02,0,.05,0,.07l-1.73,10.54s0,.05-.01.07c-.04.13-.94,3.24-3.96,4.15-.05.02-.11.02-.16.03l-6.36.18s-.05,0-.08,0c-.1,0-2.11-.22-3.73-2.26-.69,3.76-1.37,7.54-1.79,9.84-.05.3-.31.51-.61.51Zm2.72-12.12c1.26,2.4,3.2,2.76,3.49,2.8l6.23-.18c2.16-.7,2.95-2.97,3.04-3.25l1.71-10.46c.18-1.17-1.61-2.41-2.34-2.41-.45,0-1.9,0-3.35,0-.88,0-1.75,0-2.41,0-.45,0-.77,0-1.01-.02-1.05.18-2.91,1.85-3.49,3.4-.11.49-.95,5.07-1.87,10.11Z"/>
      </g>
    </g>
    <g>
      <circle class="cls-1" cx="246.75" cy="225.5" r="39.16"/>
      <circle class="cls-3" cx="243.38" cy="221.57" r="39.16"/>
      <g>
        <path class="cls-2" d="m243.4,206.95c7.92,0,15.83,0,23.75-.01.47,0,.59.11.59.58-.02,9.36-.02,18.73,0,28.09,0,.47-.11.59-.58.59-15.85-.01-31.71-.01-47.56,0-.47,0-.59-.11-.59-.58.02-9.36.02-18.73,0-28.09,0-.47.11-.59.58-.59,7.94.02,15.87.01,23.81.01Zm-.07,24.35c4.6,0,9.21,0,13.81.01.58,0,1,0,.86-.77-.02-.13.08-.28.12-.42.49-2.02,2.25-3.53,4.32-3.64.31-.02.44-.09.44-.42,0-3.01,0-6.01,0-9.02,0-.26-.07-.4-.35-.38-.67.04-1.28-.17-1.86-.47-1.52-.79-2.44-2.05-2.65-3.73-.07-.56-.2-.64-.71-.64-9.23.02-18.46.01-27.68.01-.88,0-.89,0-.98.86-.02.17-.1.31-.13.48-.43,1.8-2.4,3.43-4.16,3.48-.38.01-.49.13-.49.5,0,2.97,0,5.94,0,8.9,0,.32.1.4.41.45.71.1,1.4.26,2.03.66,1.32.83,2.2,1.94,2.32,3.53.04.51.18.63.67.63,4.68-.02,9.36,0,14.04,0Z"/>
        <path class="cls-2" d="m236.07,221.59c-.13-3.98,3.28-7.38,7.22-7.32,4.26.07,7.35,3.22,7.36,7.32,0,4.06-3.23,7.02-6.83,7.29-4.44.34-7.95-3.57-7.76-7.29Z"/>
        <path class="cls-2" d="m231.13,223.97c-1.15.16-2.39-1.04-2.39-2.37,0-1.42,1.2-2.4,2.21-2.45,1.47-.07,2.65,1.13,2.62,2.27-.04,1.58-.92,2.54-2.44,2.54Z"/>
        <path class="cls-2" d="m255.46,223.97c-1.12.24-2.45-1.29-2.39-2.41.07-1.37,1.09-2.41,2.55-2.37,1.45.04,2.32,1.05,2.35,2.38.03,1.27-1,2.49-2.5,2.41Z"/>
      </g>
    </g>
  </g>
</svg>