<?xml version="1.0" encoding="UTF-8"?>
<svg id="Layer_2" data-name="Layer 2" xmlns="http://www.w3.org/2000/svg" viewBox="0 0 521 545.88">
  <defs>
    <style>
      .cls-1 {
        fill: #1ea890;
      }

      .cls-2 {
        fill: #0a2d49;
      }

      .cls-3 {
        fill: #fff;
        opacity: .85;
        stroke: #1ea890;
        stroke-miterlimit: 10;
        stroke-width: 2px;
      }

      .cls-4 {
        fill: #27dbbb;
      }
    </style>
  </defs>
  <g id="Layer_1-2" data-name="Layer 1">
    <path class="cls-4" d="m59.79,215.89l-15-.93.93-20.69-7.76,5.17-12.1,1.76-6.93-5.17h-8.59l-.83-12.93L0,166.76l9.52-12.1s3.41-16.34,8.59-20.69c5.17-4.35,31.03-9.52,31.03-9.52l4.35-3.41,3.41-17.48,3.21-19.34-10.35-14.9v-7.76h11.69l-5.9-7.76v-5.79l17.48-.62,17.28-6,2.17,2.69s-1.97,13.65,7.76,14.9c9.72,1.24,28.45-6.41,29.07-9.72.62-3.21,12.31-10.34,12.31-10.34l-3.31-4.55-6.41,1.34-1.24-10.97-11.69-12.31,25.86,6.41,7.76-4.45,10.34-1.97s11.59-3.21,11.59-6.41c0-1.86-.21-4.03-.83-6l11.17,2.07-3.21,7.14,7.76,5.79-3.21,14.9,5.79,16.76,10.35,6.52,9.1-7.14,19.03-2.69,8.07-1.14,1.97-5.17h16.76l7.14,3.83,18.72-1.35,14.17-29.59c6,4.76,10.35,9.72,12.21,14.59,8.59,22.34,38.8,55.17,38.8,55.17l50.31,8.67,46.67,26.19,52.89,14.65,22.81,27.75-6.35,33.09-35.02,41.03-24.99,66.15-13.16,63.51-60.47,31.03s-35.28,51.72-55.96,84.41c-16.34,25.97-34.96,52.55-50.48,69.72l-3-22.24-25.86-23.28-7.76-1.76-10.34-10.34-9.83.52,1.24-3.93,22.34-27.62,25.03-11.17,1.76-22.45-8.38-2.07,1.45-23.79-14.69-1.76,1.76-13.76-11.17-12.1h-25.03l-.83-27.52s0-2.38.21-5.59c.31-4.76,1.14-11.48,3.21-15.1,3.41-6.1,1.76-12.1,1.76-12.1l-10.35-11.17v-10.34l-24.21.83-.83-12.1-4.35-3.41,5.17-3.41-3.41-19.03-17.27-2.59-18.93-12.93-15.52-2.59-9.52-5.17-1.66-29.28h-15.52l-25.86,18.1-14.38-.83Z"/>
    <g>
      <circle class="cls-1" cx="139.43" cy="172.28" r="39.16"/>
      <circle class="cls-3" cx="136.06" cy="168.35" r="39.16"/>
      <g>
        <path class="cls-2" d="m148.29,177.34c-1.92.25-3.36-.57-4.64-1.92-1.69-1.79-3.47-3.5-5.21-5.24-1.22-1.22-3.03-1.28-4.27-.06-1.94,1.9-3.85,3.83-5.75,5.76-.92.93-1.97,1.48-3.3,1.45-.85-.02-1.71.01-2.56.05-.27.01-.44-.11-.6-.28-1.49-1.5-3.01-2.97-4.48-4.5-2.32-2.42-2.25-6.29.13-8.66,1.29-1.29,2.59-2.57,3.86-3.88.44-.45.91-.68,1.57-.74.92.03,1.77-.1,2.66.03,1.02.15,1.87.6,2.59,1.33,1.9,1.91,3.82,3.8,5.7,5.74,1.37,1.41,3.31,1.34,4.57,0,1.85-1.96,3.8-3.83,5.7-5.73.88-.88,1.92-1.36,3.18-1.33.7.02,1.4,0,2.09-.03.24-.01.4.08.56.24,1.54,1.56,3.13,3.07,4.62,4.68,2.16,2.32,2.16,5.88,0,8.2-1.49,1.6-3.09,3.11-4.63,4.67-.18.18-.37.24-.62.22-.39-.03-.78,0-1.16,0Z"/>
        <path class="cls-2" d="m135.91,148.08c1.83-.03,3.24.58,4.41,1.73,2.48,2.46,4.94,4.93,7.41,7.4.09.09.26.16.21.32-.05.16-.23.12-.36.12-2.39-.1-4,1.28-5.53,2.87-1.58,1.65-3.2,3.27-4.84,4.87-.61.6-1.28.53-1.9-.08-1.83-1.82-3.68-3.62-5.46-5.49-1.43-1.49-3.1-2.28-5.18-2.18-.18,0-.44.11-.52-.12-.06-.17.17-.28.29-.4,2.4-2.4,4.8-4.8,7.2-7.21,1.23-1.23,2.68-1.88,4.27-1.83Z"/>
        <path class="cls-2" d="m136.11,188.63c-1.77.05-3.25-.6-4.49-1.85-2.37-2.38-4.74-4.75-7.11-7.12-.13-.13-.37-.25-.29-.46.08-.22.34-.14.52-.13,2.03.09,3.67-.69,5.07-2.14,1.77-1.84,3.61-3.63,5.42-5.44.74-.73,1.26-.81,2.01-.11,1.19,1.11,2.33,2.27,3.46,3.44.98,1,1.91,2.03,2.98,2.93,1.09.9,2.36,1.31,3.76,1.32.16,0,.4-.08.48.1.09.2-.16.28-.27.4-2.18,2.21-4.35,4.43-6.56,6.6-.56.55-1.08,1.16-1.79,1.57-1.12.65-1.92.9-3.2.9Z"/>
      </g>
    </g>
    <g>
      <circle class="cls-1" cx="230.75" cy="53.13" r="39.16"/>
      <circle class="cls-3" cx="227.37" cy="49.2" r="39.16"/>
      <g>
        <path class="cls-2" d="m205.11,40.5c.17,0,.35.02.52.02,14.5,0,29,0,43.51,0,.37,0,.51.06.5.48-.02,4.78,0,9.56-.02,14.34,0,1.41-.47,2.35-1.89,2.84-.29.1-.6.16-.91.16-13.07,0-26.14,0-39.2,0-1.09,0-2.05-.79-2.42-1.96-.02-.06-.02-.11-.09-.13,0-5.25,0-10.49,0-15.74Zm15.95,7.14c2.66,0,5.33,0,7.99,0,.46,0,.86-.29.92-.66.09-.53-.1-.86-.63-1.06-.17-.06-.34-.05-.51-.05-5.14,0-10.28,0-15.42,0-.16,0-.32,0-.48.02-.37.04-.66.38-.7.74-.08.62.38,1.02.92,1.02,2.64-.02,5.27,0,7.91,0Zm-3.56,3.56c1.46,0,2.92,0,4.39,0,.59,0,.95-.32.96-.83,0-.58-.3-.93-.92-.93-2.92,0-5.85,0-8.77,0-.62,0-.92.33-.91.93,0,.52.35.83.96.83,1.43,0,2.87,0,4.3,0Z"/>
        <path class="cls-2" d="m249.54,35.18c-.17,0-.35,0-.52,0-14.46,0-28.92,0-43.39,0-.17,0-.35,0-.52,0v-5.04c.21-.31.28-.68.5-1,.55-.78,1.33-1.06,2.22-1.09.77-.03,1.54,0,2.3,0,12.17,0,24.34,0,36.51,0,1.15,0,2.1.4,2.68,1.47.24.44.28.93.29,1.4.04,1.39,0,2.78,0,4.17-.03.02-.05.05-.08.07Z"/>
      </g>
      <g>
        <path class="cls-2" d="m204.67,65.7c.48-.07,1.04-.13,1.67-.13,1.13,0,1.93.26,2.46.76.54.5.86,1.2.86,2.18s-.31,1.8-.87,2.36c-.57.57-1.5.87-2.68.87-.56,0-1.03-.03-1.42-.07v-5.97Zm.78,5.37c.2.04.49.04.79.04,1.67,0,2.58-.94,2.58-2.57,0-1.43-.8-2.34-2.46-2.34-.41,0-.71.04-.92.08v4.79Z"/>
        <path class="cls-2" d="m213.8,68.84h-2.36v2.19h2.63v.66h-3.41v-6.07h3.28v.66h-2.49v1.92h2.36v.65Z"/>
        <path class="cls-2" d="m215.09,65.7c.34-.07.88-.13,1.43-.13.78,0,1.29.13,1.67.44.31.23.5.59.5,1.07,0,.59-.39,1.1-1.03,1.33v.02c.58.14,1.25.62,1.25,1.52,0,.52-.21.92-.51,1.22-.42.39-1.11.57-2.1.57-.54,0-.95-.04-1.22-.07v-5.97Zm.78,2.48h.71c.83,0,1.31-.43,1.31-1.02,0-.71-.54-.99-1.33-.99-.36,0-.57.03-.69.05v1.95Zm0,2.91c.15.03.38.04.66.04.81,0,1.56-.3,1.56-1.18,0-.83-.71-1.17-1.57-1.17h-.65v2.31Z"/>
        <path class="cls-2" d="m220.75,65.62v6.07h-.78v-6.07h.78Z"/>
        <path class="cls-2" d="m223.27,66.28h-1.85v-.67h4.49v.67h-1.85v5.4h-.79v-5.4Z"/>
        <path class="cls-2" d="m232.74,71.49c-.29.14-.86.29-1.6.29-1.71,0-3-1.08-3-3.07s1.29-3.19,3.17-3.19c.76,0,1.23.16,1.44.27l-.19.64c-.3-.14-.72-.25-1.22-.25-1.42,0-2.37.91-2.37,2.5,0,1.49.86,2.44,2.33,2.44.48,0,.96-.1,1.28-.25l.16.62Z"/>
        <path class="cls-2" d="m234.74,69.78l-.63,1.91h-.81l2.06-6.07h.95l2.07,6.07h-.84l-.65-1.91h-2.15Zm1.99-.61l-.59-1.75c-.14-.4-.23-.76-.32-1.11h-.02c-.09.36-.19.73-.31,1.1l-.59,1.76h1.83Z"/>
        <path class="cls-2" d="m239.26,65.7c.4-.08.96-.13,1.5-.13.84,0,1.38.15,1.76.5.31.27.48.68.48,1.15,0,.8-.5,1.33-1.14,1.55v.03c.47.16.75.59.89,1.22.2.85.34,1.43.47,1.67h-.81c-.1-.17-.23-.69-.41-1.45-.18-.84-.5-1.15-1.21-1.18h-.74v2.63h-.78v-5.99Zm.78,2.76h.8c.84,0,1.37-.46,1.37-1.15,0-.78-.57-1.12-1.4-1.13-.38,0-.65.04-.77.07v2.21Z"/>
        <path class="cls-2" d="m244.1,65.7c.48-.07,1.04-.13,1.67-.13,1.13,0,1.93.26,2.46.76.54.5.86,1.2.86,2.18s-.31,1.8-.87,2.36c-.57.57-1.5.87-2.68.87-.56,0-1.03-.03-1.42-.07v-5.97Zm.78,5.37c.2.04.49.04.79.04,1.67,0,2.58-.94,2.58-2.57,0-1.43-.8-2.34-2.46-2.34-.41,0-.71.04-.92.08v4.79Z"/>
      </g>
    </g>
    <g>
      <circle class="cls-1" cx="299.01" cy="209.48" r="39.16"/>
      <circle class="cls-3" cx="295.64" cy="205.54" r="39.16"/>
      <g>
        <path class="cls-2" d="m273.37,196.85c.17,0,.35.02.52.02,14.5,0,29,0,43.51,0,.37,0,.51.06.5.48-.02,4.78,0,9.56-.02,14.34,0,1.41-.47,2.35-1.89,2.84-.29.1-.6.16-.91.16-13.07,0-26.14,0-39.2,0-1.09,0-2.05-.79-2.42-1.96-.02-.06-.02-.11-.09-.13,0-5.25,0-10.49,0-15.74Zm15.95,7.14c2.66,0,5.33,0,7.99,0,.46,0,.86-.29.92-.66.09-.53-.1-.86-.63-1.06-.17-.06-.34-.05-.51-.05-5.14,0-10.28,0-15.42,0-.16,0-.32,0-.48.02-.37.04-.66.38-.7.74-.08.62.38,1.02.92,1.02,2.64-.02,5.27,0,7.91,0Zm-3.56,3.56c1.46,0,2.92,0,4.39,0,.59,0,.95-.32.96-.83,0-.58-.3-.93-.92-.93-2.92,0-5.85,0-8.77,0-.62,0-.92.33-.91.93,0,.52.35.83.96.83,1.43,0,2.87,0,4.3,0Z"/>
        <path class="cls-2" d="m317.8,191.53c-.17,0-.35,0-.52,0-14.46,0-28.92,0-43.39,0-.17,0-.35,0-.52,0v-5.04c.21-.31.28-.68.5-1,.55-.78,1.33-1.06,2.22-1.09.77-.03,1.54,0,2.3,0,12.17,0,24.34,0,36.51,0,1.15,0,2.1.4,2.68,1.47.24.44.28.93.29,1.4.04,1.39,0,2.78,0,4.17-.03.02-.05.05-.08.07Z"/>
      </g>
      <g>
        <path class="cls-2" d="m275.17,227.84c-.29.14-.86.29-1.6.29-1.71,0-3-1.08-3-3.07s1.29-3.19,3.17-3.19c.76,0,1.23.16,1.44.27l-.19.64c-.3-.14-.72-.25-1.22-.25-1.42,0-2.37.91-2.37,2.5,0,1.49.86,2.44,2.33,2.44.48,0,.96-.1,1.28-.25l.16.62Z"/>
        <path class="cls-2" d="m276.15,222.05c.4-.08.96-.13,1.5-.13.84,0,1.38.15,1.76.5.31.27.48.68.48,1.15,0,.8-.5,1.33-1.14,1.55v.03c.47.16.75.59.89,1.22.2.85.34,1.43.47,1.67h-.81c-.1-.17-.23-.69-.41-1.45-.18-.84-.5-1.15-1.21-1.18h-.74v2.63h-.78v-5.99Zm.78,2.76h.8c.84,0,1.37-.46,1.37-1.15,0-.78-.57-1.12-1.4-1.13-.38,0-.65.04-.77.07v2.21Z"/>
        <path class="cls-2" d="m284.13,225.19h-2.36v2.19h2.63v.66h-3.41v-6.07h3.28v.66h-2.49v1.92h2.36v.65Z"/>
        <path class="cls-2" d="m285.42,222.05c.48-.07,1.04-.13,1.67-.13,1.13,0,1.93.26,2.46.76.54.5.86,1.2.86,2.18s-.31,1.8-.87,2.36c-.57.57-1.5.87-2.68.87-.56,0-1.03-.03-1.42-.07v-5.97Zm.78,5.37c.2.04.49.04.79.04,1.67,0,2.58-.94,2.58-2.57,0-1.43-.8-2.34-2.46-2.34-.41,0-.71.04-.92.08v4.79Z"/>
        <path class="cls-2" d="m292.2,221.97v6.07h-.78v-6.07h.78Z"/>
        <path class="cls-2" d="m294.72,222.63h-1.85v-.67h4.49v.67h-1.85v5.4h-.79v-5.4Z"/>
        <path class="cls-2" d="m304.19,227.84c-.29.14-.86.29-1.6.29-1.71,0-3-1.08-3-3.07s1.29-3.19,3.17-3.19c.76,0,1.23.16,1.44.27l-.19.64c-.3-.14-.72-.25-1.22-.25-1.42,0-2.37.91-2.37,2.5,0,1.49.86,2.44,2.33,2.44.48,0,.96-.1,1.28-.25l.16.62Z"/>
        <path class="cls-2" d="m306.18,226.12l-.63,1.91h-.81l2.06-6.07h.95l2.07,6.07h-.84l-.65-1.91h-2.15Zm1.99-.61l-.59-1.75c-.14-.4-.23-.76-.32-1.11h-.02c-.09.36-.19.73-.31,1.1l-.59,1.76h1.83Z"/>
        <path class="cls-2" d="m310.71,222.05c.4-.08.96-.13,1.5-.13.84,0,1.38.15,1.76.5.31.27.48.68.48,1.15,0,.8-.5,1.33-1.14,1.55v.03c.47.16.75.59.89,1.22.2.85.34,1.43.47,1.67h-.81c-.1-.17-.23-.69-.41-1.45-.18-.84-.5-1.15-1.21-1.18h-.74v2.63h-.78v-5.99Zm.78,2.76h.8c.84,0,1.37-.46,1.37-1.15,0-.78-.57-1.12-1.4-1.13-.38,0-.65.04-.77.07v2.21Z"/>
        <path class="cls-2" d="m315.55,222.05c.48-.07,1.04-.13,1.67-.13,1.13,0,1.93.26,2.46.76.54.5.86,1.2.86,2.18s-.31,1.8-.87,2.36c-.57.57-1.5.87-2.68.87-.56,0-1.03-.03-1.42-.07v-5.97Zm.78,5.37c.2.04.49.04.79.04,1.67,0,2.58-.94,2.58-2.57,0-1.43-.8-2.34-2.46-2.34-.41,0-.71.04-.92.08v4.79Z"/>
      </g>
    </g>
    <g>
      <circle class="cls-1" cx="372.88" cy="102.16" r="39.16"/>
      <circle class="cls-3" cx="369.51" cy="98.23" r="39.16"/>
      <path class="cls-2" d="m348.31,112.14v-27.81c.17-.17.13-.41.23-.61.64-1.36,1.71-2.03,3.2-2.03,3.96,0,7.92-.02,11.88,0,8.08.04,16.15-.11,24.23.08.8.02,1.44.45,1.97,1,.69.72.88,1.65.88,2.61,0,7.75,0,15.5,0,23.26,0,1.12.07,2.25-.08,3.37-.11.79-.48,1.43-1.08,1.96-.77.68-1.68.84-2.67.83-11.81-.01-23.61,0-35.42-.01-.79,0-1.44-.32-2.02-.83-.57-.5-.87-1.13-1.11-1.82Zm4.97-13.9h0c0,3.31,0,6.62,0,9.93,0,.8.9,1.45,1.7,1.06.58-.28.78-.78.78-1.4,0-6.4,0-12.79,0-19.19,0-.07,0-.14,0-.21-.09-.84-.57-1.25-1.34-1.28-.57-.02-1.17.52-1.16,1.33.03,3.25.01,6.51.01,9.76Zm9.93-.04h0c0,3.32,0,6.64,0,9.97,0,.75.89,1.48,1.74,1.03.56-.3.74-.78.74-1.38,0-6.37,0-12.74,0-19.11,0-.2-.04-.4-.07-.6-.1-.66-.81-1.01-1.35-.97-.61.05-1.06.57-1.06,1.21,0,3.28,0,6.56,0,9.84Zm19.87.04h0c0,3.31,0,6.62,0,9.93,0,.8.9,1.45,1.7,1.06.58-.28.78-.78.78-1.4,0-6.4,0-12.79,0-19.19,0-.07,0-.14,0-.21-.09-.84-.57-1.25-1.34-1.28-.57-.02-1.17.52-1.16,1.33.03,3.25.01,6.51.01,9.76Zm-24.83-3.31h0c0,2.22,0,4.44,0,6.66,0,.78.9,1.4,1.69,1.02.56-.27.79-.75.79-1.35,0-4.22,0-8.43,0-12.65,0-.16-.05-.32-.07-.47-.09-.66-.81-1.03-1.35-.97-.67.06-1.08.69-1.08,1.24.03,2.18.01,4.35.01,6.53Zm9.93,0h0c0,2.22,0,4.44,0,6.66,0,.78.9,1.41,1.69,1.03.56-.27.79-.74.79-1.35,0-4.16,0-8.32,0-12.49,0-.23-.02-.45-.07-.68-.13-.61-.75-.97-1.34-.94-.61.04-1.07.57-1.07,1.2,0,2.19,0,4.38,0,6.57Zm4.97,0h0c0,2.22,0,4.44,0,6.66,0,.78.89,1.41,1.69,1.03.56-.27.79-.74.79-1.35,0-4.16,0-8.32,0-12.49,0-.23-.02-.45-.07-.68-.13-.61-.75-.97-1.34-.94-.61.04-1.07.57-1.07,1.2,0,2.19,0,4.38,0,6.57Zm4.97,0h0c0,2.21,0,4.41,0,6.62,0,.78.91,1.48,1.74,1.04.54-.29.75-.75.75-1.33,0-4.18,0-8.35,0-12.53,0-.2-.04-.4-.07-.6-.1-.66-.81-1.02-1.35-.97-.67.06-1.08.69-1.07,1.25.03,2.18.01,4.35.01,6.53Zm-19.87,12.35c0,.34.03.6,0,.86-.06.51.49,1.13,1,1.18.68.07,1.25-.33,1.41-.95.15-.57.11-1.15.06-1.71-.07-.77-.47-1.12-1.21-1.22-.45-.06-.98.18-1.21.81-.13.35-.01.73-.05,1.02Zm9.93,0c0,.31.02.56,0,.81-.07.65.55,1.18.99,1.24.69.09,1.25-.32,1.42-.97.15-.57.11-1.15.06-1.71-.07-.76-.46-1.08-1.19-1.2-.39-.06-.99.16-1.21.8-.13.36-.02.73-.06,1.03Zm4.97.02c0,.32.02.57,0,.81-.07.61.56,1.18,1.01,1.22.69.06,1.24-.33,1.4-.96.15-.57.11-1.15.06-1.71-.07-.74-.43-1.08-1.18-1.21-.37-.07-1,.16-1.22.79-.13.37-.02.76-.07,1.06Zm7.45.04c-.02-.29,0-.62-.07-.96-.13-.59-.75-.97-1.34-.93-.59.04-1.06.56-1.07,1.15,0,.52-.01,1.05,0,1.57.01.54.29.9.8,1.09.44.17.83.07,1.2-.23.54-.44.49-1.05.48-1.69Z"/>
    </g>
    <g>
      <circle class="cls-1" cx="355.5" cy="439.14" r="39.16"/>
      <circle class="cls-3" cx="352.13" cy="435.21" r="39.16"/>
      <g>
        <path class="cls-2" d="m348.41,451.35c0,.29.16.62.02.95-.1.24-.26.41-.54.45-1.49.21-2.9-.14-4.27-.7-.89-.36-1.73-.85-2.46-1.48-1.38-1.19-2.42-2.62-3.02-4.37-.19-.55-.28-1.1-.43-1.65-.07-.27-.14-.31-.39-.27-.5.07-.87-.16-1.09-.59-.14-.29-.07-.57.06-.8.51-.86,1.06-1.71,1.59-2.55.35-.55,1.09-.51,1.46-.14.7.67,1.39,1.36,2.08,2.05.29.28.32.64.21.99-.12.37-.43.58-.82.61-.38.03-.42.11-.31.51.18.65.35,1.29.68,1.89,1.21,2.21,3.06,3.46,5.56,3.77.26.03.52.05.78.07.6.04.73.16.81.74.02.16.04.32.07.53Z"/>
        <path class="cls-2" d="m356.79,417.64c1.26-.02,2.63.18,3.94.72.97.4,1.86.93,2.65,1.62,1.41,1.24,2.44,2.73,2.96,4.54.14.47.3.94.33,1.43.02.32.23.19.38.18.7-.06,1.15.3,1.17.94,0,.32-.17.56-.32.8-.44.73-.92,1.44-1.37,2.17-.37.59-1.14.54-1.51.14-.64-.69-1.36-1.32-2.04-1.97-.26-.25-.34-.54-.26-.9.1-.41.34-.65.75-.72.54-.09.54-.16.38-.7-.26-.89-.56-1.76-1.11-2.51-1.24-1.7-2.9-2.7-5.02-2.91-.25-.02-.5-.03-.74-.05-.65-.06-.78-.15-.87-.79-.05-.36-.09-.73-.14-1.09-.07-.61.08-.8.82-.9Z"/>
        <g>
          <path class="cls-2" d="m361.46,444.29c-.91-.19-1.83-.04-2.74-.09-.2-.01-.16.13-.16.24,0,.71.01,1.41,0,2.12,0,.24.1.26.29.25.39,0,.79,0,1.18,0,.11,0,.22,0,.33,0,.53-.04,1.08.12,1.58-.28.38-.3.59-.69.53-1.12-.1-.67-.4-1-.98-1.13Z"/>
          <path class="cls-2" d="m358.78,441.6c.42-.01.84,0,1.26,0,.31,0,.62-.02.94,0,.36.02.66-.09.96-.3.39-.28.56-.68.51-1.08-.1-.71-.38-1-.93-1.13-.91-.22-1.85-.05-2.78-.1-.19,0-.18.1-.18.23,0,.72,0,1.44,0,2.16,0,.18.05.23.23.23Z"/>
          <path class="cls-2" d="m359.46,431.07c-3.29.09-6.1,1.37-8.32,3.82-2.31,2.55-3.34,5.57-3.07,9.01.42,5.44,5.12,11.03,12.24,10.8,5.89-.19,11.42-5.13,11.31-11.81.16-6.41-5.24-12.01-12.17-11.81Zm5.59,14.41c-.06,1.8-.93,3.18-2.92,3.84-.15.05-.35.1-.46.08-.58-.09-.52.26-.51.62.01.71,0,.71-.71.71-.53,0-1.06-.02-1.59,0-.26.01-.33-.07-.31-.32.02-.24-.01-.49,0-.73.02-.22-.07-.27-.27-.26-1.11,0-2.23,0-3.34.01-.26,0-.32-.07-.31-.32.02-.68.02-1.36,0-2.04,0-.22.06-.27.27-.27.33,0,.79.15.98-.06.2-.22.06-.67.06-1.02,0-2.13,0-4.26,0-6.39,0-.28-.06-.38-.35-.36-.31.02-.72.1-.9-.06-.19-.17-.05-.59-.06-.89,0-.46,0-.92,0-1.38,0-.21.05-.28.27-.27.57.02,1.14,0,1.71,0,.56,0,1.11,0,1.67,0,.21,0,.28-.05.27-.27-.01-.34-.11-.79.06-.98.2-.21.66-.06,1.01-.06.43-.01.87,0,1.3,0,.17,0,.24.04.23.22-.02.26.01.52,0,.77-.02.28.1.38.36.39,1.76.08,3.15,1.4,3.46,3.12.2,1.11-.02,2.18-.77,3.08-.15.18-.15.31,0,.49.58.66.87,1.49.84,2.33Z"/>
        </g>
        <path class="cls-2" d="m356.28,426.03c-.2-1.39-.61-2.73-1.27-4-.85-1.63-2-3-3.48-4.07-2.11-1.52-4.48-2.33-7.18-2.23-1.78-.11-3.5.38-5.14,1.17-1.68.81-3.05,2.02-4.18,3.51-1.38,1.82-2.14,3.88-2.35,6.12-.11,1.16-.04,2.33.23,3.48.51,2.25,1.55,4.22,3.16,5.86,1.11,1.13,2.41,2.01,3.89,2.62,1.08.45,2.19.77,3.34.86,1.24.09,2.5.09,3.72-.22.14-.03.2-.09.24-.23.79-2.47,2.17-4.53,4.16-6.2,1.12-.93,2.33-1.65,3.69-2.16.47-.18,1.14-.21,1.09-.99,0-.13,0-.27.02-.4.24-1.04.2-2.09.05-3.12Zm-7.71,6.87c-.68.48-1.41.83-2.23.98-.26.05-.37.16-.36.43.01.42-.01.83,0,1.25.02.31-.08.42-.39.4-.29-.03-.58,0-.87,0-1.27,0-1.31,0-1.25-1.25.03-.6-.3-.68-.71-.7-1.12-.07-2.17-.39-3.2-.78-.75-.28-.76-.37-.39-1.13.3-.63.58-1.28.84-1.93.13-.32.28-.35.57-.2,1.35.7,2.79.99,4.3.88.02,0,.04,0,.05,0,.35-.13.9,0,.96-.55.06-.52-.38-.64-.79-.77-1.1-.34-2.26-.45-3.35-.86-1.22-.46-2.27-1.09-2.6-2.5-.48-2.06.58-3.83,2.42-4.56.49-.19.98-.37,1.51-.44.27-.03.37-.16.36-.42-.01-.4,0-.8,0-1.2-.01-.27.06-.39.36-.38.62.02,1.23.02,1.85,0,.28,0,.34.11.33.35-.01.42.01.83,0,1.25-.01.3.09.38.4.41,1,.08,1.97.34,2.88.78.17.08.33.13.2.43-.36.78-.66,1.58-.98,2.38-.11.27-.23.38-.56.22-1.21-.59-2.5-.75-3.83-.67-.42.02-.77.2-.85.59-.1.44.26.6.65.74,1.11.39,2.3.45,3.41.85.88.32,1.72.67,2.28,1.51.93,1.39.62,3.74-.99,4.9Z"/>
      </g>
    </g>
    <g>
      <circle class="cls-1" cx="450.12" cy="266.63" r="39.16"/>
      <circle class="cls-3" cx="446.75" cy="262.69" r="39.16"/>
      <g>
        <path class="cls-2" d="m457.27,249.36c-1.79-1.38-3.67-2.36-5.74-2.95-.94-.27-1.89-.47-2.87-.56-.71-.06-1.42-.14-2.12-.13-1.43.02-2.85.21-4.25.59-1.86.51-3.59,1.31-5.18,2.41-.74.51-1.43,1.07-2.07,1.69-.22.22-.35.21-.56,0-.51-.53-1.04-1.04-1.56-1.56,1.63-1.67,3.51-2.97,5.61-3.95,1.6-.75,3.29-1.27,5.03-1.54.75-.12,1.51-.21,2.28-.19.46,0,.92,0,1.39,0,2.07,0,4.05.41,5.99,1.07,2.14.73,4.06,1.83,5.81,3.25.07.06.14.14.24.09.09-.05.04-.15.04-.22,0-.46,0-.92,0-1.39,0-.19.02-.29.26-.29.69.02,1.39.01,2.08,0,.21,0,.28.05.28.27,0,1.92,0,3.83,0,5.75,0,.25-.09.28-.31.28-1.9,0-3.8,0-5.71,0-.22,0-.31-.05-.3-.29.02-.68.02-1.36,0-2.04,0-.24.07-.3.3-.29.42.02.84,0,1.35,0Z"/>
        <path class="cls-2" d="m436.26,275.94c1.73,1.36,3.57,2.33,5.6,2.95,1.04.32,2.09.51,3.17.65.87.11,1.73.09,2.59.05,1.27-.06,2.52-.26,3.75-.62,1.09-.32,2.14-.71,3.14-1.24,1.15-.6,2.23-1.31,3.22-2.16.28-.24.55-.47.8-.74.14-.15.26-.15.41,0,.5.51,1.02,1.02,1.52,1.53.07.07.16.1.02.24-1.06,1.02-2.2,1.92-3.45,2.69-1.83,1.14-3.8,1.94-5.9,2.44-1.92.46-3.87.58-5.83.47-1.05-.06-2.09-.26-3.12-.52-1.54-.38-3.01-.94-4.42-1.67-1.2-.62-2.32-1.36-3.36-2.23-.03-.02-.06-.03-.15-.07,0,.56-.01,1.08,0,1.6,0,.24-.04.33-.31.32-.68-.02-1.36-.01-2.04,0-.21,0-.28-.07-.27-.28,0-1.92,0-3.83,0-5.75,0-.21.06-.28.27-.28,1.93,0,3.86,0,5.79,0,.2,0,.26.06.26.25,0,.71-.01,1.41,0,2.12,0,.21-.08.25-.27.24-.45,0-.9,0-1.43,0Z"/>
        <path class="cls-2" d="m465.02,260.94c.33,0,.65,0,.98,0,.19,0,.29.02.28.26-.01,1.14,0,2.28,0,3.42,0,.16-.03.21-.21.25-.75.15-1.5-.11-2.24-.01-.12.02-.17-.05-.16-.17.04-.66-.01-1.32.05-1.98.04-.45-.03-.93-.06-1.4-.01-.29.1-.38.38-.37.32.02.65,0,.98,0Z"/>
        <path class="cls-2" d="m465.78,257.87c.02.12-.07.12-.17.15-.7.22-1.4.43-2.1.68-.15.05-.22.02-.25-.09-.34-1.13-.72-2.24-1.21-3.31-.08-.16.07-.15.13-.18.67-.29,1.34-.58,2.02-.85.24-.1.31.12.38.29.39.94.76,1.87,1.04,2.85.04.15.1.3.16.46Z"/>
        <path class="cls-2" d="m431.68,254.78c-.14.34-.25.66-.39.97-.36.73-.6,1.51-.87,2.27-.09.26-.22.27-.42.2-.63-.21-1.27-.41-1.89-.63-.15-.05-.26-.12-.17-.37.36-1.09.79-2.16,1.25-3.21.08-.19.14-.27.36-.16.65.3,1.32.56,1.98.85.06.03.12.07.16.09Z"/>
        <path class="cls-2" d="m463.36,267.05c.49.17.99.33,1.48.5.81.28.8.27.54,1.12-.28.89-.66,1.74-1.01,2.6-.1.24-.21.32-.48.19-.57-.28-1.17-.52-1.76-.76-.22-.09-.3-.2-.19-.44.45-.97.85-1.97,1.16-3,.03-.1.07-.25.24-.2Z"/>
        <path class="cls-2" d="m429.15,271.12c-.07-.04-.1-.1-.13-.17-.47-1.08-.82-2.19-1.21-3.29-.07-.18-.08-.28.19-.37.67-.22,1.36-.41,2.02-.64.19-.07.18-.04.24.13.35,1.05.7,2.11,1.16,3.13.07.16.06.28-.09.34-.7.29-1.41.56-2.11.84-.02,0-.04.03-.07.05Z"/>
        <path class="cls-2" d="m429.91,260.52c-.13.46-.06.89-.07,1.32-.01.76,0,1.52,0,2.28,0,.14.02.26-.2.26-.7-.02-1.4-.03-2.09.08-.28.04-.33-.08-.32-.33.01-1.02,0-2.03,0-3.05,0-.61.01-.61.62-.62.69,0,1.36.16,2.06.07Z"/>
        <path class="cls-2" d="m455.44,252.93c-2.57-2.3-5.63-3.38-9.04-3.3-3.62.08-6.73,1.48-9.19,4.16-2.46,2.69-3.62,5.88-3.46,9.54.27,6.48,5.82,12.38,14.76,12.35,2.09-.03,5.38-1.5,8-4.38,2.23-2.45,3.32-5.41,3.3-8.69-.02-3.83-1.5-7.11-4.37-9.69Zm-4.61,15.06c-.68.48-1.41.83-2.23.98-.26.05-.37.16-.36.43.01.42-.01.83,0,1.25.02.31-.08.42-.39.4-.29-.03-.58,0-.87,0-1.27,0-1.31,0-1.25-1.25.03-.6-.3-.68-.71-.7-1.12-.07-2.17-.39-3.2-.78-.75-.28-.76-.37-.39-1.13.3-.63.58-1.28.84-1.93.13-.32.28-.35.57-.2,1.35.7,2.79.99,4.3.88.02,0,.04,0,.05,0,.35-.13.9,0,.96-.55.06-.52-.38-.64-.79-.77-1.1-.34-2.26-.45-3.35-.86-1.22-.46-2.27-1.09-2.6-2.5-.48-2.06.58-3.83,2.42-4.56.49-.19.98-.37,1.51-.44.27-.03.37-.16.36-.42-.01-.4,0-.8,0-1.2-.01-.27.06-.39.36-.38.62.02,1.23.02,1.85,0,.28,0,.34.11.33.35-.01.42.01.83,0,1.25-.01.3.09.38.4.41,1,.08,1.97.34,2.88.78.17.08.33.13.2.43-.36.78-.66,1.58-.98,2.38-.11.27-.23.38-.56.22-1.21-.59-2.5-.75-3.83-.67-.42.02-.77.2-.85.59-.1.44.26.6.65.74,1.11.39,2.3.45,3.41.85.88.32,1.72.67,2.28,1.51.93,1.39.62,3.74-.99,4.9Z"/>
      </g>
    </g>
    <g>
      <circle class="cls-1" cx="224.53" cy="332.74" r="39.16"/>
      <circle class="cls-3" cx="221.16" cy="328.81" r="39.16"/>
      <g>
        <path class="cls-2" d="m239.45,327.52c-.34.4-.7.8-1.06,1.18-.25.27-.55.46-.88.57.12.12.23.27.31.45.3.61.14,1.19-.07,1.8-1.13,3.22-2.6,6.27-4.34,9.2-.44.74-.82,1.53-1.5,2.1-.55.46-1.2.7-1.92.54-1.19-.26-2.07-1.26-2.03-2.64.04-1.41.02-2.83,0-4.24-.01-.97-.66-1.84-1.63-2.07-.35-.08-.7,0-1.04-.07-1.41-.27-2.65-.82-3.59-1.96-1.15-1.4-1.67-2.94-1.25-4.75.6-2.64,2.89-4.42,5.57-4.44.62,0,1.25,0,1.87,0,.46,0,.71-.28.7-.72,0-.43-.26-.66-.77-.66-.81,0-1.63-.01-2.45,0-.98.01-1.76-.36-2.37-1.14-.73-.93-.81-2.23-.21-3.24.85-1.4,1.68-2.81,2.54-4.25-.88-.21-1.76-.3-2.64-.36-.26-.02-.29.08-.31.32-.09,1.02-.37,1.71-1.6,2.16-1.27.47-2.53.94-3.78,1.44-1.56.62-2.88-.43-2.99-1.88-.03-.37-.13-.37-.39-.22-.1.06-.22.09-.31.16-.29.23-.76.29-.78.79,0,.12,0,.25-.02.36-.3,1.33-.75,2.59-1.56,3.77.71,0,1.37,0,2.03,0,1.71.03,2.7,1.43,2.22,2.99-.21.68-.79,1.13-1.23,1.66-.72.87-1.47,1.71-2.22,2.55-.37.42-.61.88-.62,1.46-.01,1.23-1.25,2.42-2.45,2.44-1.68.04-3.37.02-5.05.03l-.06.06c-.03.34.05.67.05,1,.03,1.36.33,2.68.68,3.98.14.52.29,1.06.59,1.58.33-.71.61-1.4.95-2.07.94-1.84,3.37-2.23,4.92-1.08.45.34.8.81,1.38.98.95.28,1.88.62,2.82.91,1.53.47,2.66,1.38,3.07,2.97.32,1.23.21,2.5.14,3.77-.06,1.08-.57,1.82-1.4,2.43-.35.26-.61.61-.64,1.06-.03.46,0,.92-.01,1.38,0,.17.05.24.23.3,1.28.45,2.61.69,3.95.78,1.51.11,3.04.06,4.54-.24,1.9-.38,3.72-.98,5.42-1.93,1.77-.99,3.35-2.18,4.72-3.68,1.31-1.44,2.36-3.03,3.18-4.8.97-2.12,1.44-4.35,1.59-6.65.05-.74,0-1.48-.07-2.22-.05-.64-.14-1.28-.26-1.91Z"/>
        <path class="cls-2" d="m216.86,341.71c-.04.43.06.96-.07,1.48-.1.41-.32.75-.65.98-.96.69-1.44,1.6-1.4,2.79.02.64,0,.65-.58.37-1.58-.77-3.04-1.72-4.38-2.87-1.49-1.29-2.67-2.83-3.73-4.48-.31-.49-.36-.94-.06-1.49.4-.73.69-1.53,1.03-2.29.62-1.38,2.32-1.43,3.22-.49.69.72,1.59.96,2.47,1.26.73.25,1.47.49,2.21.74,1.26.43,1.85,1.41,1.93,2.68.03.41,0,.81,0,1.31Z"/>
        <path class="cls-2" d="m230.89,322.71c-1.03-1.69-2.06-3.54-2.59-5.68-.26-1.04-.33-2.06-.2-3.07-.33-.12-.66-.24-.99-.36-.24-.09-.38,0-.51.22-.84,1.43-1.71,2.85-2.56,4.28-.29.48-.36.98-.08,1.5.29.54.72.81,1.34.83,1.03.02,2.05-.08,3.08.07,1.11.17,1.95,1.56,1.57,2.61-.35.99-1.31,1.51-2.13,1.49-.79-.02-1.59-.03-2.38.04-2.13.2-4.03,2.38-3.7,4.67.3,2.08,2.04,3.61,4.09,3.65,1.86.04,3.4,1.44,3.49,3.26.07,1.54.03,3.09.04,4.64,0,.28.08.52.25.73.42.53,1.34.52,1.84-.32.84-1.39,1.66-2.79,2.4-4.23,1.05-2.04,1.97-4.13,2.71-6.3.29-.84-4.63-6.35-5.68-8.05Z"/>
        <path class="cls-2" d="m204.96,323.99c.42.36.81.58,1.34.6.8.03,1.35-.37,1.81-.92.65-.78,1.29-1.56,1.85-2.41.08-.13.22-.14.36-.13.92,0,1.85,0,2.77,0,.38,0,.69.19.81.49.11.29.1.64-.17.94-1.02,1.15-2.01,2.33-3.02,3.49-.58.66-.92,1.41-.93,2.29,0,.52-.6,1.11-1.16,1.12-1.58.02-3.15,0-4.73.01-.28,0-.24-.16-.22-.31.18-1.24.35-2.48.76-3.67.17-.5.35-.99.53-1.51Z"/>
        <path class="cls-2" d="m215.4,314.37c-.13-.37.12-.52.48-.63,1.26-.39,2.54-.7,3.86-.82.24-.02.48-.09.71-.06.19.02.49-.16.56.11.08.33,0,.69-.32.89-.28.17-.6.26-.91.38-1.05.4-2.13.75-3.16,1.19-.79.34-1.26-.14-1.22-.83,0-.05,0-.11,0-.23Z"/>
        <path class="cls-2" d="m203.67,330.88s-.04.04-.06.06c-.01-.06,0-.08.06-.06Z"/>
        <path class="cls-2" d="m211.15,313.83c-.73-2.79-3.15-4.16-5.67-3.73-2.25.39-3.96,2.41-3.93,4.85.03.22-.02.49.04.76.23,1.05.65,2.02,1.19,2.94.9,1.54,1.96,2.97,3.14,4.31.31.35.62.35.95,0,.29-.3.54-.63.8-.95,1.19-1.48,2.29-3.01,3.06-4.77.48-1.09.72-2.25.42-3.41Zm-2.99,4c-.29.21-.61.36-.96.42-.11.02-.16.07-.16.18,0,.18,0,.36,0,.54,0,.13-.03.18-.17.17-.12-.01-.25,0-.37,0-.55,0-.56,0-.54-.54.01-.26-.13-.29-.3-.3-.48-.03-.93-.17-1.38-.34-.32-.12-.32-.16-.17-.48.13-.27.25-.55.36-.83.05-.14.12-.15.24-.09.58.3,1.2.43,1.85.38,0,0,.02,0,.02,0,.15-.06.39,0,.41-.24.03-.22-.16-.27-.34-.33-.47-.15-.97-.2-1.44-.37-.53-.2-.98-.47-1.12-1.08-.21-.88.25-1.65,1.04-1.96.21-.08.42-.16.65-.19.12-.01.16-.07.16-.18,0-.17,0-.34,0-.51,0-.12.02-.17.15-.16.26,0,.53,0,.79,0,.12,0,.14.05.14.15,0,.18,0,.36,0,.54,0,.13.04.16.17.17.43.04.85.15,1.24.34.07.03.14.06.08.18-.15.33-.28.68-.42,1.02-.05.12-.1.16-.24.09-.52-.25-1.08-.32-1.65-.29-.18.01-.33.09-.37.25-.04.19.11.26.28.32.48.17.99.19,1.47.37.38.14.74.29.98.65.4.6.27,1.61-.43,2.11Z"/>
        <path class="cls-2" d="m244.76,314.35c-.07-.39.04-.89-.07-1.42-.36-1.74-1.22-3.15-2.52-4.33-1.9-1.72-4.16-2.28-6.61-1.84-1.84.33-3.45,1.25-4.59,2.83-1.44,2-2.11,4.14-1.49,6.63.49,1.96,1.43,3.69,2.46,5.37,1.26,2.06,2.78,3.93,4.32,5.78.4.47,1.01.5,1.45.03,1.98-2.11,3.69-4.42,5.1-6.94,1.04-1.86,2.09-3.74,1.95-6.12Zm-4.59,5.25c-.53.38-1.1.64-1.74.77-.2.04-.29.13-.28.33,0,.32-.01.65,0,.97.01.24-.06.33-.31.31-.22-.02-.45,0-.68,0-.99,0-1.02,0-.97-.97.02-.47-.24-.53-.55-.55-.87-.06-1.69-.31-2.5-.61-.58-.22-.59-.29-.31-.88.24-.49.45-.99.66-1.5.1-.25.22-.27.44-.16,1.05.54,2.17.77,3.35.69.01,0,.03,0,.04,0,.28-.1.7,0,.75-.43.05-.4-.3-.5-.61-.6-.86-.27-1.76-.35-2.61-.67-.95-.36-1.77-.85-2.02-1.95-.37-1.6.45-2.99,1.88-3.55.38-.15.77-.29,1.17-.34.21-.03.29-.13.28-.33,0-.31,0-.62,0-.93,0-.21.04-.31.28-.3.48.02.96.01,1.44,0,.22,0,.26.09.26.28-.01.32,0,.65,0,.97-.01.24.07.3.31.32.78.07,1.53.27,2.24.61.13.06.26.1.15.33-.28.61-.51,1.23-.76,1.85-.09.21-.18.3-.44.17-.94-.46-1.95-.58-2.99-.52-.33.02-.6.16-.67.46-.08.35.2.47.5.58.87.31,1.8.35,2.66.66.69.25,1.34.52,1.78,1.17.72,1.08.49,2.91-.77,3.81Z"/>
      </g>
    </g>
  </g>
</svg>