<svg width="512" height="513" viewBox="0 0 512 513" fill="none" xmlns="http://www.w3.org/2000/svg">
<g clip-path="url(#clip0_258_1079)">
<path d="M307.929 261.086C299.627 261.086 291.843 263.734 285.406 268.23C279.545 253.617 265.235 243.271 248.552 243.271C240.238 243.271 232.456 245.913 226.022 250.401C220.157 235.796 205.851 225.457 189.173 225.457C182.037 225.457 175.307 227.366 169.485 230.71V152.715C179.386 144.22 186.281 132.739 189.219 120.152H323.539C329.061 120.152 333.539 115.674 333.539 110.152C333.539 104.63 329.061 100.153 323.539 100.153H190.493C187.365 69.4216 161.337 45.3613 129.794 45.3613C96.15 45.3613 68.7788 72.7325 68.7788 106.376C68.7788 124.354 76.5196 141.105 90.1042 152.719V336.451L67.7209 314.068C60.2481 306.595 50.2814 302.48 39.6538 302.481C29.0291 302.482 19.0634 306.597 11.5926 314.068C4.12187 321.539 0.00899557 331.502 0.00799561 342.129C0.00799561 352.756 4.12187 362.722 11.5936 370.193C27.2051 385.804 41.3517 399.497 55.0313 412.739C68.5049 425.779 82.4314 439.26 97.7269 454.547C116.481 479.533 143.685 497.442 176.45 506.367C190.861 510.292 205.703 512.249 220.361 512.248C237.049 512.248 253.498 509.712 268.796 504.657C291.828 497.047 311.175 483.97 324.743 466.839C339.922 447.675 347.619 424.337 347.619 397.473V300.774C347.619 278.89 329.815 261.086 307.929 261.086V261.086ZM129.795 65.3597C152.41 65.3597 170.81 83.7591 170.81 106.375C170.81 115.115 167.98 123.568 162.941 130.508C155.835 119.744 143.631 112.628 129.795 112.628C115.947 112.628 103.733 119.757 96.63 130.537C91.5631 123.609 88.7802 115.212 88.7802 106.375C88.7792 83.7591 107.179 65.3597 129.795 65.3597ZM327.62 397.473C327.62 439.853 303.892 471.998 262.521 485.668C209.04 503.343 144.905 484.58 113.339 442.028C113.047 441.634 112.726 441.262 112.379 440.915C96.768 425.303 82.6204 411.61 68.9408 398.368C55.3173 385.182 41.2307 371.548 25.7352 356.052C22.0413 352.359 20.0064 347.414 20.0074 342.129C20.0074 336.845 22.0413 331.9 25.7362 328.206C29.4291 324.514 34.3739 322.479 39.6568 322.478C44.9406 322.478 49.8854 324.512 53.5803 328.206L93.0341 367.659C95.894 370.519 100.196 371.373 103.932 369.827C107.668 368.279 110.105 364.633 110.105 360.588V152.315C110.105 141.459 118.937 132.627 129.794 132.627C140.651 132.627 149.483 141.459 149.483 152.315V316.43C149.483 321.952 153.961 326.43 159.483 326.43C165.005 326.43 169.483 321.952 169.483 316.43V264.326C169.5 264.171 169.515 264.015 169.525 263.858C170.196 253.539 178.825 245.455 189.171 245.455C200.028 245.455 208.86 254.288 208.86 265.143V316.43C208.86 321.952 213.338 326.43 218.86 326.43C224.382 326.43 228.86 321.952 228.86 316.43V282.59C228.863 282.527 228.866 282.463 228.868 282.399C229.165 271.851 237.995 263.27 248.55 263.27C259.406 263.27 268.239 272.102 268.239 282.958L268.24 316.43C268.24 321.953 272.717 326.43 278.239 326.43C283.762 326.43 288.239 321.952 288.239 316.43V300.349C288.244 300.268 288.248 300.187 288.25 300.106C288.604 289.618 297.432 281.085 307.928 281.085C318.785 281.085 327.618 289.918 327.618 300.773V397.473H327.62Z" fill="white"/>
<path d="M426.233 203.044C481.85 194.028 519.627 141.633 510.611 86.0171C501.595 30.4007 449.2 -7.37658 393.584 1.63926C337.968 10.6551 300.19 63.0499 309.206 118.666C318.222 174.283 370.617 212.06 426.233 203.044Z" fill="#27DBBB"/>
<path d="M402.319 160.175C402.251 160.175 402.182 160.174 402.114 160.173C398.07 160.09 394.474 157.579 393.004 153.811L366.317 85.4278C364.309 80.282 366.852 74.4852 371.996 72.4773C377.143 70.4663 382.941 73.0132 384.947 78.1571L402.853 124.04L435.135 50.3659C437.353 45.3071 443.25 43.0062 448.308 45.2201C453.367 47.437 455.67 53.3339 453.454 58.3927L411.477 154.189C409.881 157.83 406.283 160.175 402.319 160.175V160.175Z" fill="white"/>
</g>
<defs>
<clipPath id="clip0_258_1079">
<rect width="512" height="512" fill="white" transform="translate(0 0.24707)"/>
</clipPath>
</defs>
</svg>
