<svg width="512" height="513" viewBox="0 0 512 513" fill="none" xmlns="http://www.w3.org/2000/svg">
<g clip-path="url(#clip0_258_1054)">
<path d="M397.722 218.14C392.2 218.14 387.722 222.618 387.722 228.14V277.571C371.578 309.675 255.221 318.822 203.862 318.445C152.51 318.818 36.089 309.684 20 277.547V219.093C100.546 262.665 274.842 258.497 358.055 232.176C363.304 230.458 366.169 224.812 364.453 219.562C362.737 214.313 357.094 211.446 351.841 213.165C284.233 236.405 143.119 237.421 70.487 217.408C31.187 207.194 20.308 195.736 20 190.819V132.365C30.817 139.099 45.997 145.006 65.479 150.044C102.751 159.683 151.896 164.991 203.861 164.991C233.413 164.991 261.842 163.305 288.36 159.981C293.839 159.293 297.725 154.294 297.039 148.814C296.351 143.334 291.344 139.437 285.872 140.136C220.703 148.786 127.158 145.879 70.486 130.679C31.187 120.467 20.309 109.01 20 104.092C19.945 99.2301 30.245 87.9301 69.326 77.5721C130.428 60.9001 233.763 58.7681 301.977 70.0901C315.036 71.7431 318.179 52.8991 305.1 50.3361C234.164 38.5731 127.977 40.8581 64.236 58.2311C21.612 69.4471 0 84.8381 0 103.975V450.883C0 470.021 21.612 485.411 64.235 496.628C137.592 516.836 270.129 516.835 343.486 496.627C386.11 485.411 407.721 470.02 407.721 450.883V228.14C407.722 222.618 403.244 218.14 397.722 218.14V218.14ZM65.479 323.498C150.193 344.648 310.307 347.705 387.721 305.82V364.298C371.576 396.403 255.221 405.55 203.861 405.173C152.509 405.546 36.086 396.411 19.999 364.273V305.819C30.817 312.553 45.997 318.46 65.479 323.498ZM338.396 477.287C268.34 496.624 139.382 496.624 69.326 477.286C30.31 467.019 20 455.526 20 450.884V392.547C96.645 436.373 310.913 436.434 387.722 392.548V450.884C387.722 455.526 377.413 467.019 338.396 477.287V477.287Z" fill="white"/>
<path fill-rule="evenodd" clip-rule="evenodd" d="M389.562 244.777C456.999 244.777 512.001 189.775 512.001 122.338C505.738 -39.8499 273.362 -39.8059 267.123 122.34C267.123 189.775 322.125 244.777 389.562 244.777Z" fill="#27DBBB"/>
<path d="M389.562 205.894C330.785 193.714 317.175 139.563 318.344 89.5954C318.343 84.0734 322.821 79.5954 328.343 79.5954C339.707 79.5954 348.952 70.3494 348.952 58.9854C348.952 53.4634 353.43 48.9854 358.952 48.9854H420.171C425.693 48.9854 430.171 53.4634 430.171 58.9854C430.171 70.3494 439.416 79.5954 450.78 79.5954C456.302 79.5954 460.78 84.0734 460.78 89.5954C461.951 139.56 448.327 193.729 389.562 205.894V205.894ZM338.447 98.3233C339.545 142.164 349.736 173.649 389.561 185.504C429.386 173.65 439.578 142.164 440.675 98.3233C426.352 94.6423 415.06 83.3244 411.416 68.9854H367.705C364.062 83.3244 352.771 94.6423 338.447 98.3233V98.3233Z" fill="white"/>
</g>
<defs>
<clipPath id="clip0_258_1054">
<rect width="512" height="512" fill="white" transform="translate(0 0.249023)"/>
</clipPath>
</defs>
</svg>
