<svg width="699" height="533" viewBox="0 0 699 533" fill="none" xmlns="http://www.w3.org/2000/svg">
<path d="M471.837 176.963H563.514V232.314L688.054 121.61L563.514 10.9082V66.2592H397.459V122.565" stroke="#0A2D49" stroke-width="20" stroke-miterlimit="10" stroke-linecap="round" stroke-linejoin="round"/>
<path d="M226.217 356.855H134.54V301.504L10 412.208L134.54 522.91V467.559H300.595V411.253" stroke="#0A2D49" stroke-width="20" stroke-miterlimit="10" stroke-linecap="round" stroke-linejoin="round"/>
<path d="M349.027 422.906C263.018 422.906 193.029 352.918 193.029 266.909C193.029 180.9 263.018 110.911 349.027 110.911C435.036 110.911 505.025 180.9 505.025 266.909C505.025 352.918 435.036 422.906 349.027 422.906Z" fill="#27DBBB" stroke="#0A2D49" stroke-width="20"/>
<path d="M376.435 206.903C376.435 206.903 376.395 206.87 376.318 206.807C376.271 206.769 376.21 206.72 376.136 206.662C373.804 204.83 358.049 193.356 336.792 199.759C314.716 206.41 309.233 236.616 324.236 248.383C332.851 255.14 345.812 260.694 363.281 266.87C402.378 280.69 387.925 335.827 348.155 336.092C332.636 336.195 325.38 335.21 311.746 326.29" stroke="#0A2D49" stroke-width="20" stroke-miterlimit="10" stroke-linecap="round" stroke-linejoin="round"/>
<path d="M349.027 170.044V197.721" stroke="#0A2D49" stroke-width="20" stroke-miterlimit="10" stroke-linecap="round" stroke-linejoin="round"/>
<path d="M349.027 336.097V363.773" stroke="#0A2D49" stroke-width="20" stroke-miterlimit="10" stroke-linecap="round" stroke-linejoin="round"/>
</svg>
