<svg width="594" height="513" viewBox="0 0 594 513" fill="none" xmlns="http://www.w3.org/2000/svg">
<path d="M267.591 133.996H314.192C320.594 133.996 325.783 128.806 325.783 122.405C325.783 116.003 320.594 110.814 314.192 110.814H255.999C249.599 110.814 244.408 116.003 244.408 122.405V244.657H209.398C209.398 205.09 209.398 96.7282 209.398 46.7563C209.398 16.224 156.728 0.249023 104.699 0.249023C52.6692 0.249023 0 16.224 0 46.7563V465.742C0 496.274 52.6692 512.249 104.699 512.249C156.728 512.249 209.398 496.274 209.398 465.742C209.398 443.976 209.398 287.225 209.398 267.841H244.408V390.093C244.408 396.494 249.599 401.684 255.999 401.684H314.192C320.594 401.684 325.783 396.494 325.783 390.093C325.783 383.692 320.594 378.502 314.192 378.502H267.591V133.996ZM186.216 395.911C186.216 402.68 157.649 419.234 104.699 419.234C51.7477 419.234 23.1824 402.68 23.1824 395.911V356.346C63.8964 377.971 145.468 377.989 186.216 356.346V395.911ZM186.216 116.586C186.216 123.356 157.649 139.911 104.699 139.911C51.7477 139.911 23.1824 123.356 23.1824 116.586V77.0232C63.8964 98.6477 145.468 98.6663 186.216 77.0232V116.586ZM186.216 146.853V186.417C186.216 193.187 157.649 209.742 104.699 209.742C51.7477 209.742 23.1824 193.187 23.1824 186.417V146.854C63.8999 168.48 145.468 168.496 186.216 146.853ZM186.216 216.684V256.248C186.216 263.018 157.649 279.572 104.699 279.572C51.7477 279.572 23.1824 263.018 23.1824 256.248V216.685C63.8999 238.311 145.468 238.327 186.216 216.684V216.684ZM186.216 286.515V326.08C186.216 332.849 157.649 349.403 104.699 349.403C51.7477 349.403 23.1824 332.849 23.1824 326.08V286.515C63.8964 308.14 145.468 308.158 186.216 286.515ZM104.699 23.4314C157.651 23.4314 186.216 39.9871 186.216 46.7563C186.216 53.5256 157.649 70.0801 104.699 70.0801C51.7477 70.0801 23.1824 53.5244 23.1824 46.7563C23.1824 39.9871 51.7477 23.4314 104.699 23.4314ZM104.699 489.065C51.7477 489.065 23.1824 472.51 23.1824 465.741V426.177C63.8964 447.802 145.468 447.819 186.216 426.177V465.741C186.216 472.51 157.651 489.065 104.699 489.065Z" fill="white"/>
<path d="M593.469 238.744H302.601V6.06787H423.74L458.655 40.984H593.469V238.744Z" fill="#27DBBB"/>
<path d="M593.469 506.428H302.601V273.752H423.74L458.655 308.668H593.469V506.428Z" fill="#27DBBB"/>
<path d="M523.685 157.37H372.385C365.985 157.37 360.794 162.561 360.794 168.961C360.794 175.362 365.985 180.552 372.385 180.552H523.685C530.086 180.552 535.276 175.362 535.276 168.961C535.276 162.561 530.086 157.37 523.685 157.37V157.37Z" fill="white"/>
<path d="M372.385 122.359H523.685C530.086 122.359 535.276 117.169 535.276 110.768C535.276 104.367 530.086 99.1768 523.685 99.1768H372.385C365.985 99.1768 360.794 104.367 360.794 110.768C360.794 117.17 365.983 122.359 372.385 122.359V122.359Z" fill="white"/>
<path d="M523.685 425.057H372.385C365.985 425.057 360.794 430.248 360.794 436.648C360.794 443.049 365.985 448.239 372.385 448.239H523.685C530.086 448.239 535.276 443.049 535.276 436.648C535.276 430.247 530.086 425.057 523.685 425.057V425.057Z" fill="white"/>
<path d="M523.685 366.863H372.385C365.985 366.863 360.794 372.054 360.794 378.454C360.794 384.855 365.985 390.046 372.385 390.046H523.685C530.086 390.046 535.276 384.855 535.276 378.454C535.276 372.053 530.086 366.863 523.685 366.863V366.863Z" fill="white"/>
</svg>
