<?xml version="1.0" encoding="UTF-8"?>
<svg id="Layer_2" data-name="Layer 2" xmlns="http://www.w3.org/2000/svg" viewBox="0 0 487.28 487.28">
  <defs>
    <style>
      .cls-1 {
        fill: #08314d;
      }

      .cls-2 {
        fill: #1fdabb;
      }
    </style>
  </defs>
  <g id="Layer_1-2" data-name="Layer 1">
    <g>
      <path class="cls-1" d="M449.05,397.37V195.02l35.44-35.44c3.71-3.72,3.72-9.74,0-13.46l-38.22-38.22c-3.72-3.72-9.74-3.72-13.46,0l-12.38,12.38-53.43-53.43,12.38-12.38c3.72-3.72,3.72-9.74,0-13.46L341.15,2.79c-3.72-3.72-9.74-3.72-13.46,0l-35.44,35.44H89.91L54.47,2.79c-3.72-3.72-9.74-3.72-13.46,0L2.79,41.01c-3.72,3.72-3.72,9.74,0,13.46l35.44,35.44v202.35L2.79,327.69c-3.72,3.72-3.72,9.74,0,13.46l38.22,38.22c3.72,3.72,9.74,3.72,13.46,0l12.38-12.38,53.43,53.43-12.38,12.38c-3.71,3.71-3.72,9.74,0,13.46l38.22,38.22c3.72,3.71,9.74,3.72,13.46,0l35.44-35.44h202.35l35.44,35.44c3.72,3.71,9.74,3.72,13.46,0l38.22-38.22c3.71-3.72,3.72-9.74,0-13.46l-35.44-35.44Zm-28.63,9.59l-60.16-60.16c-3.72-3.72-9.74-3.72-13.46,0-3.72,3.72-3.72,9.74,0,13.46l60.16,60.16-9.59,9.59H195.02l-32.65-32.65v-53.43h133.82c5.26,0,9.52-4.26,9.52-9.52s-4.26-9.52-9.52-9.52H162.37V191.08c0-5.26-4.26-9.52-9.52-9.52s-9.52,4.26-9.52,9.52v133.82h-53.43l-32.65-32.65V89.91l9.6-9.6,60.16,60.16c3.72,3.72,9.74,3.72,13.46,0,3.72-3.72,3.72-9.74,0-13.46l-60.16-60.16,9.59-9.59h202.35l32.65,32.65v53.43H191.08c-5.26,0-9.52,4.26-9.52,9.52s4.26,9.52,9.52,9.52h133.82v133.82c0,5.26,4.26,9.52,9.52,9.52s9.52-4.26,9.52-9.52V162.37h53.43l32.65,32.65v202.35l-9.6,9.59Zm19.11-278.87l24.76,24.76-24.76,24.76-24.76-24.76,24.76-24.76Zm-32.57,5.65l-9.59,9.59h-53.43v-53.43l9.6-9.6,53.43,53.43ZM334.42,22.98l24.76,24.76c-8.46,8.46-15.44,15.44-24.76,24.76l-24.76-24.76,24.76-24.76Zm-286.68,0l24.76,24.76-24.76,24.76-24.76-24.76,24.76-24.76Zm0,336.21l-24.76-24.76,24.76-24.76,24.76,24.76-24.76,24.76Zm32.57-5.65l9.59-9.59h53.43v53.43l-9.6,9.59-53.43-53.43Zm72.54,110.77l-24.76-24.77,24.76-24.76,24.76,24.76-24.76,24.77Zm286.68,0l-24.76-24.77,24.76-24.76,24.76,24.76-24.76,24.77Z"/>
      <g>
        <path class="cls-2" d="M204.57,152.86l-51.68,51.68-51.68-51.68,51.68-51.68,51.68,51.68Z"/>
        <path class="cls-2" d="M386.17,334.42l-51.68,51.68-51.68-51.68,51.68-51.68,51.68,51.68Z"/>
      </g>
    </g>
  </g>
</svg>