<?xml version="1.0" encoding="UTF-8"?>
<svg id="Layer_2" data-name="Layer 2" xmlns="http://www.w3.org/2000/svg" viewBox="0 0 461.48 487.28">
  <defs>
    <style>
      .cls-1 {
        fill: #08314d;
      }

      .cls-2 {
        fill: #1fdabb;
      }
    </style>
  </defs>
  <g id="Layer_1-2" data-name="Layer 1">
    <g>
      <g>
        <path class="cls-2" d="M184.39,229.27c-63.21,0-114.63-51.42-114.63-114.63S121.18,0,184.39,0s114.63,51.42,114.63,114.63-51.42,114.63-114.63,114.63Z"/>
        <path class="cls-2" d="M279.91,477.76h57.42l10.15-90.41-10.15-100.71h-57.42v38.22l-8.25,71.68,8.25,81.21Z"/>
        <path class="cls-2" d="M127,477.76h57.42l9.91-65.19-9.91-49.48h-57.42v38.22l-10.47,40.76,10.47,35.69Z"/>
      </g>
      <g>
        <path class="cls-1" d="M153.43,163.6c8.12,5.31,14.02,7.35,21.44,8.03v9.89c0,5.26,4.26,9.52,9.52,9.52s9.52-4.26,9.52-9.52v-11.05c14.16-4.12,23.22-16.45,25.26-28.61,2.71-16.12-6.04-30.68-21.76-36.24-8.89-3.14-18.73-6.94-24.26-11.28-4.18-3.28-2.42-14.58,5.54-16.98,7.01-2.11,14.15-.3,18.59,3.17-.12-.09-.17-.14-.17-.14,10.05,8.66,22.47-5.76,12.43-14.42-.1-.08-.64-.52-.54-.44-1.54-1.21-7.01-5.14-15.08-7.06v-10.74c0-5.26-4.26-9.52-9.52-9.52s-9.52,4.26-9.52,9.52v10.94c-24.51,6.31-30.03,37.66-13.48,50.65,6.21,4.87,14.8,9,29.66,14.25,10.12,3.58,9.9,11.78,9.34,15.14-1.14,6.78-6.84,14.11-16.67,14.17-9.57,.07-12.52-.41-19.87-5.22-4.4-2.88-10.3-1.64-13.17,2.75-2.88,4.4-1.64,10.3,2.75,13.17h0Z"/>
        <path class="cls-1" d="M451.96,468.24h-19.15V248.42c0-5.26-4.26-9.52-9.52-9.52h-76.45c-5.26,0-9.52,4.26-9.52,9.52v219.83h-57.41v-143.38c0-5.26-4.26-9.52-9.52-9.52h-76.45c-5.26,0-9.52,4.26-9.52,9.52v143.38h-57.41v-66.93c0-5.26-4.26-9.52-9.52-9.52H50.57V9.52c0-5.26-4.26-9.52-9.52-9.52s-9.52,4.26-9.52,9.52v23.93H9.52c-5.26,0-9.52,4.26-9.52,9.52s4.26,9.52,9.52,9.52H31.54v31.14H9.52c-5.26,0-9.52,4.26-9.52,9.52s4.26,9.52,9.52,9.52H31.54v31.13H9.52c-5.26,0-9.52,4.26-9.52,9.52s4.26,9.52,9.52,9.52H31.54v31.14H9.52c-5.26,0-9.52,4.26-9.52,9.52s4.26,9.52,9.52,9.52H31.54v31.13H9.52c-5.26,0-9.52,4.26-9.52,9.52s4.26,9.52,9.52,9.52H31.54v31.13H9.52c-5.26,0-9.52,4.26-9.52,9.52s4.26,9.52,9.52,9.52H31.54v31.14H9.52c-5.26,0-9.52,4.26-9.52,9.52s4.26,9.52,9.52,9.52H31.54v31.13H9.52c-5.26,0-9.52,4.26-9.52,9.52s4.26,9.52,9.52,9.52H31.54v31.14H9.52c-5.26,0-9.52,4.26-9.52,9.52s4.26,9.52,9.52,9.52H31.54v23.93c0,5.26,4.26,9.52,9.52,9.52H451.96c5.26,0,9.52-4.26,9.52-9.52s-4.26-9.52-9.52-9.52h0Zm-401.39,0v-57.41h57.41v57.41H50.57Zm152.9,0v-133.86h57.41v133.86h-57.41Zm152.9,0v-210.31h57.41v210.31h-57.41Z"/>
        <path class="cls-1" d="M83.58,342.91L407,178.84l-5.17,15.62c-1.65,4.99,1.06,10.37,6.05,12.02,5,1.65,10.38-1.07,12.02-6.05,2.71-8.21,12.16-36.73,12.44-37.6,1.78-5.47-1.72-11.33-7.44-12.32l-41.09-7.05c-5.18-.88-10.1,2.59-10.99,7.77-.89,5.18,2.59,10.1,7.77,10.99l12.75,2.19L74.97,325.93c-4.69,2.38-6.56,8.11-4.18,12.79,2.38,4.69,8.11,6.56,12.79,4.18h0Z"/>
      </g>
    </g>
  </g>
</svg>