<?xml version="1.0" encoding="UTF-8"?>
<svg id="Layer_2" data-name="Layer 2" xmlns="http://www.w3.org/2000/svg" viewBox="0 0 424.56 487.28">
  <defs>
    <style>
      .cls-1 {
        fill: #08314d;
      }

      .cls-2 {
        fill: #1fdabb;
        fill-rule: evenodd;
      }
    </style>
  </defs>
  <g id="Layer_1-2" data-name="Layer 1">
    <g>
      <path class="cls-2" d="M329.38,126.58l-74.28-42.88-42.83,24.73-42.83-24.73-74.28,42.88v49.45l-42.83,24.73v85.77l42.83,24.73v49.45l74.28,42.88,42.83-24.73,42.83,24.73,74.28-42.88v-49.45l42.83-24.73v-85.77l-42.83-24.73v-49.45Zm-159.93,92.34l42.83-24.73,42.83,24.73v49.45l-42.83,24.73-42.83-24.73v-49.45Z"/>
      <g>
        <path class="cls-1" d="M259.86,395.35l-42.83-24.73c-2.94-1.7-6.57-1.7-9.52,0l-42.83,24.73c-2.94,1.7-4.76,4.84-4.76,8.24v49.45c0,3.4,1.81,6.54,4.76,8.24l42.71,24.66c2.84,1.77,6.9,1.77,9.74,0l42.71-24.66c2.94-1.7,4.76-4.84,4.76-8.24v-49.45c0-3.4-1.81-6.54-4.76-8.24Zm-47.59-5.5l23.79,13.74-23.79,13.74-23.79-13.74,23.79-13.74Zm-33.31,30.22l23.79,13.74v27.47l-23.79-13.74v-27.47Zm42.83,41.21v-27.47l23.79-13.74v27.47l-23.79,13.74Z"/>
        <path class="cls-1" d="M4.76,184.28l42.71,24.66c1.42,.86,3.14,1.34,4.87,1.34,1.73,0,3.45-.48,4.87-1.34l42.71-24.66c2.94-1.7,4.76-4.84,4.76-8.24v-49.45c0-3.4-1.81-6.54-4.76-8.24l-42.83-24.73c-2.94-1.7-6.57-1.7-9.52,0L4.76,118.34C1.81,120.04,0,123.18,0,126.58v49.45C0,179.43,1.81,182.58,4.76,184.28h0Zm14.28-41.21l23.79,13.74v27.47l-23.79-13.74v-27.47Zm42.83,41.21v-27.47l23.79-13.74v27.47l-23.79,13.74Zm-9.52-71.43l23.79,13.74-23.79,13.74-23.79-13.74,23.79-13.74Z"/>
        <path class="cls-1" d="M419.8,118.34l-42.83-24.73c-2.94-1.7-6.57-1.7-9.52,0l-42.83,24.73c-2.94,1.7-4.76,4.84-4.76,8.24v49.45c0,3.4,1.81,6.54,4.76,8.24l42.71,24.66c2.84,1.77,6.9,1.77,9.74,0l42.71-24.66c2.94-1.7,4.76-4.84,4.76-8.24v-49.45c0-3.4-1.81-6.54-4.76-8.24h0Zm-47.59-5.5l23.79,13.74-23.79,13.74-23.79-13.74,23.79-13.74Zm-33.31,30.22l23.79,13.74v27.47l-23.79-13.74v-27.47Zm42.83,41.21v-27.47l23.79-13.74v27.47l-23.79,13.74Z"/>
        <path class="cls-1" d="M419.8,303.01l-42.83-24.73c-2.94-1.7-6.57-1.7-9.52,0l-38.07,21.98-64.76-37.39v-43.96c0-3.4-1.81-6.54-4.76-8.24l-38.07-21.98V113.92l38.07-21.98c2.94-1.7,4.76-4.84,4.76-8.24V34.24c0-3.4-1.81-6.54-4.76-8.24L217.04,1.28c-2.94-1.7-6.57-1.7-9.52,0l-42.83,24.73c-2.94,1.7-4.76,4.84-4.76,8.24v49.45c0,3.4,1.81,6.54,4.76,8.24l38.07,21.98v74.78l-38.07,21.98c-2.94,1.7-4.76,4.84-4.76,8.24v43.96l-64.76,37.39-38.07-21.98c-2.94-1.7-6.57-1.7-9.52,0l-42.83,24.73c-2.94,1.7-4.76,4.84-4.76,8.24v49.45c0,3.4,1.81,6.54,4.76,8.24l42.71,24.66c2.84,1.77,6.9,1.77,9.74,0l42.71-24.66c2.94-1.7,4.76-4.84,4.76-8.24v-43.96l64.76-37.39,37.96,21.91c1.42,.85,3.14,1.35,4.87,1.34,1.73,0,3.45-.49,4.87-1.34l37.96-21.91,64.76,37.39v43.96c0,3.4,1.81,6.54,4.76,8.24l42.71,24.66c2.84,1.77,6.9,1.77,9.74,0l42.71-24.66c2.94-1.7,4.76-4.84,4.76-8.24v-49.45c0-3.4-1.81-6.54-4.76-8.24h0Zm-47.59-5.5l23.79,13.74-23.79,13.74-23.79-13.74,23.79-13.74Zm-193.24-62.11l23.79,13.74v27.47l-23.79-13.74v-27.47Zm33.31-30.22l23.79,13.74-23.79,13.74-23.79-13.74,23.79-13.74Zm9.52,43.96l23.79-13.74v27.47l-23.79,13.74v-27.47Zm0-157.2v-27.47l23.79-13.74v27.47l-23.79,13.74Zm-9.52-71.43l23.79,13.74-23.79,13.74-23.79-13.74,23.79-13.74Zm-33.31,57.7v-27.47l23.79,13.74v27.47l-23.79-13.74ZM52.35,297.52l23.79,13.74-23.79,13.74-23.79-13.74,23.79-13.74Zm-33.31,30.22l23.79,13.74v27.47l-23.79-13.74v-27.47Zm66.62,27.47l-23.79,13.74v-27.47l23.79-13.74v27.47Zm253.24-27.47l23.79,13.74v27.47l-23.79-13.74v-27.47Zm42.83,41.21v-27.47l23.79-13.74v27.47l-23.79,13.74Z"/>
      </g>
    </g>
  </g>
</svg>