<svg width="512" height="513" viewBox="0 0 512 513" fill="none" xmlns="http://www.w3.org/2000/svg">
<g clip-path="url(#clip0_258_1068)">
<path d="M256 366.696C316.999 366.696 366.449 317.246 366.449 256.247C366.449 195.248 316.999 145.798 256 145.798C195.001 145.798 145.551 195.248 145.551 256.247C145.551 317.246 195.001 366.696 256 366.696Z" fill="#27DBBB"/>
<path d="M391.51 0.24707V40.4101H471.837V120.737H512V0.24707H391.51Z" fill="#27DBBB"/>
<path d="M120.49 0.24707V40.4101H40.163V120.737H0V0.24707H120.49Z" fill="#27DBBB"/>
<path d="M391.51 512.247V472.084H471.837V391.757H512V512.247H391.51Z" fill="#27DBBB"/>
<path d="M120.49 512.247V472.084H40.163V391.757H0V512.247H120.49Z" fill="#27DBBB"/>
<path d="M269.675 246.789C260.333 243.487 249.999 239.497 244.183 234.935C239.787 231.487 241.641 219.617 250.007 217.097C260.744 213.86 268.628 219.716 269.502 220.402C273.74 223.919 280.02 223.34 283.553 219.109C287.091 214.874 286.52 208.566 282.288 205.024C278.561 201.968 272.481 198.79 266 197.249V185.963C266 180.44 261.522 175.963 256 175.963C250.477 175.963 246 180.44 246 185.963V197.459C220.236 204.081 214.459 237.042 231.84 250.675C238.363 255.79 247.394 260.128 263.009 265.649C273.646 269.409 273.413 278.025 272.82 281.555C271.623 288.68 265.629 296.38 255.3 296.448C245.258 296.524 242.141 296.017 234.422 290.969C229.801 287.944 223.604 289.241 220.579 293.863C217.556 298.485 218.85 304.682 223.473 307.706C232.005 313.288 238.208 315.425 246 316.138V326.536C246 332.058 250.477 336.536 256 336.536C261.522 336.536 266 332.058 266 326.536V314.928C280.874 310.595 290.395 297.647 292.543 284.871C295.39 267.933 286.2 252.631 269.675 246.789V246.789Z" fill="white"/>
<path d="M461.837 246.247H446.473C441.426 149.018 363.229 70.8202 266 65.7732V50.4102C266 44.8872 261.522 40.4102 256 40.4102C250.477 40.4102 246 44.8872 246 50.4102V65.7732C148.771 70.8202 70.574 149.018 65.527 246.247H50.163C44.64 246.247 40.163 250.724 40.163 256.247C40.163 261.769 44.64 266.247 50.163 266.247H65.527C70.574 363.476 148.771 441.673 246 446.72V462.084C246 467.606 250.477 472.084 256 472.084C261.522 472.084 266 467.606 266 462.084V446.72C363.229 441.673 441.426 363.476 446.473 266.247H461.837C467.359 266.247 471.837 261.769 471.837 256.247C471.837 250.724 467.359 246.247 461.837 246.247ZM266 426.681V411.88C266 406.358 261.522 401.88 256 401.88C250.477 401.88 246 406.358 246 411.88V426.681C159.804 421.677 90.57 352.443 85.566 266.247H100.367C105.889 266.247 110.367 261.769 110.367 256.247C110.367 250.724 105.889 246.247 100.367 246.247H85.566C90.57 160.051 159.804 90.8172 246 85.8132V100.615C246 106.138 250.477 110.615 256 110.615C261.522 110.615 266 106.138 266 100.615V85.8132C352.196 90.8172 421.43 160.051 426.434 246.247H411.633C406.111 246.247 401.633 250.724 401.633 256.247C401.633 261.769 406.111 266.247 411.633 266.247H426.434C421.43 352.443 352.196 421.677 266 426.681Z" fill="white"/>
</g>
<defs>
<clipPath id="clip0_258_1068">
<rect width="512" height="512" fill="white" transform="translate(0 0.24707)"/>
</clipPath>
</defs>
</svg>
