<?xml version="1.0" encoding="UTF-8"?>
<svg id="Layer_2" data-name="Layer 2" xmlns="http://www.w3.org/2000/svg" viewBox="0 0 487.28 477.74">
  <defs>
    <style>
      .cls-1 {
        fill: #27dbbb;
        fill-rule: evenodd;
      }

      .cls-2 {
        fill: #0a2d49;
      }
    </style>
  </defs>
  <g id="Layer_1-2" data-name="Layer 1">
    <g>
      <path class="cls-2" d="M208.38,229.45c-3.98-3.43-9.99-2.98-13.42,1l-12.85,14.91v-64.53c0-5.26-4.26-9.52-9.52-9.52s-9.52,4.26-9.52,9.52v64.53l-12.85-14.91c-3.43-3.98-9.44-4.43-13.42-1-3.98,3.43-4.43,9.44-1,13.42l29.57,34.33c1.81,2.1,4.44,3.31,7.21,3.31s5.4-1.21,7.21-3.31l29.57-34.33c3.43-3.98,2.98-9.99-1-13.42h0Z"/>
      <path class="cls-2" d="M366.47,58.98c-52.54-13.47-92.93-19.38-123.48-18.06-5.25,.23-9.32,4.67-9.1,9.92,.23,5.25,4.67,9.33,9.92,9.1,28.64-1.24,67.22,4.48,117.93,17.48,.79,.2,1.59,.3,2.37,.3,4.24,0,8.11-2.86,9.21-7.16,1.31-5.09-1.76-10.28-6.85-11.58h0Z"/>
      <path class="cls-1" d="M172.6,190.34c30.76,0,58.1-14.59,75.5-37.22-.71-.23-1.44-.45-2.17-.67-14.46-4.31-22.34-18.39-17.5-31.28,4.84-12.89,20.62-19.91,35.08-15.6l3.57,1.06c.45-3.76,.68-7.59,.68-11.47C267.77,42.61,225.16,0,172.6,0S77.43,42.61,77.43,95.17s42.61,95.17,95.17,95.17h0Z"/>
      <path class="cls-2" d="M382.58,348.31c-11.68-2.63-24.69-.55-36.68,5.85-7.57,3.91-15.21,8.23-22.59,12.41-17.57,9.95-35.57,20.14-54.49,25.74,1.85-7.33,1.02-15-2.43-21.95-4.33-8.72-12.47-15.4-22.34-18.34-25.08-7.48-40.34-21.24-52.59-32.3-10.83-9.77-20.18-18.21-32.42-18.21h-26.52v-.37c0-5.26-4.26-9.52-9.52-9.52H9.52c-5.26,0-9.52,4.26-9.52,9.52v144.21c0,5.26,4.26,9.52,9.52,9.52H120.9c35.16,16.23,65.42,22.87,93.13,22.87,52.72,0,96.21-24.05,146.59-51.92,9.15-5.06,18.62-10.3,28.43-15.55,22.63-12.12,25.62-30.86,18.56-44.05-4.75-8.88-13.87-15.41-25.02-17.92h0ZM19.03,310.65h53.7v125.18H19.03v-125.18Zm94.45,125.18h-21.72v-125.18h21.72v125.18Zm266.57-42.34c-9.92,5.32-19.45,10.58-28.65,15.67-37.98,21.01-70.78,39.15-105.63,46.29-35.85,7.35-71.98,2.2-113.26-16.22v-118.7h26.52c4.93,0,11.76,6.17,19.67,13.3,12.96,11.69,30.71,27.71,59.91,36.41,4.83,1.44,8.74,4.56,10.73,8.57,1.15,2.31,2.18,5.97,.58,10.24-3.07,8.2-13.82,12.7-23.45,9.82l-44.34-13.22c-5.04-1.5-10.34,1.36-11.84,6.4-1.5,5.04,1.36,10.34,6.4,11.84l44.34,13.22c3.76,1.12,7.59,1.66,11.37,1.65,5.64,0,11.15-1.19,16.14-3.38,31.29-2.36,58.15-17.57,84.14-32.28,7.58-4.29,14.73-8.34,21.99-12.09,.04-.02,.09-.05,.13-.07,10.99-5.89,29.62-7.69,36,4.24,1.57,2.92,3.65,10.56-10.77,18.28h0Z"/>
      <path class="cls-2" d="M477.76,58.72h-113.49c-5.26,0-9.52,4.26-9.52,9.52v124.81h-26.52c-4.93,0-11.76-6.17-19.67-13.3-12.96-11.69-30.7-27.71-59.91-36.41-4.83-1.44-8.74-4.56-10.73-8.57-1.15-2.31-2.18-5.97-.58-10.24,3.07-8.2,13.82-12.69,23.45-9.82l44.34,13.22c5.04,1.5,10.34-1.36,11.84-6.4,1.5-5.04-1.36-10.34-6.4-11.84l-44.34-13.22c-19.19-5.72-40.15,3.87-46.71,21.38-3.12,8.33-2.64,17.35,1.35,25.4,4.33,8.72,12.47,15.4,22.34,18.34,25.08,7.48,40.33,21.24,52.59,32.3,10.83,9.77,20.18,18.21,32.42,18.21h26.52v.37c0,5.26,4.26,9.52,9.52,9.52h113.49c5.26,0,9.52-4.26,9.52-9.52V68.24c0-5.26-4.26-9.52-9.52-9.52h0Zm-103.97,19.03h21.72v125.18h-21.72V77.76Zm94.45,125.18h-53.7V77.76h53.7v125.18Z"/>
      <path class="cls-2" d="M163.9,101.87l10.12,4.19c4.68,1.94,6.91,7.32,4.97,12-.93,2.25-2.7,4-4.98,4.95-2.28,.94-4.77,.95-7.02,.02l-5.06-2.1c-4.85-2.01-10.42,.29-12.44,5.15-2.01,4.86,.29,10.42,5.15,12.44l5.06,2.1c1.11,.46,2.24,.85,3.38,1.16v10.44c0,5.26,4.26,9.52,9.52,9.52s9.52-4.26,9.52-9.52v-11.98c6.58-2.97,11.7-8.23,14.46-14.9,5.95-14.37-.9-30.91-15.27-36.87l-10.12-4.19c-4.68-1.94-6.91-7.32-4.97-12,.93-2.25,2.7-4,4.98-4.95,2.28-.95,4.77-.95,7.02-.02l5.06,2.1c4.86,2.01,10.42-.29,12.43-5.15,2.01-4.86-.3-10.42-5.15-12.43l-5.06-2.1c-1.11-.46-2.24-.85-3.38-1.16v-10.44c0-5.26-4.26-9.52-9.52-9.52s-9.52,4.26-9.52,9.52v11.98c-6.58,2.97-11.69,8.23-14.46,14.9-5.95,14.37,.9,30.91,15.27,36.87h0Z"/>
    </g>
  </g>
</svg>