<svg width="512" height="513" viewBox="0 0 512 513" fill="none" xmlns="http://www.w3.org/2000/svg">
<g clip-path="url(#clip0_258_1085)">
<path d="M10 175.923V306.454C59.244 306.489 56.932 306.374 60.204 306.541V175.841C57.159 175.988 59.834 175.893 10 175.923Z" fill="#27DBBB"/>
<path d="M451.795 216.004V346.703C455.074 346.537 452.503 346.652 502 346.616V216.086C452.943 216.057 454.855 216.151 451.795 216.004V216.004Z" fill="#27DBBB"/>
<path d="M256 115.637C261.522 115.637 266 111.159 266 105.637V45.3916C266 39.8696 261.522 35.3916 256 35.3916C250.477 35.3916 246 39.8696 246 45.3916V105.637C246 111.159 250.477 115.637 256 115.637Z" fill="white"/>
<path d="M296.171 115.638C300.651 115.638 304.729 112.605 305.864 108.062L320.926 47.8171C322.266 42.4591 319.008 37.0291 313.651 35.6901C308.297 34.3461 302.864 37.6081 301.524 42.9651L286.463 103.21C284.887 109.509 289.649 115.638 296.171 115.638V115.638Z" fill="white"/>
<path d="M206.136 108.063C207.483 113.454 212.942 116.672 218.263 115.338C223.62 113.999 226.878 108.569 225.538 103.211L210.476 42.9655C209.136 37.6075 203.709 34.3425 198.349 35.6905C192.992 37.0295 189.734 42.4595 191.074 47.8175L206.136 108.063Z" fill="white"/>
<path d="M256 396.861C250.477 396.861 246 401.339 246 406.861V467.106C246 472.628 250.477 477.106 256 477.106C261.522 477.106 266 472.628 266 467.106V406.861C266 401.338 261.522 396.861 256 396.861Z" fill="white"/>
<path d="M305.864 404.436C304.524 399.078 299.096 395.818 293.737 397.161C288.38 398.5 285.122 403.93 286.462 409.288L301.523 469.533C302.87 474.924 308.329 478.142 313.65 476.808C319.007 475.469 322.265 470.039 320.925 464.681L305.864 404.436Z" fill="white"/>
<path d="M218.263 397.16C212.908 395.822 207.476 399.077 206.136 404.435L191.074 464.68C189.499 470.978 194.261 477.108 200.783 477.108C205.263 477.108 209.341 474.075 210.476 469.532L225.538 409.287C226.878 403.929 223.62 398.499 218.263 397.16V397.16Z" fill="white"/>
<path d="M502 206.086H455.094C439.451 206.086 424.745 199.994 413.684 188.933C398.844 174.095 379.116 165.923 358.131 165.923H336.326C317.654 165.923 301.92 178.744 297.466 196.045H276.082C271.398 196.045 266.961 197.122 263.005 199.04C264.923 195.083 266 190.647 266 185.963C266 169.376 252.505 155.882 235.918 155.882H214.534C210.079 138.581 194.346 125.759 175.674 125.759H153.869C132.885 125.759 113.155 133.931 98.316 148.77C87.254 159.831 72.548 165.923 56.906 165.923H10C4.477 165.923 0 170.4 0 175.923V306.453C0 311.975 4.477 316.453 10 316.453H57.164C67.024 316.453 76.574 319.345 84.78 324.814C96.281 332.482 109.667 336.535 123.489 336.535H235.918C240.602 336.535 245.038 335.458 248.995 333.54C247.077 337.496 246 341.932 246 346.616C246 363.203 259.495 376.698 276.082 376.698H388.511C402.333 376.698 415.719 372.645 427.22 364.977C435.426 359.507 444.976 356.616 454.836 356.616H502C507.522 356.616 512 352.138 512 346.616V216.086C512 210.564 507.522 206.086 502 206.086V206.086ZM336.367 306.453C336.367 312.013 331.845 316.535 326.286 316.535H276.082C270.522 316.535 266 312.013 266 306.453C266 300.893 270.522 296.371 276.082 296.371H326.286C331.845 296.371 336.367 300.894 336.367 306.453ZM175.633 266.29C175.633 260.73 180.155 256.208 185.714 256.208H235.918C241.477 256.208 246 260.73 246 266.29C246 271.849 241.477 276.371 235.918 276.371H185.714C180.155 276.371 175.633 271.849 175.633 266.29ZM266 266.29C266 260.73 270.522 256.208 276.082 256.208H296.204V266.29C296.204 269.825 296.822 273.217 297.947 276.371H276.082C270.522 276.371 266 271.849 266 266.29ZM246 226.127C246 231.686 241.477 236.208 235.918 236.208H214.053C215.178 233.054 215.796 229.662 215.796 226.127V216.045H235.918C241.477 216.045 246 220.568 246 226.127ZM276.082 216.045H296.204V236.208H276.082C270.522 236.208 266 231.685 266 226.127C266 220.568 270.522 216.045 276.082 216.045V216.045ZM246 185.963C246 191.523 241.477 196.045 235.918 196.045H215.796V175.882H235.918C241.477 175.882 246 180.405 246 185.963V185.963ZM95.874 308.174C84.371 300.506 70.985 296.453 57.164 296.453H20V185.923H56.906C77.89 185.923 97.62 177.751 112.459 162.912C123.52 151.85 138.227 145.759 153.869 145.759H175.674C186.77 145.759 195.796 154.786 195.796 165.882V226.127C195.796 231.686 191.274 236.208 185.714 236.208C180.155 236.208 175.633 231.685 175.633 226.127V175.923C175.633 171.745 173.035 168.008 169.12 166.551C165.207 165.094 160.796 166.226 158.064 169.387C145.587 183.834 127.669 191.261 110.407 191.025C104.911 191.025 100.44 195.464 100.408 200.967C100.376 206.489 104.828 210.992 110.35 211.025C125.871 211.12 141.704 206.813 155.632 197.779V226.128C155.632 233.839 158.551 240.88 163.34 246.209C153.076 257.634 153.047 274.915 163.34 286.372C155.771 294.796 153.761 306.406 157.376 316.536H123.489C113.629 316.535 104.079 313.644 95.874 308.174V308.174ZM235.918 316.535C189.647 316.535 201.113 316.535 185.714 316.535C180.155 316.535 175.633 312.013 175.633 306.453C175.633 300.893 180.155 296.371 185.714 296.371H235.918C241.477 296.371 246 300.893 246 306.453C246 312.013 241.477 316.535 235.918 316.535ZM276.082 356.699C270.522 356.699 266 352.176 266 346.617C266 341.058 270.522 336.536 276.082 336.536H326.286C331.845 336.536 336.367 341.058 336.367 346.617C336.367 352.176 331.845 356.699 326.286 356.699C317.415 356.699 289.582 356.699 276.082 356.699ZM492 336.617H454.836C441.015 336.617 427.629 340.67 416.126 348.338C407.921 353.808 398.371 356.699 388.511 356.699H354.624C358.238 346.571 356.229 334.961 348.66 326.536C358.924 315.111 358.953 297.829 348.66 286.372C353.448 281.043 356.368 274.002 356.368 266.291V237.943C369.392 246.39 385.046 251.29 401.65 251.188C407.172 251.156 411.625 246.653 411.592 241.13C411.56 235.627 407.089 231.188 401.593 231.188C382.448 231.188 365.532 222.978 353.936 209.55C351.205 206.388 346.796 205.255 342.88 206.714C338.965 208.171 336.367 211.908 336.367 216.086V266.29C336.367 271.849 331.845 276.371 326.286 276.371C320.726 276.371 316.204 271.849 316.204 266.29V206.045C316.204 194.949 325.23 185.923 336.326 185.923H358.131C373.774 185.923 388.48 192.015 399.541 203.075C414.38 217.914 434.109 226.086 455.094 226.086H492V336.617Z" fill="white"/>
</g>
<defs>
<clipPath id="clip0_258_1085">
<rect width="512" height="512" fill="white" transform="translate(0 0.24707)"/>
</clipPath>
</defs>
</svg>
