<svg width="532" height="533" viewBox="0 0 532 533" fill="none" xmlns="http://www.w3.org/2000/svg">
<path d="M375.261 266.071C375.261 326.414 326.343 375.332 266 375.332C205.656 375.332 156.739 326.414 156.739 266.071C156.739 205.728 205.656 156.81 266 156.81C326.343 156.81 375.261 205.728 375.261 266.071Z" fill="#27DBBB" stroke="#0A2D49" stroke-width="20"/>
<path d="M286.694 220.758C286.59 220.674 286.627 220.701 286.468 220.576C284.708 219.193 272.811 210.529 256.76 215.364C240.09 220.386 235.95 243.195 247.279 252.08C253.784 257.182 263.571 261.376 276.761 266.039C306.283 276.474 295.37 318.109 265.34 318.308C253.62 318.386 248.141 317.642 237.847 310.907" stroke="#0A2D49" stroke-width="20" stroke-miterlimit="10" stroke-linecap="round" stroke-linejoin="round"/>
<path d="M265.999 192.93V213.828" stroke="#0A2D49" stroke-width="20" stroke-miterlimit="10" stroke-linecap="round" stroke-linejoin="round"/>
<path d="M265.999 318.309V339.207" stroke="#0A2D49" stroke-width="20" stroke-miterlimit="10" stroke-linecap="round" stroke-linejoin="round"/>
<path d="M265.999 522.068C407.383 522.068 521.998 407.453 521.998 266.069C521.998 124.685 407.383 10.0703 265.999 10.0703C124.615 10.0703 10 124.685 10 266.069C10 407.453 124.615 522.068 265.999 522.068Z" stroke="#0A2D49" stroke-width="20" stroke-miterlimit="10" stroke-linecap="round" stroke-linejoin="round"/>
<path d="M265.999 448.921C366.987 448.921 448.855 367.054 448.855 266.065C448.855 165.077 366.987 83.2095 265.999 83.2095C165.01 83.2095 83.1427 165.077 83.1427 266.065C83.1427 367.054 165.01 448.921 265.999 448.921Z" stroke="#0A2D49" stroke-width="20" stroke-miterlimit="10" stroke-linecap="round" stroke-linejoin="round"/>
<path d="M265.999 83.2131V10.0703" stroke="#0A2D49" stroke-width="20" stroke-miterlimit="10" stroke-linecap="round" stroke-linejoin="round"/>
<path d="M136.7 136.77L84.9805 85.0508" stroke="#0A2D49" stroke-width="20" stroke-miterlimit="10" stroke-linecap="round" stroke-linejoin="round"/>
<path d="M83.1428 266.069H10" stroke="#0A2D49" stroke-width="20" stroke-miterlimit="10" stroke-linecap="round" stroke-linejoin="round"/>
<path d="M136.7 395.371L84.9805 447.09" stroke="#0A2D49" stroke-width="20" stroke-miterlimit="10" stroke-linecap="round" stroke-linejoin="round"/>
<path d="M265.999 448.929V522.072" stroke="#0A2D49" stroke-width="20" stroke-miterlimit="10" stroke-linecap="round" stroke-linejoin="round"/>
<path d="M395.297 395.371L447.016 447.09" stroke="#0A2D49" stroke-width="20" stroke-miterlimit="10" stroke-linecap="round" stroke-linejoin="round"/>
<path d="M448.855 266.069H521.998" stroke="#0A2D49" stroke-width="20" stroke-miterlimit="10" stroke-linecap="round" stroke-linejoin="round"/>
<path d="M395.297 136.77L447.016 85.0508" stroke="#0A2D49" stroke-width="20" stroke-miterlimit="10" stroke-linecap="round" stroke-linejoin="round"/>
</svg>
