<?xml version="1.0" encoding="UTF-8"?>
<svg id="Layer_2" data-name="Layer 2" xmlns="http://www.w3.org/2000/svg" viewBox="0 0 487.28 446.42">
  <defs>
    <style>
      .cls-1 {
        fill: #08314d;
      }

      .cls-2 {
        fill: #1fdabb;
      }
    </style>
  </defs>
  <g id="Layer_1-2" data-name="Layer 1">
    <g>
      <path class="cls-1" d="M431.93,128.03C436.44,59.29,381.84,0,312.5,0c-49.84,0-92.13,30.46-110.3,73.7-52.78-39.64-129.96-11.65-144.81,53.72C23.86,136.9,0,170.37,0,209.15c0,46.52,34.28,84.37,76.41,84.37h.04c5.26,0,9.52-4.26,9.52-9.52s-4.26-9.52-9.52-9.52h-.04c-31.64,0-57.37-29.31-57.37-65.34,0-32.3,20.29-59.43,48.24-64.5,3.99-.73,7.09-3.9,7.71-7.92,5.46-35.5,36.52-62.27,72.25-62.27,19.9,0,38.52,7.93,52.43,22.32,5.1,5.27,14.02,3.03,16.01-4.04,12.18-43.4,52-73.71,96.83-73.71,60.09,0,107.92,53.27,99.72,114.98-.67,5.04,2.73,9.71,7.73,10.62,27.99,5.09,48.3,32.22,48.3,64.52,0,36.03-25.74,65.34-57.37,65.34h-.04c-5.26,0-9.52,4.26-9.52,9.52s4.26,9.52,9.52,9.52h.04c42.13,0,76.41-37.85,76.41-84.37,0-38.54-23.34-70.99-55.34-81.12h0Z"/>
      <path class="cls-2" d="M114.63,446.42c-21.06,0-38.19-17.13-38.19-38.19V198c0-21.05,17.13-38.18,38.19-38.18H372.64c21.06,0,38.19,17.13,38.19,38.18v210.23c0,21.06-17.13,38.19-38.19,38.19H114.63Z"/>
      <g>
        <path class="cls-1" d="M343.98,312.71H143.3c-15.79,0-28.63,12.84-28.63,28.63v38.22c0,15.79,12.84,28.63,28.63,28.63h200.68c15.79,0,28.63-12.84,28.63-28.63v-38.22c0-15.79-12.84-28.63-28.63-28.63Zm9.6,66.85c0,5.29-4.3,9.59-9.6,9.59H143.3c-5.29,0-9.59-4.3-9.59-9.59v-38.22c0-5.29,4.3-9.6,9.59-9.6h200.68c5.29,0,9.6,4.3,9.6,9.6v38.22h0Z"/>
        <path class="cls-1" d="M248.42,350.94h-95.56c-5.26,0-9.52,4.26-9.52,9.52s4.26,9.52,9.52,9.52h95.56c5.26,0,9.52-4.26,9.52-9.52s-4.26-9.52-9.52-9.52Z"/>
        <path class="cls-1" d="M324.86,350.94c-5.28,0-9.52,4.29-9.52,9.52s4.26,9.52,9.52,9.52,9.52-4.28,9.52-9.52c0-5.18-4.2-9.52-9.52-9.52Z"/>
        <circle class="cls-1" cx="286.57" cy="360.45" r="9.52"/>
        <path class="cls-1" d="M343.98,198.04H143.3c-15.79,0-28.63,12.84-28.63,28.63v38.22c0,15.79,12.84,28.63,28.63,28.63h200.68c15.79,0,28.63-12.84,28.63-28.63v-38.22c0-15.79-12.84-28.63-28.63-28.63h0Zm9.6,66.85c0,5.29-4.3,9.6-9.6,9.6H143.3c-5.29,0-9.59-4.3-9.59-9.6v-38.22c0-5.29,4.3-9.6,9.59-9.6h200.68c5.29,0,9.6,4.3,9.6,9.6v38.22h0Z"/>
        <path class="cls-1" d="M248.42,236.26h-95.56c-5.26,0-9.52,4.26-9.52,9.52s4.26,9.52,9.52,9.52h95.56c5.26,0,9.52-4.26,9.52-9.52s-4.26-9.52-9.52-9.52Z"/>
        <circle class="cls-1" cx="324.86" cy="245.78" r="9.52"/>
        <circle class="cls-1" cx="286.64" cy="245.78" r="9.52"/>
      </g>
    </g>
  </g>
</svg>