<svg width="566" height="533" viewBox="0 0 566 533" fill="none" xmlns="http://www.w3.org/2000/svg">
<path d="M282.695 333.614V222.311" stroke="#0A2D49" stroke-width="20" stroke-miterlimit="10" stroke-linecap="round" stroke-linejoin="round"/>
<path d="M76.7825 478.308V522.832" stroke="#0A2D49" stroke-width="20" stroke-miterlimit="10" stroke-linecap="round" stroke-linejoin="round"/>
<path d="M121.303 478.308V522.832" stroke="#0A2D49" stroke-width="20" stroke-miterlimit="10" stroke-linecap="round" stroke-linejoin="round"/>
<path d="M54.5209 522.834H143.565" stroke="#0A2D49" stroke-width="20" stroke-miterlimit="10" stroke-linecap="round" stroke-linejoin="round"/>
<path d="M444.086 478.308V522.832" stroke="#0A2D49" stroke-width="20" stroke-miterlimit="10" stroke-linecap="round" stroke-linejoin="round"/>
<path d="M488.608 478.308V522.832" stroke="#0A2D49" stroke-width="20" stroke-miterlimit="10" stroke-linecap="round" stroke-linejoin="round"/>
<path d="M421.825 522.834H510.869" stroke="#0A2D49" stroke-width="20" stroke-miterlimit="10" stroke-linecap="round" stroke-linejoin="round"/>
<path d="M310.521 522.832H254.87C242.575 522.832 232.609 512.864 232.609 500.571V355.874C232.609 343.578 242.575 333.613 254.87 333.613H310.521C322.817 333.613 332.783 343.578 332.783 355.874V500.57C332.783 512.863 322.816 522.832 310.521 522.832Z" stroke="#0A2D49" stroke-width="20" stroke-miterlimit="10" stroke-linecap="round" stroke-linejoin="round"/>
<path d="M232.608 478.308H332.782" stroke="#0A2D49" stroke-width="20" stroke-miterlimit="10" stroke-linecap="round" stroke-linejoin="round"/>
<path d="M555.39 355.883V433.789H377.307V355.883C377.307 343.578 387.273 333.613 399.566 333.613H466.343H533.131C545.425 333.613 555.39 343.578 555.39 355.883Z" fill="#27DBBB"/>
<path d="M188.083 355.883V433.789H10V355.883C10 343.578 19.9656 333.613 32.259 333.613C39.6694 333.613 158.396 333.613 165.824 333.613C178.118 333.613 188.083 343.578 188.083 355.883Z" fill="#27DBBB"/>
<path d="M99.0466 333.611V311.352C99.0466 292.918 113.989 277.964 132.435 277.964H432.954C451.4 277.964 466.343 292.918 466.343 311.352V333.611" stroke="#0A2D49" stroke-width="20" stroke-miterlimit="10" stroke-linecap="round" stroke-linejoin="round"/>
<path d="M188.083 456.048C188.083 468.353 178.118 478.319 165.824 478.319H32.259C19.9656 478.319 10 468.353 10 456.048C10 443.499 10 366.63 10 355.883C10 343.578 19.9656 333.613 32.259 333.613C39.6694 333.613 158.396 333.613 165.824 333.613C178.118 333.613 188.083 343.578 188.083 355.883C188.083 366.126 188.083 442.882 188.083 456.048Z" stroke="#0A2D49" stroke-width="20" stroke-miterlimit="10" stroke-linecap="round" stroke-linejoin="round"/>
<path d="M555.39 456.048C555.39 468.353 545.425 478.319 533.131 478.319H399.566C387.273 478.319 377.307 468.353 377.307 456.048C377.307 443.499 377.307 366.63 377.307 355.883C377.307 343.578 387.273 333.613 399.566 333.613C406.992 333.613 525.711 333.613 533.131 333.613C545.425 333.613 555.39 343.578 555.39 355.883C555.39 366.126 555.39 442.882 555.39 456.048Z" stroke="#0A2D49" stroke-width="20" stroke-miterlimit="10" stroke-linecap="round" stroke-linejoin="round"/>
<path d="M343.913 200.052H397.974C423.441 200.052 444.087 176.945 444.087 148.452C444.087 122.785 427.336 101.503 405.409 97.5189C405.853 94.1578 406.109 90.7414 406.109 87.2451C406.109 45.0506 372.107 10.834 330.167 10.834C295.396 10.834 266.1 34.3534 257.096 66.4305C246.745 55.7112 232.264 49.0457 216.237 49.0457C187.764 49.0457 164.168 70.0598 159.95 97.5299C138.033 101.514 121.306 122.795 121.306 148.452C121.306 176.945 141.952 200.052 167.42 200.052H221.48" stroke="#0A2D49" stroke-width="20" stroke-miterlimit="10" stroke-linecap="round" stroke-linejoin="round"/>
<path d="M243.739 233.392C225.352 233.392 210.392 218.434 210.392 200.047C210.392 181.66 225.352 166.702 243.739 166.702H321.651C340.038 166.702 354.997 181.66 354.997 200.047C354.997 218.434 340.038 233.392 321.651 233.392H243.739Z" fill="#27DBBB"/>
</svg>
