<svg width="512" height="513" viewBox="0 0 512 513" fill="none" xmlns="http://www.w3.org/2000/svg">
<path d="M344.459 302.616C381.704 265.371 381.704 204.986 344.459 167.742C307.215 130.497 246.83 130.497 209.585 167.742C172.341 204.986 172.341 265.371 209.585 302.616C246.83 339.86 307.215 339.86 344.459 302.616Z" fill="#27DBBB"/>
<path d="M403.76 94.232L396.82 89.0072C368.736 67.8689 332.589 58.7332 297.637 63.9371L286.163 65.646V2.54712C291.727 2.37212 325.744 -4.99763 370.373 7.61495C416.839 20.7435 442.171 46.2736 447.864 50.1275L403.76 94.232Z" fill="#27DBBB"/>
<path d="M448.312 214.608C447.413 220.644 452.093 226.081 458.203 226.081H500.781C505.864 226.081 510.138 222.268 510.717 217.219C516.6 165.793 501.981 113.908 469.106 73.0595C465.395 68.4477 458.472 68.0327 454.246 72.2576L424.161 102.342C420.638 105.865 420.246 111.445 423.243 115.426C444.381 143.511 453.519 179.661 448.312 214.608V214.608ZM460.26 94.5258C483.254 127.098 494.226 166.058 491.64 206.082H469.354C471.756 172.44 462.872 138.531 444.262 110.523L460.26 94.5258Z" fill="white"/>
<path d="M483.73 452.146L471.437 409.134C470.566 406.087 468.301 403.633 465.334 402.52L406.708 380.53C441.303 349.7 464.919 306.571 470.544 257.392C471.221 251.462 466.582 246.255 460.61 246.255H418.031C413.077 246.255 408.87 249.882 408.14 254.781C398.555 319.121 342.22 367.641 277.103 367.641C159.344 367.641 100.507 224.36 183.413 141.453C203.642 121.224 229.249 108.31 257.466 104.106C262.365 103.377 265.992 99.1688 265.992 94.215V51.6374C265.992 45.6756 260.796 41.0228 254.855 41.7028C214.089 46.3656 176.892 63.21 146.669 90.5691L123.703 67.6029C119.798 63.698 113.466 63.698 109.56 67.6029C104.02 73.1437 98.7877 78.9135 93.8718 84.8863L90.183 59.0532C89.757 56.0713 88.011 53.4414 85.4281 51.8924L59.555 36.3679C63.3699 17.6696 49.0054 0.26416 30.082 0.26416C13.4955 0.26416 0.000999967 13.7587 0.000999967 30.3451C0.000999967 46.9316 13.4955 60.4251 30.082 60.4251C37.3607 60.4251 44.0425 57.8252 49.2503 53.5074L71.0576 66.5919L76.9894 108.133C23.2152 192.489 27.9171 304.871 93.5009 384.949L46.6504 402.52C43.6825 403.633 41.4186 406.087 40.5466 409.134L28.2541 452.146C12.5156 453.094 0 466.192 0 482.165C0 498.751 13.4945 512.246 30.081 512.246C46.6674 512.246 60.161 498.751 60.161 482.165C60.161 472.059 55.1471 463.109 47.4804 457.652L58.391 419.476L107.844 400.93C153.394 447.411 213.816 472.085 277.102 472.085C282.623 472.085 287.101 467.608 287.101 462.086V429.604C324.482 427.709 359.267 415.247 388.346 395.005L453.591 419.477L464.501 457.653C456.836 463.11 451.821 472.06 451.821 482.166C451.821 498.752 465.314 512.247 481.901 512.247C498.487 512.247 511.982 498.752 511.982 482.166C511.984 466.193 499.468 453.095 483.73 452.146V452.146ZM30.082 40.4258C24.5222 40.4258 20.0003 35.904 20.0003 30.3451C20.0003 24.7863 24.5222 20.2635 30.082 20.2635C35.6408 20.2635 40.1626 24.7853 40.1626 30.3451C40.1626 35.905 35.6398 40.4258 30.082 40.4258V40.4258ZM30.082 492.248C24.5222 492.248 20.0003 487.726 20.0003 482.166C20.0003 476.607 24.5222 472.085 30.082 472.085C35.6408 472.085 40.1626 476.608 40.1626 482.166C40.1626 487.725 35.6398 492.248 30.082 492.248V492.248ZM245.993 63.201V85.8403C220.127 91.1831 196.423 103.01 176.568 120.468L160.825 104.724C185.014 83.0764 214.118 68.8909 245.993 63.201ZM267.103 451.861C83.4792 443.585 -6.20579 223.581 116.791 88.9742L162.43 134.613C79.3943 229.209 141.565 379.25 267.104 387.321C267.103 395.232 267.103 444.047 267.103 451.861ZM287.102 387.312C355.389 382.819 412.468 333.294 426.402 266.254H449.041C434.758 345.827 367.541 405.038 287.103 409.581V387.312H287.102ZM481.903 492.248C476.344 492.248 471.822 487.726 471.822 482.166C471.822 476.607 476.344 472.085 481.903 472.085C487.463 472.085 491.984 476.608 491.984 482.166C491.984 487.725 487.462 492.248 481.903 492.248Z" fill="white"/>
<path d="M248.671 216.764C248.671 232.428 261.414 245.171 277.078 245.171C281.714 245.171 285.485 248.942 285.485 253.579C285.485 258.216 281.714 261.987 277.078 261.987H258.67C253.147 261.987 248.671 266.465 248.671 271.986C248.671 277.508 253.148 281.986 258.67 281.986H267.078V290.394C267.078 295.916 271.555 300.393 277.078 300.393C282.599 300.393 287.077 295.916 287.077 290.394V280.163C297.821 276.108 305.485 265.724 305.485 253.578C305.485 237.913 292.741 225.171 277.078 225.171C272.441 225.171 268.67 221.399 268.67 216.763C268.67 212.127 272.441 208.355 277.078 208.355H295.485C301.007 208.355 305.485 203.879 305.485 198.356C305.485 192.833 301.007 188.356 295.485 188.356H287.077V179.948C287.077 174.426 282.599 169.949 277.078 169.949C271.555 169.949 267.078 174.426 267.078 179.948V190.178C256.334 194.234 248.671 204.619 248.671 216.764V216.764Z" fill="white"/>
</svg>
