<svg width="491" height="533" viewBox="0 0 491 533" fill="none" xmlns="http://www.w3.org/2000/svg">
<path d="M344.327 281.866H51.8405V219.257H344.327V281.866V281.866Z" fill="#27DBBB"/>
<path d="M214.325 109.05C225.622 100.077 227.505 83.6445 218.531 72.3482C209.557 61.0518 193.125 59.1689 181.829 68.1425C170.533 77.1161 168.65 93.5481 177.623 104.844C186.597 116.141 203.029 118.024 214.325 109.05Z" fill="#27DBBB"/>
<path d="M198.082 114.722C172.114 114.722 151.061 135.773 151.061 161.743V177.416H245.102V161.743C245.103 135.775 224.051 114.722 198.082 114.722Z" fill="#27DBBB"/>
<path d="M104.042 323.704H62.2463V365.499H104.042V323.704Z" stroke="#0A2D49" stroke-width="20" stroke-miterlimit="10" stroke-linecap="round" stroke-linejoin="round"/>
<path d="M433.186 10.2349C409.336 10.2349 63.503 10.2349 41.3444 10.2349C24.0384 10.2349 10 24.2732 10 41.5793V490.89C10 508.196 24.0384 522.235 41.3444 522.235H354.82C372.126 522.235 386.164 508.196 386.164 490.89L386.165 104.327" stroke="#0A2D49" stroke-width="20" stroke-miterlimit="10" stroke-linecap="round" stroke-linejoin="round"/>
<path d="M156.288 323.704H333.92" stroke="#0A2D49" stroke-width="20" stroke-miterlimit="10" stroke-linecap="round" stroke-linejoin="round"/>
<path d="M156.288 365.5H333.92" stroke="#0A2D49" stroke-width="20" stroke-miterlimit="10" stroke-linecap="round" stroke-linejoin="round"/>
<path d="M480.205 104.275H386.164V57.2556C386.164 31.2872 407.216 10.2349 433.185 10.2349C459.153 10.2349 480.206 31.2862 480.206 57.2556V104.275H480.205Z" stroke="#0A2D49" stroke-width="20" stroke-miterlimit="10" stroke-linecap="round" stroke-linejoin="round"/>
<path d="M62.2463 469.993C62.2463 469.993 77.9196 448.05 83.1447 417.749L90.8247 456.146C92.4346 464.198 99.5047 469.993 107.715 469.993C117.229 469.993 124.941 462.281 124.941 452.767V438.646L130.33 446.729C140.019 461.263 156.332 469.993 173.8 469.993H187.635" stroke="#0A2D49" stroke-width="20" stroke-miterlimit="10" stroke-linecap="round" stroke-linejoin="round"/>
</svg>
