<svg width="512" height="513" viewBox="0 0 512 513" fill="none" xmlns="http://www.w3.org/2000/svg">
<path d="M304.267 72.8696L502 256.958L304.267 441.046" stroke="#0A2D49" stroke-width="20" stroke-miterlimit="10" stroke-linecap="round" stroke-linejoin="round"/>
<path d="M327.762 184.473L502 256.958L327.762 329.442" stroke="#0A2D49" stroke-width="20" stroke-miterlimit="10" stroke-linecap="round" stroke-linejoin="round"/>
<path d="M10 116.385H130.49" stroke="#0A2D49" stroke-width="20" stroke-miterlimit="10" stroke-linecap="round" stroke-linejoin="round"/>
<path d="M100.367 86.2627L130.49 116.384L100.367 146.507" stroke="#0A2D49" stroke-width="20" stroke-miterlimit="10" stroke-linecap="round" stroke-linejoin="round"/>
<path d="M10 256.958H130.49" stroke="#0A2D49" stroke-width="20" stroke-miterlimit="10" stroke-linecap="round" stroke-linejoin="round"/>
<path d="M100.367 226.833L130.49 256.956L100.367 287.078" stroke="#0A2D49" stroke-width="20" stroke-miterlimit="10" stroke-linecap="round" stroke-linejoin="round"/>
<path d="M10 397.528H130.49" stroke="#0A2D49" stroke-width="20" stroke-miterlimit="10" stroke-linecap="round" stroke-linejoin="round"/>
<path d="M100.367 367.402L130.49 397.524L100.367 427.646" stroke="#0A2D49" stroke-width="20" stroke-miterlimit="10" stroke-linecap="round" stroke-linejoin="round"/>
<path d="M250.98 512.957C224.467 512.957 201.54 485.657 184.675 434.009C169.185 386.571 160.654 323.692 160.654 256.957C160.654 190.222 169.185 127.344 184.675 79.9045C201.539 28.2565 224.467 0.956543 250.98 0.956543C277.493 0.956543 300.421 28.2565 317.286 79.9045C332.776 127.344 341.307 190.222 341.307 256.957C341.307 323.692 332.776 386.57 317.286 434.009C300.421 485.657 277.492 512.957 250.98 512.957Z" fill="#27DBBB"/>
</svg>
