<?xml version="1.0" encoding="UTF-8"?>
<svg id="Layer_2" data-name="Layer 2" xmlns="http://www.w3.org/2000/svg" viewBox="0 0 487.28 487.28">
  <defs>
    <style>
      .cls-1 {
        fill: #08314d;
      }

      .cls-2 {
        fill: #1fdabb;
        fill-rule: evenodd;
      }
    </style>
  </defs>
  <g id="Layer_1-2" data-name="Layer 1">
    <g>
      <path class="cls-2" d="M243.64,357.84c62.9,0,114.21-51.3,114.21-114.21-6.45-151.52-221.98-151.48-228.41,0,0,62.9,51.3,114.2,114.21,114.2Z"/>
      <g>
        <path class="cls-1" d="M243.64,157.99c-47.23,0-85.65,38.42-85.65,85.65,4.71,113.63,166.62,113.6,171.31,0,0-47.23-38.42-85.65-85.65-85.65Zm65.94,76.14h-29.98c-.8-18.87-4-37.63-9.82-51.76,20.98,8.99,36.45,28.44,39.8,51.76Zm-65.94,75.76c-10.85-6.44-16.37-39.11-16.91-56.72h33.83c-.52,17.5-6.1,50.38-16.91,56.72Zm-16.91-75.76c.51-17.5,6.11-50.4,16.91-56.72,10.85,6.43,16.37,39.12,16.91,56.72h-33.83Zm-9.23-51.76c-5.81,14.13-9.02,32.89-9.82,51.76h-29.98c3.35-23.32,18.82-42.77,39.8-51.76Zm-39.8,70.79h29.98c.8,18.87,4.01,37.63,9.82,51.76-20.98-8.99-36.45-28.44-39.8-51.76h0Zm92.08,51.76c5.81-14.13,9.02-32.89,9.82-51.76h29.98c-3.35,23.32-18.82,42.77-39.8,51.76Z"/>
        <path class="cls-1" d="M428.25,320.21c20.26-48.45,20.26-104.69,0-153.13,34.24-11.22,59.03-43.48,59.03-81.42-2.24-97.86-135.34-117.9-167.07-26.62-48.45-20.26-104.68-20.26-153.13,0C155.85,24.79,123.59,0,85.65,0-12.2,2.24-32.25,135.33,59.03,167.07c-20.26,48.45-20.26,104.69,0,153.13C24.79,331.43,0,363.69,0,401.62c2.24,97.86,135.33,117.9,167.07,26.62,48.45,20.26,104.69,20.26,153.13,0,11.22,34.24,43.48,59.03,81.42,59.03,97.86-2.24,117.9-135.34,26.62-167.07h0Zm-8.95-231.83c-.97,23.45-34.38,23.44-35.35,0v-13.6c.97-23.45,34.38-23.43,35.35,0v13.6Zm-39.11,29.78c12.08,9.15,30.8,9.15,42.88,0,7.87,5.41,13.48,13.64,15.64,22.82-21.09,14.92-53.07,14.92-74.16,0,2.16-9.18,7.77-17.41,15.64-22.82h0Zm21.44-99.12c55.34-.26,86.61,65.01,52.33,107.8-4.06-9.26-10.56-17.42-18.83-23.46,2.06-4.58,3.21-9.66,3.21-15v-13.6c-2.02-48.71-71.41-48.67-73.42,0v13.6c0,5.34,1.15,10.42,3.21,15-8.27,6.04-14.77,14.2-18.83,23.46-34.29-42.81-2.99-108.07,52.33-107.8ZM19.03,85.65c0-36.73,29.89-66.62,66.62-66.62,55.33-.27,86.62,65.01,52.33,107.8-4.06-9.26-10.56-17.42-18.83-23.46,2.06-4.58,3.21-9.66,3.21-15v-13.6c-2.02-48.71-71.41-48.67-73.42,0v13.6c0,5.34,1.15,10.42,3.21,15-8.27,6.04-14.77,14.2-18.83,23.46-8.95-11.34-14.29-25.65-14.29-41.18Zm29.54,55.32c2.16-9.18,7.77-17.41,15.64-22.82,12.08,9.15,30.8,9.15,42.88,0,7.87,5.41,13.48,13.64,15.64,22.82-21.09,14.92-53.07,14.92-74.16,0Zm54.75-52.6c-.97,23.45-34.38,23.43-35.35,0v-13.6c.97-23.45,34.38-23.44,35.35,0v13.6ZM48.58,456.95c2.16-9.18,7.77-17.41,15.64-22.82,12.08,9.15,30.8,9.15,42.88,0,7.87,5.41,13.48,13.64,15.64,22.82-21.09,14.92-53.07,14.92-74.16,0Zm54.75-52.6c-.97,23.45-34.38,23.43-35.35,0v-13.6c.97-23.45,34.38-23.44,35.35,0v13.6Zm34.66,38.46c-4.06-9.26-10.56-17.42-18.83-23.46,2.06-4.58,3.21-9.66,3.21-15v-13.6c-2.02-48.71-71.41-48.67-73.42,0v13.6c0,5.34,1.15,10.42,3.21,15-8.27,6.04-14.77,14.2-18.83,23.46-34.29-42.81-2.99-108.07,52.33-107.8,55.32-.27,86.62,65.01,52.33,107.8h0Zm105.66-18.34c-24.85,0-49.89-5.26-72.67-15.24,5.15-52.42-40.5-98.07-92.92-92.92-20.24-45.68-20.24-99.65,0-145.33,52.42,5.15,98.07-40.5,92.92-92.92,45.69-20.24,99.65-20.24,145.33,0-5.15,52.42,40.5,98.07,92.92,92.92,20.24,45.68,20.24,99.65,0,145.33-52.42-5.15-98.07,40.5-92.92,92.92-22.77,9.98-47.82,15.24-72.67,15.24h0Zm120.91,32.48c2.16-9.18,7.77-17.41,15.64-22.82,12.08,9.15,30.8,9.15,42.88,0,7.87,5.41,13.48,13.64,15.64,22.82-21.09,14.92-53.07,14.92-74.16,0h0Zm54.75-52.6c-.97,23.45-34.38,23.44-35.35,0v-13.6c.97-23.45,34.38-23.43,35.35,0v13.6Zm34.66,38.46c-4.06-9.26-10.56-17.42-18.83-23.46,2.06-4.58,3.21-9.66,3.21-15v-13.6c-2.02-48.71-71.41-48.67-73.42,0v13.6c0,5.34,1.15,10.42,3.21,15-8.27,6.04-14.77,14.2-18.83,23.46-34.29-42.81-2.99-108.07,52.33-107.8,55.32-.27,86.62,65.01,52.33,107.8h0Z"/>
      </g>
    </g>
  </g>
</svg>