<svg width="523" height="512" viewBox="0 0 523 512" fill="none" xmlns="http://www.w3.org/2000/svg">
<path d="M419.863 56.2854V112.619H10.1996V56.2854C10.1996 30.8353 30.8342 10.2007 56.2833 10.2007H373.779C399.228 10.2007 419.863 30.8353 419.863 56.2854V56.2854Z" fill="#27DBBB"/>
<path d="M163.822 71.6051H368.659C374.292 71.6051 378.859 67.0375 378.859 61.4051C378.859 55.7726 374.292 51.2051 368.659 51.2051H163.822C158.189 51.2051 153.622 55.7726 153.622 61.4051C153.622 67.0386 158.189 71.6051 163.822 71.6051Z" fill="#0A2D49"/>
<path d="M61.4041 71.6139C66.9631 71.6139 71.6143 66.9617 71.6143 61.4037C71.6143 55.8488 66.9499 51.2139 61.4041 51.2139C55.8624 51.2139 51.2041 55.859 51.2041 61.4037C51.2041 66.9545 55.8492 71.6139 61.4041 71.6139V71.6139Z" fill="#0A2D49"/>
<path d="M112.618 71.6139C118.172 71.6139 122.818 66.9556 122.818 61.4037C122.818 55.8569 118.161 51.2139 112.618 51.2139C107.075 51.2139 102.418 55.8569 102.418 61.4037C102.418 66.9566 107.062 71.6139 112.618 71.6139Z" fill="#0A2D49"/>
<path d="M512.041 373.82H496.165C495.505 372.067 494.786 370.336 494.013 368.629L505.24 357.401C509.224 353.418 509.224 346.96 505.239 342.976L476.271 314.009C472.288 310.026 465.83 310.026 461.847 314.009L450.62 325.236C448.913 324.461 447.181 323.743 445.428 323.082V307.209C445.428 301.577 440.861 297.009 435.228 297.009H430.062V56.2847C430.062 25.2491 404.814 0 373.779 0H56.2837C25.2491 0 0 25.2491 0 56.2847V353.298C0 384.334 25.2491 409.583 56.2837 409.583H307.249V424.988C307.249 430.621 311.815 435.188 317.449 435.188H333.322C333.983 436.941 334.701 438.673 335.474 440.381L324.248 451.607C320.265 455.59 320.265 462.048 324.248 466.033L353.215 495C357.199 498.982 363.658 498.984 367.64 495L378.866 483.773C380.574 484.547 382.306 485.265 384.059 485.927V501.8C384.059 507.432 388.626 512 394.259 512H435.225C440.859 512 445.425 507.432 445.425 501.8V485.927C447.179 485.265 448.912 484.547 450.618 483.773L461.844 495C465.829 498.982 472.287 498.984 476.269 495L505.237 466.033C509.22 462.049 509.221 455.591 505.238 451.607L494.011 440.38C494.785 438.672 495.502 436.941 496.164 435.188H512.041C517.674 435.188 522.241 430.621 522.241 424.988V384.02C522.241 378.388 517.674 373.82 512.041 373.82V373.82ZM56.2837 389.183C36.4977 389.183 20.4 373.085 20.4 353.298V56.2847C20.4 36.4977 36.4977 20.4 56.2837 20.4H373.78C393.566 20.4 409.663 36.4977 409.663 56.2847V297.009H394.262C388.629 297.009 384.062 301.577 384.062 307.209V323.082C382.309 323.743 380.577 324.462 378.869 325.236L367.642 314.009C363.659 310.026 357.2 310.026 353.217 314.009L324.25 342.976C320.267 346.959 320.267 353.417 324.25 357.401L335.476 368.628C334.703 370.335 333.985 372.067 333.324 373.82H317.45C311.817 373.82 307.25 378.387 307.25 384.02V389.182H56.2837V389.183ZM501.841 414.788H488.774C484.186 414.788 480.163 417.851 478.942 422.272C477.493 427.519 475.393 432.583 472.7 437.326C470.435 441.317 471.113 446.329 474.358 449.575L483.602 458.819L469.059 473.361L459.815 464.118C456.569 460.873 451.556 460.193 447.565 462.462C442.828 465.152 437.763 467.251 432.512 468.702C428.091 469.923 425.027 473.947 425.027 478.534V491.601H404.461V478.534C404.461 473.947 401.398 469.924 396.976 468.702C391.725 467.251 386.661 465.152 381.923 462.462C377.931 460.193 372.919 460.872 369.674 464.118L360.43 473.363L345.888 458.82L355.132 449.576C358.378 446.33 359.055 441.317 356.788 437.326C354.097 432.586 351.996 427.521 350.548 422.275C349.327 417.852 345.304 414.789 340.716 414.789H327.649V394.22H340.716C345.303 394.22 349.327 391.157 350.548 386.736C351.997 381.487 354.097 376.423 356.788 371.683C359.055 367.692 358.377 362.679 355.132 359.433L345.888 350.188L360.43 335.645L369.674 344.89C372.918 348.136 377.932 348.814 381.922 346.548C386.664 343.856 391.729 341.757 396.976 340.306C401.398 339.085 404.461 335.061 404.461 330.474V317.407H425.027V330.474C425.027 335.061 428.091 339.084 432.512 340.306C437.76 341.757 442.824 343.856 447.566 346.548C451.558 348.814 456.57 348.135 459.815 344.89L469.059 335.645L483.602 350.188L474.358 359.433C471.113 362.679 470.435 367.692 472.7 371.682C475.393 376.423 477.492 381.488 478.942 386.736C480.164 391.158 484.187 394.22 488.774 394.22H501.841V414.788Z" fill="#0A2D49"/>
<path d="M414.745 358.458C389.355 358.458 368.699 379.115 368.699 404.504C368.699 429.894 389.355 450.55 414.745 450.55C440.135 450.55 460.791 429.894 460.791 404.504C460.791 379.115 440.135 358.458 414.745 358.458V358.458ZM414.745 430.149C400.603 430.149 389.099 418.645 389.099 404.503C389.099 390.363 400.603 378.857 414.745 378.857C428.886 378.857 440.391 390.362 440.391 404.503C440.391 418.645 428.886 430.149 414.745 430.149V430.149Z" fill="#0A2D49"/>
<path d="M286.725 286.769H61.4085C55.775 286.769 51.2085 291.335 51.2085 296.969C51.2085 302.601 55.775 307.169 61.4085 307.169H286.725C292.358 307.169 296.925 302.601 296.925 296.969C296.925 291.335 292.358 286.769 286.725 286.769Z" fill="#0A2D49"/>
<path d="M286.725 337.978H61.4085C55.775 337.978 51.2085 342.546 51.2085 348.178C51.2085 353.81 55.775 358.378 61.4085 358.378H286.725C292.358 358.378 296.925 353.81 296.925 348.178C296.925 342.545 292.358 337.978 286.725 337.978Z" fill="#0A2D49"/>
<path d="M140.259 169.5C138.434 165.04 134.145 162.16 129.33 162.16C129.327 162.16 129.322 162.16 129.318 162.16C124.324 162.165 119.999 165.261 118.3 169.751L91.6191 240.145C89.6229 245.413 92.275 251.302 97.5422 253.298C102.84 255.307 108.71 252.614 110.695 247.375L114.845 236.429H143.608L147.708 247.347C149.689 252.621 155.571 255.293 160.843 253.31C166.116 251.33 168.785 245.448 166.804 240.175C138.975 166.072 140.349 169.717 140.259 169.5V169.5ZM122.577 216.027L129.293 198.31L135.947 216.027H122.577Z" fill="#0A2D49"/>
<path d="M322.55 161.822C316.917 161.822 312.35 166.389 312.35 172.022V243.763C312.35 249.395 316.917 253.963 322.55 253.963C328.184 253.963 332.75 249.395 332.75 243.763V172.022C332.75 166.388 328.184 161.822 322.55 161.822Z" fill="#0A2D49"/>
<path d="M240.614 162.16H220.548C214.902 162.16 210.348 166.763 210.348 172.36V243.76C210.348 249.393 214.915 253.96 220.548 253.96C226.182 253.96 230.748 249.393 230.748 243.76V222.892C234.444 222.874 238.293 222.858 240.614 222.858C257.671 222.858 271.548 209.243 271.548 192.509C271.55 175.774 257.672 162.16 240.614 162.16V162.16ZM240.614 202.457C238.31 202.457 234.506 202.473 230.832 202.49C230.785 192.954 230.811 194.61 230.778 182.559H240.614C246.325 182.559 251.148 187.116 251.148 192.508C251.149 197.902 246.325 202.457 240.614 202.457Z" fill="#0A2D49"/>
</svg>
