<svg width="64" height="64" viewBox="0 0 64 64" fill="none" xmlns="http://www.w3.org/2000/svg">
<path d="M85.6956 0H-24V64H85.6956V0Z" fill="#3C9242"/>
<path d="M-7.06836 32L30.8479 56.2207L68.7968 32L30.8479 7.77939L-7.06836 32Z" fill="#EDC226"/>
<path d="M46.8316 32.0001C46.8316 40.8254 39.6732 47.9837 30.8479 47.9837C22.0226 47.9837 14.8643 40.8254 14.8643 32.0001C14.8643 23.1747 22.0226 15.9837 30.8479 15.9837C39.6732 15.9837 46.8316 23.1747 46.8316 32.0001Z" fill="#2D146E"/>
<path d="M21.7284 25.1359C19.8652 25.1359 18.0348 25.2666 16.2371 25.5281C15.8775 26.3126 15.616 27.1298 15.3872 27.9796C17.4465 27.62 19.5711 27.4239 21.7284 27.4239C31.1094 27.4239 39.6732 30.9541 46.1451 36.7722C46.4066 35.9551 46.6027 35.1052 46.7008 34.2554C39.9347 28.568 31.2401 25.1359 21.7284 25.1359" fill="white"/>
<path fill-rule="evenodd" clip-rule="evenodd" d="M17.2176 27.3259C17.5772 27.2932 17.8713 26.901 17.806 26.476C17.7733 26.0511 17.4137 25.7569 17.0542 25.7896C16.6619 25.8223 16.4004 26.2146 16.4658 26.6395C16.4985 27.0644 16.8581 27.3586 17.2176 27.3259M17.2176 27.0317C17.4137 27.0317 17.5772 26.7702 17.5445 26.5087C17.5445 26.2472 17.3157 26.0511 17.0869 26.0838C16.8581 26.0838 16.6946 26.3453 16.7273 26.6068C16.76 26.8683 16.9561 27.0644 17.1849 27.0317" fill="#3C9242"/>
<path fill-rule="evenodd" clip-rule="evenodd" d="M18.4598 27.1951H18.7213L18.6887 26.6068H19.3097C19.5712 26.5414 19.7673 26.3126 19.7346 26.0511C19.7346 25.7896 19.4731 25.5935 19.2116 25.5935L18.3291 25.6589L18.4272 27.1951H18.4598ZM18.6887 26.3126H19.277C19.277 26.3126 19.4404 26.1819 19.4404 26.0511C19.4404 25.9531 19.3424 25.855 19.2443 25.8877H18.656V26.3126H18.6887Z" fill="#3C9242"/>
<path d="M19.7344 27.0971C19.7344 26.8683 19.7017 26.4107 19.3749 26.4107H18.95C19.4076 26.4107 19.4729 26.901 19.4729 27.0971" fill="#3C9242"/>
<path fill-rule="evenodd" clip-rule="evenodd" d="M20.3882 27.0644H21.1073C21.4668 27.0644 21.761 26.7375 21.761 26.378V26.1492C21.761 25.7896 21.4341 25.4954 21.0746 25.4954H20.3555V27.0317L20.3882 27.0644ZM20.6496 26.7702H21.0746C21.3034 26.7702 21.4995 26.5741 21.4668 26.3453V26.2145C21.4668 25.9857 21.2707 25.8223 21.0746 25.8223H20.6496V26.8029V26.7702Z" fill="#3C9242"/>
<path d="M22.3167 27.0318L23.6895 27.0971V26.803L22.5781 26.7703L22.6108 26.378L23.4934 26.4107V26.1492L22.6108 26.1165V25.8224L23.6568 25.855V25.5609L22.382 25.5282L22.3167 27.0318Z" fill="#3C9242"/>
<path d="M24.2454 27.1298H24.5069L24.6049 26.1165L24.801 27.1625L25.0625 27.1951L25.4548 26.1819L25.3567 27.2278L25.6182 27.2605L25.7489 25.7243L25.3894 25.6916L24.9645 26.7048L24.7683 25.6262L24.3761 25.5935L24.2454 27.1298Z" fill="#3C9242"/>
<path d="M27.3831 27.4894L28.5271 27.6528L28.5598 27.424L27.7099 27.2606L27.7753 26.9337L28.4944 27.0318L28.5271 26.7703L27.808 26.6722L27.8407 26.4434L28.6905 26.5741L28.7232 26.3127L27.6445 26.1165L27.3831 27.4894Z" fill="#3C9242"/>
<path fill-rule="evenodd" clip-rule="evenodd" d="M30.2922 28.045L30.5537 28.1104L30.7172 27.5547L31.3055 27.6855C31.567 27.7508 31.8285 27.5874 31.8939 27.3586C31.9592 27.0971 31.7958 26.8356 31.5343 26.7702L30.6845 26.5414L30.2922 28.0123V28.045ZM30.7825 27.2932L31.3382 27.4566C31.3382 27.4566 31.5343 27.424 31.567 27.3259C31.567 27.2278 31.5343 27.1298 31.4363 27.0971L30.8806 26.9664L30.7825 27.3586V27.2932Z" fill="#3C9242"/>
<path fill-rule="evenodd" clip-rule="evenodd" d="M32.1553 28.5353L32.4168 28.6334L32.5802 28.1104L33.1359 28.3065C33.3974 28.3719 33.6588 28.2411 33.7569 28.0123C33.855 27.7508 33.6915 27.4893 33.4627 27.424L32.6129 27.1625L32.1553 28.6007V28.5353ZM32.6783 27.8162L33.2339 27.9796C33.2339 27.9796 33.43 27.9796 33.4627 27.8489C33.4954 27.7508 33.4627 27.6528 33.332 27.6201L32.7763 27.4567L32.6456 27.8162H32.6783Z" fill="#3C9242"/>
<path d="M33.3975 28.9275C33.4629 28.7314 33.5936 28.2738 33.2995 28.1758L32.9072 28.045C33.3648 28.1758 33.2014 28.6334 33.136 28.8622" fill="#3C9242"/>
<path fill-rule="evenodd" clip-rule="evenodd" d="M34.6395 29.3851C34.9991 29.5159 35.3913 29.3198 35.5547 28.9275C35.7182 28.5353 35.5547 28.1104 35.1952 27.9796C34.8356 27.8489 34.4107 28.045 34.28 28.4372C34.1165 28.8295 34.28 29.2544 34.6722 29.3851M34.7702 29.1236C34.9991 29.2217 35.2279 29.0583 35.3259 28.8295C35.424 28.568 35.3259 28.3065 35.1298 28.2411C34.9337 28.1757 34.6722 28.3065 34.5741 28.5353C34.4761 28.7968 34.5741 29.0583 34.7702 29.1236Z" fill="#3C9242"/>
<path fill-rule="evenodd" clip-rule="evenodd" d="M36.4374 30.1042C36.7969 30.2676 37.2219 30.0715 37.3853 29.6793C37.5487 29.2871 37.3853 28.8621 37.0584 28.6987C36.6989 28.5353 36.3066 28.7314 36.1432 29.1236C35.9798 29.5159 36.1432 29.9408 36.4701 30.1042M36.6008 29.8427C36.7969 29.9408 37.0584 29.81 37.1565 29.5485C37.2546 29.3197 37.1565 29.0256 36.9931 28.9602C36.7969 28.8621 36.5355 28.9929 36.4374 29.2544C36.3393 29.4832 36.4047 29.7774 36.6008 29.8427Z" fill="#3C9242"/>
<path d="M36.8622 29.4505L37.3852 29.6793L37.2871 29.8754L36.7642 29.6466L36.8622 29.4505Z" fill="#3C9242"/>
<path d="M37.1892 29.5813L37.3853 29.6793L37.0585 30.3658L36.895 30.3004L37.1892 29.5813Z" fill="#3C9242"/>
<path fill-rule="evenodd" clip-rule="evenodd" d="M37.5813 30.6272L37.8428 30.7579L38.1043 30.235L38.66 30.5291C38.8888 30.6599 39.1829 30.5291 39.3137 30.3003C39.4444 30.0715 39.3137 29.7773 39.1176 29.6466L38.3331 29.2544L37.6467 30.5945L37.5813 30.6272ZM38.2023 30.0062L38.7253 30.2676C38.7253 30.2676 38.9214 30.2676 38.9868 30.1696C39.0195 30.0715 38.9868 29.9408 38.8888 29.9081L38.3658 29.6466L38.2023 30.0062V30.0062Z" fill="#3C9242"/>
<path d="M38.758 31.1829C38.856 30.9868 39.0521 30.5619 38.758 30.3985L38.3657 30.2023C38.7906 30.4311 38.5945 30.8561 38.4965 31.0522" fill="#3C9242"/>
<path d="M39.3137 31.5097L40.5231 32.1635L40.6539 31.9347L39.6733 31.379L39.8694 31.0521L40.6212 31.477L40.7519 31.2156L40.0001 30.8233L40.1636 30.5291L41.0461 31.0521L41.2095 30.8233L40.0655 30.1696L39.3137 31.5097Z" fill="#3C9242"/>
<path d="M41.5364 32.2289C41.5364 32.2289 41.5364 32.4904 41.6998 32.6211C41.896 32.7519 41.994 32.7192 42.0594 32.6211C42.2228 32.3596 41.2749 31.9674 41.5691 31.5098C41.8306 31.1176 42.2555 31.4117 42.4189 31.5098C42.5824 31.6079 42.8439 31.902 42.6477 32.1962L42.3536 32.0001C42.3536 32.0001 42.3536 31.7386 42.1901 31.6405C42.0594 31.5425 41.9286 31.5098 41.8633 31.6405C41.7325 31.8367 42.6804 32.2289 42.3536 32.7192C42.1574 33.0461 41.7652 32.9153 41.5364 32.7192C41.3076 32.5885 41.0134 32.2616 41.2095 31.9347L41.5037 32.1308L41.5364 32.2289Z" fill="#3C9242"/>
<path d="M43.1707 33.3075C43.1707 33.3075 43.1707 33.569 43.3342 33.6998C43.4976 33.8305 43.661 33.8305 43.6937 33.7651C43.8571 33.5036 42.9092 33.0787 43.2688 32.6538C43.5303 32.2616 43.9552 32.5884 44.1186 32.7192C44.2821 32.8499 44.5109 33.1114 44.2821 33.4383L44.0206 33.2422C44.0206 33.2422 44.0206 32.9807 43.8571 32.8826C43.7264 32.7845 43.6283 32.7519 43.5303 32.8826C43.3669 33.0787 44.2821 33.5363 43.9879 33.9613C43.7591 34.2881 43.3669 34.1247 43.1707 33.9613C42.9746 33.8305 42.6477 33.471 42.8766 33.1768L43.1707 33.3729V33.3075Z" fill="#3C9242"/>
<path fill-rule="evenodd" clip-rule="evenodd" d="M44.707 35.0726C45.0012 35.3014 45.4588 35.236 45.7203 34.9091C45.9818 34.5823 45.9491 34.1247 45.6549 33.8959C45.3608 33.6671 44.9032 33.7324 44.6417 34.0593C44.3802 34.3862 44.4129 34.8438 44.707 35.0726ZM44.8705 34.8438C45.0339 34.9745 45.3281 34.9418 45.4915 34.713C45.6549 34.5169 45.6223 34.2227 45.4915 34.092C45.3281 33.9612 45.0666 33.9939 44.8705 34.2227C44.707 34.4188 44.707 34.713 44.8705 34.8438Z" fill="#3C9242"/>
<path d="M17.806 28.4372L17.5771 29.0909L17.904 29.189L17.806 28.4372Z" fill="white"/>
<path d="M17.806 28.4372L18.0022 29.0909L17.6753 29.189L17.806 28.4372Z" fill="white"/>
<path d="M18.4272 28.8949H17.7734V29.2544L18.4272 28.8949Z" fill="white"/>
<path d="M18.4271 28.8949L17.9041 29.3198L17.6753 29.0256L18.4271 28.8949Z" fill="white"/>
<path d="M17.1523 28.8949L17.708 29.3198L17.9041 29.0256L17.1523 28.8949Z" fill="white"/>
<path d="M17.1523 28.8949H17.8388V29.2544L17.1523 28.8949Z" fill="white"/>
<path d="M18.1983 29.6793L17.9695 29.0255L17.6753 29.1236L18.1983 29.6793Z" fill="white"/>
<path d="M18.1982 29.6793L17.6426 29.2544L17.8387 28.9929L18.1982 29.6793Z" fill="white"/>
<path d="M17.3811 29.6793L17.9368 29.2544L17.7407 28.9929L17.3811 29.6793Z" fill="white"/>
<path d="M17.3811 29.6793L17.6099 29.0255L17.9368 29.1236L17.3811 29.6793Z" fill="white"/>
<path d="M19.2115 35.1706L18.9827 35.8243L19.3422 35.9224L19.2115 35.1706Z" fill="white"/>
<path d="M19.2116 35.1706L19.4077 35.8243L19.1135 35.9224L19.2116 35.1706Z" fill="white"/>
<path d="M19.8654 35.6283H19.179V35.9878L19.8654 35.6283Z" fill="white"/>
<path d="M19.8653 35.6283L19.3096 36.0532L19.1135 35.759L19.8653 35.6283Z" fill="white"/>
<path d="M18.5579 35.6283L19.1135 36.0532L19.3096 35.759L18.5579 35.6283Z" fill="white"/>
<path d="M18.5579 35.6283H19.2443V35.9878L18.5579 35.6283Z" fill="white"/>
<path d="M19.6038 36.4127L19.4077 35.7589L19.0808 35.857L19.6038 36.4127Z" fill="white"/>
<path d="M19.6038 36.4127L19.0481 35.9878L19.2442 35.7263L19.6038 36.4127Z" fill="white"/>
<path d="M18.7866 36.4127L19.375 35.9878L19.1462 35.7263L18.7866 36.4127Z" fill="white"/>
<path d="M18.7866 36.4127L19.0154 35.7589L19.3423 35.857L18.7866 36.4127Z" fill="white"/>
<path d="M17.2504 36.8049L17.1196 37.2625L17.3157 37.3279L17.2504 36.8049Z" fill="white"/>
<path d="M17.2504 36.8049L17.3812 37.2625L17.1851 37.3279L17.2504 36.8049Z" fill="white"/>
<path d="M17.6754 37.1318H17.2178V37.3606L17.6754 37.1318Z" fill="white"/>
<path d="M17.6754 37.1318L17.3158 37.426L17.1851 37.2299L17.6754 37.1318Z" fill="white"/>
<path d="M16.8254 37.1318L17.185 37.426L17.3157 37.2299L16.8254 37.1318Z" fill="white"/>
<path d="M16.8254 37.1318H17.2831V37.3606L16.8254 37.1318Z" fill="white"/>
<path d="M17.5119 37.6548L17.3811 37.2299L17.1523 37.2952L17.5119 37.6548Z" fill="white"/>
<path d="M17.5119 37.6548L17.1523 37.3933L17.2831 37.1972L17.5119 37.6548Z" fill="white"/>
<path d="M16.989 37.6548L17.3486 37.3933L17.2178 37.1972L16.989 37.6548Z" fill="white"/>
<path d="M16.989 37.6548L17.1198 37.2299L17.3159 37.2952L16.989 37.6548Z" fill="white"/>
<path d="M20.7804 34.5496L20.6824 34.8437L20.8131 34.9091L20.7804 34.5496Z" fill="white"/>
<path d="M20.7805 34.5496L20.8785 34.8437L20.7151 34.9091L20.7805 34.5496Z" fill="white"/>
<path d="M21.0747 34.7784H20.7805V34.9418L21.0747 34.7784Z" fill="white"/>
<path d="M21.0747 34.7784L20.8132 34.9745L20.7478 34.8111L21.0747 34.7784Z" fill="white"/>
<path d="M20.4536 34.7784L20.7478 34.9745L20.8132 34.8111L20.4536 34.7784Z" fill="white"/>
<path d="M20.4536 34.7784H20.7805V34.9418L20.4536 34.7784Z" fill="white"/>
<path d="M20.9766 35.138L20.8458 34.8111L20.7151 34.8765L20.9766 35.138Z" fill="white"/>
<path d="M20.9766 35.138L20.7151 34.9418L20.8131 34.8111L20.9766 35.138Z" fill="white"/>
<path d="M20.5845 35.138L20.846 34.9418L20.7479 34.8111L20.5845 35.138Z" fill="white"/>
<path d="M20.5845 35.138L20.6825 34.8111L20.846 34.8765L20.5845 35.138Z" fill="white"/>
<path d="M22.5455 36.8703L22.3821 37.3933L22.6109 37.4914L22.5455 36.8703Z" fill="white"/>
<path d="M22.5456 36.8703L22.709 37.3933L22.4475 37.4914L22.5456 36.8703Z" fill="white"/>
<path d="M23.0686 37.2626H22.5129V37.5568L23.0686 37.2626Z" fill="white"/>
<path d="M23.0686 37.2626L22.6109 37.5895L22.4475 37.3607L23.0686 37.2626Z" fill="white"/>
<path d="M21.99 37.2626L22.4476 37.5895L22.611 37.3607L21.99 37.2626Z" fill="white"/>
<path d="M21.99 37.2626H22.5783V37.5568L21.99 37.2626Z" fill="white"/>
<path d="M22.8724 37.8836L22.709 37.3606L22.4148 37.4587L22.8724 37.8836Z" fill="white"/>
<path d="M22.8724 37.8836L22.4148 37.5567L22.5782 37.3279L22.8724 37.8836Z" fill="white"/>
<path d="M22.2188 37.8836L22.6764 37.5567L22.4802 37.3279L22.2188 37.8836Z" fill="white"/>
<path d="M22.2188 37.8836L22.3822 37.3606L22.6437 37.4587L22.2188 37.8836Z" fill="white"/>
<path d="M22.0553 38.4393L21.8918 38.9949L22.1533 39.093L22.0553 38.4393Z" fill="white"/>
<path d="M22.0553 38.4393L22.2188 38.9949L21.9573 39.093L22.0553 38.4393Z" fill="white"/>
<path d="M22.6111 38.8642H22.0227V39.1257L22.6111 38.8642Z" fill="white"/>
<path d="M22.611 38.8642L22.1534 39.1911L21.9573 38.9623L22.611 38.8642Z" fill="white"/>
<path d="M21.5322 38.8642L21.9898 39.1911L22.1533 38.9623L21.5322 38.8642Z" fill="white"/>
<path d="M21.5322 38.8642H22.0879V39.1257L21.5322 38.8642Z" fill="white"/>
<path d="M22.3822 39.4852L22.2188 38.9295L21.9573 39.0276L22.3822 39.4852Z" fill="white"/>
<path d="M22.3822 39.4852L21.9246 39.1583L22.1207 38.9295L22.3822 39.4852Z" fill="white"/>
<path d="M21.7285 39.4852L22.1861 39.1583L22.0227 38.9295L21.7285 39.4852Z" fill="white"/>
<path d="M21.7285 39.4852L21.8919 38.9295L22.1861 39.0276L21.7285 39.4852Z" fill="white"/>
<path d="M35.8162 26.3453L35.5874 26.999L35.947 27.0971L35.8162 26.3453Z" fill="white"/>
<path d="M35.8163 26.3453L36.0451 26.999L35.6855 27.0971L35.8163 26.3453Z" fill="white"/>
<path d="M36.4701 26.8029H35.7837V27.1625L36.4701 26.8029Z" fill="white"/>
<path d="M36.47 26.8029L35.9144 27.2278L35.7183 26.9337L36.47 26.8029Z" fill="white"/>
<path d="M35.1626 26.8029L35.7183 27.2278L35.9144 26.9337L35.1626 26.8029Z" fill="white"/>
<path d="M35.1626 26.8029H35.849V27.1625L35.1626 26.8029Z" fill="white"/>
<path d="M36.2085 27.5874L36.0124 26.9337L35.6855 27.0317L36.2085 27.5874Z" fill="white"/>
<path d="M36.2085 27.5874L35.6528 27.1951L35.8489 26.9009L36.2085 27.5874Z" fill="white"/>
<path d="M35.4241 27.5874L35.9797 27.1951L35.7836 26.9009L35.4241 27.5874Z" fill="white"/>
<path d="M35.4241 27.5874L35.6202 26.9337L35.9471 27.0317L35.4241 27.5874Z" fill="white"/>
<path d="M42.0594 36.9357L41.8306 37.5894L42.1901 37.6875L42.0594 36.9357Z" fill="white"/>
<path d="M42.0595 36.9357L42.2883 37.5894L41.9614 37.6875L42.0595 36.9357Z" fill="white"/>
<path d="M42.713 37.3933H42.0266V37.7201L42.713 37.3933Z" fill="white"/>
<path d="M42.7132 37.3933L42.1575 37.7855L41.9614 37.524L42.7132 37.3933Z" fill="white"/>
<path d="M41.4055 37.3933L41.9612 37.7855L42.1573 37.524L41.4055 37.3933Z" fill="white"/>
<path d="M41.4055 37.3933H42.0919V37.7201L41.4055 37.3933Z" fill="white"/>
<path d="M42.4844 38.1778L42.2556 37.524L41.9287 37.6221L42.4844 38.1778Z" fill="white"/>
<path d="M42.4844 38.1777L41.9287 37.7528L42.1248 37.4913L42.4844 38.1777Z" fill="white"/>
<path d="M41.6672 38.1777L42.2229 37.7528L42.0268 37.4913L41.6672 38.1777Z" fill="white"/>
<path d="M41.6672 38.1778L41.8634 37.524L42.1902 37.6221L41.6672 38.1778Z" fill="white"/>
<path d="M44.2821 37.2952L44.1514 37.7201L44.3802 37.8182L44.2821 37.2952Z" fill="white"/>
<path d="M44.2819 37.2952L44.4454 37.7201L44.2166 37.8182L44.2819 37.2952Z" fill="white"/>
<path d="M44.7069 37.6221H44.2493V37.8509L44.7069 37.6221Z" fill="white"/>
<path d="M44.7068 37.6221L44.3473 37.8836L44.2166 37.6875L44.7068 37.6221Z" fill="white"/>
<path d="M43.8572 37.6221L44.2167 37.8836L44.3475 37.6875L43.8572 37.6221Z" fill="white"/>
<path d="M43.8572 37.6221H44.3148V37.8509L43.8572 37.6221Z" fill="white"/>
<path d="M44.5436 38.1452L44.4129 37.6875L44.1841 37.7529L44.5436 38.1452Z" fill="white"/>
<path d="M44.5436 38.1452L44.1841 37.851L44.3148 37.6875L44.5436 38.1452Z" fill="white"/>
<path d="M44.0205 38.1452L44.3801 37.851L44.2493 37.6875L44.0205 38.1452Z" fill="white"/>
<path d="M44.0205 38.1452L44.1513 37.6875L44.3801 37.7529L44.0205 38.1452Z" fill="white"/>
<path d="M42.713 38.4393L42.5496 38.9949L42.8111 39.093L42.713 38.4393Z" fill="white"/>
<path d="M42.7131 38.4393L42.8765 38.9949L42.615 39.093L42.7131 38.4393Z" fill="white"/>
<path d="M43.2688 38.8642H42.6804V39.1257L43.2688 38.8642Z" fill="white"/>
<path d="M43.2687 38.8642L42.8111 39.1911L42.615 38.9623L43.2687 38.8642Z" fill="white"/>
<path d="M42.1902 38.8642L42.6478 39.1911L42.8112 38.9623L42.1902 38.8642Z" fill="white"/>
<path d="M42.1902 38.8642H42.7459V39.1257L42.1902 38.8642Z" fill="white"/>
<path d="M43.0399 39.4852L42.8765 38.9295L42.615 39.0276L43.0399 39.4852Z" fill="white"/>
<path d="M43.0399 39.4852L42.5823 39.1583L42.7457 38.9295L43.0399 39.4852Z" fill="white"/>
<path d="M42.3862 39.4852L42.8438 39.1583L42.6804 38.9295L42.3862 39.4852Z" fill="white"/>
<path d="M42.3862 39.4852L42.5497 38.9295L42.8438 39.0276L42.3862 39.4852Z" fill="white"/>
<path d="M38.8561 41.8059L38.6926 42.3289L38.9541 42.427L38.8561 41.8059Z" fill="white"/>
<path d="M38.8561 41.8059L39.0522 42.3289L38.7581 42.427L38.8561 41.8059Z" fill="white"/>
<path d="M39.4118 42.1982H38.8235V42.4924L39.4118 42.1982Z" fill="white"/>
<path d="M39.4118 42.1982L38.9542 42.5251L38.7581 42.2963L39.4118 42.1982Z" fill="white"/>
<path d="M38.333 42.1982L38.7906 42.5251L38.9541 42.2963L38.333 42.1982Z" fill="white"/>
<path d="M38.333 42.1982H38.8887V42.4924L38.333 42.1982Z" fill="white"/>
<path d="M39.183 42.8519L39.0195 42.2962L38.7581 42.3943L39.183 42.8519Z" fill="white"/>
<path d="M39.1829 42.852L38.7253 42.4924L38.8888 42.2636L39.1829 42.852Z" fill="white"/>
<path d="M38.5293 42.852L38.9869 42.4924L38.8235 42.2636L38.5293 42.852Z" fill="white"/>
<path d="M38.5293 42.8519L38.6927 42.2962L38.9869 42.3943L38.5293 42.8519Z" fill="white"/>
<path d="M38.8234 43.5383L38.6926 43.9632L38.9214 44.0286L38.8234 43.5383Z" fill="white"/>
<path d="M38.8234 43.5383L38.9869 43.9632L38.7581 44.0286L38.8234 43.5383Z" fill="white"/>
<path d="M39.2811 43.8652H38.8235V44.0614L39.2811 43.8652Z" fill="white"/>
<path d="M39.281 43.8652L38.8888 44.1267L38.7581 43.9306L39.281 43.8652Z" fill="white"/>
<path d="M38.3984 43.8652L38.758 44.1267L38.9214 43.9306L38.3984 43.8652Z" fill="white"/>
<path d="M38.3984 43.8652H38.856V44.0614L38.3984 43.8652Z" fill="white"/>
<path d="M39.1176 44.3555L38.9542 43.9306L38.7581 43.9959L39.1176 44.3555Z" fill="white"/>
<path d="M39.1176 44.3555L38.7253 44.094L38.8561 43.8979L39.1176 44.3555Z" fill="white"/>
<path d="M38.562 44.3555L38.9543 44.094L38.7908 43.8979L38.562 44.3555Z" fill="white"/>
<path d="M38.562 44.3555L38.7254 43.9306L38.9216 43.9959L38.562 44.3555Z" fill="white"/>
<path d="M40.4576 40.6619L40.2942 41.0869L40.523 41.1522L40.4576 40.6619Z" fill="white"/>
<path d="M40.4577 40.6619L40.5885 41.0869L40.3923 41.1522L40.4577 40.6619Z" fill="white"/>
<path d="M40.8827 40.9562H40.425V41.185L40.8827 40.9562Z" fill="white"/>
<path d="M40.8826 40.9562L40.5231 41.2504L40.3923 41.0543L40.8826 40.9562Z" fill="white"/>
<path d="M40.0327 40.9562L40.3923 41.2504L40.523 41.0543L40.0327 40.9562Z" fill="white"/>
<path d="M40.0327 40.9562H40.4903V41.185L40.0327 40.9562Z" fill="white"/>
<path d="M40.7192 41.4791L40.5884 41.0542L40.3596 41.1196L40.7192 41.4791Z" fill="white"/>
<path d="M40.7192 41.4791L40.3596 41.2176L40.4904 41.0215L40.7192 41.4791Z" fill="white"/>
<path d="M40.1963 41.4791L40.5558 41.2176L40.4251 41.0215L40.1963 41.4791Z" fill="white"/>
<path d="M40.1963 41.4791L40.327 41.0542L40.5558 41.1196L40.1963 41.4791Z" fill="white"/>
<path d="M41.7325 39.7467L41.5691 40.2697L41.8306 40.3677L41.7325 39.7467Z" fill="white"/>
<path d="M41.7326 39.7467L41.9287 40.2697L41.6345 40.3677L41.7326 39.7467Z" fill="white"/>
<path d="M42.2881 40.139H41.6997V40.4005L42.2881 40.139Z" fill="white"/>
<path d="M42.2883 40.139L41.8307 40.4659L41.6672 40.2371L42.2883 40.139Z" fill="white"/>
<path d="M41.2095 40.139L41.6671 40.4659L41.8305 40.2371L41.2095 40.139Z" fill="white"/>
<path d="M41.2095 40.139H41.7651V40.4005L41.2095 40.139Z" fill="white"/>
<path d="M42.0594 40.76L41.896 40.2371L41.6345 40.3024L42.0594 40.76Z" fill="white"/>
<path d="M42.0594 40.76L41.6018 40.4331L41.7652 40.2043L42.0594 40.76Z" fill="white"/>
<path d="M41.4055 40.76L41.8631 40.4331L41.6997 40.2043L41.4055 40.76Z" fill="white"/>
<path d="M41.4055 40.76L41.5689 40.2371L41.8304 40.3024L41.4055 40.76Z" fill="white"/>
<path d="M38.7907 40.3351L38.6599 40.7927L38.856 40.8581L38.7907 40.3351Z" fill="white"/>
<path d="M38.7907 40.3351L38.9541 40.7927L38.7253 40.8581L38.7907 40.3351Z" fill="white"/>
<path d="M39.2484 40.6619H38.7581V40.8907L39.2484 40.6619Z" fill="white"/>
<path d="M39.2483 40.6619L38.8561 40.9234L38.7253 40.76L39.2483 40.6619Z" fill="white"/>
<path d="M38.3657 40.6619L38.7253 40.9234L38.856 40.76L38.3657 40.6619Z" fill="white"/>
<path d="M38.3657 40.6619H38.8233V40.8907L38.3657 40.6619Z" fill="white"/>
<path d="M39.0849 41.185L38.9214 40.7274L38.6926 40.8254L39.0849 41.185Z" fill="white"/>
<path d="M39.0849 41.185L38.6926 40.8908L38.8234 40.7274L39.0849 41.185Z" fill="white"/>
<path d="M38.5293 41.185L38.8888 40.8908L38.7581 40.7274L38.5293 41.185Z" fill="white"/>
<path d="M38.5293 41.185L38.66 40.7274L38.8888 40.8254L38.5293 41.185Z" fill="white"/>
<path d="M24.7681 32.0655L24.572 32.6211L24.8662 32.6865L24.7681 32.0655Z" fill="white"/>
<path d="M24.7682 32.0655L24.9317 32.6211L24.6702 32.6865L24.7682 32.0655Z" fill="white"/>
<path d="M25.2913 32.4577H24.7356V32.7519L25.2913 32.4577Z" fill="white"/>
<path d="M25.2912 32.4577L24.8336 32.8172L24.6702 32.5884L25.2912 32.4577Z" fill="white"/>
<path d="M24.2126 32.4577L24.6703 32.8172L24.8337 32.5884L24.2126 32.4577Z" fill="white"/>
<path d="M24.2126 32.4577H24.7683V32.7519L24.2126 32.4577Z" fill="white"/>
<path d="M25.0951 33.1114L24.9316 32.5558L24.6375 32.6538L25.0951 33.1114Z" fill="white"/>
<path d="M25.0951 33.1114L24.6375 32.7846L24.8009 32.5558L25.0951 33.1114Z" fill="white"/>
<path d="M24.4087 33.1114L24.899 32.7846L24.7356 32.5558L24.4087 33.1114Z" fill="white"/>
<path d="M24.4087 33.1114L24.6048 32.5558L24.8663 32.6538L24.4087 33.1114Z" fill="white"/>
<path d="M35.1952 30.7253L35.0645 31.1502L35.2933 31.2156L35.1952 30.7253Z" fill="white"/>
<path d="M35.1953 30.7253L35.3587 31.1502L35.1299 31.2156L35.1953 30.7253Z" fill="white"/>
<path d="M35.6529 31.0521H35.1953V31.2809L35.6529 31.0521Z" fill="white"/>
<path d="M35.6529 31.0521L35.2606 31.3136L35.1299 31.1175L35.6529 31.0521Z" fill="white"/>
<path d="M34.7703 31.0521L35.1298 31.3136L35.2606 31.1175L34.7703 31.0521Z" fill="white"/>
<path d="M34.7703 31.0521H35.2279V31.2809L34.7703 31.0521Z" fill="white"/>
<path d="M35.4894 31.5751L35.326 31.1175L35.1299 31.1829L35.4894 31.5751Z" fill="white"/>
<path d="M35.4894 31.5751L35.0972 31.2809L35.2279 31.0848L35.4894 31.5751Z" fill="white"/>
<path d="M34.9338 31.5751L35.2934 31.2809L35.1626 31.0848L34.9338 31.5751Z" fill="white"/>
<path d="M34.9338 31.5751L35.0646 31.1175L35.2934 31.1829L34.9338 31.5751Z" fill="white"/>
<path d="M30.848 38.5047L30.6191 39.1257L30.9787 39.2565L30.848 38.5047Z" fill="white"/>
<path d="M30.8478 38.5047L31.0766 39.1257L30.7498 39.2565L30.8478 38.5047Z" fill="white"/>
<path d="M31.5016 38.9622H30.8152V39.3218L31.5016 38.9622Z" fill="white"/>
<path d="M31.5015 38.9622L30.9459 39.3545L30.7498 39.093L31.5015 38.9622Z" fill="white"/>
<path d="M30.1941 38.9622L30.7824 39.3545L30.9459 39.093L30.1941 38.9622Z" fill="white"/>
<path d="M30.1941 38.9622H30.8805V39.3218L30.1941 38.9622Z" fill="white"/>
<path d="M31.2403 39.7467L31.0442 39.093L30.7173 39.1911L31.2403 39.7467Z" fill="white"/>
<path d="M31.2403 39.7467L30.7173 39.3218L30.8807 39.0603L31.2403 39.7467Z" fill="white"/>
<path d="M30.4558 39.7467L31.0115 39.3218L30.8154 39.0603L30.4558 39.7467Z" fill="white"/>
<path d="M30.4558 39.7467L30.6519 39.093L30.9788 39.1911L30.4558 39.7467Z" fill="white"/>
<path d="M32.711 35.4321L32.5149 35.9551L32.8091 36.0532L32.711 35.4321Z" fill="white"/>
<path d="M32.7111 35.4321L32.8745 35.9551L32.613 36.0532L32.7111 35.4321Z" fill="white"/>
<path d="M33.2341 35.8244H32.6785V36.0859L33.2341 35.8244Z" fill="white"/>
<path d="M33.2341 35.8244L32.7765 36.1513L32.613 35.9225L33.2341 35.8244Z" fill="white"/>
<path d="M32.1553 35.8244L32.6129 36.1513L32.809 35.9225L32.1553 35.8244Z" fill="white"/>
<path d="M32.1553 35.8244H32.7436V36.0859L32.1553 35.8244Z" fill="white"/>
<path d="M33.0379 36.4454L32.8745 35.9224L32.5803 36.0205L33.0379 36.4454Z" fill="white"/>
<path d="M33.0379 36.4454L32.5803 36.1185L32.7438 35.8897L33.0379 36.4454Z" fill="white"/>
<path d="M32.3516 36.4454L32.8419 36.1185L32.6784 35.8897L32.3516 36.4454Z" fill="white"/>
<path d="M32.3516 36.4454L32.5477 35.9224L32.8092 36.0205L32.3516 36.4454Z" fill="white"/>
<path d="M30.848 33.994L30.6846 34.5169L30.9461 34.615L30.848 33.994Z" fill="white"/>
<path d="M30.8478 33.994L31.0113 34.5169L30.7825 34.615L30.8478 33.994Z" fill="white"/>
<path d="M31.4035 34.3862H30.8152V34.6803L31.4035 34.3862Z" fill="white"/>
<path d="M31.4035 34.3862L30.9459 34.713L30.7825 34.4842L31.4035 34.3862Z" fill="white"/>
<path d="M30.325 34.3862L30.7826 34.713L30.946 34.4842L30.325 34.3862Z" fill="white"/>
<path d="M30.325 34.3862H30.8806V34.6803L30.325 34.3862Z" fill="white"/>
<path d="M31.1747 35.0072L31.0112 34.4842L30.7498 34.5496L31.1747 35.0072Z" fill="white"/>
<path d="M31.1749 35.0072L30.7173 34.6803L30.8807 34.4515L31.1749 35.0072Z" fill="white"/>
<path d="M30.521 35.0072L30.9786 34.6803L30.8152 34.4515L30.521 35.0072Z" fill="white"/>
<path d="M30.521 35.0072L30.6844 34.4842L30.9786 34.5496L30.521 35.0072Z" fill="white"/>
<path d="M29.2462 35.5302L29.0828 35.9878L29.3116 36.0532L29.2462 35.5302Z" fill="white"/>
<path d="M29.2463 35.5302L29.377 35.9878L29.1809 36.0532L29.2463 35.5302Z" fill="white"/>
<path d="M29.6712 35.857H29.2136V36.0858L29.6712 35.857Z" fill="white"/>
<path d="M29.6712 35.857L29.3117 36.1185L29.1809 35.9224L29.6712 35.857Z" fill="white"/>
<path d="M28.8213 35.857L29.1808 36.1185L29.3116 35.9224L28.8213 35.857Z" fill="white"/>
<path d="M28.8213 35.857H29.2462V36.0858L28.8213 35.857Z" fill="white"/>
<path d="M29.5077 36.38L29.377 35.9224L29.1482 35.9878L29.5077 36.38Z" fill="white"/>
<path d="M29.5077 36.38L29.1482 36.0859L29.2789 35.9224L29.5077 36.38Z" fill="white"/>
<path d="M28.9849 36.38L29.3444 36.0859L29.2137 35.9224L28.9849 36.38Z" fill="white"/>
<path d="M28.9849 36.38L29.1156 35.9224L29.3444 35.9878L28.9849 36.38Z" fill="white"/>
<path d="M30.0634 36.7722L29.9653 37.0991L30.0961 37.1318L30.0634 36.7722Z" fill="white"/>
<path d="M30.0634 36.7722L30.1615 37.0991L29.998 37.1318L30.0634 36.7722Z" fill="white"/>
<path d="M30.3576 37.001H30.0308V37.1645L30.3576 37.001Z" fill="white"/>
<path d="M30.3576 37.001L30.0961 37.1971L29.998 37.0664L30.3576 37.001Z" fill="white"/>
<path d="M29.7366 37.001L29.9981 37.1971L30.0961 37.0664L29.7366 37.001Z" fill="white"/>
<path d="M29.7366 37.001H30.0634V37.1645L29.7366 37.001Z" fill="white"/>
<path d="M30.2269 37.3607L30.1288 37.0665L29.998 37.0992L30.2269 37.3607Z" fill="white"/>
<path d="M30.2268 37.3606L29.9653 37.1972L30.0634 37.0338L30.2268 37.3606Z" fill="white"/>
<path d="M29.8674 37.3606L30.1289 37.1972L30.0309 37.0338L29.8674 37.3606Z" fill="white"/>
<path d="M29.8674 37.3607L29.9655 37.0665L30.1289 37.0992L29.8674 37.3607Z" fill="white"/>
<path d="M35.6529 42.1982L35.4568 42.7539L35.751 42.8192L35.6529 42.1982Z" fill="white"/>
<path d="M35.6527 42.1982L35.8162 42.7539L35.5547 42.8192L35.6527 42.1982Z" fill="white"/>
<path d="M36.1758 42.5905H35.6201V42.8847L36.1758 42.5905Z" fill="white"/>
<path d="M36.1757 42.5905L35.7181 42.9174L35.5547 42.6885L36.1757 42.5905Z" fill="white"/>
<path d="M35.0972 42.5905L35.5548 42.9174L35.7509 42.6885L35.0972 42.5905Z" fill="white"/>
<path d="M35.0972 42.5905H35.6855V42.8847L35.0972 42.5905Z" fill="white"/>
<path d="M35.9796 43.2442L35.7835 42.6886L35.522 42.7866L35.9796 43.2442Z" fill="white"/>
<path d="M35.9796 43.2442L35.522 42.8846L35.6854 42.6558L35.9796 43.2442Z" fill="white"/>
<path d="M35.2932 43.2442L35.7835 42.8846L35.5874 42.6558L35.2932 43.2442Z" fill="white"/>
<path d="M35.2932 43.2442L35.4893 42.6886L35.7508 42.7866L35.2932 43.2442Z" fill="white"/>
<path d="M37.0257 40.8907L36.8623 41.3156L37.0911 41.4137L37.0257 40.8907Z" fill="white"/>
<path d="M37.0256 40.8907L37.1563 41.3156L36.9275 41.4137L37.0256 40.8907Z" fill="white"/>
<path d="M37.4505 41.2176H36.9929V41.4464L37.4505 41.2176Z" fill="white"/>
<path d="M37.4505 41.2176L37.0909 41.4791L36.9275 41.283L37.4505 41.2176Z" fill="white"/>
<path d="M36.5681 41.2176L36.9277 41.4791L37.0911 41.283L36.5681 41.2176Z" fill="white"/>
<path d="M36.5681 41.2176H37.0257V41.4464L36.5681 41.2176Z" fill="white"/>
<path d="M37.287 41.7079L37.1236 41.283L36.9275 41.3483L37.287 41.7079Z" fill="white"/>
<path d="M37.287 41.7079L36.9275 41.4464L37.0582 41.2503L37.287 41.7079Z" fill="white"/>
<path d="M36.7642 41.7079L37.1237 41.4464L36.9603 41.2503L36.7642 41.7079Z" fill="white"/>
<path d="M36.7642 41.7079L36.8949 41.283L37.1237 41.3483L36.7642 41.7079Z" fill="white"/>
<path d="M34.3781 40.4985L34.2473 40.9234L34.4434 41.0215L34.3781 40.4985Z" fill="white"/>
<path d="M34.3781 40.4985L34.5089 40.9234L34.3127 41.0215L34.3781 40.4985Z" fill="white"/>
<path d="M34.8031 40.8254H34.3455V41.0542L34.8031 40.8254Z" fill="white"/>
<path d="M34.803 40.8254L34.4435 41.0869L34.3127 40.8908L34.803 40.8254Z" fill="white"/>
<path d="M33.9531 40.8254L34.3127 41.0869L34.4434 40.8908L33.9531 40.8254Z" fill="white"/>
<path d="M33.9531 40.8254H34.4107V41.0542L33.9531 40.8254Z" fill="white"/>
<path d="M34.6396 41.3156L34.5088 40.8907L34.28 40.9561L34.6396 41.3156Z" fill="white"/>
<path d="M34.6396 41.3156L34.28 41.0541L34.4108 40.8907L34.6396 41.3156Z" fill="white"/>
<path d="M34.1165 41.3156L34.476 41.0541L34.3453 40.8907L34.1165 41.3156Z" fill="white"/>
<path d="M34.1165 41.3156L34.2472 40.8907L34.476 40.9561L34.1165 41.3156Z" fill="white"/>
<path d="M24.4415 39.7794L24.2126 40.4331L24.5395 40.5639L24.4415 39.7794Z" fill="white"/>
<path d="M24.4413 39.7794L24.6374 40.4331L24.3105 40.5639L24.4413 39.7794Z" fill="white"/>
<path d="M25.0951 40.2697H24.4087V40.6292L25.0951 40.2697Z" fill="white"/>
<path d="M25.0951 40.2697L24.5394 40.6619L24.3433 40.4004L25.0951 40.2697Z" fill="white"/>
<path d="M23.7876 40.2697L24.3433 40.6619L24.5394 40.4004L23.7876 40.2697Z" fill="white"/>
<path d="M23.7876 40.2697H24.474V40.6292L23.7876 40.2697Z" fill="white"/>
<path d="M24.8335 41.0215L24.6374 40.4005L24.3105 40.4985L24.8335 41.0215Z" fill="white"/>
<path d="M24.8335 41.0215L24.2778 40.6292L24.4739 40.3677L24.8335 41.0215Z" fill="white"/>
<path d="M24.0164 41.0215L24.572 40.6292L24.3759 40.3677L24.0164 41.0215Z" fill="white"/>
<path d="M24.0164 41.0215L24.2452 40.4005L24.572 40.4985L24.0164 41.0215Z" fill="white"/>
<path d="M30.8478 44.2901L30.7825 44.4862L30.8805 44.5189L30.8478 44.2901Z" fill="white"/>
<path d="M30.8479 44.2901L30.9132 44.4862L30.8152 44.5189L30.8479 44.2901Z" fill="white"/>
<path d="M31.0767 44.4535H30.8479V44.5516L31.0767 44.4535Z" fill="white"/>
<path d="M31.0767 44.4535L30.8806 44.5843L30.8152 44.4862L31.0767 44.4535Z" fill="white"/>
<path d="M30.6191 44.4535L30.8153 44.5843L30.8806 44.4862L30.6191 44.4535Z" fill="white"/>
<path d="M30.6191 44.4535H30.848V44.5516L30.6191 44.4535Z" fill="white"/>
<path d="M30.9786 44.6824L30.9132 44.4863L30.8152 44.519L30.9786 44.6824Z" fill="white"/>
<path d="M30.9786 44.6824L30.8152 44.5517L30.8479 44.4863L30.9786 44.6824Z" fill="white"/>
<path d="M30.7173 44.6824L30.8807 44.5517L30.848 44.4863L30.7173 44.6824Z" fill="white"/>
<path d="M30.7173 44.6824L30.7827 44.4863L30.8807 44.519L30.7173 44.6824Z" fill="white"/>
</svg>
