<?xml version="1.0" encoding="utf-8"?>
<!-- Generator: Adobe Illustrator 22.1.0, SVG Export Plug-In . SVG Version: 6.00 Build 0)  -->
<svg width="35px" height="35px" version="1.1" id="Layer_1" xmlns="http://www.w3.org/2000/svg" xmlns:xlink="http://www.w3.org/1999/xlink" x="0px" y="0px"
     viewBox="0 0 50 50" xml:space="preserve">
<style type="text/css">
    .st0{fill:#006FCF;}
    .st1{filter:url(#Adobe_OpacityMaskFilter);}
    .st2{fill:#FFFFFF;}
    .st3{mask:url(#bluebox-55x54-b_2_);fill:#FFFFFF;}
    .st4{filter:url(#Adobe_OpacityMaskFilter_1_);}
    .st5{mask:url(#bluebox-55x54-d_2_);fill:#006FCF;}
</style>
<title>AmericanExpress7</title>
<desc>Created with Sketch.</desc>
<g>
    <polygon class="st0" points="0,0 0,50 50,50 50,27.2 50,0    "/>
    <g transform="translate(0 16.675)">
        <defs>
            <filter id="Adobe_OpacityMaskFilter" filterUnits="userSpaceOnUse" x="0" y="-1.2" width="50" height="20.5">
                <feColorMatrix  type="matrix" values="1 0 0 0 0  0 1 0 0 0  0 0 1 0 0  0 0 0 1 0"/>
            </filter>
        </defs>
        <mask maskUnits="userSpaceOnUse" x="0" y="-1.2" width="50" height="20.5" id="bluebox-55x54-b_2_">
            <g class="st1">
                <polygon id="bluebox-55x54-a_2_" class="st2" points="0,-1.2 0,19.3 50,19.3 50,-1.2              "/>
            </g>
        </mask>
        <path class="st3" d="M43.8,7.6h3.8v-8.7h-4v1.4l-0.9-1.4h-3.5v1.8l-0.8-1.8h-5.8c-0.3,0-0.5,0-0.8,0.1c-0.2,0-0.4,0.1-0.6,0.2
            c-0.2,0.1-0.3,0.1-0.5,0.2c-0.2,0.1-0.4,0.2-0.5,0.3v-0.3v-0.4H11.4l-0.5,1.5l-0.5-1.5H6v1.8L5.2-1.2H1.6L0,2.6v4.2v0.8h2.5L3,6.3
            h0.9l0.5,1.3h19.5V6.3l1,1.3h5.4V7.3V6.9c0.1,0.1,0.3,0.2,0.4,0.2c0.1,0.1,0.3,0.1,0.4,0.2c0.2,0.1,0.4,0.1,0.6,0.1
            c0.3,0.1,0.6,0.1,0.9,0.1h3.2l0.5-1.3h0.9l0.5,1.3H43V6.3L43.8,7.6z M50,18.8v-8.2h-0.4H19l-0.8,1.1l-0.8-1.1H8.5v8.7h8.9l0.8-1.1
            l0.8,1.1h5.6v-1.9h-0.1c0.7,0,1.3-0.1,1.9-0.3v2.2h3.9V18l1,1.3H48c0.5,0,0.9-0.1,1.3-0.2C49.6,19,49.8,18.9,50,18.8z"/>
        <g transform="translate(10.3 14.223)">
            <defs>
                <filter id="Adobe_OpacityMaskFilter_1_" filterUnits="userSpaceOnUse" x="-0.4" y="-2.2" width="40.1" height="5.9">
                    <feColorMatrix  type="matrix" values="1 0 0 0 0  0 1 0 0 0  0 0 1 0 0  0 0 0 1 0"/>
                </filter>
            </defs>
            <mask maskUnits="userSpaceOnUse" x="-0.4" y="-2.2" width="40.1" height="5.9" id="bluebox-55x54-d_2_">
                <g class="st4">
                    <polygon id="bluebox-55x54-c_2_" class="st2" points="39.7,3.7 39.7,-2.2 -0.4,-2.2 -0.4,3.7                  "/>
                </g>
            </mask>
            <path class="st5" d="M37.7,2.5h-3v1.2h3c1.3,0,2-0.8,2-1.9c0-1.1-0.7-1.7-1.8-1.7h-1.4c-0.3,0-0.6-0.2-0.6-0.6
                c0-0.4,0.2-0.6,0.6-0.6h2.6l0.5-1.2h-3c-1.3,0-2,0.8-2,1.8c0,1.1,0.7,1.7,1.8,1.7h1.4c0.3,0,0.6,0.2,0.6,0.6
                C38.3,2.2,38.1,2.5,37.7,2.5z M32.1,2.5h-3v1.2h3c1.3,0,2-0.8,2-1.9c0-1.1-0.7-1.7-1.8-1.7h-1.4c-0.3,0-0.6-0.2-0.6-0.6
                c0-0.4,0.2-0.6,0.6-0.6h2.6L34-2.2h-3c-1.3,0-2,0.8-2,1.8c0,1.1,0.7,1.7,1.8,1.7h1.4c0.3,0,0.6,0.2,0.6,0.6
                C32.7,2.2,32.5,2.5,32.1,2.5z M28.2-1v-1.2h-4.7v5.9h4.7V2.5h-3.3V1.3h3.2V0.1h-3.2V-1H28.2z M20.4-1c0.5,0,0.8,0.3,0.8,0.7
                c0,0.4-0.3,0.7-0.8,0.7h-1.7V-1H20.4z M18.7,1.5h0.7l1.8,2.1h1.8l-2-2.2c1-0.2,1.6-0.9,1.6-1.9c0-1.1-0.8-1.9-2-1.9h-3.2v5.9h1.4
                V1.5z M15.1-0.3c0,0.4-0.3,0.7-0.7,0.7h-1.7V-1h1.7C14.8-1,15.1-0.7,15.1-0.3z M11.2-2.2v5.9h1.4V1.7h1.8c1.3,0,2.1-0.8,2.1-2
                c0-1.2-0.8-2-2-2H11.2z M9.2,3.7h1.8l-2.4-3l2.3-2.9H9.2L7.8-0.4L6.3-2.2H4.6l2.4,2.9L4.6,3.7h1.7l1.4-1.9L9.2,3.7z M4.3-1v-1.2
                h-4.7v5.9h4.7V2.5H1V1.3h3.2V0.1H1V-1H4.3z"/>
        </g>
        <path class="st0" d="M41.9,2.6l0-0.5l0.3,0.5l2.3,3.5h1.6V0.3h-1.4v3.4l0,0.4l-0.3-0.4l-2.2-3.4h-1.7v5.9h1.4V2.6z M36.3,2.5
            l0.4-1.1l0.4,1.1l0.5,1.3h-1.9L36.3,2.5z M38.6,6.1h1.6l-2.5-5.9h-1.9l-2.5,5.9h1.5l0.5-1.3h2.8L38.6,6.1z M32.4,6.1L32.4,6.1
            l0.7-1.3h-0.4c-1,0-1.5-0.6-1.5-1.6V3.2c0-0.9,0.5-1.6,1.5-1.6h1.5V0.3h-1.6c-1.8,0-2.8,1.2-2.8,2.9v0.1C29.7,5,30.7,6.1,32.4,6.1
            z M27.4,6.1h1.4V3.6V0.3h-1.4v3.3V6.1z M24.4,1.5c0.5,0,0.8,0.3,0.8,0.7s-0.3,0.7-0.8,0.7h-1.7V1.5H24.4z M22.8,4h0.7l1.8,2.1H27
            L25,4c1-0.2,1.6-0.9,1.6-1.8c0-1.1-0.8-1.9-2-1.9h-3.2v5.9h1.4V4z M20.3,1.5V0.3h-4.7v5.9h4.7V4.9H17V3.8h3.2V2.6H17V1.5H20.3z
             M8.6,2.1l0-1.6l1.6,5.6h1.3l1.6-5.6l0,1.5v4h1.4V0.3H12l-1.1,4.2L9.7,0.3H7.2v5.9h1.4V2.1z M3,2.5l0.4-1.1l0.4,1.1l0.5,1.3H2.5
            L3,2.5z M5.3,6.1h1.6L4.4,0.3H2.5L0,6.1h1.5L2,4.9h2.8L5.3,6.1z"/>
    </g>
</g>
</svg>