<?xml version="1.0" encoding="UTF-8"?>
<svg width="34px" height="28px" viewBox="0 0 34 28" version="1.1" xmlns="http://www.w3.org/2000/svg" xmlns:xlink="http://www.w3.org/1999/xlink">
    <!-- Generator: Sketch 50.2 (55047) - http://www.bohemiancoding.com/sketch -->
    <title>Boleto6 Copy 6</title>
    <desc>Created with Sketch.</desc>
    <defs>
        <polygon id="path-1" points="31.1777778 0.0227319453 33.9927778 0.0227319453 33.9927778 9.37875455 33.9927778 18.7347772 31.1777778 18.7347772"></polygon>
        <polygon id="path-3" points="1 27.5 34.5 27.5 34.5 0 1 0"></polygon>
    </defs>
    <g id="EN-02---Generic---Want-to-increase?" stroke="none" stroke-width="1" fill="none" fill-rule="evenodd">
        <g id="Shopify_Desktop_1_Form" transform="translate(-730.000000, -1906.000000)">
            <g id="Group-13" transform="translate(501.000000, 1723.000000)">
                <g id="Group-2" transform="translate(0.000000, 183.000000)">
                    <g id="Boleto6-Copy-6" transform="translate(228.000000, 0.000000)">
                        <g id="Group-67">
                            <g id="Group-65">
                                <g id="Page-1-Copy-80" transform="translate(0.500000, 0.500000)">
                                    <g id="Group-6" transform="translate(0.500000, 0.000000)">
                                        <path d="M3.81255556,7.48491211 L0.499777778,7.48491211 L0.499777778,23.4897496 C0.499777778,25.4228488 1.92366667,27.0338543 3.81255556,27.3994307 L3.81255556,7.48491211 Z" id="Fill-1" fill="#2E4B75"></path>
                                        <mask id="mask-2" fill="white">
                                            <use xlink:href="#path-1"></use>
                                        </mask>
                                        <g id="Clip-5"></g>
                                    </g>
                                    <mask id="mask-4" fill="white">
                                        <use xlink:href="#path-3"></use>
                                    </mask>
                                    <g id="Clip-8"></g>
                                    <path d="M31.6777778,0.0224655172 L31.6777778,18.7347772 L34.4927778,18.7347772 L34.4927778,3.94215582 C34.4927778,2.15175895 33.3227778,0.626724463 31.6777778,0.0224655172" id="Fill-4" fill="#2E4B75" mask="url(#mask-4)"></path>
                                    <polygon id="Fill-7" fill="#2E4B75" mask="url(#mask-4)" points="5.5 19 9.5 19 9.5 7.5 5.5 7.5"></polygon>
                                    <polygon id="Fill-9" fill="#2E4B75" mask="url(#mask-4)" points="28 19 30.5 19 30.5 7.5 28 7.5"></polygon>
                                    <polygon id="Fill-10" fill="#2E4B75" mask="url(#mask-4)" points="14.5 19 16 19 16 7.5 14.5 7.5"></polygon>
                                    <polygon id="Fill-11" fill="#2E4B75" mask="url(#mask-4)" points="17.5 19 21 19 21 7.5 17.5 7.5"></polygon>
                                    <polygon id="Fill-12" fill="#2E4B75" mask="url(#mask-4)" points="23 19 26.5 19 26.5 7.5 23 7.5"></polygon>
                                    <polygon id="Fill-13" fill="#2E4B75" mask="url(#mask-4)" points="11 19 13 19 13 7.5 11 7.5"></polygon>
                                    <path d="M3.98025574,3.77942293 C3.98025574,3.49648823 3.76814592,3.3158694 3.46239188,3.3158694 L2.51974426,3.3158694 L2.51974426,4.24297646 L3.46239188,4.24297646 C3.76814592,4.24297646 3.98025574,4.04669704 3.98025574,3.77942293 Z M2.51974426,1.25702354 L2.51974426,2.12201025 L3.30105303,2.12201025 C3.56449793,2.12201025 3.78450545,1.97219058 3.78450545,1.6897779 C3.78450545,1.4225038 3.57239564,1.25702354 3.30105303,1.25702354 L2.51974426,1.25702354 Z M5.5,3.8895691 C5.5,4.86365793 4.71079353,5.5 3.50470102,5.5 L1,5.5 L1,0 L3.34336217,0 C4.52350508,0 5.30537796,0.589360289 5.30537796,1.56397115 C5.30537796,2.03535497 5.10060173,2.40442293 4.75310267,2.65603645 C5.21173373,2.90764996 5.5,3.33205201 5.5,3.8895691 Z" id="Fill-14" fill="#2397D4" mask="url(#mask-4)"></path>
                                    <path d="M10.045076,3.00027305 C10.045076,2.07954856 9.37490949,1.43842723 8.5,1.43842723 C7.6256336,1.43842723 6.95546705,2.07954856 6.95546705,3.00027305 C6.95546705,3.92099754 7.6256336,4.56157277 8.5,4.56157277 C9.37490949,4.56157277 10.045076,3.92099754 10.045076,3.00027305 M5.5,3.00027305 C5.5,1.30681715 6.83218682,0 8.5,0 C10.1678132,0 11.5,1.30681715 11.5,3.00027305 C11.5,4.69318285 10.1678132,6 8.5,6 C6.83218682,6 5.5,4.69318285 5.5,3.00027305" id="Fill-15" fill="#2397D4" mask="url(#mask-4)"></path>
                                    <polygon id="Fill-16" fill="#2397D4" mask="url(#mask-4)" points="15.5 4.14066059 15.5 5.5 12 5.5 12 0 13.4914584 0 13.4914584 4.14066059"></polygon>
                                    <polygon id="Fill-17" fill="#2397D4" mask="url(#mask-4)" points="19.5 4.18033409 19.5 5.5 16 5.5 16 0 19.4612374 0 19.4612374 1.31235763 17.3923509 1.31235763 17.3923509 2.07450645 19.2669079 2.07450645 19.2669079 3.37120349 17.3923509 3.37120349 17.3923509 4.18033409"></polygon>
                                    <polygon id="Fill-18" fill="#2397D4" mask="url(#mask-4)" points="24 1.35933941 22.6816859 1.35933941 22.6816859 5.5 21.3178079 5.5 21.3178079 1.35933941 20 1.35933941 20 0 24 0"></polygon>
                                    <path d="M29.0445329,3.00027305 C29.0445329,2.07954856 28.3743664,1.43842723 27.4994569,1.43842723 C26.6250905,1.43842723 25.954924,2.07954856 25.954924,3.00027305 C25.954924,3.92099754 26.6250905,4.56157277 27.4994569,4.56157277 C28.3743664,4.56157277 29.0445329,3.92099754 29.0445329,3.00027305 M24.5,3.00027305 C24.5,1.30681715 25.8321868,0 27.4994569,0 C29.1678132,0 30.5,1.30681715 30.5,3.00027305 C30.5,4.69318285 29.1678132,6 27.4994569,6 C25.8321868,6 24.5,4.69318285 24.5,3.00027305" id="Fill-19" fill="#2397D4" mask="url(#mask-4)"></path>
                                    <polygon id="Fill-20" fill="#2397D4" mask="url(#mask-4)" points="10 25.4398111 10 27 5.5 27 5.5 20.5 9.94969857 20.5 9.94969857 22.0507428 7.28993971 22.0507428 7.28993971 22.9512756 9.70045215 22.9512756 9.70045215 24.4836509 7.28993971 24.4836509 7.28993971 25.4398111"></polygon>
                                    <path d="M13.8112936,24.9662899 C13.8112936,24.6319742 13.5756105,24.4188938 13.2359497,24.4188938 L12.1887064,24.4188938 L12.1887064,25.5142107 L13.2359497,25.5142107 C13.5756105,25.5142107 13.8112936,25.2822366 13.8112936,24.9662899 Z M12.1887064,21.9857893 L12.1887064,23.0071054 L13.0567879,23.0071054 C13.3489922,23.0071054 13.5942732,22.830763 13.5942732,22.4964473 C13.5942732,22.1805006 13.3580569,21.9857893 13.0567879,21.9857893 L12.1887064,21.9857893 Z M15.5,25.0964473 C15.5,26.2479209 14.6223206,27 13.282873,27 L10.5,27 L10.5,20.5 L13.1037112,20.5 C14.4154314,20.5 15.2829796,21.1964473 15.2829796,22.3479209 C15.2829796,22.9047638 15.0568945,23.3414211 14.6697771,23.638474 C15.1790018,23.9355268 15.5,24.4372628 15.5,25.0964473 Z" id="Fill-21" fill="#2397D4" mask="url(#mask-4)"></path>
                                    <path d="M19.4288505,24.6321653 L18.7497299,22.4222913 L18.0808744,24.6321653 L19.4288505,24.6321653 Z M19.8680908,26.0622073 L17.6410938,26.0622073 L17.35421,27 L15.5,27 L17.7075472,20.5 L19.7919126,20.5 L22,27 L20.1549746,27 L19.8680908,26.0622073 Z" id="Fill-22" fill="#2397D4" mask="url(#mask-4)"></path>
                                    <polygon id="Fill-23" fill="#2397D4" mask="url(#mask-4)" points="28 20.5 28 27 26.6540736 27 24.2455156 23.7313686 24.2455156 27 22.5 27 22.5 20.5 23.8552961 20.5 26.2644053 23.7686314 26.2644053 20.5"></polygon>
                                    <polygon id="Fill-24" fill="#2397D4" mask="url(#mask-4)" points="32.5673523 27 31.5051879 25.2727897 30.4419314 27 28.5 27 30.5385911 23.6851837 28.5770001 20.5 30.5194776 20.5 31.5051879 22.1064998 32.4903522 20.5 34.4322836 20.5 32.4706926 23.6941058 34.5 27"></polygon>
                                </g>
                            </g>
                        </g>
                    </g>
                </g>
            </g>
        </g>
    </g>
</svg>