<?xml version="1.0" encoding="UTF-8"?>
<svg width="47px" height="28px" viewBox="0 0 47 28" version="1.1" xmlns="http://www.w3.org/2000/svg" xmlns:xlink="http://www.w3.org/1999/xlink">
    <!-- Generator: Sketch 50.2 (55047) - http://www.bohemiancoding.com/sketch -->
    <title>DinersClub7</title>
    <desc>Created with Sketch.</desc>
    <defs>
        <polygon id="path-1" points="0 0.320527841 23.082879 0.320527841 23.082879 18.8214286 0 18.8214286"></polygon>
    </defs>
    <g id="Page-1" stroke="none" stroke-width="1" fill="none" fill-rule="evenodd">
        <g id="payment-methods-BR" transform="translate(-540.000000, -440.000000)">
            <g id="Group-4" transform="translate(99.000000, 128.000000)">
                <g id="bra-credit-copy" transform="translate(269.000000, 311.000000)">
                    <g id="DinersClub7" transform="translate(172.500000, 1.500000)">
                        <g id="Group-24">
                            <g id="Group-16" transform="translate(0.000000, 18.821429)" fill="#4A4A4A">
                                <path d="M1.82542571,6.62743861 C1.82542571,7.36016421 2.35501305,7.44577159 2.82648062,7.44577159 C4.90298373,7.44577159 5.5855423,5.89425275 5.5855423,4.4762078 C5.5855423,2.69640259 4.43151616,1.41183152 2.57633313,1.41183152 C2.18065374,1.41183152 1.99978502,1.43990706 1.82542571,1.45049292 L1.82542571,6.62743861 Z M0.882955534,2.16250705 C0.882955534,1.30643317 0.432411083,1.36304451 0,1.35475993 L0,1.10714286 C0.373826356,1.12555305 0.758346749,1.12555305 1.1344979,1.12555305 C1.53715166,1.12555305 2.08533732,1.10714286 2.79811817,1.10714286 C5.28750412,1.10714286 6.64285714,2.75209342 6.64285714,4.43800665 C6.64285714,5.38060843 6.08630223,7.75 2.68234359,7.75 C2.19274265,7.75 1.73987341,7.73205006 1.28793409,7.73205006 C0.855058045,7.73205006 0.432411083,7.7407949 0,7.75 L0,7.5037637 C0.575618194,7.44577159 0.855058045,7.42644089 0.882955534,6.77978294 L0.882955534,2.16250705 Z" id="Fill-6"></path>
                                <path d="M8.30407195,1.54931294 C8.03429346,1.54931294 7.79654805,1.30589856 7.79654805,1.04187247 C7.79654805,0.787661474 8.04480431,0.553571429 8.30407195,0.553571429 C8.57234888,0.553571429 8.81109532,0.768031282 8.81109532,1.04187247 C8.81109532,1.31571365 8.58285973,1.54931294 8.30407195,1.54931294 Z M7.19642857,7.48597391 L7.39313162,7.48597391 C7.68243025,7.48597391 7.88864312,7.48597391 7.88864312,7.15078837 L7.88864312,4.40108916 C7.88864312,3.95499303 7.7349845,3.89168566 7.35108822,3.69047619 L7.35108822,3.5285271 C7.83759042,3.3852267 8.41818974,3.19383232 8.45923211,3.16242401 C8.53130651,3.12267287 8.59337058,3.11236702 8.64592483,3.11236702 C8.69597649,3.11236702 8.71799923,3.17322062 8.71799923,3.25419516 L8.71799923,7.15078837 C8.71799923,7.48597391 8.94523379,7.48597391 9.23553345,7.48597391 L9.41071429,7.48597391 L9.41071429,7.75 C9.05835056,7.75 8.69597649,7.7293883 8.32509365,7.7293883 C7.95170821,7.7293883 7.5788233,7.73969415 7.19642857,7.75 L7.19642857,7.48597391 Z" id="Fill-8"></path>
                                <path d="M10.6193257,4.60969766 C10.6193257,4.25119426 10.5094325,4.15418745 10.0444261,3.97095238 L10.0444261,3.78631141 C10.470562,3.6508768 10.8765428,3.52434618 11.3540262,3.32142857 C11.3842588,3.32142857 11.412092,3.34111111 11.412092,3.41749811 L11.412092,4.04733938 C11.9788336,3.6508768 12.4654347,3.32142857 13.131512,3.32142857 C13.9737062,3.32142857 14.2721933,3.92174603 14.2721933,4.67764928 L14.2721933,7.17733182 C14.2721933,7.49740741 14.4900601,7.49740741 14.7674323,7.49740741 L14.9464286,7.49740741 L14.9464286,7.75 C14.5985136,7.75 14.2505986,7.73031746 13.8954853,7.73031746 C13.536533,7.73031746 13.1795002,7.74015873 12.8229473,7.75 L12.8229473,7.49740741 L13.000504,7.49740741 C13.2793158,7.49740741 13.4770275,7.49740741 13.4770275,7.17733182 L13.4770275,4.66874528 C13.4770275,4.11482237 13.131512,3.84442177 12.5647704,3.84442177 C12.247088,3.84442177 11.7408117,4.09654573 11.412092,4.30930461 L11.412092,7.17733182 C11.412092,7.49740741 11.6323582,7.49740741 11.9092506,7.49740741 L12.0887267,7.49740741 L12.0887267,7.75 C11.7408117,7.75 11.3928967,7.73031746 11.0363438,7.73031746 C10.6797909,7.73031746 10.3208386,7.74015873 9.96428571,7.75 L9.96428571,7.49740741 L10.1442418,7.49740741 C10.4211341,7.49740741 10.6193257,7.49740741 10.6193257,7.17733182 L10.6193257,4.60969766 Z" id="Fill-10"></path>
                                <path d="M17.2172317,4.71944733 C17.4380339,4.71944733 17.4640859,4.59697327 17.4640859,4.48493218 C17.4640859,4.00728333 17.1903254,3.62262405 16.6949085,3.62262405 C16.1563562,3.62262405 15.7852206,4.04357194 15.679731,4.71944733 L17.2172317,4.71944733 Z M15.654106,5.01973559 C15.6348872,5.10546744 15.6348872,5.24472498 15.654106,5.56406476 C15.7057831,6.45495018 16.2460437,7.1861657 16.9515857,7.1861657 C17.4380339,7.1861657 17.8181382,6.90492896 18.14443,6.55882633 L18.2678571,6.68991894 C17.8608465,7.26237178 17.3577422,7.75 16.6342627,7.75 C15.2291579,7.75 14.9464286,6.30480605 14.9464286,5.70468313 C14.9464286,3.86575774 16.1127937,3.32142857 16.7307835,3.32142857 C17.4461484,3.32142857 18.2153259,3.80043824 18.2230134,4.7947462 C18.2230134,4.85190076 18.2230134,4.90678729 18.2153259,4.96394185 L18.1354613,5.01973559 L15.654106,5.01973559 Z" id="Fill-12"></path>
                                <path d="M18.2678571,7.49792939 L18.5311038,7.49792939 C18.803298,7.49792939 18.9973188,7.49792939 18.9973188,7.17651593 L18.9973188,4.45527779 C18.9973188,4.15494831 18.6375327,4.09591319 18.4920171,4.01860528 L18.4920171,3.87476573 C19.2026417,3.57349918 19.5920961,3.32142857 19.6811007,3.32142857 C19.7380826,3.32142857 19.766809,3.3504776 19.766809,3.44746388 L19.766809,4.32034037 L19.7884715,4.32034037 C20.0300556,3.94129738 20.4402306,3.32142857 21.0340661,3.32142857 C21.2775339,3.32142857 21.5892857,3.48588356 21.5892857,3.83540898 C21.5892857,4.09591319 21.4046834,4.32971102 21.1315474,4.32971102 C20.8287431,4.32971102 20.8287431,4.09591319 20.487323,4.09591319 C20.3229705,4.09591319 19.7776402,4.32034037 19.7776402,4.90085243 L19.7776402,7.17651593 C19.7776402,7.49792939 19.971661,7.49792939 20.2438552,7.49792939 L20.7891855,7.49792939 L20.7891855,7.75 C20.2537446,7.74016081 19.8468661,7.73032163 19.4263307,7.73032163 C19.026987,7.73032163 18.6191666,7.74016081 18.2678571,7.75 L18.2678571,7.49792939 Z" id="Fill-14"></path>
                                <path d="M22.3392885,6.30481557 C22.4814775,6.92418033 22.9159437,7.44961944 23.7122019,7.44961944 C24.3541586,7.44961944 24.5932467,7.11203162 24.5932467,6.78351874 C24.5932467,5.67682963 22.2186913,6.03302108 22.2186913,4.52204333 C22.2186913,3.99705796 22.7100331,3.32142857 23.90758,3.32142857 C24.2556796,3.32142857 24.7243765,3.40582553 25.1488369,3.59276932 L25.2251976,4.5497219 L24.9745238,4.5497219 C24.8655122,3.95894321 24.4852885,3.62180913 23.788036,3.62180913 C23.3514632,3.62180913 22.938062,3.83733899 22.938062,4.23981265 C22.938062,5.3392418 25.4642857,5.00029274 25.4642857,6.47360948 C25.4642857,7.09206674 24.8876305,7.75 23.5921312,7.75 C23.1566117,7.75 22.6436782,7.6188671 22.2629278,7.43146956 L22.1428571,6.35200527 L22.3392885,6.30481557 Z" id="Fill-16"></path>
                                <path d="M33.7579765,2.49129203 L33.515666,2.49129203 C33.3293458,1.33554255 32.5224284,0.869514527 31.432737,0.869514527 C30.3134038,0.869514527 28.6878063,1.63141059 28.6878063,4.0036127 C28.6878063,6.00155847 30.0899135,7.43357892 31.5884744,7.43357892 C32.5511292,7.43357892 33.349107,6.76249858 33.5438964,5.72337559 L33.7678571,5.78360075 L33.5438964,7.22518075 C33.1354974,7.48376656 32.0359254,7.75 31.393685,7.75 C29.1178486,7.75 27.6785714,6.25775438 27.6785714,4.03372528 C27.6785714,2.00662289 29.4575538,0.553571429 31.3649842,0.553571429 C32.1530813,0.553571429 32.9115366,0.8107233 33.6601113,1.07839067 L33.7579765,2.49129203 Z" id="Fill-18"></path>
                                <path d="M34.3214286,7.48614099 L34.5175868,7.48614099 C34.8078208,7.48614099 35.0149879,7.48614099 35.0149879,7.14969624 L35.0149879,1.50174029 C35.0149879,0.842583217 34.8603632,0.821984559 34.4675464,0.711144159 L34.4675464,0.548316669 C34.8798789,0.417368055 35.3147296,0.23443235 35.5314044,0.112311733 C35.644996,0.0519870902 35.7290638,0 35.759088,0 C35.8221388,0 35.8431558,0.0617959752 35.8431558,0.142719276 L35.8431558,7.14969624 C35.8431558,7.48614099 36.070339,7.48614099 36.3595722,7.48614099 L36.5357143,7.48614099 L36.5357143,7.75 C36.184431,7.75 35.8221388,7.72940134 35.4488378,7.72940134 C35.0770379,7.72940134 34.7052381,7.73970067 34.3214286,7.75 L34.3214286,7.48614099 Z" id="Fill-20"></path>
                                <path d="M40.8345003,7.07095238 C40.8345003,7.24575208 40.9457218,7.25559335 41.1152254,7.25559335 C41.2361606,7.25559335 41.3857512,7.24575208 41.5178571,7.24575208 L41.5178571,7.45007559 C41.0846273,7.4885034 40.2609079,7.69235828 40.0705199,7.75 L40.0200088,7.72094482 L40.0200088,6.93692366 C39.4177611,7.41071051 38.9549045,7.75 38.2419209,7.75 C37.699898,7.75 37.1374763,7.41071051 37.1374763,6.59716553 L37.1374763,4.11529101 C37.1374763,3.86316704 37.0981359,3.62088435 36.5357143,3.57261527 L36.5357143,3.38844293 C36.8980343,3.37953893 37.699898,3.32142857 37.8310326,3.32142857 C37.9422541,3.32142857 37.9422541,3.38844293 37.9422541,3.60260771 L37.9422541,6.10182162 C37.9422541,6.39331066 37.9422541,7.22606954 38.815999,7.22606954 C39.1564632,7.22606954 39.6091204,6.97488284 40.0302081,6.63653061 L40.0302081,4.02812547 C40.0302081,3.83504913 39.5479243,3.72866969 39.1870613,3.63166289 L39.1870613,3.45686319 C40.0899472,3.39781557 40.6533403,3.32142857 40.7533911,3.32142857 C40.8345003,3.32142857 40.8345003,3.38844293 40.8345003,3.49622827 L40.8345003,7.07095238 Z" id="Fill-22"></path>
                                <path d="M42.7770191,6.47573087 C42.7770191,6.85334554 43.1183472,7.49120166 43.7511309,7.49120166 C44.7641341,7.49120166 45.1891927,6.44590652 45.1891927,5.56031593 C45.1891927,4.48615853 44.4145702,3.59094718 43.6756361,3.59094718 C43.3246996,3.59094718 43.0327864,3.83098504 42.7770191,4.059478 L42.7770191,6.47573087 Z M42.7770191,3.77037428 C43.1554082,3.43172367 43.6669428,3.05410899 44.1876282,3.05410899 C45.285277,3.05410899 45.9464286,4.059478 45.9464286,5.14277512 C45.9464286,6.44590652 45.0377456,7.75 43.6852446,7.75 C42.9847442,7.75 42.6159635,7.50996214 42.3698047,7.40172863 L42.0861272,7.63022159 L41.8880105,7.52054497 C41.9721986,6.93415989 42.0202408,6.35691453 42.0202408,5.7508069 L42.0202408,1.47293774 C42.0202408,0.825941903 41.877487,0.805738315 41.5178571,0.697023773 L41.5178571,0.536838185 C41.8976189,0.407920055 42.2952249,0.228973993 42.4933416,0.110157656 C42.5967466,0.0495468934 42.6722415,0 42.7010667,0 C42.7587173,0 42.7770191,0.0591676494 42.7770191,0.139982 L42.7770191,3.77037428 Z" id="Fill-24"></path>
                            </g>
                            <g id="Group-3" transform="translate(11.625000, 0.000000)">
                                <mask id="mask-2" fill="white">
                                    <use xlink:href="#path-1"></use>
                                </mask>
                                <g id="Clip-2"></g>
                                <path d="M13.522944,18.8215227 C18.520764,18.84552 23.082879,14.6968066 23.082879,9.65078161 C23.082879,4.13186821 18.520764,0.31817625 13.522944,0.320528929 L9.221694,0.320528929 C4.163424,0.31817625 -0.000186,4.13327982 -0.000186,9.65078161 C-0.000186,14.6991593 4.163424,18.84552 9.221694,18.8215227 L13.522944,18.8215227 Z" id="Fill-1" fill="#004A98" mask="url(#mask-2)"></path>
                                <path d="M11.2933493,14.3238395 L11.2933493,4.49805043 C13.2680283,5.25604515 14.6710654,7.16787113 14.674295,9.41048361 C14.6710654,11.6535574 13.2680283,13.5644607 11.2933493,14.3238395 M4.14713353,9.41048361 C4.15174727,7.16925518 5.55109341,5.25835189 7.52577243,4.49943448 L7.52577243,14.3215327 C5.55109341,13.5630767 4.15174727,11.6526347 4.14713353,9.41048361 M9.41002223,1.10714286 C4.82442998,1.10806555 1.10852698,4.8246848 1.10714286,9.41048361 C1.10852698,13.9967438 4.82442998,17.7129017 9.41002223,17.7142857 C13.9969986,17.7129017 17.7129016,13.9967438 17.7142857,9.41048361 C17.7129016,4.8246848 13.9969986,1.10806555 9.41002223,1.10714286" id="Fill-4" fill="#FEFEFE" mask="url(#mask-2)"></path>
                            </g>
                        </g>
                    </g>
                </g>
            </g>
        </g>
    </g>
</svg>