<svg width="317" height="115" viewBox="0 0 317 115" fill="none" xmlns="http://www.w3.org/2000/svg">
<g clip-path="url(#clip0_1380_2323)">
<path fill-rule="evenodd" clip-rule="evenodd" d="M258.268 46.1887L258.374 67.8017C258.532 69.8597 258.796 71.0183 259.217 71.9136C262.121 78.2942 272.251 77.7108 278.163 73.8622L275.576 68.4336C273.626 69.171 271.355 70.755 268.609 69.9083C266.18 69.171 266.338 66.323 266.338 63.475V46.0266L282.644 46.0793L295.783 75.9688C296.047 77.2855 293.143 82.4548 292.511 83.2974C287.973 89.678 283.751 86.988 280.11 86.198L278.317 92.684C285.232 95.3213 292.458 94.3166 296.521 89.9413C300.11 86.04 302.166 80.5588 304.437 74.4415L316.996 39.6987H308.659L299.741 66.323C298.845 65.3223 292.036 48.2426 290.771 45.342C289.084 41.388 286.602 39.7027 281.326 39.6501C276.367 39.5974 271.407 39.6501 266.338 39.6501V28.8942C264.599 29.3155 259.582 30.7902 258.317 31.4789V39.4921L251.825 39.5974L251.877 46.0307L258.264 46.1887H258.268ZM166.608 39.5974L166.714 31.5842C166.608 28.7362 169.196 24.3609 172.675 22.7283C175.895 21.2537 182.067 21.1484 185.129 23.1496L183.653 29.4776C174.524 27.4763 174.577 29.1616 174.577 39.5974H184.496L181.909 45.9253L174.52 45.978V75.8149C173.044 75.9729 167.87 76.0782 166.552 75.7096V46.0307L162.541 45.9253L160.059 39.6501L166.604 39.5974H166.608ZM220.275 58.6825C220.75 79.9795 243.97 78.8209 250.194 73.1816C249.984 72.2863 248.402 68.2797 247.871 67.7531C243.597 69.491 239.428 71.4963 234.258 68.9117C226.236 64.9577 226.816 49.9846 234.943 46.294C238.11 44.872 242.437 44.9774 245.709 46.3993C246.869 46.926 247.713 47.5053 248.666 47.9266V41.0194C243.917 39.1234 240.434 37.8554 234.42 39.2287C225.344 41.3394 220.064 49.6159 220.279 58.6825M135.687 53.9386C136.267 49.0893 138.117 45.0827 143.287 44.9774C148.299 44.872 150.676 49.0366 150.886 53.9912L135.687 53.9386ZM158.007 73.1816L155.736 67.9111C153.624 68.4904 152.306 69.5437 149.56 70.0217C142.435 71.233 135.947 67.911 135.789 59.7925H159.009C159.009 51.6739 157.586 42.3441 148.506 39.4961C144.337 38.1268 139.22 38.6535 135.736 40.7074C123.177 48.2467 123.81 76.9249 145.866 76.6616C150.14 76.6089 155.522 75.4503 158.003 73.1816M192.781 54.0439C193.203 49.142 195.421 45.0827 200.486 45.03C205.34 45.03 207.822 49.2473 207.874 54.0439H192.781ZM184.707 59.2618C185.55 72.7036 196.001 79.0315 208.771 76.0255C211.621 75.3409 212.939 74.2876 215.052 73.5462L212.781 67.907C209.561 68.9076 205.393 71.7029 199.537 69.645C195.684 68.2757 192.992 64.901 192.834 59.8411L216.106 59.7884C216.106 49.1906 212.939 38.8074 200.697 38.7548C188.77 38.5968 184.074 48.6639 184.707 59.2618Z" fill="#010203"/>
<path fill-rule="evenodd" clip-rule="evenodd" d="M69.4414 0.879883C37.6486 0.879883 7.07225 26.4023 1.02998 57.8799C-4.97173 89.398 15.9126 114.88 47.6649 114.88C79.4172 114.88 110.034 89.398 116.036 57.8799C122.038 26.3618 101.153 0.879883 69.4414 0.879883ZM111.21 57.8799C106.06 84.8202 81.2826 107.021 54.356 109.816C52.2068 109.735 52.1662 108.56 52.1257 106.737C52.2473 103.01 52.369 99.2424 52.4501 95.5153C52.4906 94.9481 52.2879 94.7861 52.0446 94.705C49.287 94.4215 46.57 93.8138 43.853 92.963C40.9333 91.8287 38.0135 90.1677 35.0938 88.2637C33.7555 87.6155 33.9178 84.4961 33.9583 83.2807C34.2016 81.0526 35.8237 75.9481 38.4596 75.705C41.5821 75.543 43.0825 77.204 46.2051 78.7029C51.6796 81.2957 59.3034 82.7946 64.9401 80.1613C67.6571 78.5004 68.306 76.2722 67.0488 73.4364C64.8185 68.8181 54.2344 65.0099 49.4492 62.7008C37.9324 57.7989 31.5252 47.8735 33.5528 36.0441C35.0532 27.334 43.2447 20.6901 51.8012 19.4748V15.3831C41.2171 18.462 33.1878 24.5387 25.9695 31.5878C15.5071 41.7967 9.34317 54.72 8.85654 71.2082C9.66759 91.3831 20.1706 100.336 31.1602 107.021C12.3035 99.7285 1.51661 80.4854 5.85569 57.8799C11.1275 30.2104 37.1214 7.56432 64.8996 5.74129C65.9945 6.38948 66.0756 6.51101 66.6433 7.96944C66.4 11.4534 66.1972 14.9375 65.9539 18.4215C71.4285 19.5153 76.6191 21.0952 80.796 24.6198C80.9177 32.6411 74.916 35.963 72.645 34.7477C72.7667 34.3831 63.6019 31.8308 61.696 31.3852C59.3845 31.0206 57.1136 31.1421 54.8021 32.1954C52.1257 33.4513 50.828 35.3554 52.1257 38.3532C53.2206 40.5814 55.0454 41.9993 57.073 43.2551C62.8314 46.3746 68.5898 49.494 74.3888 52.6134C79.3767 55.4087 82.9047 59.0142 85.2162 63.43C86.8788 67.7647 87.2438 72.1805 86.2705 76.6773C85.1351 80.3234 83.7563 83.5238 81.6476 85.5089C79.9039 87.494 77.9574 89.0739 75.8892 90.1677C72.9695 91.7072 70.0091 93.0846 66.9677 93.5707C66.8866 95.4343 66.8055 97.2573 66.6839 99.1208C66.9272 99.2424 67.1705 99.2018 67.4544 99.1208C73.9833 97.0142 79.7011 93.3276 85.2973 89.2765C92.5561 82.8756 99.3283 76.1912 102.856 67.5622C105.289 62.7413 107.155 57.3937 108.047 51.1144C109.994 33.5323 103.586 16.963 84.5674 8.29353C104.235 15.1805 115.63 34.7882 111.21 57.8799Z" fill="#010203"/>
</g>
<defs>
<clipPath id="clip0_1380_2323">
<rect width="317" height="114" fill="white" transform="translate(0 0.879883)"/>
</clipPath>
</defs>
</svg>
