<?xml version="1.0" encoding="UTF-8"?>
<svg width="29px" height="29px" viewBox="0 0 29 29" version="1.1" xmlns="http://www.w3.org/2000/svg" xmlns:xlink="http://www.w3.org/1999/xlink">
    <!-- Generator: Sketch 50.2 (55047) - http://www.bohemiancoding.com/sketch -->
    <title>Group 74</title>
    <desc>Created with Sketch.</desc>
    <defs></defs>
    <g id="Page-1" stroke="none" stroke-width="1" fill="none" fill-rule="evenodd">
        <g id="payment-methods-BR" transform="translate(-601.000000, -439.000000)">
            <g id="Group-4" transform="translate(99.000000, 128.000000)">
                <g id="bra-credit-copy" transform="translate(269.000000, 311.000000)">
                    <g id="Group-74" transform="translate(233.000000, 0.000000)">
                        <circle id="Oval-2" fill="#000000" cx="14.5" cy="14.5" r="14.5"></circle>
                        <g id="Page-1" transform="translate(3.910112, 8.797753)">
                            <path d="M6.07822018,8.12329176 C5.60954348,8.57630478 4.97396151,8.85231271 4.27220453,8.84239576 C3.79119865,8.83439553 3.34550287,8.69130808 2.9665692,8.45288457 L2.027119,9.94026064 C2.67050106,10.3443556 3.42912325,10.5834458 4.24695906,10.5960295 C5.43743814,10.6136133 6.52249013,10.1489333 7.31147398,9.38166125 L6.07822018,8.12329176 Z" id="Fill-8" fill="#FEFEFE"></path>
                            <path d="M1.79959944,6.59394781 C1.7889477,6.49511164 1.78139922,6.3937754 1.78425086,6.29152246 C1.80656081,4.90364924 2.95594262,3.79620075 4.35165647,3.81920141 C5.11136899,3.82928504 5.78595144,4.17496164 6.24196347,4.70997701 L1.79959944,6.59394781 Z M4.37723743,2.0637343 C2.00827296,2.02764993 0.055984556,3.9080373 0.0202550865,6.26368832 C0.00641620754,7.14654703 0.263148381,7.97207075 0.714882941,8.65825713 L8.49141035,5.35566223 C8.05385016,3.49444208 6.38790074,2.09506854 4.37723743,2.0637343 Z" id="Fill-10" fill="#FEFEFE"></path>
                            <path d="M10.9308357,0.141412397 L10.9308357,8.37881577 L12.3694081,8.9713328 L11.6888708,10.5960462 L10.266234,10.0084459 C9.94634622,9.87060864 9.7298726,9.6606026 9.56539962,9.42342912 C9.40746866,9.18075548 9.29038335,8.84907928 9.29038335,8.40148309 L9.29038335,0.141412397 L10.9308357,0.141412397 Z" id="Fill-12" fill="#FEFEFE"></path>
                            <path d="M16.1168927,3.94808012 C16.3685087,3.86416104 16.6378216,3.81915975 16.918038,3.81915975 C18.1405562,3.81915975 19.1602719,4.68176787 19.3937715,5.82830081 L21.1265669,5.47737406 C20.7290975,3.52915141 18.9957989,2.06260927 16.918038,2.06260927 C16.4418967,2.06260927 15.9843749,2.13961148 15.557131,2.28136556 L16.1168927,3.94808012 Z" id="Fill-14" fill="#FFF100"></path>
                            <path d="M14.0729993,9.52550705 L15.2438523,8.20988592 C14.7209104,7.7498727 14.391629,7.07802006 14.391629,6.32916521 C14.391629,5.58106038 14.7209104,4.90962441 15.2433491,4.4498612 L14.0716573,3.13424006 C13.1833691,3.91592919 12.6236912,5.05812868 12.6236912,6.32916521 C12.6236912,7.60178511 13.1837884,8.74356792 14.0729993,9.52550705" id="Fill-16" fill="#00A4DF"></path>
                            <path d="M19.3937967,6.83337136 C19.1589551,7.97823759 18.1394071,8.84009569 16.9179793,8.84009569 C16.6375952,8.84009569 16.3681145,8.79434438 16.1160791,8.71067531 L15.5549755,10.3768065 C15.9833936,10.5192273 16.4415025,10.5964795 16.9179793,10.5964795 C18.993895,10.5964795 20.7266904,9.13193741 21.1260888,7.18588149 L19.3937967,6.83337136 Z" id="Fill-18" fill="#EE4123"></path>
                        </g>
                    </g>
                </g>
            </g>
        </g>
    </g>
</svg>