<svg width="68" height="13" viewBox="0 0 68 13" fill="none" xmlns="http://www.w3.org/2000/svg">
<g clip-path="url(#clip0_945_2828)">
<mask id="mask0_945_2828" style="mask-type:luminance" maskUnits="userSpaceOnUse" x="0" y="0" width="46" height="12">
<path d="M0.850586 0.875H45.8506V11.5114H0.850586V0.875Z" fill="#971B1E"/>
</mask>
<g mask="url(#mask0_945_2828)">
<path fill-rule="evenodd" clip-rule="evenodd" d="M33.7334 7.89326C33.1227 8.48352 31.4088 8.65087 31.5848 7.24073C31.7305 6.06929 33.0216 5.82022 34.4203 5.98886C34.3166 6.62972 34.1984 7.44311 33.7334 7.89326ZM31.8054 3.32296C31.7463 3.64598 31.6583 3.93917 31.5848 4.24792C32.2835 4.07538 34.4597 3.54479 34.6699 4.46586C34.7395 4.77202 34.62 5.09763 34.5306 5.33633C32.5632 5.15212 30.9609 5.47514 30.538 6.85933C30.2569 7.78689 30.5708 8.69887 31.1724 8.95443C32.3308 9.4448 33.7413 8.88308 34.2286 8.1112C34.1787 8.37844 34.1301 8.64828 34.1458 8.98168H35.165C35.1768 8.0178 35.3187 7.23684 35.4684 6.37026C35.5958 5.63081 35.8375 4.90045 35.7994 4.24792C35.7114 2.75475 33.2068 3.28274 31.8054 3.32296ZM42.0234 8.35509C41.2262 8.37325 40.8283 7.88548 40.8112 7.07728C40.7797 5.66195 41.4075 4.08965 42.6827 3.94954C43.2777 3.88338 43.7085 4.0196 44.1432 4.16619C43.7439 5.75665 43.8871 8.31617 42.0234 8.35509ZM44.6672 0.875C44.5648 1.75455 44.4295 2.59908 44.2535 3.40469C41.3484 2.49659 39.5661 4.60726 39.5989 7.21349C39.6055 7.71683 39.6935 8.21628 40.0127 8.57303C40.563 9.18794 42.1351 9.33453 42.9323 8.81822C43.0859 8.71833 43.2422 8.53671 43.3434 8.40958C43.4208 8.31488 43.543 8.0671 43.564 8.13845C43.5233 8.41477 43.4603 8.67033 43.4537 8.98168H44.5293C44.7355 6.04854 45.3765 3.5435 45.8506 0.875H44.6672ZM14.3442 7.9205C13.7124 8.58341 12.1534 8.57303 12.0326 7.45738C11.9788 6.9722 12.1626 6.46366 12.252 5.96162C12.3439 5.45438 12.4096 4.96661 12.5002 4.52034C13.124 3.76792 14.9575 3.67712 15.144 4.92769C15.3055 6.01481 14.8708 7.37176 14.3442 7.9205ZM15.2819 3.32296C14.2785 2.95194 13.0584 3.39561 12.5278 3.81722C12.5291 3.83668 12.5159 3.83928 12.5002 3.84057C12.5094 3.83279 12.5186 3.82501 12.5278 3.81722C12.5278 3.81592 12.5278 3.81463 12.5278 3.81333C12.5356 3.63171 12.6013 3.50458 12.6105 3.32296H11.5913C11.1658 6.1134 10.6641 8.826 10.1322 11.5114H11.3155C11.4876 10.4658 11.5992 9.36178 11.8396 8.38363C12.1101 9.41237 13.8753 9.21648 14.6213 8.81822C16.1579 7.99704 17.3439 4.08835 15.2819 3.32296ZM20.9005 5.28185H18.1175C18.2068 4.65007 18.782 3.95603 19.6883 3.9223C20.5419 3.88987 21.1527 4.23105 20.9005 5.28185ZM19.771 3.21399C18.9147 3.28015 18.1923 3.52274 17.6762 4.05722C17.0471 4.71364 16.5362 6.16399 16.6859 7.48462C16.9 9.36956 19.2759 9.3021 21.1737 8.84546C21.2078 8.51466 21.2879 8.23185 21.3392 7.9205C20.5577 8.2098 19.1984 8.61325 18.392 8.1112C17.7852 7.7311 17.7812 6.76982 17.9809 5.93438C19.2575 5.89416 20.5853 5.90194 21.8632 5.93438C21.9433 5.34282 22.1771 4.69677 21.9735 4.1117C21.7056 3.33982 20.7468 3.14004 19.771 3.21399ZM9.35991 3.32296C9.32839 3.32815 9.33102 3.36577 9.33364 3.40469C9.07228 5.33244 8.71899 7.16938 8.34205 8.98168H9.5254C9.8104 7.04095 10.1361 5.14174 10.5446 3.32296H9.35991ZM40.2609 3.3502C39.2141 2.83389 38.342 3.70047 38.0019 4.22067C38.0991 3.95473 38.1043 3.59668 38.1936 3.32296H37.1482C36.8658 5.26628 36.5257 7.15122 36.129 8.98168H37.3413C37.3491 8.23185 37.4976 7.67662 37.6171 6.94106C37.8679 5.37136 38.2409 3.64858 40.0954 4.16619C40.1571 3.90154 40.1821 3.59928 40.2609 3.3502ZM26.9591 7.64808C26.8501 7.37046 26.8212 6.90993 26.8487 6.56096C26.9092 5.77481 27.1981 4.81742 27.6473 4.38413C28.2646 3.78609 29.4834 3.88468 30.4566 4.22067C30.4855 3.89765 30.5525 3.60836 30.5932 3.29572C28.9987 3.03886 27.4857 3.19842 26.6833 4.03127C25.8979 4.84466 25.383 6.71533 25.7468 7.89326C26.1724 9.27097 28.0833 9.34621 29.6305 8.81822C29.6988 8.5419 29.7342 8.23315 29.7959 7.94775C28.9488 8.38104 27.3347 8.60676 26.9591 7.64808ZM26.2984 3.32296C25.2477 2.90394 24.423 3.61225 24.0394 4.27516C24.1261 3.98068 24.1616 3.63431 24.2325 3.32296H23.1858C22.9283 5.28314 22.5527 7.12268 22.1942 8.98168H23.3788C23.5443 7.87769 23.6165 6.39102 23.9843 5.33633C24.2785 4.4931 25.0494 3.77441 26.1592 4.16619C26.1763 3.85614 26.2643 3.61874 26.2984 3.32296ZM7.21255 1.03846C7.04313 2.12298 6.85269 3.18545 6.66225 4.24792C5.43556 4.26089 4.18261 4.30759 2.99926 4.22067C3.22253 3.18156 3.38276 2.07887 3.60472 1.03846H2.28347C1.80935 3.69009 1.37987 6.38453 0.850586 8.98168H2.20073C2.41087 7.64937 2.6105 6.3028 2.88894 5.03666C4.03945 5.00942 5.41717 4.96012 6.52434 5.0639C6.29451 6.38064 6.02001 7.64937 5.80724 8.98168H7.15739C7.5908 6.29113 8.04654 3.62263 8.58896 1.03846H7.21255ZM10.5722 2.23584C10.8086 2.07498 11.1119 1.34332 10.7652 1.03846C10.6549 0.942458 10.471 0.913918 10.2149 0.956728C9.97588 0.996944 9.83929 1.07608 9.74473 1.20191C9.59632 1.40299 9.45973 2.01012 9.68957 2.23584C9.91678 2.45508 10.4224 2.33703 10.5722 2.23584Z" fill="#971B1E"/>
</g>
<g clip-path="url(#clip1_945_2828)">
<path d="M48.9004 5.92338V4.57483H54.0661V5.92338H48.9004ZM50.777 7.80206V2.69775H52.1879V7.80206H50.777Z" fill="black"/>
<path d="M54.9128 9.11742V7.95786L57.8432 5.14064C58.0745 4.92763 58.2459 4.73704 58.3592 4.57207C58.4709 4.40711 58.5448 4.25175 58.581 4.10761C58.6172 3.96346 58.6345 3.82893 58.6345 3.70401C58.6345 3.4013 58.5338 3.16587 58.3309 2.9961C58.128 2.82633 57.8244 2.74144 57.4201 2.74144C57.0945 2.74144 56.7972 2.80711 56.5298 2.94004C56.2624 3.07297 56.0343 3.26837 55.8456 3.52623L54.5762 2.68699C54.8577 2.24495 55.2604 1.8958 55.7811 1.63794C56.3017 1.38008 56.9026 1.25195 57.5821 1.25195C58.1468 1.25195 58.6423 1.34485 59.0686 1.52903C59.4949 1.71321 59.8268 1.97588 60.0611 2.31862C60.2955 2.66136 60.4135 3.06817 60.4135 3.53904C60.4135 3.78248 60.3789 4.02913 60.3097 4.27898C60.2405 4.52883 60.1162 4.79149 59.9353 5.06376C59.7544 5.33604 59.487 5.64194 59.1331 5.98148L56.7028 8.3022L56.3662 7.66156H60.6636V9.12062H54.9128V9.11742Z" fill="black"/>
<path d="M64.635 9.25014C64.0121 9.25014 63.4584 9.09318 62.9692 8.78087C62.4816 8.46855 62.093 8.0153 61.8083 7.42111C61.522 6.82851 61.3789 6.10459 61.3789 5.24934C61.3789 4.39408 61.522 3.67176 61.8083 3.07756C62.0946 2.48497 62.4816 2.03172 62.9692 1.7178C63.4568 1.40549 64.0121 1.24854 64.635 1.24854C65.2579 1.24854 65.8226 1.40549 66.3118 1.7178C66.7994 2.03172 67.1863 2.48337 67.4726 3.07756C67.7589 3.67016 67.902 4.39408 67.902 5.24934C67.902 6.10459 67.7589 6.82691 67.4726 7.42111C67.1863 8.0137 66.7994 8.46695 66.3118 8.78087C65.8241 9.09478 65.2642 9.25014 64.635 9.25014ZM64.635 7.74783C64.9323 7.74783 65.1902 7.66135 65.4104 7.48837C65.6307 7.3154 65.8053 7.04473 65.9311 6.67636C66.0569 6.30799 66.1214 5.83232 66.1214 5.25094C66.1214 4.66956 66.0585 4.19388 65.9311 3.82551C65.8037 3.45714 65.6307 3.18647 65.4104 3.0135C65.1902 2.84053 64.9307 2.75404 64.635 2.75404C64.3393 2.75404 64.1002 2.84053 63.8752 3.0135C63.6503 3.18647 63.4741 3.45714 63.3436 3.82551C63.213 4.19388 63.1485 4.66956 63.1485 5.25094C63.1485 5.83232 63.213 6.30799 63.3436 6.67636C63.4741 7.04473 63.6503 7.3154 63.8752 7.48837C64.1002 7.66135 64.3534 7.74783 64.635 7.74783Z" fill="black"/>
</g>
</g>
<defs>
<clipPath id="clip0_945_2828">
<rect width="67" height="12" fill="white" transform="translate(0.950195 0.125)"/>
</clipPath>
<clipPath id="clip1_945_2828">
<rect width="19" height="8" fill="white" transform="translate(48.9004 1.25)"/>
</clipPath>
</defs>
</svg>
