<?xml version="1.0" encoding="UTF-8"?>
<svg width="45px" height="12px" viewBox="0 0 45 12" version="1.1" xmlns="http://www.w3.org/2000/svg" xmlns:xlink="http://www.w3.org/1999/xlink">
    <!-- Generator: Sketch 50.2 (55047) - http://www.bohemiancoding.com/sketch -->
    <title>Hipercard7</title>
    <desc>Created with Sketch.</desc>
    <defs>
        <polygon id="path-1" points="0 0 45 0 45 10.6363636 0 10.6363636"></polygon>
    </defs>
    <g id="Page-1" stroke="none" stroke-width="1" fill="none" fill-rule="evenodd">
        <g id="payment-methods-BR" transform="translate(-646.000000, -449.000000)">
            <g id="Group-4" transform="translate(99.000000, 128.000000)">
                <g id="bra-credit-copy" transform="translate(269.000000, 311.000000)">
                    <g id="Hipercard7" transform="translate(278.000000, 10.500000)">
                        <g id="Group-27">
                            <g id="Page-1-Copy-72">
                                <mask id="mask-2" fill="white">
                                    <use xlink:href="#path-1"></use>
                                </mask>
                                <g id="Clip-2"></g>
                                <path d="M32.8828474,7.01826165 C32.2721303,7.6085221 30.5581823,7.77587067 30.7341739,6.36573196 C30.879958,5.19429199 32.1710008,4.94521505 33.56974,5.11386089 C33.4659837,5.7547151 33.3477804,6.56810698 32.8828474,7.01826165 Z M30.9548201,2.44795929 C30.8957184,2.77098094 30.8077226,3.06416525 30.7341739,3.37291687 C31.4328868,3.2003792 33.6091411,2.66979343 33.8192803,3.5908592 C33.8888889,3.89701627 33.7693722,4.22263247 33.680063,4.4613312 C31.7126346,4.27711805 30.1103231,4.60013971 29.6874179,5.9843329 C29.4063567,6.91188504 29.7202522,7.82386987 30.3217757,8.07943319 C31.4801681,8.56980341 32.8907276,8.00808303 33.3779879,7.23620397 C33.3280799,7.50344277 33.2794852,7.77327612 33.2952456,8.10667598 L34.3144208,8.10667598 C34.3262411,7.14280012 34.4680851,6.36184014 34.6178093,5.49525995 C34.7452062,4.75581279 34.9868663,4.02544656 34.9487786,3.37291687 C34.8607828,1.87975252 32.356186,2.40774374 30.9548201,2.44795929 Z M41.1728395,7.48009181 C40.3756239,7.49825367 39.9776727,7.010478 39.9605989,6.20227522 C39.929078,4.78694741 40.5568689,3.21464924 41.8321513,3.07454346 C42.427108,3.0083824 42.8578934,3.14459635 43.2926189,3.2911885 C42.8933543,4.88164854 43.0365117,7.44117354 41.1728395,7.48009181 Z M43.8166535,0 C43.7142107,0.879552939 43.5789335,1.72407943 43.4029419,2.52968766 C40.4977673,1.62159465 38.715524,3.73226225 38.7483583,6.33848917 C38.7549251,6.84183215 38.8429209,7.34128331 39.1620699,7.69803413 C39.7123719,8.31294282 41.284476,8.45953498 42.0816916,7.94321924 C42.2353559,7.84332901 42.391647,7.66171041 42.4927765,7.53457739 C42.5702653,7.43987626 42.6924087,7.1920966 42.7134226,7.26344676 C42.6727082,7.53976649 42.6096664,7.79532981 42.6030996,8.10667598 L43.6787497,8.10667598 C43.8849488,5.17353558 44.5258734,2.66849616 45,0 L43.8166535,0 Z M13.4935645,7.04550444 C12.8618335,7.70841233 11.3028631,7.69803413 11.1820331,6.58237701 C11.1281849,6.09719589 11.3120567,5.58866381 11.4013659,5.0866181 C11.4933018,4.5793833 11.5589703,4.09160762 11.6495929,3.64534478 C12.2734437,2.89292486 14.1069083,2.80211556 14.2934069,4.05268935 C14.4549514,5.13980641 14.0202259,6.49675681 13.4935645,7.04550444 Z M14.4313107,2.44795929 C13.427896,2.07693843 12.2077752,2.52060673 11.6771736,2.94222134 C11.678487,2.96168047 11.6653533,2.96427502 11.6495929,2.9655723 C11.6587864,2.95778864 11.66798,2.95000499 11.6771736,2.94222134 C11.6771736,2.94092406 11.6771736,2.93962678 11.6771736,2.93832951 C11.6850538,2.75671091 11.7507224,2.62957789 11.7599159,2.44795929 L10.7407407,2.44795929 C10.3152088,5.23839936 9.81350144,7.95100289 9.28158655,10.6363636 L10.464933,10.6363636 C10.6369845,9.59075941 10.748621,8.48677777 10.9889677,7.50863187 C11.2595219,8.53737152 13.0246914,8.34148289 13.7706856,7.94321924 C15.3073286,7.12204371 16.4933018,3.21335196 14.4313107,2.44795929 Z M20.0499081,4.40684562 L17.2668768,4.40684562 C17.356186,3.77507235 17.9314421,3.08102984 18.8376675,3.04730067 C19.691358,3.01486878 20.3020751,3.35605229 20.0499081,4.40684562 Z M18.9204098,2.33898812 C18.0640925,2.40514919 17.3417389,2.64773975 16.8255844,3.18221734 C16.1964802,3.83863886 15.6855792,5.28899311 15.8353034,6.6096198 C16.0493827,8.49456142 18.4252692,8.42710308 20.323089,7.97046203 C20.3572367,7.63965672 20.4373522,7.35685061 20.4885737,7.04550444 C19.7071185,7.33479693 18.3477804,7.73824968 17.5413712,7.23620397 C16.9345942,6.85610219 16.9306541,5.89482088 17.1302863,5.05937531 C18.4068821,5.01915976 19.7346992,5.02694342 21.0126084,5.05937531 C21.0927239,4.46781758 21.3265038,3.82177427 21.1229314,3.23670292 C20.8550039,2.46482387 19.8962438,2.26504341 18.9204098,2.33898812 Z M8.50932493,2.44795929 C8.47780405,2.45314839 8.48043079,2.49076938 8.48305753,2.52968766 C8.22169687,4.45743938 7.86840032,6.2943818 7.49146309,8.10667598 L8.67480956,8.10667598 C8.95981087,6.1659515 9.28552666,4.26673985 9.69398476,2.44795929 L8.50932493,2.44795929 Z M39.4102968,2.47520208 C38.3635408,1.95888634 37.4914631,2.82546652 37.1513002,3.34567408 C37.2484896,3.07973256 37.2537431,2.72168446 37.3430523,2.44795929 L36.2976097,2.44795929 C36.0152351,4.39127832 35.6750722,6.27621994 35.2784345,8.10667598 L36.4906751,8.10667598 C36.4985553,7.35685061 36.6469661,6.80161661 36.7664828,6.06606127 C37.0173365,4.49635765 37.3903336,2.77357549 39.2448122,3.2911885 C39.3065406,3.02654426 39.3314946,2.72427901 39.4102968,2.47520208 Z M26.1084844,6.77307654 C25.9994747,6.49545953 25.9705805,6.03492665 25.9981613,5.68595949 C26.0585763,4.8998104 26.3475177,3.94242092 26.7966903,3.50913083 C27.4139743,2.91108672 28.6327817,3.00967967 29.605989,3.34567408 C29.6348831,3.02265243 29.701865,2.73335994 29.7425795,2.4207165 C28.1481481,2.1638559 26.6351458,2.32342082 25.8326766,3.15627183 C25.0472813,3.96966371 24.5324402,5.8403353 24.8962438,7.01826165 C25.3217757,8.39596847 27.2327292,8.47121046 28.7798792,7.94321924 C28.8481744,7.66689951 28.8836354,7.35814789 28.9453638,7.07274723 C28.0982401,7.50603732 26.4841082,7.7317633 26.1084844,6.77307654 Z M25.4478592,2.44795929 C24.3971631,2.02893923 23.5723667,2.73725177 23.1888626,3.40015966 C23.275545,3.10567808 23.311006,2.75930546 23.381928,2.44795929 L22.3351721,2.44795929 C22.0777515,4.4081429 21.7021277,6.24767987 21.3435776,8.10667598 L22.5282375,8.10667598 C22.6937221,7.00269434 22.7659574,5.51601637 23.1337011,4.4613312 C23.427896,3.61810199 24.1988442,2.89941124 25.308642,3.2911885 C25.3257158,2.98113961 25.4137116,2.74373815 25.4478592,2.44795929 Z M6.3619648,0.163456741 C6.19254006,1.24797924 6.00210139,2.31044806 5.81166273,3.37291687 C4.58497505,3.38588963 3.33201996,3.43259156 2.1486735,3.34567408 C2.37194641,2.30655623 2.53217757,1.20387187 2.75413712,0.163456741 L1.43288679,0.163456741 C0.958760179,2.81508831 0.529288153,5.50952999 0,8.10667598 L1.35014447,8.10667598 C1.56028369,6.77437381 1.75991594,5.42780162 2.03835041,4.16166051 C3.18886262,4.13441772 4.56658786,4.08512125 5.67375887,4.1889033 C5.4439191,5.50563816 5.16942474,6.77437381 4.95665879,8.10667598 L6.30680326,8.10667598 C6.74021539,5.41612614 7.19595482,2.74762998 7.73837667,0.163456741 L6.3619648,0.163456741 Z M9.72156554,1.36084223 C9.95797216,1.19998004 10.2613607,0.468316535 9.91463094,0.163456741 C9.80430785,0.0674583375 9.62043604,0.0389182716 9.36432887,0.0817283704 C9.12529551,0.121943918 8.98870502,0.201077737 8.89414237,0.326913482 C8.74573155,0.527991218 8.60914106,1.13511626 8.83898082,1.36084223 C9.06619385,1.58008183 9.57184134,1.46202974 9.72156554,1.36084223 Z" id="Fill-1" fill="#971B1E" mask="url(#mask-2)"></path>
                            </g>
                        </g>
                    </g>
                </g>
            </g>
        </g>
    </g>
</svg>