<svg xmlns="http://www.w3.org/2000/svg" width="48.1" height="40.8" viewBox="0 0 48.1 40.8">
  <g id="boleto" transform="translate(-25.6 -8.6)">
    <g id="Group_956" data-name="Group 956">
      <path id="Path_850" data-name="Path 850" d="M31.1,21.5H26.6V43.9a5.663,5.663,0,0,0,4.5,5.5Z" fill="#37557e"/>
      <path id="Path_851" data-name="Path 851" d="M69.6,11V37.3h3.8V16.6A6.02,6.02,0,0,0,69.6,11Z" fill="#37557e"/>
      <rect id="Rectangle_91" data-name="Rectangle 91" width="5.5" height="15.9" transform="translate(32.9 21.5)" fill="#37557e"/>
      <rect id="Rectangle_92" data-name="Rectangle 92" width="3.2" height="15.9" transform="translate(64.4 21.5)" fill="#37557e"/>
      <rect id="Rectangle_93" data-name="Rectangle 93" width="1.9" height="15.9" transform="translate(45.5 21.5)" fill="#37557e"/>
      <rect id="Rectangle_94" data-name="Rectangle 94" width="5.1" height="15.9" transform="translate(49.6 21.5)" fill="#37557e"/>
      <rect id="Rectangle_95" data-name="Rectangle 95" width="4.7" height="15.9" transform="translate(57.3 21.5)" fill="#37557e"/>
      <rect id="Rectangle_96" data-name="Rectangle 96" width="3.1" height="15.9" transform="translate(40.4 21.5)" fill="#37557e"/>
    </g>
    <g id="Group_959" data-name="Group 959">
      <g id="Group_957" data-name="Group 957" transform="translate(6 29)">
        <path id="Path_852" data-name="Path 852" d="M29.8,19.4H26.6V10.7h3.1c1.8,0,2.8.8,2.8,2.3a2.019,2.019,0,0,1-.9,1.8,1.955,1.955,0,0,1,1.2,2C32.8,18.6,31.5,19.4,29.8,19.4Zm-1.1-6.9v1.6h.9c.5,0,.7-.3.7-.8s-.2-.8-.8-.8Zm0,3.3v1.8h1a.9.9,0,0,0,0-1.8h-1Z" fill="#33a0d6"/>
        <path id="Path_853" data-name="Path 853" d="M33,15.1a4.386,4.386,0,0,1,4.6-4.5,4.444,4.444,0,0,1,4.6,4.5,4.331,4.331,0,0,1-4.6,4.5A4.386,4.386,0,0,1,33,15.1Zm2.2,0a2.317,2.317,0,0,0,2.3,2.5,2.375,2.375,0,0,0,2.3-2.5,2.375,2.375,0,0,0-2.3-2.5C36.1,12.5,35.2,13.6,35.2,15.1Z" fill="#33a0d6"/>
        <path id="Path_854" data-name="Path 854" d="M42.7,19.4V10.7h2.1v6.8h2.6v1.9Z" fill="#33a0d6"/>
        <path id="Path_855" data-name="Path 855" d="M47.9,19.4V10.7h4.6v1.9H50v1.5h2.1V16H50v1.6h2.6v1.9H47.9Z" fill="#33a0d6"/>
        <path id="Path_856" data-name="Path 856" d="M56.9,12.6v6.8H54.8V12.6H52.9V10.7h5.9v1.9H56.9Z" fill="#33a0d6"/>
        <path id="Path_857" data-name="Path 857" d="M58.5,15.1a4.386,4.386,0,0,1,4.6-4.5,4.444,4.444,0,0,1,4.6,4.5,4.331,4.331,0,0,1-4.6,4.5A4.386,4.386,0,0,1,58.5,15.1Zm2.2,0A2.317,2.317,0,0,0,63,17.6a2.375,2.375,0,0,0,2.3-2.5A2.375,2.375,0,0,0,63,12.6C61.6,12.5,60.7,13.6,60.7,15.1Z" fill="#33a0d6"/>
      </g>
    </g>
    <text id="instant" transform="translate(46.6 19.6)" fill="#33a0d6" font-size="11" font-family="Gilroy-ExtraBold, Gilroy" font-weight="800" letter-spacing="-0.02em"><tspan x="-20.68" y="0">INSTANT</tspan></text>
  </g>
</svg>
