<svg xmlns="http://www.w3.org/2000/svg" width="87" height="22" viewBox="0 0 87 22">
    <g fill="none">
        <path fill="#253B80" d="M32.247 4.71h-4.773c-.326 0-.604.237-.655.56l-1.93 12.237c-.018.115.015.232.091.32s.186.14.303.139h2.278c.327 0 .605-.238.655-.56l.52-3.301c.051-.322.329-.56.655-.56h1.511c3.144 0 4.958-1.522 5.432-4.536.214-1.319.01-2.355-.609-3.081-.678-.797-1.88-1.218-3.478-1.218zm.55 4.47c-.26 1.712-1.569 1.712-2.834 1.712h-.72l.505-3.199c.03-.193.197-.335.393-.335h.33c.862 0 1.675 0 2.095.491.25.293.327.729.231 1.33zm13.715-.056h-2.285c-.196 0-.362.142-.393.336l-.101.639-.16-.232c-.495-.718-1.598-.958-2.699-.958-2.525 0-4.682 1.913-5.102 4.596-.219 1.338.092 2.618.85 3.51.697.821 1.694 1.163 2.88 1.163 2.034 0 3.163-1.308 3.163-1.308l-.102.635c-.019.115.014.232.09.32.075.089.186.14.302.14h2.058c.327 0 .605-.237.656-.56l1.235-7.822c.018-.115-.015-.231-.09-.32-.075-.088-.186-.14-.302-.139zm-3.185 4.448c-.22 1.305-1.257 2.182-2.579 2.182-.663 0-1.194-.213-1.534-.616-.338-.4-.466-.97-.359-1.606.206-1.294 1.26-2.2 2.561-2.2.65 0 1.177.216 1.524.623.348.411.487.985.387 1.617zm15.357-4.448h-2.297c-.22 0-.425.11-.549.291l-3.167 4.666-1.343-4.484c-.085-.28-.343-.473-.636-.473h-2.257c-.129 0-.25.061-.324.166-.075.104-.095.238-.054.36l2.53 7.424-2.378 3.357c-.086.121-.098.28-.03.413.069.132.205.215.354.215h2.294c.217 0 .421-.106.545-.285L59.01 9.749c.085-.122.095-.28.026-.412-.069-.13-.204-.213-.352-.213z"/>
        <path fill="#179BD7" d="M66.287 4.71h-4.773c-.326 0-.604.237-.654.56l-1.93 12.237c-.019.115.014.232.09.32.075.088.185.139.302.139h2.449c.228 0 .422-.167.458-.392l.547-3.469c.05-.322.329-.56.655-.56h1.51c3.144 0 4.958-1.522 5.433-4.536.214-1.319.008-2.355-.61-3.081-.677-.797-1.88-1.218-3.477-1.218zm.55 4.47c-.26 1.712-1.568 1.712-2.834 1.712h-.72l.507-3.199c.03-.193.196-.335.392-.335h.33c.861 0 1.675 0 2.095.491.25.293.326.729.23 1.33zm13.715-.056h-2.284c-.196 0-.363.142-.392.336l-.101.639-.16-.232c-.496-.718-1.598-.958-2.7-.958-2.525 0-4.681 1.913-5.101 4.596-.218 1.338.091 2.618.85 3.51.698.821 1.693 1.163 2.879 1.163 2.035 0 3.163-1.308 3.163-1.308l-.102.635c-.018.115.015.232.09.321.076.089.187.14.304.14h2.058c.326 0 .604-.239.654-.561l1.236-7.822c.018-.115-.016-.232-.091-.32-.076-.088-.187-.14-.303-.139zm-3.186 4.448c-.219 1.305-1.256 2.182-2.578 2.182-.662 0-1.194-.213-1.535-.616-.337-.4-.464-.97-.358-1.606.207-1.294 1.26-2.2 2.56-2.2.65 0 1.177.216 1.525.623.35.411.488.985.386 1.617zm5.88-8.527l-1.959 12.462c-.018.115.015.232.09.32.076.088.186.139.303.139h1.969c.327 0 .605-.237.655-.56l1.932-12.237c.018-.115-.015-.232-.09-.32-.076-.089-.186-.14-.303-.14h-2.205c-.195 0-.361.143-.392.336z"/>
        <path fill="#253B80" d="M5.07 20.344l.365-2.318-.813-.019H.74L3.438.902c.017-.108.11-.188.22-.187h6.545c2.173 0 3.672.452 4.455 1.344.367.419.601.856.714 1.338.119.505.121 1.109.005 1.845l-.008.054v.471l.367.208c.28.142.532.334.743.567.314.358.517.813.603 1.352.089.555.06 1.215-.086 1.963-.167.86-.438 1.608-.804 2.22-.322.55-.756 1.025-1.273 1.396-.486.345-1.063.607-1.716.774-.632.165-1.353.248-2.143.248h-.51c-.364 0-.718.131-.995.366-.278.238-.462.566-.52.927l-.038.209-.645 4.086-.03.15c-.007.047-.02.07-.04.087-.019.015-.042.024-.067.024H5.07z"/>
        <path fill="#179BD7" d="M16.083 5.35c-.02.125-.042.253-.067.384-.863 4.432-3.816 5.963-7.588 5.963h-1.92c-.461 0-.85.335-.922.79l-.983 6.235-.279 1.768c-.022.142.019.287.112.396.093.109.23.172.373.172h3.406c.404 0 .746-.293.81-.69l.033-.174.642-4.07.04-.223c.064-.399.407-.692.81-.692h.51c3.3 0 5.883-1.34 6.638-5.217.315-1.62.152-2.972-.682-3.923-.265-.294-.58-.538-.933-.719z"/>
        <path fill="#222D65" d="M15.18 4.99c-.275-.08-.556-.142-.84-.186-.56-.086-1.125-.128-1.692-.124h-5.13c-.404 0-.747.294-.81.693l-1.09 6.912-.032.202c.07-.455.462-.79.922-.79h1.92c3.772 0 6.725-1.532 7.588-5.963.026-.131.048-.259.067-.384-.227-.12-.465-.22-.71-.3l-.193-.06z"/>
        <path fill="#253B80" d="M6.709 5.373c.061-.4.405-.693.809-.692h5.13c.608 0 1.175.04 1.693.123.35.056.696.138 1.033.247.255.084.492.184.71.3.257-1.639-.002-2.754-.888-3.763C14.22.476 12.458 0 10.203 0H3.658c-.46 0-.853.335-.925.79L.007 18.073c-.026.162.02.328.128.453.106.125.262.197.427.197h4.04l1.015-6.437L6.71 5.373z"/>
    </g>
</svg>
