<svg xmlns="http://www.w3.org/2000/svg" xmlns:xlink="http://www.w3.org/1999/xlink" width="97" height="26" viewBox="0 0 97 26">
    <defs>
        <path id="f2j7z0v8ca" d="M0 0.185L35.257 0.185 35.257 24.588 0 24.588z"/>
        <path id="s3cgxfquxc" d="M0.125 0.015L7.827 0.015 7.827 8.05 0.125 8.05z"/>
    </defs>
    <g fill="none" fill-rule="evenodd">
        <g transform="translate(0 .088)">
            <mask id="qy7vue5lhb" fill="#fff">
                <use xlink:href="#f2j7z0v8ca"/>
            </mask>
            <path fill="#08286E" d="M35.256 11.716c0-6.353-7.897-11.53-17.628-11.53C7.898.185 0 5.363 0 11.715v.675c0 6.739 6.898 12.197 17.627 12.197 10.795 0 17.63-5.457 17.63-12.196v-.676z" mask="url(#qy7vue5lhb)"/>
        </g>
        <path fill="#0090DF" d="M34.581 11.798c0 5.988-7.589 10.846-16.953 10.846-9.364 0-16.953-4.855-16.953-10.846C.675 5.806 8.263.952 17.628.952c9.365 0 16.953 4.857 16.953 10.846"/>
        <path fill="#FFF" d="M12.002 8.378c-.008.017-.178.191-.068.332.547.426 1.267.556 1.929.351.648-.257 1.243-.633 1.753-1.109.59-.536 1.266-.967 2-1.276.47-.172.982-.185 1.459-.038.484.181.934.443 1.33.776 1.158.872 5.823 4.943 6.634 5.646 2.4-1.04 4.896-1.842 7.452-2.398-.454-2.227-1.714-4.21-3.54-5.566-2.888 1.401-6.247 1.456-9.18.15-1.09-.495-2.27-.763-3.467-.79-1.875.01-3.646.865-4.818 2.329l-1.484 1.593z"/>
        <path fill="#FFF" d="M26.846 13.503c-.054-.049-5.483-4.8-6.714-5.723-.428-.381-.957-.633-1.523-.724-.245-.02-.49.005-.725.07-.726.274-1.398.674-1.985 1.182-.558.527-1.217.936-1.937 1.199-.727.15-1.484.039-2.136-.316-.152-.094-.274-.229-.353-.389-.09-.251-.018-.531.18-.71l1.5-1.62c.173-.174.349-.347.526-.52-.464.07-.92.174-1.37.308-.514.172-1.05.272-1.593.298-.546-.054-1.088-.14-1.625-.254-1.487-.383-2.935-.906-4.323-1.562C2.77 6.092 1.353 8.145.802 10.493c.307.081.8.228 1.007.274 4.82 1.071 6.318 2.176 6.593 2.406.585-.658 1.594-.718 2.252-.132.093.083.177.177.249.28.325-.262.73-.406 1.149-.405.235.002.468.044.69.121.434.138.788.459.97.877.21-.095.438-.144.67-.143.276.004.55.064.801.177.724.34 1.116 1.132.948 1.913.063-.008.127-.011.192-.011 1.055.001 1.909.856 1.91 1.911 0 .315-.08.626-.229.903.5.305 1.075.459 1.66.444.295 0 .576-.122.777-.338.047-.067.098-.147.052-.203l-1.36-1.511s-.224-.21-.15-.294c.073-.083.21.037.315.118.692.578 1.538 1.45 1.538 1.45s.07.12.382.176c.378.065.766-.026 1.075-.25.087-.073.165-.154.236-.243-.005 0-.01.01-.015.013.196-.271.18-.642-.038-.896l-1.588-1.782s-.227-.21-.15-.295c.077-.084.21.037.316.12.502.421 1.213 1.133 1.895 1.8.466.314 1.082.293 1.524-.053.36-.2.578-.583.563-.995-.033-.252-.152-.486-.335-.663l-2.169-2.18s-.228-.196-.148-.295c.08-.1.21.037.316.118.69.578 2.56 2.292 2.56 2.292.451.292 1.036.28 1.475-.03.279-.164.46-.453.483-.776.012-.336-.124-.66-.372-.888"/>
        <path fill="#FFF" d="M16.327 16.265c-.255.036-.506.092-.752.167-.027-.017.02-.152.051-.23.03-.079.475-1.41-.604-1.873-.496-.266-1.108-.175-1.505.224-.045.049-.066.043-.071-.017-.014-.51-.35-.955-.838-1.105-.69-.214-1.439.053-1.84.656-.084-.646-.677-1.1-1.323-1.015-.644.085-1.1.677-1.014 1.322.085.646.677 1.1 1.323 1.015.25-.033.482-.145.663-.32.006.007.01.016.006.04-.165.755.249 1.517.972 1.79.385.149.82.081 1.14-.177.094-.065.106-.037.097.05-.057.549.297 1.057.831 1.193.418.204.92.11 1.237-.23.105-.096.133-.08.14.068.038.82.733 1.455 1.553 1.418.821-.037 1.457-.733 1.42-1.553-.036-.795-.691-1.42-1.486-1.422z"/>
        <path fill="#08286E" d="M16.327 19.137c-.74.005-1.35-.579-1.379-1.318 0-.064-.008-.231-.15-.231-.065.007-.125.037-.168.087-.176.187-.419.299-.677.306-.154-.004-.305-.036-.446-.096-.787-.316-.799-.86-.766-1.078.016-.057.005-.117-.028-.165l-.049-.043h-.05c-.05.004-.097.023-.136.056-.192.147-.426.23-.668.237-.127-.002-.254-.026-.373-.073-.678-.253-1.064-.97-.903-1.675.01-.051-.006-.104-.045-.137l-.073-.061-.068.066c-.426.415-1.107.406-1.522-.02-.415-.425-.406-1.107.02-1.522.425-.415 1.107-.406 1.522.02.162.167.265.38.296.611l.036.289.16-.245c.367-.57 1.072-.822 1.718-.611.444.14.75.546.761 1.013.012.139.112.147.13.147.05-.004.094-.027.125-.065.207-.215.494-.337.792-.334.205.004.406.05.593.134 1.013.434.553 1.721.547 1.734-.086.21-.09.307-.008.362l.04.02h.03c.067-.01.133-.026.195-.053.173-.068.355-.108.54-.119.764-.022 1.399.58 1.42 1.343.02.763-.58 1.398-1.344 1.42h-.076.004zm10.729-6.203c-1.673-1.46-5.538-4.82-6.585-5.605-.406-.342-.87-.61-1.369-.794-.217-.068-.442-.104-.67-.105-.288.004-.575.052-.85.143-.734.305-1.41.732-2.001 1.264l-.034.026c-.498.465-1.077.834-1.71 1.088-.207.046-.419.07-.632.07-.431.036-.859-.102-1.188-.382-.03-.038-.01-.099.059-.187l.01-.012 1.473-1.586c1.154-1.442 2.9-2.287 4.746-2.297h.125c1.138.046 2.256.311 3.293.78 1.394.697 2.93 1.066 4.49 1.077 1.708-.03 3.39-.433 4.927-1.18-.191-.161-.39-.316-.596-.472-1.36.622-2.832.957-4.328.984-1.458-.012-2.895-.358-4.2-1.011-1.127-.513-2.343-.8-3.58-.843h-.141c-1.492-.022-2.942.493-4.087 1.451-.693.036-1.378.161-2.04.372-.464.155-.947.247-1.437.275-.184 0-.516-.017-.546-.018-1.763-.31-3.493-.79-5.167-1.431-.21.15-.412.302-.61.459 1.8.752 3.679 1.295 5.602 1.62.23.014.475.04.72.042.552-.028 1.097-.129 1.621-.302.316-.087.656-.183 1.02-.252-.097.095-.194.19-.29.287l-1.494 1.617c-.233.206-.314.535-.204.826.087.18.223.33.392.436.485.274 1.032.412 1.587.402.213.001.425-.02.632-.066.736-.266 1.41-.68 1.98-1.217.576-.498 1.235-.892 1.946-1.165.177-.047.359-.072.542-.075.047 0 .094.004.14.009.549.09 1.06.333 1.474.702 1.227.922 6.656 5.672 6.71 5.719.219.206.338.497.326.798-.02.289-.183.549-.433.693-.212.14-.458.22-.713.222-.224.001-.444-.062-.632-.182-.02-.016-1.88-1.722-2.564-2.294-.085-.091-.2-.152-.322-.172-.055-.001-.108.024-.143.067-.105.133.013.316.155.438l2.174 2.184c.162.158.267.365.3.589.011.374-.188.721-.516.9-.226.16-.494.248-.77.255-.22 0-.436-.066-.62-.188l-.316-.308c-.57-.56-1.158-1.14-1.588-1.5-.086-.089-.2-.147-.323-.167-.052 0-.101.021-.137.058-.05.055-.083.153.039.316.032.043.067.084.105.122l1.586 1.782c.188.213.204.53.036.76l-.056.072c-.046.05-.095.098-.147.142-.225.164-.498.25-.775.244-.071 0-.142-.005-.211-.018-.117-.008-.228-.054-.316-.131l-.019-.02c-.086-.09-.886-.906-1.548-1.458-.082-.087-.19-.145-.308-.165-.055-.001-.108.023-.144.064-.13.143.066.358.149.436l1.352 1.491c-.012.033-.03.063-.052.09-.048.068-.21.231-.703.293-.059.008-.12.011-.18.011-.466-.03-.917-.163-1.324-.393.475-1.007.042-2.21-.966-2.685-.268-.126-.562-.192-.859-.193h-.072c.12-.788-.297-1.561-1.024-1.894-.265-.119-.552-.182-.842-.185-.21-.001-.42.037-.618.111-.205-.4-.56-.703-.988-.842-.233-.083-.477-.126-.724-.127-.405-.003-.8.124-1.128.36-.586-.733-1.656-.852-2.388-.267-.049.04-.095.08-.14.125-.42-.322-2.09-1.383-6.56-2.397-.215-.05-.713-.192-1.017-.28-.05.243-.09.49-.115.737 0 0 .825.197.987.234 4.566 1.014 6.075 2.068 6.33 2.268-.363.874.052 1.876.926 2.238.307.128.643.164.969.103.138.69.629 1.256 1.291 1.49.195.076.401.117.61.118.131 0 .262-.016.39-.049.32.672.988 1.109 1.733 1.132.18 0 .358-.03.526-.094.421 1.03 1.597 1.523 2.627 1.102.258-.107.49-.263.684-.462.52.303 1.106.478 1.708.51.086 0 .173-.007.259-.018.45-.012.872-.22 1.158-.566.027-.037.05-.076.072-.116.177.055.36.083.546.085.401-.008.789-.147 1.104-.395.332-.219.566-.558.65-.947v-.014c.123.025.246.038.37.038.405-.005.8-.13 1.134-.36.518-.3.83-.86.814-1.458.123.027.249.04.374.04.379-.005.748-.119 1.062-.328.425-.26.698-.707.737-1.202.027-.34-.055-.68-.234-.97 2.281-.931 4.638-1.67 7.043-2.205-.02-.246-.054-.49-.099-.731-2.546.563-5.032 1.372-7.422 2.414z"/>
        <g transform="translate(88.452 3.247)">
            <mask id="q6hpthucsd" fill="#fff">
                <use xlink:href="#s3cgxfquxc"/>
            </mask>
            <path fill="#08286E" d="M5.293 5.783c-.625.734-1.726.823-2.46.199-.072-.061-.14-.128-.2-.2-.621-1.08-.621-2.41 0-3.491.63-.734 1.735-.82 2.47-.19.068.06.13.123.19.19.618 1.081.618 2.41 0 3.492m1.58-4.573C5.27-.384 2.682-.384 1.08 1.21c-1.274 1.673-1.274 3.99 0 5.664 1.61 1.568 4.18 1.568 5.791 0 1.273-1.674 1.273-3.991 0-5.664" mask="url(#q6hpthucsd)"/>
        </g>
        <path fill="#08286E" d="M78.058 8.1c.05.522-.162 1.035-.567 1.369-.348.245-.766.376-1.193.375-.25.007-.497-.074-.695-.227-.205-.186-.312-.46-.284-.737-.02-.347.162-.675.466-.842.287-.138.594-.23.91-.27l.45-.083c.18-.031.357-.077.527-.137.135-.05.264-.112.384-.19l.002.742zm1.002-4.309c-.687-.337-1.446-.506-2.21-.493-1.008-.106-2.01.264-2.705 1-.347.475-.541 1.043-.558 1.63h1.909c.03-.252.127-.491.28-.693.268-.258.637-.385 1.005-.347.331-.019.66.041.962.177.225.132.353.381.326.642-.003.26-.176.488-.426.562-.255.091-.521.15-.791.174l-.676.083c-.608.05-1.2.215-1.747.486-.72.409-1.14 1.193-1.083 2.019-.038.626.21 1.237.673 1.662.485.387 1.087.594 1.707.586 4.318.193 4.268-2.274 4.307-2.788V5.648c.078-.759-.304-1.49-.973-1.857zM69.22 4.99c.416-.033.822.137 1.09.457.16.226.263.487.3.762h2.13c-.016-.883-.431-1.71-1.128-2.25-.736-.448-1.588-.668-2.45-.631-1.032-.056-2.038.338-2.758 1.08-.71.84-1.068 1.92-1 3.018-.045 1.01.276 2.004.903 2.798.728.77 1.768 1.169 2.825 1.08 1.121.07 2.208-.417 2.9-1.303.39-.489.628-1.08.684-1.702h-2.12c-.027.353-.156.69-.373.969-.272.276-.653.413-1.037.374-.628.04-1.204-.347-1.404-.942-.152-.426-.22-.878-.205-1.33-.016-.474.053-.946.205-1.395.201-.616.79-1.02 1.438-.985M64.834 3.324c-4.374 0-4.116 3.872-4.116 3.872v3.933h1.985V7.444c-.027-.46.05-.918.227-1.344.335-.55.96-.853 1.6-.775.06 0 .137 0 .234.008.096.007.21.013.333.028v-2.02l-.17-.01c-.026-.005-.057-.007-.093-.007M54.875 5.38c.316-.302.742-.458 1.177-.432.427-.013.844.131 1.17.407.332.307.523.738.527 1.19H54.35c.046-.435.23-.844.526-1.167l-.002.001zm2.668 3.694c-.075.112-.167.213-.272.3-.322.227-.715.333-1.109.301-.369.02-.735-.067-1.053-.253-.528-.348-.833-.95-.803-1.58h5.49c.016-.5-.005-1-.066-1.496-.078-.56-.284-1.092-.6-1.56-.32-.488-.771-.876-1.303-1.116-.56-.242-1.164-.362-1.772-.353-1.005-.04-1.981.338-2.696 1.045-.74.82-1.114 1.903-1.042 3.004-.105 1.13.32 2.246 1.152 3.02.75.61 1.69.94 2.656.927 1.06.06 2.095-.34 2.836-1.1.323-.318.559-.711.688-1.145l-2.106.006zM51.519 11.128h-1.812V6.564c.075-.7-.431-1.328-1.13-1.404-.068-.007-.135-.008-.204-.005-.738-.022-1.353.558-1.375 1.296l.001.113v4.564h-1.814V6.564c.082-.693-.415-1.32-1.108-1.403-.07-.007-.14-.01-.21-.006-.733-.028-1.35.545-1.377 1.28-.002.042 0 .086.001.129v4.564h-1.814v-4.52c-.11-1.714 1.19-3.194 2.904-3.304.095-.007.19-.008.285-.006.875-.022 1.71.369 2.254 1.053.554-.672 1.383-1.06 2.253-1.053 1.67-.073 3.084 1.22 3.158 2.89.007.14.002.28-.011.42l-.001 4.52zM85.602 9.048c-.287.413-.768.648-1.272.622-.499.03-.975-.209-1.248-.627-.297-.523-.44-1.12-.411-1.721-.021-.569.12-1.131.405-1.623.267-.435.753-.686 1.263-.654.364-.005.72.122.997.36.515.544.77 1.284.698 2.03.028.57-.124 1.132-.432 1.613zM87.983.94s-2-.211-2 1.392v2.126c-.213-.347-.51-.633-.865-.833-.372-.206-.792-.309-1.217-.301-.923-.032-1.805.38-2.375 1.106-.637.9-.95 1.988-.888 3.089-.041.994.279 1.969.903 2.744.762.714 1.785 1.083 2.828 1.023 3.654 0 3.612-3.133 3.612-3.133L87.983.94z"/>
        <path fill="#0090DF" d="M58.494 18.355c.039-.607-.114-1.21-.438-1.727-.288-.401-.76-.629-1.253-.604-.486-.02-.948.208-1.227.604-.312.52-.454 1.124-.407 1.727-.043.581.111 1.16.438 1.643.287.4.76.628 1.254.603.475.015.925-.212 1.195-.603.317-.488.47-1.063.438-1.643zm-3.325 5.37c.004.261-.103.512-.293.691-.183.189-.437.293-.7.289h-.991v-6.898c-.085-1.058.364-2.09 1.196-2.749.754-.54 1.672-.8 2.598-.737.977-.023 1.92.367 2.596 1.074.652.81.984 1.831.932 2.87.05 1.05-.259 2.085-.875 2.936-.53.704-1.366 1.111-2.247 1.093-.441.01-.88-.079-1.282-.258-.394-.196-.72-.507-.933-.893l-.001 2.582zM70.4 18.357c0 1.323.381 2.057 1.146 2.2.62.19 1.291-.022 1.69-.533.205-.294.333-.635.372-.99.076-.442.081-.894.015-1.338-.06-.426-.222-.831-.474-1.18-.25-.347-.661-.543-1.089-.519-.544-.057-1.068.23-1.317.718-.237.514-.355 1.075-.343 1.641m3.258 3.308v-.492c-.308.51-.81.874-1.391 1.006-.577.134-1.184.084-1.731-.145-.612-.263-1.127-.71-1.475-1.278-.44-.744-.656-1.599-.615-2.462-.047-1.026.24-2.04.817-2.89.645-.767 1.621-1.18 2.622-1.106.914-.082 1.825.184 2.55.747.825.668 1.266 1.703 1.174 2.761v4.056c.062 1.87-1.404 3.435-3.272 3.496-.151.006-.302 0-.452-.014-1.535.046-2.893-.985-3.264-2.474h2.092c.344.561.998.854 1.645.737.344-.085.647-.28.863-.56.288-.403.444-.887.443-1.383M65.753 19.156c.05.522-.161 1.035-.566 1.37-.35.244-.766.375-1.193.374-.25.007-.496-.072-.694-.226-.207-.185-.313-.459-.287-.737-.018-.347.163-.674.468-.842.287-.137.593-.227.91-.268l.45-.085c.179-.03.355-.076.526-.136.135-.05.264-.113.384-.19l.002.74zm.994-4.309c-.688-.336-1.445-.504-2.21-.492-1.008-.106-2.008.263-2.706 1-.347.475-.542 1.044-.559 1.633h1.91c.03-.252.128-.49.282-.694.267-.257.635-.383 1.003-.346.33-.018.66.042.961.176.226.132.354.383.329.642-.003.26-.174.486-.421.563-.256.092-.521.15-.791.174l-.676.082c-.608.05-1.202.215-1.747.486-.72.408-1.141 1.193-1.086 2.019-.036.627.211 1.237.675 1.662.484.387 1.087.595 1.707.586 4.318.193 4.267-2.274 4.306-2.788v-2.842c.08-.76-.301-1.491-.968-1.86h-.01zM81.532 20.046c-.623.732-1.723.822-2.457.199-.072-.06-.14-.128-.2-.2-.623-1.08-.623-2.41 0-3.489.63-.735 1.735-.82 2.469-.189.068.058.13.12.188.189.619 1.08.619 2.408 0 3.49m1.58-4.574c-1.602-1.592-4.19-1.592-5.792 0-1.273 1.674-1.273 3.991 0 5.663 1.613 1.567 4.18 1.567 5.792 0 1.27-1.673 1.27-3.988 0-5.663"/>
    </g>
</svg>
