<svg width="29px" height="18.1px" xmlns="http://www.w3.org/2000/svg" viewBox="0 0 29 18.1"><defs><style>.cls-1{fill:none;}.cls-2{fill:#ff5f00;}.cls-3{fill:#eb001b;}.cls-4{fill:#f79e1b;}</style></defs><g id="Layer_2" data-name="Layer 2"><g id="Layer_1-2" data-name="Layer 1"><rect class="cls-1" width="29" height="18.1"/><rect class="cls-2" x="10.61" y="2.07" width="7.79" height="13.9"/><path class="cls-3" d="M11.1,9a8.85,8.85,0,0,1,3.4-6.95A8.93,8.93,0,0,0,2,3.56,8.8,8.8,0,0,0,3.5,16a9,9,0,0,0,11,0A8.82,8.82,0,0,1,11.1,9Z"/><path class="cls-4" d="M28.9,9a8.91,8.91,0,0,1-14.4,7,8.81,8.81,0,0,0,0-13.9A8.94,8.94,0,0,1,27,3.56,8.82,8.82,0,0,1,28.9,9Z"/><path class="cls-4" d="M28.06,14.5v-.28h.11v-.06h-.29v.06H28v.28Zm.57,0v-.34h-.09l-.11.23-.1-.23h-.09v.34h.06v-.26l.1.23h.07l.09-.23v.26Z"/></g></g></svg>