<svg xmlns="http://www.w3.org/2000/svg" xmlns:xlink="http://www.w3.org/1999/xlink" width="82" height="22" viewBox="0 0 82 22">
    <defs>
        <path id="prefix__a" d="M0.113 0.616L1.842 0.616 1.842 12.15 0.113 12.15z"/>
        <path id="prefix__c" d="M0.064 0.101L21.54 0.101 21.54 21.371 0.064 21.371z"/>
    </defs>
    <g fill="none" fill-rule="evenodd">
        <g transform="translate(79.829 4.928)">
            <mask id="prefix__b" fill="#fff">
                <use xlink:href="#prefix__a"/>
            </mask>
            <path fill="#140F38" d="M1.842.946c0-.173-.153-.33-.324-.33H.436c-.188 0-.323.157-.323.33V11.82c0 .174.152.33.323.33h1.082c.188 0 .324-.156.324-.33V.946z" mask="url(#prefix__b)"/>
        </g>
        <path fill="#140F38" d="M75.422 5.87c0-.169-.15-.322-.317-.322h-1.061c-.184 0-.317.153-.317.323l.005 6.48c0 1.002-.083 1.478-.35 1.954-.4.697-1.2 1.155-2.067 1.155-.883 0-1.684-.458-2.084-1.155-.266-.476-.35-.952-.35-1.954l.006-6.48c0-.17-.15-.323-.316-.323h-1.062c-.183 0-.317.153-.317.323l.006 6.94c0 1.103.267 1.92.85 2.666.784 1.003 2 1.598 3.267 1.598 1.25 0 2.467-.595 3.251-1.598.583-.746.85-1.58.85-2.667l.006-6.94zM63.178 16.596c.261.263.174.478-.192.478l-1.13-.001c-.15 0-.36-.09-.468-.197L57.7 13.16c-.248-.25-.075-.682.275-.682l.843.001c.151 0 .362.09.47.197l3.89 3.919z"/>
        <path fill="#140F38" d="M60.732 16.177c-.897.582-1.975.898-3.035.898-1.6 0-3.214-.731-4.308-1.98-.897-.998-1.355-2.311-1.355-3.742 0-3.21 2.53-5.805 5.68-5.805 3.165 0 5.694 2.628 5.694 5.904 0 1.515-.472 2.662-1.55 3.81m-1.141-1.182c.734-.797 1.044-1.596 1.044-2.743 0-2.379-1.763-4.21-4.064-4.21-2.317 0-4.014 1.798-4.014 4.243 0 1.213.391 2.178 1.174 2.944.768.749 1.779 1.18 2.774 1.18.67 0 1.404-.182 1.942-.498M47.488 17.074h.448c.188 0 .324-.155.324-.327v-.987c0-.171-.136-.327-.324-.327h-2.934l-.001.002h-1.277v-3.581h.242v.001h3.977c.187 0 .322-.156.322-.328v-.986c0-.173-.135-.328-.322-.328H43.724V7.189h4.212c.188 0 .324-.155.324-.328v-.985c0-.172-.136-.328-.324-.328H42.33c-.186 0-.322.156-.322.328v10.871c0 .171.133.325.317.328h5.163zM37.164 5.548h-1.047c-.184 0-.317.157-.317.332l-.006 7.633-7.116-7.807s-.114-.156-.316-.156c-.19 0-.364-.002-.364-.002-.168 0-.317.14-.317.314v10.882c0 .174.144.331.31.331h1.064c.184 0 .317-.157.317-.331l-.01-7.825 7.341 8.017s.143.14.225.14h.228c.167 0 .318-.14.318-.315l.007-.196V5.88c0-.175-.15-.332-.317-.332"/>
        <g transform="translate(.629 .528)">
            <mask id="prefix__d" fill="#fff">
                <use xlink:href="#prefix__c"/>
            </mask>
            <path fill="#FF2F73" d="M1.701 5.052l9.55-4.797c.576-.29 1.292-.164 1.715.302l8.208 9.035c.497.547.487 1.352-.023 1.888l-8.872 9.327c-.86.82-2.3.736-3.045-.178L.636 9.282C-.442 7.86.056 5.878 1.7 5.052" mask="url(#prefix__d)"/>
        </g>
        <path fill="#2FCAD7" d="M.562 10.004l6.215-8.292c.375-.5 1.074-.689 1.676-.45l11.688 4.622c.708.28 1.088 1.003.89 1.696l-3.424 12.054c-.372 1.093-1.699 1.622-2.804 1.119L1.651 14.23c-1.649-.819-2.16-2.798-1.09-4.226"/>
        <path fill="#1A1446" d="M4.812 4.333L9.837 1.81l6.89 2.724 3.939 4.334-1.746 6.146L13.89 20.3l-7.494-3.717-5.133-6.772c-.098-.13-.183-.265-.256-.402l3.804-5.076z"/>
    </g>
</svg>
