<?xml version="1.0" encoding="utf-8"?>
<!-- Generator: Adobe Illustrator 23.0.3, SVG Export Plug-In . SVG Version: 6.00 Build 0)  -->
<svg version="1.1" id="Layer_1" xmlns="http://www.w3.org/2000/svg" xmlns:xlink="http://www.w3.org/1999/xlink" x="0px" y="0px" viewBox="0 0 113.2 37.8" style="enable-background:new 0 0 113.2 37.8;" xml:space="preserve" width="100" height="30">
<style type="text/css">
  .st0{fill:#2F4A75;}
  .st1{fill:#2397D4;}
  .st2{fill:#FFFFFF;}
</style>
<g>
  <g>
    <path class="st0" d="M101.6,30c0,0.2-0.2,0.5-0.5,0.5H85.7c-0.2,0-0.5-0.2-0.5-0.5V5.2c0-0.2,0.2-0.5,0.5-0.5h15.5
      c0.2,0,0.5,0.2,0.5,0.5v8.3l1.8,0.1V6.1V4.9V1.8c0-0.5-0.4-0.9-0.9-0.9H84.2c-0.5,0-0.9,0.4-0.9,0.9v3.1v1.3v23.5v2.5v2.1
      c0,1.3,1.1,2.6,2.6,2.6H101c1.3,0,2.6-1.1,2.6-2.6v-2.1v-2.5v-3.4c-0.6,0.2-1.2,0.4-1.8,0.5V30H101.6z M93.4,34.9
      c-0.7,0-1.3-0.6-1.3-1.3s0.6-1.3,1.3-1.3c0.7,0,1.3,0.6,1.3,1.3S94.2,34.9,93.4,34.9z"/>
    <path class="st1" d="M107.3,22.9c0.1-0.1,0.2-0.2,0.4-0.2l0.5-0.4l2.2,2.2l-0.4-9c0,0,0-0.1-0.1-0.1l-9.1-0.5l2.2,2.2l-0.5,0.5
      c-0.1,0.1-0.2,0.2-0.4,0.4c-3.7,3.7-10.7,3.8-14.1,3.6C91.5,24.2,98.9,28.5,107.3,22.9z"/>
    <path class="st2" d="M93.4,32.2c-0.7,0-1.3,0.6-1.3,1.3s0.6,1.3,1.3,1.3c0.7,0,1.3-0.6,1.3-1.3S94.2,32.2,93.4,32.2z"/>
  </g>
  <g>
    <path class="st1" d="M2.8,9.9c0-4.1,3.2-7.2,7.3-7.2c4,0,7.3,3.1,7.3,7.2s-3.2,7.2-7.3,7.2C6.1,17.1,2.8,14,2.8,9.9z M13.8,9.9
      c0-2.2-1.6-3.8-3.7-3.8S6.3,7.7,6.3,9.9c0,2.2,1.6,3.8,3.7,3.8S13.8,12.1,13.8,9.9z"/>
    <path class="st1" d="M31.7,3v13.8H29l-4.9-7v7h-3.5V3h2.7l4.9,7V3H31.7z"/>
    <path class="st1" d="M43.8,13.4v3.4h-8.3V3H39v10.4H43.8z"/>
    <path class="st1" d="M50.2,3v13.8h-3.5V3H50.2z"/>
    <path class="st1" d="M65.1,3v13.8h-2.7l-4.9-7v7h-3.5V3h2.7l4.9,7V3H65.1z"/>
    <path class="st1" d="M77.7,13.5v3.3h-8.9V3h8.8v3.3h-5.3v1.9h4.8v3.3h-4.8v2H77.7z"/>
    <path class="st0" d="M29.6,28.8c0,4.2-3.1,7.3-7.1,7.3h-6V21.4h6C26.6,21.4,29.6,24.6,29.6,28.8z M26,28.8c0-2.2-1.4-3.7-3.5-3.7
      h-2.1v7.4h2.1C24.5,32.5,26,31,26,28.8z"/>
    <path class="st0" d="M42.5,32.6v3.5h-9.4V21.4h9.3V25h-5.6v2h5.1v3.5h-5.1v2.2H42.5z"/>
    <path class="st0" d="M57.1,31.8c0,2.6-2,4.3-4.9,4.3H46V21.4h5.8c2.9,0,4.8,1.6,4.8,4.2c0,1.3-0.5,2.2-1.4,2.9
      C56.4,29.2,57.1,30.3,57.1,31.8z M49.7,24.8v2.3h1.9c0.7,0,1.2-0.4,1.2-1.2c0-0.7-0.5-1.2-1.2-1.2H49.7z M53.3,31.5
      c0-0.8-0.5-1.2-1.3-1.2h-2.3v2.5h2.3C52.8,32.8,53.3,32.3,53.3,31.5z"/>
    <path class="st0" d="M64.1,21.4v14.7h-3.8V21.4H64.1z"/>
    <path class="st0" d="M78.1,25.1h-3.6v11.1h-3.8V25.1h-3.6v-3.6h11V25.1z"/>
  </g>
</g>
</svg>
