<?xml version="1.0" encoding="UTF-8"?>
<svg width="37px" height="17px" viewBox="0 0 37 17" version="1.1" xmlns="http://www.w3.org/2000/svg" xmlns:xlink="http://www.w3.org/1999/xlink">
    <!-- Generator: Sketch 47.1 (45422) - http://www.bohemiancoding.com/sketch -->
    <title>OXXO</title>
    <desc>Created with Sketch.</desc>
    <defs></defs>
    <g id="Page-1" stroke="none" stroke-width="1" fill="none" fill-rule="evenodd">
        <g id="Desktop" transform="translate(-846.000000, -99.000000)" fill-rule="nonzero">
            <g id="OXXO" transform="translate(846.000000, 99.000000)">
                <path d="M0.25,1.2 C0.25,0.55 0.75,0.05 1.4,0.05 L35.65,0.05 C36.3,0.05 36.8,0.55 36.8,1.2 L36.8,15.75 C36.8,16.4 36.3,16.9 35.65,16.9 L1.35,16.9 C0.7,16.9 0.2,16.4 0.2,15.75 L0.2,1.2 L0.25,1.2 Z" id="Shape" fill="#EDA627"></path>
                <polygon id="Shape" fill="#FFFFFF" points="0.25 1.75 36.8 1.75 36.8 15.3 0.25 15.3"></polygon>
                <path d="M31.2,5.25 C29.55,5.25 28.15,6.6 28.15,8.3 C28.15,9.95 29.5,11.35 31.2,11.35 C32.85,11.35 34.25,10 34.25,8.3 C34.25,6.6 32.85,5.25 31.2,5.25 Z M6.2,5.25 C4.55,5.25 3.15,6.6 3.15,8.3 C3.15,9.95 4.5,11.35 6.2,11.35 C7.85,11.35 9.25,10 9.25,8.3 C9.2,6.6 7.85,5.25 6.2,5.25 Z" id="Shape" fill="#DE1E2B"></path>
                <path d="M30.95,2.6 C28.15,2.55 26.8,4.35 24.9,6.55 L23.1,8.65 L25.95,12.1 C26.65,13.15 25.35,14.2 24.5,13.25 L21.85,10.1 L19.25,13.1 C18.45,14.05 17.15,13 17.85,11.95 L20.65,8.7 L18.8,6.5 L20,5.05 L21.85,7.3 L23.45,5.45 C24.25,4.55 25.05,3.3 26.1,2.7 L0.25,2.7 L0.25,14.55 L6.3,14.55 C9.1,14.55 10.4,12.85 12.25,10.6 L14,8.45 L11.05,5.1 C10.35,4.05 11.6,3 12.45,3.95 L15.15,7.05 L17.65,4 C18.45,3.05 19.75,4.05 19.1,5.1 L16.4,8.4 L18.3,10.55 L17.1,11.95 L15.2,9.85 L13.65,11.75 C12.9,12.7 12.1,13.9 11.1,14.55 L36.75,14.55 L36.75,2.7 L30.95,2.7 L30.95,2.6 Z M11,8.3 C11,10.95 8.85,13.1 6.2,13.1 C3.55,13.1 1.4,10.95 1.4,8.3 C1.4,5.65 3.55,3.5 6.2,3.5 C8.85,3.5 11,5.65 11,8.3 Z M31.2,13.1 C28.55,13.1 26.4,10.95 26.4,8.3 C26.4,5.65 28.55,3.5 31.2,3.5 C33.85,3.5 36,5.65 36,8.3 C36,10.9 33.85,13.1 31.2,13.1 Z" id="Shape" fill="#DE1E2B"></path>
            </g>
        </g>
    </g>
</svg>