<svg xmlns="http://www.w3.org/2000/svg" width="82.316" height="19.41" viewBox="0 0 82.316 19.41">
    <defs>
        <style>
            .cls-1{fill:#03517f}.cls-3{fill:#275081}.cls-8{fill-rule:evenodd;fill:#e30613}
        </style>
    </defs>
    <g id="oxxo-pay" transform="translate(-34.6 -24.4)">
        <path id="Rectangle_97" d="M0 0H0.808V17.157H0z" class="cls-1" data-name="Rectangle 97" transform="translate(76.108 24.409)"/>
        <path id="Path_889" d="M568.18 59.725a2.414 2.414 0 0 0-1.426-1.853 3.139 3.139 0 0 0-1.208-.372h-6.458L555.9 68.844h3.588l.863-3.152a10.638 10.638 0 0 0 4.142-.282 4.2 4.2 0 0 0 2.779-2.243 5.5 5.5 0 0 0 .908-3.442zM564 62.632c-.481.518-.672.6-.963.636-.518.064-2.071 0-2.071 0l.9-2.952a15.731 15.731 0 0 1 1.762 0 1.047 1.047 0 0 1 .836.681 1.614 1.614 0 0 1-.464 1.635z" class="cls-1" data-name="Path 889" transform="translate(-473.952 -30.094)"/>
        <path id="Path_891" d="M805.8 58.5l2.289 7.33-1.144 3.9h3.742l1.044-3.9 6.34-7.33h-4.105l-3.034 3.86-1.208-3.86z" class="cls-1" data-name="Path 891" transform="translate(-701.155 -31.003)"/>
        <g id="Group_975" data-name="Group 975" transform="translate(81.775 41.521)">
            <path id="Path_892" d="M554.372 218.027h.327l-.027.127a.781.781 0 0 1 .191-.118.647.647 0 0 1 .191-.036.4.4 0 0 1 .318.136.594.594 0 0 1 .118.409.837.837 0 0 1-.209.572.541.541 0 0 1-.418.2.429.429 0 0 1-.381-.2l-.136.654H554zm.2.727a.34.34 0 0 0 .073.227.211.211 0 0 0 .173.082.249.249 0 0 0 .164-.064.364.364 0 0 0 .127-.2.973.973 0 0 0 .055-.263.328.328 0 0 0-.064-.218.2.2 0 0 0-.173-.073.288.288 0 0 0-.182.073.513.513 0 0 0-.127.209.773.773 0 0 0-.046.227z" class="cls-3" data-name="Path 892" transform="translate(-554 -217.537)"/>
            <path id="Path_893" d="M572.2 218.772a.778.778 0 0 1 .2-.563.705.705 0 0 1 .518-.209.592.592 0 0 1 .436.154.542.542 0 0 1 .154.418.734.734 0 0 1-.2.527.679.679 0 0 1-.527.227.713.713 0 0 1-.318-.073.494.494 0 0 1-.209-.2.967.967 0 0 1-.054-.281zm.972-.245a.26.26 0 0 0-.073-.191.254.254 0 0 0-.182-.073.338.338 0 0 0-.2.073.484.484 0 0 0-.136.2.825.825 0 0 0-.045.236.331.331 0 0 0 .073.218.229.229 0 0 0 .182.082.288.288 0 0 0 .236-.118.658.658 0 0 0 .145-.427z" class="cls-3" data-name="Path 893" transform="translate(-570.547 -217.537)"/>
            <path id="Path_894" d="M590.144 219.563h-.327l-.064-.808-.381.808h-.318l-.154-1.263h.3l.091.845.391-.845h.309l.045.845.391-.845h.345z" class="cls-3" data-name="Path 894" transform="translate(-585.73 -217.81)"/>
            <path id="Path_895" d="M610.49 218.772h-.854v.027a.283.283 0 0 0 .073.2.258.258 0 0 0 .173.082.29.29 0 0 0 .263-.173l.309.055a.589.589 0 0 1-.236.272.6.6 0 0 1-.336.091.561.561 0 0 1-.418-.163.568.568 0 0 1-.164-.427.76.76 0 0 1 .145-.463.647.647 0 0 1 .563-.272.48.48 0 0 1 .372.145.561.561 0 0 1 .136.4.914.914 0 0 1-.026.226zm-.282-.209v-.036a.288.288 0 0 0-.064-.209.232.232 0 0 0-.173-.073.261.261 0 0 0-.191.082.411.411 0 0 0-.109.236z" class="cls-3" data-name="Path 895" transform="translate(-604.277 -217.537)"/>
            <path id="Path_896" d="M623.773 218.027h.318l-.055.245a.484.484 0 0 1 .391-.272.346.346 0 0 1 .154.036l-.127.282a.326.326 0 0 0-.1-.018.315.315 0 0 0-.182.064.419.419 0 0 0-.145.182 1.782 1.782 0 0 0-.1.354l-.082.4h-.345z" class="cls-3" data-name="Path 896" transform="translate(-617.188 -217.537)"/>
            <path id="Path_897" d="M635.89 218.772h-.854v.027a.283.283 0 0 0 .073.2.258.258 0 0 0 .173.082.289.289 0 0 0 .263-.173l.309.055a.589.589 0 0 1-.236.272.6.6 0 0 1-.336.091.561.561 0 0 1-.418-.163.568.568 0 0 1-.164-.427.76.76 0 0 1 .145-.463.647.647 0 0 1 .563-.272.479.479 0 0 1 .372.145.561.561 0 0 1 .136.4.917.917 0 0 1-.026.226zm-.291-.209v-.036a.288.288 0 0 0-.064-.209.232.232 0 0 0-.173-.073.261.261 0 0 0-.191.082.411.411 0 0 0-.109.236z" class="cls-3" data-name="Path 897" transform="translate(-627.37 -217.537)"/>
            <path id="Path_898" d="M650.817 214.653h-.327l.027-.136a.665.665 0 0 1-.182.127.489.489 0 0 1-.2.036.412.412 0 0 1-.318-.136.569.569 0 0 1-.118-.4.9.9 0 0 1 .173-.545.531.531 0 0 1 .454-.245.41.41 0 0 1 .381.2l.136-.654h.345zm-.79-.509a.291.291 0 0 0 .073.209.233.233 0 0 0 .173.073.255.255 0 0 0 .173-.064.416.416 0 0 0 .127-.191.655.655 0 0 0 .045-.254.331.331 0 0 0-.073-.218.224.224 0 0 0-.173-.082.281.281 0 0 0-.245.163.728.728 0 0 0-.1.364z" class="cls-3" data-name="Path 898" transform="translate(-641.008 -212.9)"/>
            <path id="Path_899" d="M672.9 214.744l.363-1.744h.345l-.118.581a.7.7 0 0 1 .173-.1.546.546 0 0 1 .182-.027.4.4 0 0 1 .318.136.558.558 0 0 1 .118.391 1.043 1.043 0 0 1-.055.336.674.674 0 0 1-.154.263.788.788 0 0 1-.2.154.471.471 0 0 1-.218.045.425.425 0 0 1-.4-.236l-.045.209h-.309zm.463-.509a.324.324 0 0 0 .073.209.211.211 0 0 0 .173.082.249.249 0 0 0 .163-.064.475.475 0 0 0 .127-.2.729.729 0 0 0 .054-.272.291.291 0 0 0-.073-.209.2.2 0 0 0-.173-.073.257.257 0 0 0-.218.118.581.581 0 0 0-.126.409z" class="cls-3" data-name="Path 899" transform="translate(-662.101 -212.991)"/>
            <path id="Path_900" d="M688.409 218.209h.336l.082.627c.018.163.036.272.036.336a3.793 3.793 0 0 1 .182-.409l.3-.563h.363l-.781 1.39a1.72 1.72 0 0 1-.154.245.4.4 0 0 1-.136.109.421.421 0 0 1-.191.036.844.844 0 0 1-.245-.036l.027-.254a.624.624 0 0 0 .118.018c.109 0 .191-.082.254-.236z" class="cls-3" data-name="Path 900" transform="translate(-676.011 -217.719)"/>
        </g>
        <g id="Group_976" data-name="Group 976" transform="translate(96.707 41.412)">
            <path id="Path_901" d="M719.826 212.972l.245.064a.85.85 0 0 1-.282.472.769.769 0 0 1-.5.163.925.925 0 0 1-.5-.127.735.735 0 0 1-.291-.363 1.336 1.336 0 0 1-.1-.509 1.172 1.172 0 0 1 .109-.518.81.81 0 0 1 .318-.336.965.965 0 0 1 .454-.118.733.733 0 0 1 .472.145.779.779 0 0 1 .272.409l-.245.054a.612.612 0 0 0-.191-.3.507.507 0 0 0-.318-.091.657.657 0 0 0-.363.1.551.551 0 0 0-.209.282 1.221 1.221 0 0 0-.064.363 1.146 1.146 0 0 0 .073.418.544.544 0 0 0 .218.272.584.584 0 0 0 .318.091.538.538 0 0 0 .354-.118.511.511 0 0 0 .23-.353z" class="cls-3" data-name="Path 901" transform="translate(-718.4 -211.7)"/>
            <path id="Path_902" d="M739.4 212.9a1.022 1.022 0 0 1 .254-.736.862.862 0 0 1 .654-.263.943.943 0 0 1 .472.127.834.834 0 0 1 .318.345 1.133 1.133 0 0 1 .109.509 1.027 1.027 0 0 1-.118.509.8.8 0 0 1-.327.345.937.937 0 0 1-.926-.009.805.805 0 0 1-.318-.354.984.984 0 0 1-.118-.473zm.254 0a.765.765 0 0 0 .182.536.61.61 0 0 0 .463.2.58.58 0 0 0 .463-.2.822.822 0 0 0 .182-.563.9.9 0 0 0-.082-.4.641.641 0 0 0-.227-.263.6.6 0 0 0-.336-.091.654.654 0 0 0-.454.182.777.777 0 0 0-.191.599z" class="cls-3" data-name="Path 902" transform="translate(-737.493 -211.882)"/>
            <path id="Path_903" d="M762.7 214.089V212.2h.254l.99 1.48v-1.48h.236v1.889h-.254l-.99-1.48v1.48z" class="cls-3" data-name="Path 903" transform="translate(-758.676 -212.155)"/>
            <path id="Path_904" d="M783.7 214.089V212.2h1.362v.218h-1.117V213H785v.218h-1.044v.645h1.154v.218h-1.41z" class="cls-3" data-name="Path 904" transform="translate(-777.769 -212.155)"/>
            <path id="Path_905" d="M802.9 214.089V212.2h.245v.936l.935-.936h.336l-.79.763.827 1.117h-.327l-.672-.954-.309.3v.654h-.245z" class="cls-3" data-name="Path 905" transform="translate(-795.225 -212.155)"/>
            <path id="Path_906" d="M821.418 214.18v-1.662h-.618v-.218h1.49v.218h-.627v1.662z" class="cls-3" data-name="Path 906" transform="translate(-811.499 -212.246)"/>
            <path id="Path_907" d="M835.6 214.089l.727-1.889h.273l.772 1.889h-.282l-.218-.572h-.79l-.209.572zm.545-.781h.636l-.2-.518a3.434 3.434 0 0 1-.136-.391 2.71 2.71 0 0 1-.1.363z" class="cls-3" data-name="Path 907" transform="translate(-824.955 -212.155)"/>
        </g>
        <path id="Path_908" d="M666.471 57.5h-3.678L655 68.726h3.833l1.081-1.608h4.142l.154 1.735h3.806zm-5.041 7.33l1.98-3.043.436 3.043z" class="cls-1" data-name="Path 908" transform="translate(-564.051 -30.094)"/>
        <path id="Path_909" fill="#0697a5" d="M868.9 206.7l1.117 1.453-1.117 1.4h.972l1.017-1.4-1.163-1.453z" data-name="Path 909" transform="translate(-758.523 -165.742)"/>
        <path id="Path_910" fill="#e8573a" d="M865.4 212.5l-.8.926.817.863.354-.472-.372-.391.372-.445z" data-name="Path 910" transform="translate(-754.614 -171.016)"/>
        <path id="Path_911" fill="#efa717" fill-rule="evenodd" d="M34.609 25.563a1.165 1.165 0 0 1 1.163-1.163h34.913a1.165 1.165 0 0 1 1.163 1.163V40.4a1.165 1.165 0 0 1-1.163 1.163H35.763A1.165 1.165 0 0 1 34.6 40.4V25.563z" data-name="Path 911"/>
        <path id="Path_912" fill="#fff" fill-rule="evenodd" d="M34.7 43h37.23v13.8H34.7z" data-name="Path 912" transform="translate(-.091 -16.911)"/>
        <path id="Path_913" d="M351.188 82.5a3.088 3.088 0 1 0 3.088 3.088 3.091 3.091 0 0 0-3.088-3.088z" class="cls-8" data-name="Path 913" transform="translate(-285.026 -52.823)"/>
        <path id="Path_914" d="M70.588 82.5a3.088 3.088 0 1 0 3.088 3.088 3.091 3.091 0 0 0-3.088-3.088z" class="cls-8" data-name="Path 914" transform="translate(-29.912 -52.823)"/>
        <path id="Path_915" d="M66.008 52.484c-2.861-.064-4.205 1.771-6.158 4.033l-1.844 2.134 2.916 3.5a.928.928 0 1 1-1.454 1.149l-2.7-3.215-2.625 3.043a.93.93 0 1 1-1.435-1.181l2.852-3.315-1.868-2.232 1.2-1.48 1.9 2.28 1.635-1.907a12.95 12.95 0 0 1 2.688-2.807H34.7v12.069h6.176c2.861 0 4.16-1.708 6.058-4.024l1.789-2.18-3-3.424a.929.929 0 1 1 1.426-1.19l2.77 3.152 2.561-3.106a.929.929 0 1 1 1.462 1.144l-2.779 3.388 1.92 2.185-1.208 1.435-1.907-2.153-1.6 1.944a12.589 12.589 0 0 1-2.625 2.834h26.169V52.484zM45.654 58.3a4.886 4.886 0 1 1-4.886-4.886 4.9 4.9 0 0 1 4.886 4.886zm20.6 4.886A4.886 4.886 0 1 1 71.14 58.3a4.9 4.9 0 0 1-4.886 4.886z" class="cls-8" data-name="Path 915" transform="translate(-.091 -25.532)"/>
    </g>
</svg>
