<svg width="415" height="135" viewBox="0 0 415 135" fill="none" xmlns="http://www.w3.org/2000/svg">
<g clip-path="url(#clip0_1314_2156)">
<path d="M85.3421 108.827H104.733V52.2133H85.3421V108.827ZM111.444 13.6889H98.3763V26.7695H111.444V13.6889ZM38.15 20.052H19.408V36.4702H36.8136C47.8582 36.4702 54.2151 41.829 54.2151 51.88C54.2151 61.9309 47.8582 67.6231 36.8136 67.6231H19.408V36.8204H0.0168457V108.827H19.408V84.0371H37.8169C60.239 84.0371 73.2943 71.9777 73.2943 51.2091C73.2943 31.7781 60.5762 20.052 38.15 20.052ZM124.5 0.64209H85.3421V39.8163H124.5V0.64209ZM118.138 33.1326H92.0363V6.98827H118.138V33.1326ZM231.931 20.052H214.192V36.4702H230.923C241.968 36.4702 248.329 41.829 248.329 51.88C248.329 61.9309 241.968 67.6231 230.923 67.6231H214.192V36.8204H194.801V108.827H214.192V84.0371H231.931C254.353 84.0371 267.404 71.9777 267.404 51.2091C267.404 31.7781 254.353 20.052 231.931 20.052ZM394.918 40.8248L378.182 83.0202L361.447 40.8248H341.368L368.141 108.827L357.767 134.621H378.182L414.996 40.8248H394.918ZM307.902 40.4872C296.187 40.4872 287.149 43.1666 277.108 48.1921L283.136 61.5934C290.163 57.5721 297.19 55.5637 303.547 55.5637C312.918 55.5637 317.606 59.5849 317.606 66.9564V68.2982H298.851C282.116 68.2982 273.082 76.0031 273.082 88.7335C273.082 101.126 281.783 109.831 296.507 109.831C305.878 109.831 312.573 106.485 317.926 100.789V108.156H337.005V63.9394C336.369 49.5339 325.974 40.4872 307.902 40.4872ZM319.284 86.0583C317.277 91.7504 311.586 96.4426 303.552 96.4426C296.862 96.4426 292.844 93.0922 292.844 87.7334C292.844 82.3746 296.524 80.0286 303.889 80.0286H319.284V86.0583ZM154.282 94.0881C144.911 94.0881 138.221 86.7165 138.221 75.6613C138.221 64.9437 144.911 57.5721 154.282 57.5721C160.976 57.5721 165.997 60.2516 169.681 64.9437L182.749 55.5637C176.725 46.517 166.351 41.1581 153.295 41.1581C132.88 40.8248 118.826 54.8927 118.826 75.6613C118.826 96.4299 132.88 110.169 153.295 110.169C167.354 110.169 177.745 104.472 183.419 95.0923L170.031 86.0498C166.667 91.4086 161.313 94.0881 154.282 94.0881Z" fill="#21C25E"/>
</g>
<defs>
<clipPath id="clip0_1314_2156">
<rect width="415" height="134" fill="white" transform="translate(0 0.625)"/>
</clipPath>
</defs>
</svg>
