<?xml version="1.0" encoding="UTF-8"?>
<svg width="33px" height="33px" viewBox="0 0 33 33" version="1.1" xmlns="http://www.w3.org/2000/svg" xmlns:xlink="http://www.w3.org/1999/xlink">
    <!-- Generator: Sketch 50.2 (55047) - http://www.bohemiancoding.com/sketch -->
    <title>Page 1</title>
    <desc>Created with Sketch.</desc>
    <defs>
        <polygon id="path-1" points="0 31.6892 31.6815 31.6892 31.6815 0.0002 0 0.0002"></polygon>
    </defs>
    <g id="Page-1" stroke="none" stroke-width="1" fill="none" fill-rule="evenodd">
        <g id="payment-methods-CO" transform="translate(-383.000000, -551.000000)">
            <g id="Group-4" transform="translate(99.000000, 128.000000)">
                <g id="PSE7-Copy" transform="translate(263.000000, 420.000000)">
                    <g id="Page-1" transform="translate(21.500000, 4.000000)">
                        <path d="M15.841,0.26935 C8.9405,0.26935 3.0905,4.75885 1.046,10.97535 C1.023,11.05035 0.9995,11.12485 0.975,11.20035 C0.973,11.20485 0.9705,11.20835 0.969,11.21285 C0.948,11.28035 0.9285,11.34835 0.908,11.41585 C0.898,11.45485 0.887,11.49335 0.874,11.53235 C0.48,12.90135 0.269,14.34835 0.269,15.84435 C0.269,17.83585 0.643,19.74035 1.3245,21.49085 C1.5645,21.27885 1.927,21.25285 2.197,21.44885 C2.5095,21.67585 2.5795,22.11235 2.3525,22.42485 C2.232,22.59235 2.051,22.68935 1.86,22.70935 C4.3975,27.86835 9.7045,31.41985 15.841,31.41985 C24.4405,31.41985 31.4125,24.44635 31.4125,15.84435 C31.4125,7.24185 24.4405,0.26935 15.841,0.26935" id="Fill-1" fill="#194072"></path>
                        <path d="M15.841,0.26935 C8.9405,0.26935 3.0905,4.75885 1.046,10.97535 C1.023,11.05035 0.9995,11.12485 0.975,11.20035 C0.973,11.20485 0.9705,11.20835 0.969,11.21285 C0.948,11.28035 0.9285,11.34835 0.908,11.41585 C0.898,11.45485 0.887,11.49335 0.874,11.53235 C0.48,12.90135 0.269,14.34835 0.269,15.84435 C0.269,17.83585 0.643,19.74035 1.3245,21.49085 C1.5645,21.27885 1.927,21.25285 2.197,21.44885 C2.5095,21.67585 2.5795,22.11235 2.3525,22.42485 C2.232,22.59235 2.051,22.68935 1.86,22.70935 C4.3975,27.86835 9.7045,31.41985 15.841,31.41985 C24.4405,31.41985 31.4125,24.44635 31.4125,15.84435 C31.4125,7.24185 24.4405,0.26935 15.841,0.26935 Z" id="Stroke-3" stroke="#FEFEFE" stroke-width="1.077"></path>
                        <path d="M2.3532,22.42515 C2.5797,22.11265 2.5097,21.67515 2.1972,21.44915 C1.9267,21.25365 1.5652,21.27915 1.3247,21.49115 C1.4862,21.90615 1.6657,22.31265 1.8607,22.70965 C2.0512,22.68865 2.2322,22.59265 2.3532,22.42515" id="Fill-5" fill="#F7B916"></path>
                        <path d="M16.73895,19.78575 C15.93895,19.78575 15.30395,19.78925 14.66795,19.78325 C14.48545,19.78175 14.25145,19.85025 14.25395,19.52375 C14.25745,19.05125 14.35345,18.89475 14.68745,18.88475 C14.93045,18.87775 15.17295,18.88375 15.41595,18.88375 C16.43295,18.88375 17.44995,18.88475 18.46695,18.88275 C18.99645,18.88275 19.13245,18.77125 19.22845,18.24325 C19.30395,17.82275 19.36245,17.40025 19.43295,16.97925 C19.50395,16.54875 19.36545,16.38225 18.91945,16.38125 C17.98295,16.38025 17.04695,16.38325 16.11145,16.38675 C15.87995,16.38725 15.65095,16.37275 15.42145,16.33575 C14.84045,16.24475 14.59045,15.99675 14.61895,15.41575 C14.65945,14.60825 14.79395,13.80925 15.00395,13.02925 C15.15345,12.47725 15.56045,12.16675 16.12145,12.15675 C17.58845,12.12975 19.05645,12.14125 20.52345,12.13275 C20.74945,12.13175 20.79045,12.23375 20.76345,12.43825 C20.68745,13.00275 20.69595,13.00375 20.13745,13.00375 C19.00495,13.00375 17.87195,13.00275 16.73945,13.00375 C16.02545,13.00425 15.90695,13.10575 15.78845,13.80525 C15.72695,14.16925 15.65195,14.53125 15.60045,14.89625 C15.53695,15.33675 15.67795,15.48625 16.12595,15.48625 C17.08545,15.48425 18.04445,15.48275 19.00345,15.48425 C19.17645,15.48525 19.35095,15.49675 19.52095,15.52075 C20.26595,15.62375 20.48545,15.86675 20.42395,16.62175 C20.36295,17.35725 20.24995,18.08975 20.06645,18.80475 C19.92945,19.34325 19.57995,19.66275 18.99895,19.73575 C18.19095,19.83675 17.38245,19.74425 16.73895,19.78575" id="Fill-7" fill="#F6F1F1"></path>
                        <path d="M11.4299,12.1451 C12.1239,12.1451 12.8174,12.1326 13.5109,12.1486 C14.1944,12.1651 14.4849,12.4656 14.4419,13.1536 C14.3784,14.1681 14.1444,15.1606 13.9989,16.1656 C13.8899,16.9191 13.7714,17.6721 13.6284,18.4206 C13.4299,19.4676 13.0474,19.7771 11.9709,19.7836 C10.7329,19.7916 9.4964,19.7931 8.2594,19.7796 C8.0109,19.7771 7.9314,19.8386 7.8994,20.0921 C7.8129,20.7786 7.6849,21.4596 7.5739,22.1436 C7.5149,22.5121 6.9744,22.7356 6.6754,22.5136 C6.5319,22.4066 6.5934,22.2596 6.6139,22.1306 C6.7934,20.9666 6.9779,19.8046 7.1634,18.6411 C7.4349,16.9431 7.7064,15.2446 7.9804,13.5461 C8.0209,13.2956 8.0749,13.0481 8.1889,12.8171 C8.4119,12.3641 8.7979,12.1626 9.2794,12.1511 C9.9954,12.1356 10.7129,12.1476 11.4299,12.1476 L11.4299,12.1451" id="Fill-9" fill="#F6F1F1"></path>
                        <path d="M8.0832,18.8829 C8.3697,17.1039 8.6482,15.3514 8.9382,13.6009 C9.0092,13.1739 9.1552,13.0234 9.5767,13.0159 C10.7202,12.9954 11.8642,12.9934 13.0072,13.0104 C13.4162,13.0169 13.5302,13.2089 13.4562,13.6814 C13.2442,15.0249 13.0232,16.3679 12.8067,17.7114 C12.7717,17.9279 12.7397,18.1439 12.6987,18.3589 C12.6317,18.7224 12.4542,18.8794 12.0832,18.8814 C10.7677,18.8854 9.4512,18.8829 8.0832,18.8829" id="Fill-11" fill="#194072"></path>
                        <path d="M23.98895,19.78575 C23.30495,19.75175 22.45995,19.84825 21.62095,19.73875 C20.95795,19.65075 20.69845,19.32875 20.77295,18.65375 C20.83395,18.10375 20.92745,17.55825 21.01595,17.01225 C21.21895,15.75925 21.40795,14.50525 21.63945,13.25775 C21.78195,12.48375 22.19445,12.15575 22.99095,12.14625 C24.34245,12.13075 25.69445,12.13175 27.04495,12.14625 C27.79945,12.15475 28.08045,12.44625 28.02745,13.20125 C27.96395,14.09825 27.81295,14.98725 27.59995,15.86075 C27.44695,16.48625 26.99395,16.79725 26.28045,16.80325 C24.97545,16.81525 23.66995,16.82225 22.36495,16.80075 C22.06145,16.79625 21.96545,16.89525 21.93645,17.17025 C21.89545,17.55975 21.82445,17.94575 21.76795,18.33425 C21.71495,18.69825 21.82795,18.84525 22.19945,18.87425 C22.40645,18.89075 22.61495,18.88275 22.82345,18.88275 C24.01295,18.88375 25.20295,18.88275 26.39295,18.88475 C26.58245,18.88575 26.80395,18.83475 26.80345,19.15375 C26.80095,19.61425 26.70045,19.78175 26.36495,19.78425 C25.62545,19.79025 24.88595,19.78575 23.98895,19.78575" id="Fill-13" fill="#F6F1F1"></path>
                        <path d="M24.2121,15.9503 C23.6226,15.9513 23.0336,15.9443 22.4451,15.9538 C22.2356,15.9573 22.1321,15.9443 22.1846,15.6753 C22.3146,15.0078 22.3996,14.3318 22.5156,13.6618 C22.6041,13.1518 22.7601,13.0158 23.2791,13.0063 C23.9256,12.9953 24.5726,13.0038 25.2196,13.0038 C25.6581,13.0028 26.0976,12.9943 26.5361,13.0048 C26.9616,13.0158 27.1076,13.1688 27.0526,13.5863 C26.9696,14.2153 26.8666,14.8413 26.7486,15.4648 C26.6836,15.8078 26.4646,15.9418 26.0141,15.9478 C25.4136,15.9563 24.8126,15.9498 24.2121,15.9503" id="Fill-15" fill="#194072"></path>
                        <path d="M8.84005,10.3492 C8.84755,10.2992 8.85455,10.2537 8.86105,10.2117 C8.86805,10.2082 8.87105,10.2057 8.87305,10.2057 L9.69155,10.2057 C9.71005,10.2057 9.72955,10.2092 9.74805,10.2137 C9.83355,10.2297 9.87155,10.2717 9.86805,10.3587 C9.86405,10.4367 9.85055,10.5142 9.83955,10.5902 C9.80555,10.8052 9.77005,11.0182 9.73555,11.2322 C9.73205,11.2527 9.72805,11.2737 9.72355,11.2932 C9.69805,11.3937 9.63755,11.4617 9.53205,11.4632 C9.28455,11.4667 9.03755,11.4647 8.79055,11.4592 C8.71105,11.4572 8.67155,11.4112 8.67055,11.3317 C8.66855,11.2622 8.68105,11.1917 8.69055,11.1232 C8.70405,11.0327 8.71705,10.9427 8.73805,10.8552 C8.76505,10.7402 8.82555,10.6867 8.94255,10.6832 C9.16555,10.6782 9.38905,10.6782 9.61205,10.6792 C9.65855,10.6792 9.67805,10.6687 9.68105,10.6202 C9.68505,10.5602 9.70055,10.5012 9.70755,10.4412 C9.71505,10.3732 9.69505,10.3527 9.62505,10.3492 L9.58205,10.3492 L8.89755,10.3492 L8.84005,10.3492 Z M9.64605,10.8312 C9.64005,10.8277 9.63555,10.8252 9.63055,10.8252 C9.41205,10.8252 9.19155,10.8252 8.97205,10.8257 C8.92205,10.8267 8.89155,10.8542 8.88305,10.9032 C8.86355,11.0157 8.84455,11.1292 8.82805,11.2427 C8.82005,11.2972 8.84355,11.3242 8.89955,11.3252 C9.09605,11.3257 9.29155,11.3257 9.48805,11.3242 C9.54055,11.3242 9.57055,11.2972 9.57955,11.2442 C9.60305,11.1067 9.62405,10.9687 9.64605,10.8312 Z" id="Fill-17" fill="#F6F1F1"></path>
                        <path d="M12.18915,11.46665 L12.03815,11.46665 C12.05415,11.36365 12.06965,11.26315 12.08615,11.16265 C12.12315,10.92215 12.16115,10.68065 12.19915,10.44015 C12.20765,10.38015 12.18815,10.35165 12.12965,10.35065 C11.90815,10.34915 11.68665,10.35015 11.46115,10.35015 C11.40165,10.72265 11.34365,11.09265 11.28365,11.46665 L11.12815,11.46665 C11.22365,10.85415 11.32065,10.24315 11.41615,9.63265 L11.57215,9.63265 C11.54315,9.82215 11.51365,10.01065 11.48365,10.20465 L11.53965,10.20465 L12.14765,10.20465 C12.32915,10.20565 12.38015,10.26465 12.35215,10.44365 C12.29965,10.77915 12.24715,11.11415 12.19465,11.44965 C12.19415,11.45465 12.19165,11.45865 12.18915,11.46665" id="Fill-19" fill="#F6F1F1"></path>
                        <path d="M11.0949,10.3492 L10.7074,10.3492 L10.4429,10.3492 C10.3249,10.3492 10.3069,10.3617 10.2874,10.4797 C10.2459,10.7242 10.2074,10.9702 10.1674,11.2157 C10.1534,11.3017 10.1744,11.3257 10.2629,11.3257 C10.4699,11.3267 10.6779,11.3257 10.8849,11.3257 L10.9384,11.3257 C10.9319,11.3747 10.9254,11.4187 10.9179,11.4667 C10.9019,11.4677 10.8864,11.4692 10.8709,11.4692 C10.6574,11.4692 10.4429,11.4692 10.2299,11.4682 C10.1964,11.4682 10.1624,11.4657 10.1299,11.4607 C10.0424,11.4462 10.0004,11.4032 10.0049,11.3147 C10.0114,11.2127 10.0284,11.1097 10.0444,11.0072 C10.0739,10.8167 10.1069,10.6267 10.1364,10.4367 C10.1624,10.2737 10.2344,10.2067 10.3984,10.2057 C10.6279,10.2037 10.8579,10.2047 11.0874,10.2047 C11.0949,10.2047 11.1034,10.2067 11.1169,10.2072 C11.1094,10.2547 11.1024,10.2992 11.0949,10.3492" id="Fill-21" fill="#F6F1F1"></path>
                        <path d="M9.6462,10.83065 C9.6242,10.96865 9.6032,11.10715 9.5797,11.24465 C9.5712,11.29715 9.5407,11.32365 9.4872,11.32465 C9.2917,11.32615 9.0957,11.32615 8.8997,11.32465 C8.8432,11.32465 8.8202,11.29715 8.8272,11.24215 C8.8442,11.12865 8.8642,11.01615 8.8837,10.90265 C8.8912,10.85465 8.9222,10.82615 8.9717,10.82615 C9.1917,10.82465 9.4107,10.82465 9.6312,10.82465 C9.6357,10.82465 9.6397,10.82815 9.6462,10.83065" id="Fill-23" fill="#194072"></path>
                        <path d="M3.1994,19.10285 C3.5849,19.10285 3.8979,19.41535 3.8979,19.80185 C3.8979,20.18785 3.5849,20.50035 3.1994,20.50035 C2.8139,20.50035 2.5009,20.18785 2.5009,19.80185 C2.5009,19.41535 2.8139,19.10285 3.1994,19.10285" id="Fill-25" fill="#F7B916"></path>
                        <path d="M2.9909,10.4996 C3.3589,10.3846 3.7514,10.5901 3.8664,10.9581 C3.9814,11.3261 3.7764,11.7186 3.4079,11.8336 C3.0394,11.9486 2.6474,11.7436 2.5319,11.3756 C2.4169,11.0076 2.6224,10.6146 2.9909,10.4996" id="Fill-27" fill="#F7B916"></path>
                        <path d="M1.1193,10.7005 C1.0788,10.865 1.0283,11.0255 0.9748,11.187 C0.9648,11.216 0.9508,11.241 0.9338,11.263 C0.9328,11.265 0.9318,11.2675 0.9318,11.2695 C0.9173,11.3965 0.8788,11.5195 0.8283,11.6385 C0.8258,11.649 0.8223,11.6585 0.8198,11.668 C0.8198,11.693 0.8168,11.716 0.8118,11.7365 C0.9263,11.6895 1.0293,11.611 1.1083,11.503 C1.2848,11.258 1.2798,10.937 1.1193,10.7005" id="Fill-29" fill="#F7B916"></path>
                        <path d="M0.6276,19.2242 L0.6611,19.4637 C0.7091,19.7232 0.8031,19.9742 0.8656,20.2292 C0.8706,20.2532 0.8756,20.2772 0.8806,20.3012 C0.8986,20.2827 0.9156,20.2627 0.9316,20.2402 C1.1586,19.9277 1.0886,19.4912 0.7751,19.2647 C0.7246,19.2277 0.6711,19.1992 0.6156,19.1777 C0.6201,19.1927 0.6251,19.2067 0.6276,19.2242" id="Fill-31" fill="#F7B916"></path>
                        <path d="M1.29315,18.1905 C1.02015,17.9175 1.02015,17.475 1.29315,17.2015 C1.56565,16.9285 2.00815,16.9285 2.28165,17.2015 C2.55415,17.475 2.55415,17.9175 2.28165,18.1905 C2.00815,18.4635 1.56565,18.4635 1.29315,18.1905" id="Fill-33" fill="#F7B916"></path>
                        <polygon id="Fill-35" fill="#F7B916" points="4.0373 17.806 2.5593 17.806 2.5593 17.587 3.9053 17.587 5.0938 15.3525 5.2878 15.4555"></polygon>
                        <path d="M4.08125,17.879 L2.48625,17.879 L2.48625,17.514 L3.86225,17.514 L5.06425,15.254 L5.38625,15.4255 L4.08125,17.879 Z M2.63225,17.733 L3.99325,17.733 L5.18925,15.4855 L5.12425,15.4515 L3.94925,17.66 L2.63225,17.66 L2.63225,17.733 Z" id="Fill-37" fill="#F7B916"></path>
                        <mask id="mask-2" fill="white">
                            <use xlink:href="#path-1"></use>
                        </mask>
                        <g id="Clip-40"></g>
                        <polygon id="Fill-39" fill="#F7B916" mask="url(#mask-2)" points="0.3345 15.5137 7.209 15.5137 7.209 15.2947 0.3345 15.2947"></polygon>
                        <path d="M0.262,15.5867 L7.282,15.5867 L7.282,15.2212 L0.262,15.2212 L0.262,15.5867 Z M0.408,15.4407 L7.136,15.4407 L7.136,15.3677 L0.408,15.3677 L0.408,15.4407 Z" id="Fill-41" fill="#F7B916" mask="url(#mask-2)"></path>
                        <polygon id="Fill-42" fill="#F7B916" mask="url(#mask-2)" points="3.90105 15.4669 2.54805 13.5149 0.55355 13.5149 0.55355 13.2959 2.66305 13.2959 4.08105 15.3419"></polygon>
                        <path d="M3.8825,15.56845 L2.51,13.58845 L0.4805,13.58845 L0.4805,13.22245 L2.702,13.22245 L4.183,15.36045 L3.8825,15.56845 Z M0.627,13.44245 L2.5865,13.44245 L3.919,15.36495 L3.979,15.32345 L2.6245,13.36845 L0.627,13.36845 L0.627,13.44245 Z" id="Fill-43" fill="#F7B916" mask="url(#mask-2)"></path>
                        <path d="M2.19695,8.42685 C2.17845,8.41335 2.15995,8.40185 2.14045,8.39085 C2.13395,8.39935 2.12895,8.40685 2.12195,8.41585 C2.11495,8.42285 2.10595,8.42785 2.09995,8.43385 C2.07195,8.48085 2.04245,8.52685 2.01195,8.57235 C2.00395,8.58935 1.99445,8.60535 1.98595,8.62285 C1.97495,8.64785 1.96245,8.67185 1.95145,8.69585 C1.94945,8.69835 1.94895,8.69985 1.94695,8.70285 C1.84395,8.91585 1.74845,9.13335 1.65545,9.35235 C1.62345,9.43385 1.59045,9.51535 1.55945,9.59685 C1.55245,9.61435 1.54445,9.62985 1.53545,9.64435 C1.82445,9.75585 2.16295,9.66585 2.35295,9.40285 C2.57945,9.09035 2.50945,8.65385 2.19695,8.42685" id="Fill-44" fill="#F7B916" mask="url(#mask-2)"></path>
                    </g>
                </g>
            </g>
        </g>
    </g>
</svg>