<?xml version="1.0" encoding="UTF-8"?>
<svg width="44px" height="15px" viewBox="0 0 44 15" version="1.1" xmlns="http://www.w3.org/2000/svg" xmlns:xlink="http://www.w3.org/1999/xlink">
    <!-- Generator: Sketch 50.2 (55047) - http://www.bohemiancoding.com/sketch -->
    <title>Page 1 Copy 41</title>
    <desc>Created with Sketch.</desc>
    <defs>
        <polygon id="path-1" points="0.000193257622 0.260422484 12.466327 0.260422484 12.466327 14.5 0.000193257622 14.5"></polygon>
        <polygon id="path-3" points="0.258214286 0.00261818182 4.52642857 0.00261818182 4.52642857 7.22807273 0.258214286 7.22807273"></polygon>
    </defs>
    <g id="Page-1" stroke="none" stroke-width="1" fill="none" fill-rule="evenodd">
        <g id="payment-methods-MX" transform="translate(-378.000000, -559.000000)">
            <g id="Group-4" transform="translate(99.000000, 126.000000)">
                <g id="SPEI7" transform="translate(263.000000, 420.000000)">
                    <g id="Page-1-Copy-41" transform="translate(16.000000, 13.000000)">
                        <path d="M37.5,10.9308778 L37.5,14 L26,14 L26,0.5 L37.2869308,0.5 L37.2869308,3.74390953 L30.2312539,3.74390953 L30.2312539,5.09583576 L36.7725515,5.09583576 L36.7725515,7.86104212 L30.2499064,7.86104212 C30.2499064,8.39182476 30.2197754,8.89977805 30.2090143,9.40416424 C30.1989707,9.89713576 30.2068621,10.3908207 30.2068621,10.9308778 L37.5,10.9308778 Z" id="Fill-1" fill="#F6921D"></path>
                        <g id="Group-5">
                            <mask id="mask-2" fill="white">
                                <use xlink:href="#path-1"></use>
                            </mask>
                            <g id="Clip-4"></g>
                            <path d="M12.0684056,4.33666 C10.6867944,4.421485 9.38246111,4.50196 8.04129444,4.583885 C7.89540556,3.80306 7.47868333,3.116485 6.68568333,2.88376 C5.95046111,2.66771 4.90901667,2.738035 4.50096111,3.48986 C4.43523889,3.68271 4.43307222,3.90456 4.47712778,4.13221 C4.86062778,4.979735 6.42785,5.03121 7.20062778,5.223335 C8.28540556,5.493035 9.38607222,5.777235 10.37335,6.31736 C11.4277944,6.89446 12.1435167,7.726035 12.3811278,8.933885 C12.9134056,11.64321 10.8796278,13.92406 8.28973889,14.333685 C6.66040556,14.59106 5.03179444,14.562785 3.41690556,14.159685 C1.57523889,13.69931 -0.141483333,11.74906 0.00946111111,9.75096 C0.0506277778,9.724135 0.0780722222,9.69151 0.107683333,9.689335 C1.40262778,9.603785 2.70696111,9.471835 4.00479444,9.471835 C4.24385,10.45276 4.57390556,11.36336 5.63557222,11.672935 C6.48635,11.92016 7.80585,11.822285 8.22112778,10.894285 C8.74473889,9.72196 7.51046111,9.084685 6.58890556,8.82876 C5.38207222,8.494535 4.14923889,8.27486 3.00596111,7.73981 C1.01623889,6.81036 -0.194205556,4.705685 0.921627778,2.584335 C2.10173889,0.341185 4.95235,0.178785 7.17751667,0.28391 C8.42335,0.342635 9.74646111,0.613785 10.7005167,1.48016 C11.0717389,1.81656 11.3649611,2.23126 11.5765722,2.685835 C11.8242944,3.21726 11.8481278,3.80596 12.0684056,4.33666" id="Fill-3" fill="#333183" mask="url(#mask-2)"></path>
                        </g>
                        <g id="Group-8" transform="translate(38.500000, 7.000000)">
                            <mask id="mask-4" fill="white">
                                <use xlink:href="#path-3"></use>
                            </mask>
                            <g id="Clip-7"></g>
                            <path d="M0.258214286,7.22807273 L0.258214286,0.920436364 C0.7625,0.889890909 1.24678571,0.891345455 1.76392857,0.916072727 L1.76392857,3.57061818 C1.79107143,3.58225455 1.8175,3.59461818 1.84392857,3.60625455 C2.72321429,2.42516364 3.6025,1.24334545 4.52678571,0.00261818182 L4.52678571,7.22807273 L0.258214286,7.22807273 Z" id="Fill-6" fill="#333183" mask="url(#mask-4)"></path>
                        </g>
                        <path d="M43,6 C42.1462636,4.74927536 41.3153652,3.53115942 40.4347607,2.24057971 L40.4347607,5.04130435 C39.943073,5.12971014 39.4849706,5.07101449 39,5.08478261 L39,0.5 L43,0.5 L43,6 Z" id="Fill-9" fill="#333183"></path>
                        <path d="M20.0997902,6.05635425 C19.3518519,6.34708813 18.5341725,6.25112462 17.7428239,6.25112462 L17.7428239,3.26914754 C18.6836178,3.32814733 20.0314723,3.00826897 20.6648358,3.93022947 C21.1380794,4.61832335 20.9238744,5.7364759 20.0997902,6.05635425 M24.8820406,3.55490553 C24.6222904,2.3621147 24.0173926,1.43162412 22.8510075,0.934746409 C21.5003064,0.359676215 19.9809456,0.521037073 18.5469821,0.520326232 C16.972113,0.519615392 15.397244,0.518904551 13.8216633,0.51819371 C13.7220331,0.51819371 13.618133,0.499001009 13.5,0.570085087 L13.5,14 L17.7364191,14 L17.7364191,9.01558443 C19.551824,9.01558443 21.6646962,9.27504132 23.270166,8.23934629 C24.7824104,7.26407274 25.2464025,5.23248978 24.8820406,3.55490553" id="Fill-11" fill="#333183"></path>
                    </g>
                </g>
            </g>
        </g>
    </g>
</svg>