<svg width="46px" height="14.86px" xmlns="http://www.w3.org/2000/svg" viewBox="0 0 46 14.86"><defs><style>.cls-1{fill:#1434cb;}</style></defs><g id="Layer_2" data-name="Layer 2"><g id="Layer_1-2" data-name="Layer 1"><path class="cls-1" d="M17.47.26l-6,14.37H7.51l-3-11.47A1.6,1.6,0,0,0,3.67,1.9,15.78,15.78,0,0,0,0,.68L.09.26H6.41A1.74,1.74,0,0,1,8.13,1.73L9.69,10,13.56.26ZM32.86,9.94c0-3.79-5.24-4-5.21-5.7,0-.51.5-1.06,1.58-1.2a7,7,0,0,1,3.66.64l.66-3A9.91,9.91,0,0,0,30.07,0c-3.67,0-6.26,2-6.28,4.75C23.76,6.82,25.63,8,27,8.66S29,9.82,29,10.45c0,1-1.15,1.39-2.22,1.4a7.68,7.68,0,0,1-3.82-.91l-.67,3.15a11.23,11.23,0,0,0,4.13.77c3.9,0,6.46-1.93,6.47-4.92m9.7,4.69H46L43,.26H39.83a1.7,1.7,0,0,0-1.59,1.06L32.67,14.63h3.9l.77-2.15h4.77ZM38.41,9.54l2-5.4,1.13,5.4ZM22.78.26,19.7,14.63H16L19.06.26Z"/></g></g></svg>